v -0.885600 0.000000 -0.219900
v -0.824700 0.000000 0.325500
v -0.885600 0.523800 -0.219900
v -0.824700 0.523800 0.325500
v -0.595500 0.000000 -0.708300
v -0.595500 0.523800 -0.708300
v -0.719900 0.523300 -0.268700
v -0.701700 0.523300 0.387400
v -0.719900 1.035400 -0.268700
v -0.701700 1.035400 0.387400
v -0.824700 0.000000 0.325500
v -0.588500 0.000000 0.649800
v -0.824700 0.523800 0.325500
v -0.588500 0.523800 0.649800
v -0.701700 0.523300 0.387400
v -0.510700 0.523300 0.687100
v -0.701700 1.035400 0.387400
v -0.510700 1.035400 0.687100
v -0.411400 0.523300 -0.721000
v -0.411400 1.035400 -0.721000
v -0.701700 1.035400 0.387400
v 0.197900 1.035400 -0.880600
v -0.719900 1.035400 -0.268700
v -0.411400 1.035400 -0.721000
v -0.191500 0.000000 0.850400
v -0.191500 0.523800 0.850400
v -0.180600 0.000000 -0.935600
v -0.180600 0.523800 -0.935600
v -0.411400 0.523300 -0.721000
v 0.986300 0.523300 0.389100
v -0.719900 0.523300 -0.268700
v -0.701700 0.523300 0.387400
v 0.593300 0.523300 0.830500
v -0.510700 0.523300 0.687100
v 0.021600 0.523300 0.935000
v -0.191500 0.523800 0.850400
v -0.824700 0.523800 0.325500
v -0.588500 0.523800 0.649800
v 0.021600 0.523300 0.935000
v 0.021600 1.035400 0.935000
v -0.885600 0.523800 -0.219900
v 0.757500 0.523800 0.470100
v 0.322200 0.523800 0.817700
v 0.197900 0.523300 -0.880600
v 0.197900 1.035400 -0.880600
v 0.781700 1.035400 -0.606700
v -0.510700 1.035400 0.687100
v 0.322200 0.000000 0.817700
v 0.322200 0.523800 0.817700
v 0.317000 0.000000 -0.895800
v 0.317000 0.523800 -0.895800
v 0.593300 0.523300 0.830500
v 0.593300 1.035400 0.830500
v 1.038600 1.035400 -0.085100
v 0.021600 1.035400 0.935000
v 1.038600 0.523300 -0.085100
v 0.197900 0.523300 -0.880600
v 0.781700 0.523300 -0.606700
v -0.595500 0.523800 -0.708300
v 0.906700 0.523800 -0.046700
v 0.764000 0.523800 -0.542500
v -0.180600 0.523800 -0.935600
v 0.317000 0.523800 -0.895800
v 0.781700 0.523300 -0.606700
v 0.781700 1.035400 -0.606700
v 0.757500 0.000000 0.470100
v 0.757500 0.523800 0.470100
v 0.764000 0.000000 -0.542500
v 0.764000 0.523800 -0.542500
v 0.593300 1.035400 0.830500
v 0.986300 1.035400 0.389100
v 0.986300 0.523300 0.389100
v 0.986300 1.035400 0.389100
v 0.906700 0.000000 -0.046700
v 0.906700 0.523800 -0.046700
v 0.764000 0.000000 -0.542500
v 0.764000 0.523800 -0.542500
v 1.038600 0.523300 -0.085100
v 1.038600 1.035400 -0.085100
v 1.038600 0.523300 -0.085100
v 1.038600 1.035400 -0.085100
vt 0.351500 0.429600
vt 0.351500 0.429600
vt 0.351500 0.429600
vt 0.351500 0.429600
vt 0.351500 0.429600
vt 0.351500 0.429600
vt 0.164000 0.179600
vt 0.164000 0.179600
vt 0.164000 0.179600
vt 0.164000 0.179600
vt 0.351500 0.429600
vt 0.351500 0.429600
vt 0.351500 0.429600
vt 0.351500 0.429600
vt 0.164000 0.179600
vt 0.164000 0.179600
vt 0.164000 0.179600
vt 0.164000 0.179600
vt 0.164000 0.179600
vt 0.164000 0.179600
vt 0.257800 0.335900
vt 0.257800 0.335900
vt 0.257800 0.335900
vt 0.257800 0.335900
vt 0.351500 0.429600
vt 0.351500 0.429600
vt 0.351500 0.429600
vt 0.351500 0.429600
vt 0.101500 0.335900
vt 0.101500 0.335900
vt 0.101500 0.335900
vt 0.101500 0.335900
vt 0.101500 0.335900
vt 0.101500 0.335900
vt 0.101500 0.335900
vt 0.070300 0.460900
vt 0.070300 0.460900
vt 0.070300 0.460900
vt 0.164000 0.179600
vt 0.164000 0.179600
vt 0.070300 0.460900
vt 0.070300 0.460900
vt 0.070300 0.460900
vt 0.164000 0.179600
vt 0.164000 0.179600
vt 0.257800 0.335900
vt 0.257800 0.335900
vt 0.351500 0.429600
vt 0.351500 0.429600
vt 0.351500 0.429600
vt 0.351500 0.429600
vt 0.164000 0.179600
vt 0.164000 0.179600
vt 0.257800 0.335900
vt 0.257800 0.335900
vt 0.101500 0.335900
vt 0.101500 0.335900
vt 0.101500 0.335900
vt 0.070300 0.460900
vt 0.070300 0.460900
vt 0.070300 0.460900
vt 0.070300 0.460900
vt 0.070300 0.460900
vt 0.164000 0.179600
vt 0.164000 0.179600
vt 0.351500 0.429600
vt 0.351500 0.429600
vt 0.351500 0.429600
vt 0.351500 0.429600
vt 0.257800 0.335900
vt 0.257800 0.335900
vt 0.164000 0.179600
vt 0.164000 0.179600
vt 0.351500 0.429600
vt 0.351500 0.429600
vt 0.351500 0.429600
vt 0.351500 0.429600
vt 0.164000 0.179600
vt 0.164000 0.179600
vt 0.164000 0.179600
vt 0.164000 0.179600
vn -0.946440 0.000000 -0.322879
vn -0.993824 0.000000 0.110971
vn -0.994369 0.000000 -0.105973
vn -0.993824 0.000000 0.110971
vn -0.644106 0.000000 -0.764936
vn -0.770833 0.000000 -0.637037
vn -0.933640 0.000000 -0.358213
vn -0.999615 0.000000 0.027729
vn -0.988318 0.000000 -0.152406
vn -0.999615 0.000000 0.027729
vn -0.808326 0.000000 0.588735
vn -0.698747 0.000000 0.715369
vn -0.808326 0.000000 0.588735
vn -0.575782 0.000000 0.817603
vn -0.843302 0.000000 0.537440
vn -0.679722 0.000000 0.733470
vn -0.843302 0.000000 0.537440
vn -0.535190 0.000000 0.844732
vn -0.450927 0.000000 -0.892561
vn -0.655425 0.000000 -0.755260
vn 0.000000 1.000000 0.000000
vn 0.000000 1.000000 0.000000
vn 0.000000 1.000000 0.000000
vn 0.000000 1.000000 0.000000
vn -0.271229 0.000000 0.962515
vn -0.094493 0.000000 0.995526
vn -0.104174 0.000000 -0.994559
vn -0.298267 0.000000 -0.954483
vn 0.000000 -1.000000 0.000000
vn 0.000000 -1.000000 0.000000
vn 0.000000 -1.000000 0.000000
vn 0.000000 -1.000000 0.000000
vn 0.000000 -1.000000 0.000000
vn 0.000000 -1.000000 0.000000
vn 0.000000 -1.000000 0.000000
vn 0.000000 1.000000 0.000000
vn 0.000000 1.000000 0.000000
vn 0.000000 1.000000 0.000000
vn -0.232579 0.000000 0.972577
vn -0.023208 0.000000 0.999731
vn 0.000000 1.000000 0.000000
vn 0.000000 1.000000 0.000000
vn 0.000000 1.000000 0.000000
vn 0.213436 0.000000 -0.976957
vn -0.025125 0.000000 -0.999684
vn 0.000000 1.000000 0.000000
vn 0.000000 1.000000 0.000000
vn 0.271730 0.000000 0.962373
vn 0.465406 0.000000 0.885097
vn 0.472664 0.000000 -0.881243
vn 0.287494 0.000000 -0.957782
vn 0.389836 0.000000 0.920885
vn 0.588126 0.000000 0.808770
vn 0.000000 1.000000 0.000000
vn 0.000000 1.000000 0.000000
vn 0.000000 -1.000000 0.000000
vn 0.000000 -1.000000 0.000000
vn 0.000000 -1.000000 0.000000
vn 0.000000 1.000000 0.000000
vn 0.000000 1.000000 0.000000
vn 0.000000 1.000000 0.000000
vn 0.000000 1.000000 0.000000
vn 0.000000 1.000000 0.000000
vn 0.768217 0.000000 -0.640190
vn 0.600368 0.000000 -0.799724
vn 0.765170 0.000000 0.643829
vn 0.883132 0.000000 0.469124
vn 0.620082 0.000000 -0.784537
vn 0.620082 0.000000 -0.784537
vn 0.000000 1.000000 0.000000
vn 0.000000 1.000000 0.000000
vn 0.850755 0.000000 0.525562
vn 0.941475 0.000000 0.337083
vn 0.994858 0.000000 0.101281
vn 0.995948 0.000000 -0.089929
vn 0.960988 0.000000 -0.276589
vn 0.960988 0.000000 -0.276589
vn 0.897094 0.000000 -0.441839
vn 0.897094 0.000000 -0.441839
vn 0.993973 0.000000 0.109626
vn 0.993973 0.000000 0.109626
f 4/4/4 2/2/2 4/4/4 
f 3/3/3 2/2/2 4/4/4 
f 3/3/3 1/1/1 2/2/2 
f 6/6/6 1/1/1 3/3/3 
f 6/6/6 5/5/5 1/1/1 
f 28/28/28 5/5/5 6/6/6 
f 28/28/28 27/27/27 5/5/5 
f 51/51/51 27/27/27 28/28/28 
f 51/51/51 50/50/50 27/27/27 
f 69/69/69 50/50/50 51/51/51 
f 69/69/69 68/68/68 50/50/50 
f 56/56/56 57/57/57 58/58/58 
f 30/30/30 57/57/57 56/56/56 
f 30/30/30 29/29/29 57/57/57 
f 30/30/30 29/29/29 30/30/30 
f 30/30/30 31/31/31 29/29/29 
f 30/30/30 31/31/31 30/30/30 
f 30/30/30 32/32/32 31/31/31 
f 33/33/33 32/32/32 30/30/30 
f 33/33/33 34/34/34 32/32/32 
f 35/35/35 34/34/34 33/33/33 
f 62/62/62 61/61/61 63/63/63 
f 59/59/59 61/61/61 62/62/62 
f 59/59/59 60/60/60 61/61/61 
f 59/59/59 60/60/60 59/59/59 
f 59/59/59 42/42/42 60/60/60 
f 41/41/41 42/42/42 59/59/59 
f 41/41/41 42/42/42 42/42/42 
f 37/37/37 42/42/42 41/41/41 
f 37/37/37 43/43/43 42/42/42 
f 37/37/37 43/43/43 37/37/37 
f 37/37/37 36/36/36 43/43/43 
f 37/37/37 36/36/36 37/37/37 
f 37/37/37 38/38/38 36/36/36 
f 71/71/71 70/70/70 71/71/71 
f 54/54/54 70/70/70 71/71/71 
f 54/54/54 55/55/55 70/70/70 
f 54/54/54 55/55/55 54/54/54 
f 54/54/54 47/47/47 55/55/55 
f 46/46/46 47/47/47 54/54/54 
f 46/46/46 47/47/47 47/47/47 
f 22/22/22 47/47/47 46/46/46 
f 22/22/22 21/21/21 47/47/47 
f 22/22/22 21/21/21 22/22/22 
f 22/22/22 23/23/23 21/21/21 
f 24/24/24 23/23/23 22/22/22 
f 16/16/16 17/17/17 15/15/15 
f 16/16/16 17/17/17 16/16/16 
f 16/16/16 18/18/18 17/17/17 
f 39/39/39 18/18/18 16/16/16 
f 39/39/39 40/40/40 18/18/18 
f 52/52/52 40/40/40 39/39/39 
f 52/52/52 53/53/53 40/40/40 
f 72/72/72 53/53/53 52/52/52 
f 72/72/72 73/73/73 53/53/53 
f 80/80/80 73/73/73 72/72/72 
f 80/80/80 81/81/81 73/73/73 
f 10/10/10 8/8/8 10/10/10 
f 9/9/9 8/8/8 10/10/10 
f 9/9/9 7/7/7 8/8/8 
f 20/20/20 7/7/7 9/9/9 
f 20/20/20 19/19/19 7/7/7 
f 45/45/45 19/19/19 20/20/20 
f 45/45/45 44/44/44 19/19/19 
f 65/65/65 44/44/44 45/45/45 
f 65/65/65 64/64/64 44/44/44 
f 79/79/79 64/64/64 65/65/65 
f 79/79/79 78/78/78 64/64/64 
f 12/12/12 13/13/13 11/11/11 
f 12/12/12 13/13/13 12/12/12 
f 12/12/12 14/14/14 13/13/13 
f 25/25/25 14/14/14 12/12/12 
f 25/25/25 26/26/26 14/14/14 
f 48/48/48 26/26/26 25/25/25 
f 48/48/48 49/49/49 26/26/26 
f 66/66/66 49/49/49 48/48/48 
f 66/66/66 67/67/67 49/49/49 
f 74/74/74 67/67/67 66/66/66 
f 74/74/74 75/75/75 67/67/67 
f 76/76/76 75/75/75 74/74/74 
f 76/76/76 77/77/77 75/75/75 
