v -0.746000 0.000000 0.495500
v -0.819600 0.110900 0.528900
v -0.660600 0.091500 0.431800
v -0.697300 0.163600 0.456400
v -0.697500 0.077500 0.626400
v -0.627100 0.137500 0.512800
v -0.689000 0.605900 -0.042300
v -0.736600 0.495900 -0.273900
v -0.592800 0.000000 -0.158600
v -0.705600 0.365000 -0.355900
v -0.660600 0.091500 0.431800
v -0.697300 0.163600 0.456400
v -0.571300 0.234200 0.121200
v -0.689000 0.605900 -0.042300
v -0.705600 0.365000 -0.355900
v -0.495100 0.381400 -0.535300
v -0.384600 0.762900 -0.428700
v -0.627100 0.137500 0.512800
v -0.290700 0.660900 0.013400
v -0.880800 0.091000 -0.120900
v -1.025100 0.057000 -0.101200
v -1.062400 0.000900 0.022100
v -0.320900 0.423100 0.260700
v -0.312100 0.000000 -0.236500
v -0.705600 0.365000 -0.355900
v -0.290700 0.660900 0.013400
v -0.571300 0.234200 0.121200
v -0.514200 0.127800 0.319100
v -0.320900 0.423100 0.260700
v -0.340400 0.253500 0.382000
v -0.736600 0.495900 -0.273900
v -0.705600 0.365000 -0.355900
v -0.880800 0.091000 -0.120900
v -0.283500 0.139500 0.158800
v -0.281200 0.073700 0.283600
v -0.444400 0.132700 0.493000
v -0.293000 0.000000 0.523100
v -0.406200 0.000000 0.372500
v -0.282600 0.020500 0.380400
v -0.592800 0.000000 -0.158600
v -0.296400 0.000000 0.059300
v -0.283500 0.139500 0.158800
v -0.282600 0.020500 0.380400
v -0.406200 0.000000 0.372500
v -0.467400 0.000000 0.494700
v 0.072000 0.493100 0.272900
v 0.098100 0.000000 0.109200
v 0.299100 0.745300 -0.084000
v 0.353500 0.318400 -0.546500
v 0.321300 0.685700 -0.429900
v -0.149900 0.060800 0.455200
v -0.036300 0.084300 0.562100
v -0.053400 0.163800 0.393200
v 0.042600 0.184200 0.468000
v 0.293900 0.019000 -0.325400
v 0.012400 0.000000 0.465900
v 0.077000 0.121200 0.409400
v 0.299100 0.745300 -0.084000
v 0.298800 0.459600 0.221900
v 0.042600 0.184200 0.468000
v -0.053400 0.163800 0.393200
v 0.403300 0.172600 0.125800
v 0.077000 0.121200 0.409400
v 0.699600 0.449200 -0.236000
v 0.650300 0.107300 -0.223300
v 0.357500 0.042100 0.420000
v 0.519100 0.000000 0.453900
v 0.502300 0.158800 0.451800
v 0.495400 0.140600 0.316400
v 0.415700 0.037600 0.303400
v 0.619900 0.095000 -0.073000
v 0.634900 0.237100 0.002600
v 0.650300 0.107300 -0.223300
v 0.695000 0.099100 -0.185900
v 0.712800 0.300300 -0.090600
v 0.699600 0.449200 -0.236000
v 0.400300 0.036600 0.043000
v 0.293900 0.019000 -0.325400
v 0.415700 0.037600 0.303400
v 0.495400 0.140600 0.316400
v 0.534800 0.014800 0.319400
v 0.900600 0.444800 -0.339300
v 0.764200 0.550800 -0.405500
v 0.794100 0.464000 -0.220000
v 0.936000 0.399100 -0.326300
v 0.833600 0.315300 -0.413400
v 0.906100 0.423900 -0.253300
v 0.869400 0.118100 -0.239700
v 0.803900 0.000000 -0.280800
v 0.874600 0.000000 -0.173400
v 0.803400 0.384900 -0.146600
v 0.846100 0.300400 -0.042400
v 0.904400 0.425000 -0.061600
v 0.699600 0.449200 -0.236000
v 0.992800 0.351000 -0.063300
v 0.869400 0.118100 -0.239700
v 0.949700 0.000000 -0.282600
v 0.915700 0.397500 -0.175000
v 0.904400 0.425000 -0.061600
v 0.949700 0.000000 -0.282600
v 0.869400 0.118100 -0.239700
v 0.874600 0.000000 -0.173400
v 0.969100 0.340600 -0.066800
v 0.904400 0.425000 -0.061600
v 0.534800 0.014800 0.319400
v 0.962600 0.193100 -0.381200
v 0.891900 0.138200 -0.389000
v 0.892900 0.213800 -0.426500
v 0.904400 0.425000 -0.061600
v 0.969100 0.340600 -0.066800
v 0.833600 0.315300 -0.413400
v 0.650300 0.107300 -0.223300
v 0.988000 0.221800 -0.354900
v 0.994800 0.179000 -0.342500
v 0.989000 0.262600 -0.339900
v 0.982300 0.061500 -0.215300
v 0.989000 0.262600 -0.339900
v 0.998200 0.302600 -0.320900
v 1.010400 0.319900 -0.261000
v 1.083100 0.189600 -0.426800
v 0.962600 0.193100 -0.381200
v 0.988000 0.221800 -0.354900
v 0.994800 0.179000 -0.342500
v 0.998200 0.302600 -0.320900
v 0.987900 0.354200 -0.298800
v 1.117000 0.373300 -0.319500
v 1.010400 0.319900 -0.261000
v 0.712800 0.300300 -0.090600
v 0.634900 0.237100 0.002600
v 0.695000 0.099100 -0.185900
v 0.619900 0.095000 -0.073000
v 0.712200 0.016800 -0.015900
v 0.729700 0.203200 0.065600
v 0.831500 0.068300 -0.149300
v 0.824100 0.000000 0.005000
v 0.712200 0.016800 -0.015900
v 0.729700 0.203200 0.065600
v 0.712200 0.016800 -0.015900
v 0.844100 0.175600 0.092500
v 0.824100 0.000000 0.005000
v 0.729700 0.203200 0.065600
v 0.859700 0.255700 -0.022100
v 0.844100 0.175600 0.092500
v 0.781500 0.020000 -0.440300
v 0.783400 0.121700 -0.575800
v 0.891900 0.138200 -0.389000
v 0.892900 0.213800 -0.426500
v 0.906100 0.423900 -0.253300
v 0.936000 0.399100 -0.326300
v 0.987900 0.354200 -0.298800
v 0.695000 0.099100 -0.185900
v 0.712800 0.300300 -0.090600
v 0.578500 0.000000 0.025900
vt 0.638100 0.040000
vt 0.638100 0.040000
vt 0.638100 0.040000
vt 0.638100 0.040000
vt 0.638100 0.040000
vt 0.638100 0.040000
vt 0.020500 0.595400
vt 0.015200 0.349600
vt 0.057500 0.573100
vt 0.001700 0.632000
vt 0.924100 0.873900
vt 0.924100 0.873900
vt 0.924100 0.873900
vt 0.924100 0.873900
vt 0.017400 0.015300
vt 0.102500 0.015300
vt 0.122900 0.206700
vt 0.924100 0.873900
vt 0.924100 0.873900
vt 0.636500 0.023500
vt 0.636500 0.023500
vt 0.636500 0.023500
vt 0.924100 0.873900
vt 0.167800 0.508600
vt 0.014000 0.156600
vt 0.167800 0.508600
vt 0.470100 0.703300
vt 0.470100 0.703300
vt 0.470100 0.703300
vt 0.470100 0.703300
vt 0.911500 0.809100
vt 0.911500 0.809100
vt 0.911500 0.809100
vt 0.470100 0.703300
vt 0.470100 0.703300
vt 0.638100 0.040000
vt 0.638100 0.040000
vt 0.638100 0.040000
vt 0.638100 0.040000
vt 0.924100 0.873900
vt 0.924100 0.873900
vt 0.924100 0.873900
vt 0.924100 0.873900
vt 0.924100 0.873900
vt 0.638100 0.040000
vt 0.924100 0.873900
vt 0.924100 0.873900
vt 0.924100 0.873900
vt 0.429100 0.015300
vt 0.416500 0.209200
vt 0.638100 0.040000
vt 0.638100 0.040000
vt 0.638100 0.040000
vt 0.638100 0.040000
vt 0.405700 0.455000
vt 0.638100 0.040000
vt 0.638100 0.040000
vt 0.405700 0.455000
vt 0.924100 0.873900
vt 0.924100 0.873900
vt 0.924100 0.873900
vt 0.924100 0.873900
vt 0.924100 0.873900
vt 0.620200 0.481700
vt 0.924100 0.873900
vt 0.638100 0.040000
vt 0.638100 0.040000
vt 0.638100 0.040000
vt 0.924100 0.873900
vt 0.924100 0.873900
vt 0.590600 0.747600
vt 0.590600 0.747600
vt 0.618100 0.486800
vt 0.626900 0.629400
vt 0.631800 0.631800
vt 0.643600 0.380200
vt 0.924100 0.873900
vt 0.924100 0.873900
vt 0.638100 0.040000
vt 0.638100 0.040000
vt 0.924100 0.873900
vt 0.924100 0.873900
vt 0.924100 0.873900
vt 0.924100 0.873900
vt 0.857500 0.267100
vt 0.995300 0.174400
vt 0.825700 0.363400
vt 0.853000 0.131200
vt 0.798500 0.114300
vt 0.833200 0.015600
vt 0.862900 0.114300
vt 0.907500 0.114300
vt 0.872800 0.015600
vt 0.924100 0.873900
vt 0.858000 0.687800
vt 0.808400 0.096800
vt 0.744000 0.114300
vt 0.818300 0.114300
vt 0.853000 0.015600
vt 0.981800 0.114300
vt 0.937200 0.131200
vt 0.971900 0.015600
vt 0.966900 0.114300
vt 0.932200 0.015600
vt 0.638100 0.040000
vt 0.928500 0.379700
vt 0.829100 0.394200
vt 0.857500 0.267100
vt 0.793500 0.015600
vt 0.758900 0.114300
vt 0.687200 0.015300
vt 0.610500 0.542400
vt 0.955900 0.399000
vt 0.931800 0.437400
vt 0.995300 0.480800
vt 0.853800 0.691600
vt 0.995400 0.480800
vt 0.955900 0.399000
vt 0.931800 0.437400
vt 0.938700 0.411300
vt 0.938700 0.411300
vt 0.938700 0.411300
vt 0.938700 0.411300
vt 0.938700 0.411300
vt 0.938700 0.411300
vt 0.938700 0.411300
vt 0.938700 0.411300
vt 0.234500 0.794800
vt 0.234500 0.794800
vt 0.234500 0.794800
vt 0.234500 0.794800
vt 0.234500 0.794800
vt 0.234500 0.794800
vt 0.726400 0.754700
vt 0.664900 0.959500
vt 0.602900 0.861000
vt 0.017300 0.963100
vt 0.270200 0.963100
vt 0.003400 0.705600
vt 0.287100 0.702400
vt 0.602800 0.861000
vt 0.719600 0.759400
vt 0.664900 0.959500
vt 0.924100 0.873900
vt 0.924100 0.873900
vt 0.924100 0.873900
vt 0.924100 0.873900
vt 0.924100 0.873900
vt 0.924100 0.873900
vt 0.928500 0.379700
vt 0.070300 0.054600
vt 0.070300 0.054600
vt 0.070300 0.054600
vn -0.183438 -0.977397 -0.105100
vn -0.845906 0.533010 0.018525
vn 0.287208 -0.700699 -0.653095
vn -0.507058 0.822571 -0.257430
vn 0.420532 -0.461897 0.780900
vn 0.231157 0.772111 0.591955
vn -0.702671 0.689410 0.175978
vn -0.918469 0.274775 -0.284454
vn -0.865071 -0.438620 -0.243444
vn -0.962349 -0.265213 0.059556
vn -0.001976 -0.908468 -0.417949
vn -0.653872 0.579391 0.486578
vn -0.806863 -0.572650 0.145066
vn -0.849687 0.303002 0.431534
vn -0.632509 0.298052 -0.714911
vn -0.217847 -0.214288 -0.952168
vn -0.148687 0.787626 -0.597944
vn 0.670280 -0.010414 0.742035
vn -0.121593 0.733526 0.668696
vn -0.165698 0.915566 0.366445
vn -0.165698 0.915566 0.366445
vn -0.165698 0.915566 0.366445
vn 0.095243 0.247827 0.964111
vn -0.156157 -0.618179 -0.770370
vn -0.351289 -0.610833 -0.709563
vn -0.044587 0.993299 0.106622
vn -0.965727 -0.190645 0.176141
vn -0.803061 -0.325467 0.499164
vn -0.252950 0.635249 0.729709
vn 0.562631 0.117561 0.818306
vn -0.855516 0.113814 -0.505112
vn -0.855516 0.113814 -0.505112
vn -0.855516 0.113814 -0.505112
vn 0.588722 -0.765396 -0.259953
vn 0.383972 -0.778973 0.495748
vn 0.000000 1.000000 0.000000
vn 0.315626 0.915075 0.251033
vn 0.015162 0.886057 -0.463329
vn -0.170231 0.977061 0.127956
vn -0.929420 -0.244693 0.276231
vn 0.468294 -0.541372 0.698296
vn 0.198129 0.066217 0.977937
vn 0.800890 0.528906 0.280772
vn -0.685071 0.314326 0.657173
vn -0.790949 0.144706 0.594525
vn -0.180679 0.217723 0.959141
vn -0.059736 -0.212172 0.975405
vn 0.208783 0.749670 0.628016
vn 0.037807 -0.185262 -0.981962
vn 0.215604 0.873726 -0.436025
vn -0.625754 -0.512397 -0.588117
vn -0.256099 0.304337 0.917492
vn -0.709990 0.704200 -0.003987
vn 0.537517 0.288174 0.792484
vn 0.107945 -0.648870 -0.753203
vn 0.521506 -0.832795 0.185701
vn 0.189044 -0.534550 -0.823722
vn 0.168527 0.973136 -0.156859
vn 0.664778 0.267960 0.697329
vn 0.190848 0.406129 0.893664
vn -0.809478 0.096686 -0.579134
vn 0.603551 -0.113378 0.789222
vn 0.226123 -0.824531 -0.518669
vn 0.572272 0.809908 -0.128661
vn 0.762156 -0.345656 0.547393
vn -0.592930 0.584878 0.553491
vn 0.773559 0.172284 0.609857
vn -0.297911 0.857738 0.418970
vn -0.314600 0.814341 0.487726
vn -0.522906 0.304115 0.796294
vn -0.968412 -0.138695 -0.207224
vn -0.884214 0.376406 -0.276558
vn -0.811526 -0.386924 -0.437853
vn -0.103022 -0.947941 -0.301322
vn -0.720212 0.610190 0.330094
vn -0.351646 0.872170 0.340095
vn 0.647075 -0.759114 0.070983
vn 0.247181 -0.968644 -0.025114
vn -0.664582 0.719913 -0.200139
vn 0.803364 0.595334 0.013555
vn 0.883085 0.244797 -0.400294
vn 0.497901 0.827795 0.258554
vn 0.488144 0.818066 0.304111
vn 0.460132 0.844222 0.274895
vn 0.182825 0.752081 -0.633206
vn -0.014608 0.355715 -0.934480
vn 0.330997 0.938305 0.100121
vn -0.806004 0.262374 0.530582
vn -0.689519 0.547445 -0.474202
vn -0.806004 0.262374 0.530582
vn -0.551177 0.784220 0.284961
vn -0.347757 0.299614 0.888424
vn -0.677009 0.410862 0.610616
vn 0.728882 0.263235 0.632012
vn 0.621682 0.480139 0.618852
vn -0.011634 0.334403 -0.942358
vn -0.011634 0.334403 -0.942358
vn 0.337896 0.921831 -0.189878
vn -0.169774 0.953716 -0.248198
vn 0.776626 0.334037 0.534108
vn 0.776626 0.334037 0.534108
vn 0.776626 0.334037 0.534108
vn 0.171689 0.071076 0.982584
vn 0.171689 0.071076 0.982584
vn 0.943502 0.298911 0.143025
vn 0.505504 -0.335233 -0.795037
vn -0.030708 -0.819136 -0.572776
vn -0.301957 -0.198005 -0.932532
vn 0.789676 0.609616 -0.069145
vn 0.789676 0.609616 -0.069145
vn 0.437144 -0.106142 -0.893107
vn 0.343119 -0.780280 -0.522907
vn 0.550289 0.336277 -0.764264
vn 0.779293 -0.479274 -0.403732
vn 0.994551 -0.077577 -0.069648
vn 0.637413 -0.752782 0.164389
vn 0.530458 0.276236 -0.801441
vn 0.557919 0.266471 -0.785951
vn 0.999243 -0.036820 0.012584
vn 0.754301 -0.069304 -0.652860
vn -0.344237 -0.311316 -0.885767
vn 0.352314 0.934681 0.047403
vn 0.474513 -0.784968 0.398325
vn 0.353030 -0.578651 -0.735210
vn -0.179511 0.954271 -0.239046
vn 0.914366 0.299304 -0.272676
vn 0.554616 -0.231597 0.799227
vn -0.907489 -0.105951 0.406494
vn 0.807330 -0.322986 0.493860
vn -0.027313 -0.447638 0.893798
vn 0.784672 -0.353687 0.509112
vn -0.991859 0.034406 0.122608
vn -0.990880 0.036290 0.129767
vn 0.572121 -0.798336 0.187980
vn 0.762174 -0.608097 -0.222055
vn -0.054831 -0.900883 -0.430586
vn -0.294896 -0.359419 0.885355
vn -0.262503 -0.385728 0.884481
vn -0.262503 -0.385728 0.884481
vn -0.226783 -0.413556 0.881783
vn 0.031343 0.836431 0.547175
vn 0.487816 0.223133 0.843947
vn 0.887877 0.311502 0.338588
vn 0.751357 -0.532792 -0.389353
vn 0.797395 -0.428070 -0.425344
vn 0.797395 -0.428070 -0.425344
vn 0.847659 -0.244712 -0.470735
vn 0.513151 0.840977 0.171559
vn 0.771942 0.627281 0.103076
vn 0.708908 0.703261 -0.053614
vn 0.892649 -0.255020 0.371677
vn 0.892649 -0.255020 0.371677
vn 0.892649 -0.255020 0.371677
f 21/21/21 22/22/22 20/20/20 
f 121/121/121 120/120/120 121/121/121 
f 122/122/122 120/120/120 121/121/121 
f 122/122/122 120/120/120 120/120/120 
f 123/123/123 120/120/120 122/122/122 
f 123/123/123 121/121/121 120/120/120 
f 131/131/131 129/129/129 131/131/131 
f 130/130/130 129/129/129 131/131/131 
f 130/130/130 128/128/128 129/129/129 
f 132/132/132 128/128/128 130/130/130 
f 132/132/132 133/133/133 128/128/128 
f 83/83/83 82/82/82 83/83/83 
f 84/84/84 82/82/82 83/83/83 
f 84/84/84 82/82/82 82/82/82 
f 148/148/148 82/82/82 84/84/84 
f 148/148/148 149/149/149 82/82/82 
f 37/37/37 45/45/45 37/37/37 
f 36/36/36 45/45/45 37/37/37 
f 36/36/36 38/38/38 45/45/45 
f 37/37/37 38/38/38 36/36/36 
f 37/37/37 39/39/39 38/38/38 
f 67/67/67 66/66/66 67/67/67 
f 68/68/68 66/66/66 67/67/67 
f 68/68/68 79/79/79 66/66/66 
f 68/68/68 79/79/79 68/68/68 
f 68/68/68 80/80/80 79/79/79 
f 67/67/67 80/80/80 68/68/68 
f 67/67/67 105/105/105 80/80/80 
f 12/12/12 11/11/11 12/12/12 
f 13/13/13 11/11/11 12/12/12 
f 13/13/13 18/18/18 11/11/11 
f 23/23/23 18/18/18 13/13/13 
f 23/23/23 19/19/19 18/18/18 
f 48/48/48 19/19/19 23/23/23 
f 19/19/19 12/12/12 18/18/18 
f 14/14/14 12/12/12 19/19/19 
f 14/14/14 13/13/13 12/12/12 
f 40/40/40 13/13/13 14/14/14 
f 40/40/40 13/13/13 13/13/13 
f 44/44/44 13/13/13 40/40/40 
f 44/44/44 42/42/42 13/13/13 
f 43/43/43 42/42/42 44/44/44 
f 43/43/43 42/42/42 42/42/42 
f 41/41/41 42/42/42 43/43/43 
f 41/41/41 42/42/42 42/42/42 
f 47/47/47 42/42/42 41/41/41 
f 47/47/47 23/23/23 42/42/42 
f 47/47/47 23/23/23 47/47/47 
f 46/46/46 23/23/23 47/47/47 
f 46/46/46 48/48/48 23/23/23 
f 59/59/59 48/48/48 46/46/46 
f 59/59/59 94/94/94 48/48/48 
f 59/59/59 94/94/94 59/59/59 
f 59/59/59 65/65/65 94/94/94 
f 62/62/62 65/65/65 59/59/59 
f 62/62/62 77/77/77 65/65/65 
f 62/62/62 77/77/77 62/62/62 
f 62/62/62 81/81/81 77/77/77 
f 62/62/62 81/81/81 62/62/62 
f 62/62/62 69/69/69 81/81/81 
f 47/47/47 69/69/69 62/62/62 
f 47/47/47 70/70/70 69/69/69 
f 78/78/78 65/65/65 77/77/77 
f 61/61/61 46/46/46 61/61/61 
f 60/60/60 46/46/46 61/61/61 
f 60/60/60 59/59/59 46/46/46 
f 63/63/63 59/59/59 60/60/60 
f 63/63/63 62/62/62 59/59/59 
f 46/46/46 62/62/62 63/63/63 
f 46/46/46 47/47/47 62/62/62 
f 46/46/46 63/63/63 61/61/61 
f 30/30/30 28/28/28 30/30/30 
f 29/29/29 28/28/28 30/30/30 
f 29/29/29 28/28/28 28/28/28 
f 27/27/27 28/28/28 29/29/29 
f 27/27/27 28/28/28 28/28/28 
f 34/34/34 28/28/28 27/27/27 
f 34/34/34 35/35/35 28/28/28 
f 30/30/30 35/35/35 34/34/34 
f 30/30/30 28/28/28 35/35/35 
f 30/30/30 34/34/34 29/29/29 
f 142/142/142 116/116/116 95/95/95 
f 134/134/134 116/116/116 142/142/142 
f 87/87/87 95/95/95 87/87/87 
f 76/76/76 95/95/95 87/87/87 
f 76/76/76 142/142/142 95/95/95 
f 75/75/75 142/142/142 76/76/76 
f 75/75/75 142/142/142 142/142/142 
f 141/141/141 142/142/142 75/75/75 
f 141/141/141 142/142/142 142/142/142 
f 143/143/143 142/142/142 141/141/141 
f 143/143/143 142/142/142 142/142/142 
f 135/135/135 142/142/142 143/143/143 
f 135/135/135 134/134/134 142/142/142 
f 74/74/74 134/134/134 135/135/135 
f 74/74/74 116/116/116 134/134/134 
f 73/73/73 116/116/116 74/74/74 
f 72/72/72 73/73/73 71/71/71 
f 75/75/75 73/73/73 72/72/72 
f 75/75/75 76/76/76 73/73/73 
f 74/74/74 71/71/71 73/73/73 
f 136/136/136 74/74/74 135/135/135 
f 108/108/108 73/73/73 86/86/86 
f 73/73/73 107/107/107 116/116/116 
f 108/108/108 107/107/107 73/73/73 
f 108/108/108 106/106/106 107/107/107 
f 108/108/108 106/106/106 108/108/108 
f 108/108/108 113/113/113 106/106/106 
f 86/86/86 113/113/113 108/108/108 
f 86/86/86 117/117/117 113/113/113 
f 86/86/86 117/117/117 86/86/86 
f 86/86/86 118/118/118 117/117/117 
f 85/85/85 118/118/118 86/86/86 
f 85/85/85 150/150/150 118/118/118 
f 87/87/87 150/150/150 85/85/85 
f 117/117/117 114/114/114 113/113/113 
f 87/87/87 150/150/150 87/87/87 
f 95/95/95 150/150/150 87/87/87 
f 95/95/95 119/119/119 150/150/150 
f 116/116/116 119/119/119 95/95/95 
f 116/116/116 115/115/115 119/119/119 
f 116/116/116 115/115/115 116/116/116 
f 116/116/116 114/114/114 115/115/115 
f 107/107/107 114/114/114 116/116/116 
f 107/107/107 106/106/106 114/114/114 
f 118/118/118 119/119/119 115/115/115 
f 85/85/85 76/76/76 87/87/87 
f 86/86/86 76/76/76 85/85/85 
f 51/51/51 52/52/52 51/51/51 
f 56/56/56 52/52/52 51/51/51 
f 56/56/56 54/54/54 52/52/52 
f 56/56/56 54/54/54 56/56/56 
f 56/56/56 57/57/57 54/54/54 
f 51/51/51 57/57/57 56/56/56 
f 51/51/51 53/53/53 57/57/57 
f 52/52/52 53/53/53 51/51/51 
f 52/52/52 54/54/54 53/53/53 
f 55/55/55 49/49/49 55/55/55 
f 24/24/24 49/49/49 55/55/55 
f 24/24/24 16/16/16 49/49/49 
f 24/24/24 16/16/16 24/24/24 
f 24/24/24 25/25/25 16/16/16 
f 9/9/9 25/25/25 24/24/24 
f 8/8/8 16/16/16 15/15/15 
f 17/17/17 16/16/16 8/8/8 
f 17/17/17 49/49/49 16/16/16 
f 50/50/50 49/49/49 17/17/17 
f 9/9/9 8/8/8 10/10/10 
f 7/7/7 8/8/8 9/9/9 
f 7/7/7 17/17/17 8/8/8 
f 26/26/26 17/17/17 7/7/7 
f 26/26/26 50/50/50 17/17/17 
f 58/58/58 50/50/50 26/26/26 
f 58/58/58 50/50/50 50/50/50 
f 64/64/64 50/50/50 58/58/58 
f 64/64/64 50/50/50 50/50/50 
f 111/111/111 50/50/50 64/64/64 
f 111/111/111 49/49/49 50/50/50 
f 55/55/55 49/49/49 111/111/111 
f 112/112/112 55/55/55 111/111/111 
f 2/2/2 3/3/3 1/1/1 
f 2/2/2 3/3/3 2/2/2 
f 2/2/2 4/4/4 3/3/3 
f 2/2/2 4/4/4 2/2/2 
f 2/2/2 6/6/6 4/4/4 
f 5/5/5 6/6/6 2/2/2 
f 5/5/5 3/3/3 6/6/6 
f 5/5/5 3/3/3 5/5/5 
f 5/5/5 1/1/1 3/3/3 
f 2/2/2 1/1/1 5/5/5 
f 127/127/127 126/126/126 125/125/125 
f 124/124/124 126/126/126 127/127/127 
f 124/124/124 125/125/125 126/126/126 
f 145/145/145 146/146/146 144/144/144 
f 147/147/147 146/146/146 145/145/145 
f 110/110/110 98/98/98 109/109/109 
f 91/91/91 99/99/99 98/98/98 
f 92/92/92 93/93/93 91/91/91 
f 103/103/103 104/104/104 92/92/92 
f 101/101/101 102/102/102 100/100/100 
f 32/32/32 33/33/33 31/31/31 
f 97/97/97 89/89/89 96/96/96 
f 89/89/89 90/90/90 88/88/88 
f 138/138/138 139/139/139 137/137/137 
f 140/140/140 139/139/139 138/138/138 
f 152/152/152 153/153/153 151/151/151 
