v -0.156000 -0.305600 0.075000
v -0.156000 -0.305600 -0.075000
v -0.156000 -0.409200 0.075000
v -0.156000 -0.409200 -0.075000
v -0.156000 -0.305600 -0.075000
v 0.000000 -0.305600 -0.150100
v -0.156000 -0.409200 -0.075000
v 0.000000 -0.409200 -0.150100
v 0.000000 -0.305600 0.150100
v -0.156000 -0.305600 0.075000
v 0.000000 -0.409200 0.150100
v -0.156000 -0.409200 0.075000
v -0.156000 -0.409200 0.075000
v -0.156000 -0.409200 -0.075000
v 0.000000 -0.409200 0.000000
v -0.156000 -0.305600 -0.075000
v -0.156000 -0.305600 0.075000
v 0.000000 -0.305600 0.000000
v 0.000000 -0.409200 -0.150100
v 0.000000 -0.409200 0.150100
v 0.000000 -0.305600 -0.150100
v 0.000000 -0.305600 0.150100
v 0.156000 -0.409200 -0.075000
v 0.156000 -0.409200 0.075000
v 0.156000 -0.305600 -0.075000
v 0.156000 -0.305600 0.075000
v 0.000000 -0.305600 -0.150100
v 0.156000 -0.305600 -0.075000
v 0.000000 -0.409200 -0.150100
v 0.156000 -0.409200 -0.075000
v 0.156000 -0.305600 0.075000
v 0.000000 -0.305600 0.150100
v 0.156000 -0.409200 0.075000
v 0.000000 -0.409200 0.150100
v 0.156000 -0.305600 -0.075000
v 0.156000 -0.305600 0.075000
v 0.156000 -0.409200 -0.075000
v 0.156000 -0.409200 0.075000
v -0.129900 -0.390200 0.062400
v -0.129900 -0.390200 -0.062400
v -0.129900 -1.103700 0.062400
v -0.129900 -1.103700 -0.062400
v -0.129900 -0.390200 -0.062400
v 0.000000 -0.390200 -0.125000
v -0.129900 -1.103700 -0.062400
v 0.000000 -1.103700 -0.125000
v 0.000000 -0.390200 0.125000
v -0.129900 -0.390200 0.062400
v 0.000000 -1.103700 0.125000
v -0.129900 -1.103700 0.062400
v -0.129900 -1.103700 0.062400
v -0.129900 -1.103700 -0.062400
v 0.000000 -1.103700 0.000000
v -0.129900 -0.390200 -0.062400
v -0.129900 -0.390200 0.062400
v 0.000000 -0.390200 0.000000
v 0.000000 -1.103700 -0.125000
v 0.000000 -1.103700 0.125000
v 0.000000 -0.390200 -0.125000
v 0.000000 -0.390200 0.125000
v 0.129900 -1.103700 -0.062400
v 0.129900 -1.103700 0.062400
v 0.129900 -0.390200 -0.062400
v 0.129900 -0.390200 0.062400
v 0.000000 -0.390200 -0.125000
v 0.129900 -0.390200 -0.062400
v 0.000000 -1.103700 -0.125000
v 0.129900 -1.103700 -0.062400
v 0.129900 -0.390200 0.062400
v 0.000000 -0.390200 0.125000
v 0.129900 -1.103700 0.062400
v 0.000000 -1.103700 0.125000
v 0.129900 -0.390200 -0.062400
v 0.129900 -0.390200 0.062400
v 0.129900 -1.103700 -0.062400
v 0.129900 -1.103700 0.062400
v -0.156000 5.441400 -0.075000
v -0.156000 5.441400 0.075000
v -0.156000 5.545000 -0.075000
v -0.156000 5.545000 0.075000
v 0.000000 5.441400 -0.150100
v -0.156000 5.441400 -0.075000
v 0.000000 5.545000 -0.150100
v -0.156000 5.545000 -0.075000
v -0.156000 5.441400 0.075000
v 0.000000 5.441400 0.150100
v -0.156000 5.545000 0.075000
v 0.000000 5.545000 0.150100
v -0.156000 5.441400 0.075000
v -0.156000 5.441400 -0.075000
v 0.000000 5.441400 0.000000
v -0.156000 5.545000 -0.075000
v -0.156000 5.545000 0.075000
v 0.000000 5.545000 0.000000
v 0.000000 5.441400 -0.150100
v 0.000000 5.441400 0.150100
v 0.000000 5.545000 -0.150100
v 0.000000 5.545000 0.150100
v 0.156000 5.441400 -0.075000
v 0.156000 5.441400 0.075000
v 0.156000 5.545000 -0.075000
v 0.156000 5.545000 0.075000
v 0.156000 5.441400 -0.075000
v 0.000000 5.441400 -0.150100
v 0.156000 5.545000 -0.075000
v 0.000000 5.545000 -0.150100
v 0.000000 5.441400 0.150100
v 0.156000 5.441400 0.075000
v 0.000000 5.545000 0.150100
v 0.156000 5.545000 0.075000
v 0.156000 5.441400 0.075000
v 0.156000 5.441400 -0.075000
v 0.156000 5.545000 0.075000
v 0.156000 5.545000 -0.075000
v 0.136800 5.578400 -0.052900
v 0.136800 5.578400 0.072000
v 0.136800 5.708300 0.009500
v 0.136800 5.708300 -0.115400
v 0.136800 5.708300 0.134500
v 0.136800 5.838300 -0.052900
v 0.136800 5.838300 0.072000
v 0.203200 5.578400 0.072000
v 0.203200 5.578400 -0.052900
v 0.203200 5.708300 0.009500
v 0.203200 5.708300 -0.115400
v 0.203200 5.708300 0.134500
v 0.203200 5.838300 -0.052900
v 0.203200 5.838300 0.072000
v 0.136800 5.578400 0.072000
v 0.136800 5.578400 -0.052900
v 0.203200 5.578400 0.072000
v 0.203200 5.578400 -0.052900
v 0.136800 5.578400 -0.052900
v 0.136800 5.708300 -0.115400
v 0.203200 5.578400 -0.052900
v 0.203200 5.708300 -0.115400
v 0.136800 5.708300 0.134500
v 0.136800 5.578400 0.072000
v 0.203200 5.708300 0.134500
v 0.203200 5.578400 0.072000
v 0.136800 5.708300 -0.115400
v 0.136800 5.838300 -0.052900
v 0.203200 5.708300 -0.115400
v 0.203200 5.838300 -0.052900
v 0.136800 5.838300 0.072000
v 0.136800 5.708300 0.134500
v 0.203200 5.838300 0.072000
v 0.203200 5.708300 0.134500
v 0.136800 5.838300 -0.052900
v 0.136800 5.838300 0.072000
v 0.203200 5.838300 -0.052900
v 0.203200 5.838300 0.072000
v -0.129900 5.454600 -0.062400
v -0.129900 5.454600 0.062400
v -0.129900 6.168100 -0.062400
v -0.129900 6.168100 0.062400
v 0.000000 5.454600 -0.125000
v -0.129900 5.454600 -0.062400
v 0.000000 6.168100 -0.125000
v -0.129900 6.168100 -0.062400
v -0.129900 5.454600 0.062400
v 0.000000 5.454600 0.125000
v -0.129900 6.168100 0.062400
v 0.000000 6.168100 0.125000
v -0.129900 5.454600 0.062400
v -0.129900 5.454600 -0.062400
v 0.000000 5.454600 0.000000
v -0.129900 6.168100 -0.062400
v -0.129900 6.168100 0.062400
v 0.000000 6.168100 0.000000
v 0.000000 5.454600 -0.125000
v 0.000000 5.454600 0.125000
v 0.000000 6.168100 -0.125000
v 0.000000 6.168100 0.125000
v 0.129900 5.454600 -0.062400
v 0.129900 5.454600 0.062400
v 0.129900 6.168100 -0.062400
v 0.129900 6.168100 0.062400
v 0.129900 5.454600 -0.062400
v 0.000000 5.454600 -0.125000
v 0.129900 6.168100 -0.062400
v 0.000000 6.168100 -0.125000
v 0.000000 5.454600 0.125000
v 0.129900 5.454600 0.062400
v 0.000000 6.168100 0.125000
v 0.129900 6.168100 0.062400
v 0.129900 5.454600 0.062400
v 0.129900 5.454600 -0.062400
v 0.129900 6.168100 0.062400
v 0.129900 6.168100 -0.062400
v -0.125000 6.168100 2.392300
v -0.062500 6.276400 2.392300
v -0.125000 6.168100 -0.099900
v -0.062500 6.276400 -0.100000
v -0.125000 6.168100 2.392300
v -0.125000 6.168100 -0.099900
v -0.062400 6.059900 2.392300
v -0.062400 6.059900 -0.100000
v -0.125000 6.168100 -0.099900
v -0.062500 6.276400 -0.100000
v 0.000000 6.168100 -0.100000
v -0.062500 6.276400 2.392300
v -0.125000 6.168100 2.392300
v 0.000000 6.168100 2.392300
v -0.062400 6.059900 -0.100000
v -0.062400 6.059900 2.392300
v -0.062500 6.276400 2.392300
v 0.062400 6.276400 2.392300
v -0.062500 6.276400 -0.100000
v 0.062400 6.276400 -0.100000
v 0.062400 6.276400 -0.100000
v 0.062400 6.276400 2.392300
v 0.062400 6.059900 2.392300
v -0.062400 6.059900 2.392300
v 0.062400 6.059900 -0.100000
v -0.062400 6.059900 -0.100000
v 0.062400 6.059900 -0.100000
v 0.062400 6.059900 2.392300
v 0.124900 6.168100 -0.100000
v 0.124900 6.168100 2.392300
v 0.062400 6.059900 2.392300
v 0.062400 6.059900 -0.100000
v 0.124900 6.168100 2.392300
v 0.124900 6.168100 -0.100000
v 0.062400 6.276400 2.392300
v 0.124900 6.168100 2.392300
v 0.062400 6.276400 -0.100000
v 0.124900 6.168100 -0.100000
vt 0.007800 0.085900
vt 0.007800 0.085900
vt 0.007800 0.085900
vt 0.007800 0.085900
vt 0.007800 0.085900
vt 0.007800 0.085900
vt 0.007800 0.085900
vt 0.007800 0.085900
vt 0.007800 0.085900
vt 0.007800 0.085900
vt 0.007800 0.085900
vt 0.007800 0.085900
vt 0.007800 0.085900
vt 0.007800 0.085900
vt 0.007800 0.085900
vt 0.039000 0.492100
vt 0.039000 0.492100
vt 0.039000 0.492100
vt 0.007800 0.085900
vt 0.007800 0.085900
vt 0.039000 0.492100
vt 0.039000 0.492100
vt 0.007800 0.085900
vt 0.007800 0.085900
vt 0.039000 0.492100
vt 0.039000 0.492100
vt 0.007800 0.085900
vt 0.007800 0.085900
vt 0.007800 0.085900
vt 0.007800 0.085900
vt 0.007800 0.085900
vt 0.007800 0.085900
vt 0.007800 0.085900
vt 0.007800 0.085900
vt 0.007800 0.085900
vt 0.007800 0.085900
vt 0.007800 0.085900
vt 0.007800 0.085900
vt 0.226500 0.273400
vt 0.226500 0.273400
vt 0.226500 0.273400
vt 0.226500 0.273400
vt 0.226500 0.273400
vt 0.226500 0.273400
vt 0.226500 0.273400
vt 0.226500 0.273400
vt 0.226500 0.273400
vt 0.226500 0.273400
vt 0.226500 0.273400
vt 0.226500 0.273400
vt 0.226500 0.273400
vt 0.226500 0.273400
vt 0.226500 0.273400
vt 0.226500 0.273400
vt 0.226500 0.273400
vt 0.226500 0.273400
vt 0.226500 0.273400
vt 0.226500 0.273400
vt 0.226500 0.273400
vt 0.226500 0.273400
vt 0.226500 0.273400
vt 0.226500 0.273400
vt 0.226500 0.273400
vt 0.226500 0.273400
vt 0.226500 0.273400
vt 0.226500 0.273400
vt 0.226500 0.273400
vt 0.226500 0.273400
vt 0.226500 0.273400
vt 0.226500 0.273400
vt 0.226500 0.273400
vt 0.226500 0.273400
vt 0.226500 0.273400
vt 0.226500 0.273400
vt 0.226500 0.273400
vt 0.226500 0.273400
vt 0.007800 0.085900
vt 0.007800 0.085900
vt 0.007800 0.085900
vt 0.007800 0.085900
vt 0.007800 0.085900
vt 0.007800 0.085900
vt 0.007800 0.085900
vt 0.007800 0.085900
vt 0.007800 0.085900
vt 0.007800 0.085900
vt 0.007800 0.085900
vt 0.007800 0.085900
vt 0.039000 0.492100
vt 0.039000 0.492100
vt 0.039000 0.492100
vt 0.007800 0.085900
vt 0.007800 0.085900
vt 0.007800 0.085900
vt 0.039000 0.492100
vt 0.039000 0.492100
vt 0.007800 0.085900
vt 0.007800 0.085900
vt 0.039000 0.492100
vt 0.039000 0.492100
vt 0.007800 0.085900
vt 0.007800 0.085900
vt 0.007800 0.085900
vt 0.007800 0.085900
vt 0.007800 0.085900
vt 0.007800 0.085900
vt 0.007800 0.085900
vt 0.007800 0.085900
vt 0.007800 0.085900
vt 0.007800 0.085900
vt 0.007800 0.085900
vt 0.007800 0.085900
vt 0.007800 0.085900
vt 0.007800 0.085900
vt 0.007800 0.085900
vt 0.007800 0.085900
vt 0.007800 0.085900
vt 0.007800 0.085900
vt 0.007800 0.085900
vt 0.007800 0.085900
vt 0.007800 0.085900
vt 0.007800 0.085900
vt 0.007800 0.085900
vt 0.007800 0.085900
vt 0.007800 0.085900
vt 0.007800 0.085900
vt 0.007800 0.085900
vt 0.007800 0.085900
vt 0.007800 0.085900
vt 0.007800 0.085900
vt 0.007800 0.085900
vt 0.007800 0.085900
vt 0.007800 0.085900
vt 0.007800 0.085900
vt 0.007800 0.085900
vt 0.007800 0.085900
vt 0.007800 0.085900
vt 0.007800 0.085900
vt 0.007800 0.085900
vt 0.007800 0.085900
vt 0.007800 0.085900
vt 0.007800 0.085900
vt 0.007800 0.085900
vt 0.007800 0.085900
vt 0.007800 0.085900
vt 0.007800 0.085900
vt 0.007800 0.085900
vt 0.007800 0.085900
vt 0.007800 0.085900
vt 0.007800 0.085900
vt 0.007800 0.085900
vt 0.007800 0.085900
vt 0.226500 0.273400
vt 0.226500 0.273400
vt 0.226500 0.273400
vt 0.226500 0.273400
vt 0.226500 0.273400
vt 0.226500 0.273400
vt 0.226500 0.273400
vt 0.226500 0.273400
vt 0.226500 0.273400
vt 0.226500 0.273400
vt 0.226500 0.273400
vt 0.226500 0.273400
vt 0.226500 0.273400
vt 0.226500 0.273400
vt 0.226500 0.273400
vt 0.226500 0.273400
vt 0.226500 0.273400
vt 0.226500 0.273400
vt 0.226500 0.273400
vt 0.226500 0.273400
vt 0.226500 0.273400
vt 0.226500 0.273400
vt 0.226500 0.273400
vt 0.226500 0.273400
vt 0.226500 0.273400
vt 0.226500 0.273400
vt 0.226500 0.273400
vt 0.226500 0.273400
vt 0.226500 0.273400
vt 0.226500 0.273400
vt 0.226500 0.273400
vt 0.226500 0.273400
vt 0.226500 0.273400
vt 0.226500 0.273400
vt 0.226500 0.273400
vt 0.226500 0.273400
vt 0.226500 0.273400
vt 0.226500 0.273400
vt 0.226500 0.273400
vt 0.226500 0.273400
vt 0.226500 0.273400
vt 0.226500 0.273400
vt 0.226500 0.273400
vt 0.226500 0.273400
vt 0.226500 0.273400
vt 0.226500 0.273400
vt 0.226500 0.273400
vt 0.226500 0.273400
vt 0.226500 0.273400
vt 0.226500 0.273400
vt 0.226500 0.273400
vt 0.226500 0.273400
vt 0.226500 0.273400
vt 0.226500 0.273400
vt 0.226500 0.273400
vt 0.226500 0.273400
vt 0.226500 0.273400
vt 0.226500 0.273400
vt 0.226500 0.273400
vt 0.226500 0.273400
vt 0.226500 0.273400
vt 0.226500 0.273400
vt 0.226500 0.273400
vt 0.226500 0.273400
vt 0.226500 0.273400
vt 0.226500 0.273400
vt 0.226500 0.273400
vt 0.226500 0.273400
vt 0.226500 0.273400
vt 0.226500 0.273400
vt 0.226500 0.273400
vt 0.226500 0.273400
vt 0.226500 0.273400
vt 0.226500 0.273400
vt 0.226500 0.273400
vt 0.226500 0.273400
vn -1.000000 0.000000 0.000000
vn -1.000000 0.000000 0.000000
vn -1.000000 0.000000 0.000000
vn -1.000000 0.000000 0.000000
vn -0.433763 0.000000 -0.901027
vn -0.433763 0.000000 -0.901027
vn -0.433763 0.000000 -0.901027
vn -0.433763 0.000000 -0.901027
vn -0.433763 0.000000 0.901027
vn -0.433763 0.000000 0.901027
vn -0.433763 0.000000 0.901027
vn -0.433763 0.000000 0.901027
vn 0.000000 -1.000000 0.000000
vn 0.000000 -1.000000 0.000000
vn 0.000000 -1.000000 0.000000
vn 0.000000 1.000000 0.000000
vn 0.000000 1.000000 0.000000
vn 0.000000 1.000000 0.000000
vn 0.000000 -1.000000 0.000000
vn 0.000000 -1.000000 0.000000
vn 0.000000 1.000000 0.000000
vn 0.000000 1.000000 0.000000
vn 0.000000 -1.000000 0.000000
vn 0.000000 -1.000000 0.000000
vn 0.000000 1.000000 0.000000
vn 0.000000 1.000000 0.000000
vn 0.433763 0.000000 -0.901027
vn 0.433763 0.000000 -0.901027
vn 0.433763 0.000000 -0.901027
vn 0.433763 0.000000 -0.901027
vn 0.433763 0.000000 0.901027
vn 0.433763 0.000000 0.901027
vn 0.433763 0.000000 0.901027
vn 0.433763 0.000000 0.901027
vn 1.000000 0.000000 0.000000
vn 1.000000 0.000000 0.000000
vn 1.000000 0.000000 0.000000
vn 1.000000 0.000000 0.000000
vn -1.000000 0.000000 0.000000
vn -1.000000 0.000000 0.000000
vn -1.000000 0.000000 0.000000
vn -1.000000 0.000000 0.000000
vn -0.434128 0.000000 -0.900851
vn -0.434128 0.000000 -0.900851
vn -0.434128 0.000000 -0.900851
vn -0.434128 0.000000 -0.900851
vn -0.434128 0.000000 0.900851
vn -0.434128 0.000000 0.900851
vn -0.434128 0.000000 0.900851
vn -0.434128 0.000000 0.900851
vn 0.000000 -1.000000 0.000000
vn 0.000000 -1.000000 0.000000
vn 0.000000 -1.000000 0.000000
vn 0.000000 1.000000 0.000000
vn 0.000000 1.000000 0.000000
vn 0.000000 1.000000 0.000000
vn 0.000000 -1.000000 0.000000
vn 0.000000 -1.000000 0.000000
vn 0.000000 1.000000 0.000000
vn 0.000000 1.000000 0.000000
vn 0.000000 -1.000000 0.000000
vn 0.000000 -1.000000 0.000000
vn 0.000000 1.000000 0.000000
vn 0.000000 1.000000 0.000000
vn 0.434128 0.000000 -0.900851
vn 0.434128 0.000000 -0.900851
vn 0.434128 0.000000 -0.900851
vn 0.434128 0.000000 -0.900851
vn 0.434128 0.000000 0.900851
vn 0.434128 0.000000 0.900851
vn 0.434128 0.000000 0.900851
vn 0.434128 0.000000 0.900851
vn 1.000000 0.000000 0.000000
vn 1.000000 0.000000 0.000000
vn 1.000000 0.000000 0.000000
vn 1.000000 0.000000 0.000000
vn -1.000000 0.000000 0.000000
vn -1.000000 0.000000 0.000000
vn -1.000000 0.000000 0.000000
vn -1.000000 0.000000 0.000000
vn -0.433763 0.000000 -0.901027
vn -0.433763 0.000000 -0.901027
vn -0.433763 0.000000 -0.901027
vn -0.433763 0.000000 -0.901027
vn -0.433763 0.000000 0.901027
vn -0.433763 0.000000 0.901027
vn -0.433763 0.000000 0.901027
vn -0.433763 0.000000 0.901027
vn 0.000000 -1.000000 0.000000
vn 0.000000 -1.000000 0.000000
vn 0.000000 -1.000000 0.000000
vn 0.000000 1.000000 0.000000
vn 0.000000 1.000000 0.000000
vn 0.000000 1.000000 0.000000
vn 0.000000 -1.000000 0.000000
vn 0.000000 -1.000000 0.000000
vn 0.000000 1.000000 0.000000
vn 0.000000 1.000000 0.000000
vn 0.000000 -1.000000 0.000000
vn 0.000000 -1.000000 0.000000
vn 0.000000 1.000000 0.000000
vn 0.000000 1.000000 0.000000
vn 0.433763 0.000000 -0.901027
vn 0.433763 0.000000 -0.901027
vn 0.433763 0.000000 -0.901027
vn 0.433763 0.000000 -0.901027
vn 0.433763 0.000000 0.901027
vn 0.433763 0.000000 0.901027
vn 0.433763 0.000000 0.901027
vn 0.433763 0.000000 0.901027
vn 1.000000 0.000000 0.000000
vn 1.000000 0.000000 0.000000
vn 1.000000 0.000000 0.000000
vn 1.000000 0.000000 0.000000
vn -1.000000 0.000000 0.000000
vn -1.000000 0.000000 0.000000
vn -1.000000 0.000000 0.000000
vn -1.000000 0.000000 0.000000
vn -1.000000 0.000000 0.000000
vn -1.000000 0.000000 0.000000
vn -1.000000 0.000000 0.000000
vn 1.000000 0.000000 0.000000
vn 1.000000 0.000000 0.000000
vn 1.000000 0.000000 0.000000
vn 1.000000 0.000000 0.000000
vn 1.000000 0.000000 0.000000
vn 1.000000 0.000000 0.000000
vn 1.000000 0.000000 0.000000
vn 0.000000 -1.000000 0.000000
vn 0.000000 -1.000000 0.000000
vn 0.000000 -1.000000 0.000000
vn 0.000000 -1.000000 0.000000
vn 0.000000 -0.433565 -0.901122
vn 0.000000 -0.433565 -0.901122
vn 0.000000 -0.433565 -0.901122
vn 0.000000 -0.433565 -0.901122
vn 0.000000 -0.433565 0.901122
vn 0.000000 -0.433565 0.901122
vn 0.000000 -0.433565 0.901122
vn 0.000000 -0.433565 0.901122
vn 0.000000 0.433294 -0.901253
vn 0.000000 0.433294 -0.901253
vn 0.000000 0.433294 -0.901253
vn 0.000000 0.433294 -0.901253
vn 0.000000 0.433294 0.901253
vn 0.000000 0.433294 0.901253
vn 0.000000 0.433294 0.901253
vn 0.000000 0.433294 0.901253
vn 0.000000 1.000000 0.000000
vn 0.000000 1.000000 0.000000
vn 0.000000 1.000000 0.000000
vn 0.000000 1.000000 0.000000
vn -1.000000 0.000000 0.000000
vn -1.000000 0.000000 0.000000
vn -1.000000 0.000000 0.000000
vn -1.000000 0.000000 0.000000
vn -0.434128 0.000000 -0.900851
vn -0.434128 0.000000 -0.900851
vn -0.434128 0.000000 -0.900851
vn -0.434128 0.000000 -0.900851
vn -0.434128 0.000000 0.900851
vn -0.434128 0.000000 0.900851
vn -0.434128 0.000000 0.900851
vn -0.434128 0.000000 0.900851
vn 0.000000 -1.000000 0.000000
vn 0.000000 -1.000000 0.000000
vn 0.000000 -1.000000 0.000000
vn 0.000000 1.000000 0.000000
vn 0.000000 1.000000 0.000000
vn 0.000000 1.000000 0.000000
vn 0.000000 -1.000000 0.000000
vn 0.000000 -1.000000 0.000000
vn 0.000000 1.000000 0.000000
vn 0.000000 1.000000 0.000000
vn 0.000000 -1.000000 0.000000
vn 0.000000 -1.000000 0.000000
vn 0.000000 1.000000 0.000000
vn 0.000000 1.000000 0.000000
vn 0.434128 0.000000 -0.900851
vn 0.434128 0.000000 -0.900851
vn 0.434128 0.000000 -0.900851
vn 0.434128 0.000000 -0.900851
vn 0.434128 0.000000 0.900851
vn 0.434128 0.000000 0.900851
vn 0.434128 0.000000 0.900851
vn 0.434128 0.000000 0.900851
vn 1.000000 0.000000 0.000000
vn 1.000000 0.000000 0.000000
vn 1.000000 0.000000 0.000000
vn 1.000000 0.000000 0.000000
vn -0.866120 0.499837 0.000000
vn -0.866119 0.499837 0.000000
vn -0.866119 0.499837 0.000000
vn -0.866119 0.499837 0.000000
vn -0.865572 -0.500784 0.000000
vn -0.865572 -0.500784 0.000000
vn -0.865572 -0.500784 0.000000
vn -0.865572 -0.500784 0.000000
vn -0.000799 -0.000000 -1.000000
vn -0.000400 -0.000231 -1.000000
vn -0.000267 -0.000000 -1.000000
vn 0.000000 0.000000 1.000000
vn 0.000000 0.000000 1.000000
vn 0.000000 0.000000 1.000000
vn -0.000400 0.000231 -1.000000
vn 0.000000 0.000000 1.000000
vn 0.000000 1.000000 0.000000
vn 0.000000 1.000000 0.000000
vn 0.000000 1.000000 0.000000
vn 0.000000 1.000000 0.000000
vn 0.000000 0.000000 -1.000000
vn 0.000000 0.000000 1.000000
vn 0.000000 -1.000000 0.000000
vn 0.000000 -1.000000 0.000000
vn 0.000000 -1.000000 0.000000
vn 0.000000 -1.000000 0.000000
vn 0.000000 0.000000 -1.000000
vn 0.000000 0.000000 1.000000
vn 0.000000 0.000000 -1.000000
vn 0.000000 0.000000 1.000000
vn 0.865919 -0.500184 0.000000
vn 0.865919 -0.500184 0.000000
vn 0.865919 -0.500184 0.000000
vn 0.865919 -0.500184 0.000000
vn 0.866119 0.499837 0.000000
vn 0.866119 0.499837 0.000000
vn 0.866119 0.499837 0.000000
vn 0.866119 0.499837 0.000000
f 28/28/28 29/29/29 27/27/27 
f 30/30/30 29/29/29 28/28/28 
f 10/10/10 11/11/11 9/9/9 
f 12/12/12 11/11/11 10/10/10 
f 6/6/6 7/7/7 5/5/5 
f 8/8/8 7/7/7 6/6/6 
f 2/2/2 3/3/3 1/1/1 
f 4/4/4 3/3/3 2/2/2 
f 226/226/226 227/227/227 225/225/225 
f 228/228/228 227/227/227 226/226/226 
f 222/222/222 223/223/223 221/221/221 
f 224/224/224 223/223/223 222/222/222 
f 214/214/214 215/215/215 213/213/213 
f 216/216/216 215/215/215 214/214/214 
f 208/208/208 209/209/209 207/207/207 
f 210/210/210 209/209/209 208/208/208 
f 196/196/196 197/197/197 195/195/195 
f 198/198/198 197/197/197 196/196/196 
f 192/192/192 193/193/193 191/191/191 
f 194/194/194 193/193/193 192/192/192 
f 188/188/188 189/189/189 187/187/187 
f 190/190/190 189/189/189 188/188/188 
f 184/184/184 185/185/185 183/183/183 
f 186/186/186 185/185/185 184/184/184 
f 180/180/180 181/181/181 179/179/179 
f 182/182/182 181/181/181 180/180/180 
f 162/162/162 163/163/163 161/161/161 
f 164/164/164 163/163/163 162/162/162 
f 158/158/158 159/159/159 157/157/157 
f 160/160/160 159/159/159 158/158/158 
f 154/154/154 155/155/155 153/153/153 
f 156/156/156 155/155/155 154/154/154 
f 150/150/150 151/151/151 149/149/149 
f 152/152/152 151/151/151 150/150/150 
f 146/146/146 147/147/147 145/145/145 
f 148/148/148 147/147/147 146/146/146 
f 142/142/142 143/143/143 141/141/141 
f 144/144/144 143/143/143 142/142/142 
f 138/138/138 139/139/139 137/137/137 
f 140/140/140 139/139/139 138/138/138 
f 134/134/134 135/135/135 133/133/133 
f 136/136/136 135/135/135 134/134/134 
f 130/130/130 131/131/131 129/129/129 
f 132/132/132 131/131/131 130/130/130 
f 116/116/116 117/117/117 115/115/115 
f 119/119/119 117/117/117 116/116/116 
f 119/119/119 117/117/117 117/117/117 
f 121/121/121 117/117/117 119/119/119 
f 121/121/121 117/117/117 117/117/117 
f 120/120/120 117/117/117 121/121/121 
f 120/120/120 117/117/117 117/117/117 
f 118/118/118 117/117/117 120/120/120 
f 118/118/118 115/115/115 117/117/117 
f 21/21/21 18/18/18 25/25/25 
f 16/16/16 18/18/18 21/21/21 
f 16/16/16 18/18/18 18/18/18 
f 17/17/17 18/18/18 16/16/16 
f 17/17/17 18/18/18 18/18/18 
f 22/22/22 18/18/18 17/17/17 
f 22/22/22 18/18/18 18/18/18 
f 26/26/26 18/18/18 22/22/22 
f 26/26/26 25/25/25 18/18/18 
f 112/112/112 113/113/113 111/111/111 
f 114/114/114 113/113/113 112/112/112 
f 108/108/108 109/109/109 107/107/107 
f 110/110/110 109/109/109 108/108/108 
f 104/104/104 105/105/105 103/103/103 
f 106/106/106 105/105/105 104/104/104 
f 86/86/86 87/87/87 85/85/85 
f 88/88/88 87/87/87 86/86/86 
f 82/82/82 83/83/83 81/81/81 
f 84/84/84 83/83/83 82/82/82 
f 78/78/78 79/79/79 77/77/77 
f 80/80/80 79/79/79 78/78/78 
f 74/74/74 75/75/75 73/73/73 
f 76/76/76 75/75/75 74/74/74 
f 70/70/70 71/71/71 69/69/69 
f 72/72/72 71/71/71 70/70/70 
f 66/66/66 67/67/67 65/65/65 
f 68/68/68 67/67/67 66/66/66 
f 48/48/48 49/49/49 47/47/47 
f 50/50/50 49/49/49 48/48/48 
f 44/44/44 45/45/45 43/43/43 
f 46/46/46 45/45/45 44/44/44 
f 40/40/40 41/41/41 39/39/39 
f 42/42/42 41/41/41 40/40/40 
f 36/36/36 37/37/37 35/35/35 
f 38/38/38 37/37/37 36/36/36 
f 32/32/32 33/33/33 31/31/31 
f 34/34/34 33/33/33 32/32/32 
f 217/217/217 201/201/201 219/219/219 
f 205/205/205 201/201/201 217/217/217 
f 205/205/205 201/201/201 201/201/201 
f 199/199/199 201/201/201 205/205/205 
f 199/199/199 201/201/201 201/201/201 
f 200/200/200 201/201/201 199/199/199 
f 200/200/200 201/201/201 201/201/201 
f 211/211/211 201/201/201 200/200/200 
f 211/211/211 219/219/219 201/201/201 
f 19/19/19 15/15/15 14/14/14 
f 23/23/23 15/15/15 19/19/19 
f 23/23/23 15/15/15 15/15/15 
f 24/24/24 15/15/15 23/23/23 
f 24/24/24 15/15/15 15/15/15 
f 20/20/20 15/15/15 24/24/24 
f 20/20/20 15/15/15 15/15/15 
f 13/13/13 15/15/15 20/20/20 
f 13/13/13 14/14/14 15/15/15 
f 218/218/218 204/204/204 206/206/206 
f 220/220/220 204/204/204 218/218/218 
f 220/220/220 204/204/204 204/204/204 
f 212/212/212 204/204/204 220/220/220 
f 212/212/212 204/204/204 204/204/204 
f 202/202/202 204/204/204 212/212/212 
f 202/202/202 204/204/204 204/204/204 
f 203/203/203 204/204/204 202/202/202 
f 203/203/203 206/206/206 204/204/204 
f 60/60/60 56/56/56 55/55/55 
f 64/64/64 56/56/56 60/60/60 
f 64/64/64 56/56/56 56/56/56 
f 63/63/63 56/56/56 64/64/64 
f 63/63/63 56/56/56 56/56/56 
f 59/59/59 56/56/56 63/63/63 
f 59/59/59 56/56/56 56/56/56 
f 54/54/54 56/56/56 59/59/59 
f 54/54/54 55/55/55 56/56/56 
f 175/175/175 167/167/167 171/171/171 
f 176/176/176 167/167/167 175/175/175 
f 176/176/176 167/167/167 167/167/167 
f 172/172/172 167/167/167 176/176/176 
f 172/172/172 167/167/167 167/167/167 
f 165/165/165 167/167/167 172/172/172 
f 165/165/165 167/167/167 167/167/167 
f 166/166/166 167/167/167 165/165/165 
f 166/166/166 171/171/171 167/167/167 
f 61/61/61 53/53/53 57/57/57 
f 62/62/62 53/53/53 61/61/61 
f 62/62/62 53/53/53 53/53/53 
f 58/58/58 53/53/53 62/62/62 
f 58/58/58 53/53/53 53/53/53 
f 51/51/51 53/53/53 58/58/58 
f 51/51/51 53/53/53 53/53/53 
f 52/52/52 53/53/53 51/51/51 
f 52/52/52 57/57/57 53/53/53 
f 174/174/174 170/170/170 169/169/169 
f 178/178/178 170/170/170 174/174/174 
f 178/178/178 170/170/170 170/170/170 
f 177/177/177 170/170/170 178/178/178 
f 177/177/177 170/170/170 170/170/170 
f 173/173/173 170/170/170 177/177/177 
f 173/173/173 170/170/170 170/170/170 
f 168/168/168 170/170/170 173/173/173 
f 168/168/168 169/169/169 170/170/170 
f 100/100/100 91/91/91 99/99/99 
f 96/96/96 91/91/91 100/100/100 
f 96/96/96 91/91/91 91/91/91 
f 89/89/89 91/91/91 96/96/96 
f 89/89/89 91/91/91 91/91/91 
f 90/90/90 91/91/91 89/89/89 
f 90/90/90 91/91/91 91/91/91 
f 95/95/95 91/91/91 90/90/90 
f 95/95/95 99/99/99 91/91/91 
f 123/123/123 124/124/124 122/122/122 
f 125/125/125 124/124/124 123/123/123 
f 125/125/125 124/124/124 124/124/124 
f 127/127/127 124/124/124 125/125/125 
f 127/127/127 124/124/124 124/124/124 
f 128/128/128 124/124/124 127/127/127 
f 128/128/128 124/124/124 124/124/124 
f 126/126/126 124/124/124 128/128/128 
f 126/126/126 122/122/122 124/124/124 
f 101/101/101 94/94/94 102/102/102 
f 97/97/97 94/94/94 101/101/101 
f 97/97/97 94/94/94 94/94/94 
f 92/92/92 94/94/94 97/97/97 
f 92/92/92 94/94/94 94/94/94 
f 93/93/93 94/94/94 92/92/92 
f 93/93/93 94/94/94 94/94/94 
f 98/98/98 94/94/94 93/93/93 
f 98/98/98 102/102/102 94/94/94 
