v -189.883896 2.795800 185.646698
v -189.883896 4.015200 185.646698
v -189.320908 2.940600 185.634903
v -189.320908 4.015200 185.634903
v -189.320908 2.940600 185.634903
v -189.320908 4.015200 185.634903
v -188.731598 3.033400 185.626297
v -188.720901 4.015200 185.626205
v -188.731598 3.033400 185.626297
v -188.720901 4.015200 185.626205
v -188.019302 3.114200 185.623093
v -188.019302 4.015200 185.623093
v -187.508408 3.114200 185.619904
v -188.019302 3.114200 185.623093
v -187.512299 4.015200 185.619904
v -188.019302 4.015200 185.623093
v -186.787506 3.033400 185.615005
v -187.508408 3.114200 185.619904
v -186.786301 4.015200 185.615005
v -187.512299 4.015200 185.619904
v -186.231903 2.940600 185.611298
v -186.787506 3.033400 185.615005
v -186.231903 4.015200 185.611298
v -186.786301 4.015200 185.615005
v -185.513596 2.795800 185.599503
v -186.231903 2.940600 185.611298
v -185.513596 4.015200 185.599503
v -186.231903 4.015200 185.611298
vt 1.000000 0.046400
vt 1.000000 0.942600
vt 0.871100 0.130300
vt 0.871100 0.942600
vt 0.871100 0.130300
vt 0.871100 0.942600
vt 0.736300 0.184100
vt 0.733800 0.942600
vt 0.736300 0.184100
vt 0.733800 0.942600
vt 0.573300 0.230900
vt 0.573300 0.942600
vt 0.456400 0.230900
vt 0.573300 0.230900
vt 0.457300 0.942600
vt 0.573300 0.942600
vt 0.291400 0.184100
vt 0.456400 0.230900
vt 0.291200 0.942600
vt 0.457300 0.942600
vt 0.164300 0.130300
vt 0.291400 0.184100
vt 0.164300 0.942600
vt 0.291200 0.942600
vt 0.000000 0.046400
vt 0.164300 0.130300
vt 0.000000 0.942600
vt 0.164300 0.942600
vn -0.014383 1.000000 -0.686508
vn -0.018463 0.472277 -0.881257
vn -0.027058 0.692129 -1.291495
vn -0.012675 0.345959 -0.604987
vn -0.009248 0.345959 -0.633272
vn -0.017787 0.692347 -1.222358
vn -0.017787 0.692347 -1.222358
vn -0.008539 0.346388 -0.589086
vn -0.003139 0.346319 -0.698468
vn -0.005943 0.692278 -1.330608
vn -0.005943 0.692278 -1.330608
vn -0.002805 0.345959 -0.632141
vn -0.002873 0.346127 -0.460316
vn -0.005747 0.692271 -0.917127
vn -0.005747 0.692271 -0.917127
vn -0.002873 0.346144 -0.456810
vn -0.004809 0.346146 -0.707879
vn -0.009222 0.692296 -1.362003
vn -0.009222 0.692296 -1.362003
vn -0.004413 0.346150 -0.654124
vn -0.003984 0.346161 -0.597051
vn -0.007625 0.692327 -1.141359
vn -0.007625 0.692327 -1.141359
vn -0.003640 0.346166 -0.544308
vn -0.014383 0.000000 -0.875904
vn -0.027058 0.000000 -1.647798
vn -0.027058 0.000000 -1.647798
vn -0.012675 0.000000 -0.771893
f 2/2/2 3/3/3 1/1/1 
f 4/4/4 3/3/3 2/2/2 
f 26/26/26 27/27/27 25/25/25 
f 28/28/28 27/27/27 26/26/26 
f 22/22/22 23/23/23 21/21/21 
f 24/24/24 23/23/23 22/22/22 
f 18/18/18 19/19/19 17/17/17 
f 20/20/20 19/19/19 18/18/18 
f 14/14/14 15/15/15 13/13/13 
f 16/16/16 15/15/15 14/14/14 
f 10/10/10 11/11/11 9/9/9 
f 12/12/12 11/11/11 10/10/10 
f 6/6/6 7/7/7 5/5/5 
f 8/8/8 7/7/7 6/6/6 
