v -206.205505 -1.959400 176.644394
v -204.733505 -1.959300 179.232605
v -203.950195 -1.959300 176.042694
v -202.774994 -1.959200 176.821396
v -207.796005 -1.958900 182.705093
v -204.289597 -1.959000 180.422195
v -206.599503 -1.959400 180.154800
v -206.599503 -1.959400 180.154800
v -204.733505 -1.959300 179.232605
v -199.508698 -1.959200 185.386307
v -207.796005 -1.958900 182.705093
v -207.465897 -1.959000 184.752502
v -206.860504 -1.959200 188.507294
v -205.685898 -1.959200 190.338593
v -202.089600 -1.959200 189.417801
v -207.324707 -1.959100 185.628296
v -207.163193 -1.959100 186.629898
v -205.295898 -1.959200 190.946594
v -204.289597 -1.959000 180.422195
v -204.181000 -1.959200 192.684906
v -203.805695 -1.959200 193.270096
v -202.922607 -1.959200 175.623093
v -203.077393 -1.959200 194.405594
v -199.878799 -1.959100 176.833298
v -202.392807 -1.959200 195.473099
v -199.878799 -1.959100 176.833298
v -201.642502 -1.959100 175.427002
v -200.249207 -1.959200 194.764893
v -201.708099 -1.959200 196.540604
v -199.383804 -1.959100 177.228104
v -200.533997 -1.959100 198.371201
v -198.230896 -1.959100 178.147293
v -197.437698 -1.959000 193.154007
v -198.862900 -1.959100 195.555405
v -200.533997 -1.959100 198.371201
v -197.261002 -1.990400 196.068100
v -198.862900 -1.959100 195.555405
v -198.567795 -2.016400 197.990601
v -197.261002 -1.990400 196.068100
v -200.533997 -1.959100 198.371201
v -197.299698 -1.959100 179.120605
v -196.822205 -1.959100 179.619598
v -197.437698 -1.959000 193.154007
v -197.712997 -2.042900 197.825104
v -197.261002 -1.990400 196.068100
v -198.567795 -2.016400 197.990601
v -196.075104 -1.959100 180.400406
v -195.293106 -1.959000 189.540298
v -196.979797 -2.046900 197.683105
v -197.261002 -1.990400 196.068100
v -197.712997 -2.042900 197.825104
v -195.619904 -1.959100 182.709305
v -197.437698 -1.959000 193.154007
v -197.261002 -1.990400 196.068100
v -196.363800 -2.014700 194.814499
v -195.400406 -1.959100 183.822495
v -195.360306 -1.959100 185.960999
v -195.342697 -1.959000 186.898804
v -195.320999 -1.959000 188.053497
v -195.446198 -2.016700 197.003403
v -197.261002 -1.990400 196.068100
v -196.979797 -2.046900 197.683105
v -196.048203 -2.052400 195.546295
v -196.363800 -2.014700 194.814499
v -197.261002 -1.990400 196.068100
v -197.261002 -1.990400 196.068100
v -195.906906 -2.051900 196.049500
v -196.048203 -2.052400 195.546295
v -195.744003 -2.039600 196.503494
v -195.906906 -2.051900 196.049500
v -197.261002 -1.990400 196.068100
v -196.363800 -2.014700 194.814499
v -195.046494 -1.946700 193.748001
v -197.437698 -1.959000 193.154007
v -195.333893 -2.003900 196.812500
v -195.744003 -2.039600 196.503494
v -197.261002 -1.990400 196.068100
v -195.446198 -2.016700 197.003403
v -195.333893 -2.003900 196.812500
v -197.261002 -1.990400 196.068100
v -197.437698 -1.959000 193.154007
v -195.161804 -1.968800 191.779907
v -195.293106 -1.959000 189.540298
v -197.437698 -1.959000 193.154007
v -195.100296 -1.936800 192.830597
v -195.161804 -1.968800 191.779907
v -197.437698 -1.959000 193.154007
v -195.046494 -1.946700 193.748001
v -195.100296 -1.936800 192.830597
v -194.852707 -2.006900 195.232803
v -196.363800 -2.014700 194.814499
v -196.048203 -2.052400 195.546295
v -195.906906 -2.051900 196.049500
v -195.067200 -1.963000 196.040604
v -196.048203 -2.052400 195.546295
v -195.906906 -2.051900 196.049500
v -195.744003 -2.039600 196.503494
v -195.067200 -1.963000 196.040604
v -195.333893 -2.003900 196.812500
v -195.221603 -2.018000 196.621506
v -195.744003 -2.039600 196.503494
v -195.046494 -1.946700 193.748001
v -196.363800 -2.014700 194.814499
v -194.852707 -2.006900 195.232803
v -195.221603 -2.018000 196.621506
v -195.067200 -1.963000 196.040604
v -195.744003 -2.039600 196.503494
v -194.852707 -2.006900 195.232803
v -196.048203 -2.052400 195.546295
v -195.067200 -1.963000 196.040604
v -205.653397 -1.065600 193.949097
v -204.186005 -1.439000 193.987900
v -206.102203 -1.509100 191.983902
v -205.084000 -2.001200 191.610001
v -204.566605 -0.856200 196.325607
v -203.582901 -1.968400 192.228806
v -202.310394 -0.651600 196.690994
v -203.024597 -1.779800 193.112305
v -203.635300 -0.592600 197.572006
v -202.076004 -1.097200 194.613098
v -202.788696 -0.539600 198.818497
v -201.646606 -2.426800 193.598099
v -202.807205 -2.921700 191.250793
v -202.652100 -1.436300 201.145203
v -201.125305 -1.128300 200.548096
v -201.444504 -0.792900 198.761093
v -201.115997 -1.026400 196.441101
v -200.815094 -3.205600 192.759293
v -200.635101 -1.025300 198.128906
v -200.472305 -1.606400 195.735504
v -200.292496 -1.339700 199.830597
v -199.868301 -3.035700 195.095001
v -199.975403 -1.544200 197.493301
v -199.297607 -2.046100 199.497406
v -199.073105 -2.374800 197.354294
v -197.559204 -2.408600 185.402695
v -196.706497 -1.791700 184.760605
v -197.662796 -2.234200 182.705704
v -196.673492 -1.745700 182.754105
v -196.756897 -2.086200 180.207108
v -197.287704 -2.600700 188.171295
v -196.180695 -1.892000 187.470795
v -195.768295 -1.517500 182.241196
v -195.792007 -1.564400 184.162094
v -195.364395 -1.550600 186.392197
v -194.680298 -1.728200 190.360596
v -195.608597 -1.645300 180.096603
v -194.746597 -1.214000 181.586105
v -194.489197 -1.039800 184.241699
v -194.497498 -1.381700 179.879807
v -193.405502 -1.049300 187.763702
v -193.395599 -0.839300 182.347794
v -193.226303 -1.247600 190.608505
v -192.701096 -1.411800 179.782700
v -192.259399 -0.766500 185.374496
v -192.040894 -0.902100 190.487900
v -191.874802 -0.800200 188.235504
v -200.523102 -2.387500 196.022095
v -199.397003 -2.823400 194.406097
v -200.846405 -3.356000 194.167099
v -200.521194 -1.457200 199.891296
v -199.398102 -1.386900 199.600601
v -200.807404 -1.799800 198.103302
v -200.720703 -1.317800 201.347107
v -199.435898 -1.283600 201.367798
v -199.303101 -1.678300 197.771393
v -198.905197 -1.721100 196.010803
v -198.136703 -1.214800 201.176895
v -198.083405 -1.305500 199.257401
v -197.981293 -1.177000 197.453293
v -197.827896 -2.073400 194.802002
v -197.755600 -1.465000 196.145401
v -196.807602 -1.140600 200.723602
v -196.817902 -0.913400 198.646103
v -196.953201 -1.138700 197.151901
v -196.763901 -1.445100 195.898300
v -196.583298 -2.040900 194.694901
v -195.706894 -1.191600 197.327499
v -195.765396 -1.597400 195.714493
v -195.391800 -1.273600 199.712296
v -195.717102 -1.181700 201.576996
v -195.543900 -2.127200 194.463501
v -194.582108 -1.680100 196.042999
v -194.526993 -1.173600 201.611404
v -194.022995 -1.575700 198.260193
v -194.177505 -2.667400 194.549698
v -194.030807 -1.318000 200.160599
vt 0.101500 0.335900
vt 0.101500 0.335900
vt 0.101500 0.335900
vt 0.101500 0.335900
vt 0.101500 0.335900
vt 0.101500 0.335900
vt 0.101500 0.335900
vt 0.101500 0.335900
vt 0.101500 0.335900
vt 0.101500 0.335900
vt 0.101500 0.335900
vt 0.101500 0.335900
vt 0.101500 0.335900
vt 0.101500 0.335900
vt 0.101500 0.335900
vt 0.101500 0.335900
vt 0.101500 0.335900
vt 0.101500 0.335900
vt 0.101500 0.335900
vt 0.101500 0.335900
vt 0.101500 0.335900
vt 0.101500 0.335900
vt 0.101500 0.335900
vt 0.101500 0.335900
vt 0.101500 0.335900
vt 0.101500 0.335900
vt 0.101500 0.335900
vt 0.101500 0.335900
vt 0.101500 0.335900
vt 0.101500 0.335900
vt 0.101500 0.335900
vt 0.101500 0.335900
vt 0.101500 0.335900
vt 0.101500 0.335900
vt 0.101500 0.335900
vt 0.101500 0.335900
vt 0.101500 0.335900
vt 0.101500 0.335900
vt 0.101500 0.335900
vt 0.101500 0.335900
vt 0.101500 0.335900
vt 0.101500 0.335900
vt 0.101500 0.335900
vt 0.101500 0.335900
vt 0.101500 0.335900
vt 0.101500 0.335900
vt 0.101500 0.335900
vt 0.101500 0.335900
vt 0.101500 0.335900
vt 0.101500 0.335900
vt 0.101500 0.335900
vt 0.101500 0.335900
vt 0.101500 0.335900
vt 0.101500 0.335900
vt 0.101500 0.335900
vt 0.101500 0.335900
vt 0.101500 0.335900
vt 0.101500 0.335900
vt 0.101500 0.335900
vt 0.101500 0.335900
vt 0.101500 0.335900
vt 0.101500 0.335900
vt 0.101500 0.335900
vt 0.101500 0.335900
vt 0.101500 0.335900
vt 0.101500 0.335900
vt 0.101500 0.335900
vt 0.101500 0.335900
vt 0.101500 0.335900
vt 0.101500 0.335900
vt 0.101500 0.335900
vt 0.101500 0.335900
vt 0.101500 0.335900
vt 0.101500 0.335900
vt 0.101500 0.335900
vt 0.101500 0.335900
vt 0.101500 0.335900
vt 0.101500 0.335900
vt 0.101500 0.335900
vt 0.101500 0.335900
vt 0.101500 0.335900
vt 0.101500 0.335900
vt 0.101500 0.335900
vt 0.101500 0.335900
vt 0.101500 0.335900
vt 0.101500 0.335900
vt 0.101500 0.335900
vt 0.101500 0.335900
vt 0.101500 0.335900
vt 0.101500 0.335900
vt 0.101500 0.335900
vt 0.101500 0.335900
vt 0.101500 0.335900
vt 0.101500 0.335900
vt 0.101500 0.335900
vt 0.101500 0.335900
vt 0.101500 0.335900
vt 0.101500 0.335900
vt 0.101500 0.335900
vt 0.101500 0.335900
vt 0.101500 0.335900
vt 0.101500 0.335900
vt 0.101500 0.335900
vt 0.101500 0.335900
vt 0.101500 0.335900
vt 0.101500 0.335900
vt 0.101500 0.335900
vt 0.101500 0.335900
vt 0.101500 0.335900
vt 0.101500 0.335900
vt 0.101500 0.335900
vt 0.101500 0.335900
vt 0.101500 0.335900
vt 0.101500 0.335900
vt 0.101500 0.335900
vt 0.101500 0.335900
vt 0.101500 0.335900
vt 0.101500 0.335900
vt 0.101500 0.335900
vt 0.101500 0.335900
vt 0.101500 0.335900
vt 0.101500 0.335900
vt 0.101500 0.335900
vt 0.101500 0.335900
vt 0.101500 0.335900
vt 0.101500 0.335900
vt 0.101500 0.335900
vt 0.101500 0.335900
vt 0.101500 0.335900
vt 0.101500 0.335900
vt 0.101500 0.335900
vt 0.101500 0.335900
vt 0.101500 0.335900
vt 0.101500 0.335900
vt 0.101500 0.335900
vt 0.101500 0.367100
vt 0.101500 0.367100
vt 0.101500 0.367100
vt 0.101500 0.367100
vt 0.101500 0.367100
vt 0.101500 0.367100
vt 0.101500 0.367100
vt 0.101500 0.367100
vt 0.101500 0.367100
vt 0.101500 0.367100
vt 0.101500 0.367100
vt 0.101500 0.367100
vt 0.101500 0.367100
vt 0.101500 0.367100
vt 0.101500 0.367100
vt 0.101500 0.367100
vt 0.101500 0.367100
vt 0.101500 0.367100
vt 0.101500 0.367100
vt 0.101500 0.367100
vt 0.101500 0.367100
vt 0.101500 0.367100
vt 0.101500 0.367100
vt 0.101500 0.367100
vt 0.101500 0.367100
vt 0.101500 0.367100
vt 0.101500 0.367100
vt 0.101500 0.367100
vt 0.101500 0.367100
vt 0.101500 0.367100
vt 0.101500 0.367100
vt 0.101500 0.367100
vt 0.101500 0.367100
vt 0.101500 0.367100
vt 0.101500 0.367100
vt 0.101500 0.367100
vt 0.101500 0.367100
vt 0.101500 0.367100
vt 0.101500 0.367100
vt 0.101500 0.367100
vt 0.101500 0.367100
vt 0.101500 0.367100
vt 0.101500 0.367100
vt 0.101500 0.367100
vt 0.101500 0.367100
vt 0.101500 0.367100
vt 0.101500 0.367100
vt 0.101500 0.367100
vt 0.101500 0.367100
vt 0.101500 0.367100
vt 0.101500 0.367100
vt 0.101500 0.367100
vn -0.953893 13.211582 0.020033
vn -0.192860 0.976122 -0.099956
vn -0.019659 13.374737 -0.656114
vn -1.815642 144.361496 2.824594
vn -1.993231 6.281529 -0.579233
vn -3.985936 15.821536 1.310369
vn -3.986119 8.981351 -1.608159
vn -1.994923 6.257718 -6.353294
vn -1.890039 9.790664 -8.590379
vn -3.773133 246.871643 -6.073800
vn -3.766917 45.045589 -2.680285
vn -1.879183 23.283123 -1.744348
vn -1.205000 43.894218 1.338631
vn -2.420192 10.005151 3.539568
vn -2.415663 109.700508 2.948215
vn -1.193511 14.642877 0.262686
vn -0.872496 22.704433 -1.665506
vn -1.772591 10.003667 -0.854533
vn -1.738355 81.162399 -3.813143
vn -0.808896 9.818022 -7.531630
vn -0.946089 7.534481 -9.475387
vn -2.014818 3.516602 -7.701320
vn -2.057059 9.883735 -4.123662
vn -1.031782 7.170422 -2.298813
vn -0.793779 20.035789 0.268814
vn -1.585853 14.632694 0.765446
vn -1.586760 5.671091 0.659745
vn -0.795149 48.000607 0.335343
vn -0.754835 7.656549 -0.941758
vn -1.509221 11.965382 -1.887313
vn -1.509811 10.235728 -1.887462
vn -0.753748 57.256462 -0.944825
vn -0.108248 74.742531 2.227947
vn -0.211786 9.178968 4.456890
vn -0.123051 4.866059 4.509367
vn 0.057391 9.694217 2.325608
vn -0.318717 9.903489 0.844994
vn -0.843623 3.199912 1.621587
vn -0.843623 3.199912 1.621587
vn -0.361660 3.241294 0.873668
vn 0.105858 12.329432 -2.239868
vn 0.211882 11.001394 -4.479898
vn 0.287122 5.078831 -4.435252
vn 0.161254 1.677749 -2.183158
vn -0.353564 1.558461 -0.746214
vn -0.762430 1.689819 -1.549524
vn -0.817988 16.866091 -1.606258
vn -0.409886 30.425774 -0.803733
vn 1.042106 0.893753 1.995352
vn 2.069728 0.563453 3.950348
vn 2.069728 0.563453 3.950348
vn 1.027280 14.783665 1.955063
vn 0.068133 2.736393 0.896444
vn 0.025990 2.636683 1.769255
vn 0.025990 2.636683 1.769255
vn -0.042468 13.665157 0.872837
vn 1.210503 12.832601 -1.908314
vn 2.421841 8.865866 -3.816268
vn 2.421580 11.137480 -3.815850
vn 1.200986 2.771843 -1.812814
vn 0.010305 2.731912 -0.794187
vn 0.030981 2.795920 -1.683549
vn 0.106394 1.180215 -1.752535
vn 0.085719 1.116210 -0.863207
vn 1.750363 0.397763 1.213694
vn 3.402184 -0.625119 2.365664
vn 3.402184 -0.625119 2.365664
vn 1.716865 0.029321 1.178126
vn 2.002855 0.518560 -1.074203
vn 3.977407 0.419414 -2.121744
vn 3.977407 0.419414 -2.121744
vn 1.921042 3.233541 -0.901143
vn 0.132972 2.831684 0.932616
vn 0.319484 2.330741 1.718799
vn 0.403740 -0.711745 1.498066
vn 0.217259 -0.210742 0.711848
vn 2.253830 0.038249 0.005924
vn 4.439110 -0.052415 0.186752
vn 4.439110 -0.052415 0.186752
vn 2.216027 0.199538 0.106494
vn 0.214331 4.815463 -0.735058
vn 0.393017 4.353197 -1.491053
vn 0.393017 4.353197 -1.491053
vn 0.145012 2.013510 -0.829427
vn 0.701720 2.322920 0.398948
vn 1.436910 2.170074 0.871373
vn 1.453420 1.856040 0.969139
vn 0.718026 2.008896 0.496760
vn 0.465424 1.618663 -0.394479
vn 0.943707 -0.112349 -0.778198
vn 0.943707 -0.112349 -0.778198
vn 0.461119 0.430731 -0.359384
vn 0.829980 0.307571 0.043725
vn 1.704903 0.191316 0.075263
vn 1.704903 0.191316 0.075263
vn 0.834454 0.266417 0.035692
vn -0.263095 0.485005 0.065473
vn -0.540183 0.024605 0.061166
vn -0.229718 2.568646 0.375549
vn -0.225010 0.215387 0.051586
vn 0.033082 0.644430 0.055598
vn -0.020048 2.662465 0.157653
vn -0.020068 2.662568 0.157608
vn -0.001174 2.693883 0.157881
vn -0.178322 0.961112 0.089336
vn -0.392079 1.037774 0.087787
vn -0.392120 1.037762 0.087719
vn -0.209822 1.537915 0.001771
vn -1.989723 2.176463 0.001223
vn -6.217283 2.347589 -0.629290
vn -6.700384 7.779187 -2.661723
vn -4.124048 26.867550 -8.426830
vn -0.639784 5.703131 -2.395932
vn -1.268453 6.210031 -1.265763
vn -4.183815 12.086538 -1.383987
vn -1.661907 9.125789 -2.209101
vn -2.794070 25.538162 -3.116838
vn -4.025603 7.943889 -5.240386
vn -7.792077 5.886397 -3.603048
vn -0.977639 15.322822 -9.729606
vn -0.922927 11.054616 0.091407
vn 9.483832 15.964607 -8.410524
vn -0.253339 7.052357 0.270623
vn -3.447235 4.749896 4.488481
vn -0.893638 7.891906 3.528929
vn 1.426712 9.973927 0.409342
vn 1.932756 8.509166 -2.261742
vn 1.108169 5.266415 -2.645444
vn 1.457586 12.020256 -0.537728
vn 3.898112 13.305564 -6.839381
vn -5.222395 7.531913 0.864886
vn 2.283038 7.986400 -4.160715
vn 5.387781 8.391498 -0.955139
vn 3.456941 5.456629 -0.674206
vn 4.404380 5.312395 -3.341275
vn -6.424550 8.097060 -0.197925
vn -6.562053 13.752480 0.420126
vn -4.411913 7.028174 0.558298
vn -5.077771 10.762977 0.740294
vn -4.196713 7.705266 0.422147
vn -4.859348 7.300234 1.899203
vn -8.701797 15.567470 0.234655
vn -6.543276 12.138119 -4.903951
vn -5.035438 9.774175 -3.793150
vn -8.315135 23.634140 0.081214
vn -7.544705 19.704012 4.427118
vn -3.287762 7.524083 3.554680
vn -4.606512 13.873528 3.213324
vn -11.077584 30.856258 3.124500
vn -7.384665 10.883850 -2.457204
vn -15.354555 35.886879 0.789431
vn -5.673450 16.586876 -3.011440
vn -2.924886 6.781314 -0.166850
vn -0.795298 3.777640 -0.175536
vn -3.477543 15.761933 2.281174
vn -2.297565 6.897333 2.081825
vn -1.708658 8.019586 1.094193
vn -3.236497 10.604670 -6.050610
vn -1.844448 6.446065 -8.260438
vn 0.161433 1.464719 -5.439953
vn 0.092731 5.307657 -2.771479
vn -0.688514 14.402243 0.517974
vn 0.219485 8.810268 2.471387
vn 1.183083 2.867442 4.018776
vn 0.003476 6.186481 1.658866
vn -4.291728 14.361727 -3.071143
vn -4.605859 11.635064 -6.152958
vn -0.362715 6.380025 -2.059300
vn -2.592412 14.343040 -0.942485
vn -2.735226 11.303479 -0.098824
vn -0.849513 7.032434 -1.718695
vn -0.494848 7.268238 -0.611670
vn -2.705426 11.617025 1.194138
vn -3.988454 15.734544 -1.400652
vn -2.523171 8.400081 -4.661702
vn 0.340632 8.338031 -6.130768
vn 1.297200 3.007965 -3.386422
vn 4.426042 16.513805 -0.392586
vn 3.582959 7.335886 0.468866
vn 5.612743 19.279209 2.693707
vn 1.726849 4.767195 1.340118
vn 3.240876 4.442811 -2.833964
vn 6.628386 7.978372 -3.740952
vn 4.395989 3.734781 -1.412654
vn 4.145596 9.206962 -0.696762
vn 3.071841 2.056603 -0.143070
vn 4.689174 4.749497 1.206540
f 39/39/39 40/40/40 38/38/38 
f 169/169/169 162/162/162 169/169/169 
f 166/166/166 162/162/162 169/169/169 
f 166/166/166 163/163/163 162/162/162 
f 166/166/166 163/163/163 166/166/166 
f 166/166/166 158/158/158 163/163/163 
f 169/169/169 168/168/168 173/173/173 
f 162/162/162 168/168/168 169/169/169 
f 162/162/162 165/165/165 168/168/168 
f 162/162/162 165/165/165 162/162/162 
f 162/162/162 161/161/161 165/165/165 
f 163/163/163 161/161/161 162/162/162 
f 165/165/165 161/161/161 164/164/164 
f 160/160/160 159/159/159 160/160/160 
f 158/158/158 159/159/159 160/160/160 
f 158/158/158 167/167/167 159/159/159 
f 166/166/166 167/167/167 158/158/158 
f 166/166/166 170/170/170 167/167/167 
f 169/169/169 170/170/170 166/166/166 
f 169/169/169 174/174/174 170/170/170 
f 173/173/173 174/174/174 169/169/169 
f 173/173/173 180/180/180 174/174/174 
f 181/181/181 180/180/180 173/173/173 
f 181/181/181 180/180/180 180/180/180 
f 184/184/184 180/180/180 181/181/181 
f 171/171/171 172/172/172 171/171/171 
f 167/167/167 172/172/172 171/171/171 
f 167/167/167 172/172/172 172/172/172 
f 170/170/170 172/172/172 167/167/167 
f 170/170/170 175/175/175 172/172/172 
f 174/174/174 175/175/175 170/170/170 
f 174/174/174 178/178/178 175/175/175 
f 180/180/180 178/178/178 174/174/174 
f 167/167/167 171/171/171 159/159/159 
f 179/179/179 178/178/178 179/179/179 
f 176/176/176 178/178/178 179/179/179 
f 176/176/176 175/175/175 178/178/178 
f 176/176/176 175/175/175 176/176/176 
f 176/176/176 172/172/172 175/175/175 
f 184/184/184 180/180/180 184/184/184 
f 187/187/187 180/180/180 184/184/184 
f 187/187/187 180/180/180 180/180/180 
f 185/185/185 180/180/180 187/187/187 
f 185/185/185 178/178/178 180/180/180 
f 183/183/183 178/178/178 185/185/185 
f 183/183/183 179/179/179 178/178/178 
f 182/182/182 179/179/179 183/183/183 
f 182/182/182 179/179/179 179/179/179 
f 177/177/177 179/179/179 182/182/182 
f 177/177/177 176/176/176 179/179/179 
f 171/171/171 176/176/176 177/177/177 
f 171/171/171 172/172/172 176/176/176 
f 182/182/182 183/183/183 186/186/186 
f 150/150/150 152/152/152 154/154/154 
f 156/156/156 151/151/151 153/153/153 
f 157/157/157 151/151/151 156/156/156 
f 157/157/157 151/151/151 151/151/151 
f 155/155/155 151/151/151 157/157/157 
f 155/155/155 149/149/149 151/151/151 
f 152/152/152 149/149/149 155/155/155 
f 152/152/152 148/148/148 149/149/149 
f 150/150/150 148/148/148 152/152/152 
f 150/150/150 148/148/148 148/148/148 
f 147/147/147 148/148/148 150/150/150 
f 147/147/147 143/143/143 148/148/148 
f 140/140/140 143/143/143 147/147/147 
f 148/148/148 143/143/143 149/149/149 
f 153/153/153 151/151/151 146/146/146 
f 140/140/140 139/139/139 143/143/143 
f 138/138/138 139/139/139 140/140/140 
f 138/138/138 137/137/137 139/139/139 
f 136/136/136 137/137/137 138/138/138 
f 136/136/136 142/142/142 137/137/137 
f 141/141/141 142/142/142 136/136/136 
f 141/141/141 142/142/142 142/142/142 
f 146/146/146 142/142/142 141/141/141 
f 146/146/146 145/145/145 142/142/142 
f 151/151/151 145/145/145 146/146/146 
f 151/151/151 145/145/145 145/145/145 
f 149/149/149 145/145/145 151/151/151 
f 149/149/149 144/144/144 145/145/145 
f 143/143/143 144/144/144 149/149/149 
f 143/143/143 144/144/144 144/144/144 
f 139/139/139 144/144/144 143/143/143 
f 139/139/139 144/144/144 144/144/144 
f 137/137/137 144/144/144 139/139/139 
f 137/137/137 145/145/145 144/144/144 
f 142/142/142 145/145/145 137/137/137 
f 5/5/5 7/7/7 5/5/5 
f 6/6/6 7/7/7 5/5/5 
f 6/6/6 9/9/9 7/7/7 
f 24/24/24 9/9/9 6/6/6 
f 126/126/126 129/129/129 117/117/117 
f 113/113/113 112/112/112 114/114/114 
f 111/111/111 112/112/112 113/113/113 
f 111/111/111 112/112/112 112/112/112 
f 115/115/115 112/112/112 111/111/111 
f 115/115/115 117/117/117 112/112/112 
f 119/119/119 117/117/117 115/115/115 
f 119/119/119 117/117/117 117/117/117 
f 121/121/121 117/117/117 119/119/119 
f 121/121/121 126/126/126 117/117/117 
f 125/125/125 126/126/126 121/121/121 
f 125/125/125 126/126/126 126/126/126 
f 131/131/131 126/126/126 125/125/125 
f 131/131/131 129/129/129 126/126/126 
f 125/125/125 121/121/121 124/124/124 
f 114/114/114 112/112/112 116/116/116 
f 116/116/116 118/118/118 116/116/116 
f 112/112/112 118/118/118 116/116/116 
f 112/112/112 120/120/120 118/118/118 
f 117/117/117 120/120/120 112/112/112 
f 117/117/117 127/127/127 120/120/120 
f 129/129/129 127/127/127 117/117/117 
f 129/129/129 127/127/127 127/127/127 
f 133/133/133 127/127/127 129/129/129 
f 133/133/133 127/127/127 127/127/127 
f 130/130/130 127/127/127 133/133/133 
f 130/130/130 120/120/120 127/127/127 
f 122/122/122 120/120/120 130/130/130 
f 122/122/122 118/118/118 120/120/120 
f 131/131/131 129/129/129 131/131/131 
f 134/134/134 129/129/129 131/131/131 
f 134/134/134 133/133/133 129/129/129 
f 135/135/135 133/133/133 134/134/134 
f 135/135/135 130/130/130 133/133/133 
f 132/132/132 130/130/130 135/135/135 
f 132/132/132 122/122/122 130/130/130 
f 128/128/128 122/122/122 132/132/132 
f 128/128/128 122/122/122 122/122/122 
f 123/123/123 122/122/122 128/128/128 
f 123/123/123 122/122/122 122/122/122 
f 116/116/116 122/122/122 123/123/123 
f 116/116/116 118/118/118 122/122/122 
f 109/109/109 110/110/110 108/108/108 
f 23/23/23 15/15/15 23/23/23 
f 25/25/25 15/15/15 23/23/23 
f 25/25/25 28/28/28 15/15/15 
f 29/29/29 28/28/28 25/25/25 
f 29/29/29 28/28/28 28/28/28 
f 31/31/31 28/28/28 29/29/29 
f 31/31/31 28/28/28 28/28/28 
f 34/34/34 28/28/28 31/31/31 
f 34/34/34 28/28/28 28/28/28 
f 33/33/33 28/28/28 34/34/34 
f 33/33/33 15/15/15 28/28/28 
f 33/33/33 15/15/15 33/33/33 
f 33/33/33 10/10/10 15/15/15 
f 48/48/48 10/10/10 33/33/33 
f 48/48/48 10/10/10 10/10/10 
f 59/59/59 10/10/10 48/48/48 
f 59/59/59 10/10/10 59/59/59 
f 58/58/58 10/10/10 59/59/59 
f 58/58/58 10/10/10 10/10/10 
f 57/57/57 10/10/10 58/58/58 
f 57/57/57 10/10/10 10/10/10 
f 56/56/56 10/10/10 57/57/57 
f 56/56/56 10/10/10 10/10/10 
f 52/52/52 10/10/10 56/56/56 
f 52/52/52 10/10/10 10/10/10 
f 47/47/47 10/10/10 52/52/52 
f 47/47/47 10/10/10 10/10/10 
f 42/42/42 10/10/10 47/47/47 
f 42/42/42 10/10/10 10/10/10 
f 41/41/41 10/10/10 42/42/42 
f 41/41/41 10/10/10 10/10/10 
f 32/32/32 10/10/10 41/41/41 
f 32/32/32 19/19/19 10/10/10 
f 30/30/30 19/19/19 32/32/32 
f 30/30/30 26/26/26 19/19/19 
f 19/19/19 11/11/11 10/10/10 
f 11/11/11 10/10/10 11/11/11 
f 12/12/12 10/10/10 11/11/11 
f 12/12/12 10/10/10 10/10/10 
f 16/16/16 10/10/10 12/12/12 
f 16/16/16 10/10/10 10/10/10 
f 17/17/17 10/10/10 16/16/16 
f 17/17/17 10/10/10 10/10/10 
f 13/13/13 10/10/10 17/17/17 
f 13/13/13 15/15/15 10/10/10 
f 14/14/14 15/15/15 13/13/13 
f 14/14/14 15/15/15 15/15/15 
f 18/18/18 15/15/15 14/14/14 
f 18/18/18 15/15/15 15/15/15 
f 20/20/20 15/15/15 18/18/18 
f 20/20/20 15/15/15 15/15/15 
f 21/21/21 15/15/15 20/20/20 
f 21/21/21 15/15/15 15/15/15 
f 23/23/23 15/15/15 21/21/21 
f 106/106/106 107/107/107 105/105/105 
f 36/36/36 37/37/37 35/35/35 
f 43/43/43 37/37/37 36/36/36 
f 4/4/4 22/22/22 3/3/3 
f 4/4/4 22/22/22 4/4/4 
f 4/4/4 27/27/27 22/22/22 
f 4/4/4 27/27/27 4/4/4 
f 4/4/4 26/26/26 27/27/27 
f 4/4/4 26/26/26 4/4/4 
f 4/4/4 2/2/2 26/26/26 
f 3/3/3 2/2/2 4/4/4 
f 3/3/3 2/2/2 2/2/2 
f 1/1/1 2/2/2 3/3/3 
f 1/1/1 8/8/8 2/2/2 
f 103/103/103 104/104/104 102/102/102 
f 45/45/45 46/46/46 44/44/44 
f 100/100/100 101/101/101 99/99/99 
f 50/50/50 51/51/51 49/49/49 
f 97/97/97 98/98/98 96/96/96 
f 54/54/54 55/55/55 53/53/53 
f 94/94/94 95/95/95 93/93/93 
f 61/61/61 62/62/62 60/60/60 
f 91/91/91 92/92/92 90/90/90 
f 64/64/64 65/65/65 63/63/63 
f 88/88/88 89/89/89 87/87/87 
f 67/67/67 68/68/68 66/66/66 
f 85/85/85 86/86/86 84/84/84 
f 70/70/70 71/71/71 69/69/69 
f 82/82/82 83/83/83 81/81/81 
f 73/73/73 74/74/74 72/72/72 
f 79/79/79 80/80/80 78/78/78 
f 76/76/76 77/77/77 75/75/75 
