v -0.560300 0.891800 0.141100
v -0.561800 0.007200 0.119900
v -0.552200 0.889100 0.198400
v -0.552700 0.007200 0.172600
v -0.534100 0.886500 -0.207600
v -0.512500 0.872900 -0.259900
v -0.555900 0.007200 -0.202200
v -0.528800 0.007200 -0.248200
v -0.552200 0.889100 0.198400
v -0.499400 0.893100 0.197900
v -0.560300 0.891800 0.141100
v -0.506900 0.894200 0.143400
v -0.534100 0.886500 -0.207600
v -0.560300 0.891800 0.141100
v -0.483900 0.904100 -0.191800
v -0.506900 0.894200 0.143400
v -0.483900 0.904100 -0.191800
v -0.462200 0.889300 -0.246200
v -0.534100 0.886500 -0.207600
v -0.512500 0.872900 -0.259900
v -0.236800 0.891900 0.101800
v -0.506900 0.894200 0.143400
v -0.237000 0.896600 0.157700
v -0.499400 0.893100 0.197900
v -0.250400 0.906100 -0.193500
v -0.254900 0.907900 -0.250400
v -0.483900 0.904100 -0.191800
v -0.462200 0.889300 -0.246200
v -0.303900 0.881000 -0.583700
v -0.304700 0.893800 -0.526700
v -0.246700 0.885000 -0.584300
v -0.247400 0.897600 -0.527700
v -0.246700 0.885000 -0.584300
v -0.226100 0.007200 -0.605500
v -0.303900 0.881000 -0.583700
v -0.277700 0.007200 -0.591800
v -0.196900 0.902000 -0.245300
v -0.247400 0.897600 -0.527700
v -0.254900 0.907900 -0.250400
v -0.304700 0.893800 -0.526700
v -0.262000 0.901000 0.506500
v -0.204600 0.903100 0.507800
v -0.270900 0.904100 0.448900
v -0.213600 0.905300 0.452600
v -0.180800 0.893000 0.158600
v -0.237000 0.896600 0.157700
v -0.213600 0.905300 0.452600
v -0.270900 0.904100 0.448900
v -0.191900 0.901700 -0.187900
v -0.196900 0.902000 -0.245300
v -0.250400 0.906100 -0.193500
v -0.254900 0.907900 -0.250400
v -0.241800 0.847500 0.573700
v -0.184500 0.850400 0.572100
v -0.262000 0.901000 0.506500
v -0.204600 0.903100 0.507800
v -0.250400 0.906100 -0.193500
v -0.236800 0.891900 0.101800
v -0.191900 0.901700 -0.187900
v -0.180300 0.889300 0.102300
v -0.180300 0.889300 0.102300
v -0.236800 0.891900 0.101800
v -0.180800 0.893000 0.158600
v -0.237000 0.896600 0.157700
v -0.137300 0.007200 0.557200
v -0.203600 0.007200 0.556600
v 0.151200 0.900700 -0.543200
v 0.143300 0.894300 -0.598100
v -0.247400 0.897600 -0.527700
v -0.246700 0.885000 -0.584300
v -0.196900 0.902000 -0.245300
v -0.191900 0.901700 -0.187900
v 0.137500 0.893800 -0.244300
v 0.138900 0.888800 -0.187300
v 0.194900 0.894400 0.164800
v 0.178900 0.888300 0.108500
v -0.180800 0.893000 0.158600
v -0.180300 0.889300 0.102300
v -0.213600 0.905300 0.452600
v -0.204600 0.903100 0.507800
v 0.261200 0.907300 0.478200
v 0.266400 0.903400 0.534000
v 0.143300 0.894300 -0.598100
v 0.199100 0.891600 -0.599800
v 0.120700 0.007200 -0.621400
v 0.174000 0.007200 -0.625400
v 0.194100 0.897200 -0.252200
v 0.137500 0.893800 -0.244300
v 0.194900 0.892100 -0.195000
v 0.138900 0.888800 -0.187300
v 0.137500 0.893800 -0.244300
v 0.194100 0.897200 -0.252200
v 0.151200 0.900700 -0.543200
v 0.208600 0.899600 -0.546200
v 0.151200 0.900700 -0.543200
v 0.208600 0.899600 -0.546200
v 0.143300 0.894300 -0.598100
v 0.199100 0.891600 -0.599800
v 0.240700 0.893300 0.113800
v 0.194900 0.892100 -0.195000
v 0.178900 0.888300 0.108500
v 0.138900 0.888800 -0.187300
v 0.178900 0.888300 0.108500
v 0.194900 0.894400 0.164800
v 0.240700 0.893300 0.113800
v 0.256300 0.898400 0.169100
v 0.194900 0.894400 0.164800
v 0.261200 0.907300 0.478200
v 0.256300 0.898400 0.169100
v 0.317700 0.906000 0.473600
v 0.227900 0.007200 0.632400
v 0.290400 0.007200 0.610100
v 0.270800 0.845700 0.610300
v 0.327900 0.843000 0.604400
v 0.323200 0.902100 0.531500
v 0.317700 0.906000 0.473600
v 0.266400 0.903400 0.534000
v 0.261200 0.907300 0.478200
v 0.266400 0.903400 0.534000
v 0.323200 0.902100 0.531500
v 0.194900 0.892100 -0.195000
v 0.470100 0.901500 -0.240200
v 0.194100 0.897200 -0.252200
v 0.460000 0.893000 -0.297000
v 0.541000 0.907900 0.132000
v 0.240700 0.893300 0.113800
v 0.529600 0.906700 0.188200
v 0.256300 0.898400 0.169100
v 0.509000 0.876600 -0.314900
v 0.460000 0.893000 -0.297000
v 0.519600 0.884200 -0.257200
v 0.470100 0.901500 -0.240200
v 0.519600 0.884200 -0.257200
v 0.536900 0.007200 -0.216800
v 0.509000 0.876600 -0.314900
v 0.520700 0.007200 -0.281200
v 0.519600 0.884200 -0.257200
v 0.470100 0.901500 -0.240200
v 0.595200 0.897000 0.147700
v 0.541000 0.907900 0.132000
v 0.584900 0.894900 0.204200
v 0.595200 0.897000 0.147700
v 0.529600 0.906700 0.188200
v 0.541000 0.907900 0.132000
v 0.595200 0.897000 0.147700
v 0.584900 0.894900 0.204200
v 0.619600 0.818000 0.157200
v 0.604900 0.815200 0.212700
v 0.653500 0.007200 0.122800
v 0.640600 0.007200 0.177900
v -0.383000 0.075600 0.527000
v -0.383000 0.809400 0.527000
v -0.632300 0.075600 -0.075000
v -0.632300 0.809400 -0.075000
v -0.383000 0.075600 0.527000
v -0.632300 0.075600 -0.075000
v -0.355100 0.000000 0.490600
v -0.586900 0.000000 -0.069100
v -0.632300 0.809400 -0.075000
v -0.383000 0.809400 0.527000
v -0.586900 0.885000 -0.069100
v -0.355100 0.885000 0.490600
v -0.235600 0.075600 -0.592100
v -0.235600 0.809400 -0.592100
v -0.235600 0.075600 -0.592100
v -0.218100 0.000000 -0.549700
v -0.235600 0.809400 -0.592100
v -0.218100 0.885000 -0.549700
v -0.586900 0.885000 -0.069100
v -0.355100 0.885000 0.490600
v -0.343100 0.885000 -0.037000
v -0.205400 0.885000 0.295500
v -0.218100 0.885000 -0.549700
v -0.124000 0.885000 -0.322500
v 0.263100 0.075600 0.612000
v 0.263100 0.809400 0.612000
v 0.263100 0.075600 0.612000
v 0.245500 0.000000 0.569700
v 0.263100 0.809400 0.612000
v 0.245500 0.885000 0.569700
v 0.245500 0.885000 0.569700
v 0.151400 0.885000 0.342500
v 0.382500 0.885000 -0.470700
v 0.232800 0.885000 -0.275600
v 0.410400 0.075600 -0.507000
v 0.382500 0.000000 -0.470700
v 0.410400 0.809400 -0.507000
v 0.382500 0.885000 -0.470700
v -0.235600 0.075600 -0.592100
v -0.235600 0.809400 -0.592100
v 0.410400 0.075600 -0.507000
v 0.410400 0.809400 -0.507000
v 0.614400 0.885000 0.089000
v 0.370600 0.885000 0.056900
v 0.659800 0.809400 0.095000
v 0.614400 0.885000 0.089000
v 0.659800 0.075600 0.095000
v 0.614400 0.000000 0.089000
v 0.659800 0.075600 0.095000
v 0.659800 0.809400 0.095000
vt 0.101500 0.335900
vt 0.101500 0.335900
vt 0.101500 0.335900
vt 0.101500 0.335900
vt 0.101500 0.335900
vt 0.101500 0.335900
vt 0.101500 0.335900
vt 0.101500 0.335900
vt 0.101500 0.335900
vt 0.101500 0.335900
vt 0.101500 0.335900
vt 0.101500 0.335900
vt 0.101500 0.335900
vt 0.101500 0.335900
vt 0.101500 0.335900
vt 0.101500 0.335900
vt 0.101500 0.335900
vt 0.101500 0.335900
vt 0.101500 0.335900
vt 0.101500 0.335900
vt 0.101500 0.335900
vt 0.101500 0.335900
vt 0.101500 0.335900
vt 0.101500 0.335900
vt 0.101500 0.335900
vt 0.101500 0.335900
vt 0.101500 0.335900
vt 0.101500 0.335900
vt 0.101500 0.335900
vt 0.101500 0.335900
vt 0.101500 0.335900
vt 0.101500 0.335900
vt 0.101500 0.335900
vt 0.101500 0.335900
vt 0.101500 0.335900
vt 0.101500 0.335900
vt 0.101500 0.335900
vt 0.101500 0.335900
vt 0.101500 0.335900
vt 0.101500 0.335900
vt 0.101500 0.335900
vt 0.101500 0.335900
vt 0.101500 0.335900
vt 0.101500 0.335900
vt 0.101500 0.335900
vt 0.101500 0.335900
vt 0.101500 0.335900
vt 0.101500 0.335900
vt 0.101500 0.335900
vt 0.101500 0.335900
vt 0.101500 0.335900
vt 0.101500 0.335900
vt 0.101500 0.335900
vt 0.101500 0.335900
vt 0.101500 0.335900
vt 0.101500 0.335900
vt 0.101500 0.335900
vt 0.101500 0.335900
vt 0.101500 0.335900
vt 0.101500 0.335900
vt 0.101500 0.335900
vt 0.101500 0.335900
vt 0.101500 0.335900
vt 0.101500 0.335900
vt 0.101500 0.335900
vt 0.101500 0.335900
vt 0.101500 0.335900
vt 0.101500 0.335900
vt 0.101500 0.335900
vt 0.101500 0.335900
vt 0.101500 0.335900
vt 0.101500 0.335900
vt 0.101500 0.335900
vt 0.101500 0.335900
vt 0.101500 0.335900
vt 0.101500 0.335900
vt 0.101500 0.335900
vt 0.101500 0.335900
vt 0.101500 0.335900
vt 0.101500 0.335900
vt 0.101500 0.335900
vt 0.101500 0.335900
vt 0.101500 0.335900
vt 0.101500 0.335900
vt 0.101500 0.335900
vt 0.101500 0.335900
vt 0.101500 0.335900
vt 0.101500 0.335900
vt 0.101500 0.335900
vt 0.101500 0.335900
vt 0.101500 0.335900
vt 0.101500 0.335900
vt 0.101500 0.335900
vt 0.101500 0.335900
vt 0.101500 0.335900
vt 0.101500 0.335900
vt 0.101500 0.335900
vt 0.101500 0.335900
vt 0.101500 0.335900
vt 0.101500 0.335900
vt 0.101500 0.335900
vt 0.101500 0.335900
vt 0.101500 0.335900
vt 0.101500 0.335900
vt 0.101500 0.335900
vt 0.101500 0.335900
vt 0.101500 0.335900
vt 0.101500 0.335900
vt 0.101500 0.335900
vt 0.101500 0.335900
vt 0.101500 0.335900
vt 0.101500 0.335900
vt 0.101500 0.335900
vt 0.101500 0.335900
vt 0.101500 0.335900
vt 0.101500 0.335900
vt 0.101500 0.335900
vt 0.101500 0.335900
vt 0.101500 0.335900
vt 0.101500 0.335900
vt 0.101500 0.335900
vt 0.101500 0.335900
vt 0.101500 0.335900
vt 0.101500 0.335900
vt 0.101500 0.335900
vt 0.101500 0.335900
vt 0.101500 0.335900
vt 0.101500 0.335900
vt 0.101500 0.335900
vt 0.101500 0.335900
vt 0.101500 0.335900
vt 0.101500 0.335900
vt 0.101500 0.335900
vt 0.101500 0.335900
vt 0.101500 0.335900
vt 0.101500 0.335900
vt 0.101500 0.335900
vt 0.101500 0.335900
vt 0.101500 0.335900
vt 0.101500 0.335900
vt 0.101500 0.335900
vt 0.101500 0.335900
vt 0.101500 0.335900
vt 0.101500 0.335900
vt 0.101500 0.335900
vt 0.101500 0.335900
vt 0.101500 0.335900
vt 0.101500 0.335900
vt 0.101500 0.335900
vt 0.101500 0.335900
vt 0.164000 0.179600
vt 0.164000 0.179600
vt 0.164000 0.179600
vt 0.164000 0.179600
vt 0.164000 0.179600
vt 0.164000 0.179600
vt 0.164000 0.179600
vt 0.164000 0.179600
vt 0.164000 0.179600
vt 0.164000 0.179600
vt 0.164000 0.179600
vt 0.164000 0.179600
vt 0.164000 0.179600
vt 0.164000 0.179600
vt 0.164000 0.179600
vt 0.164000 0.179600
vt 0.164000 0.179600
vt 0.164000 0.179600
vt 0.039000 0.117100
vt 0.039000 0.117100
vt 0.039000 0.117100
vt 0.039000 0.117100
vt 0.039000 0.117100
vt 0.039000 0.117100
vt 0.164000 0.179600
vt 0.164000 0.179600
vt 0.164000 0.179600
vt 0.164000 0.179600
vt 0.164000 0.179600
vt 0.164000 0.179600
vt 0.039000 0.117100
vt 0.039000 0.117100
vt 0.039000 0.117100
vt 0.039000 0.117100
vt 0.164000 0.179600
vt 0.164000 0.179600
vt 0.164000 0.179600
vt 0.164000 0.179600
vt 0.164000 0.179600
vt 0.164000 0.179600
vt 0.164000 0.179600
vt 0.164000 0.179600
vt 0.039000 0.117100
vt 0.039000 0.117100
vt 0.164000 0.179600
vt 0.164000 0.179600
vt 0.164000 0.179600
vt 0.164000 0.179600
vt 0.164000 0.179600
vt 0.164000 0.179600
vn -0.990165 -0.001674 0.139892
vn -0.988002 -0.002990 0.154414
vn -0.988002 -0.002990 0.154414
vn -0.985407 -0.004419 0.170156
vn -0.922190 0.020492 -0.386195
vn -0.895122 0.015178 -0.445563
vn -0.895122 0.015178 -0.445563
vn -0.861560 0.009362 -0.507570
vn -0.074875 0.995534 0.057494
vn -0.060817 0.997249 0.042382
vn -0.060817 0.997249 0.042382
vn -0.046022 0.998589 0.026488
vn -0.319819 0.946700 -0.038419
vn -0.188376 0.982072 -0.006946
vn -0.188376 0.982072 -0.006946
vn -0.046016 0.998594 0.026336
vn -0.215862 0.916949 -0.335571
vn -0.213657 0.919011 -0.331315
vn -0.213657 0.919011 -0.331315
vn -0.211325 0.921159 -0.326814
vn -0.004421 0.996473 -0.083798
vn -0.007186 0.999458 -0.032116
vn -0.007186 0.999458 -0.032116
vn -0.010032 0.999717 0.021558
vn -0.008325 0.999444 0.032275
vn -0.047972 0.991223 -0.123190
vn -0.047972 0.991223 -0.123190
vn -0.091315 0.951070 -0.295173
vn -0.070350 0.973072 -0.219503
vn -0.069361 0.973357 -0.218551
vn -0.069361 0.973357 -0.218551
vn -0.068367 0.973642 -0.217593
vn -0.012154 0.023857 -0.999642
vn -0.130775 0.013088 -0.991326
vn -0.130775 0.013088 -0.991326
vn -0.256613 0.001265 -0.966513
vn 0.104110 0.993981 -0.034104
vn 0.019499 0.999140 -0.036585
vn 0.019499 0.999140 -0.036585
vn -0.066797 0.997010 -0.038839
vn -0.037842 0.997509 0.059532
vn -0.030977 0.998176 0.051816
vn -0.030977 0.998176 0.051816
vn -0.023737 0.998764 0.043676
vn 0.064439 0.997324 -0.034536
vn 0.022396 0.999260 -0.031257
vn 0.022396 0.999260 -0.031257
vn -0.019125 0.999426 -0.027967
vn 0.075128 0.997173 -0.001333
vn 0.087054 0.996142 0.011066
vn 0.087054 0.996142 0.011066
vn 0.099116 0.994795 0.023631
vn 0.024955 0.057573 0.998029
vn 0.005207 0.050794 0.998696
vn -0.032027 0.772755 0.633896
vn -0.042553 0.766158 0.641242
vn 0.070674 0.996499 0.044663
vn 0.058439 0.997373 0.042797
vn 0.058439 0.997373 0.042797
vn 0.045570 0.998127 0.040828
vn 0.046447 0.996798 -0.065097
vn 0.055698 0.995687 -0.074196
vn 0.055698 0.995687 -0.074196
vn 0.065033 0.994394 -0.083375
vn -0.009049 -0.018174 0.999794
vn 0.008525 -0.018572 0.999791
vn -0.012161 0.993400 -0.114056
vn -0.021690 0.985789 -0.166581
vn -0.021690 0.985789 -0.166581
vn -0.030961 0.975556 -0.217556
vn 0.024505 0.999695 0.003090
vn 0.031566 0.998511 0.044494
vn 0.031566 0.998511 0.044494
vn 0.038665 0.995512 0.086376
vn -0.001936 0.994238 -0.107174
vn 0.000923 0.996222 -0.086832
vn 0.000923 0.996222 -0.086832
vn 0.003909 0.997842 -0.065543
vn -0.006412 0.999144 0.040867
vn -0.005471 0.998440 0.055569
vn -0.005471 0.998440 0.055569
vn -0.004537 0.997527 0.070142
vn -0.029136 0.026987 -0.999211
vn -0.051438 0.028941 -0.998257
vn -0.051438 0.028941 -0.998257
vn -0.074801 0.030974 -0.996717
vn -0.047289 0.994876 0.089366
vn -0.046885 0.994937 0.088897
vn -0.046885 0.994937 0.088897
vn -0.046475 0.994998 0.088422
vn -0.057109 0.998159 0.020424
vn -0.018756 0.999715 0.014789
vn -0.018756 0.999715 0.014789
vn 0.019635 0.999766 0.009130
vn 0.012881 0.992976 -0.117610
vn 0.027603 0.990343 -0.135864
vn 0.027603 0.990343 -0.135864
vn 0.043037 0.986986 -0.154939
vn -0.081338 0.996653 0.008191
vn -0.070103 0.997501 0.008794
vn -0.070103 0.997501 0.008794
vn -0.057526 0.998299 0.009467
vn -0.072929 0.993542 -0.086923
vn -0.066337 0.994502 -0.081023
vn -0.066337 0.994502 -0.081023
vn -0.059596 0.995402 -0.074989
vn -0.063050 0.997625 -0.027725
vn -0.022958 0.999333 -0.028410
vn -0.022958 0.999333 -0.028410
vn 0.020624 0.999364 -0.029102
vn 0.336040 0.007630 0.941817
vn 0.229600 0.005135 0.973272
vn 0.222134 0.082402 0.971528
vn 0.106314 0.083131 0.990851
vn 0.025681 0.997571 0.064754
vn 0.027018 0.997461 0.065885
vn 0.027018 0.997461 0.065885
vn 0.028407 0.997345 0.067059
vn 0.044714 0.798052 0.600928
vn 0.072792 0.787477 0.612030
vn -0.019387 0.995838 0.089061
vn -0.014335 0.999493 -0.028438
vn -0.014335 0.999493 -0.028438
vn -0.009045 0.989181 -0.146420
vn -0.049243 0.998722 0.011336
vn -0.037693 0.998727 -0.033514
vn -0.037693 0.998727 -0.033514
vn -0.024310 0.996084 -0.085006
vn 0.255488 0.951346 -0.172242
vn 0.260551 0.948444 -0.180465
vn 0.260551 0.948444 -0.180465
vn 0.265613 0.945430 -0.188712
vn 0.983223 0.011008 -0.182076
vn 0.976631 0.007103 -0.214805
vn 0.976631 0.007103 -0.214805
vn 0.969781 0.003595 -0.243951
vn 0.302113 0.949347 -0.086420
vn 0.260857 0.962616 -0.072961
vn 0.260857 0.962616 -0.072961
vn 0.212762 0.975422 -0.057301
vn 0.188532 0.979513 0.070776
vn 0.184695 0.980692 0.064278
vn 0.184695 0.980692 0.064278
vn 0.180760 0.981837 0.057630
vn 0.933199 0.310072 0.181647
vn 0.932503 0.285916 0.220657
vn 0.968863 0.055158 0.241374
vn 0.964651 0.052880 0.258170
vn 0.973203 0.031023 0.227846
vn 0.969583 0.031310 0.242750
vn -0.447794 0.000000 0.894137
vn -0.747720 0.000000 0.664015
vn -0.998252 0.000000 0.059103
vn -0.948909 0.000000 -0.315549
vn -0.391484 -0.512179 0.764469
vn -0.857946 -0.511926 0.043132
vn -0.647930 -0.511010 0.564850
vn -0.813394 -0.510583 -0.278739
vn -0.817537 0.511898 -0.263807
vn -0.637016 0.512332 0.575957
vn -0.857799 0.510628 0.058656
vn -0.377984 0.510865 0.772104
vn -0.793416 0.000000 -0.608680
vn -0.793416 0.000000 -0.608680
vn -0.466344 -0.512125 -0.721285
vn -0.165287 -0.510869 -0.843619
vn -0.180381 0.512187 -0.839718
vn -0.479754 0.510794 -0.713390
vn 0.000000 1.000000 0.000000
vn 0.000000 1.000000 0.000000
vn 0.000000 1.000000 0.000000
vn 0.000000 1.000000 0.000000
vn 0.000000 1.000000 0.000000
vn 0.000000 1.000000 0.000000
vn 0.550410 0.000000 0.834895
vn 0.201255 0.000000 0.979539
vn 0.466373 -0.512001 0.721353
vn 0.165316 -0.510886 0.843603
vn 0.180320 0.512200 0.839724
vn 0.479725 0.510699 0.713478
vn 0.000000 1.000000 0.000000
vn 0.000000 1.000000 0.000000
vn 0.000000 1.000000 0.000000
vn 0.000000 1.000000 0.000000
vn 0.391507 -0.512094 -0.764514
vn 0.648108 -0.510446 -0.565155
vn 0.637272 0.511749 -0.576192
vn 0.378004 0.510787 -0.772146
vn 0.130605 0.000000 -0.991434
vn 0.130605 0.000000 -0.991434
vn 0.447910 0.000000 -0.894079
vn 0.747716 0.000000 -0.664018
vn 0.000000 1.000000 0.000000
vn 0.000000 1.000000 0.000000
vn 0.817461 0.512031 0.263783
vn 0.857819 0.510587 -0.058706
vn 0.857959 -0.511896 -0.043238
vn 0.813312 -0.510728 0.278711
vn 0.998245 0.000000 -0.059222
vn 0.948915 0.000000 0.315532
f 8/8/8 6/6/6 8/8/8 
f 7/7/7 6/6/6 8/8/8 
f 7/7/7 5/5/5 6/6/6 
f 2/2/2 3/3/3 1/1/1 
f 4/4/4 3/3/3 2/2/2 
f 146/146/146 147/147/147 145/145/145 
f 148/148/148 147/147/147 146/146/146 
f 148/148/148 147/147/147 147/147/147 
f 150/150/150 147/147/147 148/148/148 
f 150/150/150 149/149/149 147/147/147 
f 65/65/65 66/66/66 65/65/65 
f 54/54/54 66/66/66 65/65/65 
f 54/54/54 53/53/53 66/66/66 
f 54/54/54 53/53/53 54/54/54 
f 54/54/54 55/55/55 53/53/53 
f 56/56/56 55/55/55 54/54/54 
f 142/142/142 143/143/143 141/141/141 
f 144/144/144 143/143/143 142/142/142 
f 138/138/138 139/139/139 137/137/137 
f 140/140/140 139/139/139 138/138/138 
f 134/134/134 135/135/135 133/133/133 
f 136/136/136 135/135/135 134/134/134 
f 130/130/130 131/131/131 129/129/129 
f 132/132/132 131/131/131 130/130/130 
f 126/126/126 127/127/127 125/125/125 
f 128/128/128 127/127/127 126/126/126 
f 122/122/122 123/123/123 121/121/121 
f 124/124/124 123/123/123 122/122/122 
f 116/116/116 117/117/117 115/115/115 
f 118/118/118 117/117/117 116/116/116 
f 108/108/108 109/109/109 107/107/107 
f 110/110/110 109/109/109 108/108/108 
f 104/104/104 105/105/105 103/103/103 
f 106/106/106 105/105/105 104/104/104 
f 100/100/100 101/101/101 99/99/99 
f 102/102/102 101/101/101 100/100/100 
f 96/96/96 97/97/97 95/95/95 
f 98/98/98 97/97/97 96/96/96 
f 92/92/92 93/93/93 91/91/91 
f 94/94/94 93/93/93 92/92/92 
f 88/88/88 89/89/89 87/87/87 
f 90/90/90 89/89/89 88/88/88 
f 84/84/84 85/85/85 83/83/83 
f 86/86/86 85/85/85 84/84/84 
f 80/80/80 81/81/81 79/79/79 
f 82/82/82 81/81/81 80/80/80 
f 76/76/76 77/77/77 75/75/75 
f 78/78/78 77/77/77 76/76/76 
f 72/72/72 73/73/73 71/71/71 
f 74/74/74 73/73/73 72/72/72 
f 68/68/68 69/69/69 67/67/67 
f 70/70/70 69/69/69 68/68/68 
f 62/62/62 63/63/63 61/61/61 
f 64/64/64 63/63/63 62/62/62 
f 58/58/58 59/59/59 57/57/57 
f 60/60/60 59/59/59 58/58/58 
f 50/50/50 51/51/51 49/49/49 
f 52/52/52 51/51/51 50/50/50 
f 46/46/46 47/47/47 45/45/45 
f 48/48/48 47/47/47 46/46/46 
f 42/42/42 43/43/43 41/41/41 
f 44/44/44 43/43/43 42/42/42 
f 38/38/38 39/39/39 37/37/37 
f 40/40/40 39/39/39 38/38/38 
f 34/34/34 35/35/35 33/33/33 
f 36/36/36 35/35/35 34/34/34 
f 30/30/30 31/31/31 29/29/29 
f 32/32/32 31/31/31 30/30/30 
f 26/26/26 27/27/27 25/25/25 
f 28/28/28 27/27/27 26/26/26 
f 22/22/22 23/23/23 21/21/21 
f 24/24/24 23/23/23 22/22/22 
f 18/18/18 19/19/19 17/17/17 
f 20/20/20 19/19/19 18/18/18 
f 14/14/14 15/15/15 13/13/13 
f 16/16/16 15/15/15 14/14/14 
f 10/10/10 11/11/11 9/9/9 
f 12/12/12 11/11/11 10/10/10 
f 112/112/112 113/113/113 111/111/111 
f 114/114/114 113/113/113 112/112/112 
f 114/114/114 113/113/113 113/113/113 
f 120/120/120 113/113/113 114/114/114 
f 120/120/120 119/119/119 113/113/113 
f 164/164/164 154/154/154 164/164/164 
f 163/163/163 154/154/154 164/164/164 
f 163/163/163 154/154/154 154/154/154 
f 153/153/153 154/154/154 163/163/163 
f 153/153/153 152/152/152 154/154/154 
f 151/151/151 152/152/152 153/153/153 
f 151/151/151 176/176/176 152/152/152 
f 175/175/175 176/176/176 151/151/151 
f 175/175/175 200/200/200 176/176/176 
f 199/199/199 200/200/200 175/175/175 
f 199/199/199 192/192/192 200/200/200 
f 191/191/191 192/192/192 199/199/199 
f 191/191/191 190/190/190 192/192/192 
f 189/189/189 190/190/190 191/191/191 
f 156/156/156 157/157/157 155/155/155 
f 156/156/156 157/157/157 156/156/156 
f 156/156/156 158/158/158 157/157/157 
f 165/165/165 158/158/158 156/156/156 
f 165/165/165 166/166/166 158/158/158 
f 185/185/185 166/166/166 165/165/165 
f 185/185/185 186/186/186 166/166/166 
f 197/197/197 186/186/186 185/185/185 
f 197/197/197 198/198/198 186/186/186 
f 177/177/177 198/198/198 197/197/197 
f 177/177/177 178/178/178 198/198/198 
f 155/155/155 178/178/178 177/177/177 
f 155/155/155 157/157/157 178/178/178 
f 170/170/170 171/171/171 169/169/169 
f 170/170/170 171/171/171 170/170/170 
f 170/170/170 172/172/172 171/171/171 
f 181/181/181 172/172/172 170/170/170 
f 181/181/181 182/182/182 172/172/172 
f 193/193/193 182/182/182 181/181/181 
f 193/193/193 194/194/194 182/182/182 
f 183/183/183 194/194/194 193/193/193 
f 183/183/183 184/184/184 194/194/194 
f 173/173/173 184/184/184 183/183/183 
f 173/173/173 174/174/174 184/184/184 
f 169/169/169 174/174/174 173/173/173 
f 169/169/169 171/171/171 174/174/174 
f 160/160/160 161/161/161 159/159/159 
f 160/160/160 161/161/161 160/160/160 
f 160/160/160 162/162/162 161/161/161 
f 179/179/179 162/162/162 160/160/160 
f 179/179/179 180/180/180 162/162/162 
f 195/195/195 180/180/180 179/179/179 
f 195/195/195 196/196/196 180/180/180 
f 187/187/187 196/196/196 195/195/195 
f 187/187/187 188/188/188 196/196/196 
f 167/167/167 188/188/188 187/187/187 
f 167/167/167 168/168/168 188/188/188 
f 159/159/159 168/168/168 167/167/167 
f 159/159/159 161/161/161 168/168/168 
