v -0.100000 0.000000 0.000000
v -0.050000 0.000000 0.086600
v -0.100000 5.819300 0.000000
v -0.050000 5.819300 0.086600
v -0.049900 0.000000 -0.086600
v -0.100000 0.000000 0.000000
v -0.049900 5.819300 -0.086600
v -0.100000 5.819300 0.000000
v -0.050000 0.000000 0.086600
v -0.100000 0.000000 0.000000
v 0.000000 0.000000 0.000000
v -0.100000 5.819300 0.000000
v -0.050000 5.819300 0.086600
v 0.000000 5.819300 0.000000
v -0.049900 0.000000 -0.086600
v -0.049900 5.819300 -0.086600
v -0.050000 0.000000 0.086600
v 0.049900 0.000000 0.086600
v -0.050000 5.819300 0.086600
v 0.049900 5.819300 0.086600
v 0.049900 0.000000 0.086600
v 0.049900 5.819300 0.086600
v 0.050000 0.000000 -0.086600
v 0.050000 5.819300 -0.086600
v 0.050000 0.000000 -0.086600
v -0.049900 0.000000 -0.086600
v 0.050000 5.819300 -0.086600
v -0.049900 5.819300 -0.086600
v 0.100000 0.000000 0.000000
v 0.100000 5.819300 0.000000
v 0.049900 0.000000 0.086600
v 0.100000 0.000000 0.000000
v 0.049900 5.819300 0.086600
v 0.100000 5.819300 0.000000
v 0.100000 0.000000 0.000000
v 0.050000 0.000000 -0.086600
v 0.100000 5.819300 0.000000
v 0.050000 5.819300 -0.086600
vt 0.007800 0.148400
vt 0.007800 0.148400
vt 0.007800 0.148400
vt 0.007800 0.148400
vt 0.007800 0.148400
vt 0.007800 0.148400
vt 0.007800 0.148400
vt 0.007800 0.148400
vt 0.007800 0.148400
vt 0.007800 0.148400
vt 0.007800 0.148400
vt 0.007800 0.148400
vt 0.007800 0.148400
vt 0.007800 0.148400
vt 0.007800 0.148400
vt 0.007800 0.148400
vt 0.007800 0.148400
vt 0.007800 0.148400
vt 0.007800 0.148400
vt 0.007800 0.148400
vt 0.007800 0.148400
vt 0.007800 0.148400
vt 0.007800 0.148400
vt 0.007800 0.148400
vt 0.007800 0.148400
vt 0.007800 0.148400
vt 0.007800 0.148400
vt 0.007800 0.148400
vt 0.007800 0.148400
vt 0.007800 0.148400
vt 0.007800 0.148400
vt 0.007800 0.148400
vt 0.007800 0.148400
vt 0.007800 0.148400
vt 0.007800 0.148400
vt 0.007800 0.148400
vt 0.007800 0.148400
vt 0.007800 0.148400
vn -0.866019 0.000000 0.500011
vn -0.866019 0.000000 0.500011
vn -0.866019 0.000000 0.500011
vn -0.866019 0.000000 0.500011
vn -0.865586 0.000000 -0.500760
vn -0.865586 0.000000 -0.500760
vn -0.865586 0.000000 -0.500760
vn -0.865586 0.000000 -0.500760
vn 0.000000 -1.000000 0.000000
vn 0.000000 -1.000000 0.000000
vn 0.000000 -1.000000 0.000000
vn 0.000000 1.000000 0.000000
vn 0.000000 1.000000 0.000000
vn 0.000000 1.000000 0.000000
vn 0.000000 -1.000000 0.000000
vn 0.000000 1.000000 0.000000
vn 0.000000 0.000000 1.000000
vn 0.000000 0.000000 1.000000
vn 0.000000 0.000000 1.000000
vn 0.000000 0.000000 1.000000
vn 0.000000 -1.000000 0.000000
vn 0.000000 1.000000 0.000000
vn 0.000000 -1.000000 0.000000
vn 0.000000 1.000000 0.000000
vn 0.000000 0.000000 -1.000000
vn 0.000000 0.000000 -1.000000
vn 0.000000 0.000000 -1.000000
vn 0.000000 0.000000 -1.000000
vn 0.000000 -1.000000 0.000000
vn 0.000000 1.000000 0.000000
vn 0.865586 0.000000 0.500760
vn 0.865586 0.000000 0.500760
vn 0.865586 0.000000 0.500760
vn 0.865586 0.000000 0.500760
vn 0.866019 0.000000 -0.500011
vn 0.866019 0.000000 -0.500011
vn 0.866019 0.000000 -0.500011
vn 0.866019 0.000000 -0.500011
f 4/4/4 2/2/2 4/4/4 
f 3/3/3 2/2/2 4/4/4 
f 3/3/3 1/1/1 2/2/2 
f 36/36/36 37/37/37 35/35/35 
f 38/38/38 37/37/37 36/36/36 
f 32/32/32 33/33/33 31/31/31 
f 34/34/34 33/33/33 32/32/32 
f 26/26/26 27/27/27 25/25/25 
f 28/28/28 27/27/27 26/26/26 
f 18/18/18 19/19/19 17/17/17 
f 20/20/20 19/19/19 18/18/18 
f 6/6/6 7/7/7 5/5/5 
f 8/8/8 7/7/7 6/6/6 
f 13/13/13 14/14/14 12/12/12 
f 22/22/22 14/14/14 13/13/13 
f 22/22/22 14/14/14 14/14/14 
f 30/30/30 14/14/14 22/22/22 
f 30/30/30 14/14/14 14/14/14 
f 24/24/24 14/14/14 30/30/30 
f 24/24/24 14/14/14 14/14/14 
f 16/16/16 14/14/14 24/24/24 
f 16/16/16 12/12/12 14/14/14 
f 10/10/10 11/11/11 9/9/9 
f 15/15/15 11/11/11 10/10/10 
f 15/15/15 11/11/11 11/11/11 
f 23/23/23 11/11/11 15/15/15 
f 23/23/23 11/11/11 11/11/11 
f 29/29/29 11/11/11 23/23/23 
f 29/29/29 11/11/11 11/11/11 
f 21/21/21 11/11/11 29/29/29 
f 21/21/21 9/9/9 11/11/11 
