v -206.665298 -1.786600 181.130005
v -204.463898 -1.786600 180.283798
v -206.916901 -1.786600 180.475403
v -205.299103 -1.786600 178.110901
v -206.556702 -1.786600 178.594299
v -196.188995 -1.786600 182.091003
v -195.390900 -1.786600 181.784302
v -197.024200 -1.786600 179.918198
v -195.697693 -1.786600 180.298706
v -196.324493 -1.786600 179.649200
v -207.871994 -1.786600 182.565704
v -205.830200 -1.786600 183.302902
v -207.223694 -1.786600 181.344604
v -207.380493 -1.786600 186.392700
v -204.994995 -1.786600 185.475800
v -207.762894 -1.786600 184.045807
v -207.124100 -1.786600 188.788101
v -205.872406 -1.786600 190.800903
v -206.361206 -1.786600 188.494797
v -205.526093 -1.786600 190.667694
v -204.159805 -1.786600 187.648697
v -203.628693 -1.786600 182.456696
v -203.324600 -1.786600 189.821503
v -203.967300 -1.786600 174.781906
v -206.134201 -1.786600 175.938004
v -203.097595 -1.786600 177.264801
v -202.793503 -1.786600 184.629593
v -204.690903 -1.786600 192.840607
v -202.489395 -1.786600 191.994400
v -202.262405 -1.786600 179.437607
v -201.958298 -1.786600 186.802505
v -203.240707 -1.786600 194.777206
v -201.654205 -1.786600 194.167297
v -201.427200 -1.786600 181.610504
v -201.123093 -1.786600 188.975403
v -200.591995 -1.786600 183.783401
v -201.919693 -1.786600 196.763306
v -200.819000 -1.786600 196.340195
v -200.287903 -1.786600 191.148300
v -200.060898 -1.786600 178.591507
v -200.896103 -1.786600 176.418594
v -199.756805 -1.786600 185.956299
v -200.619904 -1.786600 198.757599
v -199.983795 -1.786600 198.513107
v -199.225693 -1.786600 180.764297
v -199.452698 -1.786600 193.321106
v -200.172806 -1.786600 193.597900
v -198.921600 -1.786600 188.129196
v -198.390503 -1.786600 182.937195
v -197.859406 -1.786600 177.745300
v -200.124405 -1.786600 176.121994
v -198.086395 -1.786600 190.302094
v -197.555298 -1.786600 185.110107
v -197.251205 -1.786600 192.475006
v -196.720093 -1.786600 187.283005
v -198.732101 -1.790300 195.755798
v -197.970093 -1.369200 196.427994
v -198.169403 -1.790300 195.501602
v -197.608002 -1.384000 196.202606
v -197.131607 -1.790300 195.134506
v -197.712006 -1.790300 195.301193
v -197.712006 -1.790300 195.301193
v -197.293106 -1.411400 196.085907
v -196.964203 -1.088400 197.186295
v -197.208099 -1.125700 197.292496
v -195.884903 -1.786600 189.455902
v -197.712006 -1.790300 195.301193
v -197.293106 -1.411400 196.085907
v -197.131607 -1.790300 195.134506
v -196.875702 -1.403400 195.937103
v -196.751801 -1.048200 197.093903
v -196.964203 -1.088400 197.186295
v -196.326904 -1.786600 192.119705
v -196.581604 -1.060500 197.172394
v -195.050903 -1.786600 184.147507
v -196.640305 -1.790300 195.047302
v -196.492599 -1.461500 195.818695
v -196.380402 -1.075000 197.265198
v -196.581604 -1.060500 197.172394
v -196.350800 -0.935600 198.134293
v -196.222794 -0.958700 198.189301
v -196.640305 -1.790300 195.047302
v -196.492599 -1.461500 195.818695
v -196.118301 -1.790300 195.245300
v -196.137604 -1.541600 195.714493
v -196.222794 -0.958700 198.189301
v -196.121399 -0.936500 198.078705
v -196.095001 -1.167200 197.259903
v -195.003601 -1.786600 186.623199
v -194.784195 -1.786600 189.032806
v -195.049805 -1.786600 191.628799
v -194.776093 -1.786600 191.523605
v -203.044800 -1.786600 174.270203
v -201.432999 -1.786600 175.021805
v -198.732101 -1.790300 195.755798
v -198.732101 -1.790300 195.755798
v -197.782303 -1.786600 197.666901
v -197.782303 -1.786600 197.666901
v -198.169403 -1.790300 195.501602
v -198.169403 -1.790300 195.501602
v -197.712006 -1.790300 195.301193
v -199.452698 -1.786600 193.321106
v -197.131607 -1.790300 195.134506
v -196.640305 -1.790300 195.047302
v -197.251205 -1.786600 192.475006
v -196.350800 -0.935600 198.134293
v -196.640305 -1.790300 195.047302
v -196.118301 -1.790300 195.245300
v -196.118301 -1.790300 195.245300
v -195.580902 -1.786600 196.820694
v -194.640198 -1.787400 194.080505
v -196.118301 -1.790300 195.245300
v -196.118301 -1.790300 195.245300
v -194.726593 -1.786600 192.469406
v -194.726593 -1.786600 192.469406
v -195.580902 -1.786600 196.820694
v -194.559402 -1.786600 196.573593
v -194.640198 -1.787400 194.080505
vt 0.382800 0.367100
vt 0.382800 0.367100
vt 0.382800 0.367100
vt 0.382800 0.367100
vt 0.382800 0.367100
vt 0.382800 0.367100
vt 0.382800 0.367100
vt 0.382800 0.367100
vt 0.382800 0.367100
vt 0.382800 0.367100
vt 0.382800 0.367100
vt 0.382800 0.367100
vt 0.382800 0.367100
vt 0.382800 0.367100
vt 0.382800 0.367100
vt 0.382800 0.367100
vt 0.382800 0.367100
vt 0.382800 0.367100
vt 0.382800 0.367100
vt 0.382800 0.367100
vt 0.382800 0.367100
vt 0.382800 0.367100
vt 0.382800 0.367100
vt 0.382800 0.367100
vt 0.382800 0.367100
vt 0.382800 0.367100
vt 0.382800 0.367100
vt 0.382800 0.367100
vt 0.382800 0.367100
vt 0.382800 0.367100
vt 0.382800 0.367100
vt 0.382800 0.367100
vt 0.382800 0.367100
vt 0.382800 0.367100
vt 0.382800 0.367100
vt 0.382800 0.367100
vt 0.382800 0.367100
vt 0.382800 0.367100
vt 0.382800 0.367100
vt 0.382800 0.367100
vt 0.382800 0.367100
vt 0.382800 0.367100
vt 0.382800 0.367100
vt 0.382800 0.367100
vt 0.382800 0.367100
vt 0.382800 0.367100
vt 0.382800 0.367100
vt 0.382800 0.367100
vt 0.382800 0.367100
vt 0.382800 0.367100
vt 0.382800 0.367100
vt 0.382800 0.367100
vt 0.382800 0.367100
vt 0.382800 0.367100
vt 0.382800 0.367100
vt 0.382800 0.367100
vt 0.382800 0.367100
vt 0.382800 0.367100
vt 0.382800 0.367100
vt 0.382800 0.367100
vt 0.382800 0.367100
vt 0.382800 0.367100
vt 0.382800 0.367100
vt 0.382800 0.367100
vt 0.382800 0.367100
vt 0.382800 0.367100
vt 0.382800 0.367100
vt 0.382800 0.367100
vt 0.382800 0.367100
vt 0.382800 0.367100
vt 0.382800 0.367100
vt 0.382800 0.367100
vt 0.382800 0.367100
vt 0.382800 0.367100
vt 0.382800 0.367100
vt 0.382800 0.367100
vt 0.382800 0.367100
vt 0.382800 0.367100
vt 0.382800 0.367100
vt 0.382800 0.367100
vt 0.382800 0.367100
vt 0.382800 0.367100
vt 0.382800 0.367100
vt 0.382800 0.367100
vt 0.382800 0.367100
vt 0.382800 0.367100
vt 0.382800 0.367100
vt 0.382800 0.367100
vt 0.382800 0.367100
vt 0.382800 0.367100
vt 0.382800 0.367100
vt 0.382800 0.367100
vt 0.382800 0.367100
vt 0.382800 0.367100
vt 0.382800 0.367100
vt 0.382800 0.367100
vt 0.382800 0.367100
vt 0.382800 0.367100
vt 0.382800 0.367100
vt 0.382800 0.367100
vt 0.382800 0.367100
vt 0.382800 0.367100
vt 0.382800 0.367100
vt 0.382800 0.367100
vt 0.382800 0.367100
vt 0.382800 0.367100
vt 0.382800 0.367100
vt 0.382800 0.367100
vt 0.382800 0.367100
vt 0.382800 0.367100
vt 0.382800 0.367100
vt 0.382800 0.367100
vt 0.382800 0.367100
vt 0.382800 0.367100
vt 0.382800 0.367100
vt 0.382800 0.367100
vt 0.382800 0.367100
vt 0.382800 0.367100
vn 0.006372 0.999736 0.022064
vn 0.010861 30.104570 0.038125
vn -1.013834 329.359711 -1.483481
vn -0.099028 123.479362 -0.525233
vn -0.415118 42.876328 -1.005671
vn 0.035258 89.070114 -1.110978
vn 0.030622 131.109634 -1.126157
vn 0.027862 170.857025 -1.764831
vn -0.014768 2.998093 -3.096659
vn -0.072370 3.306994 -3.713331
vn -0.328058 7.019056 -3.027100
vn -0.396909 32.577377 -1.483774
vn 0.000000 4.783228 0.000000
vn 0.000000 13.800902 0.000000
vn 0.000000 38.679520 0.000000
vn 0.000000 13.710791 0.000000
vn 0.000000 3.805319 0.000000
vn 0.000000 3.630194 0.000000
vn 0.000000 27.088438 0.000000
vn 0.000000 18.198582 0.000000
vn 0.000000 27.450848 0.000000
vn 0.000000 32.941982 0.000000
vn 0.000000 32.941231 0.000000
vn 0.000000 9.121154 0.000000
vn 0.000000 15.012196 0.000000
vn 0.000000 37.629902 0.000000
vn 0.000000 32.942337 0.000000
vn 0.000000 11.844794 0.000000
vn 0.000000 35.103012 0.000000
vn 0.000000 32.941414 0.000000
vn 0.000000 32.942329 0.000000
vn 0.000000 13.403950 0.000000
vn 0.010147 23.392654 0.002391
vn 0.000000 32.942253 0.000000
vn 0.000000 32.941952 0.000000
vn 0.000000 32.942280 0.000000
vn 0.000000 9.446785 0.000000
vn 0.012949 22.132996 -0.014326
vn 0.000000 34.737484 0.000000
vn 0.000000 34.865917 0.000000
vn 0.000000 17.047829 0.000000
vn 0.000000 32.942329 0.000000
vn 0.000000 4.331468 0.000000
vn 0.000000 7.076815 0.000000
vn 0.000000 32.941395 0.000000
vn 0.005095 16.623732 0.012892
vn 0.003131 16.950218 0.008146
vn 0.000000 32.942253 0.000000
vn 0.000000 27.451981 0.000000
vn 0.000000 12.725785 0.000000
vn 0.000000 8.652051 0.000000
vn 0.000000 29.757048 0.000000
vn 0.000000 38.733910 0.000000
vn 0.004329 24.866028 0.015644
vn 0.000000 27.777927 0.000000
vn -0.107042 0.571943 -0.236952
vn -0.298414 1.745366 -0.539907
vn -0.269668 1.385450 -0.578219
vn -0.319030 2.259788 -0.754728
vn 0.000617 1.563506 0.002147
vn 0.003747 7.395452 0.010293
vn -0.104142 0.729136 -0.316632
vn -0.037482 0.676571 -0.259994
vn -0.161760 1.089420 -0.161916
vn -0.109694 0.588131 -0.045354
vn 0.000000 25.828783 0.000000
vn -0.063158 0.525272 -0.219913
vn -0.189260 1.399649 -0.526630
vn -0.160890 1.314993 -0.569444
vn -0.080679 2.299247 -0.841779
vn -0.132214 1.741077 -0.407248
vn -0.119082 0.526450 -0.044702
vn 0.003131 18.037663 0.008145
vn 0.092834 0.443187 -0.107394
vn 0.000000 14.481810 0.000000
vn -0.027854 0.729646 -0.324631
vn 0.093897 1.101706 -0.362390
vn 0.287085 1.067244 -0.295074
vn 0.078827 1.071129 -0.261823
vn -0.001502 0.514059 -0.053212
vn 0.029090 0.110433 -0.021320
vn 0.065102 0.373424 -0.171635
vn 0.292864 1.504454 -0.515351
vn 0.076769 0.537974 -0.258376
vn 0.096441 0.717603 -0.223064
vn -0.033834 0.142792 -0.002356
vn 0.065087 0.515981 -0.097386
vn 0.290367 1.200026 -0.320383
vn 0.000000 14.807314 0.000000
vn 0.000000 9.770997 0.000000
vn -0.001294 10.292822 0.005921
vn 0.000000 3.691751 0.000000
vn 0.000000 11.131228 0.000000
vn 0.000000 3.084958 0.000000
vn 0.012949 9.566044 -0.014326
vn 0.004071 7.522911 0.010228
vn 0.000000 5.490406 0.000000
vn 0.004909 4.543336 -0.011236
vn 0.000941 1.553170 0.002082
vn 0.000742 1.254537 0.001692
vn 0.000742 1.254537 0.001692
vn 0.000742 1.254537 0.001692
vn 0.000323 1.317048 0.001818
vn 0.000323 1.317048 0.001818
vn 0.000323 1.317048 0.001818
vn -0.051588 0.296358 -0.014387
vn -0.000733 1.221790 0.001931
vn 0.000582 4.184897 0.005351
vn 0.001816 4.094100 0.004725
vn -0.008878 2.954555 -0.003911
vn -0.012619 5.436560 -0.002477
vn -0.012619 5.436560 -0.002477
vn -0.003110 2.067081 0.001196
vn -0.003110 2.331165 0.001196
vn -0.003740 2.482004 0.001433
vn -0.000198 2.566653 -0.000817
vn -0.000198 2.566653 -0.000817
vn -0.000198 2.566653 -0.000817
f 101/101/101 102/102/102 100/100/100 
f 98/98/98 38/38/38 98/98/98 
f 95/95/95 38/38/38 98/98/98 
f 95/95/95 33/33/33 38/38/38 
f 97/97/97 44/44/44 97/97/97 
f 38/38/38 44/44/44 97/97/97 
f 38/38/38 43/43/43 44/44/44 
f 38/38/38 43/43/43 38/38/38 
f 38/38/38 37/37/37 43/43/43 
f 33/33/33 37/37/37 38/38/38 
f 33/33/33 32/32/32 37/37/37 
f 47/47/47 33/33/33 96/96/96 
f 29/29/29 33/33/33 47/47/47 
f 29/29/29 32/32/32 33/33/33 
f 29/29/29 32/32/32 29/29/29 
f 29/29/29 28/28/28 32/32/32 
f 20/20/20 28/28/28 29/29/29 
f 20/20/20 18/18/18 28/28/28 
f 19/19/19 18/18/18 20/20/20 
f 19/19/19 17/17/17 18/18/18 
f 19/19/19 17/17/17 19/19/19 
f 19/19/19 14/14/14 17/17/17 
f 15/15/15 14/14/14 19/19/19 
f 47/47/47 39/39/39 29/29/29 
f 48/48/48 52/52/52 48/48/48 
f 35/35/35 52/52/52 48/48/48 
f 35/35/35 39/39/39 52/52/52 
f 23/23/23 39/39/39 35/35/35 
f 23/23/23 29/29/29 39/39/39 
f 23/23/23 29/29/29 23/23/23 
f 23/23/23 20/20/20 29/29/29 
f 23/23/23 20/20/20 23/23/23 
f 23/23/23 19/19/19 20/20/20 
f 21/21/21 19/19/19 23/23/23 
f 21/21/21 15/15/15 19/19/19 
f 31/31/31 15/15/15 21/21/21 
f 31/31/31 27/27/27 15/15/15 
f 35/35/35 21/21/21 23/23/23 
f 35/35/35 21/21/21 35/35/35 
f 35/35/35 31/31/31 21/21/21 
f 48/48/48 31/31/31 35/35/35 
f 48/48/48 42/42/42 31/31/31 
f 31/31/31 27/27/27 31/31/31 
f 42/42/42 27/27/27 31/31/31 
f 42/42/42 27/27/27 27/27/27 
f 36/36/36 27/27/27 42/42/42 
f 36/36/36 22/22/22 27/27/27 
f 34/34/34 22/22/22 36/36/36 
f 34/34/34 2/2/2 22/22/22 
f 30/30/30 2/2/2 34/34/34 
f 27/27/27 12/12/12 15/15/15 
f 22/22/22 12/12/12 27/27/27 
f 22/22/22 1/1/1 12/12/12 
f 2/2/2 1/1/1 22/22/22 
f 15/15/15 16/16/16 14/14/14 
f 12/12/12 16/16/16 15/15/15 
f 12/12/12 11/11/11 16/16/16 
f 12/12/12 11/11/11 12/12/12 
f 12/12/12 13/13/13 11/11/11 
f 1/1/1 13/13/13 12/12/12 
f 1/1/1 3/3/3 13/13/13 
f 2/2/2 3/3/3 1/1/1 
f 2/2/2 4/4/4 3/3/3 
f 30/30/30 4/4/4 2/2/2 
f 30/30/30 26/26/26 4/4/4 
f 30/30/30 26/26/26 30/30/30 
f 40/40/40 26/26/26 30/30/30 
f 40/40/40 41/41/41 26/26/26 
f 51/51/51 41/41/41 40/40/40 
f 51/51/51 41/41/41 41/41/41 
f 94/94/94 41/41/41 51/51/51 
f 94/94/94 41/41/41 41/41/41 
f 93/93/93 41/41/41 94/94/94 
f 93/93/93 26/26/26 41/41/41 
f 24/24/24 26/26/26 93/93/93 
f 24/24/24 26/26/26 26/26/26 
f 25/25/25 26/26/26 24/24/24 
f 25/25/25 4/4/4 26/26/26 
f 5/5/5 4/4/4 25/25/25 
f 5/5/5 3/3/3 4/4/4 
f 53/53/53 49/49/49 53/53/53 
f 6/6/6 49/49/49 53/53/53 
f 6/6/6 45/45/45 49/49/49 
f 8/8/8 45/45/45 6/6/6 
f 8/8/8 40/40/40 45/45/45 
f 40/40/40 50/50/50 51/51/51 
f 8/8/8 50/50/50 40/40/40 
f 8/8/8 10/10/10 50/50/50 
f 8/8/8 10/10/10 8/8/8 
f 8/8/8 9/9/9 10/10/10 
f 8/8/8 9/9/9 8/8/8 
f 8/8/8 7/7/7 9/9/9 
f 6/6/6 7/7/7 8/8/8 
f 6/6/6 75/75/75 7/7/7 
f 53/53/53 75/75/75 6/6/6 
f 53/53/53 89/89/89 75/75/75 
f 55/55/55 89/89/89 53/53/53 
f 55/55/55 90/90/90 89/89/89 
f 66/66/66 90/90/90 55/55/55 
f 66/66/66 92/92/92 90/90/90 
f 30/30/30 45/45/45 40/40/40 
f 34/34/34 45/45/45 30/30/30 
f 34/34/34 49/49/49 45/45/45 
f 36/36/36 49/49/49 34/34/34 
f 36/36/36 53/53/53 49/49/49 
f 42/42/42 53/53/53 36/36/36 
f 42/42/42 55/55/55 53/53/53 
f 48/48/48 55/55/55 42/42/42 
f 48/48/48 66/66/66 55/55/55 
f 48/48/48 66/66/66 48/48/48 
f 48/48/48 52/52/52 66/66/66 
f 114/114/114 91/91/91 113/113/113 
f 92/92/92 91/91/91 114/114/114 
f 92/92/92 91/91/91 91/91/91 
f 66/66/66 91/91/91 92/92/92 
f 66/66/66 73/73/73 91/91/91 
f 52/52/52 73/73/73 66/66/66 
f 52/52/52 54/54/54 73/73/73 
f 39/39/39 54/54/54 52/52/52 
f 39/39/39 46/46/46 54/54/54 
f 47/47/47 46/46/46 39/39/39 
f 47/47/47 96/96/96 46/46/46 
f 91/91/91 73/73/73 109/109/109 
f 99/99/99 46/46/46 96/96/96 
f 108/108/108 54/54/54 107/107/107 
f 73/73/73 54/54/54 108/108/108 
f 54/54/54 61/61/61 60/60/60 
f 46/46/46 61/61/61 54/54/54 
f 117/117/117 118/118/118 116/116/116 
f 106/106/106 65/65/65 106/106/106 
f 64/64/64 65/65/65 106/106/106 
f 64/64/64 57/57/57 65/65/65 
f 59/59/59 57/57/57 64/64/64 
f 59/59/59 58/58/58 57/57/57 
f 59/59/59 58/58/58 59/59/59 
f 59/59/59 62/62/62 58/58/58 
f 59/59/59 62/62/62 59/59/59 
f 59/59/59 63/63/63 62/62/62 
f 59/59/59 63/63/63 59/59/59 
f 59/59/59 71/71/71 63/63/63 
f 72/72/72 71/71/71 59/59/59 
f 72/72/72 71/71/71 71/71/71 
f 80/80/80 71/71/71 72/72/72 
f 80/80/80 74/74/74 71/71/71 
f 81/81/81 74/74/74 80/80/80 
f 57/57/57 58/58/58 56/56/56 
f 70/70/70 71/71/71 74/74/74 
f 68/68/68 71/71/71 70/70/70 
f 68/68/68 69/69/69 67/67/67 
f 70/70/70 69/69/69 68/68/68 
f 70/70/70 76/76/76 69/69/69 
f 70/70/70 76/76/76 70/70/70 
f 70/70/70 77/77/77 76/76/76 
f 79/79/79 77/77/77 70/70/70 
f 79/79/79 78/78/78 77/77/77 
f 87/87/87 78/78/78 79/79/79 
f 87/87/87 78/78/78 78/78/78 
f 88/88/88 78/78/78 87/87/87 
f 88/88/88 83/83/83 78/78/78 
f 85/85/85 83/83/83 88/88/88 
f 85/85/85 83/83/83 83/83/83 
f 84/84/84 83/83/83 85/85/85 
f 84/84/84 82/82/82 83/83/83 
f 87/87/87 79/79/79 86/86/86 
f 104/104/104 105/105/105 103/103/103 
f 111/111/111 112/112/112 110/110/110 
f 115/115/115 112/112/112 111/111/111 
