v -0.223700 0.569700 0.211700
v -0.163800 0.041800 0.157500
v -0.223400 0.490800 0.158100
v -0.221400 0.487100 -0.171500
v -0.229400 0.573000 0.217200
v -0.228600 0.493900 0.161800
v -0.167000 0.000000 0.164800
v -0.166700 0.000000 0.123300
v -0.166700 0.000000 0.123300
v -0.227700 0.492600 0.048800
v -0.165700 0.000000 -0.042600
v -0.226900 0.491400 -0.062900
v -0.226700 0.568000 -0.232700
v -0.165000 0.000000 -0.167000
v -0.226500 0.490100 -0.175100
v -0.221000 0.564800 -0.226900
v -0.161700 0.038200 -0.163900
v -0.123500 0.000000 -0.166800
v -0.170000 0.489800 -0.231500
v -0.195000 0.646400 0.034400
v -0.221800 0.646900 0.077000
v -0.099900 0.710200 0.098900
v -0.126600 0.710700 0.141500
v -0.172700 0.494800 0.218400
v -0.042500 0.000000 0.165500
v -0.225000 0.500200 -0.124400
v -0.078500 0.724100 -0.103700
v -0.159200 0.517100 -0.211600
v -0.097800 0.648300 -0.226300
v -0.228700 0.571800 0.104700
v -0.228600 0.493900 0.161800
v -0.227800 0.570500 -0.007700
v -0.213000 0.498300 0.052200
v -0.003600 0.661200 0.166800
v -0.227300 0.569300 -0.120300
v -0.223000 0.568500 0.102000
v -0.223400 0.490800 0.158100
v -0.222700 0.489600 0.048200
v -0.222400 0.567300 -0.007500
v -0.222700 0.489600 0.048200
v -0.222100 0.488400 -0.061600
v -0.221700 0.566100 -0.119500
v -0.222100 0.488400 -0.061600
v -0.221400 0.487100 -0.171500
v -0.153300 0.662800 0.038900
v -0.132300 0.676700 0.076200
v -0.110900 0.763200 -0.027200
v -0.089900 0.777100 0.010000
v -0.204700 0.541400 0.012100
v -0.145300 0.681700 0.018200
v -0.111300 0.453700 0.156800
v -0.223700 0.569700 0.211700
v -0.168800 0.491700 0.213400
v -0.163800 0.041800 0.157500
v 0.161300 0.043600 0.163000
v -0.221000 0.564800 -0.226900
v -0.161700 0.038200 -0.163900
v -0.166100 0.486800 -0.226200
v 0.163500 0.488600 -0.224200
v -0.038700 0.705600 -0.093200
v -0.105600 0.663300 0.028800
v -0.159200 0.517100 -0.211600
v -0.058000 0.629900 -0.215800
v -0.159200 0.517100 -0.211600
v -0.042300 0.551500 0.071300
v 0.006500 0.764900 -0.092300
v -0.030400 0.661700 0.209400
v -0.000200 0.536600 0.197500
v -0.057500 0.490400 -0.230800
v -0.123500 0.000000 -0.166800
v -0.170000 0.489800 -0.231500
v -0.116900 0.573600 0.217900
v -0.060200 0.495400 0.219100
v -0.116000 0.570300 0.212400
v -0.058800 0.492300 0.214000
v -0.168800 0.491700 0.213400
v -0.114200 0.568600 -0.232000
v -0.056200 0.487400 -0.225500
v -0.113400 0.565400 -0.226300
v -0.166100 0.486800 -0.226200
v 0.027400 0.778700 -0.055000
v -0.107200 0.579100 -0.166700
v -0.044000 0.651100 -0.123700
v -0.068100 0.474000 -0.209700
v -0.213000 0.498300 0.052200
v 0.042400 0.000000 -0.165800
v 0.054900 0.491000 -0.230100
v 0.035700 0.654100 -0.121500
v -0.043600 0.634800 -0.087600
v 0.036100 0.637800 -0.085400
v 0.091000 0.575300 0.012500
v -0.004400 0.574200 0.218500
v 0.052200 0.496100 0.219700
v -0.004300 0.571000 0.213000
v 0.051000 0.492900 0.214700
v -0.058800 0.492300 0.214000
v -0.208300 0.392400 0.197800
v 0.201600 0.394600 0.200300
v -0.205900 0.387800 -0.196100
v 0.204100 0.390000 -0.193700
v 0.053600 0.488000 -0.224900
v -0.001700 0.566000 -0.225600
v -0.056200 0.487400 -0.225500
v -0.001700 0.569200 -0.231300
v -0.167000 0.000000 0.164800
v -0.165000 0.000000 -0.167000
v 0.164900 0.000000 0.166800
v 0.166800 0.000000 -0.165100
v 0.070000 0.561500 -0.024700
v 0.123400 0.000000 0.166500
v 0.037600 0.641100 0.123100
v 0.002300 0.539600 0.196300
v 0.064900 0.644900 0.159000
v 0.101300 0.654400 -0.088000
v 0.117000 0.427700 0.163400
v 0.098300 0.619300 -0.135800
v 0.072600 0.473200 -0.212300
v 0.145500 0.628200 0.050400
v 0.122200 0.668300 -0.050700
v 0.167400 0.491600 -0.229500
v 0.126000 0.538000 -0.136300
v 0.073000 0.457000 -0.160600
v 0.106600 0.572200 0.213700
v 0.160900 0.493500 0.215300
v 0.051000 0.492900 0.214700
v 0.108000 0.574900 0.219200
v 0.164700 0.496700 0.220400
v 0.163500 0.488600 -0.224200
v 0.109300 0.567300 -0.225000
v 0.053600 0.488000 -0.224900
v 0.110700 0.569800 -0.230700
v 0.172800 0.632100 0.086400
v 0.207900 0.497900 0.051000
v 0.002300 0.539600 0.196300
v 0.098800 0.603100 -0.099700
v 0.132900 0.657000 -0.162000
v 0.159000 0.529300 -0.161300
v 0.091700 0.645300 -0.158700
v 0.163700 0.563200 0.052700
v 0.145500 0.681900 0.027800
v 0.104300 0.670300 0.031100
v 0.129800 0.712700 -0.070500
v 0.159000 0.529300 -0.161300
v 0.215000 0.572200 0.214300
v 0.160900 0.493500 0.215300
v 0.217600 0.567200 -0.224300
v 0.163300 0.040000 -0.162000
v 0.201300 0.485600 -0.045300
v 0.161200 0.475700 -0.040300
v 0.088500 0.701100 -0.067200
v 0.165600 0.000000 0.042300
v 0.221900 0.495100 0.052000
v 0.221300 0.496400 0.164500
v 0.222600 0.493800 -0.060400
v 0.166600 0.000000 -0.123600
v 0.223300 0.492600 -0.172900
v 0.215600 0.570900 0.104600
v 0.216800 0.492000 0.050800
v 0.216200 0.493200 0.160700
v 0.216300 0.569700 -0.004900
v 0.217500 0.490800 -0.059000
v 0.216800 0.492000 0.050800
v 0.216900 0.568500 -0.114600
v 0.218100 0.489500 -0.168900
v 0.217500 0.490800 -0.059000
v 0.221200 0.574200 0.107400
v 0.221800 0.573000 -0.005000
v 0.222500 0.571700 -0.117500
v 0.223200 0.570400 -0.230000
v 0.166800 0.000000 -0.165100
v 0.220500 0.575500 0.219900
v 0.164700 0.496700 0.220400
v 0.164900 0.000000 0.166800
v 0.123400 0.000000 0.166500
v 0.215000 0.572200 0.214300
v 0.216200 0.493200 0.160700
v 0.161300 0.043600 0.163000
v 0.163300 0.040000 -0.162000
v 0.166600 0.000000 -0.123600
v 0.223300 0.492600 -0.172900
v 0.217600 0.567200 -0.224300
v 0.218100 0.489500 -0.168900
vt 1.139900 0.035400
vt 1.010000 0.016200
vt 1.014100 0.032600
vt 0.241000 0.032500
vt 0.108200 0.036600
vt 0.000500 0.030100
vt 0.108200 0.014400
vt 0.000500 0.018600
vt 0.999400 0.015100
vt 0.761100 0.026400
vt 0.502800 0.015100
vt 0.502800 0.028000
vt 0.125700 0.032800
vt 0.125700 0.007700
vt 0.252900 0.028000
vt 0.111200 0.035300
vt 0.261500 0.016100
vt 0.000100 0.015100
vt 0.000100 0.028100
vt 0.069200 0.897600
vt 0.069700 0.898400
vt 0.280900 0.964800
vt 0.281400 0.965700
vt 0.252500 0.030100
vt 0.503400 0.018600
vt 0.760300 0.525800
vt 0.803900 0.956800
vt 0.948500 0.554600
vt 0.978000 0.793500
vt 0.886500 0.026400
vt 0.999400 0.028000
vt 0.623000 0.028000
vt 0.004200 0.742100
vt 0.424000 0.884600
vt 0.379600 0.028000
vt 0.891500 0.026400
vt 1.012200 0.028000
vt 0.757500 0.026400
vt 0.618400 0.028000
vt 0.756500 0.026400
vt 0.498200 0.028000
vt 0.371700 0.028000
vt 0.498500 0.028000
vt 0.241300 0.028000
vt 0.560300 0.818100
vt 0.554100 0.809400
vt 0.699300 0.949300
vt 0.693100 0.940600
vt 0.537800 0.717500
vt 0.592200 0.905200
vt 0.256400 0.544800
vt 0.112700 0.035500
vt 0.241000 0.032100
vt 0.252400 0.012600
vt 1.011800 0.012700
vt 1.139800 0.039100
vt 1.001400 0.016300
vt 1.011600 0.035700
vt 0.242200 0.035800
vt 0.810600 0.975500
vt 0.585700 0.936600
vt 0.948500 0.554600
vt 0.980800 0.805700
vt 0.948500 0.554600
vt 0.615000 0.596800
vt 0.908500 0.897400
vt 0.424500 0.885500
vt 0.466500 0.698000
vt 0.758500 0.027100
vt 1.000600 0.016300
vt 1.000600 0.029600
vt 0.377300 0.030100
vt 0.503400 0.030100
vt 0.369000 0.030100
vt 0.497900 0.030100
vt 0.241400 0.030100
vt 0.880400 0.027100
vt 0.755900 0.027100
vt 0.884100 0.027100
vt 1.010500 0.029600
vt 0.902300 0.888700
vt 0.443000 0.611700
vt 0.476700 0.789700
vt 0.202000 0.520200
vt 0.004200 0.742100
vt 0.502700 0.016300
vt 0.502700 0.029600
vt 0.373500 0.930700
vt 0.477000 0.790700
vt 0.373800 0.931700
vt 0.897400 0.571300
vt 0.619900 0.030100
vt 0.760500 0.027300
vt 0.614200 0.030100
vt 0.754800 0.027300
vt 0.497700 0.030100
vt 0.820500 0.548500
vt 0.840400 0.548700
vt 0.820600 0.529700
vt 0.840500 0.529800
vt 0.498900 0.029600
vt 0.621700 0.029600
vt 0.754900 0.027100
vt 0.625400 0.029600
vt 0.656200 0.023400
vt 0.656200 0.023400
vt 0.656200 0.023400
vt 0.656200 0.023400
vt 0.903600 0.580100
vt 0.999700 0.018600
vt 0.354400 0.494000
vt 0.240800 0.255200
vt 0.354800 0.495200
vt 0.975300 0.715700
vt 0.420400 0.086500
vt 0.205400 0.957500
vt 0.045800 0.733100
vt 0.630200 0.521700
vt 0.969100 0.707000
vt 0.249800 0.029600
vt 0.086400 0.878100
vt 0.046100 0.734000
vt 0.892600 0.027300
vt 1.006800 0.030100
vt 0.753400 0.027300
vt 0.891900 0.027300
vt 0.999700 0.030100
vt 0.241600 0.029600
vt 0.372500 0.029600
vt 0.499900 0.029600
vt 0.377900 0.029600
vt 0.630700 0.522900
vt 0.810600 0.318400
vt 0.240800 0.255200
vt 0.205700 0.958500
vt 0.460900 0.856000
vt 0.469900 0.710000
vt 0.460200 0.856800
vt 0.013200 0.636400
vt 0.080500 0.881000
vt 0.079800 0.881800
vt 0.260000 0.949000
vt 0.469900 0.710000
vt 1.137000 0.035600
vt 1.010700 0.032200
vt 0.116000 0.039200
vt 0.242800 0.016400
vt 0.292900 0.534900
vt 0.264000 0.549500
vt 0.259300 0.949700
vt 0.504600 0.010700
vt 0.504600 0.032900
vt 0.253000 0.032900
vt 0.759900 0.029500
vt 1.000700 0.010700
vt 1.000700 0.032900
vt 0.368000 0.032900
vt 0.494400 0.032900
vt 0.238900 0.032900
vt 0.603300 0.032900
vt 0.750800 0.029500
vt 0.495500 0.032900
vt 0.889300 0.029500
vt 1.007700 0.032900
vt 0.752900 0.029500
vt 0.380200 0.032900
vt 0.612400 0.032900
vt 0.888800 0.029500
vt 0.123900 0.035700
vt 0.123900 0.009800
vt 0.132500 0.032900
vt 0.001700 0.032900
vt 0.132500 0.010700
vt 0.001700 0.010700
vt 0.113400 0.036400
vt 0.238500 0.032800
vt 0.233000 0.012200
vt 0.991500 0.012000
vt -0.000400 0.016300
vt -0.000400 0.029600
vt 1.136900 0.036100
vt 1.007700 0.032600
vn 0.974115 0.129551 -0.185249
vn 0.991234 0.131745 -0.009910
vn 0.991052 0.131582 -0.022414
vn 0.991061 0.131977 0.019483
vn -0.703337 -0.140321 0.696869
vn -0.988443 -0.122740 0.088973
vn -0.489390 -0.144308 0.860042
vn -0.992281 -0.123802 -0.007173
vn -0.992286 -0.123813 -0.006183
vn -0.993449 -0.114109 -0.006189
vn -0.992274 -0.123963 -0.004995
vn -0.994157 -0.107868 -0.004124
vn -0.514073 -0.158736 -0.842931
vn -0.940997 -0.147992 -0.304340
vn -0.992439 -0.118015 -0.033724
vn 0.972214 0.132563 0.192943
vn 0.990673 0.132303 0.032591
vn -0.090191 -0.130932 -0.987280
vn -0.180237 -0.145611 -0.972786
vn 0.380540 0.000696 -0.924764
vn -0.804679 0.155606 0.572956
vn 0.237980 0.865496 -0.440776
vn -0.567472 0.205221 0.797408
vn -0.035568 -0.101307 0.994219
vn -0.005516 -0.107662 0.994172
vn -0.822984 0.508487 -0.253257
vn -0.729728 0.621529 -0.284953
vn -0.775205 0.446559 -0.446814
vn -0.412525 0.658847 -0.629082
vn -0.999944 -0.007062 -0.007883
vn -0.994127 -0.108010 -0.006675
vn -0.999954 -0.006428 -0.007093
vn -0.156725 -0.452752 -0.877754
vn 0.662561 -0.063517 -0.746310
vn -0.999964 -0.007696 -0.003476
vn 0.999980 -0.000545 0.006375
vn 0.999980 -0.000545 0.006375
vn 0.999980 -0.000545 0.006375
vn 0.999985 0.000056 0.005464
vn 0.999985 0.000056 0.005464
vn 0.999985 0.000056 0.005464
vn 0.999980 -0.000398 0.006374
vn 0.999980 -0.000398 0.006374
vn 0.999980 -0.000398 0.006374
vn -0.527139 -0.492896 -0.692227
vn -0.219946 0.352031 0.909779
vn -0.717302 0.503667 -0.481453
vn 0.335319 0.447405 0.829090
vn 0.291105 -0.665846 0.686955
vn -0.756643 0.650101 0.069720
vn -0.563237 -0.052129 0.824650
vn 0.204725 0.122930 -0.971070
vn 0.025704 0.119880 -0.992456
vn 0.043581 0.123662 -0.991367
vn -0.004456 0.119134 -0.992868
vn 0.182239 0.137006 0.973662
vn 0.008011 0.137560 0.990461
vn 0.020340 0.137724 0.990262
vn -0.021237 0.137387 0.990290
vn 0.939027 -0.265214 0.218838
vn 0.761555 -0.547811 0.346319
vn 0.747676 -0.622762 0.230538
vn 0.877904 -0.433609 -0.203143
vn 0.742025 -0.633340 0.219724
vn -0.569945 -0.811744 -0.127415
vn -0.409073 -0.362304 -0.837493
vn -0.230465 0.219041 0.948107
vn 0.893797 -0.332368 -0.301094
vn 0.006475 -0.120253 -0.992722
vn 0.006335 -0.130244 -0.991462
vn 0.006790 -0.114028 -0.993454
vn -0.006279 0.010791 0.999922
vn -0.005226 -0.091653 0.995777
vn 0.005543 -0.016445 -0.999849
vn 0.005543 -0.016445 -0.999849
vn 0.005543 -0.016445 -0.999849
vn 0.006279 -0.010791 -0.999922
vn -0.006400 0.005563 0.999964
vn -0.006400 0.005563 0.999964
vn -0.006400 0.005563 0.999964
vn 0.504353 0.705396 0.498040
vn 0.135203 0.417863 -0.898394
vn 0.053592 0.534731 -0.843321
vn 0.026316 0.441629 -0.896812
vn 0.576581 -0.180597 -0.796831
vn 0.006076 -0.130041 -0.991490
vn 0.006350 -0.113831 -0.993480
vn 0.096254 0.700502 -0.707130
vn -0.045622 0.910263 0.411510
vn 0.231432 0.887617 0.398216
vn 0.394079 0.364685 0.843627
vn -0.005409 0.011444 0.999920
vn -0.005526 -0.097735 0.995197
vn 0.006468 -0.017183 -0.999831
vn 0.006468 -0.017183 -0.999831
vn 0.006468 -0.017183 -0.999831
vn -0.005295 0.999917 -0.011709
vn -0.005296 0.999917 -0.011709
vn -0.005296 0.999917 -0.011709
vn -0.005297 0.999917 -0.011708
vn -0.005492 0.005080 0.999972
vn -0.005492 0.005080 0.999972
vn -0.005492 0.005080 0.999972
vn 0.006285 -0.010795 -0.999922
vn 0.000000 -1.000000 0.000000
vn 0.000000 -1.000000 0.000000
vn 0.000000 -1.000000 0.000000
vn 0.000000 -1.000000 0.000000
vn -0.528519 -0.411733 -0.742390
vn -0.005839 -0.107452 0.994193
vn -0.643773 0.523347 -0.558269
vn -0.407859 0.013494 0.912945
vn 0.391027 0.309199 0.866888
vn 0.089963 0.038613 -0.995196
vn 0.584424 0.102597 0.804936
vn 0.166351 0.473622 -0.864876
vn 0.333352 0.327677 -0.884027
vn -0.482476 -0.138301 -0.864922
vn 0.640608 0.570121 0.514377
vn 0.036094 -0.123136 -0.991733
vn 0.835593 -0.046616 -0.547368
vn 0.847272 -0.504953 -0.164781
vn 0.005549 -0.016499 -0.999848
vn 0.005549 -0.016499 -0.999848
vn 0.005549 -0.016499 -0.999848
vn -0.006279 0.010791 0.999922
vn -0.005709 -0.091436 0.995795
vn -0.006401 0.005757 0.999963
vn -0.006401 0.005757 0.999963
vn -0.006401 0.005757 0.999963
vn 0.005394 -0.011433 -0.999920
vn 0.718058 0.353677 0.599420
vn 0.219180 -0.413375 -0.883788
vn -0.591016 -0.286507 -0.754065
vn 0.514242 0.784446 0.346699
vn 0.507523 0.564719 -0.650779
vn 0.514964 -0.414026 -0.750596
vn -0.920092 -0.189931 -0.342575
vn -0.414945 -0.603536 0.680856
vn 0.844426 0.475296 0.247060
vn -0.922786 -0.329384 0.199928
vn 0.907420 0.389427 -0.157910
vn -0.878552 -0.468407 0.093496
vn -0.182958 0.113361 -0.976563
vn -0.021881 0.115424 -0.993075
vn -0.194070 0.134813 0.971680
vn -0.033814 0.137276 0.989956
vn 0.978826 0.203636 -0.020782
vn 0.256749 -0.707335 0.658602
vn -0.997516 0.033652 0.061881
vn 0.993556 -0.113160 0.006355
vn 0.995255 -0.097055 0.006875
vn 0.993697 -0.106063 0.036281
vn 0.994604 -0.103523 0.006775
vn 0.993515 -0.113510 0.006556
vn 0.995220 -0.097388 0.007231
vn -0.999919 -0.011572 -0.005333
vn -0.999919 -0.011572 -0.005333
vn -0.999919 -0.011572 -0.005333
vn -0.999921 -0.010919 -0.006255
vn -0.999921 -0.010919 -0.006255
vn -0.999921 -0.010919 -0.006255
vn -0.999919 -0.011530 -0.005323
vn -0.999919 -0.011530 -0.005323
vn -0.999919 -0.011530 -0.005323
vn 0.999973 0.005156 0.005274
vn 0.999964 0.005791 0.006161
vn 0.999964 0.005799 0.006160
vn 0.847769 -0.147150 -0.509544
vn 0.306700 -0.148143 -0.940207
vn 0.696156 -0.132359 0.705584
vn 0.088556 -0.106833 0.990326
vn 0.859810 -0.140768 0.490828
vn -0.007187 -0.107289 0.994202
vn -0.973585 0.117883 -0.195541
vn -0.992417 0.120947 -0.021900
vn -0.992048 0.120960 -0.034775
vn -0.992596 0.121246 0.007254
vn 0.989324 -0.114893 -0.089652
vn 0.975188 -0.130169 -0.179066
vn -0.976177 0.121766 0.179590
vn -0.992421 0.121292 0.019704
f 37/37/37 38/38/38 36/36/36 
f 108/108/108 106/106/106 108/108/108 
f 107/107/107 106/106/106 108/108/108 
f 107/107/107 105/105/105 106/106/106 
f 168/168/168 156/156/156 168/168/168 
f 154/154/154 156/156/156 168/168/168 
f 154/154/154 155/155/155 156/156/156 
f 151/151/151 155/155/155 154/154/154 
f 174/174/174 172/172/172 174/174/174 
f 173/173/173 172/172/172 174/174/174 
f 173/173/173 171/171/171 172/172/172 
f 173/173/173 171/171/171 173/173/173 
f 173/173/173 153/153/153 171/171/171 
f 151/151/151 153/153/153 173/173/173 
f 151/151/151 152/152/152 153/153/153 
f 154/154/154 152/152/152 151/151/151 
f 154/154/154 167/167/167 152/152/152 
f 153/153/153 152/152/152 166/166/166 
f 181/181/181 182/182/182 181/181/181 
f 178/178/178 182/182/182 181/181/181 
f 178/178/178 176/176/176 182/182/182 
f 177/177/177 176/176/176 178/178/178 
f 177/177/177 175/175/175 176/176/176 
f 144/144/144 145/145/145 144/144/144 
f 55/55/55 145/145/145 144/144/144 
f 55/55/55 53/53/53 145/145/145 
f 54/54/54 53/53/53 55/55/55 
f 54/54/54 52/52/52 53/53/53 
f 8/8/8 6/6/6 8/8/8 
f 7/7/7 6/6/6 8/8/8 
f 7/7/7 5/5/5 6/6/6 
f 7/7/7 5/5/5 7/7/7 
f 7/7/7 24/24/24 5/5/5 
f 25/25/25 24/24/24 7/7/7 
f 93/93/93 127/127/127 126/126/126 
f 93/93/93 127/127/127 93/93/93 
f 93/93/93 110/110/110 127/127/127 
f 93/93/93 110/110/110 93/93/93 
f 93/93/93 25/25/25 110/110/110 
f 73/73/73 25/25/25 93/93/93 
f 73/73/73 24/24/24 25/25/25 
f 72/72/72 24/24/24 73/73/73 
f 73/73/73 93/93/93 92/92/92 
f 81/81/81 91/91/91 119/119/119 
f 81/81/81 91/91/91 81/81/81 
f 81/81/81 48/48/48 91/91/91 
f 81/81/81 48/48/48 81/81/81 
f 81/81/81 47/47/47 48/48/48 
f 66/66/66 47/47/47 81/81/81 
f 91/91/91 65/65/65 91/91/91 
f 48/48/48 65/65/65 91/91/91 
f 48/48/48 46/46/46 65/65/65 
f 47/47/47 46/46/46 48/48/48 
f 47/47/47 45/45/45 46/46/46 
f 66/66/66 45/45/45 47/47/47 
f 66/66/66 65/65/65 45/45/45 
f 66/66/66 65/65/65 66/66/66 
f 66/66/66 109/109/109 65/65/65 
f 66/66/66 109/109/109 66/66/66 
f 66/66/66 114/114/114 109/109/109 
f 81/81/81 114/114/114 66/66/66 
f 81/81/81 119/119/119 114/114/114 
f 65/65/65 46/46/46 45/45/45 
f 164/164/164 165/165/165 163/163/163 
f 82/82/82 84/84/84 82/82/82 
f 83/83/83 84/84/84 82/82/82 
f 83/83/83 88/88/88 84/84/84 
f 89/89/89 88/88/88 83/83/83 
f 89/89/89 88/88/88 88/88/88 
f 90/90/90 88/88/88 89/89/89 
f 90/90/90 88/88/88 88/88/88 
f 135/135/135 88/88/88 90/90/90 
f 135/135/135 88/88/88 88/88/88 
f 116/116/116 88/88/88 135/135/135 
f 116/116/116 84/84/84 88/88/88 
f 116/116/116 84/84/84 116/116/116 
f 116/116/116 117/117/117 84/84/84 
f 121/121/121 117/117/117 116/116/116 
f 121/121/121 122/122/122 117/117/117 
f 104/104/104 69/69/69 104/104/104 
f 87/87/87 69/69/69 104/104/104 
f 87/87/87 86/86/86 69/69/69 
f 120/120/120 86/86/86 87/87/87 
f 120/120/120 170/170/170 86/86/86 
f 169/169/169 170/170/170 120/120/120 
f 169/169/169 179/179/179 170/170/170 
f 180/180/180 179/179/179 169/169/169 
f 87/87/87 131/131/131 120/120/120 
f 70/70/70 69/69/69 86/86/86 
f 71/71/71 69/69/69 70/70/70 
f 71/71/71 77/77/77 69/69/69 
f 161/161/161 162/162/162 160/160/160 
f 142/142/142 140/140/140 142/142/142 
f 150/150/150 140/140/140 142/142/142 
f 150/150/150 141/141/141 140/140/140 
f 150/150/150 141/141/141 150/150/150 
f 150/150/150 137/137/137 141/141/141 
f 138/138/138 137/137/137 150/150/150 
f 138/138/138 136/136/136 137/137/137 
f 150/150/150 136/136/136 138/138/138 
f 150/150/150 136/136/136 136/136/136 
f 142/142/142 136/136/136 150/150/150 
f 142/142/142 137/137/137 136/136/136 
f 142/142/142 137/137/137 142/142/142 
f 142/142/142 148/148/148 137/137/137 
f 140/140/140 148/148/148 142/142/142 
f 140/140/140 139/139/139 148/148/148 
f 141/141/141 139/139/139 140/140/140 
f 141/141/141 143/143/143 139/139/139 
f 139/139/139 149/149/149 148/148/148 
f 158/158/158 159/159/159 157/157/157 
f 29/29/29 63/63/63 28/28/28 
f 60/60/60 63/63/63 29/29/29 
f 60/60/60 62/62/62 63/63/63 
f 60/60/60 62/62/62 60/60/60 
f 60/60/60 61/61/61 62/62/62 
f 50/50/50 61/61/61 60/60/60 
f 50/50/50 49/49/49 61/61/61 
f 50/50/50 49/49/49 50/50/50 
f 50/50/50 26/26/26 49/49/49 
f 27/27/27 26/26/26 50/50/50 
f 27/27/27 28/28/28 26/26/26 
f 27/27/27 28/28/28 27/27/27 
f 27/27/27 29/29/29 28/28/28 
f 27/27/27 29/29/29 27/27/27 
f 27/27/27 60/60/60 29/29/29 
f 50/50/50 60/60/60 27/27/27 
f 64/64/64 61/61/61 49/49/49 
f 134/134/134 118/118/118 133/133/133 
f 133/133/133 132/132/132 115/115/115 
f 118/118/118 132/132/132 133/133/133 
f 118/118/118 111/111/111 132/132/132 
f 112/112/112 111/111/111 118/118/118 
f 112/112/112 113/113/113 111/111/111 
f 115/115/115 113/113/113 112/112/112 
f 115/115/115 113/113/113 113/113/113 
f 132/132/132 113/113/113 115/115/115 
f 132/132/132 111/111/111 113/113/113 
f 129/129/129 130/130/130 128/128/128 
f 18/18/18 13/13/13 19/19/19 
f 14/14/14 13/13/13 18/18/18 
f 14/14/14 15/15/15 13/13/13 
f 11/11/11 15/15/15 14/14/14 
f 11/11/11 12/12/12 15/15/15 
f 10/10/10 12/12/12 11/11/11 
f 10/10/10 32/32/32 12/12/12 
f 15/15/15 12/12/12 35/35/35 
f 10/10/10 31/31/31 30/30/30 
f 10/10/10 31/31/31 10/10/10 
f 10/10/10 9/9/9 31/31/31 
f 11/11/11 9/9/9 10/10/10 
f 34/34/34 68/68/68 85/85/85 
f 67/67/67 68/68/68 34/34/34 
f 67/67/67 51/51/51 68/68/68 
f 23/23/23 51/51/51 67/67/67 
f 23/23/23 21/21/21 51/51/51 
f 22/22/22 21/21/21 23/23/23 
f 22/22/22 20/20/20 21/21/21 
f 34/34/34 20/20/20 22/22/22 
f 34/34/34 20/20/20 20/20/20 
f 33/33/33 20/20/20 34/34/34 
f 33/33/33 21/21/21 20/20/20 
f 51/51/51 21/21/21 33/33/33 
f 22/22/22 67/67/67 34/34/34 
f 23/23/23 67/67/67 22/22/22 
f 4/4/4 17/17/17 16/16/16 
f 4/4/4 17/17/17 4/4/4 
f 4/4/4 2/2/2 17/17/17 
f 3/3/3 2/2/2 4/4/4 
f 3/3/3 1/1/1 2/2/2 
f 124/124/124 125/125/125 123/123/123 
f 59/59/59 147/147/147 146/146/146 
f 59/59/59 147/147/147 59/59/59 
f 59/59/59 57/57/57 147/147/147 
f 58/58/58 57/57/57 59/59/59 
f 58/58/58 56/56/56 57/57/57 
f 102/102/102 103/103/103 101/101/101 
f 40/40/40 41/41/41 39/39/39 
f 98/98/98 99/99/99 97/97/97 
f 100/100/100 99/99/99 98/98/98 
f 95/95/95 96/96/96 94/94/94 
f 43/43/43 44/44/44 42/42/42 
f 79/79/79 80/80/80 78/78/78 
f 75/75/75 76/76/76 74/74/74 
