v -169.816696 -0.175000 177.811905
v -168.030701 -0.175000 179.695908
v -169.719894 -0.175000 177.720200
v -167.933899 -0.175000 179.604202
v -166.376694 -0.175000 181.440506
v -164.590698 -0.175000 183.324493
v -166.279999 -0.175000 181.348801
v -164.494003 -0.175000 183.232697
v -162.555496 -0.415900 185.949295
v -162.458694 -0.399500 185.858994
v -162.927200 -0.619800 185.495407
v -162.830505 -0.603300 185.405106
vt 0.210900 0.820300
vt 0.210900 0.820300
vt 0.210900 0.820300
vt 0.210900 0.820300
vt 0.210900 0.820300
vt 0.210900 0.820300
vt 0.210900 0.820300
vt 0.210900 0.820300
vt 0.210900 0.820300
vt 0.210900 0.820300
vt 0.210900 0.820300
vt 0.210900 0.820300
vn 0.100220 1.278633 0.347058
vn 0.010861 0.999214 0.038125
vn -1.013834 319.604523 -1.483481
vn -0.099028 96.190643 -0.525233
vn -0.415118 37.548454 -1.005671
vn 0.035258 62.372795 -1.110978
vn 0.030622 125.275101 -1.126157
vn 0.027862 148.174210 -1.764831
vn -0.014768 0.521105 -3.096659
vn -0.072370 0.938864 -3.713331
vn -0.328058 1.106261 -3.027100
vn -0.396909 3.980929 -1.483774
f 2/2/2 3/3/3 1/1/1 
f 4/4/4 3/3/3 2/2/2 
f 10/10/10 11/11/11 9/9/9 
f 12/12/12 11/11/11 10/10/10 
f 6/6/6 7/7/7 5/5/5 
f 8/8/8 7/7/7 6/6/6 
