v -0.076500 5.116600 -0.161400
v -0.121500 5.256800 -0.086200
v -0.076500 5.354200 -0.161400
v -0.121500 5.494400 -0.086200
v -0.076500 5.591700 -0.161400
v -0.121500 5.732000 -0.086200
v -0.076500 5.829300 -0.161400
v -0.121500 5.969500 -0.086200
v -0.076500 6.066900 -0.161400
v -0.121500 6.207100 -0.086200
v -0.076500 6.304400 -0.161400
v -0.121500 6.444600 -0.086200
v -0.076500 6.542000 -0.161400
v -0.121500 6.682200 -0.086200
v -0.076500 6.779500 -0.161400
v -0.121500 6.919800 -0.086200
v -0.076500 7.017100 -0.161400
v -0.121500 7.157300 -0.086200
v -0.044500 5.378000 -0.123800
v -0.044500 5.615600 -0.123800
v -0.044500 5.853200 -0.123800
v -0.044500 6.090700 -0.123800
v -0.044500 6.328300 -0.123800
v -0.044500 6.565800 -0.123800
v -0.044500 6.803400 -0.123800
v -0.044500 7.041000 -0.123800
v -0.044500 7.278500 -0.123800
v 0.042600 4.865900 -0.133400
v 0.042600 5.103500 -0.133400
v 0.042600 5.341000 -0.133400
v 0.042600 5.578600 -0.133400
v 0.042600 5.816200 -0.133400
v 0.042600 6.053700 -0.133400
v 0.042600 6.291300 -0.133400
v 0.042600 6.528800 -0.133400
v 0.042600 6.766400 -0.133400
v 0.065300 5.464600 -0.102200
v 0.065300 5.702200 -0.102200
v 0.065300 5.939700 -0.102200
v 0.065300 6.177300 -0.102200
v 0.065300 6.414900 -0.102200
v 0.065300 6.652400 -0.102200
v 0.065300 6.890000 -0.102200
v 0.065300 7.127500 -0.102200
v 0.065300 7.365100 -0.102200
v 0.033700 5.945500 0.136500
v 0.006000 6.068600 0.046300
v 0.033700 6.183100 0.136500
v 0.006000 6.306200 0.046300
v 0.033700 6.420700 0.136500
v 0.006000 6.543700 0.046300
v 0.033700 6.658200 0.136500
v 0.006000 6.781300 0.046300
v 0.033700 6.895800 0.136500
v 0.006000 7.018800 0.046300
v 0.033700 7.133300 0.136500
v 0.006000 7.256400 0.046300
v 0.033700 7.370900 0.136500
v 0.006000 7.494000 0.046300
v 0.033700 7.608500 0.136500
v 0.006000 7.731500 0.046300
v 0.033700 7.846000 0.136500
v 0.006000 7.969100 0.046300
v 0.131900 5.823400 0.145600
v 0.131900 6.061000 0.145600
v 0.131900 6.298600 0.145600
v 0.131900 6.536100 0.145600
v 0.131900 6.773700 0.145600
v 0.131900 7.011200 0.145600
v 0.131900 7.248800 0.145600
v 0.131900 7.486400 0.145600
v 0.131900 7.723900 0.145600
v 0.159000 4.588300 -0.125300
v 0.159000 4.825900 -0.125300
v 0.159000 5.063400 -0.125300
v 0.159000 5.301000 -0.125300
v 0.159000 5.538600 -0.125300
v 0.159000 5.776100 -0.125300
v 0.159000 6.013700 -0.125300
v 0.159000 6.251200 -0.125300
v 0.159000 6.488800 -0.125300
v 0.160900 5.566300 -0.020600
v 0.160900 5.803900 -0.020600
v 0.160900 6.041400 -0.020600
v 0.160900 6.279000 -0.020600
v 0.160900 6.516600 -0.020600
v 0.160900 6.754100 -0.020600
v 0.160900 6.991700 -0.020600
v 0.160900 7.229200 -0.020600
v 0.160900 7.466800 -0.020600
v 0.202900 5.721600 0.070100
v 0.202900 5.959100 0.070100
v 0.202900 6.196700 0.070100
v 0.202900 6.434300 0.070100
v 0.202900 6.671800 0.070100
v 0.202900 6.909400 0.070100
v 0.202900 7.146900 0.070100
v 0.202900 7.384500 0.070100
v 0.202900 7.622100 0.070100
v -0.136300 0.000000 -0.099000
v -0.168500 0.000000 0.000000
v -0.100700 1.043900 -0.073200
v -0.124500 1.043900 0.000000
v -0.136300 0.000000 0.099000
v -0.100700 1.043900 0.073200
v -0.052000 0.000000 -0.160200
v -0.038400 1.043900 -0.118400
v -0.052000 0.000000 0.160200
v -0.038400 1.043900 0.118400
v -0.076900 8.069800 -0.055900
v -0.076900 8.069800 0.055900
v -0.076900 8.131600 -0.055900
v -0.076900 8.131600 0.055900
v -0.047500 8.019800 0.034500
v -0.047500 8.019800 -0.034500
v -0.047500 8.181600 -0.034500
v -0.047500 8.181600 0.034500
v -0.075300 1.043900 -0.054700
v -0.093100 1.043900 0.000000
v -0.044800 7.999900 0.000000
v -0.075300 1.043900 0.054700
v 0.000000 7.999900 -0.048800
v -0.028700 1.043900 -0.088600
v 0.000000 7.999900 0.048800
v -0.028700 1.043900 0.088600
v 0.029300 8.069800 0.090400
v 0.029300 8.131600 0.090400
v 0.029300 8.069800 -0.090400
v 0.029300 8.131600 -0.090400
v 0.018100 8.181600 -0.055900
v 0.018100 8.019800 -0.055900
v 0.018100 8.019800 0.055900
v 0.018100 8.181600 0.055900
v 0.000000 8.000700 0.000000
v 0.000000 8.200700 0.000000
v 0.052000 0.000000 -0.160200
v 0.038400 1.043900 -0.118400
v 0.052000 0.000000 0.160200
v 0.038400 1.043900 0.118400
v -0.100700 1.043900 -0.073200
v 0.100700 1.043900 -0.073200
v -0.038400 1.043900 -0.118400
v 0.038400 1.043900 -0.118400
v -0.124500 1.043900 0.000000
v 0.124500 1.043900 0.000000
v -0.100700 1.043900 0.073200
v 0.100700 1.043900 0.073200
v 0.038400 1.043900 0.118400
v -0.038400 1.043900 0.118400
v 0.028700 1.043900 -0.088600
v 0.028700 1.043900 0.088600
v -0.044800 7.999900 0.000000
v 0.044800 7.999900 0.000000
v 0.000000 7.999900 -0.048800
v 0.000000 7.999900 0.048800
v 0.058700 8.019800 0.000000
v 0.058700 8.181600 0.000000
v 0.044800 7.999900 0.000000
v 0.075300 1.043900 -0.054700
v 0.075300 1.043900 0.054700
v 0.093100 1.043900 0.000000
v 0.095100 8.069800 0.000000
v 0.095100 8.131600 0.000000
v 0.136300 0.000000 -0.099000
v 0.100700 1.043900 -0.073200
v 0.136300 0.000000 0.099000
v 0.100700 1.043900 0.073200
v 0.168500 0.000000 0.000000
v 0.124500 1.043900 0.000000
vt 0.414000 0.398400
vt 0.414000 0.398400
vt 0.414000 0.398400
vt 0.414000 0.398400
vt 0.414000 0.398400
vt 0.414000 0.398400
vt 0.414000 0.398400
vt 0.414000 0.398400
vt 0.414000 0.398400
vt 0.414000 0.398400
vt 0.414000 0.398400
vt 0.414000 0.398400
vt 0.414000 0.398400
vt 0.414000 0.398400
vt 0.414000 0.398400
vt 0.414000 0.398400
vt 0.414000 0.398400
vt 0.414000 0.398400
vt 0.414000 0.398400
vt 0.414000 0.398400
vt 0.414000 0.398400
vt 0.414000 0.398400
vt 0.414000 0.398400
vt 0.414000 0.398400
vt 0.414000 0.398400
vt 0.414000 0.398400
vt 0.414000 0.398400
vt 0.414000 0.398400
vt 0.414000 0.398400
vt 0.414000 0.398400
vt 0.414000 0.398400
vt 0.414000 0.398400
vt 0.414000 0.398400
vt 0.414000 0.398400
vt 0.414000 0.398400
vt 0.414000 0.398400
vt 0.414000 0.398400
vt 0.414000 0.398400
vt 0.414000 0.398400
vt 0.414000 0.398400
vt 0.414000 0.398400
vt 0.414000 0.398400
vt 0.414000 0.398400
vt 0.414000 0.398400
vt 0.414000 0.398400
vt 0.414000 0.398400
vt 0.414000 0.398400
vt 0.414000 0.398400
vt 0.414000 0.398400
vt 0.414000 0.398400
vt 0.414000 0.398400
vt 0.414000 0.398400
vt 0.414000 0.398400
vt 0.414000 0.398400
vt 0.414000 0.398400
vt 0.414000 0.398400
vt 0.414000 0.398400
vt 0.414000 0.398400
vt 0.414000 0.398400
vt 0.414000 0.398400
vt 0.414000 0.398400
vt 0.414000 0.398400
vt 0.414000 0.398400
vt 0.414000 0.398400
vt 0.414000 0.398400
vt 0.414000 0.398400
vt 0.414000 0.398400
vt 0.414000 0.398400
vt 0.414000 0.398400
vt 0.414000 0.398400
vt 0.414000 0.398400
vt 0.414000 0.398400
vt 0.414000 0.398400
vt 0.414000 0.398400
vt 0.414000 0.398400
vt 0.414000 0.398400
vt 0.414000 0.398400
vt 0.414000 0.398400
vt 0.414000 0.398400
vt 0.414000 0.398400
vt 0.414000 0.398400
vt 0.414000 0.398400
vt 0.414000 0.398400
vt 0.414000 0.398400
vt 0.414000 0.398400
vt 0.414000 0.398400
vt 0.414000 0.398400
vt 0.414000 0.398400
vt 0.414000 0.398400
vt 0.414000 0.398400
vt 0.414000 0.398400
vt 0.414000 0.398400
vt 0.414000 0.398400
vt 0.414000 0.398400
vt 0.414000 0.398400
vt 0.414000 0.398400
vt 0.414000 0.398400
vt 0.414000 0.398400
vt 0.414000 0.398400
vt 0.257800 0.492100
vt 0.257800 0.492100
vt 0.257800 0.492100
vt 0.257800 0.492100
vt 0.257800 0.492100
vt 0.257800 0.492100
vt 0.257800 0.492100
vt 0.257800 0.492100
vt 0.257800 0.492100
vt 0.257800 0.492100
vt 0.351500 0.304600
vt 0.351500 0.304600
vt 0.351500 0.304600
vt 0.351500 0.304600
vt 0.351500 0.304600
vt 0.351500 0.304600
vt 0.351500 0.304600
vt 0.351500 0.304600
vt 0.273400 0.492100
vt 0.273400 0.492100
vt 0.273400 0.492100
vt 0.273400 0.492100
vt 0.273400 0.492100
vt 0.273400 0.492100
vt 0.273400 0.492100
vt 0.273400 0.492100
vt 0.351500 0.304600
vt 0.351500 0.304600
vt 0.351500 0.304600
vt 0.351500 0.304600
vt 0.351500 0.304600
vt 0.351500 0.304600
vt 0.351500 0.304600
vt 0.351500 0.304600
vt 0.351500 0.304600
vt 0.351500 0.304600
vt 0.257800 0.492100
vt 0.257800 0.492100
vt 0.257800 0.492100
vt 0.257800 0.492100
vt 0.257800 0.476500
vt 0.257800 0.476500
vt 0.257800 0.476500
vt 0.257800 0.476500
vt 0.257800 0.476500
vt 0.257800 0.476500
vt 0.257800 0.476500
vt 0.257800 0.476500
vt 0.257800 0.476500
vt 0.257800 0.476500
vt 0.273400 0.492100
vt 0.273400 0.492100
vt 0.273400 0.492100
vt 0.273400 0.492100
vt 0.273400 0.492100
vt 0.273400 0.492100
vt 0.351500 0.304600
vt 0.351500 0.304600
vt 0.273400 0.492100
vt 0.273400 0.492100
vt 0.273400 0.492100
vt 0.273400 0.492100
vt 0.351500 0.304600
vt 0.351500 0.304600
vt 0.257800 0.492100
vt 0.257800 0.492100
vt 0.257800 0.492100
vt 0.257800 0.492100
vt 0.257800 0.492100
vt 0.257800 0.492100
vn -0.067641 0.000000 -0.997710
vn -0.993424 0.000000 -0.114490
vn -0.276469 0.000000 -0.961023
vn -0.761386 0.000000 0.648298
vn -0.276422 0.000000 -0.961036
vn -0.761539 0.000000 0.648119
vn -0.276375 0.000000 -0.961050
vn -0.761692 0.000000 0.647940
vn -0.276469 0.000000 -0.961023
vn -0.761387 0.000000 0.648298
vn -0.276375 0.000000 -0.961050
vn -0.761692 0.000000 0.647940
vn -0.276469 0.000000 -0.961023
vn -0.761387 0.000000 0.648297
vn -0.276422 0.000000 -0.961036
vn -0.761540 0.000000 0.648118
vn -0.505116 0.000000 -0.863051
vn 0.000000 0.000000 1.000000
vn 0.199116 0.000000 0.979976
vn 0.085341 0.000000 0.996352
vn 0.085341 0.000000 0.996352
vn 0.085341 0.000000 0.996352
vn 0.085318 0.000000 0.996354
vn 0.085364 0.000000 0.996350
vn 0.085341 0.000000 0.996352
vn 0.085341 0.000000 0.996352
vn -0.018905 0.000000 0.999821
vn 0.124625 0.000000 -0.992204
vn 0.151527 0.000000 -0.988453
vn 0.151515 0.000000 -0.988455
vn 0.151521 0.000000 -0.988454
vn 0.151527 0.000000 -0.988453
vn 0.151515 0.000000 -0.988455
vn 0.151527 0.000000 -0.988453
vn 0.151515 0.000000 -0.988455
vn 0.177884 0.000000 -0.984051
vn -0.368133 0.000000 0.929773
vn -0.448953 0.000000 0.893555
vn -0.448953 0.000000 0.893555
vn -0.448953 0.000000 0.893555
vn -0.448969 0.000000 0.893547
vn -0.448937 0.000000 0.893564
vn -0.448953 0.000000 0.893555
vn -0.448953 0.000000 0.893555
vn -0.523213 0.000000 0.852202
vn 0.435446 0.000000 -0.900215
vn 0.955939 0.000000 -0.293564
vn 0.619280 0.000000 -0.785170
vn 0.955939 0.000000 -0.293565
vn 0.619280 0.000000 -0.785170
vn 0.955939 0.000000 -0.293564
vn 0.619280 0.000000 -0.785170
vn 0.955939 0.000000 -0.293565
vn 0.619280 0.000000 -0.785170
vn 0.955939 0.000000 -0.293564
vn 0.619281 0.000000 -0.785170
vn 0.955939 0.000000 -0.293564
vn 0.619280 0.000000 -0.785170
vn 0.955939 0.000000 -0.293565
vn 0.619281 0.000000 -0.785170
vn 0.955939 0.000000 -0.293564
vn 0.776892 0.000000 -0.629634
vn 0.955939 0.000000 -0.293565
vn -0.508595 0.000000 -0.861006
vn -0.365312 0.000000 -0.930885
vn -0.365312 0.000000 -0.930885
vn -0.365312 0.000000 -0.930885
vn -0.365312 0.000000 -0.930885
vn -0.365312 0.000000 -0.930885
vn -0.365312 0.000000 -0.930885
vn -0.365312 0.000000 -0.930885
vn -0.209529 0.000000 -0.977802
vn 0.069420 0.000000 -0.997588
vn 0.069420 0.000000 -0.997588
vn 0.069420 0.000000 -0.997588
vn 0.069420 0.000000 -0.997588
vn 0.069420 0.000000 -0.997588
vn 0.069420 0.000000 -0.997588
vn 0.069420 0.000000 -0.997588
vn 0.069420 0.000000 -0.997588
vn 0.069420 0.000000 -0.997588
vn -0.736492 0.000000 0.676447
vn -0.781399 0.000000 0.624031
vn -0.781400 0.000000 0.624031
vn -0.781399 0.000000 0.624031
vn -0.781399 0.000000 0.624031
vn -0.781399 0.000000 0.624031
vn -0.781399 0.000000 0.624031
vn -0.781399 0.000000 0.624031
vn -0.825815 0.000000 0.563941
vn -0.998719 0.000000 0.050600
vn -0.985108 0.000000 -0.171938
vn -0.985116 0.000000 -0.171892
vn -0.985124 0.000000 -0.171844
vn -0.985108 0.000000 -0.171938
vn -0.985124 0.000000 -0.171844
vn -0.985108 0.000000 -0.171938
vn -0.985116 0.000000 -0.171891
vn -0.924058 0.000000 -0.382252
vn -0.753595 0.041921 -0.656001
vn -0.995295 0.041948 -0.087345
vn -0.877609 0.041735 -0.477558
vn -0.990636 0.041752 0.129986
vn -0.808044 0.042089 0.587616
vn -0.808049 0.042080 0.587610
vn -0.224742 0.041910 -0.973517
vn -0.429622 0.041708 -0.902045
vn -0.308824 0.042071 0.950188
vn -0.308799 0.042064 0.950197
vn -0.733241 -0.287518 -0.616191
vn -0.813106 -0.287259 0.506301
vn -0.813107 0.287261 -0.506299
vn -0.733240 0.287520 0.616192
vn -0.629092 -0.739055 0.240917
vn -0.423966 -0.739061 -0.523490
vn -0.629086 0.739061 -0.240916
vn -0.423963 0.739066 0.523485
vn -0.782843 0.007706 -0.622172
vn -0.999976 0.006943 0.000000
vn -0.999958 0.009141 0.000000
vn -0.782843 0.007706 0.622172
vn 0.000000 0.009467 -0.999955
vn -0.309906 0.006719 -0.950743
vn 0.000000 0.009467 0.999955
vn -0.309906 0.006719 0.950743
vn 0.230962 -0.287172 0.929618
vn 0.359671 0.287070 0.887822
vn 0.359670 -0.287068 -0.887823
vn 0.230960 0.287174 -0.929617
vn 0.035044 0.739129 -0.672651
vn 0.366998 -0.738990 -0.564983
vn 0.035044 -0.739124 0.672657
vn 0.366995 0.738995 0.564979
vn -0.000000 -1.000000 0.000000
vn 0.000000 1.000000 0.000000
vn 0.308824 0.042071 -0.950188
vn 0.308799 0.042064 -0.950197
vn 0.224742 0.041910 0.973517
vn 0.429622 0.041708 0.902045
vn 0.000000 1.000000 0.000000
vn 0.000000 1.000000 0.000000
vn 0.000000 1.000000 0.000000
vn 0.000000 1.000000 0.000000
vn 0.000000 1.000000 0.000000
vn 0.000000 1.000000 0.000000
vn 0.000000 1.000000 0.000000
vn 0.000000 1.000000 0.000000
vn 0.000000 1.000000 0.000000
vn 0.000000 1.000000 0.000000
vn 0.309906 0.006719 -0.950743
vn 0.309906 0.006719 0.950743
vn 0.000000 1.000000 0.000000
vn 0.000000 1.000000 0.000000
vn 0.000000 1.000000 0.000000
vn 0.000000 1.000000 0.000000
vn 0.650474 -0.739148 0.174765
vn 0.650469 0.739154 -0.174763
vn 0.999958 0.009141 0.000000
vn 0.782843 0.007706 -0.622172
vn 0.782843 0.007706 0.622172
vn 0.999976 0.006943 0.000000
vn 0.955337 -0.287581 0.068035
vn 0.955336 0.287583 -0.068037
vn 0.808044 0.042089 -0.587616
vn 0.808049 0.042080 -0.587610
vn 0.753595 0.041921 0.656001
vn 0.877609 0.041735 0.477558
vn 0.995295 0.041948 0.087345
vn 0.990636 0.041752 -0.129986
f 37/37/37 20/20/20 19/19/19 
f 19/19/19 4/4/4 2/2/2 
f 20/20/20 4/4/4 19/19/19 
f 20/20/20 4/4/4 4/4/4 
f 6/6/6 4/4/4 20/20/20 
f 6/6/6 5/5/5 4/4/4 
f 7/7/7 5/5/5 6/6/6 
f 2/2/2 3/3/3 1/1/1 
f 4/4/4 3/3/3 2/2/2 
f 4/4/4 5/5/5 3/3/3 
f 82/82/82 37/37/37 82/82/82 
f 38/38/38 37/37/37 82/82/82 
f 38/38/38 20/20/20 37/37/37 
f 21/21/21 20/20/20 38/38/38 
f 21/21/21 6/6/6 20/20/20 
f 8/8/8 6/6/6 21/21/21 
f 8/8/8 7/7/7 6/6/6 
f 9/9/9 7/7/7 8/8/8 
f 9/9/9 7/7/7 7/7/7 
f 32/32/32 7/7/7 9/9/9 
f 32/32/32 7/7/7 7/7/7 
f 31/31/31 7/7/7 32/32/32 
f 31/31/31 5/5/5 7/7/7 
f 9/9/9 33/33/33 32/32/32 
f 80/80/80 34/34/34 35/35/35 
f 79/79/79 34/34/34 80/80/80 
f 79/79/79 33/33/33 34/34/34 
f 78/78/78 33/33/33 79/79/79 
f 78/78/78 32/32/32 33/33/33 
f 77/77/77 32/32/32 78/78/78 
f 77/77/77 31/31/31 32/32/32 
f 76/76/76 31/31/31 77/77/77 
f 76/76/76 30/30/30 31/31/31 
f 75/75/75 30/30/30 76/76/76 
f 31/31/31 5/5/5 31/31/31 
f 30/30/30 5/5/5 31/31/31 
f 30/30/30 3/3/3 5/5/5 
f 29/29/29 3/3/3 30/30/30 
f 29/29/29 1/1/1 3/3/3 
f 28/28/28 1/1/1 29/29/29 
f 75/75/75 29/29/29 30/30/30 
f 74/74/74 29/29/29 75/75/75 
f 74/74/74 28/28/28 29/29/29 
f 73/73/73 28/28/28 74/74/74 
f 87/87/87 42/42/42 86/86/86 
f 87/87/87 95/95/95 96/96/96 
f 86/86/86 95/95/95 87/87/87 
f 86/86/86 94/94/94 95/95/95 
f 86/86/86 94/94/94 86/86/86 
f 86/86/86 85/85/85 94/94/94 
f 86/86/86 85/85/85 86/86/86 
f 86/86/86 41/41/41 85/85/85 
f 42/42/42 41/41/41 86/86/86 
f 42/42/42 24/24/24 41/41/41 
f 85/85/85 40/40/40 84/84/84 
f 41/41/41 40/40/40 85/85/85 
f 41/41/41 23/23/23 40/40/40 
f 24/24/24 23/23/23 41/41/41 
f 24/24/24 12/12/12 23/23/23 
f 84/84/84 39/39/39 83/83/83 
f 40/40/40 39/39/39 84/84/84 
f 40/40/40 22/22/22 39/39/39 
f 23/23/23 22/22/22 40/40/40 
f 23/23/23 10/10/10 22/22/22 
f 12/12/12 10/10/10 23/23/23 
f 12/12/12 11/11/11 10/10/10 
f 12/12/12 11/11/11 12/12/12 
f 12/12/12 13/13/13 11/11/11 
f 12/12/12 13/13/13 12/12/12 
f 12/12/12 14/14/14 13/13/13 
f 24/24/24 14/14/14 12/12/12 
f 22/22/22 8/8/8 21/21/21 
f 10/10/10 8/8/8 22/22/22 
f 10/10/10 9/9/9 8/8/8 
f 11/11/11 9/9/9 10/10/10 
f 11/11/11 33/33/33 9/9/9 
f 11/11/11 33/33/33 11/11/11 
f 11/11/11 34/34/34 33/33/33 
f 13/13/13 34/34/34 11/11/11 
f 13/13/13 35/35/35 34/34/34 
f 13/13/13 35/35/35 13/13/13 
f 13/13/13 15/15/15 35/35/35 
f 14/14/14 15/15/15 13/13/13 
f 45/45/45 44/44/44 45/45/45 
f 27/27/27 44/44/44 45/45/45 
f 27/27/27 26/26/26 44/44/44 
f 18/18/18 26/26/26 27/27/27 
f 18/18/18 16/16/16 26/26/26 
f 17/17/17 16/16/16 18/18/18 
f 17/17/17 15/15/15 16/16/16 
f 36/36/36 15/15/15 17/17/17 
f 36/36/36 35/35/35 15/15/15 
f 81/81/81 35/35/35 36/36/36 
f 81/81/81 35/35/35 35/35/35 
f 80/80/80 35/35/35 81/81/81 
f 14/14/14 16/16/16 15/15/15 
f 25/25/25 16/16/16 14/14/14 
f 25/25/25 26/26/26 16/16/16 
f 43/43/43 26/26/26 25/25/25 
f 43/43/43 44/44/44 26/26/26 
f 88/88/88 44/44/44 43/43/43 
f 88/88/88 89/89/89 44/44/44 
f 97/97/97 89/89/89 88/88/88 
f 97/97/97 98/98/98 89/89/89 
f 70/70/70 98/98/98 97/97/97 
f 24/24/24 25/25/25 14/14/14 
f 42/42/42 25/25/25 24/24/24 
f 42/42/42 43/43/43 25/25/25 
f 87/87/87 43/43/43 42/42/42 
f 87/87/87 88/88/88 43/43/43 
f 96/96/96 88/88/88 87/87/87 
f 96/96/96 97/97/97 88/88/88 
f 69/69/69 97/97/97 96/96/96 
f 69/69/69 70/70/70 97/97/97 
f 56/56/56 70/70/70 69/69/69 
f 56/56/56 58/58/58 70/70/70 
f 57/57/57 58/58/58 56/56/56 
f 57/57/57 59/59/59 58/58/58 
f 70/70/70 71/71/71 98/98/98 
f 58/58/58 71/71/71 70/70/70 
f 58/58/58 60/60/60 71/71/71 
f 59/59/59 60/60/60 58/58/58 
f 59/59/59 61/61/61 60/60/60 
f 63/63/63 61/61/61 63/63/63 
f 62/62/62 61/61/61 63/63/63 
f 62/62/62 60/60/60 61/61/61 
f 72/72/72 60/60/60 62/62/62 
f 72/72/72 71/71/71 60/60/60 
f 99/99/99 71/71/71 72/72/72 
f 99/99/99 98/98/98 71/71/71 
f 90/90/90 98/98/98 99/99/99 
f 90/90/90 89/89/89 98/98/98 
f 45/45/45 89/89/89 90/90/90 
f 45/45/45 44/44/44 89/89/89 
f 68/68/68 52/52/52 54/54/54 
f 67/67/67 52/52/52 68/68/68 
f 67/67/67 50/50/50 52/52/52 
f 66/66/66 50/50/50 67/67/67 
f 66/66/66 48/48/48 50/50/50 
f 66/66/66 48/48/48 66/66/66 
f 66/66/66 65/65/65 48/48/48 
f 93/93/93 65/65/65 66/66/66 
f 93/93/93 92/92/92 65/65/65 
f 84/84/84 92/92/92 93/93/93 
f 84/84/84 83/83/83 92/92/92 
f 56/56/56 54/54/54 56/56/56 
f 69/69/69 54/54/54 56/56/56 
f 69/69/69 68/68/68 54/54/54 
f 96/96/96 68/68/68 69/69/69 
f 96/96/96 68/68/68 68/68/68 
f 95/95/95 68/68/68 96/96/96 
f 95/95/95 67/67/67 68/68/68 
f 94/94/94 67/67/67 95/95/95 
f 94/94/94 66/66/66 67/67/67 
f 94/94/94 66/66/66 94/94/94 
f 94/94/94 93/93/93 66/66/66 
f 85/85/85 93/93/93 94/94/94 
f 85/85/85 84/84/84 93/93/93 
f 48/48/48 46/46/46 48/48/48 
f 65/65/65 46/46/46 48/48/48 
f 65/65/65 64/64/64 46/46/46 
f 92/92/92 64/64/64 65/65/65 
f 92/92/92 91/91/91 64/64/64 
f 83/83/83 91/91/91 92/92/92 
f 83/83/83 82/82/82 91/91/91 
f 83/83/83 82/82/82 83/83/83 
f 83/83/83 38/38/38 82/82/82 
f 39/39/39 38/38/38 83/83/83 
f 39/39/39 21/21/21 38/38/38 
f 22/22/22 21/21/21 39/39/39 
f 56/56/56 55/55/55 57/57/57 
f 54/54/54 55/55/55 56/56/56 
f 54/54/54 53/53/53 55/55/55 
f 52/52/52 53/53/53 54/54/54 
f 52/52/52 51/51/51 53/53/53 
f 50/50/50 51/51/51 52/52/52 
f 50/50/50 49/49/49 51/51/51 
f 48/48/48 49/49/49 50/50/50 
f 48/48/48 47/47/47 49/49/49 
f 48/48/48 47/47/47 48/48/48 
f 48/48/48 46/46/46 47/47/47 
f 155/155/155 152/152/152 155/155/155 
f 153/153/153 152/152/152 155/155/155 
f 153/153/153 154/154/154 152/152/152 
f 133/133/133 117/117/117 127/127/127 
f 133/133/133 117/117/117 133/133/133 
f 133/133/133 135/135/135 117/117/117 
f 133/133/133 135/135/135 133/133/133 
f 133/133/133 157/157/157 135/135/135 
f 133/133/133 157/157/157 133/133/133 
f 133/133/133 163/163/163 157/157/157 
f 127/127/127 163/163/163 133/133/133 
f 127/127/127 162/162/162 163/163/163 
f 127/127/127 113/113/113 127/127/127 
f 117/117/117 113/113/113 127/127/127 
f 117/117/117 116/116/116 113/113/113 
f 135/135/135 116/116/116 117/117/117 
f 135/135/135 130/130/130 116/116/116 
f 157/157/157 130/130/130 135/135/135 
f 157/157/157 129/129/129 130/130/130 
f 163/163/163 129/129/129 157/157/157 
f 163/163/163 128/128/128 129/129/129 
f 162/162/162 128/128/128 163/163/163 
f 162/162/162 128/128/128 128/128/128 
f 131/131/131 128/128/128 162/162/162 
f 131/131/131 128/128/128 131/131/131 
f 115/115/115 128/128/128 131/131/131 
f 115/115/115 128/128/128 128/128/128 
f 110/110/110 128/128/128 115/115/115 
f 110/110/110 129/129/129 128/128/128 
f 112/112/112 129/129/129 110/110/110 
f 112/112/112 130/130/130 129/129/129 
f 112/112/112 130/130/130 112/112/112 
f 112/112/112 116/116/116 130/130/130 
f 112/112/112 116/116/116 112/112/112 
f 112/112/112 113/113/113 116/116/116 
f 111/111/111 113/113/113 112/112/112 
f 111/111/111 126/126/126 113/113/113 
f 132/132/132 126/126/126 111/111/111 
f 132/132/132 156/156/156 126/126/126 
f 132/132/132 156/156/156 132/132/132 
f 132/132/132 134/134/134 156/156/156 
f 132/132/132 134/134/134 132/132/132 
f 132/132/132 114/114/114 134/134/134 
f 111/111/111 114/114/114 132/132/132 
f 112/112/112 111/111/111 112/112/112 
f 110/110/110 111/111/111 112/112/112 
f 110/110/110 114/114/114 111/111/111 
f 115/115/115 114/114/114 110/110/110 
f 115/115/115 134/134/134 114/114/114 
f 131/131/131 134/134/134 115/115/115 
f 131/131/131 156/156/156 134/134/134 
f 162/162/162 156/156/156 131/131/131 
f 162/162/162 126/126/126 156/156/156 
f 127/127/127 126/126/126 162/162/162 
f 127/127/127 113/113/113 126/126/126 
f 138/138/138 139/139/139 138/138/138 
f 166/166/166 139/139/139 138/138/138 
f 166/166/166 167/167/167 139/139/139 
f 168/168/168 167/167/167 166/166/166 
f 168/168/168 169/169/169 167/167/167 
f 164/164/164 169/169/169 168/168/168 
f 164/164/164 165/165/165 169/169/169 
f 164/164/164 165/165/165 164/164/164 
f 164/164/164 137/137/137 165/165/165 
f 136/136/136 137/137/137 164/164/164 
f 136/136/136 137/137/137 137/137/137 
f 106/106/106 137/137/137 136/136/136 
f 106/106/106 107/107/107 137/137/137 
f 100/100/100 107/107/107 106/106/106 
f 100/100/100 107/107/107 100/100/100 
f 100/100/100 102/102/102 107/107/107 
f 101/101/101 102/102/102 100/100/100 
f 101/101/101 103/103/103 102/102/102 
f 104/104/104 103/103/103 101/101/101 
f 104/104/104 105/105/105 103/103/103 
f 104/104/104 105/105/105 104/104/104 
f 104/104/104 109/109/109 105/105/105 
f 108/108/108 109/109/109 104/104/104 
f 108/108/108 109/109/109 109/109/109 
f 138/138/138 109/109/109 108/108/108 
f 138/138/138 139/139/139 109/109/109 
f 142/142/142 141/141/141 143/143/143 
f 140/140/140 141/141/141 142/142/142 
f 140/140/140 145/145/145 141/141/141 
f 144/144/144 145/145/145 140/140/140 
f 144/144/144 145/145/145 145/145/145 
f 146/146/146 145/145/145 144/144/144 
f 146/146/146 147/147/147 145/145/145 
f 146/146/146 147/147/147 146/146/146 
f 146/146/146 148/148/148 147/147/147 
f 149/149/149 148/148/148 146/146/146 
f 159/159/159 122/122/122 159/159/159 
f 150/150/150 122/122/122 159/159/159 
f 150/150/150 122/122/122 122/122/122 
f 123/123/123 122/122/122 150/150/150 
f 123/123/123 122/122/122 122/122/122 
f 118/118/118 122/122/122 123/123/123 
f 118/118/118 120/120/120 122/122/122 
f 119/119/119 120/120/120 118/118/118 
f 121/121/121 120/120/120 119/119/119 
f 121/121/121 124/124/124 120/120/120 
f 125/125/125 124/124/124 121/121/121 
f 125/125/125 124/124/124 124/124/124 
f 151/151/151 124/124/124 125/125/125 
f 151/151/151 124/124/124 124/124/124 
f 160/160/160 124/124/124 151/151/151 
f 160/160/160 158/158/158 124/124/124 
f 161/161/161 158/158/158 160/160/160 
f 161/161/161 158/158/158 158/158/158 
f 159/159/159 158/158/158 161/161/161 
f 159/159/159 122/122/122 158/158/158 
