v -2.291500 5.523600 0.051700
v -2.291500 5.326500 0.052400
v -2.291500 5.459200 0.107400
v -2.291500 5.390900 0.107400
v -2.291500 5.524400 -0.039000
v -2.291500 5.459200 -0.091900
v -2.291500 5.326400 -0.039700
v -2.291500 5.390900 -0.091900
v -2.001300 5.511200 -0.692300
v -2.040800 5.424600 -0.692300
v -2.003000 5.511200 0.761200
v -2.040700 5.424400 0.761200
v -2.001500 5.335900 -0.692300
v -1.998000 5.340100 0.761200
v -1.903900 5.511200 0.761200
v -1.904000 5.511200 -0.692300
v -1.863700 5.420700 0.761200
v -1.903900 5.511200 0.761200
v -2.040700 5.424400 0.761200
v -2.003000 5.511200 0.761200
v -1.863600 5.420700 -0.692300
v -1.904100 5.334000 -0.692300
v -2.040800 5.424600 -0.692300
v -2.001500 5.335900 -0.692300
v -1.904000 5.511200 -0.692300
v -2.001300 5.511200 -0.692300
v -1.898800 5.336000 0.761200
v -1.904100 5.334000 -0.692300
v -1.898800 5.336000 0.761200
v -1.998000 5.340100 0.761200
v -1.863600 5.420700 -0.692300
v -1.863700 5.420700 0.761200
v -1.149900 3.385600 0.003100
v -1.149900 3.418900 0.072100
v -1.149900 3.536300 0.003100
v -1.149900 3.512400 0.069100
v -1.149900 3.512400 -0.062900
v -1.149900 3.418900 -0.065900
v -0.378300 0.004500 -0.276500
v -0.471800 0.004500 0.135900
v -0.378300 1.793600 -0.276500
v -0.471800 1.793600 0.135900
v -0.239000 0.004500 0.457300
v -0.239000 1.793600 0.457300
v -0.251100 1.870300 -0.200200
v -0.313100 1.870300 0.071400
v -0.163800 1.870300 0.279000
v 0.000000 0.004500 -0.460100
v 0.000000 1.793600 -0.460100
v -0.085800 1.911900 -0.070100
v -0.100900 1.911900 0.021900
v 0.000000 1.870300 -0.321200
v -0.042100 1.911900 0.103500
v -0.085800 1.911900 -0.070100
v -0.100900 1.911900 0.021900
v -0.085900 5.662200 -0.062000
v -0.101000 5.662200 0.030100
v -0.000200 1.911900 -0.112500
v -0.042100 1.911900 0.103500
v -0.045700 5.662200 0.111200
v -0.000200 1.911900 -0.112500
v -0.000200 5.662200 -0.104500
v 0.209500 1.793600 0.459100
v 0.130100 1.870300 0.282200
v 0.209500 0.004500 0.459100
v 0.041200 1.911900 0.104100
v 0.041200 5.662200 0.112300
v 0.041200 1.911900 0.104100
v 0.085100 5.662200 -0.062500
v -0.000200 5.662200 -0.104500
v -0.085900 5.662200 -0.062000
v -1.149900 3.385600 0.003100
v 1.149900 3.385600 0.003100
v -1.149900 3.418900 0.072100
v 1.149900 3.418900 0.072100
v -1.149900 3.418900 -0.065900
v 1.149900 3.418900 -0.065900
v -1.149900 3.512400 0.069100
v 1.149900 3.512400 0.069100
v -1.149900 3.512400 -0.062900
v 1.149900 3.512400 -0.062900
v 1.149900 3.536300 0.003100
v -1.149900 3.536300 0.003100
v 0.106700 5.662200 0.033200
v -0.101000 5.662200 0.030100
v 0.041200 5.662200 0.112300
v -0.045700 5.662200 0.111200
v 2.303400 5.326400 -0.039700
v 2.303400 5.326500 0.052400
v -2.291500 5.326400 -0.039700
v -2.291500 5.326500 0.052400
v -2.291500 5.390900 -0.091900
v 2.303400 5.390900 -0.091900
v 2.303400 5.390900 0.107400
v -2.291500 5.390900 0.107400
v 2.303400 5.459200 -0.091900
v -2.291500 5.459200 -0.091900
v 2.303400 5.459200 0.107400
v -2.291500 5.459200 0.107400
v 2.303400 5.523600 0.051700
v -2.291500 5.523600 0.051700
v 2.303400 5.524400 -0.039000
v -2.291500 5.524400 -0.039000
v 0.085100 5.662200 -0.062500
v 0.085400 1.911900 -0.070100
v 0.106700 5.662200 0.033200
v 0.106500 1.911900 0.025000
v 0.251100 1.870300 -0.200200
v 0.085400 1.911900 -0.070100
v 0.313100 1.870300 0.071400
v 0.106500 1.911900 0.025000
v 0.378300 1.793600 -0.276500
v 0.378300 0.004500 -0.276500
v 0.471800 1.793600 0.135900
v 0.471800 0.004500 0.135900
v 1.149900 3.536300 0.003100
v 1.149900 3.512400 0.069100
v 1.149900 3.385600 0.003100
v 1.149900 3.418900 0.072100
v 1.149900 3.418900 -0.065900
v 1.149900 3.512400 -0.062900
v 1.899200 5.511000 0.761400
v 1.901700 5.510900 -0.692500
v 1.863300 5.420100 0.761200
v 1.863200 5.420100 -0.692300
v 1.897700 5.336200 0.761100
v 1.911900 5.332600 -0.692300
v 2.039700 5.419400 0.761200
v 1.863300 5.420100 0.761200
v 2.004200 5.335000 0.761100
v 1.897700 5.336200 0.761100
v 1.899200 5.511000 0.761400
v 2.005100 5.511200 0.761400
v 2.004200 5.335000 0.761100
v 1.994200 5.332500 -0.692300
v 1.863200 5.420100 -0.692300
v 2.039800 5.419400 -0.692300
v 1.911900 5.332600 -0.692300
v 1.994200 5.332500 -0.692300
v 1.901700 5.510900 -0.692500
v 2.005900 5.511100 -0.692500
v 2.005900 5.511100 -0.692500
v 2.005100 5.511200 0.761400
v 2.039800 5.419400 -0.692300
v 2.039700 5.419400 0.761200
v 2.303400 5.523600 0.051700
v 2.303400 5.459200 0.107400
v 2.303400 5.326500 0.052400
v 2.303400 5.390900 0.107400
v 2.303400 5.524400 -0.039000
v 2.303400 5.326400 -0.039700
v 2.303400 5.459200 -0.091900
v 2.303400 5.390900 -0.091900
vt 0.351500 0.460900
vt 0.351500 0.460900
vt 0.351500 0.460900
vt 0.351500 0.460900
vt 0.351500 0.460900
vt 0.351500 0.460900
vt 0.351500 0.460900
vt 0.351500 0.460900
vt 0.367100 0.460900
vt 0.367100 0.460900
vt 0.367100 0.460900
vt 0.367100 0.460900
vt 0.367100 0.460900
vt 0.367100 0.460900
vt 0.367100 0.460900
vt 0.367100 0.460900
vt 0.351500 0.460900
vt 0.351500 0.460900
vt 0.351500 0.460900
vt 0.351500 0.460900
vt 0.351500 0.460900
vt 0.351500 0.460900
vt 0.351500 0.460900
vt 0.351500 0.460900
vt 0.351500 0.460900
vt 0.351500 0.460900
vt 0.367100 0.460900
vt 0.367100 0.460900
vt 0.351500 0.460900
vt 0.351500 0.460900
vt 0.367100 0.460900
vt 0.367100 0.460900
vt 0.351500 0.460900
vt 0.351500 0.460900
vt 0.351500 0.460900
vt 0.351500 0.460900
vt 0.351500 0.460900
vt 0.351500 0.460900
vt 0.195300 0.492100
vt 0.195300 0.492100
vt 0.195300 0.492100
vt 0.195300 0.492100
vt 0.195300 0.492100
vt 0.195300 0.492100
vt 0.195300 0.492100
vt 0.195300 0.492100
vt 0.195300 0.492100
vt 0.195300 0.492100
vt 0.195300 0.492100
vt 0.195300 0.492100
vt 0.195300 0.492100
vt 0.195300 0.492100
vt 0.195300 0.492100
vt 0.351500 0.945300
vt 0.351500 0.945300
vt 0.351500 0.945300
vt 0.351500 0.945300
vt 0.195300 0.492100
vt 0.351500 0.945300
vt 0.351500 0.945300
vt 0.351500 0.945300
vt 0.351500 0.945300
vt 0.195300 0.492100
vt 0.195300 0.492100
vt 0.195300 0.492100
vt 0.195300 0.492100
vt 0.351500 0.945300
vt 0.351500 0.945300
vt 0.367100 0.945300
vt 0.367100 0.945300
vt 0.367100 0.945300
vt 0.351500 0.960900
vt 0.351500 0.960900
vt 0.351500 0.960900
vt 0.351500 0.960900
vt 0.351500 0.960900
vt 0.351500 0.960900
vt 0.351500 0.960900
vt 0.351500 0.960900
vt 0.351500 0.960900
vt 0.351500 0.960900
vt 0.351500 0.960900
vt 0.351500 0.960900
vt 0.367100 0.945300
vt 0.367100 0.945300
vt 0.367100 0.945300
vt 0.367100 0.945300
vt 0.367100 0.445300
vt 0.367100 0.445300
vt 0.367100 0.445300
vt 0.367100 0.445300
vt 0.367100 0.445300
vt 0.367100 0.445300
vt 0.367100 0.445300
vt 0.367100 0.445300
vt 0.367100 0.445300
vt 0.367100 0.445300
vt 0.367100 0.445300
vt 0.367100 0.445300
vt 0.367100 0.445300
vt 0.367100 0.445300
vt 0.367100 0.445300
vt 0.367100 0.445300
vt 0.351500 0.945300
vt 0.351500 0.945300
vt 0.351500 0.945300
vt 0.351500 0.945300
vt 0.195300 0.492100
vt 0.195300 0.492100
vt 0.195300 0.492100
vt 0.195300 0.492100
vt 0.195300 0.492100
vt 0.195300 0.492100
vt 0.195300 0.492100
vt 0.195300 0.492100
vt 0.351500 0.460900
vt 0.351500 0.460900
vt 0.351500 0.460900
vt 0.351500 0.460900
vt 0.351500 0.460900
vt 0.351500 0.460900
vt 0.351500 0.445300
vt 0.351500 0.445300
vt 0.351500 0.445300
vt 0.351500 0.445300
vt 0.351500 0.445300
vt 0.351500 0.445300
vt 0.351500 0.460900
vt 0.351500 0.460900
vt 0.351500 0.460900
vt 0.351500 0.460900
vt 0.351500 0.460900
vt 0.351500 0.460900
vt 0.351500 0.445300
vt 0.351500 0.445300
vt 0.351500 0.460900
vt 0.351500 0.460900
vt 0.351500 0.460900
vt 0.351500 0.460900
vt 0.351500 0.460900
vt 0.351500 0.460900
vt 0.351500 0.445300
vt 0.351500 0.445300
vt 0.351500 0.445300
vt 0.351500 0.445300
vt 0.351500 0.460900
vt 0.351500 0.460900
vt 0.351500 0.460900
vt 0.351500 0.460900
vt 0.351500 0.460900
vt 0.351500 0.460900
vt 0.351500 0.460900
vt 0.351500 0.460900
vn -1.000000 0.000000 0.000000
vn -1.000000 0.000000 0.000000
vn -1.000000 0.000000 0.000000
vn -1.000000 0.000000 0.000000
vn -1.000000 0.000000 0.000000
vn -1.000000 0.000000 0.000000
vn -1.000000 0.000000 0.000000
vn -1.000000 0.000000 0.000000
vn -0.534875 0.844931 -0.000626
vn -0.989707 0.143112 -0.000338
vn -0.535316 0.844652 -0.000278
vn -0.985771 -0.168090 0.001283
vn -0.540542 -0.841314 0.002309
vn -0.528758 -0.848765 0.003726
vn 0.544797 0.838568 -0.000037
vn 0.547004 0.837130 0.000000
vn 0.000000 0.000000 1.000000
vn 0.000000 0.000000 1.000000
vn 0.000000 0.000000 1.000000
vn 0.000000 0.000000 1.000000
vn 0.000000 0.000000 -1.000000
vn 0.000000 0.000000 -1.000000
vn 0.000000 0.000000 -1.000000
vn 0.000000 0.000000 -1.000000
vn 0.000000 0.000000 -1.000000
vn 0.000000 0.000000 -1.000000
vn 0.519291 -0.854598 0.000574
vn 0.523823 -0.851827 -0.000738
vn 0.000000 0.000000 1.000000
vn 0.000000 0.000000 1.000000
vn 0.991088 -0.133204 -0.000940
vn 0.985652 0.168789 0.000022
vn -1.000000 0.000000 0.000000
vn -1.000000 0.000000 0.000000
vn -1.000000 0.000000 0.000000
vn -1.000000 0.000000 0.000000
vn -1.000000 0.000000 0.000000
vn -1.000000 0.000000 0.000000
vn -0.675886 0.000000 -0.737007
vn -0.999203 0.000000 0.039926
vn -0.868958 0.052522 -0.492091
vn -0.943286 0.079072 0.322427
vn -0.576297 0.000000 0.817240
vn -0.281555 0.108608 0.953379
vn -0.282708 0.930942 -0.231135
vn -0.298875 0.949380 0.096698
vn -0.124759 0.962311 0.241645
vn 0.159700 0.000000 -0.987166
vn -0.152126 0.080672 -0.985063
vn -0.184173 0.980119 -0.073805
vn -0.171999 0.981240 0.087082
vn 0.008699 0.950511 -0.310568
vn -0.039943 0.978172 0.203924
vn -0.688380 0.001544 -0.725348
vn -0.994257 -0.000262 0.107022
vn -0.890303 0.000961 -0.455367
vn -0.932114 -0.001067 0.362164
vn -0.055763 0.979293 -0.194617
vn -0.500591 -0.002082 0.865681
vn -0.500459 -0.002258 0.865757
vn 0.000000 0.002133 -0.999998
vn -0.001461 0.002120 -0.999997
vn 0.548524 0.090275 0.831247
vn 0.082894 0.953304 0.290414
vn 0.265769 0.000000 0.964037
vn 0.095577 0.978841 0.180926
vn 0.311991 -0.002035 0.950083
vn 0.592813 -0.001777 0.805338
vn 0.000000 1.000000 0.000000
vn 0.000000 1.000000 0.000000
vn 0.000000 1.000000 0.000000
vn 0.000000 -0.987306 -0.158827
vn 0.000000 -0.987306 0.158827
vn 0.000000 -0.644636 0.764489
vn 0.000000 -0.274952 0.961458
vn 0.000000 -0.274952 -0.961458
vn 0.000000 -0.644636 -0.764490
vn 0.000000 0.506699 0.862123
vn 0.000000 0.506699 0.862123
vn 0.000000 0.506699 -0.862123
vn 0.000000 0.506699 -0.862123
vn 0.000000 0.992794 0.119837
vn 0.000000 0.992794 -0.119837
vn 0.000000 1.000000 0.000000
vn 0.000000 1.000000 0.000000
vn 0.000000 1.000000 0.000000
vn 0.000000 1.000000 0.000000
vn 0.000000 -0.913184 -0.407548
vn 0.000000 -0.965412 0.260728
vn 0.000000 -0.913184 -0.407548
vn 0.000000 -0.843110 0.537741
vn 0.000000 -0.365826 -0.930683
vn 0.000000 -0.365826 -0.930683
vn 0.000000 -0.487334 0.873215
vn 0.000000 -0.263930 0.964542
vn 0.000000 0.469988 -0.882673
vn 0.000000 0.253573 -0.967316
vn 0.000000 0.267051 0.963682
vn 0.000000 0.492042 0.870571
vn 0.000000 0.841786 0.539812
vn 0.000000 0.963372 0.268169
vn 0.000000 0.965077 -0.261967
vn 0.000000 0.834784 -0.550577
vn 0.876279 0.001011 -0.481803
vn 0.682927 0.001557 -0.730485
vn 0.918639 -0.000898 0.395098
vn 0.996513 -0.000201 0.083443
vn 0.293084 0.927291 -0.232879
vn 0.151997 0.981024 -0.120370
vn 0.290927 0.949958 0.113759
vn 0.175446 0.979030 0.103536
vn 0.678146 0.052637 -0.733040
vn 0.872286 0.000000 -0.488996
vn 0.994727 0.077905 0.066705
vn 0.926173 0.000000 0.377100
vn 1.000000 0.000000 0.000000
vn 1.000000 0.000000 0.000000
vn 1.000000 0.000000 0.000000
vn 1.000000 0.000000 0.000000
vn 1.000000 0.000000 0.000000
vn 1.000000 0.000000 0.000000
vn -0.540515 0.841334 -0.000987
vn -0.539056 0.842270 -0.000496
vn -0.988845 0.148947 -0.000547
vn -0.985837 -0.167681 -0.002715
vn -0.673184 -0.739472 -0.001858
vn -0.350217 -0.936668 -0.001341
vn -0.000004 -0.001820 0.999998
vn -0.000008 -0.001595 0.999999
vn -0.000008 -0.001188 0.999999
vn -0.000013 -0.001198 0.999999
vn -0.000004 -0.002189 0.999998
vn 0.000004 -0.002177 0.999998
vn 0.532964 -0.846138 -0.000374
vn 0.561548 -0.827441 -0.002440
vn -0.000004 -0.001122 -0.999999
vn -0.000002 -0.001165 -0.999999
vn 0.000000 0.000000 -1.000000
vn 0.000000 0.000000 -1.000000
vn -0.000004 -0.002191 -0.999998
vn 0.000004 -0.002179 -0.999998
vn 0.552329 0.833626 0.000246
vn 0.549179 0.835705 0.000118
vn 0.999371 -0.035453 -0.001293
vn 0.999987 -0.005108 0.000069
vn 1.000000 0.000000 0.000000
vn 1.000000 0.000000 0.000000
vn 1.000000 0.000000 0.000000
vn 1.000000 0.000000 0.000000
vn 1.000000 0.000000 0.000000
vn 1.000000 0.000000 0.000000
vn 1.000000 0.000000 0.000000
vn 1.000000 0.000000 0.000000
f 36/36/36 34/34/34 36/36/36 
f 35/35/35 34/34/34 36/36/36 
f 35/35/35 33/33/33 34/34/34 
f 37/37/37 33/33/33 35/35/35 
f 37/37/37 38/38/38 33/33/33 
f 110/110/110 109/109/109 111/111/111 
f 58/58/58 52/52/52 58/58/58 
f 109/109/109 52/52/52 58/58/58 
f 109/109/109 108/108/108 52/52/52 
f 110/110/110 108/108/108 109/109/109 
f 110/110/110 114/114/114 108/108/108 
f 63/63/63 114/114/114 110/110/110 
f 63/63/63 115/115/115 114/114/114 
f 63/63/63 115/115/115 63/63/63 
f 63/63/63 65/65/65 115/115/115 
f 44/44/44 65/65/65 63/63/63 
f 44/44/44 43/43/43 65/65/65 
f 42/42/42 43/43/43 44/44/44 
f 110/110/110 63/63/63 110/110/110 
f 64/64/64 63/63/63 110/110/110 
f 64/64/64 44/44/44 63/63/63 
f 47/47/47 44/44/44 64/64/64 
f 47/47/47 44/44/44 44/44/44 
f 46/46/46 44/44/44 47/47/47 
f 46/46/46 42/42/42 44/44/44 
f 45/45/45 42/42/42 46/46/46 
f 45/45/45 41/41/41 42/42/42 
f 45/45/45 41/41/41 45/45/45 
f 45/45/45 49/49/49 41/41/41 
f 52/52/52 49/49/49 45/45/45 
f 52/52/52 49/49/49 49/49/49 
f 108/108/108 49/49/49 52/52/52 
f 108/108/108 112/112/112 49/49/49 
f 114/114/114 112/112/112 108/108/108 
f 111/111/111 64/64/64 110/110/110 
f 66/66/66 64/64/64 111/111/111 
f 66/66/66 64/64/64 64/64/64 
f 53/53/53 64/64/64 66/66/66 
f 53/53/53 47/47/47 64/64/64 
f 51/51/51 47/47/47 53/53/53 
f 51/51/51 46/46/46 47/47/47 
f 50/50/50 46/46/46 51/51/51 
f 50/50/50 45/45/45 46/46/46 
f 58/58/58 45/45/45 50/50/50 
f 58/58/58 52/52/52 45/45/45 
f 132/132/132 128/128/128 133/133/133 
f 129/129/129 128/128/128 132/132/132 
f 129/129/129 130/130/130 128/128/128 
f 131/131/131 130/130/130 129/129/129 
f 125/125/125 126/126/126 124/124/124 
f 127/127/127 126/126/126 125/125/125 
f 127/127/127 134/134/134 126/126/126 
f 135/135/135 134/134/134 127/127/127 
f 135/135/135 134/134/134 134/134/134 
f 144/144/144 134/134/134 135/135/135 
f 144/144/144 145/145/145 134/134/134 
f 144/144/144 145/145/145 144/144/144 
f 144/144/144 143/143/143 145/145/145 
f 142/142/142 143/143/143 144/144/144 
f 142/142/142 143/143/143 143/143/143 
f 123/123/123 143/143/143 142/142/142 
f 123/123/123 122/122/122 143/143/143 
f 123/123/123 122/122/122 123/123/123 
f 123/123/123 124/124/124 122/122/122 
f 125/125/125 124/124/124 123/123/123 
f 73/73/73 72/72/72 77/77/77 
f 73/73/73 72/72/72 73/73/73 
f 73/73/73 74/74/74 72/72/72 
f 75/75/75 74/74/74 73/73/73 
f 75/75/75 78/78/78 74/74/74 
f 79/79/79 78/78/78 75/75/75 
f 79/79/79 78/78/78 78/78/78 
f 82/82/82 78/78/78 79/79/79 
f 82/82/82 83/83/83 78/78/78 
f 81/81/81 83/83/83 82/82/82 
f 81/81/81 80/80/80 83/83/83 
f 81/81/81 80/80/80 81/81/81 
f 81/81/81 76/76/76 80/80/80 
f 77/77/77 76/76/76 81/81/81 
f 77/77/77 72/72/72 76/76/76 
f 141/141/141 140/140/140 141/141/141 
f 137/137/137 140/140/140 141/141/141 
f 137/137/137 136/136/136 140/140/140 
f 137/137/137 136/136/136 137/137/137 
f 137/137/137 138/138/138 136/136/136 
f 139/139/139 138/138/138 137/137/137 
f 10/10/10 12/12/12 11/11/11 
f 13/13/13 12/12/12 10/10/10 
f 13/13/13 14/14/14 12/12/12 
f 13/13/13 14/14/14 13/13/13 
f 13/13/13 27/27/27 14/14/14 
f 28/28/28 27/27/27 13/13/13 
f 28/28/28 27/27/27 27/27/27 
f 31/31/31 27/27/27 28/28/28 
f 31/31/31 32/32/32 27/27/27 
f 16/16/16 32/32/32 31/31/31 
f 16/16/16 15/15/15 32/32/32 
f 16/16/16 15/15/15 16/16/16 
f 16/16/16 11/11/11 15/15/15 
f 9/9/9 11/11/11 16/16/16 
f 9/9/9 10/10/10 11/11/11 
f 119/119/119 117/117/117 119/119/119 
f 118/118/118 117/117/117 119/119/119 
f 118/118/118 116/116/116 117/117/117 
f 120/120/120 116/116/116 118/118/118 
f 120/120/120 121/121/121 116/116/116 
f 24/24/24 22/22/22 24/24/24 
f 23/23/23 22/22/22 24/24/24 
f 23/23/23 21/21/21 22/22/22 
f 23/23/23 21/21/21 23/23/23 
f 23/23/23 25/25/25 21/21/21 
f 26/26/26 25/25/25 23/23/23 
f 54/54/54 56/56/56 62/62/62 
f 55/55/55 56/56/56 54/54/54 
f 55/55/55 57/57/57 56/56/56 
f 59/59/59 57/57/57 55/55/55 
f 59/59/59 60/60/60 57/57/57 
f 59/59/59 60/60/60 59/59/59 
f 59/59/59 67/67/67 60/60/60 
f 68/68/68 67/67/67 59/59/59 
f 68/68/68 106/106/106 67/67/67 
f 107/107/107 106/106/106 68/68/68 
f 107/107/107 104/104/104 106/106/106 
f 105/105/105 104/104/104 107/107/107 
f 105/105/105 62/62/62 104/104/104 
f 61/61/61 62/62/62 105/105/105 
f 61/61/61 62/62/62 62/62/62 
f 54/54/54 62/62/62 61/61/61 
f 93/93/93 90/90/90 92/92/92 
f 88/88/88 90/90/90 93/93/93 
f 88/88/88 90/90/90 90/90/90 
f 89/89/89 90/90/90 88/88/88 
f 89/89/89 91/91/91 90/90/90 
f 94/94/94 91/91/91 89/89/89 
f 94/94/94 95/95/95 91/91/91 
f 98/98/98 95/95/95 94/94/94 
f 98/98/98 99/99/99 95/95/95 
f 100/100/100 99/99/99 98/98/98 
f 100/100/100 101/101/101 99/99/99 
f 100/100/100 101/101/101 100/100/100 
f 102/102/102 101/101/101 100/100/100 
f 102/102/102 103/103/103 101/101/101 
f 96/96/96 103/103/103 102/102/102 
f 96/96/96 97/97/97 103/103/103 
f 93/93/93 97/97/97 96/96/96 
f 93/93/93 92/92/92 97/97/97 
f 20/20/20 18/18/18 20/20/20 
f 19/19/19 18/18/18 20/20/20 
f 19/19/19 17/17/17 18/18/18 
f 19/19/19 17/17/17 19/19/19 
f 19/19/19 29/29/29 17/17/17 
f 30/30/30 29/29/29 19/19/19 
f 42/42/42 40/40/40 43/43/43 
f 41/41/41 40/40/40 42/42/42 
f 41/41/41 39/39/39 40/40/40 
f 49/49/49 39/39/39 41/41/41 
f 49/49/49 48/48/48 39/39/39 
f 112/112/112 48/48/48 49/49/49 
f 112/112/112 113/113/113 48/48/48 
f 114/114/114 113/113/113 112/112/112 
f 114/114/114 115/115/115 113/113/113 
f 70/70/70 69/69/69 70/70/70 
f 71/71/71 69/69/69 70/70/70 
f 71/71/71 69/69/69 69/69/69 
f 85/85/85 69/69/69 71/71/71 
f 85/85/85 84/84/84 69/69/69 
f 85/85/85 84/84/84 85/85/85 
f 85/85/85 86/86/86 84/84/84 
f 87/87/87 86/86/86 85/85/85 
f 149/149/149 147/147/147 149/149/149 
f 148/148/148 147/147/147 149/149/149 
f 148/148/148 146/146/146 147/147/147 
f 151/151/151 146/146/146 148/148/148 
f 151/151/151 150/150/150 146/146/146 
f 151/151/151 150/150/150 151/151/151 
f 151/151/151 152/152/152 150/150/150 
f 153/153/153 152/152/152 151/151/151 
f 8/8/8 6/6/6 8/8/8 
f 7/7/7 6/6/6 8/8/8 
f 7/7/7 5/5/5 6/6/6 
f 7/7/7 5/5/5 7/7/7 
f 7/7/7 1/1/1 5/5/5 
f 2/2/2 1/1/1 7/7/7 
f 2/2/2 3/3/3 1/1/1 
f 4/4/4 3/3/3 2/2/2 
