v -1.223100 0.056500 0.085200
v -1.802500 0.056500 0.085200
v -1.223100 2.651900 0.085200
v -1.802500 2.651900 0.085200
v -1.802500 2.651900 0.188100
v -1.802500 0.056500 0.188100
v -1.223100 2.651900 0.188100
v -1.223100 0.056500 0.188100
v -1.195200 2.701600 0.085200
v -0.615800 2.662600 0.085200
v -1.195200 0.085500 0.085200
v -0.615800 0.085500 0.085200
v -1.195200 2.701600 0.188100
v -1.195200 0.085500 0.188100
v -0.615800 2.662600 0.188100
v -0.615800 0.085500 0.188100
v -0.005400 0.024900 0.085200
v -0.584800 0.024900 0.085200
v -0.005400 2.666200 0.085200
v -0.584800 2.666200 0.085200
v -0.584800 2.666200 0.188100
v -0.584800 0.024900 0.188100
v -0.005400 2.666200 0.188100
v -0.005400 0.024900 0.188100
v 0.604400 2.627900 0.085200
v 0.604400 0.024500 0.085200
v 0.025000 2.600500 0.085200
v 0.025000 0.024500 0.085200
v 0.604400 2.627900 0.188100
v 0.025000 2.600500 0.188100
v 0.604400 0.024500 0.188100
v 0.025000 0.024500 0.188100
v 0.645800 2.572300 0.085200
v 1.225200 2.521200 0.085200
v 0.645800 0.059700 0.085200
v 1.225200 0.059700 0.085200
v 0.645800 2.572300 0.188100
v 0.645800 0.059700 0.188100
v 1.225200 2.521200 0.188100
v 1.225200 0.059700 0.188100
v 1.828000 0.024800 0.085200
v 1.248600 0.024800 0.085200
v 1.828000 2.584400 0.085200
v 1.248600 2.584400 0.085200
v 1.248600 2.584400 0.188100
v 1.248600 0.024800 0.188100
v 1.828000 2.584400 0.188100
v 1.828000 0.024800 0.188100
v -1.802500 0.056500 0.085200
v -1.802500 0.056500 0.188100
v -1.802500 2.651900 0.085200
v -1.802500 2.651900 0.188100
v -1.771000 0.000000 -0.240800
v -1.771000 0.000000 0.084700
v -1.771000 1.418600 -0.240800
v -1.771000 1.418600 0.084700
v -1.771000 2.726800 -0.240800
v -1.771000 2.726800 0.084700
v -1.771000 0.000000 -0.240800
v -1.451300 0.000000 -0.240800
v -1.771000 0.000000 0.084700
v -1.451300 0.000000 0.084700
v -1.771000 1.418600 -0.240800
v -1.451300 1.418600 -0.240800
v -1.771000 0.000000 -0.240800
v -1.451300 0.000000 -0.240800
v -1.771000 0.000000 0.084700
v -1.451300 0.000000 0.084700
v -1.771000 1.418600 0.084700
v -1.451300 1.418600 0.084700
v -1.771000 2.726800 -0.240800
v -1.451300 2.726800 -0.240800
v -1.771000 2.726800 0.084700
v -1.451300 2.726800 0.084700
v -1.771000 2.726800 0.084700
v -1.451300 2.726800 0.084700
v -1.771000 2.726800 -0.240800
v -1.451300 2.726800 -0.240800
v -1.802500 0.056500 0.085200
v -1.223100 0.056500 0.085200
v -1.802500 0.056500 0.188100
v -1.223100 0.056500 0.188100
v -1.802500 2.651900 0.188100
v -1.223100 2.651900 0.188100
v -1.802500 2.651900 0.085200
v -1.223100 2.651900 0.085200
v -1.451300 0.000000 0.084700
v -1.451300 0.000000 -0.240800
v -1.451300 1.418600 0.084700
v -1.451300 1.418600 -0.240800
v -1.451300 2.726800 0.084700
v -1.451300 2.726800 -0.240800
v -1.223100 0.056500 0.188100
v -1.223100 0.056500 0.085200
v -1.223100 2.651900 0.188100
v -1.223100 2.651900 0.085200
v -1.195200 0.085500 0.085200
v -1.195200 0.085500 0.188100
v -1.195200 2.701600 0.085200
v -1.195200 2.701600 0.188100
v -1.195200 0.085500 0.085200
v -0.615800 0.085500 0.085200
v -1.195200 0.085500 0.188100
v -0.615800 0.085500 0.188100
v -1.195200 2.701600 0.188100
v -0.615800 2.662600 0.188100
v -1.195200 2.701600 0.085200
v -0.615800 2.662600 0.085200
v -1.451100 0.109100 -0.240800
v 0.209900 0.109100 -0.240800
v -1.451100 0.109100 0.084700
v 0.209900 0.109100 0.084700
v -1.451100 0.226100 -0.240800
v 0.209900 0.226100 -0.240800
v -1.451100 0.109100 -0.240800
v 0.209900 0.109100 -0.240800
v -1.451100 0.109100 0.084700
v 0.209900 0.109100 0.084700
v -1.451100 0.226100 0.084700
v 0.209900 0.226100 0.084700
v -1.451100 0.226100 0.084700
v 0.209900 0.226100 0.084700
v -1.451100 0.226100 -0.240800
v 0.209900 0.226100 -0.240800
v -1.451100 2.302600 -0.240800
v 0.209900 2.302600 -0.240800
v -1.451100 2.302600 0.084700
v 0.209900 2.302600 0.084700
v -1.451100 2.419600 -0.240800
v 0.209900 2.419600 -0.240800
v -1.451100 2.302600 -0.240800
v 0.209900 2.302600 -0.240800
v -1.451100 2.302600 0.084700
v 0.209900 2.302600 0.084700
v -1.451100 2.419600 0.084700
v 0.209900 2.419600 0.084700
v -1.451100 2.419600 0.084700
v 0.209900 2.419600 0.084700
v -1.451100 2.419600 -0.240800
v 0.209900 2.419600 -0.240800
v -0.615800 0.085500 0.188100
v -0.615800 0.085500 0.085200
v -0.615800 2.662600 0.188100
v -0.615800 2.662600 0.085200
v -0.584800 0.024900 0.085200
v -0.584800 0.024900 0.188100
v -0.584800 2.666200 0.085200
v -0.584800 2.666200 0.188100
v -0.584800 0.024900 0.085200
v -0.005400 0.024900 0.085200
v -0.584800 0.024900 0.188100
v -0.005400 0.024900 0.188100
v -0.584800 2.666200 0.188100
v -0.005400 2.666200 0.188100
v -0.584800 2.666200 0.085200
v -0.005400 2.666200 0.085200
v -0.005400 0.024900 0.188100
v -0.005400 0.024900 0.085200
v -0.005400 2.666200 0.188100
v -0.005400 2.666200 0.085200
v 0.025000 0.024500 0.085200
v 0.025000 0.024500 0.188100
v 0.025000 2.600500 0.085200
v 0.025000 2.600500 0.188100
v 0.025000 0.024500 0.085200
v 0.604400 0.024500 0.085200
v 0.025000 0.024500 0.188100
v 0.604400 0.024500 0.188100
v 0.025000 2.600500 0.188100
v 0.604400 2.627900 0.188100
v 0.025000 2.600500 0.085200
v 0.604400 2.627900 0.085200
v 0.604400 0.024500 0.188100
v 0.604400 0.024500 0.085200
v 0.604400 2.627900 0.188100
v 0.604400 2.627900 0.085200
v 0.645800 0.059700 0.085200
v 0.645800 0.059700 0.188100
v 0.645800 2.572300 0.085200
v 0.645800 2.572300 0.188100
v 0.645800 0.059700 0.085200
v 1.225200 0.059700 0.085200
v 0.645800 0.059700 0.188100
v 1.225200 0.059700 0.188100
v 0.645800 2.572300 0.188100
v 1.225200 2.521200 0.188100
v 0.645800 2.572300 0.085200
v 1.225200 2.521200 0.085200
v 1.847600 0.109100 0.084700
v 1.847600 0.109100 -0.240800
v 1.847600 0.226100 -0.240800
v 1.847600 0.109100 -0.240800
v 1.847600 0.226100 0.084700
v 1.847600 0.109100 0.084700
v 1.847600 0.226100 -0.240800
v 1.847600 0.226100 0.084700
v 1.847600 2.302600 0.084700
v 1.847600 2.302600 -0.240800
v 1.847600 2.302600 -0.240800
v 1.847600 2.419600 -0.240800
v 1.847600 2.419600 0.084700
v 1.847600 2.302600 0.084700
v 1.847600 2.419600 -0.240800
v 1.847600 2.419600 0.084700
v 1.225200 0.059700 0.188100
v 1.225200 0.059700 0.085200
v 1.225200 2.521200 0.188100
v 1.225200 2.521200 0.085200
v 1.248600 0.024800 0.085200
v 1.248600 0.024800 0.188100
v 1.248600 2.584400 0.085200
v 1.248600 2.584400 0.188100
v 1.248600 0.024800 0.085200
v 1.828000 0.024800 0.085200
v 1.248600 0.024800 0.188100
v 1.828000 0.024800 0.188100
v 1.248600 2.584400 0.188100
v 1.828000 2.584400 0.188100
v 1.248600 2.584400 0.085200
v 1.828000 2.584400 0.085200
v 1.828000 0.024800 0.188100
v 1.828000 0.024800 0.085200
v 1.828000 2.584400 0.188100
v 1.828000 2.584400 0.085200
v 1.847600 0.109100 0.084700
v 1.847600 0.109100 -0.240800
v 1.847600 0.226100 0.084700
v 1.847600 0.226100 -0.240800
v 1.847600 2.302600 0.084700
v 1.847600 2.302600 -0.240800
v 1.847600 2.419600 0.084700
v 1.847600 2.419600 -0.240800
vt 0.282100 0.867400
vt 0.282100 0.569200
vt 0.980100 0.867400
vt 0.980100 0.569200
vt 0.980100 0.569200
vt 0.282100 0.569200
vt 0.980100 0.867400
vt 0.282100 0.867400
vt 0.379200 0.421400
vt 0.379200 0.099400
vt -0.265700 0.421400
vt -0.265700 0.099400
vt 0.379200 0.421400
vt -0.265700 0.421400
vt 0.379200 0.099400
vt -0.265700 0.099400
vt 0.874600 0.357400
vt 0.874600 0.052300
vt 0.243300 0.357400
vt 0.243300 0.052300
vt 0.243300 0.052300
vt 0.874600 0.052300
vt 0.243300 0.357400
vt 0.874600 0.357400
vt 0.904700 0.228100
vt 0.002500 0.228100
vt 0.904700 0.486000
vt 0.002500 0.486000
vt 0.904700 0.228100
vt 0.904700 0.486000
vt 0.002500 0.228100
vt 0.002500 0.486000
vt 1.218500 0.699700
vt 1.218500 0.970500
vt 0.036500 0.699700
vt 0.036500 0.970500
vt 1.218500 0.699700
vt 0.036500 0.699700
vt 1.218500 0.970500
vt 0.036500 0.970500
vt 1.178000 0.313900
vt 1.178000 0.030400
vt 0.326300 0.313900
vt 0.326300 0.030400
vt 0.326300 0.030400
vt 1.178000 0.030400
vt 0.326300 0.313900
vt 1.178000 0.313900
vt 0.242100 0.195300
vt 0.242100 0.195300
vt 0.242100 0.195300
vt 0.242100 0.195300
vt 0.085900 0.304600
vt 0.085900 0.304600
vt 0.085900 0.304600
vt 0.085900 0.304600
vt 0.085900 0.304600
vt 0.085900 0.304600
vt 0.070300 0.289000
vt 0.070300 0.289000
vt 0.070300 0.289000
vt 0.070300 0.289000
vt 0.070300 0.789000
vt 0.070300 0.789000
vt 0.070300 0.789000
vt 0.070300 0.789000
vt 0.070300 0.789000
vt 0.070300 0.789000
vt 0.070300 0.789000
vt 0.070300 0.789000
vt 0.070300 0.789000
vt 0.070300 0.789000
vt 0.070300 0.789000
vt 0.070300 0.789000
vt 0.070300 0.289000
vt 0.070300 0.289000
vt 0.070300 0.289000
vt 0.070300 0.289000
vt 0.242100 0.210900
vt 0.242100 0.210900
vt 0.242100 0.210900
vt 0.242100 0.210900
vt 0.242100 0.210900
vt 0.242100 0.210900
vt 0.242100 0.210900
vt 0.242100 0.210900
vt 0.085900 0.304600
vt 0.085900 0.304600
vt 0.085900 0.304600
vt 0.085900 0.304600
vt 0.085900 0.304600
vt 0.085900 0.304600
vt 0.242100 0.195300
vt 0.242100 0.195300
vt 0.242100 0.195300
vt 0.242100 0.195300
vt 0.257800 0.195300
vt 0.257800 0.195300
vt 0.257800 0.195300
vt 0.257800 0.195300
vt 0.257800 0.210900
vt 0.257800 0.210900
vt 0.257800 0.210900
vt 0.257800 0.210900
vt 0.257800 0.210900
vt 0.257800 0.210900
vt 0.257800 0.210900
vt 0.257800 0.210900
vt 0.070300 0.304600
vt 0.070300 0.304600
vt 0.070300 0.304600
vt 0.070300 0.304600
vt 0.085900 0.289000
vt 0.085900 0.289000
vt 0.085900 0.289000
vt 0.085900 0.289000
vt 0.085900 0.289000
vt 0.085900 0.289000
vt 0.085900 0.289000
vt 0.085900 0.289000
vt 0.070300 0.304600
vt 0.070300 0.304600
vt 0.070300 0.304600
vt 0.070300 0.304600
vt 0.070300 0.304600
vt 0.070300 0.304600
vt 0.070300 0.304600
vt 0.070300 0.304600
vt 0.085900 0.289000
vt 0.085900 0.289000
vt 0.085900 0.289000
vt 0.085900 0.289000
vt 0.085900 0.289000
vt 0.085900 0.289000
vt 0.085900 0.289000
vt 0.085900 0.289000
vt 0.070300 0.304600
vt 0.070300 0.304600
vt 0.070300 0.304600
vt 0.070300 0.304600
vt 0.257800 0.195300
vt 0.257800 0.195300
vt 0.257800 0.195300
vt 0.257800 0.195300
vt 0.226500 0.695300
vt 0.226500 0.695300
vt 0.226500 0.695300
vt 0.226500 0.695300
vt 0.242100 0.695300
vt 0.242100 0.695300
vt 0.242100 0.695300
vt 0.242100 0.695300
vt 0.242100 0.695300
vt 0.242100 0.695300
vt 0.242100 0.695300
vt 0.242100 0.695300
vt 0.226500 0.695300
vt 0.226500 0.695300
vt 0.226500 0.695300
vt 0.226500 0.695300
vt 0.273400 0.695300
vt 0.273400 0.695300
vt 0.273400 0.695300
vt 0.273400 0.695300
vt 0.257800 0.695300
vt 0.257800 0.695300
vt 0.257800 0.695300
vt 0.257800 0.695300
vt 0.257800 0.695300
vt 0.257800 0.695300
vt 0.257800 0.695300
vt 0.257800 0.695300
vt 0.273400 0.695300
vt 0.273400 0.695300
vt 0.273400 0.695300
vt 0.273400 0.695300
vt 0.242100 0.210900
vt 0.242100 0.210900
vt 0.242100 0.210900
vt 0.242100 0.210900
vt 0.242100 0.195300
vt 0.242100 0.195300
vt 0.242100 0.195300
vt 0.242100 0.195300
vt 0.242100 0.195300
vt 0.242100 0.195300
vt 0.242100 0.195300
vt 0.242100 0.195300
vt 0.070300 0.304600
vt 0.070300 0.304600
vt 0.085900 0.289000
vt 0.085900 0.289000
vt 0.085900 0.289000
vt 0.085900 0.289000
vt 0.070300 0.304600
vt 0.070300 0.304600
vt 0.070300 0.304600
vt 0.070300 0.304600
vt 0.085900 0.289000
vt 0.085900 0.289000
vt 0.085900 0.289000
vt 0.085900 0.289000
vt 0.070300 0.304600
vt 0.070300 0.304600
vt 0.242100 0.210900
vt 0.242100 0.210900
vt 0.242100 0.210900
vt 0.242100 0.210900
vt 0.257800 0.695300
vt 0.257800 0.695300
vt 0.257800 0.695300
vt 0.257800 0.695300
vt 0.257800 0.195300
vt 0.257800 0.195300
vt 0.257800 0.195300
vt 0.257800 0.195300
vt 0.257800 0.195300
vt 0.257800 0.195300
vt 0.257800 0.195300
vt 0.257800 0.195300
vt 0.257800 0.695300
vt 0.257800 0.695300
vt 0.257800 0.695300
vt 0.257800 0.695300
vt 0.085900 0.804600
vt 0.085900 0.804600
vt 0.085900 0.804600
vt 0.085900 0.804600
vt 0.085900 0.804600
vt 0.085900 0.804600
vt 0.085900 0.804600
vt 0.085900 0.804600
vn 0.000000 0.000000 -1.000000
vn 0.000000 0.000000 -1.000000
vn 0.000000 0.000000 -1.000000
vn 0.000000 0.000000 -1.000000
vn 0.000000 0.000000 1.000000
vn 0.000000 0.000000 1.000000
vn 0.000000 0.000000 1.000000
vn 0.000000 0.000000 1.000000
vn 0.000000 0.000000 -1.000000
vn 0.000000 0.000000 -1.000000
vn 0.000000 0.000000 -1.000000
vn 0.000000 0.000000 -1.000000
vn 0.000000 0.000000 1.000000
vn 0.000000 0.000000 1.000000
vn 0.000000 0.000000 1.000000
vn 0.000000 0.000000 1.000000
vn 0.000000 0.000000 -1.000000
vn 0.000000 0.000000 -1.000000
vn 0.000000 0.000000 -1.000000
vn 0.000000 0.000000 -1.000000
vn 0.000000 0.000000 1.000000
vn 0.000000 0.000000 1.000000
vn 0.000000 0.000000 1.000000
vn 0.000000 0.000000 1.000000
vn 0.000000 0.000000 -1.000000
vn 0.000000 0.000000 -1.000000
vn 0.000000 0.000000 -1.000000
vn 0.000000 0.000000 -1.000000
vn 0.000000 0.000000 1.000000
vn 0.000000 0.000000 1.000000
vn 0.000000 0.000000 1.000000
vn 0.000000 0.000000 1.000000
vn 0.000000 0.000000 -1.000000
vn 0.000000 0.000000 -1.000000
vn 0.000000 0.000000 -1.000000
vn 0.000000 0.000000 -1.000000
vn 0.000000 0.000000 1.000000
vn 0.000000 0.000000 1.000000
vn 0.000000 0.000000 1.000000
vn 0.000000 0.000000 1.000000
vn 0.000000 0.000000 -1.000000
vn 0.000000 0.000000 -1.000000
vn 0.000000 0.000000 -1.000000
vn 0.000000 0.000000 -1.000000
vn 0.000000 0.000000 1.000000
vn 0.000000 0.000000 1.000000
vn 0.000000 0.000000 1.000000
vn 0.000000 0.000000 1.000000
vn -1.000000 0.000000 0.000000
vn -1.000000 0.000000 0.000000
vn -1.000000 0.000000 0.000000
vn -1.000000 0.000000 0.000000
vn -1.000000 0.000000 0.000000
vn -1.000000 0.000000 0.000000
vn -1.000000 0.000000 0.000000
vn -1.000000 0.000000 0.000000
vn -1.000000 0.000000 0.000000
vn -1.000000 0.000000 0.000000
vn 0.000000 -1.000000 0.000000
vn 0.000000 -1.000000 0.000000
vn 0.000000 -1.000000 0.000000
vn 0.000000 -1.000000 0.000000
vn 0.000000 0.000000 -1.000000
vn 0.000000 0.000000 -1.000000
vn 0.000000 0.000000 -1.000000
vn 0.000000 0.000000 -1.000000
vn 0.000000 0.000000 1.000000
vn 0.000000 0.000000 1.000000
vn 0.000000 0.000000 1.000000
vn 0.000000 0.000000 1.000000
vn 0.000000 0.000000 -1.000000
vn 0.000000 0.000000 -1.000000
vn 0.000000 0.000000 1.000000
vn 0.000000 0.000000 1.000000
vn 0.000000 1.000000 0.000000
vn 0.000000 1.000000 0.000000
vn 0.000000 1.000000 0.000000
vn 0.000000 1.000000 0.000000
vn 0.000000 -1.000000 0.000000
vn 0.000000 -1.000000 0.000000
vn 0.000000 -1.000000 0.000000
vn 0.000000 -1.000000 0.000000
vn 0.000000 1.000000 0.000000
vn 0.000000 1.000000 0.000000
vn 0.000000 1.000000 0.000000
vn 0.000000 1.000000 0.000000
vn 1.000000 0.000000 0.000000
vn 1.000000 0.000000 0.000000
vn 1.000000 0.000000 0.000000
vn 1.000000 0.000000 0.000000
vn 1.000000 0.000000 0.000000
vn 1.000000 0.000000 0.000000
vn 1.000000 0.000000 0.000000
vn 1.000000 0.000000 0.000000
vn 1.000000 0.000000 0.000000
vn 1.000000 0.000000 0.000000
vn -1.000000 0.000000 0.000000
vn -1.000000 0.000000 0.000000
vn -1.000000 0.000000 0.000000
vn -1.000000 0.000000 0.000000
vn 0.000000 -1.000000 0.000000
vn 0.000000 -1.000000 0.000000
vn 0.000000 -1.000000 0.000000
vn 0.000000 -1.000000 0.000000
vn 0.067159 0.997742 0.000000
vn 0.067159 0.997742 0.000000
vn 0.067159 0.997742 0.000000
vn 0.067159 0.997742 0.000000
vn 0.000000 -1.000000 0.000000
vn 0.000000 -1.000000 0.000000
vn 0.000000 -1.000000 0.000000
vn 0.000000 -1.000000 0.000000
vn 0.000000 0.000000 -1.000000
vn 0.000000 0.000000 -1.000000
vn 0.000000 0.000000 -1.000000
vn 0.000000 0.000000 -1.000000
vn 0.000000 0.000000 1.000000
vn 0.000000 0.000000 1.000000
vn 0.000000 0.000000 1.000000
vn 0.000000 0.000000 1.000000
vn 0.000000 1.000000 0.000000
vn 0.000000 1.000000 0.000000
vn 0.000000 1.000000 0.000000
vn 0.000000 1.000000 0.000000
vn 0.000000 -1.000000 0.000000
vn 0.000000 -1.000000 0.000000
vn 0.000000 -1.000000 0.000000
vn 0.000000 -1.000000 0.000000
vn 0.000000 0.000000 -1.000000
vn 0.000000 0.000000 -1.000000
vn 0.000000 0.000000 -1.000000
vn 0.000000 0.000000 -1.000000
vn 0.000000 0.000000 1.000000
vn 0.000000 0.000000 1.000000
vn 0.000000 0.000000 1.000000
vn 0.000000 0.000000 1.000000
vn 0.000000 1.000000 0.000000
vn 0.000000 1.000000 0.000000
vn 0.000000 1.000000 0.000000
vn 0.000000 1.000000 0.000000
vn 1.000000 0.000000 0.000000
vn 1.000000 0.000000 0.000000
vn 1.000000 0.000000 0.000000
vn 1.000000 0.000000 0.000000
vn -1.000000 0.000000 0.000000
vn -1.000000 0.000000 0.000000
vn -1.000000 0.000000 0.000000
vn -1.000000 0.000000 0.000000
vn 0.000000 -1.000000 0.000000
vn 0.000000 -1.000000 0.000000
vn 0.000000 -1.000000 0.000000
vn 0.000000 -1.000000 0.000000
vn 0.000000 1.000000 0.000000
vn 0.000000 1.000000 0.000000
vn 0.000000 1.000000 0.000000
vn 0.000000 1.000000 0.000000
vn 1.000000 0.000000 0.000000
vn 1.000000 0.000000 0.000000
vn 1.000000 0.000000 0.000000
vn 1.000000 0.000000 0.000000
vn -1.000000 0.000000 0.000000
vn -1.000000 0.000000 0.000000
vn -1.000000 0.000000 0.000000
vn -1.000000 0.000000 0.000000
vn 0.000000 -1.000000 0.000000
vn 0.000000 -1.000000 0.000000
vn 0.000000 -1.000000 0.000000
vn 0.000000 -1.000000 0.000000
vn -0.047237 0.998884 0.000000
vn -0.047237 0.998884 0.000000
vn -0.047237 0.998884 0.000000
vn -0.047237 0.998884 0.000000
vn 1.000000 0.000000 0.000000
vn 1.000000 0.000000 0.000000
vn 1.000000 0.000000 0.000000
vn 1.000000 0.000000 0.000000
vn -1.000000 0.000000 0.000000
vn -1.000000 0.000000 0.000000
vn -1.000000 0.000000 0.000000
vn -1.000000 0.000000 0.000000
vn 0.000000 -1.000000 0.000000
vn 0.000000 -1.000000 0.000000
vn 0.000000 -1.000000 0.000000
vn 0.000000 -1.000000 0.000000
vn 0.087854 0.996133 0.000000
vn 0.087854 0.996133 0.000000
vn 0.087854 0.996133 0.000000
vn 0.087854 0.996133 0.000000
vn 0.000000 -1.000000 0.000000
vn 0.000000 -1.000000 0.000000
vn 0.000000 0.000000 -1.000000
vn 0.000000 0.000000 -1.000000
vn 0.000000 0.000000 1.000000
vn 0.000000 0.000000 1.000000
vn 0.000000 1.000000 0.000000
vn 0.000000 1.000000 0.000000
vn 0.000000 -1.000000 0.000000
vn 0.000000 -1.000000 0.000000
vn 0.000000 0.000000 -1.000000
vn 0.000000 0.000000 -1.000000
vn 0.000000 0.000000 1.000000
vn 0.000000 0.000000 1.000000
vn 0.000000 1.000000 0.000000
vn 0.000000 1.000000 0.000000
vn 1.000000 0.000000 0.000000
vn 1.000000 0.000000 0.000000
vn 1.000000 0.000000 0.000000
vn 1.000000 0.000000 0.000000
vn -1.000000 0.000000 0.000000
vn -1.000000 0.000000 0.000000
vn -1.000000 0.000000 0.000000
vn -1.000000 0.000000 0.000000
vn 0.000000 -1.000000 0.000000
vn 0.000000 -1.000000 0.000000
vn 0.000000 -1.000000 0.000000
vn 0.000000 -1.000000 0.000000
vn 0.000000 1.000000 0.000000
vn 0.000000 1.000000 0.000000
vn 0.000000 1.000000 0.000000
vn 0.000000 1.000000 0.000000
vn 1.000000 0.000000 0.000000
vn 1.000000 0.000000 0.000000
vn 1.000000 0.000000 0.000000
vn 1.000000 0.000000 0.000000
vn 1.000000 0.000000 0.000000
vn 1.000000 0.000000 0.000000
vn 1.000000 0.000000 0.000000
vn 1.000000 0.000000 0.000000
vn 1.000000 0.000000 0.000000
vn 1.000000 0.000000 0.000000
vn 1.000000 0.000000 0.000000
vn 1.000000 0.000000 0.000000
f 2/2/2 3/3/3 1/1/1 
f 4/4/4 3/3/3 2/2/2 
f 46/46/46 47/47/47 45/45/45 
f 48/48/48 47/47/47 46/46/46 
f 42/42/42 43/43/43 41/41/41 
f 44/44/44 43/43/43 42/42/42 
f 38/38/38 39/39/39 37/37/37 
f 40/40/40 39/39/39 38/38/38 
f 34/34/34 35/35/35 33/33/33 
f 36/36/36 35/35/35 34/34/34 
f 30/30/30 31/31/31 29/29/29 
f 32/32/32 31/31/31 30/30/30 
f 26/26/26 27/27/27 25/25/25 
f 28/28/28 27/27/27 26/26/26 
f 22/22/22 23/23/23 21/21/21 
f 24/24/24 23/23/23 22/22/22 
f 18/18/18 19/19/19 17/17/17 
f 20/20/20 19/19/19 18/18/18 
f 14/14/14 15/15/15 13/13/13 
f 16/16/16 15/15/15 14/14/14 
f 10/10/10 11/11/11 9/9/9 
f 12/12/12 11/11/11 10/10/10 
f 6/6/6 7/7/7 5/5/5 
f 8/8/8 7/7/7 6/6/6 
f 60/60/60 61/61/61 59/59/59 
f 62/62/62 61/61/61 60/60/60 
f 50/50/50 51/51/51 49/49/49 
f 52/52/52 51/51/51 50/50/50 
f 230/230/230 231/231/231 229/229/229 
f 232/232/232 231/231/231 230/230/230 
f 226/226/226 227/227/227 225/225/225 
f 228/228/228 227/227/227 226/226/226 
f 222/222/222 223/223/223 221/221/221 
f 224/224/224 223/223/223 222/222/222 
f 218/218/218 219/219/219 217/217/217 
f 220/220/220 219/219/219 218/218/218 
f 214/214/214 215/215/215 213/213/213 
f 216/216/216 215/215/215 214/214/214 
f 210/210/210 211/211/211 209/209/209 
f 212/212/212 211/211/211 210/210/210 
f 206/206/206 207/207/207 205/205/205 
f 208/208/208 207/207/207 206/206/206 
f 186/186/186 187/187/187 185/185/185 
f 188/188/188 187/187/187 186/186/186 
f 182/182/182 183/183/183 181/181/181 
f 184/184/184 183/183/183 182/182/182 
f 178/178/178 179/179/179 177/177/177 
f 180/180/180 179/179/179 178/178/178 
f 174/174/174 175/175/175 173/173/173 
f 176/176/176 175/175/175 174/174/174 
f 170/170/170 171/171/171 169/169/169 
f 172/172/172 171/171/171 170/170/170 
f 166/166/166 167/167/167 165/165/165 
f 168/168/168 167/167/167 166/166/166 
f 162/162/162 163/163/163 161/161/161 
f 164/164/164 163/163/163 162/162/162 
f 158/158/158 159/159/159 157/157/157 
f 160/160/160 159/159/159 158/158/158 
f 154/154/154 155/155/155 153/153/153 
f 156/156/156 155/155/155 154/154/154 
f 150/150/150 151/151/151 149/149/149 
f 152/152/152 151/151/151 150/150/150 
f 146/146/146 147/147/147 145/145/145 
f 148/148/148 147/147/147 146/146/146 
f 142/142/142 143/143/143 141/141/141 
f 144/144/144 143/143/143 142/142/142 
f 110/110/110 111/111/111 109/109/109 
f 110/110/110 111/111/111 110/110/110 
f 110/110/110 112/112/112 111/111/111 
f 110/110/110 112/112/112 110/110/110 
f 110/110/110 189/189/189 112/112/112 
f 190/190/190 189/189/189 110/110/110 
f 106/106/106 107/107/107 105/105/105 
f 108/108/108 107/107/107 106/106/106 
f 102/102/102 103/103/103 101/101/101 
f 104/104/104 103/103/103 102/102/102 
f 98/98/98 99/99/99 97/97/97 
f 100/100/100 99/99/99 98/98/98 
f 94/94/94 95/95/95 93/93/93 
f 96/96/96 95/95/95 94/94/94 
f 84/84/84 85/85/85 83/83/83 
f 86/86/86 85/85/85 84/84/84 
f 80/80/80 81/81/81 79/79/79 
f 82/82/82 81/81/81 80/80/80 
f 76/76/76 77/77/77 75/75/75 
f 78/78/78 77/77/77 76/76/76 
f 72/72/72 63/63/63 71/71/71 
f 64/64/64 63/63/63 72/72/72 
f 64/64/64 65/65/65 63/63/63 
f 66/66/66 65/65/65 64/64/64 
f 138/138/138 139/139/139 137/137/137 
f 138/138/138 139/139/139 138/138/138 
f 138/138/138 140/140/140 139/139/139 
f 138/138/138 140/140/140 138/138/138 
f 138/138/138 203/203/203 140/140/140 
f 204/204/204 203/203/203 138/138/138 
f 134/134/134 135/135/135 133/133/133 
f 134/134/134 135/135/135 134/134/134 
f 134/134/134 136/136/136 135/135/135 
f 134/134/134 136/136/136 134/134/134 
f 134/134/134 201/201/201 136/136/136 
f 202/202/202 201/201/201 134/134/134 
f 130/130/130 131/131/131 129/129/129 
f 130/130/130 131/131/131 130/130/130 
f 130/130/130 132/132/132 131/131/131 
f 130/130/130 132/132/132 130/130/130 
f 130/130/130 199/199/199 132/132/132 
f 200/200/200 199/199/199 130/130/130 
f 126/126/126 127/127/127 125/125/125 
f 126/126/126 127/127/127 126/126/126 
f 126/126/126 128/128/128 127/127/127 
f 126/126/126 128/128/128 126/126/126 
f 126/126/126 197/197/197 128/128/128 
f 198/198/198 197/197/197 126/126/126 
f 122/122/122 123/123/123 121/121/121 
f 122/122/122 123/123/123 122/122/122 
f 122/122/122 124/124/124 123/123/123 
f 122/122/122 124/124/124 122/122/122 
f 122/122/122 195/195/195 124/124/124 
f 196/196/196 195/195/195 122/122/122 
f 118/118/118 119/119/119 117/117/117 
f 118/118/118 119/119/119 118/118/118 
f 118/118/118 120/120/120 119/119/119 
f 118/118/118 120/120/120 118/118/118 
f 118/118/118 193/193/193 120/120/120 
f 194/194/194 193/193/193 118/118/118 
f 114/114/114 115/115/115 113/113/113 
f 114/114/114 115/115/115 114/114/114 
f 114/114/114 116/116/116 115/115/115 
f 191/191/191 116/116/116 114/114/114 
f 191/191/191 192/192/192 116/116/116 
f 92/92/92 90/90/90 92/92/92 
f 91/91/91 90/90/90 92/92/92 
f 91/91/91 90/90/90 90/90/90 
f 89/89/89 90/90/90 91/91/91 
f 89/89/89 88/88/88 90/90/90 
f 87/87/87 88/88/88 89/89/89 
f 68/68/68 69/69/69 67/67/67 
f 70/70/70 69/69/69 68/68/68 
f 70/70/70 73/73/73 69/69/69 
f 74/74/74 73/73/73 70/70/70 
f 58/58/58 56/56/56 58/58/58 
f 57/57/57 56/56/56 58/58/58 
f 57/57/57 56/56/56 56/56/56 
f 55/55/55 56/56/56 57/57/57 
f 55/55/55 54/54/54 56/56/56 
f 53/53/53 54/54/54 55/55/55 
