v -1.248100 0.274500 0.369100
v -1.248100 0.229500 0.352000
v -1.248100 0.168400 0.734100
v -1.250200 0.131700 0.689400
v -1.248100 0.411600 -0.071000
v -1.248100 0.452200 -0.049200
v -1.248100 0.640700 -0.437200
v -1.248100 0.680000 -0.407200
v -1.248100 0.952500 -0.734100
v -1.248100 0.879800 -0.734100
v -1.203600 0.014700 0.734100
v -1.134800 0.014700 0.689400
v -1.020200 0.168400 0.734100
v -1.248100 0.168400 0.734100
v -1.066000 0.014700 0.734100
v -1.203600 0.014700 0.734100
v -1.066000 0.014700 0.734100
v -1.020200 0.168400 0.734100
v -1.020200 0.131700 0.689400
v -0.976700 0.014700 0.734100
v -1.020200 0.168400 0.734100
v -0.907900 0.014700 0.689400
v -1.020200 0.131700 0.689400
v -0.793000 0.168400 0.734100
v -1.020200 0.168400 0.734100
v -0.839100 0.014700 0.734100
v -0.976700 0.014700 0.734100
v -0.839100 0.014700 0.734100
v -0.793000 0.168400 0.734100
v -0.793000 0.131700 0.689400
v -0.749100 0.014700 0.734100
v -0.793000 0.168400 0.734100
v -0.680300 0.014700 0.689400
v -0.793000 0.131700 0.689400
v -0.567000 0.168400 0.734100
v -0.793000 0.168400 0.734100
v -0.611500 0.014700 0.734100
v -0.749100 0.014700 0.734100
v -1.020200 0.131700 0.689400
v -1.134800 0.014700 0.689400
v -1.250200 0.131700 0.689400
v -0.611500 0.014700 0.734100
v -0.567000 0.168400 0.734100
v -0.567000 0.131700 0.689400
v -0.567000 0.168400 0.734100
v -0.567000 0.131700 0.689400
v -0.543800 0.014700 0.734100
v -0.454900 0.014700 0.689400
v -0.793000 0.131700 0.689400
v -0.907900 0.014700 0.689400
v -1.020200 0.131700 0.689400
v -0.342000 0.168400 0.734100
v -0.567000 0.168400 0.734100
v -0.366000 0.014700 0.734100
v -0.543800 0.014700 0.734100
v -0.567000 0.131700 0.689400
v -0.680300 0.014700 0.689400
v -0.793000 0.131700 0.689400
v -0.342000 0.168400 0.734100
v -0.366000 0.014700 0.734100
v -0.342000 0.131700 0.689400
v -0.297100 0.014700 0.734100
v -0.342000 0.168400 0.734100
v -0.228400 0.014700 0.689400
v -0.342000 0.131700 0.689400
v -0.342000 0.131700 0.689400
v -0.454900 0.014700 0.689400
v -0.567000 0.131700 0.689400
v -0.115100 0.168400 0.734100
v -0.342000 0.168400 0.734100
v -0.159500 0.014700 0.734100
v -0.297100 0.014700 0.734100
v -0.159500 0.014700 0.734100
v -0.115100 0.168400 0.734100
v -0.115100 0.131700 0.689400
v -0.115100 0.131700 0.689400
v -0.228400 0.014700 0.689400
v -0.342000 0.131700 0.689400
v -0.072800 0.014700 0.734100
v -0.115100 0.168400 0.734100
v -0.003700 0.014700 0.689400
v -0.115100 0.131700 0.689400
v 0.110500 0.168400 0.734100
v -0.115100 0.168400 0.734100
v 0.064700 0.014700 0.734100
v -0.072800 0.014700 0.734100
v 0.064700 0.014700 0.734100
v 0.110500 0.131700 0.689400
v -0.003700 0.014700 0.689400
v -0.115100 0.131700 0.689400
v -1.250200 0.131700 0.689400
v -1.248100 0.229500 0.352000
v 1.246000 0.131700 0.689400
v 1.248100 0.229500 0.352000
v -1.248100 0.274500 0.369100
v -1.248100 0.168400 0.734100
v 1.248100 0.274500 0.369100
v 1.248100 0.168400 0.734100
v 1.248100 0.411600 -0.071000
v -1.248100 0.411600 -0.071000
v -1.248100 0.452200 -0.049200
v 1.248100 0.452200 -0.049200
v -1.248100 0.640700 -0.437200
v 1.248100 0.640700 -0.437200
v 1.248100 0.680000 -0.407200
v -1.248100 0.680000 -0.407200
v -1.248100 0.879800 -0.734100
v 1.248100 0.879800 -0.734100
v 1.248100 0.952500 -0.734100
v -1.248100 0.952500 -0.734100
v 0.110500 0.168400 0.734100
v 0.110500 0.131700 0.689400
v 0.291900 0.014700 0.734100
v 0.154300 0.014700 0.734100
v 0.223200 0.014700 0.689400
v 0.339800 0.131700 0.689400
v 0.223200 0.014700 0.689400
v 0.110500 0.131700 0.689400
v 0.110500 0.168400 0.734100
v 0.110500 0.131700 0.689400
v 0.339800 0.168400 0.734100
v 0.110500 0.168400 0.734100
v 0.291900 0.014700 0.734100
v 0.154300 0.014700 0.734100
v 0.567600 0.131700 0.689400
v 0.454300 0.014700 0.689400
v 0.339800 0.131700 0.689400
v 0.523100 0.014700 0.734100
v 0.385500 0.014700 0.734100
v 0.454300 0.014700 0.689400
v 0.339800 0.168400 0.734100
v 0.339800 0.131700 0.689400
v 0.339800 0.168400 0.734100
v 0.339800 0.131700 0.689400
v 0.747500 0.014700 0.734100
v 0.609900 0.014700 0.734100
v 0.678700 0.014700 0.689400
v 0.793500 0.131700 0.689400
v 0.678700 0.014700 0.689400
v 0.567600 0.131700 0.689400
v 0.339800 0.168400 0.734100
v 0.385500 0.014700 0.734100
v 0.567600 0.168400 0.734100
v 0.523100 0.014700 0.734100
v 1.018700 0.131700 0.689400
v 0.906300 0.014700 0.689400
v 0.793500 0.131700 0.689400
v 0.975100 0.014700 0.734100
v 0.837500 0.014700 0.734100
v 0.906300 0.014700 0.689400
v 0.567600 0.168400 0.734100
v 0.567600 0.131700 0.689400
v 0.567600 0.168400 0.734100
v 0.567600 0.131700 0.689400
v 1.246000 0.131700 0.689400
v 1.132600 0.014700 0.689400
v 1.018700 0.131700 0.689400
v 1.201400 0.014700 0.734100
v 1.063800 0.014700 0.734100
v 1.132600 0.014700 0.689400
v 0.793500 0.168400 0.734100
v 0.567600 0.168400 0.734100
v 0.747500 0.014700 0.734100
v 0.609900 0.014700 0.734100
v 0.793500 0.168400 0.734100
v 0.793500 0.131700 0.689400
v 0.793500 0.168400 0.734100
v 0.793500 0.131700 0.689400
v 1.018700 0.168400 0.734100
v 0.793500 0.168400 0.734100
v 0.975100 0.014700 0.734100
v 0.837500 0.014700 0.734100
v 1.018700 0.168400 0.734100
v 1.018700 0.131700 0.689400
v 1.018700 0.168400 0.734100
v 1.018700 0.131700 0.689400
v 1.248100 0.168400 0.734100
v 1.018700 0.168400 0.734100
v 1.201400 0.014700 0.734100
v 1.063800 0.014700 0.734100
v 1.248100 0.168400 0.734100
v 1.246000 0.131700 0.689400
v 1.248100 0.274500 0.369100
v 1.248100 0.229500 0.352000
v 1.248100 0.411600 -0.071000
v 1.248100 0.452200 -0.049200
v 1.248100 0.640700 -0.437200
v 1.248100 0.680000 -0.407200
v 1.248100 0.952500 -0.734100
v 1.248100 0.879800 -0.734100
v -1.215900 0.131700 0.689400
v -1.236800 0.166700 0.568800
v -1.215900 0.131700 -0.734100
v -1.236800 0.166700 -0.734100
v -1.236800 0.879800 -0.734100
v -1.236800 0.166700 -0.734100
v -1.215900 0.842800 -0.688100
v -1.215900 0.166700 -0.688100
v -1.236800 0.166700 0.568800
v -1.195000 0.166700 0.568800
v -1.236800 0.166700 -0.734100
v -1.195000 0.166700 -0.734100
v -1.215900 0.131700 0.689400
v -1.215900 0.131700 -0.734100
v -1.195000 0.166700 0.568800
v -1.195000 0.166700 -0.734100
v -1.195000 0.879800 -0.734100
v -1.215900 0.842800 -0.688100
v -1.195000 0.166700 -0.734100
v -1.215900 0.166700 -0.688100
v 1.218400 0.131700 0.689400
v 1.197500 0.166700 0.568800
v 1.218400 0.131700 -0.734100
v 1.197500 0.166700 -0.734100
v 1.197500 0.879800 -0.734100
v 1.197500 0.166700 -0.734100
v 1.218400 0.842800 -0.688100
v 1.218400 0.166700 -0.688100
v 1.197500 0.166700 0.568800
v 1.239300 0.166700 0.568800
v 1.197500 0.166700 -0.734100
v 1.239300 0.166700 -0.734100
v 1.218400 0.131700 0.689400
v 1.218400 0.131700 -0.734100
v 1.239300 0.166700 0.568800
v 1.239300 0.166700 -0.734100
v 1.239300 0.879800 -0.734100
v 1.218400 0.842800 -0.688100
v 1.239300 0.166700 -0.734100
v 1.218400 0.166700 -0.688100
vt 0.179600 0.164000
vt 0.179600 0.164000
vt 0.179600 0.164000
vt 0.179600 0.164000
vt 0.179600 0.164000
vt 0.179600 0.164000
vt 0.179600 0.164000
vt 0.179600 0.164000
vt 0.179600 0.164000
vt 0.179600 0.164000
vt 0.179600 0.164000
vt 0.179600 0.164000
vt 0.164000 0.179600
vt 0.164000 0.179600
vt 0.164000 0.179600
vt 0.164000 0.179600
vt 0.179600 0.164000
vt 0.179600 0.164000
vt 0.179600 0.164000
vt -0.232100 0.960900
vt -0.232100 0.960900
vt -0.232100 0.960900
vt -0.232100 0.960900
vt -0.232100 0.460900
vt -0.232100 0.460900
vt -0.232100 0.460900
vt -0.232100 0.460900
vt -0.232100 0.960900
vt -0.232100 0.960900
vt -0.232100 0.960900
vt 0.179600 0.164000
vt 0.179600 0.164000
vt 0.179600 0.164000
vt 0.179600 0.164000
vt 0.164000 0.179600
vt 0.164000 0.179600
vt 0.164000 0.179600
vt 0.164000 0.179600
vt 0.164000 0.679600
vt 0.164000 0.679600
vt 0.164000 0.679600
vt 0.179600 0.164000
vt 0.179600 0.164000
vt 0.179600 0.164000
vt -0.232100 0.960900
vt -0.232100 0.960900
vt -0.232100 0.960900
vt -0.232100 0.960900
vt -0.216500 0.960900
vt -0.216500 0.960900
vt -0.216500 0.960900
vt -0.232100 0.460900
vt -0.232100 0.460900
vt -0.232100 0.460900
vt -0.232100 0.460900
vt 0.164000 0.679600
vt 0.164000 0.679600
vt 0.164000 0.679600
vt -0.232100 0.960900
vt -0.232100 0.960900
vt -0.232100 0.960900
vt 0.179600 0.164000
vt 0.179600 0.164000
vt 0.179600 0.164000
vt 0.179600 0.164000
vt -0.216500 0.960900
vt -0.216500 0.960900
vt -0.216500 0.960900
vt 0.164000 0.179600
vt 0.164000 0.179600
vt 0.164000 0.179600
vt 0.164000 0.179600
vt 0.179600 0.164000
vt 0.179600 0.164000
vt 0.179600 0.164000
vt 0.164000 0.679600
vt 0.164000 0.679600
vt 0.164000 0.679600
vt -0.232100 0.960900
vt -0.232100 0.960900
vt -0.232100 0.960900
vt -0.232100 0.960900
vt -0.232100 0.460900
vt -0.232100 0.460900
vt -0.232100 0.460900
vt -0.232100 0.460900
vt -0.232100 0.960900
vt -0.216500 0.960900
vt -0.216500 0.960900
vt -0.216500 0.960900
vt -1.994100 0.000000
vt -1.994100 0.237900
vt 3.507400 0.000000
vt 3.507400 0.237900
vt -1.994100 0.237900
vt -1.994100 0.000000
vt 3.507400 0.237900
vt 3.507400 0.000000
vt 3.507400 0.500000
vt -1.994100 0.500000
vt -1.994100 0.500000
vt 3.507400 0.500000
vt -1.994100 0.762000
vt 3.507400 0.762000
vt 3.507400 0.762000
vt -1.994100 0.762000
vt -1.994100 1.000000
vt 3.507400 1.000000
vt 3.507400 1.000000
vt -1.994100 1.000000
vt -0.232100 0.960900
vt -0.232100 0.960900
vt 0.179600 0.164000
vt 0.179600 0.164000
vt 0.179600 0.164000
vt 0.164000 0.679600
vt 0.164000 0.679600
vt 0.164000 0.679600
vt 0.179600 0.164000
vt 0.179600 0.164000
vt 0.164000 0.179600
vt 0.164000 0.179600
vt 0.164000 0.179600
vt 0.164000 0.179600
vt -0.216500 0.960900
vt -0.216500 0.960900
vt -0.216500 0.960900
vt -0.232100 0.960900
vt -0.232100 0.960900
vt -0.232100 0.960900
vt 0.179600 0.164000
vt 0.179600 0.164000
vt -0.232100 0.960900
vt -0.232100 0.960900
vt 0.179600 0.164000
vt 0.179600 0.164000
vt 0.179600 0.164000
vt 0.164000 0.679600
vt 0.164000 0.679600
vt 0.164000 0.679600
vt -0.232100 0.460900
vt -0.232100 0.460900
vt -0.232100 0.460900
vt -0.232100 0.460900
vt -0.216500 0.960900
vt -0.216500 0.960900
vt -0.216500 0.960900
vt -0.232100 0.960900
vt -0.232100 0.960900
vt -0.232100 0.960900
vt -0.232100 0.960900
vt -0.232100 0.960900
vt 0.179600 0.164000
vt 0.179600 0.164000
vt 0.164000 0.679600
vt 0.164000 0.679600
vt 0.164000 0.679600
vt 0.179600 0.164000
vt 0.179600 0.164000
vt 0.179600 0.164000
vt 0.164000 0.179600
vt 0.164000 0.179600
vt 0.164000 0.179600
vt 0.164000 0.179600
vt 0.179600 0.164000
vt 0.179600 0.164000
vt -0.232100 0.960900
vt -0.232100 0.960900
vt -0.232100 0.460900
vt -0.232100 0.460900
vt -0.232100 0.460900
vt -0.232100 0.460900
vt -0.232100 0.960900
vt -0.232100 0.960900
vt 0.179600 0.164000
vt 0.179600 0.164000
vt 0.164000 0.179600
vt 0.164000 0.179600
vt 0.164000 0.179600
vt 0.164000 0.179600
vt 0.179600 0.164000
vt 0.179600 0.164000
vt 0.179600 0.164000
vt 0.179600 0.164000
vt 0.179600 0.164000
vt 0.179600 0.164000
vt 0.179600 0.164000
vt 0.179600 0.164000
vt 0.179600 0.164000
vt 0.179600 0.164000
vt 0.382800 0.992100
vt 0.382800 0.992100
vt 0.382800 0.992100
vt 0.382800 0.992100
vt 0.398400 0.476500
vt 0.398400 0.476500
vt 0.398400 0.476500
vt 0.398400 0.476500
vt 0.398400 0.492100
vt 0.398400 0.492100
vt 0.398400 0.492100
vt 0.398400 0.492100
vt 0.398400 0.976500
vt 0.398400 0.976500
vt 0.398400 0.976500
vt 0.398400 0.976500
vt 0.382800 0.976500
vt 0.382800 0.976500
vt 0.382800 0.976500
vt 0.382800 0.976500
vt 0.398400 0.976500
vt 0.398400 0.976500
vt 0.398400 0.976500
vt 0.398400 0.976500
vt 0.382800 0.476500
vt 0.382800 0.476500
vt 0.382800 0.476500
vt 0.382800 0.476500
vt 0.398400 0.492100
vt 0.398400 0.492100
vt 0.398400 0.492100
vt 0.398400 0.492100
vt 0.382800 0.492100
vt 0.382800 0.492100
vt 0.382800 0.492100
vt 0.382800 0.492100
vt 0.398400 0.476500
vt 0.398400 0.476500
vt 0.398400 0.476500
vt 0.398400 0.476500
vn -1.000000 0.000000 0.000000
vn -0.999946 0.010287 0.001645
vn -0.998363 -0.028301 0.049704
vn -0.957344 -0.210520 -0.197921
vn -1.000000 0.000000 0.000000
vn -1.000000 0.000000 0.000000
vn -1.000000 0.000000 0.000000
vn -1.000000 0.000000 0.000000
vn -1.000000 0.000000 0.000000
vn -1.000000 0.000000 0.000000
vn -0.637393 -0.700497 -0.320990
vn 0.281289 -0.756571 -0.590320
vn 0.000000 0.000000 1.000000
vn 0.000000 0.000000 1.000000
vn 0.000000 0.000000 1.000000
vn 0.000000 0.000000 1.000000
vn 0.456779 -0.545044 -0.703051
vn 0.783712 -0.464379 -0.412491
vn 0.619446 -0.606739 0.498151
vn -0.458479 -0.540212 -0.705669
vn -0.786727 -0.452797 -0.419566
vn 0.000000 -0.845819 -0.533471
vn -0.627173 -0.601979 0.494243
vn 0.000000 0.000000 1.000000
vn 0.000000 0.000000 1.000000
vn 0.000000 0.000000 1.000000
vn 0.000000 0.000000 1.000000
vn 0.456557 -0.545670 -0.702709
vn 0.783309 -0.465876 -0.411566
vn 0.618448 -0.607347 0.498650
vn -0.458183 -0.541056 -0.705214
vn -0.786212 -0.454824 -0.418338
vn 0.000000 -0.843707 -0.536804
vn -0.625820 -0.602819 0.494933
vn 0.000000 0.000000 1.000000
vn 0.000000 0.000000 1.000000
vn 0.000000 0.000000 1.000000
vn 0.000000 0.000000 1.000000
vn 0.000000 0.000000 -1.000000
vn 0.000000 0.000000 -1.000000
vn 0.000000 0.000000 -1.000000
vn 0.457740 -0.542319 -0.704531
vn 0.785432 -0.457854 -0.416493
vn 0.623797 -0.604070 0.495960
vn -0.981458 -0.148144 0.121631
vn -0.730746 -0.365238 -0.576724
vn -0.581172 -0.672202 -0.458676
vn 0.000000 -0.654437 -0.756117
vn 0.000000 0.000000 -1.000000
vn 0.000000 0.000000 -1.000000
vn 0.000000 0.000000 -1.000000
vn 0.000000 0.000000 1.000000
vn 0.000000 0.000000 1.000000
vn 0.000000 0.000000 1.000000
vn 0.000000 0.000000 1.000000
vn 0.000000 0.000000 -1.000000
vn 0.000000 0.000000 -1.000000
vn 0.000000 0.000000 -1.000000
vn 0.980195 -0.153056 0.125663
vn 0.580204 -0.674512 -0.456505
vn 0.730333 -0.369348 -0.574626
vn -0.457774 -0.543551 -0.703559
vn -0.785259 -0.459784 -0.414689
vn 0.000000 -0.845293 -0.534303
vn -0.622789 -0.604691 0.496470
vn 0.000000 0.000000 -1.000000
vn 0.000000 0.000000 -1.000000
vn 0.000000 0.000000 -1.000000
vn 0.000000 0.000000 1.000000
vn 0.000000 0.000000 1.000000
vn 0.000000 0.000000 1.000000
vn 0.000000 0.000000 1.000000
vn 0.457484 -0.541718 -0.705160
vn 0.785209 -0.457435 -0.417373
vn 0.623797 -0.604070 0.495960
vn 0.000000 0.000000 -1.000000
vn 0.000000 0.000000 -1.000000
vn 0.000000 0.000000 -1.000000
vn -0.458438 -0.536286 -0.708683
vn -0.787178 -0.446950 -0.424955
vn 0.000000 -0.843289 -0.537460
vn -0.630232 -0.600067 0.492673
vn 0.000000 0.000000 1.000000
vn 0.000000 0.000000 1.000000
vn 0.000000 0.000000 1.000000
vn 0.000000 0.000000 1.000000
vn 0.458168 -0.546403 -0.701089
vn 0.000000 0.000000 -1.000000
vn 0.000000 0.000000 -1.000000
vn 0.000000 0.000000 -1.000000
vn 0.000000 -0.960464 -0.278404
vn 0.000000 -0.938442 -0.345437
vn 0.000000 -0.960464 -0.278404
vn 0.000000 -0.938442 -0.345437
vn 0.000000 0.933516 0.358537
vn 0.000000 0.960253 0.279131
vn 0.000000 0.946904 0.321517
vn 0.000000 0.960253 0.279131
vn 0.000000 -0.886841 -0.462074
vn 0.000000 -0.886841 -0.462074
vn 0.000000 0.886363 0.462991
vn 0.000000 0.886363 0.462991
vn 0.000000 -0.827907 -0.560866
vn 0.000000 -0.805083 -0.593162
vn 0.000000 0.794710 0.606989
vn 0.000000 0.819944 0.572443
vn 0.000000 -0.778843 -0.627219
vn 0.000000 -0.778843 -0.627219
vn 0.000000 0.768125 0.640300
vn 0.000000 0.768125 0.640300
vn 0.785112 -0.464049 -0.410192
vn 0.620780 -0.605924 0.497482
vn 0.455549 -0.549800 -0.700139
vn -0.457926 -0.540454 -0.705842
vn 0.000000 -0.849454 -0.527663
vn 0.000000 0.000000 -1.000000
vn 0.000000 0.000000 -1.000000
vn 0.000000 0.000000 -1.000000
vn -0.785987 -0.454403 -0.419216
vn -0.625820 -0.602819 0.494933
vn 0.000000 0.000000 1.000000
vn 0.000000 0.000000 1.000000
vn 0.000000 0.000000 1.000000
vn 0.000000 0.000000 1.000000
vn 0.000000 0.000000 -1.000000
vn 0.000000 0.000000 -1.000000
vn 0.000000 0.000000 -1.000000
vn 0.457740 -0.542319 -0.704531
vn -0.456853 -0.544835 -0.703165
vn 0.000000 -0.846865 -0.531808
vn 0.781194 -0.474719 -0.405435
vn 0.612833 -0.610738 0.501434
vn -0.783845 -0.463879 -0.412799
vn -0.619779 -0.606536 0.497984
vn 0.456630 -0.545461 -0.702824
vn -0.459365 -0.537670 -0.707032
vn 0.000000 -0.843530 -0.537082
vn 0.000000 0.000000 -1.000000
vn 0.000000 0.000000 -1.000000
vn 0.000000 0.000000 -1.000000
vn 0.000000 0.000000 1.000000
vn 0.000000 0.000000 1.000000
vn 0.000000 0.000000 1.000000
vn 0.000000 0.000000 1.000000
vn 0.000000 0.000000 -1.000000
vn 0.000000 0.000000 -1.000000
vn 0.000000 0.000000 -1.000000
vn 0.458405 -0.540423 -0.705555
vn -0.458110 -0.541267 -0.705100
vn 0.000000 -0.842286 -0.539031
vn 0.785432 -0.457854 -0.416493
vn 0.623797 -0.604070 0.495960
vn -0.788249 -0.446684 -0.423246
vn -0.631256 -0.599424 0.492145
vn 0.000000 0.000000 -1.000000
vn 0.000000 0.000000 -1.000000
vn 0.000000 0.000000 -1.000000
vn 0.630914 -0.693842 -0.347176
vn -0.457296 -0.543579 -0.703848
vn -0.282440 -0.753419 -0.593791
vn 0.000000 0.000000 1.000000
vn 0.000000 0.000000 1.000000
vn 0.000000 0.000000 1.000000
vn 0.000000 0.000000 1.000000
vn 0.783443 -0.465377 -0.411875
vn 0.618780 -0.607145 0.498484
vn -0.786083 -0.455330 -0.418030
vn -0.625482 -0.603029 0.495105
vn 0.000000 0.000000 1.000000
vn 0.000000 0.000000 1.000000
vn 0.000000 0.000000 1.000000
vn 0.000000 0.000000 1.000000
vn 0.786599 -0.453304 -0.419259
vn 0.626834 -0.602189 0.494416
vn -0.784643 -0.460872 -0.414647
vn -0.621784 -0.605309 0.496977
vn 0.000000 0.000000 1.000000
vn 0.000000 0.000000 1.000000
vn 0.000000 0.000000 1.000000
vn 0.000000 0.000000 1.000000
vn 0.997174 -0.068836 0.030079
vn 0.940137 -0.259316 -0.221127
vn 1.000000 0.000000 0.000000
vn 0.999946 -0.010287 -0.001645
vn 1.000000 0.000000 0.000000
vn 1.000000 0.000000 0.000000
vn 1.000000 0.000000 0.000000
vn 1.000000 0.000000 0.000000
vn 1.000000 0.000000 0.000000
vn 1.000000 0.000000 0.000000
vn -0.858573 -0.512691 0.000000
vn -0.858573 -0.512691 0.000000
vn -0.858573 -0.512691 0.000000
vn -0.858573 -0.512691 0.000000
vn -0.910434 0.000000 0.413654
vn -0.910434 0.000000 0.413654
vn -0.910434 0.000000 0.413654
vn -0.910434 0.000000 0.413654
vn 0.000000 1.000000 0.000000
vn 0.000000 1.000000 0.000000
vn 0.000000 1.000000 0.000000
vn 0.000000 1.000000 0.000000
vn 0.858575 -0.512689 0.000000
vn 0.858575 -0.512689 0.000000
vn 0.858575 -0.512689 0.000000
vn 0.858575 -0.512689 0.000000
vn 0.910435 0.000000 0.413652
vn 0.910435 0.000000 0.413652
vn 0.910435 0.000000 0.413652
vn 0.910435 0.000000 0.413652
vn -0.858573 -0.512691 0.000000
vn -0.858573 -0.512691 0.000000
vn -0.858573 -0.512691 0.000000
vn -0.858573 -0.512691 0.000000
vn -0.910434 0.000000 0.413654
vn -0.910434 0.000000 0.413654
vn -0.910434 0.000000 0.413654
vn -0.910434 0.000000 0.413654
vn 0.000000 1.000000 0.000000
vn 0.000000 1.000000 0.000000
vn 0.000000 1.000000 0.000000
vn 0.000000 1.000000 0.000000
vn 0.858573 -0.512691 0.000000
vn 0.858573 -0.512691 0.000000
vn 0.858573 -0.512691 0.000000
vn 0.858573 -0.512691 0.000000
vn 0.910434 0.000000 0.413654
vn 0.910434 0.000000 0.413654
vn 0.910434 0.000000 0.413654
vn 0.910434 0.000000 0.413654
f 40/40/40 41/41/41 39/39/39 
f 65/65/65 63/63/63 65/65/65 
f 64/64/64 63/63/63 65/65/65 
f 64/64/64 62/62/62 63/63/63 
f 64/64/64 62/62/62 64/64/64 
f 64/64/64 73/73/73 62/62/62 
f 64/64/64 73/73/73 64/64/64 
f 64/64/64 74/74/74 73/73/73 
f 75/75/75 74/74/74 64/64/64 
f 162/162/162 163/163/163 161/161/161 
f 164/164/164 163/163/163 162/162/162 
f 156/156/156 157/157/157 155/155/155 
f 34/34/34 32/32/32 34/34/34 
f 33/33/33 32/32/32 34/34/34 
f 33/33/33 31/31/31 32/32/32 
f 33/33/33 31/31/31 33/33/33 
f 33/33/33 42/42/42 31/31/31 
f 33/33/33 42/42/42 33/33/33 
f 33/33/33 43/43/43 42/42/42 
f 44/44/44 43/43/43 33/33/33 
f 146/146/146 147/147/147 145/145/145 
f 154/154/154 153/153/153 154/154/154 
f 137/137/137 153/153/153 154/154/154 
f 137/137/137 136/136/136 153/153/153 
f 137/137/137 136/136/136 137/137/137 
f 137/137/137 135/135/135 136/136/136 
f 137/137/137 135/135/135 137/137/137 
f 137/137/137 165/165/165 135/135/135 
f 166/166/166 165/165/165 137/137/137 
f 142/142/142 143/143/143 141/141/141 
f 144/144/144 143/143/143 142/142/142 
f 139/139/139 140/140/140 138/138/138 
f 134/134/134 133/133/133 134/134/134 
f 130/130/130 133/133/133 134/134/134 
f 130/130/130 129/129/129 133/133/133 
f 130/130/130 129/129/129 130/130/130 
f 130/130/130 128/128/128 129/129/129 
f 130/130/130 128/128/128 130/130/130 
f 130/130/130 151/151/151 128/128/128 
f 152/152/152 151/151/151 130/130/130 
f 126/126/126 127/127/127 125/125/125 
f 168/168/168 167/167/167 168/168/168 
f 150/150/150 167/167/167 168/168/168 
f 150/150/150 149/149/149 167/167/167 
f 150/150/150 149/149/149 150/150/150 
f 150/150/150 148/148/148 149/149/149 
f 150/150/150 148/148/148 150/150/150 
f 150/150/150 173/173/173 148/148/148 
f 174/174/174 173/173/173 150/150/150 
f 117/117/117 118/118/118 116/116/116 
f 120/120/120 119/119/119 120/120/120 
f 115/115/115 119/119/119 120/120/120 
f 115/115/115 114/114/114 119/119/119 
f 115/115/115 114/114/114 115/115/115 
f 115/115/115 113/113/113 114/114/114 
f 115/115/115 113/113/113 115/115/115 
f 115/115/115 131/131/131 113/113/113 
f 132/132/132 131/131/131 115/115/115 
f 89/89/89 90/90/90 88/88/88 
f 82/82/82 80/80/80 82/82/82 
f 81/81/81 80/80/80 82/82/82 
f 81/81/81 79/79/79 80/80/80 
f 81/81/81 79/79/79 81/81/81 
f 81/81/81 87/87/87 79/79/79 
f 81/81/81 87/87/87 81/81/81 
f 81/81/81 111/111/111 87/87/87 
f 112/112/112 111/111/111 81/81/81 
f 84/84/84 85/85/85 83/83/83 
f 86/86/86 85/85/85 84/84/84 
f 77/77/77 78/78/78 76/76/76 
f 23/23/23 21/21/21 23/23/23 
f 22/22/22 21/21/21 23/23/23 
f 22/22/22 20/20/20 21/21/21 
f 22/22/22 20/20/20 22/22/22 
f 22/22/22 28/28/28 20/20/20 
f 22/22/22 28/28/28 22/22/22 
f 22/22/22 29/29/29 28/28/28 
f 30/30/30 29/29/29 22/22/22 
f 70/70/70 71/71/71 69/69/69 
f 72/72/72 71/71/71 70/70/70 
f 67/67/67 68/68/68 66/66/66 
f 59/59/59 61/61/61 59/59/59 
f 60/60/60 61/61/61 59/59/59 
f 60/60/60 48/48/48 61/61/61 
f 47/47/47 48/48/48 60/60/60 
f 47/47/47 46/46/46 48/48/48 
f 45/45/45 46/46/46 47/47/47 
f 57/57/57 58/58/58 56/56/56 
f 108/108/108 107/107/107 108/108/108 
f 104/104/104 107/107/107 108/108/108 
f 104/104/104 103/103/103 107/107/107 
f 99/99/99 103/103/103 104/104/104 
f 99/99/99 100/100/100 103/103/103 
f 99/99/99 100/100/100 99/99/99 
f 99/99/99 92/92/92 100/100/100 
f 94/94/94 92/92/92 99/99/99 
f 94/94/94 92/92/92 92/92/92 
f 93/93/93 92/92/92 94/94/94 
f 93/93/93 91/91/91 92/92/92 
f 98/98/98 96/96/96 98/98/98 
f 97/97/97 96/96/96 98/98/98 
f 97/97/97 95/95/95 96/96/96 
f 102/102/102 95/95/95 97/97/97 
f 102/102/102 101/101/101 95/95/95 
f 102/102/102 101/101/101 102/102/102 
f 102/102/102 106/106/106 101/101/101 
f 105/105/105 106/106/106 102/102/102 
f 105/105/105 110/110/110 106/106/106 
f 109/109/109 110/110/110 105/105/105 
f 53/53/53 54/54/54 52/52/52 
f 55/55/55 54/54/54 53/53/53 
f 50/50/50 51/51/51 49/49/49 
f 176/176/176 175/175/175 176/176/176 
f 160/160/160 175/175/175 176/176/176 
f 160/160/160 159/159/159 175/175/175 
f 160/160/160 159/159/159 160/160/160 
f 160/160/160 158/158/158 159/159/159 
f 182/182/182 158/158/158 160/160/160 
f 182/182/182 181/181/181 158/158/158 
f 184/184/184 181/181/181 182/182/182 
f 184/184/184 183/183/183 181/181/181 
f 184/184/184 183/183/183 184/184/184 
f 184/184/184 186/186/186 183/183/183 
f 185/185/185 186/186/186 184/184/184 
f 185/185/185 186/186/186 186/186/186 
f 187/187/187 186/186/186 185/185/185 
f 187/187/187 188/188/188 186/186/186 
f 190/190/190 188/188/188 187/187/187 
f 190/190/190 189/189/189 188/188/188 
f 18/18/18 12/12/12 19/19/19 
f 17/17/17 12/12/12 18/18/18 
f 17/17/17 12/12/12 12/12/12 
f 11/11/11 12/12/12 17/17/17 
f 11/11/11 4/4/4 12/12/12 
f 3/3/3 4/4/4 11/11/11 
f 3/3/3 2/2/2 4/4/4 
f 1/1/1 2/2/2 3/3/3 
f 1/1/1 2/2/2 2/2/2 
f 6/6/6 2/2/2 1/1/1 
f 6/6/6 5/5/5 2/2/2 
f 8/8/8 5/5/5 6/6/6 
f 8/8/8 7/7/7 5/5/5 
f 8/8/8 7/7/7 8/8/8 
f 8/8/8 10/10/10 7/7/7 
f 9/9/9 10/10/10 8/8/8 
f 14/14/14 15/15/15 13/13/13 
f 16/16/16 15/15/15 14/14/14 
f 25/25/25 26/26/26 24/24/24 
f 27/27/27 26/26/26 25/25/25 
f 36/36/36 37/37/37 35/35/35 
f 38/38/38 37/37/37 36/36/36 
f 123/123/123 122/122/122 124/124/124 
f 121/121/121 122/122/122 123/123/123 
f 170/170/170 171/171/171 169/169/169 
f 172/172/172 171/171/171 170/170/170 
f 178/178/178 179/179/179 177/177/177 
f 180/180/180 179/179/179 178/178/178 
f 192/192/192 193/193/193 191/191/191 
f 194/194/194 193/193/193 192/192/192 
f 228/228/228 229/229/229 227/227/227 
f 230/230/230 229/229/229 228/228/228 
f 224/224/224 225/225/225 223/223/223 
f 226/226/226 225/225/225 224/224/224 
f 220/220/220 221/221/221 219/219/219 
f 222/222/222 221/221/221 220/220/220 
f 216/216/216 217/217/217 215/215/215 
f 218/218/218 217/217/217 216/216/216 
f 212/212/212 213/213/213 211/211/211 
f 214/214/214 213/213/213 212/212/212 
f 208/208/208 209/209/209 207/207/207 
f 210/210/210 209/209/209 208/208/208 
f 204/204/204 205/205/205 203/203/203 
f 206/206/206 205/205/205 204/204/204 
f 200/200/200 201/201/201 199/199/199 
f 202/202/202 201/201/201 200/200/200 
f 196/196/196 197/197/197 195/195/195 
f 198/198/198 197/197/197 196/196/196 
