v -2.167600 0.000000 -1.980500
v -2.167600 0.000000 2.302200
v -2.167600 0.163500 -1.980500
v -2.167600 0.163500 2.302200
v -1.855900 4.123800 1.622800
v -1.855900 4.123800 -1.667300
v -1.855900 -0.312000 1.622800
v -1.855900 -0.312000 -1.667300
v -1.855900 4.689700 1.622800
v -1.855900 4.689700 -1.667300
v -1.301900 4.137900 1.598100
v -1.297400 0.043000 1.598100
v -1.301900 3.938500 1.950900
v -1.301900 0.043000 1.950900
v -1.301900 0.043000 1.950900
v -1.146600 0.668400 1.950900
v -1.301900 3.938500 1.950900
v -1.146600 3.838200 1.950900
v -1.146600 2.692200 1.785500
v -1.146600 1.814400 1.785500
v -1.146600 2.692200 1.633000
v -1.146600 1.814400 1.633000
v -1.146600 3.838200 1.950900
v -1.146600 0.668400 1.950900
v -1.146600 3.838200 1.785500
v -1.146600 0.668400 1.785500
v -1.855900 4.689700 -1.667300
v -1.855900 4.689700 1.622800
v -1.281600 4.689700 1.163300
v -1.855900 4.123800 -1.667300
v 0.018700 4.123800 -1.667300
v -1.855900 -0.312000 -1.667300
v 0.018700 -0.312000 -1.667300
v 0.018700 4.123800 1.622800
v -1.855900 4.123800 1.622800
v 0.018700 -0.312000 1.622800
v -1.855900 -0.312000 1.622800
v -1.855900 4.689700 -1.667300
v 0.018700 4.689700 -1.667300
v 0.018700 4.689700 1.622800
v -1.855900 4.689700 1.622800
v 0.018700 4.689700 -1.667300
v 0.018700 4.689700 1.163300
v 0.018700 4.689700 1.622800
v -1.146600 0.668400 1.950900
v 1.121200 0.668400 1.950900
v -1.146600 0.668400 1.785500
v 1.121200 0.668400 1.785600
v -1.146600 0.668400 1.785500
v 1.121200 0.668400 1.785600
v -1.146600 1.814400 1.785500
v 1.121200 1.814400 1.785600
v -1.146600 1.814400 1.785500
v 1.121200 1.814400 1.785600
v -1.146600 1.814400 1.633000
v 1.121200 1.814400 1.633000
v -1.146600 2.692200 1.633000
v -1.146600 1.814400 1.633000
v 1.121200 2.692200 1.633000
v 1.121200 1.814400 1.633000
v 1.121200 2.692200 1.785600
v -1.146600 2.692200 1.785500
v 1.121200 2.692200 1.633000
v -1.146600 2.692200 1.633000
v 1.121200 3.838200 1.785600
v -1.146600 3.838200 1.785500
v 1.121200 2.692200 1.785600
v -1.146600 2.692200 1.785500
v 1.121200 3.838200 1.950900
v -1.146600 3.838200 1.950900
v 1.121200 3.838200 1.785600
v -1.146600 3.838200 1.785500
v 1.276600 0.043000 1.950900
v 1.121200 0.668400 1.950900
v 1.276600 3.938500 1.950900
v 1.121200 3.838200 1.950900
v 1.276600 3.938500 1.950900
v 1.276600 4.137900 1.598100
v -1.301900 3.938500 1.950900
v -1.301900 4.137900 1.598100
v -1.301900 4.137900 1.598100
v 1.276600 4.137900 1.598100
v -1.297400 0.043000 1.598100
v 1.276600 0.043000 1.598100
v -1.301900 0.043000 1.950900
v -1.297400 0.043000 1.598100
v 1.276600 0.043000 1.950900
v 1.276600 0.043000 1.598100
v -2.167600 0.000000 -1.980500
v 2.276200 0.000000 -1.980500
v -2.167600 0.000000 2.302200
v 2.276200 0.000000 2.302200
v -2.167600 0.163500 -1.980500
v 2.276200 0.163500 -1.980500
v -2.167600 0.000000 -1.980500
v 2.276200 0.000000 -1.980500
v -2.167600 0.000000 2.302200
v 2.276200 0.000000 2.302200
v -2.167600 0.163500 2.302200
v 2.276200 0.163500 2.302200
v -2.167600 0.163500 2.302200
v 2.276200 0.163500 2.302200
v -2.167600 0.163500 -1.980500
v 2.276200 0.163500 -1.980500
v 1.971300 4.689700 -1.667300
v 1.319000 4.689700 1.163300
v 1.971300 4.689700 1.622800
v 1.971300 -0.312000 -1.667300
v 1.971300 4.123800 -1.667300
v 1.971300 4.123800 1.622800
v 1.971300 -0.312000 1.622800
v 1.971300 4.689700 -1.667300
v 1.971300 4.689700 1.622800
v 1.121200 1.814400 1.785600
v 1.121200 2.692200 1.785600
v 1.121200 1.814400 1.633000
v 1.121200 2.692200 1.633000
v 1.121200 0.668400 1.950900
v 1.121200 3.838200 1.950900
v 1.121200 0.668400 1.785600
v 1.121200 3.838200 1.785600
v 1.276600 4.137900 1.598100
v 1.276600 3.938500 1.950900
v 1.276600 0.043000 1.598100
v 1.276600 0.043000 1.950900
v 1.971300 4.123800 -1.667300
v 1.971300 4.123800 1.622800
v 1.971300 -0.312000 -1.667300
v 1.971300 -0.312000 1.622800
v 1.971300 4.689700 -1.667300
v 1.971300 4.689700 1.622800
v 1.971300 4.123800 -1.667300
v 1.971300 4.123800 1.622800
v 2.276200 0.000000 2.302200
v 2.276200 0.000000 -1.980500
v 2.276200 0.163500 2.302200
v 2.276200 0.163500 -1.980500
vt 0.179600 0.992100
vt 0.179600 0.992100
vt 0.179600 0.992100
vt 0.179600 0.992100
vt 0.304600 0.757800
vt 0.304600 0.757800
vt 0.304600 0.757800
vt 0.304600 0.757800
vt 0.304600 0.757800
vt 0.304600 0.757800
vt 0.304600 0.273400
vt 0.304600 0.273400
vt 0.304600 0.273400
vt 0.304600 0.273400
vt 0.304600 0.773400
vt 0.304600 0.773400
vt 0.304600 0.773400
vt 0.304600 0.773400
vt 0.289000 0.757800
vt 0.289000 0.757800
vt 0.289000 0.757800
vt 0.289000 0.757800
vt 0.289000 0.757800
vt 0.289000 0.757800
vt 0.289000 0.757800
vt 0.289000 0.757800
vt 0.304600 0.273400
vt 0.304600 0.273400
vt 0.304600 0.273400
vt 0.289000 0.273400
vt 0.289000 0.273400
vt 0.289000 0.273400
vt 0.289000 0.273400
vt 0.289000 0.757800
vt 0.289000 0.757800
vt 0.289000 0.757800
vt 0.289000 0.757800
vt 0.289000 0.273400
vt 0.289000 0.273400
vt 0.289000 0.757800
vt 0.289000 0.757800
vt 0.304600 0.273400
vt 0.304600 0.273400
vt 0.304600 0.273400
vt 0.304600 0.757800
vt 0.304600 0.757800
vt 0.304600 0.757800
vt 0.304600 0.757800
vt 0.304600 0.257800
vt 0.304600 0.257800
vt 0.304600 0.257800
vt 0.304600 0.257800
vt 0.304600 0.757800
vt 0.304600 0.757800
vt 0.304600 0.757800
vt 0.304600 0.757800
vt 0.195300 0.273400
vt 0.195300 0.273400
vt 0.195300 0.273400
vt 0.195300 0.273400
vt 0.304600 0.273400
vt 0.304600 0.273400
vt 0.304600 0.273400
vt 0.304600 0.273400
vt 0.304600 0.773400
vt 0.304600 0.773400
vt 0.304600 0.773400
vt 0.304600 0.773400
vt 0.304600 0.273400
vt 0.304600 0.273400
vt 0.304600 0.273400
vt 0.304600 0.273400
vt 0.304600 0.773400
vt 0.304600 0.773400
vt 0.304600 0.773400
vt 0.304600 0.773400
vt 0.289000 0.273400
vt 0.289000 0.273400
vt 0.289000 0.273400
vt 0.289000 0.273400
vt 0.289000 0.773400
vt 0.289000 0.773400
vt 0.289000 0.773400
vt 0.289000 0.773400
vt 0.304600 0.257800
vt 0.304600 0.257800
vt 0.304600 0.257800
vt 0.304600 0.257800
vt 0.179600 0.476500
vt 0.179600 0.476500
vt 0.179600 0.476500
vt 0.179600 0.476500
vt 0.164000 0.476500
vt 0.164000 0.476500
vt 0.164000 0.476500
vt 0.164000 0.476500
vt 0.164000 0.492100
vt 0.164000 0.492100
vt 0.164000 0.492100
vt 0.164000 0.492100
vt 0.179600 0.492100
vt 0.179600 0.492100
vt 0.179600 0.492100
vt 0.179600 0.492100
vt 0.304600 0.273400
vt 0.304600 0.273400
vt 0.304600 0.273400
vt 0.289000 0.273400
vt 0.289000 0.273400
vt 0.289000 0.757800
vt 0.289000 0.757800
vt 0.289000 0.273400
vt 0.289000 0.757800
vt 0.289000 0.273400
vt 0.289000 0.273400
vt 0.289000 0.273400
vt 0.289000 0.273400
vt 0.289000 0.273400
vt 0.289000 0.273400
vt 0.289000 0.273400
vt 0.289000 0.273400
vt 0.289000 0.257800
vt 0.289000 0.257800
vt 0.289000 0.257800
vt 0.289000 0.257800
vt 0.304600 0.273400
vt 0.304600 0.273400
vt 0.304600 0.273400
vt 0.304600 0.273400
vt 0.289000 0.257800
vt 0.289000 0.257800
vt 0.289000 0.257800
vt 0.289000 0.257800
vt 0.164000 0.992100
vt 0.164000 0.992100
vt 0.164000 0.992100
vt 0.164000 0.992100
vn -1.000000 0.000000 0.000000
vn -1.000000 0.000000 0.000000
vn -1.000000 0.000000 0.000000
vn -1.000000 0.000000 0.000000
vn -1.000000 0.000000 0.000000
vn -1.000000 0.000000 0.000000
vn -1.000000 0.000000 0.000000
vn -1.000000 0.000000 0.000000
vn -1.000000 0.000000 0.000000
vn -1.000000 0.000000 0.000000
vn -0.999999 -0.001099 -0.000621
vn -0.999979 -0.000563 -0.006537
vn -0.999979 -0.000563 -0.006537
vn -0.999919 0.000000 -0.012754
vn 0.000000 0.000000 1.000000
vn 0.000000 0.000000 1.000000
vn 0.000000 0.000000 1.000000
vn 0.000000 0.000000 1.000000
vn 1.000000 0.000000 0.000000
vn 1.000000 0.000000 0.000000
vn 1.000000 0.000000 0.000000
vn 1.000000 0.000000 0.000000
vn 1.000000 0.000000 0.000000
vn 1.000000 0.000000 0.000000
vn 1.000000 0.000000 0.000000
vn 1.000000 0.000000 0.000000
vn 0.000000 1.000000 0.000000
vn 0.000000 1.000000 0.000000
vn 0.000000 1.000000 0.000000
vn 0.000000 0.000000 -1.000000
vn 0.000000 0.000000 -1.000000
vn 0.000000 0.000000 -1.000000
vn 0.000000 0.000000 -1.000000
vn 0.000000 0.000000 1.000000
vn 0.000000 0.000000 1.000000
vn 0.000000 0.000000 1.000000
vn 0.000000 0.000000 1.000000
vn 0.000000 0.000000 -1.000000
vn 0.000000 0.000000 -1.000000
vn 0.000000 0.000000 1.000000
vn 0.000000 0.000000 1.000000
vn 0.000000 1.000000 0.000000
vn 0.000000 1.000000 0.000000
vn 0.000000 1.000000 0.000000
vn 0.000000 1.000000 0.000000
vn 0.000000 1.000000 0.000000
vn 0.000000 1.000000 0.000000
vn 0.000000 1.000000 0.000000
vn -0.000044 0.000000 1.000000
vn -0.000044 0.000000 1.000000
vn -0.000044 0.000000 1.000000
vn -0.000044 0.000000 1.000000
vn 0.000000 1.000000 0.000000
vn 0.000000 1.000000 0.000000
vn 0.000000 1.000000 0.000000
vn 0.000000 1.000000 0.000000
vn 0.000000 0.000000 1.000000
vn 0.000000 0.000000 1.000000
vn 0.000000 0.000000 1.000000
vn 0.000000 0.000000 1.000000
vn 0.000000 -1.000000 0.000000
vn 0.000000 -1.000000 0.000000
vn 0.000000 -1.000000 0.000000
vn 0.000000 -1.000000 0.000000
vn -0.000044 0.000000 1.000000
vn -0.000044 0.000000 1.000000
vn -0.000044 0.000000 1.000000
vn -0.000044 0.000000 1.000000
vn 0.000000 -1.000000 0.000000
vn 0.000000 -1.000000 0.000000
vn 0.000000 -1.000000 0.000000
vn 0.000000 -1.000000 0.000000
vn 0.000000 0.000000 1.000000
vn 0.000000 0.000000 1.000000
vn 0.000000 0.000000 1.000000
vn 0.000000 0.000000 1.000000
vn 0.000000 0.870572 0.492041
vn 0.000000 0.870572 0.492041
vn 0.000000 0.870572 0.492041
vn 0.000000 0.870572 0.492041
vn 0.000000 0.000000 -1.000000
vn 0.000000 0.000000 -1.000000
vn 0.000000 0.000000 -1.000000
vn 0.000000 0.000000 -1.000000
vn 0.000000 -1.000000 0.000000
vn 0.000000 -1.000000 0.000000
vn 0.000000 -1.000000 0.000000
vn 0.000000 -1.000000 0.000000
vn 0.000000 -1.000000 0.000000
vn 0.000000 -1.000000 0.000000
vn 0.000000 -1.000000 0.000000
vn 0.000000 -1.000000 0.000000
vn 0.000000 0.000000 -1.000000
vn 0.000000 0.000000 -1.000000
vn 0.000000 0.000000 -1.000000
vn 0.000000 0.000000 -1.000000
vn 0.000000 0.000000 1.000000
vn 0.000000 0.000000 1.000000
vn 0.000000 0.000000 1.000000
vn 0.000000 0.000000 1.000000
vn 0.000000 1.000000 0.000000
vn 0.000000 1.000000 0.000000
vn 0.000000 1.000000 0.000000
vn 0.000000 1.000000 0.000000
vn 0.000000 1.000000 0.000000
vn 0.000000 1.000000 0.000000
vn 0.000000 1.000000 0.000000
vn 0.000000 0.000000 -1.000000
vn 0.000000 0.000000 -1.000000
vn 0.000000 0.000000 1.000000
vn 0.000000 0.000000 1.000000
vn 0.000000 0.000000 -1.000000
vn 0.000000 0.000000 1.000000
vn -1.000000 0.000000 0.000000
vn -1.000000 0.000000 0.000000
vn -1.000000 0.000000 0.000000
vn -1.000000 0.000000 0.000000
vn -1.000000 0.000000 0.000000
vn -1.000000 0.000000 0.000000
vn -1.000000 0.000000 0.000000
vn -1.000000 0.000000 0.000000
vn 1.000000 0.000000 0.000000
vn 1.000000 0.000000 0.000000
vn 1.000000 0.000000 0.000000
vn 1.000000 0.000000 0.000000
vn 1.000000 0.000000 0.000000
vn 1.000000 0.000000 0.000000
vn 1.000000 0.000000 0.000000
vn 1.000000 0.000000 0.000000
vn 1.000000 0.000000 0.000000
vn 1.000000 0.000000 0.000000
vn 1.000000 0.000000 0.000000
vn 1.000000 0.000000 0.000000
vn 1.000000 0.000000 0.000000
vn 1.000000 0.000000 0.000000
vn 1.000000 0.000000 0.000000
vn 1.000000 0.000000 0.000000
f 12/12/12 13/13/13 11/11/11 
f 14/14/14 13/13/13 12/12/12 
f 40/40/40 110/110/110 113/113/113 
f 41/41/41 40/40/40 41/41/41 
f 34/34/34 40/40/40 41/41/41 
f 34/34/34 110/110/110 40/40/40 
f 34/34/34 110/110/110 34/34/34 
f 34/34/34 111/111/111 110/110/110 
f 34/34/34 111/111/111 34/34/34 
f 34/34/34 36/36/36 111/111/111 
f 35/35/35 36/36/36 34/34/34 
f 35/35/35 37/37/37 36/36/36 
f 35/35/35 34/34/34 41/41/41 
f 46/46/46 47/47/47 45/45/45 
f 48/48/48 47/47/47 46/46/46 
f 43/43/43 29/29/29 44/44/44 
f 44/44/44 28/28/28 44/44/44 
f 29/29/29 28/28/28 44/44/44 
f 29/29/29 27/27/27 28/28/28 
f 29/29/29 27/27/27 29/29/29 
f 29/29/29 42/42/42 27/27/27 
f 43/43/43 42/42/42 29/29/29 
f 43/43/43 106/106/106 42/42/42 
f 44/44/44 106/106/106 43/43/43 
f 44/44/44 106/106/106 106/106/106 
f 107/107/107 106/106/106 44/44/44 
f 107/107/107 106/106/106 106/106/106 
f 105/105/105 106/106/106 107/107/107 
f 105/105/105 42/42/42 106/106/106 
f 33/33/33 109/109/109 108/108/108 
f 31/31/31 109/109/109 33/33/33 
f 31/31/31 112/112/112 109/109/109 
f 31/31/31 112/112/112 31/31/31 
f 31/31/31 39/39/39 112/112/112 
f 30/30/30 39/39/39 31/31/31 
f 30/30/30 38/38/38 39/39/39 
f 31/31/31 32/32/32 30/30/30 
f 33/33/33 32/32/32 31/31/31 
f 2/2/2 3/3/3 1/1/1 
f 4/4/4 3/3/3 2/2/2 
f 135/135/135 136/136/136 134/134/134 
f 137/137/137 136/136/136 135/135/135 
f 131/131/131 132/132/132 130/130/130 
f 133/133/133 132/132/132 131/131/131 
f 127/127/127 128/128/128 126/126/126 
f 129/129/129 128/128/128 127/127/127 
f 123/123/123 124/124/124 122/122/122 
f 125/125/125 124/124/124 123/123/123 
f 119/119/119 120/120/120 118/118/118 
f 121/121/121 120/120/120 119/119/119 
f 115/115/115 116/116/116 114/114/114 
f 117/117/117 116/116/116 115/115/115 
f 102/102/102 103/103/103 101/101/101 
f 104/104/104 103/103/103 102/102/102 
f 98/98/98 99/99/99 97/97/97 
f 100/100/100 99/99/99 98/98/98 
f 94/94/94 95/95/95 93/93/93 
f 96/96/96 95/95/95 94/94/94 
f 90/90/90 91/91/91 89/89/89 
f 92/92/92 91/91/91 90/90/90 
f 86/86/86 87/87/87 85/85/85 
f 88/88/88 87/87/87 86/86/86 
f 82/82/82 83/83/83 81/81/81 
f 84/84/84 83/83/83 82/82/82 
f 78/78/78 79/79/79 77/77/77 
f 80/80/80 79/79/79 78/78/78 
f 70/70/70 71/71/71 69/69/69 
f 72/72/72 71/71/71 70/70/70 
f 66/66/66 67/67/67 65/65/65 
f 68/68/68 67/67/67 66/66/66 
f 62/62/62 63/63/63 61/61/61 
f 64/64/64 63/63/63 62/62/62 
f 58/58/58 59/59/59 57/57/57 
f 60/60/60 59/59/59 58/58/58 
f 54/54/54 55/55/55 53/53/53 
f 56/56/56 55/55/55 54/54/54 
f 50/50/50 51/51/51 49/49/49 
f 52/52/52 51/51/51 50/50/50 
f 24/24/24 25/25/25 23/23/23 
f 26/26/26 25/25/25 24/24/24 
f 20/20/20 21/21/21 19/19/19 
f 22/22/22 21/21/21 20/20/20 
f 16/16/16 17/17/17 15/15/15 
f 18/18/18 17/17/17 16/16/16 
f 18/18/18 17/17/17 17/17/17 
f 76/76/76 17/17/17 18/18/18 
f 76/76/76 75/75/75 17/17/17 
f 74/74/74 75/75/75 76/76/76 
f 74/74/74 73/73/73 75/75/75 
f 16/16/16 73/73/73 74/74/74 
f 16/16/16 15/15/15 73/73/73 
f 10/10/10 5/5/5 9/9/9 
f 6/6/6 5/5/5 10/10/10 
f 6/6/6 7/7/7 5/5/5 
f 8/8/8 7/7/7 6/6/6 
