v -0.751800 0.001100 0.463300
v -0.751800 1.079900 0.463300
v -0.751800 0.001100 -0.489700
v -0.751800 1.079900 -0.489700
v 0.003200 0.001100 0.463300
v -0.751800 0.001100 0.463300
v 0.003200 0.001100 -0.489700
v -0.751800 0.001100 -0.489700
v 0.003200 0.001100 -0.489700
v -0.751800 0.001100 -0.489700
v 0.003200 1.079900 -0.489700
v -0.751800 1.079900 -0.489700
v 0.003200 1.079900 0.463300
v -0.751800 1.079900 0.463300
v 0.003200 0.001100 0.463300
v -0.751800 0.001100 0.463300
v 0.003200 1.079900 -0.489700
v -0.751800 1.079900 -0.489700
v 0.003200 1.079900 0.463300
v -0.751800 1.079900 0.463300
v 0.758300 0.001100 0.463300
v 0.003200 0.001100 0.463300
v 0.758300 0.001100 -0.489700
v 0.003200 0.001100 -0.489700
v 0.758300 1.079900 0.463300
v 0.758300 0.001100 0.463300
v 0.758300 0.001100 -0.489700
v 0.758300 1.079900 -0.489700
v 0.758300 1.079900 -0.489700
v 0.758300 1.079900 0.463300
v 0.758300 0.001100 0.463300
v 0.758300 0.001100 -0.489700
v 0.758300 1.079900 0.463300
v 0.758300 1.079900 -0.489700
vt 0.226500 0.304600
vt 0.226500 0.304600
vt 0.226500 0.304600
vt 0.226500 0.304600
vt 0.000000 0.000000
vt 1.000000 0.000000
vt 0.000000 1.000000
vt 1.000000 1.000000
vt 0.351500 0.304600
vt 0.351500 0.304600
vt 0.351500 0.304600
vt 0.351500 0.304600
vt 0.351500 0.304600
vt 0.351500 0.304600
vt 0.351500 0.304600
vt 0.351500 0.304600
vt 0.007800 0.273400
vt 0.007800 0.273400
vt 0.007800 0.273400
vt 0.007800 0.273400
vt 0.000000 0.000000
vt 1.000000 0.000000
vt 0.000000 1.000000
vt 1.000000 1.000000
vt 0.351500 0.304600
vt 0.351500 0.304600
vt 0.351500 0.304600
vt 0.351500 0.304600
vt 0.007800 0.273400
vt 0.007800 0.273400
vt 0.226500 0.304600
vt 0.226500 0.304600
vt 0.226500 0.304600
vt 0.226500 0.304600
vn -1.000000 0.000000 0.000000
vn -1.000000 0.000000 0.000000
vn -1.000000 0.000000 0.000000
vn -1.000000 0.000000 0.000000
vn 0.000000 -1.000000 0.000000
vn 0.000000 -1.000000 0.000000
vn 0.000000 -1.000000 0.000000
vn 0.000000 -1.000000 0.000000
vn 0.000000 0.000000 -1.000000
vn 0.000000 0.000000 -1.000000
vn 0.000000 0.000000 -1.000000
vn 0.000000 0.000000 -1.000000
vn 0.000000 0.000000 1.000000
vn 0.000000 0.000000 1.000000
vn 0.000000 0.000000 1.000000
vn 0.000000 0.000000 1.000000
vn 0.000000 1.000000 0.000000
vn 0.000000 1.000000 0.000000
vn 0.000000 1.000000 0.000000
vn 0.000000 1.000000 0.000000
vn 0.000000 -1.000000 0.000000
vn 0.000000 -1.000000 0.000000
vn 0.000000 -1.000000 0.000000
vn 0.000000 -1.000000 0.000000
vn 0.000000 0.000000 1.000000
vn 0.000000 0.000000 1.000000
vn 0.000000 0.000000 -1.000000
vn 0.000000 0.000000 -1.000000
vn 0.000000 1.000000 0.000000
vn 0.000000 1.000000 0.000000
vn 1.000000 0.000000 0.000000
vn 1.000000 0.000000 0.000000
vn 1.000000 0.000000 0.000000
vn 1.000000 0.000000 0.000000
f 2/2/2 3/3/3 1/1/1 
f 4/4/4 3/3/3 2/2/2 
f 32/32/32 33/33/33 31/31/31 
f 34/34/34 33/33/33 32/32/32 
f 22/22/22 23/23/23 21/21/21 
f 24/24/24 23/23/23 22/22/22 
f 6/6/6 7/7/7 5/5/5 
f 8/8/8 7/7/7 6/6/6 
f 12/12/12 10/10/10 12/12/12 
f 11/11/11 10/10/10 12/12/12 
f 11/11/11 9/9/9 10/10/10 
f 11/11/11 9/9/9 11/11/11 
f 11/11/11 27/27/27 9/9/9 
f 28/28/28 27/27/27 11/11/11 
f 20/20/20 18/18/18 20/20/20 
f 19/19/19 18/18/18 20/20/20 
f 19/19/19 17/17/17 18/18/18 
f 19/19/19 17/17/17 19/19/19 
f 19/19/19 29/29/29 17/17/17 
f 30/30/30 29/29/29 19/19/19 
f 16/16/16 14/14/14 16/16/16 
f 15/15/15 14/14/14 16/16/16 
f 15/15/15 13/13/13 14/14/14 
f 15/15/15 13/13/13 15/15/15 
f 15/15/15 25/25/25 13/13/13 
f 26/26/26 25/25/25 15/15/15 
