v -0.067200 0.000000 0.000000
v 0.067200 0.000000 0.000000
v 0.000200 0.036100 0.000000
v -0.299500 0.797200 -0.068800
v -0.258000 0.798400 0.068500
v -0.264300 0.850100 -0.057800
v -0.263500 0.745000 -0.057800
v -0.258000 0.798400 0.068500
v -0.299500 0.797200 -0.068800
v -0.238100 0.776300 0.035200
v -0.299500 0.797200 -0.068800
v -0.264300 0.850100 -0.057800
v -0.263500 0.745000 -0.057800
v -0.299500 0.797200 -0.068800
v -0.238100 0.776300 0.035200
v -0.258000 0.798400 0.068500
v -0.277800 0.912000 -0.068800
v -0.264300 0.850100 -0.057800
v -0.275700 0.682800 -0.068800
v -0.258000 0.798400 0.068500
v -0.263500 0.745000 -0.057800
v -0.238100 0.776300 0.035200
v -0.275700 0.682800 -0.068800
v -0.263500 0.745000 -0.057800
v -0.222900 0.929300 0.068500
v -0.222900 0.667400 0.068500
v -0.258000 0.798400 0.068500
v -0.275700 0.682800 -0.068800
v -0.222400 0.648400 -0.057800
v -0.275700 0.682800 -0.068800
v -0.238100 0.776300 0.035200
v -0.277800 0.912000 -0.068800
v -0.222900 0.929300 0.068500
v -0.225300 0.947200 -0.057800
v -0.222400 0.648400 -0.057800
v -0.172000 0.951800 0.035200
v -0.264300 0.850100 -0.057800
v -0.277800 0.912000 -0.068800
v -0.172000 0.951800 0.035200
v -0.277800 0.912000 -0.068800
v -0.225300 0.947200 -0.057800
v -0.264300 0.850100 -0.057800
v -0.172000 0.951800 0.035200
v -0.222900 0.929300 0.068500
v -0.214000 1.009500 -0.068800
v -0.225300 0.947200 -0.057800
v -0.209900 0.586300 -0.068800
v -0.222900 0.667400 0.068500
v -0.222400 0.648400 -0.057800
v -0.150900 0.615500 0.035200
v -0.225300 0.947200 -0.057800
v -0.214000 1.009500 -0.068800
v -0.172000 0.951800 0.035200
v -0.150900 0.615500 0.035200
v -0.209900 0.586300 -0.068800
v -0.222400 0.648400 -0.057800
v -0.127000 1.025200 0.068500
v -0.127000 0.571600 0.068500
v -0.222900 0.667400 0.068500
v -0.209900 0.586300 -0.068800
v -0.214000 1.009500 -0.068800
v -0.151900 1.022000 -0.057800
v -0.150900 0.615500 0.035200
v -0.147600 0.575000 -0.057800
v -0.209900 0.586300 -0.068800
v -0.214000 1.009500 -0.068800
v -0.127000 1.025200 0.068500
v -0.151900 1.022000 -0.057800
v -0.147600 0.575000 -0.057800
v -0.112200 0.522400 -0.068800
v -0.147600 0.575000 -0.057800
v -0.127000 1.025200 0.068500
v -0.117500 1.075300 -0.068800
v -0.151900 1.022000 -0.057800
v -0.112200 0.522400 -0.068800
v -0.127000 0.571600 0.068500
v -0.147600 0.575000 -0.057800
v -0.151900 1.022000 -0.057800
v -0.025200 1.039000 0.035200
v -0.172000 0.951800 0.035200
v -0.050300 0.535800 -0.057800
v -0.112200 0.522400 -0.068800
v -0.150900 0.615500 0.035200
v -0.117500 1.075300 -0.068800
v 0.003800 1.060300 0.068500
v 0.003800 0.536500 0.068500
v -0.127000 0.571600 0.068500
v -0.112200 0.522400 -0.068800
v -0.025200 1.039000 0.035200
v -0.117500 1.075300 -0.068800
v -0.055300 1.063100 -0.057800
v 0.025500 0.551100 0.035200
v -0.117500 1.075300 -0.068800
v 0.003800 1.060300 0.068500
v -0.055300 1.063100 -0.057800
v -0.050300 0.535800 -0.057800
v -0.055300 1.063100 -0.057800
v -0.003200 1.099200 -0.068800
v -0.025200 1.039000 0.035200
v 0.003800 1.060300 0.068500
v -0.003200 1.099200 -0.068800
v -0.055300 1.063100 -0.057800
v -0.025200 1.039000 0.035200
v 0.150200 0.986800 0.035200
v -0.172000 0.951800 0.035200
v 0.002400 0.500700 -0.068800
v 0.003800 0.536500 0.068500
v -0.050300 0.535800 -0.057800
v -0.238100 0.776300 0.035200
v 0.237300 0.826000 0.035200
v 0.025500 0.551100 0.035200
v 0.002400 0.500700 -0.068800
v -0.050300 0.535800 -0.057800
v 0.134700 0.571600 0.068500
v -0.127000 0.571600 0.068500
v 0.003800 0.536500 0.068500
v -0.127000 1.025200 0.068500
v 0.134700 1.025200 0.068500
v 0.003800 1.060300 0.068500
v 0.230600 0.667400 0.068500
v -0.222900 0.667400 0.068500
v 0.230600 0.929300 0.068500
v -0.222900 0.929300 0.068500
v 0.265700 0.798400 0.068500
v -0.258000 0.798400 0.068500
v -0.025200 1.039000 0.035200
v -0.003200 1.099200 -0.068800
v 0.049500 1.064100 -0.057800
v 0.185200 0.650600 0.035200
v -0.150900 0.615500 0.035200
v -0.003200 1.099200 -0.068800
v 0.003800 1.060300 0.068500
v 0.049500 1.064100 -0.057800
v 0.025500 0.551100 0.035200
v 0.003800 0.536500 0.068500
v 0.002400 0.500700 -0.068800
v 0.054500 0.536800 -0.057800
v 0.054500 0.536800 -0.057800
v 0.002400 0.500700 -0.068800
v 0.025500 0.551100 0.035200
v 0.003800 1.060300 0.068500
v 0.111400 1.077500 -0.068800
v 0.049500 1.064100 -0.057800
v 0.049500 1.064100 -0.057800
v 0.150200 0.986800 0.035200
v -0.025200 1.039000 0.035200
v 0.116700 0.524600 -0.068800
v 0.003800 0.536500 0.068500
v 0.054500 0.536800 -0.057800
v 0.025500 0.551100 0.035200
v 0.116700 0.524600 -0.068800
v 0.054500 0.536800 -0.057800
v 0.134700 1.025200 0.068500
v 0.134700 0.571600 0.068500
v 0.116700 0.524600 -0.068800
v 0.151100 0.577900 -0.057800
v 0.116700 0.524600 -0.068800
v 0.111400 1.077500 -0.068800
v 0.151100 0.577900 -0.057800
v 0.185200 0.650600 0.035200
v 0.111400 1.077500 -0.068800
v 0.134700 1.025200 0.068500
v 0.146800 1.024900 -0.057800
v 0.151100 0.577900 -0.057800
v 0.150200 0.986800 0.035200
v 0.111400 1.077500 -0.068800
v 0.146800 1.024900 -0.057800
v 0.134700 1.025200 0.068500
v 0.209100 1.013600 -0.068800
v 0.146800 1.024900 -0.057800
v 0.213200 0.590400 -0.068800
v 0.134700 0.571600 0.068500
v 0.151100 0.577900 -0.057800
v 0.209100 1.013600 -0.068800
v 0.230600 0.929300 0.068500
v 0.230600 0.667400 0.068500
v 0.134700 0.571600 0.068500
v 0.213200 0.590400 -0.068800
v 0.150200 0.986800 0.035200
v 0.209100 1.013600 -0.068800
v 0.221700 0.951500 -0.057800
v 0.221700 0.951500 -0.057800
v 0.237300 0.826000 0.035200
v 0.150200 0.986800 0.035200
v 0.209100 1.013600 -0.068800
v 0.230600 0.929300 0.068500
v 0.221700 0.951500 -0.057800
v 0.224500 0.652700 -0.057800
v 0.263700 0.750000 -0.057800
v 0.185200 0.650600 0.035200
v 0.237300 0.826000 0.035200
v 0.185200 0.650600 0.035200
v 0.277100 0.688100 -0.068800
v 0.224500 0.652700 -0.057800
v 0.263700 0.750000 -0.057800
v 0.277100 0.688100 -0.068800
v 0.185200 0.650600 0.035200
v 0.230600 0.929300 0.068500
v 0.274900 0.917100 -0.068800
v 0.221700 0.951500 -0.057800
v 0.277100 0.688100 -0.068800
v 0.230600 0.667400 0.068500
v 0.224500 0.652700 -0.057800
v 0.221700 0.951500 -0.057800
v 0.274900 0.917100 -0.068800
v 0.237300 0.826000 0.035200
v 0.265700 0.798400 0.068500
v 0.265700 0.798400 0.068500
v 0.230600 0.667400 0.068500
v 0.277100 0.688100 -0.068800
v 0.237300 0.826000 0.035200
v 0.274900 0.917100 -0.068800
v 0.262700 0.854900 -0.057800
v 0.262700 0.854900 -0.057800
v 0.298800 0.802800 -0.068800
v 0.237300 0.826000 0.035200
v 0.263700 0.750000 -0.057800
v 0.274900 0.917100 -0.068800
v 0.265700 0.798400 0.068500
v 0.262700 0.854900 -0.057800
v 0.263700 0.750000 -0.057800
v 0.265700 0.798400 0.068500
v 0.298800 0.802800 -0.068800
v 0.262700 0.854900 -0.057800
v 0.298800 0.802800 -0.068800
v 0.265700 0.798400 0.068500
v 0.263700 0.750000 -0.057800
v 0.151100 0.577900 -0.057800
v 0.213200 0.590400 -0.068800
vt 0.414000 0.335900
vt 0.414000 0.335900
vt 0.414000 0.335900
vt 0.971700 1.765100
vt 0.971700 1.765100
vt 0.971700 1.765100
vt 0.989800 1.765100
vt 0.989800 1.765100
vt 0.989800 1.765100
vt 0.971700 1.765100
vt 0.971700 1.765100
vt 0.971700 1.765100
vt 0.989800 1.765100
vt 0.989800 1.765100
vt 0.989800 1.765100
vt 0.989800 1.783200
vt 0.989800 1.783200
vt 0.989800 1.783200
vt 0.117700 1.895600
vt 0.117700 1.895600
vt 0.117700 1.895600
vt 0.117700 1.895600
vt 0.117700 1.895600
vt 0.117700 1.895600
vt 0.989800 1.783200
vt 0.133300 1.895600
vt 0.133300 1.895600
vt 0.133300 1.895600
vt 0.133300 1.895600
vt 0.133300 1.895600
vt 0.133300 1.895600
vt 0.133300 1.880000
vt 0.133300 1.880000
vt 0.133300 1.880000
vt 0.133300 1.895600
vt 0.989800 1.783200
vt 0.989800 1.783200
vt 0.989800 1.783200
vt 0.133300 1.880000
vt 0.133300 1.880000
vt 0.133300 1.880000
vt 0.133300 1.895600
vt 0.133300 1.895600
vt 0.117700 1.880000
vt 0.117700 1.880000
vt 0.117700 1.880000
vt 0.117700 1.880000
vt 0.117700 1.880000
vt 0.117700 1.880000
vt 0.133300 1.895600
vt 0.117700 1.880000
vt 0.117700 1.880000
vt 0.117700 1.880000
vt 0.117700 1.880000
vt 0.117700 1.880000
vt 0.117700 1.880000
vt 0.117700 1.880000
vt 0.133300 1.880000
vt 0.133300 1.880000
vt 0.133300 1.880000
vt 0.133300 1.895600
vt 0.133300 1.895600
vt 0.133300 1.880000
vt 0.133300 1.880000
vt 0.133300 1.880000
vt 0.133300 1.895600
vt 0.133300 1.895600
vt 0.133300 1.895600
vt 0.133300 1.880000
vt 0.133300 1.895600
vt 0.133300 1.895600
vt 0.117700 1.895600
vt 0.117700 1.895600
vt 0.117700 1.895600
vt 0.989800 1.783200
vt 0.989800 1.783200
vt 0.989800 1.783200
vt 0.117700 1.895600
vt 0.117700 1.895600
vt 0.117700 1.895600
vt 0.971700 1.765100
vt 0.971700 1.765100
vt 0.971700 1.765100
vt 0.117700 1.895600
vt 0.117700 1.895600
vt 0.971700 1.765100
vt 0.971700 1.765100
vt 0.971700 1.765100
vt 0.989800 1.765100
vt 0.989800 1.765100
vt 0.989800 1.765100
vt 0.971700 1.765100
vt 0.989800 1.765100
vt 0.989800 1.765100
vt 0.989800 1.765100
vt 0.971700 1.765100
vt 0.971700 1.765100
vt 0.971700 1.765100
vt 0.971700 1.765100
vt 0.971700 1.765100
vt 0.971700 1.765100
vt 0.971700 1.765100
vt -0.001400 1.232100
vt 0.198000 1.150300
vt -0.183800 1.147300
vt 0.989800 1.765100
vt 0.989800 1.765100
vt 0.989800 1.765100
vt -0.282200 0.949500
vt 0.281200 0.951500
vt 0.989800 1.765100
vt 0.989800 1.765100
vt 0.989800 1.765100
vt 0.743500 1.078100
vt 0.256400 1.078100
vt 0.499900 1.012800
vt 0.256400 1.921800
vt 0.743500 1.921800
vt 0.499900 1.987100
vt 0.921800 1.256400
vt 0.078100 1.256400
vt 0.921800 1.743500
vt 0.078100 1.743500
vt 0.987100 1.499900
vt 0.012800 1.499900
vt 0.133300 1.895600
vt 0.133300 1.895600
vt 0.133300 1.895600
vt 0.198000 1.150300
vt -0.183800 1.147300
vt 0.989800 1.783200
vt 0.989800 1.783200
vt 0.989800 1.783200
vt -0.001400 1.232100
vt 0.117700 1.895600
vt 0.117700 1.895600
vt 0.117700 1.895600
vt 0.117700 1.895600
vt 0.117700 1.895600
vt 0.117700 1.895600
vt 0.133300 1.880000
vt 0.133300 1.880000
vt 0.133300 1.880000
vt 0.133300 1.880000
vt 0.133300 1.880000
vt 0.133300 1.880000
vt 0.989800 1.783200
vt 0.989800 1.783200
vt 0.989800 1.783200
vt 0.133300 1.895600
vt 0.133300 1.895600
vt 0.133300 1.895600
vt 0.133300 1.880000
vt 0.971700 1.765100
vt 0.971700 1.765100
vt 0.971700 1.765100
vt 0.971700 1.765100
vt 0.133300 1.880000
vt 0.989800 1.765100
vt 0.989800 1.765100
vt 0.117700 1.880000
vt 0.117700 1.880000
vt 0.117700 1.880000
vt 0.971700 1.765100
vt 0.133300 1.895600
vt 0.133300 1.895600
vt 0.133300 1.895600
vt 0.133300 1.895600
vt 0.133300 1.895600
vt 0.133300 1.895600
vt 0.989800 1.765100
vt 0.989800 1.765100
vt 0.989800 1.765100
vt 0.133300 1.895600
vt 0.133300 1.895600
vt 0.117700 1.895600
vt 0.117700 1.895600
vt 0.117700 1.895600
vt 0.117700 1.895600
vt 0.117700 1.895600
vt 0.117700 1.895600
vt 0.989800 1.765100
vt 0.989800 1.765100
vt 0.989800 1.765100
vt 0.117700 1.895600
vt 0.117700 1.895600
vt 0.117700 1.895600
vt 0.117700 1.895600
vt 0.133300 1.880000
vt 0.133300 1.880000
vt 0.133300 1.880000
vt 0.117700 1.895600
vt 0.117700 1.895600
vt 0.117700 1.895600
vt 0.133300 1.895600
vt 0.133300 1.895600
vt 0.133300 1.895600
vt 0.989800 1.765100
vt 0.989800 1.765100
vt 0.989800 1.765100
vt 0.133300 1.895600
vt 0.133300 1.895600
vt 0.133300 1.895600
vt 0.971700 1.765100
vt 0.971700 1.765100
vt 0.971700 1.765100
vt 0.989800 1.765100
vt 0.117700 1.880000
vt 0.117700 1.880000
vt 0.117700 1.880000
vt 0.133300 1.895600
vt 0.133300 1.895600
vt 0.133300 1.895600
vt 0.989800 1.783200
vt 0.989800 1.783200
vt 0.989800 1.783200
vt 0.989800 1.783200
vt 0.971700 1.765100
vt 0.971700 1.765100
vt 0.971700 1.765100
vt 0.117700 1.880000
vt 0.989800 1.783200
vt 0.989800 1.783200
vt 0.989800 1.783200
vt 0.133300 1.880000
vt 0.133300 1.880000
vt 0.133300 1.880000
vt 0.117700 1.895600
vt 0.117700 1.895600
vn 0.000000 0.000000 1.000000
vn 0.000000 0.000000 1.000000
vn 0.000000 0.000000 1.000000
vn -0.829713 0.500858 0.246410
vn -0.829713 0.500858 0.246410
vn -0.829713 0.500858 0.246410
vn -0.820588 -0.512712 0.252510
vn -0.820588 -0.512712 0.252510
vn -0.820588 -0.512712 0.252510
vn 0.754976 -0.393249 -0.524754
vn 0.754976 -0.393249 -0.524754
vn 0.754976 -0.393249 -0.524754
vn 0.797846 0.470920 -0.376399
vn 0.797846 0.470920 -0.376399
vn 0.797846 0.470920 -0.376399
vn -0.963253 0.121581 0.239505
vn -0.963253 0.121581 0.239505
vn -0.974639 -0.219921 -0.041407
vn -0.979032 0.199398 -0.041672
vn -0.979032 0.199398 -0.041672
vn -0.979032 0.199398 -0.041672
vn 0.965292 -0.151741 -0.212569
vn 0.965292 -0.151741 -0.212569
vn 0.965292 -0.151741 -0.212569
vn -0.910633 0.244180 0.333353
vn -0.854409 -0.438065 0.279436
vn -0.913836 -0.244852 0.323961
vn -0.854409 -0.438065 0.279436
vn 0.700352 0.474022 -0.533676
vn 0.494026 0.550174 -0.673237
vn 0.816286 0.161335 -0.554661
vn -0.570519 0.811583 0.125864
vn -0.570519 0.811583 0.125864
vn -0.570519 0.811583 0.125864
vn -0.555834 -0.822364 0.121512
vn 0.696139 0.024320 -0.717495
vn 0.696139 0.024320 -0.717495
vn 0.696139 0.024320 -0.717495
vn 0.574099 -0.765263 -0.291175
vn 0.574099 -0.765263 -0.291175
vn 0.574099 -0.765263 -0.291175
vn 0.822286 -0.309704 -0.477420
vn 0.707788 -0.470808 -0.526665
vn -0.787795 0.552727 0.271794
vn -0.787795 0.552727 0.271794
vn -0.981523 0.185976 0.045009
vn -0.979076 -0.201766 0.026477
vn -0.979076 -0.201766 0.026477
vn -0.979076 -0.201766 0.026477
vn 0.789833 0.462707 -0.402574
vn 0.847809 -0.237494 -0.474148
vn 0.847809 -0.237494 -0.474148
vn 0.847809 -0.237494 -0.474148
vn 0.807975 0.256590 -0.530413
vn 0.807975 0.256590 -0.530413
vn 0.807975 0.256590 -0.530413
vn -0.663771 0.663771 0.344697
vn -0.554670 -0.793647 0.249931
vn -0.666858 -0.667554 0.331169
vn -0.554670 -0.793647 0.249931
vn 0.257213 -0.797207 -0.546171
vn 0.257213 -0.797207 -0.546171
vn 0.229781 0.895261 -0.381718
vn 0.229781 0.895261 -0.381718
vn 0.229781 0.895261 -0.381718
vn -0.199787 0.979731 0.014565
vn -0.199787 0.979731 0.014565
vn -0.199787 0.979731 0.014565
vn -0.178930 -0.983858 0.002699
vn 0.786514 0.575942 -0.222905
vn 0.786514 0.575942 -0.222905
vn -0.438141 0.853783 0.281225
vn -0.438141 0.853783 0.281225
vn -0.816991 0.557614 0.146941
vn -0.812387 -0.571234 0.117126
vn -0.812387 -0.571234 0.117126
vn -0.812387 -0.571234 0.117126
vn 0.492137 -0.677495 -0.546627
vn 0.492137 -0.677495 -0.546627
vn 0.449632 -0.756948 -0.474195
vn 0.203160 0.841188 -0.501127
vn -0.039683 0.737102 -0.674615
vn 0.203160 0.841188 -0.501127
vn 0.555968 -0.496414 -0.666688
vn -0.245793 0.915947 0.317217
vn 0.037854 -0.969626 0.241647
vn -0.246980 -0.920370 0.303182
vn -0.120976 -0.971882 0.202015
vn -0.154244 -0.967418 -0.200774
vn -0.154244 -0.967418 -0.200774
vn -0.154244 -0.967418 -0.200774
vn 0.029636 0.843322 -0.536590
vn 0.204544 0.976051 -0.074075
vn 0.204544 0.976051 -0.074075
vn 0.204544 0.976051 -0.074075
vn 0.226197 -0.969773 -0.091516
vn 0.478033 -0.800235 -0.362090
vn 0.478033 -0.800235 -0.362090
vn 0.478033 -0.800235 -0.362090
vn -0.512827 0.818769 0.258120
vn -0.512827 0.818769 0.258120
vn -0.512827 0.818769 0.258120
vn 0.000000 0.000000 -1.000000
vn 0.000000 0.000000 -1.000000
vn 0.000000 0.000000 -1.000000
vn -0.507931 -0.832251 0.222182
vn -0.507931 -0.832251 0.222182
vn -0.507931 -0.832251 0.222182
vn 0.000000 0.000000 -1.000000
vn 0.000000 0.000000 -1.000000
vn -0.251745 0.841683 -0.477697
vn 0.419399 0.776878 -0.469642
vn 0.419399 0.776878 -0.469642
vn 0.000000 0.000000 1.000000
vn 0.000000 0.000000 1.000000
vn 0.000000 0.000000 1.000000
vn 0.000000 0.000000 1.000000
vn 0.000000 0.000000 1.000000
vn 0.000000 0.000000 1.000000
vn 0.000000 0.000000 1.000000
vn 0.000000 0.000000 1.000000
vn 0.000000 0.000000 1.000000
vn 0.000000 0.000000 1.000000
vn 0.000000 0.000000 1.000000
vn 0.000000 0.000000 1.000000
vn -0.394963 -0.756408 -0.521394
vn -0.394963 -0.756408 -0.521394
vn -0.394963 -0.756408 -0.521394
vn 0.000000 0.000000 -1.000000
vn 0.000000 0.000000 -1.000000
vn 0.511219 0.833386 0.210052
vn 0.511219 0.833386 0.210052
vn 0.511219 0.833386 0.210052
vn 0.000000 0.000000 -1.000000
vn 0.526643 -0.823879 0.209451
vn 0.526643 -0.823879 0.209451
vn 0.526643 -0.823879 0.209451
vn -0.505201 0.815315 -0.282901
vn -0.505201 0.815315 -0.282901
vn -0.505201 0.815315 -0.282901
vn 0.121381 0.968712 0.216478
vn 0.121381 0.968712 0.216478
vn -0.219828 0.974245 -0.050229
vn -0.161159 -0.837713 -0.521790
vn -0.161159 -0.837713 -0.521790
vn -0.256367 -0.861434 -0.438415
vn -0.206248 -0.974791 -0.085109
vn -0.206248 -0.974791 -0.085109
vn -0.206248 -0.974791 -0.085109
vn 0.175204 0.979838 -0.096030
vn 0.175204 0.979838 -0.096030
vn 0.175204 0.979838 -0.096030
vn 0.246387 0.918862 0.308198
vn 0.445834 -0.863163 0.237026
vn 0.445834 -0.863163 0.237026
vn -0.580355 0.506215 -0.637914
vn -0.580355 0.506215 -0.637914
vn 0.042965 -0.744962 -0.665722
vn -0.478657 0.768256 -0.425054
vn -0.478657 0.768256 -0.425054
vn 0.819592 0.567727 0.077171
vn 0.819592 0.567727 0.077171
vn 0.819592 0.567727 0.077171
vn 0.829872 -0.552157 0.080216
vn -0.520892 -0.796418 -0.307231
vn -0.791072 -0.575666 -0.206916
vn -0.520892 -0.796418 -0.307231
vn 0.556471 0.797180 0.234189
vn 0.556471 0.797180 0.234189
vn 0.181012 0.983366 0.015005
vn 0.193214 -0.980867 -0.023838
vn 0.193214 -0.980867 -0.023838
vn 0.193214 -0.980867 -0.023838
vn -0.227864 -0.903908 -0.361980
vn 0.672793 0.672793 0.307731
vn 0.802033 -0.558542 0.211598
vn 0.675579 -0.676284 0.293655
vn 0.802033 -0.558542 0.211598
vn -0.810804 -0.257609 -0.525580
vn -0.810804 -0.257609 -0.525580
vn -0.810804 -0.257609 -0.525580
vn -0.787960 -0.426811 -0.443792
vn -0.787960 -0.426811 -0.443792
vn -0.787960 -0.426811 -0.443792
vn 0.980620 0.192727 -0.035226
vn 0.980620 0.192727 -0.035226
vn 0.980620 0.192727 -0.035226
vn 0.984414 -0.173729 -0.027325
vn -0.855749 0.254188 -0.450646
vn -0.855749 0.254188 -0.450646
vn -0.855749 0.254188 -0.450646
vn -0.609064 0.666662 -0.429655
vn -0.575973 0.785707 -0.225653
vn -0.792035 0.518025 -0.323001
vn -0.741255 -0.041412 -0.669945
vn -0.741255 -0.041412 -0.669945
vn -0.741255 -0.041412 -0.669945
vn 0.863019 0.445110 0.238903
vn 0.863019 0.445110 0.238903
vn 0.555281 0.824897 0.105865
vn 0.566810 -0.821023 0.068183
vn 0.566810 -0.821023 0.068183
vn 0.566810 -0.821023 0.068183
vn -0.497092 -0.555651 -0.666447
vn -0.497092 -0.555651 -0.666447
vn -0.497092 -0.555651 -0.666447
vn 0.927998 0.248837 0.277309
vn 0.976776 -0.120003 0.177506
vn 0.928172 -0.248694 0.276854
vn 0.976776 -0.120003 0.177506
vn -0.964542 0.150891 -0.216544
vn -0.964542 0.150891 -0.216544
vn -0.964542 0.150891 -0.216544
vn -0.799243 -0.476447 -0.366345
vn -0.861534 -0.008213 -0.507633
vn -0.861534 -0.008213 -0.507633
vn -0.752201 0.389282 -0.531651
vn 0.970376 -0.211109 -0.117488
vn 0.970376 -0.211109 -0.117488
vn 0.970376 -0.211109 -0.117488
vn 0.968270 0.227850 -0.102648
vn 0.823379 0.525055 0.215325
vn 0.823379 0.525055 0.215325
vn 0.823379 0.525055 0.215325
vn 0.835741 -0.517055 0.184909
vn 0.835741 -0.517055 0.184909
vn 0.835741 -0.517055 0.184909
vn -0.256781 0.804866 -0.535027
vn -0.612691 0.601224 -0.512971
f 2/2/2 3/3/3 1/1/1 
f 42/42/42 43/43/43 31/31/31 
f 30/30/30 29/29/29 30/30/30 
f 31/31/31 29/29/29 30/30/30 
f 31/31/31 50/50/50 29/29/29 
f 61/61/61 62/62/62 43/43/43 
f 70/70/70 71/71/71 50/50/50 
f 209/209/209 208/208/208 209/209/209 
f 210/210/210 208/208/208 209/209/209 
f 210/210/210 221/221/221 208/208/208 
f 207/207/207 198/198/198 207/207/207 
f 199/199/199 198/198/198 207/207/207 
f 199/199/199 200/200/200 198/198/198 
f 177/177/177 176/176/176 177/177/177 
f 178/178/178 176/176/176 177/177/177 
f 178/178/178 188/188/188 176/176/176 
f 166/166/166 165/165/165 166/166/166 
f 167/167/167 165/165/165 166/166/166 
f 167/167/167 174/174/174 165/165/165 
f 86/86/86 154/154/154 86/86/86 
f 155/155/155 154/154/154 86/86/86 
f 155/155/155 164/164/164 154/154/154 
f 87/87/87 86/86/86 87/87/87 
f 88/88/88 86/86/86 87/87/87 
f 88/88/88 96/96/96 86/86/86 
f 158/158/158 144/144/144 158/158/158 
f 145/145/145 144/144/144 158/158/158 
f 145/145/145 146/146/146 144/144/144 
f 153/153/153 141/141/141 153/153/153 
f 142/142/142 141/141/141 153/153/153 
f 142/142/142 143/143/143 141/141/141 
f 82/82/82 81/81/81 82/82/82 
f 83/83/83 81/81/81 82/82/82 
f 83/83/83 92/92/92 81/81/81 
f 157/157/157 92/92/92 156/156/156 
f 14/14/14 15/15/15 13/13/13 
f 84/84/84 78/78/78 84/84/84 
f 79/79/79 78/78/78 84/84/84 
f 79/79/79 80/80/80 78/78/78 
f 85/85/85 72/72/72 85/85/85 
f 73/73/73 72/72/72 85/85/85 
f 73/73/73 74/74/74 72/72/72 
f 59/59/59 58/58/58 59/59/59 
f 60/60/60 58/58/58 59/59/59 
f 60/60/60 69/69/69 58/58/58 
f 27/27/27 26/26/26 27/27/27 
f 28/28/28 26/26/26 27/27/27 
f 28/28/28 35/35/35 26/26/26 
f 57/57/57 44/44/44 57/57/57 
f 45/45/45 44/44/44 57/57/57 
f 45/45/45 46/46/46 44/44/44 
f 175/175/175 168/168/168 175/175/175 
f 169/169/169 168/168/168 175/175/175 
f 169/169/169 170/170/170 168/168/168 
f 25/25/25 16/16/16 25/25/25 
f 17/17/17 16/16/16 25/25/25 
f 17/17/17 18/18/18 16/16/16 
f 193/193/193 192/192/192 193/193/193 
f 194/194/194 192/192/192 193/193/193 
f 194/194/194 192/192/192 192/192/192 
f 229/229/229 192/192/192 194/194/194 
f 229/229/229 228/228/228 192/192/192 
f 117/117/117 118/118/118 119/119/119 
f 123/123/123 118/118/118 117/117/117 
f 123/123/123 122/122/122 118/118/118 
f 123/123/123 122/122/122 123/123/123 
f 123/123/123 124/124/124 122/122/122 
f 125/125/125 124/124/124 123/123/123 
f 125/125/125 120/120/120 124/124/124 
f 121/121/121 120/120/120 125/125/125 
f 121/121/121 114/114/114 120/120/120 
f 115/115/115 114/114/114 121/121/121 
f 115/115/115 116/116/116 114/114/114 
f 11/11/11 12/12/12 10/10/10 
f 20/20/20 21/21/21 19/19/19 
f 8/8/8 9/9/9 7/7/7 
f 23/23/23 24/24/24 22/22/22 
f 5/5/5 6/6/6 4/4/4 
f 33/33/33 34/34/34 32/32/32 
f 226/226/226 227/227/227 225/225/225 
f 37/37/37 38/38/38 36/36/36 
f 223/223/223 224/224/224 222/222/222 
f 40/40/40 41/41/41 39/39/39 
f 219/219/219 220/220/220 218/218/218 
f 48/48/48 49/49/49 47/47/47 
f 215/215/215 216/216/216 214/214/214 
f 217/217/217 216/216/216 215/215/215 
f 212/212/212 213/213/213 211/211/211 
f 52/52/52 53/53/53 51/51/51 
f 205/205/205 206/206/206 204/204/204 
f 55/55/55 56/56/56 54/54/54 
f 202/202/202 203/203/203 201/201/201 
f 64/64/64 65/65/65 63/63/63 
f 196/196/196 197/197/197 195/195/195 
f 67/67/67 68/68/68 66/66/66 
f 190/190/190 191/191/191 189/189/189 
f 76/76/76 77/77/77 75/75/75 
f 186/186/186 187/187/187 185/185/185 
f 90/90/90 91/91/91 89/89/89 
f 183/183/183 184/184/184 182/182/182 
f 94/94/94 95/95/95 93/93/93 
f 180/180/180 181/181/181 179/179/179 
f 98/98/98 99/99/99 97/97/97 
f 172/172/172 173/173/173 171/171/171 
f 101/101/101 102/102/102 100/100/100 
f 162/162/162 163/163/163 161/161/161 
f 104/104/104 105/105/105 103/103/103 
f 110/110/110 105/105/105 104/104/104 
f 110/110/110 109/109/109 105/105/105 
f 129/129/129 109/109/109 110/110/110 
f 129/129/129 130/130/130 109/109/109 
f 134/134/134 130/130/130 129/129/129 
f 107/107/107 108/108/108 106/106/106 
f 111/111/111 160/160/160 159/159/159 
f 112/112/112 113/113/113 111/111/111 
f 151/151/151 152/152/152 150/150/150 
f 127/127/127 128/128/128 126/126/126 
f 148/148/148 149/149/149 147/147/147 
f 132/132/132 133/133/133 131/131/131 
f 139/139/139 140/140/140 138/138/138 
f 136/136/136 137/137/137 135/135/135 
