v -0.073800 0.014600 -0.073800
v -0.104400 0.014600 0.000000
v -0.073800 0.174300 -0.073800
v -0.104400 0.174300 0.000000
v -0.073800 0.014600 0.073800
v -0.073800 0.174300 0.073800
v -0.104400 0.174300 0.000000
v -0.073800 0.174300 0.073800
v -0.104400 0.445300 0.000000
v -0.073800 0.445300 0.073800
v -0.073800 0.449900 -0.073800
v -0.073800 0.174300 -0.073800
v -0.073800 0.014600 -0.073800
v -0.064800 0.000000 -0.064800
v -0.104400 0.014600 0.000000
v -0.091700 0.000000 0.000000
v -0.073800 0.014600 0.073800
v -0.064800 0.000000 0.064800
v -0.088300 0.489400 0.000000
v -0.062400 0.489400 0.062400
v -0.062400 0.489400 -0.062400
v -0.062400 0.489400 -0.062400
v -0.088300 0.489400 0.000000
v -0.036500 0.523000 -0.036500
v -0.051600 0.523000 0.000000
v -0.062400 0.489400 0.062400
v -0.036500 0.523000 0.036500
v -0.042600 0.785300 0.000000
v -0.030100 0.785300 0.030100
v -0.030100 0.785300 -0.030100
v -0.033400 0.790200 -0.033400
v -0.047300 0.790200 0.000000
v -0.031400 0.808400 -0.031400
v -0.044500 0.808400 0.000000
v -0.033400 0.790200 0.033400
v -0.031400 0.808400 0.031400
v -0.042600 0.785300 0.000000
v -0.030100 0.785300 -0.030100
v -0.030100 0.785300 0.030100
v 0.000000 0.014600 -0.104400
v 0.000000 0.174300 -0.104400
v 0.000000 0.014600 0.104400
v 0.000000 0.174300 0.104400
v 0.000000 0.174300 0.104400
v 0.000000 0.445300 0.104400
v 0.000000 0.174300 -0.104400
v 0.000000 0.449900 -0.104400
v 0.000000 0.014600 -0.104400
v 0.000000 0.000000 -0.091700
v 0.000000 0.014600 0.104400
v 0.000000 0.000000 0.091700
v 0.000000 0.489400 0.088300
v 0.000000 0.489400 -0.088300
v 0.000000 0.489400 -0.088300
v 0.000000 0.523000 -0.051600
v -0.062400 0.489400 0.062400
v 0.000000 0.489400 0.088300
v -0.036500 0.523000 0.036500
v 0.000000 0.523000 0.051600
v 0.064800 0.000000 -0.064800
v -0.091700 0.000000 0.000000
v 0.000000 0.000000 -0.091700
v -0.064800 0.000000 -0.064800
v 0.000000 0.785300 -0.042600
v -0.030100 0.785300 0.030100
v 0.000000 0.785300 0.042600
v 0.000000 0.790200 -0.047300
v 0.000000 0.808400 -0.044500
v 0.000000 0.790200 0.047300
v 0.000000 0.808400 0.044500
v 0.000000 0.785300 -0.042600
v 0.000000 0.785300 0.042600
v -0.044500 0.808400 0.000000
v 0.031400 0.808400 -0.031400
v -0.031400 0.808400 -0.031400
v 0.000000 0.808400 -0.044500
v 0.091700 0.000000 0.000000
v -0.064800 0.000000 0.064800
v 0.044500 0.808400 0.000000
v -0.031400 0.808400 0.031400
v 0.044500 0.808400 0.000000
v -0.031400 0.808400 0.031400
v 0.031400 0.808400 0.031400
v 0.000000 0.808400 0.044500
v 0.033400 0.790200 -0.033400
v 0.030100 0.785300 -0.030100
v 0.033400 0.790200 0.033400
v 0.030100 0.785300 0.030100
v 0.031400 0.808400 -0.031400
v 0.031400 0.808400 0.031400
v 0.036500 0.523000 -0.036500
v 0.000000 0.523000 -0.051600
v 0.030100 0.785300 -0.030100
v 0.000000 0.785300 -0.042600
v 0.036500 0.523000 0.036500
v 0.030100 0.785300 0.030100
v 0.000000 0.000000 0.091700
v 0.064800 0.000000 0.064800
v 0.062400 0.489400 -0.062400
v 0.000000 0.489400 -0.088300
v 0.062400 0.489400 0.062400
v 0.073800 0.445300 0.073800
v 0.062400 0.489400 0.062400
v 0.073800 0.445300 -0.073800
v 0.000000 0.449900 -0.104400
v 0.062400 0.489400 -0.062400
v 0.000000 0.489400 -0.088300
v 0.000000 0.014600 -0.104400
v 0.073800 0.014600 -0.073800
v 0.000000 0.000000 -0.091700
v 0.064800 0.000000 -0.064800
v 0.073800 0.014600 0.073800
v 0.064800 0.000000 0.064800
v 0.073800 0.014600 -0.073800
v 0.000000 0.014600 -0.104400
v 0.073800 0.174300 -0.073800
v 0.000000 0.174300 -0.104400
v 0.073800 0.014600 0.073800
v 0.073800 0.174300 0.073800
v 0.073800 0.174300 0.073800
v 0.000000 0.174300 -0.104400
v 0.073800 0.174300 -0.073800
v 0.047300 0.790200 0.000000
v 0.042600 0.785300 0.000000
v 0.044500 0.808400 0.000000
v 0.051600 0.523000 0.000000
v 0.042600 0.785300 0.000000
v 0.088300 0.489400 0.000000
v 0.104400 0.445300 0.000000
v 0.088300 0.489400 0.000000
v 0.104400 0.014600 0.000000
v 0.091700 0.000000 0.000000
v 0.104400 0.014600 0.000000
v 0.104400 0.174300 0.000000
v 0.104400 0.174300 0.000000
vt 0.242700 -0.952300
vt 0.243200 -0.952300
vt 0.242700 -0.733000
vt 0.243200 -0.733000
vt 0.315400 -0.952300
vt 0.315400 -0.733000
vt 0.012800 -0.694300
vt 0.163700 -0.694300
vt 0.012800 0.098300
vt 0.163700 0.098300
vt 0.011800 0.098300
vt 0.011800 -0.694300
vt 0.318000 -0.831400
vt 0.318000 -0.832500
vt 0.318400 -0.831400
vt 0.318400 -0.832500
vt 0.371800 -0.831400
vt 0.460100 -0.832500
vt 0.012800 0.102400
vt 0.163700 0.102400
vt 0.011800 0.102400
vt 0.865500 -0.847800
vt 0.865500 -0.847800
vt 0.865500 -0.723600
vt 0.865500 -0.723600
vt 0.889000 -0.847800
vt 0.898100 -0.723600
vt 0.865500 -0.023000
vt 0.897400 -0.023000
vt 0.865500 -0.023000
vt 0.946500 -0.973100
vt 0.946500 -0.862900
vt 0.992100 -0.973100
vt 0.992100 -0.862900
vt 0.946500 -0.973100
vt 0.992100 -0.973100
vt 0.919100 -0.862900
vt 0.919100 -0.973100
vt 0.919100 -0.973100
vt 0.242200 -0.952300
vt 0.242200 -0.733000
vt 0.427200 -0.952300
vt 0.427200 -0.733000
vt 0.397500 -0.694300
vt 0.397500 0.098300
vt 0.010700 -0.694300
vt 0.010700 0.098300
vt 0.317700 -0.831400
vt 0.317700 -0.832500
vt 0.454600 -0.831400
vt 0.525800 -0.832500
vt 0.397500 0.102400
vt 0.010700 0.102400
vt 0.865500 -0.847800
vt 0.865500 -0.723600
vt 0.895900 -0.847800
vt 0.991200 -0.847800
vt 0.905100 -0.723600
vt 0.991200 -0.723600
vt 0.477500 -0.823700
vt 0.477500 -0.817800
vt 0.477500 -0.821800
vt 0.477500 -0.819800
vt 0.865500 -0.023000
vt 0.904300 -0.023000
vt 0.991200 -0.023000
vt 0.946500 -0.862900
vt 0.992100 -0.862900
vt 0.946500 -0.862900
vt 0.992100 -0.862900
vt 0.919100 -0.862900
vt 0.919100 -0.862900
vt 0.984000 -0.918800
vt 0.984000 -0.900900
vt 0.984000 -0.912900
vt 0.984000 -0.906900
vt 0.477500 -0.825700
vt 0.477500 -0.831600
vt 0.984000 -0.942700
vt 0.984000 -0.924800
vt 0.984000 -0.895000
vt 0.984000 -0.877100
vt 0.984000 -0.889000
vt 0.984000 -0.883100
vt 0.946500 -0.973100
vt 0.919100 -0.973100
vt 0.946500 -0.973100
vt 0.919100 -0.973100
vt 0.992100 -0.973100
vt 0.992100 -0.973100
vt 0.895400 -0.723600
vt 0.895400 -0.723600
vt 0.895400 -0.023000
vt 0.895400 -0.023000
vt 0.909300 -0.723600
vt 0.898900 -0.023000
vt 0.477500 -0.829600
vt 0.477500 -0.827700
vt 0.895400 -0.847800
vt 0.895400 -0.847800
vt 0.903100 -0.847800
vt 0.640200 0.098300
vt 0.640200 0.102400
vt 0.801100 0.098300
vt 0.774600 0.098300
vt 0.801100 0.102400
vt 0.803800 0.102400
vt 0.611600 -0.831400
vt 0.610600 -0.831400
vt 0.609400 -0.832500
vt 0.615800 -0.832500
vt 0.540600 -0.831400
vt 0.546800 -0.832500
vt 0.638000 -0.952300
vt 0.639300 -0.952300
vt 0.638000 -0.733000
vt 0.639300 -0.733000
vt 0.543400 -0.952300
vt 0.543400 -0.733000
vt 0.640200 -0.694300
vt 0.774600 -0.694300
vt 0.801100 -0.694300
vt 0.946500 -0.862900
vt 0.919100 -0.862900
vt 0.992100 -0.862900
vt 0.895400 -0.723600
vt 0.895400 -0.023000
vt 0.895400 -0.847800
vt 0.815200 0.098300
vt 0.815200 0.102400
vt 0.602500 -0.831400
vt 0.603500 -0.832500
vt 0.627100 -0.952300
vt 0.627100 -0.733000
vt 0.815200 -0.694300
vn -0.603858 0.000000 -0.797092
vn -0.990583 0.000000 -0.136910
vn -0.797092 0.000000 -0.603858
vn -0.990583 0.000000 0.136910
vn -0.797092 0.000000 0.603858
vn -0.603858 0.000000 0.797092
vn -1.000000 0.000000 0.000000
vn -0.797092 0.000000 0.603858
vn -0.999626 0.027352 -0.000768
vn -0.630149 0.048543 0.774956
vn -0.707197 0.084531 -0.701945
vn -0.705880 0.000000 -0.708332
vn -0.533003 -0.657127 -0.533003
vn -0.533308 -0.656631 -0.533308
vn -0.754063 -0.656803 0.000000
vn -0.754494 -0.656306 0.000000
vn -0.463860 -0.653853 0.597754
vn -0.609357 -0.652622 0.450298
vn -0.936416 0.350551 0.015429
vn -0.556291 0.339644 0.758408
vn -0.654676 0.377889 -0.654676
vn -0.432181 0.735613 -0.521626
vn -0.674116 0.735924 -0.063107
vn -0.640588 0.182904 -0.745784
vn -0.980280 0.182937 -0.074733
vn -0.650552 0.709964 0.269693
vn -0.919624 0.095308 0.381062
vn -0.987457 0.033949 0.154194
vn -0.923061 0.031875 0.383331
vn -0.807429 0.034004 -0.588984
vn -0.648750 -0.077458 -0.757049
vn -0.993876 -0.078428 -0.077843
vn -0.790892 0.151464 -0.592915
vn -0.978355 0.151120 0.141363
vn -0.691418 -0.031198 0.721781
vn -0.698720 0.153565 0.698720
vn -0.718259 -0.687551 -0.106665
vn -0.433800 -0.686530 -0.583518
vn -0.583518 -0.686530 0.433800
vn -0.383015 0.000000 -0.923742
vn -0.383015 0.000000 -0.923742
vn -0.136910 0.000000 0.990583
vn 0.136910 0.000000 0.990583
vn -0.136910 0.000000 0.990583
vn 0.114190 0.060445 0.991618
vn -0.383015 0.000000 -0.923742
vn -0.382894 0.025169 -0.923449
vn -0.298564 -0.626845 -0.719669
vn -0.298891 -0.626305 -0.720005
vn 0.095087 -0.653655 0.750795
vn -0.112740 -0.652458 0.749392
vn 0.000000 0.342940 0.939357
vn -0.358558 0.352621 -0.864346
vn -0.269880 0.710203 -0.650213
vn -0.367966 0.272616 -0.888978
vn -0.270065 0.709724 0.650658
vn -0.063107 0.735925 0.674116
vn -0.367954 0.272727 0.888949
vn -0.074733 0.182937 0.980280
vn 0.000000 -1.000000 0.000000
vn 0.000000 -1.000000 0.000000
vn 0.000000 -1.000000 0.000000
vn 0.000000 -1.000000 0.000000
vn -0.382649 0.031774 -0.923347
vn -0.382649 0.031774 0.923347
vn 0.154194 0.033949 0.987457
vn -0.035762 -0.156187 -0.987080
vn -0.000000 0.152941 -0.988235
vn 0.035762 -0.156187 0.987080
vn 0.000000 0.152941 0.988235
vn 0.106665 -0.687551 -0.718259
vn -0.106665 -0.687551 0.718259
vn 0.000000 1.000000 0.000000
vn 0.000000 1.000000 0.000000
vn 0.000000 1.000000 0.000000
vn 0.000000 1.000000 0.000000
vn 0.000000 -1.000000 0.000000
vn 0.000000 -1.000000 0.000000
vn 0.000000 1.000000 0.000000
vn 0.000000 1.000000 0.000000
vn 0.000000 1.000000 0.000000
vn 0.000000 1.000000 0.000000
vn 0.000000 1.000000 0.000000
vn 0.000000 1.000000 0.000000
vn 0.691418 -0.031198 -0.721781
vn 0.583518 -0.686530 -0.433800
vn 0.648750 -0.077458 0.757049
vn 0.433800 -0.686530 0.583518
vn 0.698720 0.153565 -0.698720
vn 0.790892 0.151464 0.592915
vn 0.745784 0.182904 -0.640588
vn 0.381057 0.095460 -0.919610
vn 0.588984 0.034004 -0.807429
vn 0.383333 0.031672 -0.923067
vn 0.640588 0.182904 0.745784
vn 0.807429 0.034004 0.588984
vn 0.000000 -1.000000 0.000000
vn 0.000000 -1.000000 0.000000
vn 0.521626 0.735613 -0.432181
vn 0.269693 0.709964 -0.650552
vn 0.432181 0.735613 0.521626
vn 0.788512 0.035483 0.613995
vn 0.664189 0.343081 0.664189
vn 0.629810 0.048305 -0.775245
vn 0.384129 0.077644 -0.920009
vn 0.566820 0.350532 -0.745549
vn 0.358773 0.352317 -0.864381
vn 0.298570 -0.626371 -0.720080
vn 0.463860 -0.653853 -0.597754
vn 0.298564 -0.626845 -0.719669
vn 0.609357 -0.652622 -0.450298
vn 0.533003 -0.657127 0.533003
vn 0.533308 -0.656631 0.533308
vn 0.797092 0.000000 -0.603858
vn 0.383015 0.000000 -0.923742
vn 0.603858 0.000000 -0.797092
vn 0.383015 0.000000 -0.923742
vn 0.603858 0.000000 0.797092
vn 0.797092 0.000000 0.603858
vn 0.603858 0.000000 0.797092
vn 0.383015 0.000000 -0.923742
vn 0.797092 0.000000 -0.603858
vn 0.993876 -0.078428 0.077843
vn 0.718259 -0.687551 0.106665
vn 0.978355 0.151120 -0.141363
vn 0.980280 0.182937 0.074733
vn 0.987457 0.033949 -0.154194
vn 0.674116 0.735924 0.063107
vn 0.993541 0.048529 -0.102573
vn 0.929604 0.339590 -0.143232
vn 0.754063 -0.656803 0.000000
vn 0.754494 -0.656306 0.000000
vn 0.990583 0.000000 0.136910
vn 0.990583 0.000000 -0.136910
vn 0.990583 0.000000 0.136910
f 82/82/82 83/83/83 81/81/81 
f 84/84/84 83/83/83 82/82/82 
f 92/92/92 94/94/94 93/93/93 
f 99/99/99 91/91/91 99/99/99 
f 100/100/100 91/91/91 99/99/99 
f 100/100/100 91/91/91 91/91/91 
f 92/92/92 91/91/91 100/100/100 
f 92/92/92 91/91/91 91/91/91 
f 93/93/93 91/91/91 92/92/92 
f 93/93/93 91/91/91 91/91/91 
f 127/127/127 91/91/91 93/93/93 
f 127/127/127 126/126/126 91/91/91 
f 96/96/96 126/126/126 127/127/127 
f 96/96/96 95/95/95 126/126/126 
f 66/66/66 95/95/95 96/96/96 
f 66/66/66 59/59/59 95/95/95 
f 65/65/65 59/59/59 66/66/66 
f 65/65/65 59/59/59 59/59/59 
f 58/58/58 59/59/59 65/65/65 
f 58/58/58 57/57/57 59/59/59 
f 56/56/56 57/57/57 58/58/58 
f 101/101/101 59/59/59 57/57/57 
f 101/101/101 59/59/59 101/101/101 
f 101/101/101 95/95/95 59/59/59 
f 128/128/128 95/95/95 101/101/101 
f 128/128/128 126/126/126 95/95/95 
f 99/99/99 126/126/126 128/128/128 
f 99/99/99 91/91/91 126/126/126 
f 135/135/135 120/120/120 135/135/135 
f 102/102/102 120/120/120 135/135/135 
f 102/102/102 45/45/45 120/120/120 
f 11/11/11 19/19/19 21/21/21 
f 9/9/9 19/19/19 11/11/11 
f 9/9/9 19/19/19 19/19/19 
f 10/10/10 19/19/19 9/9/9 
f 10/10/10 20/20/20 19/19/19 
f 45/45/45 20/20/20 10/10/10 
f 45/45/45 52/52/52 20/20/20 
f 45/45/45 52/52/52 45/45/45 
f 45/45/45 103/103/103 52/52/52 
f 102/102/102 103/103/103 45/45/45 
f 102/102/102 129/129/129 103/103/103 
f 135/135/135 129/129/129 102/102/102 
f 45/45/45 44/44/44 120/120/120 
f 10/10/10 44/44/44 45/45/45 
f 10/10/10 8/8/8 44/44/44 
f 9/9/9 8/8/8 10/10/10 
f 9/9/9 7/7/7 8/8/8 
f 9/9/9 7/7/7 9/9/9 
f 9/9/9 12/12/12 7/7/7 
f 11/11/11 12/12/12 9/9/9 
f 11/11/11 47/47/47 12/12/12 
f 11/11/11 47/47/47 11/11/11 
f 11/11/11 53/53/53 47/47/47 
f 11/11/11 53/53/53 11/11/11 
f 11/11/11 21/21/21 53/53/53 
f 12/12/12 47/47/47 46/46/46 
f 106/106/106 104/104/104 106/106/106 
f 130/130/130 104/104/104 106/106/106 
f 130/130/130 129/129/129 104/104/104 
f 103/103/103 129/129/129 130/130/130 
f 135/135/135 129/129/129 135/135/135 
f 122/122/122 129/129/129 135/135/135 
f 122/122/122 104/104/104 129/129/129 
f 121/121/121 104/104/104 122/122/122 
f 121/121/121 104/104/104 104/104/104 
f 105/105/105 104/104/104 121/121/121 
f 105/105/105 106/106/106 104/104/104 
f 107/107/107 106/106/106 105/105/105 
f 79/79/79 80/80/80 79/79/79 
f 74/74/74 80/80/80 79/79/79 
f 74/74/74 73/73/73 80/80/80 
f 74/74/74 73/73/73 74/74/74 
f 74/74/74 75/75/75 73/73/73 
f 76/76/76 75/75/75 74/74/74 
f 29/29/29 28/28/28 27/27/27 
f 23/23/23 25/25/25 23/23/23 
f 26/26/26 25/25/25 23/23/23 
f 26/26/26 25/25/25 25/25/25 
f 27/27/27 25/25/25 26/26/26 
f 27/27/27 25/25/25 25/25/25 
f 28/28/28 25/25/25 27/27/27 
f 28/28/28 25/25/25 25/25/25 
f 30/30/30 25/25/25 28/28/28 
f 30/30/30 24/24/24 25/25/25 
f 64/64/64 24/24/24 30/30/30 
f 64/64/64 24/24/24 24/24/24 
f 55/55/55 24/24/24 64/64/64 
f 55/55/55 22/22/22 24/24/24 
f 54/54/54 22/22/22 55/55/55 
f 23/23/23 24/24/24 22/22/22 
f 25/25/25 24/24/24 23/23/23 
f 97/97/97 77/77/77 98/98/98 
f 78/78/78 77/77/77 97/97/97 
f 78/78/78 60/60/60 77/77/77 
f 61/61/61 60/60/60 78/78/78 
f 61/61/61 62/62/62 60/60/60 
f 63/63/63 62/62/62 61/61/61 
f 113/113/113 131/131/131 112/112/112 
f 132/132/132 131/131/131 113/113/113 
f 132/132/132 131/131/131 131/131/131 
f 111/111/111 131/131/131 132/132/132 
f 111/111/111 109/109/109 131/131/131 
f 110/110/110 109/109/109 111/111/111 
f 110/110/110 108/108/108 109/109/109 
f 49/49/49 48/48/48 49/49/49 
f 14/14/14 48/48/48 49/49/49 
f 14/14/14 13/13/13 48/48/48 
f 14/14/14 13/13/13 14/14/14 
f 14/14/14 15/15/15 13/13/13 
f 16/16/16 15/15/15 14/14/14 
f 16/16/16 15/15/15 15/15/15 
f 18/18/18 15/15/15 16/16/16 
f 18/18/18 17/17/17 15/15/15 
f 51/51/51 17/17/17 18/18/18 
f 51/51/51 50/50/50 17/17/17 
f 113/113/113 50/50/50 51/51/51 
f 113/113/113 112/112/112 50/50/50 
f 6/6/6 5/5/5 6/6/6 
f 4/4/4 5/5/5 6/6/6 
f 4/4/4 2/2/2 5/5/5 
f 3/3/3 2/2/2 4/4/4 
f 3/3/3 1/1/1 2/2/2 
f 41/41/41 1/1/1 3/3/3 
f 41/41/41 40/40/40 1/1/1 
f 117/117/117 115/115/115 117/117/117 
f 116/116/116 115/115/115 117/117/117 
f 116/116/116 114/114/114 115/115/115 
f 134/134/134 114/114/114 116/116/116 
f 134/134/134 133/133/133 114/114/114 
f 119/119/119 133/133/133 134/134/134 
f 119/119/119 118/118/118 133/133/133 
f 43/43/43 118/118/118 119/119/119 
f 43/43/43 42/42/42 118/118/118 
f 6/6/6 42/42/42 43/43/43 
f 6/6/6 5/5/5 42/42/42 
f 70/70/70 35/35/35 70/70/70 
f 36/36/36 35/35/35 70/70/70 
f 36/36/36 35/35/35 35/35/35 
f 34/34/34 35/35/35 36/36/36 
f 34/34/34 32/32/32 35/35/35 
f 33/33/33 32/32/32 34/34/34 
f 33/33/33 31/31/31 32/32/32 
f 68/68/68 31/31/31 33/33/33 
f 68/68/68 67/67/67 31/31/31 
f 68/68/68 67/67/67 68/68/68 
f 68/68/68 85/85/85 67/67/67 
f 89/89/89 85/85/85 68/68/68 
f 89/89/89 85/85/85 85/85/85 
f 125/125/125 85/85/85 89/89/89 
f 125/125/125 123/123/123 85/85/85 
f 90/90/90 123/123/123 125/125/125 
f 67/67/67 71/71/71 38/38/38 
f 85/85/85 71/71/71 67/67/67 
f 85/85/85 86/86/86 71/71/71 
f 123/123/123 86/86/86 85/85/85 
f 123/123/123 124/124/124 86/86/86 
f 123/123/123 124/124/124 123/123/123 
f 123/123/123 87/87/87 124/124/124 
f 90/90/90 87/87/87 123/123/123 
f 90/90/90 87/87/87 87/87/87 
f 70/70/70 87/87/87 90/90/90 
f 70/70/70 69/69/69 87/87/87 
f 70/70/70 69/69/69 70/70/70 
f 70/70/70 35/35/35 69/69/69 
f 87/87/87 88/88/88 124/124/124 
f 69/69/69 88/88/88 87/87/87 
f 69/69/69 72/72/72 88/88/88 
f 35/35/35 72/72/72 69/69/69 
f 35/35/35 39/39/39 72/72/72 
f 32/32/32 39/39/39 35/35/35 
f 32/32/32 37/37/37 39/39/39 
f 31/31/31 37/37/37 32/32/32 
f 31/31/31 38/38/38 37/37/37 
f 67/67/67 38/38/38 31/31/31 
