v -0.693900 3.826400 0.015100
v -7.694900 3.826400 0.015100
v -0.693900 2.256300 0.015100
v -7.694900 2.256300 0.015100
v 6.306900 3.826400 0.015100
v -0.693900 3.826400 0.015100
v 6.306900 2.256300 0.015100
v -0.693900 2.256300 0.015100
v -7.709600 2.247000 -0.062500
v -7.709600 2.247000 -0.025000
v -7.709600 3.837300 -0.062500
v -7.709600 3.837300 -0.025000
v -7.694900 2.256300 0.015100
v -7.694900 3.826400 0.015100
v -7.694900 2.256300 -0.025000
v -7.694900 3.826400 -0.025000
v -7.694900 2.256300 0.015100
v -7.694900 2.256300 -0.025000
v -0.693900 2.256300 0.015100
v -0.693900 2.256300 -0.025000
v -0.693900 3.826400 -0.025000
v -7.694900 3.826400 -0.025000
v -0.693900 3.826400 0.015100
v -7.694900 3.826400 0.015100
v -7.709600 2.247000 -0.062500
v 6.329600 2.247000 -0.062500
v -7.709600 2.247000 -0.025000
v 6.329600 2.247000 -0.025000
v -7.709600 3.837300 -0.062500
v 6.329600 3.837300 -0.062500
v -7.709600 2.247000 -0.062500
v 6.329600 2.247000 -0.062500
v -7.709600 2.247000 -0.025000
v 6.329600 2.247000 -0.025000
v -7.709600 3.837300 -0.025000
v 6.329600 3.837300 -0.025000
v -7.709600 3.837300 -0.025000
v 6.329600 3.837300 -0.025000
v -7.709600 3.837300 -0.062500
v 6.329600 3.837300 -0.062500
v 6.306900 2.256300 0.015100
v 6.306900 2.256300 -0.025000
v 6.306900 3.826400 -0.025000
v 6.306900 3.826400 0.015100
v 6.306900 3.826400 0.015100
v 6.306900 2.256300 0.015100
v 6.306900 3.826400 -0.025000
v 6.306900 2.256300 -0.025000
v 6.329600 2.247000 -0.025000
v 6.329600 2.247000 -0.062500
v 6.329600 3.837300 -0.025000
v 6.329600 3.837300 -0.062500
vt 0.998700 0.991700
vt 0.000100 0.991700
vt 0.998700 0.500300
vt 0.000100 0.500300
vt 0.998600 0.491700
vt 0.000600 0.491700
vt 0.998600 0.000000
vt 0.000600 0.000000
vt 0.179600 0.976500
vt 0.179600 0.976500
vt 0.179600 0.976500
vt 0.179600 0.976500
vt 0.179600 0.476500
vt 0.179600 0.476500
vt 0.179600 0.476500
vt 0.179600 0.476500
vt 0.179600 0.492100
vt 0.179600 0.492100
vt 0.179600 0.492100
vt 0.179600 0.492100
vt 0.179600 0.492100
vt 0.179600 0.492100
vt 0.179600 0.492100
vt 0.179600 0.492100
vt 0.179600 0.976500
vt 0.179600 0.976500
vt 0.179600 0.976500
vt 0.179600 0.976500
vt 0.132800 0.976500
vt 0.132800 0.976500
vt 0.132800 0.976500
vt 0.132800 0.976500
vt 0.179600 0.976500
vt 0.179600 0.976500
vt 0.179600 0.976500
vt 0.179600 0.976500
vt 0.179600 0.976500
vt 0.179600 0.976500
vt 0.179600 0.976500
vt 0.179600 0.976500
vt 0.179600 0.492100
vt 0.179600 0.492100
vt 0.179600 0.492100
vt 0.179600 0.492100
vt 0.179600 0.476500
vt 0.179600 0.476500
vt 0.179600 0.476500
vt 0.179600 0.476500
vt 0.179600 0.976500
vt 0.179600 0.976500
vt 0.179600 0.976500
vt 0.179600 0.976500
vn 0.000000 0.000000 1.000000
vn 0.000000 0.000000 1.000000
vn 0.000000 0.000000 1.000000
vn 0.000000 0.000000 1.000000
vn 0.000000 0.000000 1.000000
vn 0.000000 0.000000 1.000000
vn 0.000000 0.000000 1.000000
vn 0.000000 0.000000 1.000000
vn -1.000000 0.000000 0.000000
vn -1.000000 0.000000 0.000000
vn -1.000000 0.000000 0.000000
vn -1.000000 0.000000 0.000000
vn -1.000000 0.000000 0.000000
vn -1.000000 0.000000 0.000000
vn -1.000000 0.000000 0.000000
vn -1.000000 0.000000 0.000000
vn 0.000000 -1.000000 0.000000
vn 0.000000 -1.000000 0.000000
vn 0.000000 -1.000000 0.000000
vn 0.000000 -1.000000 0.000000
vn 0.000000 1.000000 0.000000
vn 0.000000 1.000000 0.000000
vn 0.000000 1.000000 0.000000
vn 0.000000 1.000000 0.000000
vn 0.000000 -1.000000 0.000000
vn 0.000000 -1.000000 0.000000
vn 0.000000 -1.000000 0.000000
vn 0.000000 -1.000000 0.000000
vn 0.000000 0.000000 -1.000000
vn 0.000000 0.000000 -1.000000
vn 0.000000 0.000000 -1.000000
vn 0.000000 0.000000 -1.000000
vn 0.000000 0.000000 1.000000
vn 0.000000 0.000000 1.000000
vn 0.000000 0.000000 1.000000
vn 0.000000 0.000000 1.000000
vn 0.000000 1.000000 0.000000
vn 0.000000 1.000000 0.000000
vn 0.000000 1.000000 0.000000
vn 0.000000 1.000000 0.000000
vn 0.000000 -1.000000 0.000000
vn 0.000000 -1.000000 0.000000
vn 0.000000 1.000000 0.000000
vn 0.000000 1.000000 0.000000
vn 1.000000 0.000000 0.000000
vn 1.000000 0.000000 0.000000
vn 1.000000 0.000000 0.000000
vn 1.000000 0.000000 0.000000
vn 1.000000 0.000000 0.000000
vn 1.000000 0.000000 0.000000
vn 1.000000 0.000000 0.000000
vn 1.000000 0.000000 0.000000
f 2/2/2 3/3/3 1/1/1 
f 4/4/4 3/3/3 2/2/2 
f 6/6/6 7/7/7 5/5/5 
f 8/8/8 7/7/7 6/6/6 
f 12/12/12 10/10/10 12/12/12 
f 11/11/11 10/10/10 12/12/12 
f 11/11/11 9/9/9 10/10/10 
f 50/50/50 51/51/51 49/49/49 
f 52/52/52 51/51/51 50/50/50 
f 46/46/46 47/47/47 45/45/45 
f 48/48/48 47/47/47 46/46/46 
f 38/38/38 39/39/39 37/37/37 
f 40/40/40 39/39/39 38/38/38 
f 34/34/34 35/35/35 33/33/33 
f 36/36/36 35/35/35 34/34/34 
f 30/30/30 31/31/31 29/29/29 
f 32/32/32 31/31/31 30/30/30 
f 26/26/26 27/27/27 25/25/25 
f 28/28/28 27/27/27 26/26/26 
f 14/14/14 15/15/15 13/13/13 
f 16/16/16 15/15/15 14/14/14 
f 18/18/18 19/19/19 17/17/17 
f 20/20/20 19/19/19 18/18/18 
f 20/20/20 41/41/41 19/19/19 
f 42/42/42 41/41/41 20/20/20 
f 24/24/24 22/22/22 24/24/24 
f 23/23/23 22/22/22 24/24/24 
f 23/23/23 21/21/21 22/22/22 
f 44/44/44 21/21/21 23/23/23 
f 44/44/44 43/43/43 21/21/21 
