v -0.191900 0.191600 -0.109700
v -0.191800 0.190200 -0.089800
v -0.206600 0.201600 0.076100
v -0.191800 0.190200 0.090300
v -0.195300 0.252600 0.083400
v -0.186200 0.241900 -0.115700
v -0.206600 0.201600 0.076100
v -0.191900 0.191600 -0.109700
v -0.196200 0.163900 0.091600
v -0.191800 0.190200 0.090300
v -0.196200 0.163900 -0.091600
v -0.191800 0.190200 -0.089800
v -0.145100 0.113600 -0.203200
v -0.135100 0.066400 -0.186000
v -0.249900 0.113600 0.000000
v -0.216700 0.065400 0.000000
v -0.121500 0.065400 0.188600
v -0.144700 0.113600 0.177300
v -0.235500 0.040000 0.000000
v -0.216700 0.065400 0.000000
v -0.144500 0.041000 -0.202300
v -0.135100 0.066400 -0.186000
v -0.134700 0.000000 -0.185200
v -0.215800 0.000000 0.000000
v -0.130900 0.040000 0.204900
v -0.122600 0.000000 0.179700
v -0.121500 0.065400 0.188600
v -0.186200 0.241900 -0.115700
v -0.195300 0.252600 0.083400
v -0.120800 0.301400 -0.092200
v -0.160500 0.292800 0.053600
v -0.262100 0.128200 -0.135300
v -0.130800 0.120600 0.240300
v -0.191700 0.157000 -0.074500
v -0.076500 0.153500 0.178400
v -0.249900 0.113600 0.000000
v -0.126000 0.166700 0.000000
v -0.145100 0.113600 -0.203200
v -0.063000 0.166700 -0.109200
v -0.144700 0.113600 0.177300
v -0.063000 0.166700 0.109200
v -0.265800 0.141400 -0.016800
v -0.185400 0.175500 -0.034100
v -0.246700 0.177900 -0.070800
v -0.230200 0.131800 0.095000
v -0.245100 0.145600 -0.141000
v -0.051000 0.190200 0.202700
v -0.057400 0.180600 0.210700
v -0.051000 0.190200 -0.202100
v -0.058800 0.196600 -0.230200
v -0.056200 0.248300 -0.217500
v -0.186200 0.241900 -0.115700
v -0.052900 0.163900 -0.205800
v -0.051000 0.190200 -0.202100
v -0.052900 0.163900 0.205800
v -0.051000 0.190200 0.202700
v -0.195300 0.252600 0.083400
v -0.206600 0.201600 0.076100
v -0.015600 0.217500 0.217500
v -0.057400 0.180600 0.210700
v -0.191700 0.157000 -0.074500
v -0.137800 0.156900 -0.138000
v -0.262100 0.128200 -0.135300
v -0.165000 0.170000 0.102800
v -0.145000 0.141800 -0.201800
v -0.186200 0.241900 -0.115700
v -0.120800 0.301400 -0.092200
v -0.056200 0.248300 -0.217500
v -0.029300 0.311400 -0.142700
v -0.015600 0.217500 0.217500
v -0.014300 0.283400 0.166400
v -0.195300 0.252600 0.083400
v -0.160500 0.292800 0.053600
v -0.104100 0.138600 0.223000
v -0.230200 0.131800 0.095000
v -0.094800 0.172200 -0.168200
v -0.262100 0.128200 -0.135300
v 0.046400 0.122500 -0.258700
v 0.056000 0.156900 -0.185400
v -0.077900 0.132900 -0.239500
v -0.020000 0.168400 0.187900
v -0.120800 0.301400 -0.092200
v -0.160500 0.292800 0.053600
v -0.001500 0.314000 0.001500
v -0.076500 0.153500 0.178400
v -0.130800 0.120600 0.240300
v -0.030000 0.150900 0.184400
v -0.160500 0.292800 0.053600
v -0.014300 0.283400 0.166400
v -0.001500 0.314000 0.001500
v -0.029300 0.311400 -0.142700
v -0.120800 0.301400 -0.092200
v -0.001500 0.314000 0.001500
v 0.023100 0.137800 0.250400
v 0.072300 0.172000 -0.166000
v 0.136600 0.037900 -0.200600
v 0.126700 -0.003000 -0.183500
v 0.137100 0.110500 -0.201600
v 0.127200 0.063400 -0.184300
v 0.127200 0.063400 -0.184300
v 0.133900 0.113600 0.214700
v 0.063000 0.166700 0.109200
v 0.133900 0.113600 0.214700
v 0.124000 0.066400 0.197400
v 0.137100 0.110500 -0.201600
v 0.063000 0.166700 -0.109200
v 0.133400 0.041000 0.213700
v 0.123500 0.000000 0.196600
v 0.124000 0.066400 0.197400
v 0.035400 0.132600 -0.262800
v -0.014300 0.283400 0.166400
v 0.076100 0.295600 0.133500
v -0.001500 0.314000 0.001500
v 0.091800 0.293700 -0.123700
v -0.029300 0.311400 -0.142700
v -0.001500 0.314000 0.001500
v 0.113000 0.196100 -0.190700
v 0.111100 0.252300 -0.182100
v 0.111100 0.252300 -0.182100
v -0.056200 0.248300 -0.217500
v 0.091800 0.293700 -0.123700
v -0.029300 0.311400 -0.142700
v 0.124600 0.190200 -0.162000
v 0.162200 0.125500 0.188900
v 0.144400 0.151900 0.133000
v -0.130800 0.120600 0.240300
v -0.030000 0.150900 0.184400
v 0.125700 0.163900 -0.165100
v 0.124600 0.190200 -0.162000
v 0.125700 0.163900 0.165100
v 0.124600 0.190200 0.162600
v 0.046400 0.122500 -0.258700
v 0.056000 0.156900 -0.185400
v 0.100000 0.085200 -0.262500
v 0.141200 0.190900 0.172500
v 0.124600 0.190200 0.162600
v 0.122300 0.237000 0.176900
v 0.076100 0.295600 0.133500
v -0.015600 0.217500 0.217500
v -0.014300 0.283400 0.166400
v 0.076100 0.295600 0.133500
v 0.178600 0.304500 -0.005800
v -0.001500 0.314000 0.001500
v 0.122300 0.237000 0.176900
v -0.015600 0.217500 0.217500
v 0.178600 0.304500 -0.005800
v 0.091800 0.293700 -0.123700
v -0.001500 0.314000 0.001500
v 0.171000 0.139800 -0.206400
v 0.100000 0.085200 -0.262500
v 0.056000 0.156900 -0.185400
v 0.124300 0.112800 -0.223700
v 0.138800 0.170800 0.125200
v 0.138100 0.143200 0.199000
v 0.246800 0.140700 -0.102400
v 0.194200 0.105400 0.165200
v 0.144400 0.151900 0.133000
v 0.162200 0.125500 0.188900
v 0.188300 0.174900 -0.017200
v 0.241100 0.174300 0.093200
v 0.216800 0.145700 0.134800
v 0.260300 0.143500 0.005200
v 0.236900 0.113600 0.000000
v 0.126000 0.166700 0.000000
v 0.137100 0.110500 -0.201600
v 0.063000 0.166700 -0.109200
v 0.195400 0.150500 -0.040700
v 0.203400 0.132700 -0.057600
v 0.056000 0.156900 -0.185400
v 0.122300 0.237000 0.176900
v 0.216900 0.256200 0.000000
v 0.076100 0.295600 0.133500
v 0.178600 0.304500 -0.005800
v 0.111100 0.252300 -0.182100
v 0.091800 0.293700 -0.123700
v 0.216900 0.256200 0.000000
v 0.178600 0.304500 -0.005800
v 0.217100 0.196600 0.000200
v 0.202800 0.190200 0.000200
v 0.216900 0.256200 0.000000
v 0.205200 0.163900 0.000000
v 0.202800 0.190200 0.000200
v 0.235800 0.041000 0.000000
v 0.216100 0.000000 0.000000
v 0.217000 0.066400 0.000000
v 0.236900 0.113600 0.000000
v 0.217000 0.066400 0.000000
v 0.194900 0.156000 0.020300
v 0.144400 0.151900 0.133000
v 0.213300 0.139400 0.031200
v 0.216800 0.145700 0.134800
v 0.203400 0.132700 -0.057600
v 0.195400 0.150500 -0.040700
v 0.213300 0.139400 0.031200
v 0.194900 0.156000 0.020300
vt 0.867100 0.367100
vt 0.867100 0.367100
vt 0.867100 0.367100
vt 0.867100 0.367100
vt 0.895300 0.437300
vt 0.849000 0.426500
vt 0.893900 0.408100
vt 0.851400 0.399500
vt 0.031200 0.499900
vt 0.031200 0.500000
vt 0.031200 0.499900
vt 0.031200 0.500000
vt -0.297400 0.777600
vt -0.232200 0.985900
vt -1.094800 0.777600
vt -0.964400 0.985900
vt -0.232200 0.985900
vt -0.297400 0.777600
vt 0.898400 0.375000
vt 0.898400 0.375000
vt 0.898400 0.375000
vt 0.898400 0.375000
vt 0.898400 0.375000
vt 0.898400 0.375000
vt 0.898400 0.375000
vt 0.898400 0.375000
vt 0.898400 0.375000
vt 0.982800 0.587100
vt 0.982900 0.139800
vt 0.592900 0.621800
vt 0.714500 0.163700
vt 0.425000 0.099300
vt 0.466700 0.122200
vt 0.447300 0.404900
vt 0.387900 0.363900
vt 0.261700 0.687500
vt 0.261700 0.875000
vt 0.130800 0.687500
vt 0.130800 0.875000
vt 0.392600 0.687500
vt 0.392600 0.875000
vt 0.074600 0.508600
vt 0.075500 0.509600
vt 0.075100 0.508700
vt 0.075600 0.508600
vt 0.075500 0.508600
vt 0.867100 0.367100
vt 0.867100 0.367100
vt 0.867100 0.367100
vt 0.867100 0.367100
vt 0.867100 0.367100
vt 0.867100 0.367100
vt 0.031200 0.499900
vt 0.031200 0.500000
vt 0.031200 0.499900
vt 0.031200 0.500000
vt 0.591900 0.582700
vt 0.569400 0.482500
vt 0.999000 0.584500
vt 0.946600 0.453300
vt 0.224600 0.201400
vt 0.255500 0.125000
vt 0.216500 0.200100
vt 0.075000 0.509300
vt 0.074800 0.508600
vt 0.823600 0.014100
vt 0.824000 0.542700
vt 0.582100 0.014100
vt 0.582900 0.542700
vt 0.772600 0.201100
vt 0.994900 0.182900
vt 0.761600 0.618400
vt 0.983900 0.627500
vt 0.074300 0.508700
vt 0.076500 0.508800
vt 0.074200 0.509100
vt 0.239200 0.124000
vt 0.368900 0.162500
vt 0.378400 0.164600
vt 0.074100 0.508600
vt 0.075300 0.509500
vt 0.567200 0.208600
vt 0.912800 0.004300
vt 0.677900 0.532800
vt 0.312500 0.304800
vt 0.037700 0.113200
vt 0.439600 0.325500
vt 0.579500 0.057300
vt 0.812200 0.057600
vt 0.649500 0.252500
vt 0.614200 0.091800
vt 0.895100 0.263700
vt 0.596700 0.491200
vt 0.075000 0.508700
vt 0.075300 0.509400
vt 0.898400 0.375000
vt 0.898400 0.375000
vt 1.297400 0.777600
vt 1.232200 0.985900
vt 0.898400 0.375000
vt 0.523500 0.687500
vt 0.523500 0.875000
vt 1.297400 0.777600
vt 1.232200 0.985900
vt 0.000000 0.687500
vt 0.000000 0.875000
vt 0.898400 0.375000
vt 0.898400 0.375000
vt 0.898400 0.375000
vt 0.075300 0.508700
vt 0.846100 0.270300
vt 0.983000 0.585200
vt 0.607000 0.572100
vt 0.630900 0.023200
vt 1.007200 0.182000
vt 0.706800 0.487600
vt 0.867100 0.367100
vt 0.867100 0.367100
vt 0.757800 0.083600
vt 0.977400 0.211000
vt 0.534600 0.599500
vt 0.844500 0.633900
vt 0.867100 0.367100
vt 0.420900 0.133500
vt 0.433200 0.320100
vt 0.037700 0.113200
vt 0.439600 0.325500
vt 0.031200 0.499900
vt 0.031200 0.500000
vt 0.031200 0.499900
vt 0.031200 0.500000
vt 0.480000 0.278900
vt 0.261300 0.284500
vt 0.466500 0.126000
vt 0.867100 0.367100
vt 0.867100 0.367100
vt 0.785500 0.339200
vt 1.005200 0.289800
vt 0.831400 0.629100
vt 0.928400 0.599900
vt 0.602600 0.304400
vt 0.930200 0.264300
vt 0.695800 0.609400
vt 0.867100 0.367100
vt 0.867100 0.367100
vt 0.904700 0.309600
vt 0.879200 0.626300
vt 0.537500 0.567700
vt 0.074300 0.508600
vt 0.466500 0.126000
vt 0.261300 0.284500
vt 0.260200 0.099400
vt 0.075300 0.509500
vt 0.074500 0.508600
vt 0.075700 0.508700
vt 0.460000 0.128600
vt 0.207900 0.310400
vt 0.125100 0.102000
vt 0.075000 0.509300
vt 0.075200 0.508800
vt 0.433800 0.234500
vt 0.074300 0.508600
vt 0.654400 0.687500
vt 0.654400 0.875000
vt 0.785300 0.687500
vt 0.785300 0.875000
vt 0.391700 0.231400
vt 0.424300 0.231400
vt 0.252800 0.260400
vt 0.601500 0.622200
vt 0.784300 0.206300
vt 0.957400 0.586900
vt 0.952100 0.242600
vt 0.601600 0.422800
vt 0.554600 0.594200
vt 0.922500 0.320900
vt 0.955000 0.581600
vt 0.867100 0.367100
vt 0.867100 0.367100
vt 0.867100 0.367100
vt 0.031200 0.499900
vt 0.031200 0.500000
vt 0.898400 0.375000
vt 0.898400 0.375000
vt 0.898400 0.375000
vt 2.094800 0.777600
vt 1.964400 0.985900
vt 0.394100 0.170000
vt 0.277300 0.263900
vt 0.434200 0.169800
vt 0.111100 0.118300
vt 0.468000 0.136900
vt 0.368000 0.144800
vt 0.100300 0.118600
vt 0.044900 0.218700
vn -0.627254 -0.298176 -0.719475
vn -0.418466 -0.907597 -0.033970
vn -0.764329 -0.581128 0.279449
vn -0.450130 -0.892929 0.007820
vn -0.973024 0.223678 -0.056494
vn -0.983661 0.165971 -0.069750
vn -0.983661 0.165971 -0.069750
vn -0.991205 0.102312 -0.083928
vn -0.887812 0.169676 0.427785
vn -0.888129 0.168149 0.427729
vn -0.942664 0.177070 -0.282898
vn -0.807408 0.172692 -0.564153
vn -0.275011 -0.381271 -0.882610
vn -0.584208 -0.457347 -0.670474
vn -0.883287 -0.468479 0.018216
vn -0.823212 -0.567025 0.028373
vn -0.478642 -0.266998 0.836429
vn -0.487983 -0.030373 0.872324
vn -0.992124 -0.103440 -0.070634
vn -0.816037 0.577246 0.029526
vn -0.556511 0.096182 -0.825254
vn -0.223371 0.585352 -0.779403
vn -0.423033 -0.445028 -0.789299
vn -0.877854 -0.443900 0.179792
vn -0.498721 -0.058719 0.864771
vn -0.420518 -0.544478 0.725747
vn -0.404142 0.595253 0.694509
vn -0.657334 0.750307 -0.070367
vn -0.704790 0.701753 -0.103994
vn -0.704790 0.701753 -0.103994
vn -0.807029 0.560221 -0.186702
vn -0.511328 0.836812 0.195679
vn -0.434420 0.881308 0.185946
vn -0.434420 0.881308 0.185946
vn -0.356475 0.917754 0.175081
vn -0.393919 0.919145 0.000414
vn -0.389307 0.921108 0.000260
vn -0.223474 0.916103 -0.332887
vn -0.091793 0.895981 -0.434502
vn -0.267582 0.890031 0.369113
vn -0.141359 0.881319 0.450882
vn -0.322181 0.903318 0.283226
vn -0.267767 0.962119 -0.051254
vn 0.017176 0.999180 0.036652
vn -0.431707 0.889251 0.151199
vn -0.002980 0.963465 -0.267818
vn 0.160628 -0.692871 -0.702943
vn 0.203881 -0.556580 0.805389
vn -0.018496 -0.981510 -0.190514
vn -0.243597 -0.268807 -0.931881
vn -0.223700 0.163533 -0.960841
vn -0.615618 -0.024195 -0.787673
vn -0.368042 0.156528 -0.916539
vn -0.062840 0.144598 -0.987493
vn -0.369287 0.137100 0.919146
vn -0.063229 0.122450 0.990458
vn -0.595838 0.017091 0.802923
vn -0.591067 0.233196 0.772178
vn -0.591067 0.233196 0.772178
vn -0.544303 0.491272 0.679990
vn -0.224740 0.955262 -0.192268
vn -0.168631 0.887955 -0.427901
vn -0.224740 0.955262 -0.192268
vn -0.386123 0.870317 0.305709
vn -0.206179 0.935865 -0.285738
vn -0.454667 0.711406 -0.535891
vn -0.418179 0.738690 -0.528642
vn -0.418179 0.738690 -0.528642
vn -0.370024 0.771417 -0.517684
vn -0.422077 0.560705 0.712363
vn -0.408183 0.637282 0.653649
vn -0.408183 0.637282 0.653649
vn -0.380241 0.740223 0.554515
vn -0.266857 0.868498 0.417731
vn -0.491787 0.748579 0.444719
vn -0.163070 0.895436 -0.414250
vn -0.200570 0.817942 -0.539206
vn -0.153576 0.863464 -0.480463
vn -0.100729 0.905671 -0.411843
vn -0.052630 0.898749 -0.435294
vn -0.011064 0.925132 0.379485
vn -0.124167 0.991954 0.024701
vn -0.124167 0.991954 0.024701
vn -0.124167 0.991954 0.024701
vn -0.010089 0.886619 0.462390
vn -0.010089 0.886619 0.462390
vn -0.010089 0.886619 0.462390
vn -0.073051 0.981590 0.176480
vn -0.073051 0.981590 0.176480
vn -0.073051 0.981590 0.176480
vn -0.107153 0.994239 0.002731
vn -0.107153 0.994239 0.002731
vn -0.107153 0.994239 0.002731
vn 0.024997 0.904552 0.425631
vn 0.125091 0.938945 -0.320522
vn 0.302749 -0.013394 -0.952976
vn 0.586632 -0.437542 -0.681484
vn 0.432526 -0.389573 -0.813114
vn 0.430314 -0.394665 -0.811831
vn 0.520617 0.595795 -0.611544
vn 0.187907 0.908094 0.374240
vn 0.193217 0.922407 0.334414
vn 0.252320 -0.184060 0.949977
vn 0.621191 -0.391099 0.679090
vn 0.008533 0.862444 -0.506081
vn 0.000000 0.854377 -0.519654
vn 0.658260 -0.013760 0.752665
vn 0.241102 -0.489818 0.837823
vn 0.229181 0.590411 0.773881
vn 0.025659 0.922458 -0.385245
vn -0.068123 0.981866 0.176914
vn -0.068123 0.981866 0.176914
vn -0.068123 0.981866 0.176914
vn 0.151686 0.987309 -0.047045
vn 0.151686 0.987309 -0.047045
vn 0.151686 0.987309 -0.047045
vn 0.629412 -0.115915 -0.768378
vn 0.614407 0.139602 -0.776540
vn 0.097443 0.826833 -0.553942
vn 0.152811 0.773276 -0.615381
vn 0.152811 0.773276 -0.615381
vn 0.209286 0.709038 -0.673397
vn 0.290202 -0.921221 -0.259105
vn 0.056969 0.909646 0.411460
vn 0.101083 0.855009 0.508667
vn 0.101083 0.855009 0.508667
vn 0.212371 0.646064 0.733144
vn 0.489588 0.121127 -0.863499
vn 0.736285 0.108313 -0.667947
vn 0.490665 0.101651 0.865399
vn 0.737515 0.094409 0.668699
vn 0.497802 0.758234 -0.421039
vn 0.497802 0.758234 -0.421039
vn 0.497802 0.758234 -0.421039
vn 0.606630 -0.314430 0.730160
vn -0.019243 -0.974294 -0.224457
vn 0.127380 0.653210 0.746386
vn 0.156468 0.632333 0.758731
vn 0.156468 0.632333 0.758731
vn 0.201729 0.597692 0.775932
vn 0.056631 0.992847 0.105105
vn 0.056631 0.992847 0.105105
vn 0.056631 0.992847 0.105105
vn 0.692310 0.005999 0.721576
vn 0.308935 -0.499148 0.809574
vn 0.047185 0.990969 -0.125514
vn 0.047185 0.990969 -0.125514
vn 0.047185 0.990969 -0.125514
vn 0.186165 0.937901 -0.292720
vn 0.139460 0.763562 -0.630495
vn 0.139460 0.763562 -0.630495
vn 0.345875 0.860509 -0.374025
vn 0.054738 0.972793 0.225119
vn 0.110757 0.928127 0.355407
vn 0.278238 0.944441 -0.174970
vn 0.311440 0.743414 0.591896
vn 0.311440 0.743414 0.591896
vn 0.611463 0.772743 0.170239
vn 0.239000 0.962428 -0.128882
vn 0.134613 0.989496 0.052690
vn 0.030565 0.590954 0.806126
vn 0.432172 0.890791 -0.140425
vn 0.431856 0.901936 -0.003397
vn 0.415735 0.909475 -0.004509
vn 0.410471 0.883977 -0.223826
vn 0.393070 0.891106 -0.226771
vn 0.531968 0.696414 -0.481682
vn 0.431865 0.835440 -0.339900
vn 0.431865 0.835440 -0.339900
vn 0.566690 0.729887 0.382265
vn 0.599249 0.673130 0.433355
vn 0.599249 0.673130 0.433355
vn 0.643231 0.571275 0.509803
vn 0.565311 0.749496 -0.344497
vn 0.622495 0.652837 -0.431631
vn 0.622495 0.652837 -0.431631
vn 0.685875 0.477978 -0.548737
vn 0.994596 -0.076841 0.069813
vn 0.263502 -0.964647 -0.004849
vn 0.979232 0.040475 -0.198661
vn 0.995778 0.091791 0.000000
vn 0.995862 0.090877 0.000000
vn 0.989670 -0.013010 -0.142771
vn 0.894422 -0.417149 0.161233
vn 0.804456 0.577356 0.139678
vn 0.927188 -0.374466 0.009898
vn 0.921398 -0.388471 0.010778
vn 0.549209 0.789208 0.274808
vn 0.237823 0.970408 0.041807
vn 0.237823 0.970408 0.041807
vn 0.086716 0.994214 -0.063388
vn 0.850550 0.508744 -0.133210
vn 0.780960 0.616648 -0.099227
vn 0.780960 0.616648 -0.099227
vn 0.687894 0.723361 -0.059583
f 62/62/62 63/63/63 61/61/61 
f 62/62/62 78/78/78 77/77/77 
f 79/79/79 78/78/78 62/62/62 
f 49/49/49 123/123/123 49/49/49 
f 117/117/117 123/123/123 49/49/49 
f 117/117/117 178/178/178 123/123/123 
f 1/1/1 49/49/49 1/1/1 
f 50/50/50 49/49/49 1/1/1 
f 50/50/50 117/117/117 49/49/49 
f 51/51/51 117/117/117 50/50/50 
f 51/51/51 117/117/117 117/117/117 
f 118/118/118 117/117/117 51/51/51 
f 118/118/118 117/117/117 117/117/117 
f 180/180/180 117/117/117 118/118/118 
f 180/180/180 178/178/178 117/117/117 
f 144/144/144 178/178/178 180/180/180 
f 144/144/144 135/135/135 178/178/178 
f 144/144/144 135/135/135 144/144/144 
f 144/144/144 48/48/48 135/135/135 
f 145/145/145 48/48/48 144/144/144 
f 1/1/1 51/51/51 50/50/50 
f 52/52/52 51/51/51 1/1/1 
f 178/178/178 179/179/179 123/123/123 
f 135/135/135 179/179/179 178/178/178 
f 135/135/135 136/136/136 179/179/179 
f 48/48/48 136/136/136 135/135/135 
f 48/48/48 47/47/47 136/136/136 
f 48/48/48 47/47/47 48/48/48 
f 48/48/48 4/4/4 47/47/47 
f 3/3/3 4/4/4 48/48/48 
f 3/3/3 2/2/2 4/4/4 
f 1/1/1 2/2/2 3/3/3 
f 1/1/1 49/49/49 2/2/2 
f 166/166/166 165/165/165 166/166/166 
f 164/164/164 165/165/165 166/166/166 
f 164/164/164 163/163/163 165/165/165 
f 164/164/164 163/163/163 164/164/164 
f 164/164/164 101/101/101 163/163/163 
f 102/102/102 101/101/101 164/164/164 
f 102/102/102 101/101/101 101/101/101 
f 41/41/41 101/101/101 102/102/102 
f 41/41/41 40/40/40 101/101/101 
f 37/37/37 40/40/40 41/41/41 
f 37/37/37 36/36/36 40/40/40 
f 37/37/37 36/36/36 37/37/37 
f 37/37/37 38/38/38 36/36/36 
f 39/39/39 38/38/38 37/37/37 
f 39/39/39 105/105/105 38/38/38 
f 106/106/106 105/105/105 39/39/39 
f 157/157/157 156/156/156 161/161/161 
f 158/158/158 156/156/156 157/157/157 
f 151/151/151 152/152/152 150/150/150 
f 168/168/168 169/169/169 167/167/167 
f 152/152/152 169/169/169 168/168/168 
f 95/95/95 155/155/155 95/95/95 
f 159/159/159 155/155/155 95/95/95 
f 159/159/159 162/162/162 155/155/155 
f 159/159/159 162/162/162 159/159/159 
f 159/159/159 160/160/160 162/162/162 
f 153/153/153 160/160/160 159/159/159 
f 153/153/153 154/154/154 160/160/160 
f 81/81/81 154/154/154 153/153/153 
f 81/81/81 94/94/94 154/154/154 
f 81/81/81 94/94/94 81/81/81 
f 81/81/81 74/74/74 94/94/94 
f 64/64/64 74/74/74 81/81/81 
f 64/64/64 75/75/75 74/74/74 
f 64/64/64 43/43/43 45/45/45 
f 43/43/43 42/42/42 45/45/45 
f 43/43/43 42/42/42 43/43/43 
f 43/43/43 44/44/44 42/42/42 
f 43/43/43 44/44/44 43/43/43 
f 43/43/43 46/46/46 44/44/44 
f 43/43/43 46/46/46 43/43/43 
f 43/43/43 65/65/65 46/46/46 
f 76/76/76 65/65/65 43/43/43 
f 76/76/76 80/80/80 65/65/65 
f 95/95/95 80/80/80 76/76/76 
f 95/95/95 110/110/110 80/80/80 
f 95/95/95 110/110/110 95/95/95 
f 95/95/95 149/149/149 110/110/110 
f 95/95/95 149/149/149 95/95/95 
f 95/95/95 155/155/155 149/149/149 
f 23/23/23 21/21/21 23/23/23 
f 19/19/19 21/21/21 23/23/23 
f 19/19/19 20/20/20 21/21/21 
f 25/25/25 20/20/20 19/19/19 
f 25/25/25 27/27/27 20/20/20 
f 25/25/25 27/27/27 25/25/25 
f 25/25/25 109/109/109 27/27/27 
f 107/107/107 109/109/109 25/25/25 
f 107/107/107 185/185/185 109/109/109 
f 183/183/183 185/185/185 107/107/107 
f 183/183/183 100/100/100 185/185/185 
f 96/96/96 100/100/100 183/183/183 
f 96/96/96 22/22/22 100/100/100 
f 21/21/21 22/22/22 96/96/96 
f 21/21/21 20/20/20 22/22/22 
f 24/24/24 25/25/25 19/19/19 
f 26/26/26 25/25/25 24/24/24 
f 26/26/26 25/25/25 25/25/25 
f 108/108/108 25/25/25 26/26/26 
f 108/108/108 107/107/107 25/25/25 
f 184/184/184 107/107/107 108/108/108 
f 184/184/184 183/183/183 107/107/107 
f 97/97/97 183/183/183 184/184/184 
f 97/97/97 96/96/96 183/183/183 
f 23/23/23 96/96/96 97/97/97 
f 23/23/23 21/21/21 96/96/96 
f 24/24/24 19/19/19 23/23/23 
f 55/55/55 10/10/10 9/9/9 
f 55/55/55 10/10/10 55/55/55 
f 55/55/55 56/56/56 10/10/10 
f 130/130/130 56/56/56 55/55/55 
f 130/130/130 131/131/131 56/56/56 
f 181/181/181 131/131/131 130/130/130 
f 181/181/181 182/182/182 131/131/131 
f 181/181/181 182/182/182 181/181/181 
f 181/181/181 129/129/129 182/182/182 
f 128/128/128 129/129/129 181/181/181 
f 128/128/128 54/54/54 129/129/129 
f 53/53/53 54/54/54 128/128/128 
f 53/53/53 12/12/12 54/54/54 
f 11/11/11 12/12/12 53/53/53 
f 11/11/11 10/10/10 12/12/12 
f 9/9/9 10/10/10 11/11/11 
f 16/16/16 15/15/15 14/14/14 
f 17/17/17 15/15/15 16/16/16 
f 17/17/17 18/18/18 15/15/15 
f 17/17/17 18/18/18 17/17/17 
f 17/17/17 103/103/103 18/18/18 
f 104/104/104 103/103/103 17/17/17 
f 104/104/104 186/186/186 103/103/103 
f 187/187/187 186/186/186 104/104/104 
f 187/187/187 186/186/186 186/186/186 
f 99/99/99 186/186/186 187/187/187 
f 99/99/99 98/98/98 186/186/186 
f 99/99/99 98/98/98 99/99/99 
f 99/99/99 13/13/13 98/98/98 
f 14/14/14 13/13/13 99/99/99 
f 14/14/14 15/15/15 13/13/13 
f 147/147/147 148/148/148 146/146/146 
f 58/58/58 59/59/59 57/57/57 
f 60/60/60 59/59/59 58/58/58 
f 120/120/120 121/121/121 119/119/119 
f 122/122/122 121/121/121 120/120/120 
f 125/125/125 126/126/126 124/124/124 
f 127/127/127 126/126/126 125/125/125 
f 171/171/171 172/172/172 170/170/170 
f 173/173/173 172/172/172 171/171/171 
f 175/175/175 176/176/176 174/174/174 
f 177/177/177 176/176/176 175/175/175 
f 189/189/189 190/190/190 188/188/188 
f 191/191/191 190/190/190 189/189/189 
f 193/193/193 194/194/194 192/192/192 
f 195/195/195 194/194/194 193/193/193 
f 6/6/6 7/7/7 5/5/5 
f 8/8/8 7/7/7 6/6/6 
f 29/29/29 30/30/30 28/28/28 
f 31/31/31 30/30/30 29/29/29 
f 33/33/33 34/34/34 32/32/32 
f 35/35/35 34/34/34 33/33/33 
f 67/67/67 68/68/68 66/66/66 
f 69/69/69 68/68/68 67/67/67 
f 71/71/71 72/72/72 70/70/70 
f 73/73/73 72/72/72 71/71/71 
f 83/83/83 84/84/84 82/82/82 
f 142/142/142 143/143/143 141/141/141 
f 86/86/86 87/87/87 85/85/85 
f 138/138/138 139/139/139 137/137/137 
f 140/140/140 139/139/139 138/138/138 
f 133/133/133 134/134/134 132/132/132 
f 89/89/89 90/90/90 88/88/88 
f 115/115/115 116/116/116 114/114/114 
f 92/92/92 93/93/93 91/91/91 
f 112/112/112 113/113/113 111/111/111 
