v -0.723900 0.000000 -0.009200
v -0.723900 0.000000 0.010200
v -0.723900 0.398600 -0.009200
v -0.723900 0.398600 0.010200
v -0.721500 0.000000 0.012200
v -0.723900 0.000000 0.010200
v -0.721500 0.000000 -0.011000
v -0.723900 0.000000 -0.009200
v -0.723900 0.398600 -0.009200
v -0.721500 0.398600 -0.011000
v -0.723900 0.000000 -0.009200
v -0.721500 0.000000 -0.011000
v -0.723900 0.000000 0.010200
v -0.721500 0.000000 0.012200
v -0.723900 0.398600 0.010200
v -0.721500 0.398600 0.012200
v -0.721500 0.398600 0.012200
v -0.721500 0.398600 -0.011000
v -0.723900 0.398600 0.010200
v -0.723900 0.398600 -0.009200
v -0.669200 0.000000 -0.011000
v -0.669200 0.000000 0.012200
v -0.669200 0.398600 -0.011000
v -0.669200 0.000000 -0.011000
v -0.669200 0.398600 0.012200
v -0.669200 0.000000 0.012200
v -0.669200 0.398600 -0.011000
v -0.669200 0.398600 0.012200
v -0.664800 0.398600 0.013600
v -0.664800 0.000000 0.013600
v -0.664700 0.000000 -0.013600
v -0.664800 0.000000 0.013600
v -0.664700 0.398600 -0.013600
v -0.664800 0.398600 0.013600
v -0.664700 0.000000 -0.013600
v -0.664700 0.398600 -0.013600
v -0.664800 0.398600 0.013600
v -0.664800 0.000000 0.013600
v -0.615500 0.398600 0.047700
v -0.615500 0.000000 0.047700
v -0.615500 0.000000 -0.047900
v -0.615500 0.000000 0.047700
v -0.664700 0.000000 -0.013600
v -0.664800 0.000000 0.013600
v -0.615500 0.398600 0.047700
v -0.615500 0.398600 -0.047900
v -0.664800 0.398600 0.013600
v -0.664700 0.398600 -0.013600
v -0.664700 0.000000 -0.013600
v -0.664700 0.398600 -0.013600
v -0.615500 0.000000 -0.047900
v -0.615500 0.398600 -0.047900
v -0.610300 0.000000 0.050100
v -0.610300 0.000000 -0.050100
v -0.610300 0.000000 -0.050100
v -0.610300 0.398600 -0.050100
v -0.610300 0.398600 0.050100
v -0.610300 0.000000 0.050100
v -0.610300 0.398600 0.050100
v -0.610300 0.398600 -0.050100
v -0.610300 0.000000 0.050100
v -0.610300 0.000000 -0.050100
v 0.608400 0.000000 0.050100
v 0.608400 0.000000 -0.050100
v -0.610300 0.000000 -0.050100
v -0.610300 0.398600 -0.050100
v 0.608400 0.000000 -0.050100
v 0.608400 0.398600 -0.050100
v -0.610300 0.398600 0.050100
v -0.610300 0.000000 0.050100
v 0.608400 0.398600 0.050100
v 0.608400 0.000000 0.050100
v -0.610300 0.398600 0.050100
v 0.608400 0.398600 0.050100
v -0.610300 0.398600 -0.050100
v 0.608400 0.398600 -0.050100
v 0.608400 0.398600 0.050100
v 0.614000 0.398600 0.047700
v 0.608400 0.398600 -0.050100
v 0.614000 0.398600 -0.047900
v 0.608400 0.000000 0.050100
v 0.608400 0.000000 -0.050100
v 0.614000 0.000000 0.047700
v 0.614000 0.000000 -0.047900
v 0.608400 0.000000 -0.050100
v 0.608400 0.398600 -0.050100
v 0.614000 0.000000 -0.047900
v 0.614000 0.398600 -0.047900
v 0.608400 0.398600 0.050100
v 0.608400 0.000000 0.050100
v 0.614000 0.398600 0.047700
v 0.614000 0.000000 0.047700
v 0.668100 0.000000 -0.013600
v 0.668100 0.000000 0.013600
v 0.668100 0.000000 -0.013600
v 0.668100 0.398600 -0.013600
v 0.668100 0.398600 0.013600
v 0.668100 0.000000 0.013600
v 0.668100 0.398600 -0.013600
v 0.668100 0.398600 0.013600
v 0.668100 0.000000 -0.013600
v 0.673200 0.000000 -0.011000
v 0.668100 0.000000 0.013600
v 0.673200 0.000000 0.012200
v 0.668100 0.000000 -0.013600
v 0.668100 0.398600 -0.013600
v 0.673200 0.000000 -0.011000
v 0.673200 0.398600 -0.011000
v 0.668100 0.398600 0.013600
v 0.668100 0.000000 0.013600
v 0.673200 0.398600 0.012200
v 0.673200 0.000000 0.012200
v 0.668100 0.398600 -0.013600
v 0.668100 0.398600 0.013600
v 0.673200 0.398600 -0.011000
v 0.673200 0.398600 0.012200
v 0.720900 0.398600 0.012200
v 0.720900 0.398600 -0.011000
v 0.720900 0.000000 0.012200
v 0.720900 0.000000 -0.011000
v 0.720900 0.000000 -0.011000
v 0.720900 0.398600 -0.011000
v 0.720900 0.398600 0.012200
v 0.720900 0.000000 0.012200
v 0.723900 0.000000 0.010200
v 0.723900 0.000000 -0.009200
v 0.723900 0.000000 -0.009200
v 0.723900 0.398600 -0.009200
v 0.723900 0.398600 0.010200
v 0.723900 0.000000 0.010200
v 0.723900 0.398600 0.010200
v 0.723900 0.398600 -0.009200
v 0.723900 0.000000 0.010200
v 0.723900 0.000000 -0.009200
v 0.723900 0.398600 0.010200
v 0.723900 0.398600 -0.009200
vt 0.019500 0.966900
vt 0.019500 0.966900
vt 0.019500 0.966900
vt 0.019500 0.966900
vt 0.019500 0.966900
vt 0.019500 0.966900
vt 0.019500 0.966900
vt 0.019500 0.966900
vt 0.019500 0.966900
vt 0.019500 0.966900
vt 0.019500 0.966900
vt 0.019500 0.966900
vt 0.019500 0.966900
vt 0.019500 0.966900
vt 0.019500 0.966900
vt 0.019500 0.966900
vt 0.019500 0.966900
vt 0.019500 0.966900
vt 0.019500 0.966900
vt 0.019500 0.966900
vt 0.019500 0.966900
vt 0.019500 0.966900
vt 0.019500 0.966900
vt 0.019500 0.966900
vt 0.019500 0.966900
vt 0.019500 0.966900
vt 0.019500 0.966900
vt 0.019500 0.966900
vt 0.019500 0.966900
vt 0.019500 0.966900
vt 0.019500 0.966900
vt 0.019500 0.966900
vt 0.019500 0.966900
vt 0.019500 0.966900
vt 0.019500 0.966900
vt 0.019500 0.966900
vt 0.085900 0.151300
vt 0.085900 0.151300
vt 0.085900 0.151300
vt 0.085900 0.151300
vt 0.085900 0.151300
vt 0.085900 0.151300
vt 0.085900 0.151300
vt 0.085900 0.151300
vt 0.085900 0.151300
vt 0.085900 0.151300
vt 0.085900 0.151300
vt 0.085900 0.151300
vt 0.085900 0.151300
vt 0.085900 0.151300
vt 0.085900 0.151300
vt 0.085900 0.151300
vt 0.085900 0.151300
vt 0.085900 0.151300
vt 0.085900 0.151300
vt 0.085900 0.151300
vt 0.085900 0.151300
vt 0.085900 0.151300
vt 0.085900 0.151300
vt 0.085900 0.151300
vt 0.003900 0.809200
vt 0.003900 0.809200
vt 0.998000 0.809200
vt 0.998000 0.809200
vt 0.998000 0.006200
vt 0.998000 0.809200
vt 0.003900 0.006200
vt 0.003900 0.809200
vt 0.003900 0.809200
vt 0.003900 0.006200
vt 0.998000 0.809200
vt 0.998000 0.006200
vt 0.003900 0.809200
vt 0.998000 0.809200
vt 0.003900 0.809200
vt 0.998000 0.809200
vt 0.085900 0.151300
vt 0.085900 0.151300
vt 0.085900 0.151300
vt 0.085900 0.151300
vt 0.085900 0.151300
vt 0.085900 0.151300
vt 0.085900 0.151300
vt 0.085900 0.151300
vt 0.085900 0.151300
vt 0.085900 0.151300
vt 0.085900 0.151300
vt 0.085900 0.151300
vt 0.085900 0.151300
vt 0.085900 0.151300
vt 0.085900 0.151300
vt 0.085900 0.151300
vt 0.085900 0.151300
vt 0.085900 0.151300
vt 0.085900 0.151300
vt 0.085900 0.151300
vt 0.085900 0.151300
vt 0.085900 0.151300
vt 0.085900 0.151300
vt 0.085900 0.151300
vt 0.019500 0.966900
vt 0.019500 0.966900
vt 0.019500 0.966900
vt 0.019500 0.966900
vt 0.019500 0.966900
vt 0.019500 0.966900
vt 0.019500 0.966900
vt 0.019500 0.966900
vt 0.019500 0.966900
vt 0.019500 0.966900
vt 0.019500 0.966900
vt 0.019500 0.966900
vt 0.019500 0.966900
vt 0.019500 0.966900
vt 0.019500 0.966900
vt 0.019500 0.966900
vt 0.019500 0.966900
vt 0.019500 0.966900
vt 0.019500 0.966900
vt 0.019500 0.966900
vt 0.019500 0.966900
vt 0.019500 0.966900
vt 0.019500 0.966900
vt 0.019500 0.966900
vt 0.019500 0.966900
vt 0.019500 0.966900
vt 0.019500 0.966900
vt 0.019500 0.966900
vt 0.019500 0.966900
vt 0.019500 0.966900
vt 0.019500 0.966900
vt 0.019500 0.966900
vt 0.019500 0.966900
vt 0.019500 0.966900
vt 0.019500 0.966900
vt 0.019500 0.966900
vn -1.000000 0.000000 0.000000
vn -1.000000 0.000000 0.000000
vn -1.000000 0.000000 0.000000
vn -1.000000 0.000000 0.000000
vn 0.000000 -1.000000 0.000000
vn 0.000000 -1.000000 0.000000
vn 0.000000 -1.000000 0.000000
vn 0.000000 -1.000000 0.000000
vn -0.599993 0.000000 -0.800005
vn -0.062922 0.000000 -0.998018
vn -0.599993 0.000000 -0.800005
vn -0.016820 0.000000 -0.999858
vn -0.640178 0.000000 0.768227
vn -0.036539 0.000000 0.999332
vn -0.640178 0.000000 0.768227
vn -0.036539 0.000000 0.999332
vn 0.000000 1.000000 0.000000
vn 0.000000 1.000000 0.000000
vn 0.000000 1.000000 0.000000
vn 0.000000 1.000000 0.000000
vn 0.000000 -1.000000 0.000000
vn 0.000000 -1.000000 0.000000
vn -0.045727 0.000000 -0.998954
vn -0.045727 0.000000 -0.998954
vn -0.012843 0.000000 0.999918
vn -0.045778 0.000000 0.998952
vn 0.000000 1.000000 0.000000
vn 0.000000 1.000000 0.000000
vn -0.303203 0.000000 0.952926
vn -0.303203 0.000000 0.952926
vn 0.000000 -1.000000 0.000000
vn 0.000000 -1.000000 0.000000
vn 0.000000 1.000000 0.000000
vn 0.000000 1.000000 0.000000
vn -0.500275 0.000000 -0.865867
vn -0.500275 0.000000 -0.865867
vn -0.568863 0.000000 0.822432
vn -0.568863 0.000000 0.822432
vn -0.562397 0.000000 0.826867
vn -0.545926 0.000000 0.837834
vn 0.000000 -1.000000 0.000000
vn 0.000000 -1.000000 0.000000
vn 0.000000 -1.000000 0.000000
vn 0.000000 -1.000000 0.000000
vn 0.000000 1.000000 0.000000
vn 0.000000 1.000000 0.000000
vn 0.000000 1.000000 0.000000
vn 0.000000 1.000000 0.000000
vn -0.571895 0.000000 -0.820327
vn -0.571895 0.000000 -0.820327
vn -0.564227 0.000000 -0.825620
vn -0.544593 0.000000 -0.838700
vn 0.000000 -1.000000 0.000000
vn 0.000000 -1.000000 0.000000
vn -0.389642 0.000000 -0.920966
vn -0.389642 0.000000 -0.920966
vn -0.419060 0.000000 0.907958
vn -0.419060 0.000000 0.907958
vn 0.000000 1.000000 0.000000
vn 0.000000 1.000000 0.000000
vn 0.000000 -1.000000 0.000000
vn 0.000000 -1.000000 0.000000
vn 0.000000 -1.000000 0.000000
vn 0.000000 -1.000000 0.000000
vn 0.000000 0.000000 -1.000000
vn 0.000000 0.000000 -1.000000
vn 0.000000 0.000000 -1.000000
vn 0.000000 0.000000 -1.000000
vn 0.000000 0.000000 1.000000
vn 0.000000 0.000000 1.000000
vn 0.000000 0.000000 1.000000
vn 0.000000 0.000000 1.000000
vn 0.000000 1.000000 0.000000
vn 0.000000 1.000000 0.000000
vn 0.000000 1.000000 0.000000
vn 0.000000 1.000000 0.000000
vn 0.000000 1.000000 0.000000
vn 0.000000 1.000000 0.000000
vn 0.000000 1.000000 0.000000
vn 0.000000 1.000000 0.000000
vn 0.000000 -1.000000 0.000000
vn 0.000000 -1.000000 0.000000
vn 0.000000 -1.000000 0.000000
vn 0.000000 -1.000000 0.000000
vn 0.365650 0.000000 -0.930752
vn 0.365650 0.000000 -0.930752
vn 0.509838 0.000000 -0.860270
vn 0.528254 0.000000 -0.849086
vn 0.393917 0.000000 0.919146
vn 0.393917 0.000000 0.919146
vn 0.511784 0.000000 0.859114
vn 0.527177 0.000000 0.849755
vn 0.000000 -1.000000 0.000000
vn 0.000000 -1.000000 0.000000
vn 0.535461 0.000000 -0.844560
vn 0.535461 0.000000 -0.844560
vn 0.533228 0.000000 0.845972
vn 0.533228 0.000000 0.845972
vn 0.000000 1.000000 0.000000
vn 0.000000 1.000000 0.000000
vn 0.000000 -1.000000 0.000000
vn 0.000000 -1.000000 0.000000
vn 0.000000 -1.000000 0.000000
vn 0.000000 -1.000000 0.000000
vn 0.454187 0.000000 -0.890907
vn 0.454187 0.000000 -0.890907
vn 0.089450 0.000000 -0.995991
vn 0.025862 0.000000 -0.999665
vn 0.264716 0.000000 0.964326
vn 0.264716 0.000000 0.964326
vn 0.048303 0.000000 0.998833
vn 0.013929 0.000000 0.999903
vn 0.000000 1.000000 0.000000
vn 0.000000 1.000000 0.000000
vn 0.000000 1.000000 0.000000
vn 0.000000 1.000000 0.000000
vn 0.000000 1.000000 0.000000
vn 0.000000 1.000000 0.000000
vn 0.000000 -1.000000 0.000000
vn 0.000000 -1.000000 0.000000
vn 0.018290 0.000000 -0.999833
vn 0.066889 0.000000 -0.997760
vn 0.020321 0.000000 0.999793
vn 0.074282 0.000000 0.997237
vn 0.000000 -1.000000 0.000000
vn 0.000000 -1.000000 0.000000
vn 0.514493 0.000000 -0.857495
vn 0.514493 0.000000 -0.857495
vn 0.554697 0.000000 0.832052
vn 0.554697 0.000000 0.832052
vn 0.000000 1.000000 0.000000
vn 0.000000 1.000000 0.000000
vn 1.000000 0.000000 0.000000
vn 1.000000 0.000000 0.000000
vn 1.000000 0.000000 0.000000
vn 1.000000 0.000000 0.000000
f 62/62/62 63/63/63 61/61/61 
f 64/64/64 63/63/63 62/62/62 
f 2/2/2 3/3/3 1/1/1 
f 4/4/4 3/3/3 2/2/2 
f 134/134/134 135/135/135 133/133/133 
f 136/136/136 135/135/135 134/134/134 
f 74/74/74 75/75/75 73/73/73 
f 76/76/76 75/75/75 74/74/74 
f 70/70/70 71/71/71 69/69/69 
f 72/72/72 71/71/71 70/70/70 
f 66/66/66 67/67/67 65/65/65 
f 68/68/68 67/67/67 66/66/66 
f 90/90/90 91/91/91 89/89/89 
f 92/92/92 91/91/91 90/90/90 
f 92/92/92 97/97/97 91/91/91 
f 98/98/98 97/97/97 92/92/92 
f 86/86/86 87/87/87 85/85/85 
f 88/88/88 87/87/87 86/86/86 
f 88/88/88 95/95/95 87/87/87 
f 96/96/96 95/95/95 88/88/88 
f 82/82/82 83/83/83 81/81/81 
f 84/84/84 83/83/83 82/82/82 
f 84/84/84 83/83/83 83/83/83 
f 93/93/93 83/83/83 84/84/84 
f 93/93/93 94/94/94 83/83/83 
f 53/53/53 54/54/54 53/53/53 
f 42/42/42 54/54/54 53/53/53 
f 42/42/42 41/41/41 54/54/54 
f 42/42/42 41/41/41 42/42/42 
f 42/42/42 43/43/43 41/41/41 
f 44/44/44 43/43/43 42/42/42 
f 78/78/78 79/79/79 77/77/77 
f 78/78/78 79/79/79 78/78/78 
f 78/78/78 80/80/80 79/79/79 
f 78/78/78 80/80/80 78/78/78 
f 78/78/78 99/99/99 80/80/80 
f 100/100/100 99/99/99 78/78/78 
f 50/50/50 51/51/51 49/49/49 
f 52/52/52 51/51/51 50/50/50 
f 52/52/52 55/55/55 51/51/51 
f 56/56/56 55/55/55 52/52/52 
f 60/60/60 45/45/45 59/59/59 
f 46/46/46 45/45/45 60/60/60 
f 46/46/46 47/47/47 45/45/45 
f 48/48/48 47/47/47 46/46/46 
f 38/38/38 39/39/39 37/37/37 
f 40/40/40 39/39/39 38/38/38 
f 40/40/40 57/57/57 39/39/39 
f 58/58/58 57/57/57 40/40/40 
f 114/114/114 115/115/115 113/113/113 
f 116/116/116 115/115/115 114/114/114 
f 116/116/116 115/115/115 115/115/115 
f 117/117/117 115/115/115 116/116/116 
f 117/117/117 118/118/118 115/115/115 
f 131/131/131 118/118/118 117/117/117 
f 131/131/131 132/132/132 118/118/118 
f 101/101/101 103/103/103 101/101/101 
f 102/102/102 103/103/103 101/101/101 
f 102/102/102 104/104/104 103/103/103 
f 102/102/102 104/104/104 102/102/102 
f 102/102/102 119/119/119 104/104/104 
f 120/120/120 119/119/119 102/102/102 
f 120/120/120 125/125/125 119/119/119 
f 126/126/126 125/125/125 120/120/120 
f 110/110/110 111/111/111 109/109/109 
f 112/112/112 111/111/111 110/110/110 
f 112/112/112 123/123/123 111/111/111 
f 124/124/124 123/123/123 112/112/112 
f 124/124/124 129/129/129 123/123/123 
f 130/130/130 129/129/129 124/124/124 
f 106/106/106 107/107/107 105/105/105 
f 108/108/108 107/107/107 106/106/106 
f 108/108/108 121/121/121 107/107/107 
f 122/122/122 121/121/121 108/108/108 
f 122/122/122 127/127/127 121/121/121 
f 128/128/128 127/127/127 122/122/122 
f 32/32/32 21/21/21 31/31/31 
f 22/22/22 21/21/21 32/32/32 
f 22/22/22 21/21/21 21/21/21 
f 5/5/5 21/21/21 22/22/22 
f 5/5/5 7/7/7 21/21/21 
f 6/6/6 7/7/7 5/5/5 
f 6/6/6 8/8/8 7/7/7 
f 33/33/33 34/34/34 33/33/33 
f 27/27/27 34/34/34 33/33/33 
f 27/27/27 28/28/28 34/34/34 
f 27/27/27 28/28/28 27/27/27 
f 27/27/27 17/17/17 28/28/28 
f 18/18/18 17/17/17 27/27/27 
f 18/18/18 19/19/19 17/17/17 
f 20/20/20 19/19/19 18/18/18 
f 14/14/14 15/15/15 13/13/13 
f 14/14/14 15/15/15 14/14/14 
f 14/14/14 16/16/16 15/15/15 
f 14/14/14 16/16/16 14/14/14 
f 14/14/14 25/25/25 16/16/16 
f 26/26/26 25/25/25 14/14/14 
f 26/26/26 29/29/29 25/25/25 
f 30/30/30 29/29/29 26/26/26 
f 10/10/10 11/11/11 9/9/9 
f 10/10/10 11/11/11 10/10/10 
f 10/10/10 12/12/12 11/11/11 
f 23/23/23 12/12/12 10/10/10 
f 23/23/23 24/24/24 12/12/12 
f 23/23/23 24/24/24 23/23/23 
f 23/23/23 35/35/35 24/24/24 
f 36/36/36 35/35/35 23/23/23 
