v -0.275100 0.219300 0.040200
v -0.272300 0.236800 -0.027600
v -0.256100 0.169300 0.032200
v -0.275500 0.207400 -0.029700
v -0.235500 0.174300 -0.020400
v -0.197300 0.257100 -0.028800
v -0.206800 0.215600 0.039300
v -0.180100 0.182100 -0.009000
v -0.165800 0.236300 0.037700
v -0.127000 0.172500 -0.031700
v -0.244600 0.267500 -0.193800
v -0.268400 0.318000 -0.112700
v -0.272600 0.449500 -0.216300
v -0.191900 0.409100 -0.315900
v -0.272600 0.449500 -0.216300
v -0.268400 0.318000 -0.112700
v -0.161800 0.507600 -0.133900
v -0.183500 0.111900 -0.055400
v -0.214000 0.509400 -0.311000
v -0.208600 0.550800 -0.209500
v -0.047300 0.531900 -0.343800
v -0.051300 0.560400 -0.266900
v -0.191500 0.183100 -0.020500
v -0.208600 0.550800 -0.209500
v -0.272600 0.449500 -0.216300
v -0.161800 0.507600 -0.133900
v -0.268400 0.318000 -0.112700
v -0.191500 0.183100 -0.020500
v -0.166300 0.322000 -0.130900
v -0.166300 0.322000 -0.130900
v -0.161800 0.507600 -0.133900
v -0.268400 0.318000 -0.112700
v -0.166300 0.322000 -0.130900
v 0.018500 0.440200 -0.377000
v -0.107100 0.189700 -0.101100
v -0.161800 0.507600 -0.133900
v -0.101100 0.053800 -0.024000
v -0.076600 0.278300 -0.073600
v -0.086600 0.240800 -0.138500
v -0.114700 0.115700 0.036900
v 0.119600 0.434600 -0.276700
v -0.044900 0.414300 -0.216500
v -0.114700 0.115700 0.036900
v -0.028800 0.168200 -0.026300
v -0.191500 0.183100 -0.020500
v -0.028800 0.168200 -0.026300
v -0.030500 0.225300 -0.000600
v -0.008400 0.315500 -0.124400
v -0.035600 0.255300 -0.158300
v -0.165800 0.236300 0.037700
v -0.030500 0.225300 -0.000600
v -0.076600 0.278300 -0.073600
v 0.000500 0.162600 -0.097000
v -0.063300 0.287100 -0.319700
v -0.006100 0.197400 -0.255300
v 0.032500 0.222600 -0.060500
v -0.051300 0.560400 -0.266900
v -0.161800 0.507600 -0.133900
v 0.119600 0.434600 -0.276700
v -0.114700 0.115700 0.036900
v 0.106200 0.120100 -0.013300
v -0.028800 0.168200 -0.026300
v 0.106200 0.120100 -0.013300
v 0.108800 0.121900 0.051900
v 0.107600 0.047000 0.038400
v 0.108300 0.301400 -0.076600
v -0.076600 0.278300 -0.073600
v -0.030500 0.225300 -0.000600
v -0.044900 0.414300 -0.216500
v -0.035600 0.255300 -0.158300
v 0.084900 0.446400 -0.159200
v 0.108300 0.301400 -0.076600
v -0.008400 0.315500 -0.124400
v -0.076600 0.278300 -0.073600
v 0.060700 0.132400 -0.138600
v 0.021500 0.185700 0.008500
v 0.124600 0.317100 -0.163300
v 0.135100 0.318600 -0.361600
v 0.108300 0.301400 -0.076600
v 0.092600 0.121400 -0.012000
v 0.144900 0.431800 -0.353800
v 0.093200 0.360200 -0.123900
v 0.084900 0.446400 -0.159200
v 0.057700 0.083400 0.048500
v 0.073700 0.136000 0.108900
v 0.124900 0.212400 -0.123200
v 0.124600 0.317100 -0.163300
v 0.083000 0.065700 0.129700
v 0.102000 0.034300 0.050400
v 0.055400 0.036100 0.096200
v 0.109300 0.194400 -0.226900
v 0.124900 0.212400 -0.123200
v 0.021500 0.185700 0.008500
v 0.128700 0.193000 0.005900
v 0.132500 0.083100 0.046900
v 0.128700 0.193000 0.005900
v 0.072000 0.039600 0.145800
v 0.093200 0.360200 -0.123900
v 0.197900 0.368400 -0.109600
v 0.084900 0.446400 -0.159200
v 0.120800 0.133000 0.106400
v 0.126100 0.063600 0.129000
v 0.156900 0.041600 0.088700
v 0.139800 0.038700 0.142500
v 0.197100 0.115600 0.064400
v 0.084900 0.446400 -0.159200
v 0.197900 0.368400 -0.109600
v 0.279000 0.420200 -0.145600
v 0.259000 0.074100 0.004600
v 0.341900 0.412300 -0.199500
v 0.135900 0.315800 -0.365900
v 0.296700 0.333300 -0.051400
v 0.197900 0.368400 -0.109600
v 0.318800 0.249600 -0.129800
v 0.279000 0.420200 -0.145600
v 0.225600 0.224800 0.002700
v 0.382900 0.236500 0.012400
v 0.106200 0.120100 -0.013300
v 0.108800 0.121900 0.051900
v 0.225600 0.224800 0.002700
v 0.197100 0.115600 0.064400
v 0.416600 0.243300 -0.142900
v 0.225600 0.224800 0.002700
v 0.382900 0.236500 0.012400
v 0.296700 0.333300 -0.051400
v 0.414900 0.357500 -0.092800
v 0.279000 0.420200 -0.145600
v 0.296700 0.333300 -0.051400
v 0.414900 0.357500 -0.092800
v 0.296700 0.333300 -0.051400
v 0.382900 0.236500 0.012400
v 0.414900 0.357500 -0.092800
v 0.341900 0.412300 -0.199500
v 0.119600 0.434600 -0.276700
v 0.279000 0.420200 -0.145600
v 0.084900 0.446400 -0.159200
vt 0.006500 -0.003800
vt 0.006500 -0.003800
vt 0.006500 -0.003800
vt 0.006500 -0.003800
vt 0.006500 -0.003800
vt 0.006500 -0.003800
vt 0.006500 -0.003800
vt 0.006500 -0.003800
vt 0.006500 -0.003800
vt 0.006500 -0.003800
vt 0.006500 -0.003800
vt 0.006500 -0.003800
vt 0.006500 -0.003800
vt 0.006500 -0.003800
vt -1.092400 -0.454000
vt -1.137600 -1.858600
vt 0.004800 -0.594400
vt 0.006500 -0.003800
vt 0.006500 -0.003800
vt 0.006500 -0.003800
vt 0.006500 -0.003800
vt 0.006500 -0.003800
vt 0.006500 -0.003800
vt -3.186100 4.598400
vt -1.700500 2.785800
vt -2.857500 3.096200
vt -1.934400 2.020700
vt -0.872500 0.513700
vt -0.925300 2.569000
vt 0.006500 -0.003800
vt 0.104400 2.980900
vt -1.079900 1.517400
vt 0.165000 1.588600
vt 0.006500 -0.003800
vt 0.006500 -0.003800
vt 0.006500 -0.003800
vt 0.006500 -0.003800
vt 0.006500 -0.003800
vt 0.006500 -0.003800
vt 0.006500 -0.003800
vt 0.006500 -0.003800
vt 0.006500 -0.003800
vt 2.061100 -0.193900
vt 2.001300 1.245100
vt 0.623800 1.075500
vt 0.006500 -0.003800
vt 0.006500 -0.003800
vt 0.006500 -0.003800
vt 0.006500 -0.003800
vt -2.134200 -1.994300
vt -0.992300 -3.086600
vt -0.979800 -1.680800
vt 0.006500 -0.003800
vt 0.006500 -0.003800
vt 0.006500 -0.003800
vt 0.006500 -0.003800
vt 1.771800 2.342000
vt 1.430700 1.067400
vt 3.468800 0.952300
vt 0.429800 0.906900
vt 1.489400 1.841500
vt 0.436500 2.435300
vt 0.006500 -0.003800
vt 0.006500 -0.003800
vt 0.006500 -0.003800
vt 0.273500 -0.899900
vt -1.201400 -2.469900
vt -0.109300 -2.508400
vt -2.153700 0.204100
vt -3.485600 0.051000
vt -1.905500 -0.565300
vt 0.418900 -1.249300
vt -0.888100 -0.914300
vt -0.425500 -2.230200
vt 0.006500 -0.003800
vt 0.006500 -0.003800
vt 0.006500 -0.003800
vt 0.006500 -0.003800
vt 0.006500 -0.003800
vt 0.006500 -0.003800
vt 0.006500 -0.003800
vt 0.006500 -0.003800
vt 0.006500 -0.003800
vt 0.006500 -0.003800
vt 0.006500 -0.003800
vt 0.006500 -0.003800
vt 0.006500 -0.003800
vt 0.006500 -0.003800
vt 0.006500 -0.003800
vt 0.006500 -0.003800
vt 0.006500 -0.003800
vt 0.879700 -1.823200
vt 1.672100 -0.804800
vt 0.915900 -0.141100
vt 0.006500 -0.003800
vt 0.006500 -0.003800
vt 0.006500 -0.003800
vt -2.619100 -1.270400
vt -3.744200 -0.024200
vt -3.363100 -1.458500
vt 0.006500 -0.003800
vt 0.006500 -0.003800
vt 0.006500 -0.003800
vt 0.006500 -0.003800
vt 0.006500 -0.003800
vt -3.300700 -0.970700
vt -2.003100 -1.737000
vt -1.433000 -0.878000
vt 0.006500 -0.003800
vt 0.006500 -0.003800
vt 0.006500 -0.003800
vt 0.006500 -0.003800
vt 0.006500 -0.003800
vt 0.006500 -0.003800
vt 0.006500 -0.003800
vt 0.006500 -0.003800
vt 0.006500 -0.003800
vt -1.508600 0.359700
vt -1.662800 -0.051000
vt -0.729700 1.087300
vt -0.492000 0.045200
vt 0.006500 -0.003800
vt -3.513100 0.734900
vt -2.875400 0.338400
vt -2.875900 2.334900
vt -1.115400 1.244000
vt -1.911200 1.751000
vt -2.277100 -0.051000
vt 0.006500 -0.003800
vt -1.656600 0.548400
vt -2.642800 2.164600
vt -2.555300 0.369800
vt -2.987000 0.358200
vt -4.111900 -0.014500
vt -3.012800 -0.441200
vt -4.111800 -0.493400
vn -0.397460 0.688019 0.607170
vn -0.853643 0.514257 -0.082664
vn -0.386290 -0.803058 0.453738
vn -0.394694 -0.331131 -0.857070
vn 0.022621 -0.580599 -0.813876
vn -0.497979 0.635206 -0.590365
vn 0.176882 -0.026731 0.983869
vn 0.172652 -0.920605 -0.350254
vn 0.085018 0.092926 0.992037
vn -0.136621 -0.987794 0.074824
vn -0.346336 -0.552866 -0.757885
vn -0.955149 -0.295603 0.017576
vn -0.903722 -0.045534 -0.425691
vn 0.104187 -0.849992 -0.516390
vn -0.672855 0.444430 0.591395
vn -0.672855 0.444430 0.591395
vn -0.672855 0.444430 0.591395
vn -0.631656 -0.684025 -0.364857
vn -0.487101 0.361039 -0.795225
vn -0.272393 0.954968 -0.117635
vn 0.124092 0.839158 -0.529543
vn 0.216424 0.975457 -0.040556
vn -0.372321 0.256189 0.892045
vn -0.672067 0.382021 0.634339
vn -0.672067 0.382021 0.634339
vn -0.672067 0.382021 0.634339
vn 0.116714 0.604902 0.787700
vn 0.116714 0.604902 0.787700
vn 0.116714 0.604902 0.787700
vn 0.974246 -0.071037 -0.214007
vn 0.175035 0.011669 0.984493
vn 0.175035 0.011669 0.984493
vn 0.175035 0.011669 0.984493
vn -0.269215 -0.173189 -0.947380
vn 0.663492 -0.075379 -0.744376
vn 0.669942 -0.325291 0.667356
vn -0.040766 -0.807061 -0.589059
vn -0.324443 0.935899 -0.137220
vn -0.606433 -0.164807 -0.777867
vn -0.366945 -0.205640 0.907229
vn 0.569325 0.809294 -0.144612
vn -0.767503 -0.531899 0.357802
vn 0.089528 0.702928 0.705604
vn 0.089528 0.702928 0.705604
vn 0.089528 0.702928 0.705604
vn 0.372496 0.193744 -0.907584
vn 0.348681 -0.701924 0.621067
vn -0.291648 0.870715 -0.395976
vn -0.972292 -0.177349 0.152303
vn 0.206621 0.849164 0.486033
vn 0.206621 0.849164 0.486033
vn 0.206621 0.849164 0.486033
vn -0.593455 -0.800837 -0.080448
vn -0.770046 -0.245726 -0.588768
vn -0.339158 -0.785701 -0.517345
vn 0.405821 -0.375292 0.833346
vn 0.479943 0.602315 0.637864
vn 0.479943 0.602315 0.637864
vn 0.479943 0.602315 0.637864
vn 0.157327 0.643923 0.748740
vn 0.157327 0.643923 0.748740
vn 0.157327 0.643923 0.748740
vn 0.099740 -0.073690 -0.992281
vn -0.096329 0.409160 0.907364
vn -0.003726 -0.924894 0.380206
vn -0.087265 0.779120 0.620771
vn -0.087265 0.779120 0.620771
vn -0.087265 0.779120 0.620771
vn -0.445186 0.284715 0.848968
vn -0.445186 0.284715 0.848968
vn -0.445186 0.284715 0.848968
vn -0.099597 0.861801 0.497372
vn -0.099597 0.861801 0.497372
vn -0.099597 0.861801 0.497372
vn 0.198078 -0.944871 -0.260737
vn -0.774770 0.383907 0.502342
vn 0.952268 0.287656 -0.102170
vn 0.361708 -0.480177 -0.799123
vn 0.728698 0.185603 0.659204
vn 0.258767 -0.926021 -0.274819
vn 0.598949 0.559953 -0.572462
vn -0.161204 -0.241856 0.956827
vn -0.384562 0.846842 0.367384
vn -0.950812 -0.253539 -0.177976
vn -0.663255 0.261138 0.701355
vn 0.953471 -0.274530 0.124602
vn 0.391198 -0.807847 0.440849
vn -0.757707 0.283206 0.587940
vn 0.006597 -0.854858 -0.518820
vn -0.576424 -0.817139 -0.004442
vn 0.737965 -0.584996 -0.336433
vn -0.063545 0.986622 0.150131
vn -0.063545 0.986622 0.150131
vn -0.063545 0.986622 0.150131
vn 0.945284 0.023311 -0.325415
vn 0.967263 0.234467 0.097094
vn -0.325046 -0.251633 0.911606
vn -0.153915 0.361724 0.919492
vn -0.153915 0.361724 0.919492
vn -0.153915 0.361724 0.919492
vn 0.527208 0.680272 0.509197
vn 0.590773 0.456775 0.665089
vn 0.946055 -0.260192 -0.193083
vn 0.164109 -0.959917 0.227216
vn 0.200253 -0.126061 0.971600
vn 0.016324 0.553257 0.832851
vn 0.016324 0.553257 0.832851
vn 0.016324 0.553257 0.832851
vn 0.043930 -0.766452 -0.640798
vn 0.612369 0.350634 -0.708562
vn 0.194163 -0.746260 -0.636708
vn -0.904816 -0.419108 0.075205
vn -0.095466 -0.845660 0.525115
vn -0.688046 -0.690850 -0.222078
vn 0.093397 0.864024 0.494712
vn -0.324611 0.380690 -0.865854
vn 0.751799 -0.277947 0.597949
vn -0.659718 0.751493 0.005561
vn -0.420630 0.733032 0.534542
vn -0.420630 0.733032 0.534542
vn -0.085262 0.506909 0.857772
vn 0.715464 -0.448740 -0.535485
vn -0.089954 0.491000 0.866503
vn -0.089954 0.491000 0.866503
vn -0.089954 0.491000 0.866503
vn 0.082207 0.740176 0.667369
vn 0.082207 0.740176 0.667369
vn 0.082207 0.740176 0.667369
vn 0.941711 0.334188 -0.038717
vn 0.139360 0.628469 0.765249
vn 0.139360 0.628469 0.765249
vn 0.139360 0.628469 0.765249
vn 0.106965 0.994044 -0.020869
vn 0.124803 0.991255 -0.042864
vn 0.124803 0.991255 -0.042864
vn 0.137574 0.988752 -0.058668
f 16/16/16 17/17/17 15/15/15 
f 7/7/7 9/9/9 7/7/7 
f 10/10/10 9/9/9 7/7/7 
f 10/10/10 47/47/47 9/9/9 
f 47/47/47 56/56/56 79/79/79 
f 10/10/10 56/56/56 47/47/47 
f 10/10/10 53/53/53 56/56/56 
f 39/39/39 53/53/53 10/10/10 
f 39/39/39 49/49/49 53/53/53 
f 7/7/7 6/6/6 7/7/7 
f 9/9/9 6/6/6 7/7/7 
f 9/9/9 6/6/6 6/6/6 
f 38/38/38 6/6/6 9/9/9 
f 38/38/38 39/39/39 6/6/6 
f 48/48/48 39/39/39 38/38/38 
f 48/48/48 49/49/49 39/39/39 
f 48/48/48 49/49/49 48/48/48 
f 48/48/48 77/77/77 49/49/49 
f 79/79/79 77/77/77 48/48/48 
f 79/79/79 86/86/86 77/77/77 
f 56/56/56 86/86/86 79/79/79 
f 56/56/56 76/76/76 86/86/86 
f 56/56/56 76/76/76 56/56/56 
f 53/53/53 76/76/76 56/56/56 
f 53/53/53 76/76/76 76/76/76 
f 80/80/80 76/76/76 53/53/53 
f 80/80/80 76/76/76 76/76/76 
f 84/84/84 76/76/76 80/80/80 
f 84/84/84 76/76/76 76/76/76 
f 85/85/85 76/76/76 84/84/84 
f 85/85/85 76/76/76 76/76/76 
f 101/101/101 76/76/76 85/85/85 
f 101/101/101 96/96/96 76/76/76 
f 86/86/86 80/80/80 86/86/86 
f 96/96/96 80/80/80 86/86/86 
f 96/96/96 95/95/95 80/80/80 
f 101/101/101 95/95/95 96/96/96 
f 101/101/101 102/102/102 95/95/95 
f 85/85/85 102/102/102 101/101/101 
f 85/85/85 88/88/88 102/102/102 
f 84/84/84 88/88/88 85/85/85 
f 84/84/84 90/90/90 88/88/88 
f 89/89/89 90/90/90 84/84/84 
f 89/89/89 104/104/104 90/90/90 
f 89/89/89 104/104/104 89/89/89 
f 103/103/103 104/104/104 89/89/89 
f 103/103/103 102/102/102 104/104/104 
f 103/103/103 102/102/102 103/103/103 
f 103/103/103 95/95/95 102/102/102 
f 89/89/89 95/95/95 103/103/103 
f 89/89/89 84/84/84 95/95/95 
f 97/97/97 88/88/88 90/90/90 
f 97/97/97 88/88/88 97/97/97 
f 97/97/97 102/102/102 88/88/88 
f 97/97/97 102/102/102 97/97/97 
f 97/97/97 104/104/104 102/102/102 
f 90/90/90 104/104/104 97/97/97 
f 3/3/3 2/2/2 4/4/4 
f 7/7/7 8/8/8 10/10/10 
f 3/3/3 8/8/8 7/7/7 
f 3/3/3 5/5/5 8/8/8 
f 4/4/4 5/5/5 3/3/3 
f 4/4/4 6/6/6 5/5/5 
f 2/2/2 6/6/6 4/4/4 
f 2/2/2 1/1/1 6/6/6 
f 3/3/3 1/1/1 2/2/2 
f 3/3/3 1/1/1 1/1/1 
f 7/7/7 1/1/1 3/3/3 
f 7/7/7 6/6/6 1/1/1 
f 39/39/39 6/6/6 39/39/39 
f 10/10/10 6/6/6 39/39/39 
f 10/10/10 6/6/6 6/6/6 
f 8/8/8 6/6/6 10/10/10 
f 8/8/8 5/5/5 6/6/6 
f 134/134/134 135/135/135 133/133/133 
f 136/136/136 135/135/135 134/134/134 
f 131/131/131 132/132/132 130/130/130 
f 41/41/41 22/22/22 41/41/41 
f 21/21/21 22/22/22 41/41/41 
f 21/21/21 20/20/20 22/22/22 
f 19/19/19 20/20/20 21/21/21 
f 19/19/19 13/13/13 20/20/20 
f 22/22/22 20/20/20 36/36/36 
f 110/110/110 111/111/111 41/41/41 
f 23/23/23 18/18/18 37/37/37 
f 12/12/12 18/18/18 23/23/23 
f 12/12/12 11/11/11 18/18/18 
f 13/13/13 11/11/11 12/12/12 
f 13/13/13 14/14/14 11/11/11 
f 19/19/19 14/14/14 13/13/13 
f 19/19/19 34/34/34 14/14/14 
f 21/21/21 34/34/34 19/19/19 
f 21/21/21 81/81/81 34/34/34 
f 41/41/41 81/81/81 21/21/21 
f 34/34/34 42/42/42 14/14/14 
f 35/35/35 23/23/23 46/46/46 
f 35/35/35 23/23/23 35/35/35 
f 35/35/35 30/30/30 23/23/23 
f 11/11/11 30/30/30 35/35/35 
f 11/11/11 30/30/30 30/30/30 
f 14/14/14 30/30/30 11/11/11 
f 14/14/14 36/36/36 30/30/30 
f 42/42/42 36/36/36 14/14/14 
f 42/42/42 41/41/41 36/36/36 
f 83/83/83 41/41/41 42/42/42 
f 18/18/18 35/35/35 37/37/37 
f 11/11/11 35/35/35 18/18/18 
f 110/110/110 111/111/111 110/110/110 
f 122/122/122 111/111/111 110/110/110 
f 122/122/122 111/111/111 111/111/111 
f 114/114/114 111/111/111 122/122/122 
f 114/114/114 112/112/112 111/111/111 
f 109/109/109 112/112/112 114/114/114 
f 109/109/109 116/116/116 112/112/112 
f 109/109/109 116/116/116 109/109/109 
f 109/109/109 63/63/63 116/116/116 
f 65/65/65 63/63/63 109/109/109 
f 65/65/65 63/63/63 63/63/63 
f 37/37/37 63/63/63 65/65/65 
f 37/37/37 46/46/46 63/63/63 
f 35/35/35 46/46/46 37/37/37 
f 122/122/122 109/109/109 114/114/114 
f 115/115/115 110/110/110 115/115/115 
f 129/129/129 110/110/110 115/115/115 
f 129/129/129 122/122/122 110/110/110 
f 117/117/117 122/122/122 129/129/129 
f 117/117/117 109/109/109 122/122/122 
f 105/105/105 109/109/109 117/117/117 
f 105/105/105 65/65/65 109/109/109 
f 64/64/64 65/65/65 105/105/105 
f 64/64/64 65/65/65 65/65/65 
f 40/40/40 65/65/65 64/64/64 
f 40/40/40 37/37/37 65/65/65 
f 23/23/23 37/37/37 40/40/40 
f 64/64/64 63/63/63 40/40/40 
f 116/116/116 105/105/105 117/117/117 
f 41/41/41 81/81/81 41/41/41 
f 78/78/78 81/81/81 41/41/41 
f 78/78/78 34/34/34 81/81/81 
f 54/54/54 34/34/34 78/78/78 
f 54/54/54 42/42/42 34/34/34 
f 54/54/54 42/42/42 54/54/54 
f 54/54/54 49/49/49 42/42/42 
f 55/55/55 49/49/49 54/54/54 
f 55/55/55 53/53/53 49/49/49 
f 75/75/75 53/53/53 55/55/55 
f 75/75/75 80/80/80 53/53/53 
f 86/86/86 80/80/80 75/75/75 
f 78/78/78 55/55/55 54/54/54 
f 91/91/91 55/55/55 78/78/78 
f 91/91/91 75/75/75 55/55/55 
f 91/91/91 75/75/75 91/91/91 
f 91/91/91 86/86/86 75/75/75 
f 91/91/91 86/86/86 91/91/91 
f 91/91/91 77/77/77 86/86/86 
f 78/78/78 77/77/77 91/91/91 
f 49/49/49 82/82/82 83/83/83 
f 87/87/87 82/82/82 49/49/49 
f 87/87/87 113/113/113 82/82/82 
f 111/111/111 113/113/113 87/87/87 
f 111/111/111 113/113/113 113/113/113 
f 112/112/112 113/113/113 111/111/111 
f 112/112/112 115/115/115 113/113/113 
f 25/25/25 26/26/26 24/24/24 
f 127/127/127 128/128/128 126/126/126 
f 28/28/28 29/29/29 27/27/27 
f 124/124/124 125/125/125 123/123/123 
f 32/32/32 33/33/33 31/31/31 
f 119/119/119 120/120/120 118/118/118 
f 121/121/121 120/120/120 119/119/119 
f 107/107/107 108/108/108 106/106/106 
f 44/44/44 45/45/45 43/43/43 
f 99/99/99 100/100/100 98/98/98 
f 51/51/51 52/52/52 50/50/50 
f 93/93/93 94/94/94 92/92/92 
f 58/58/58 59/59/59 57/57/57 
f 73/73/73 74/74/74 72/72/72 
f 61/61/61 62/62/62 60/60/60 
f 70/70/70 71/71/71 69/69/69 
f 67/67/67 68/68/68 66/66/66 
