v -1.570000 0.000000 -0.043300
v -1.645000 0.000000 0.000000
v -1.570000 0.647300 -0.043300
v -1.645000 0.647300 0.000000
v -1.570000 0.000000 0.043300
v -1.570000 0.647300 0.043300
v -1.140800 0.000000 1.079500
v -1.163200 0.000000 1.163200
v -1.140800 0.647300 1.079500
v -1.163200 0.647300 1.163200
v -1.140800 0.018000 -1.079500
v -1.140800 0.644300 -1.079500
v -1.163200 0.020100 -1.163200
v -1.163200 0.646300 -1.163200
v -1.079500 0.000000 1.140800
v -1.079500 0.647300 1.140800
v -1.079500 0.017400 -1.140800
v -1.079500 0.643600 -1.140800
v 0.000000 0.000000 -1.645000
v -0.043300 0.000000 -1.570000
v 0.000000 0.647300 -1.645000
v -0.043300 0.647300 -1.570000
v -0.043300 0.000000 1.570000
v 0.000000 0.000000 1.645000
v -0.043300 0.647300 1.570000
v 0.000000 0.647300 1.645000
v 0.043300 0.000000 -1.570000
v 0.043300 0.647300 -1.570000
v 0.043300 0.000000 1.570000
v 0.043300 0.647300 1.570000
v 1.079500 0.000000 -1.140800
v 1.140800 0.000000 -1.079500
v 1.079500 0.647300 -1.140800
v 1.140800 0.647300 -1.079500
v 1.140800 0.000000 1.079500
v 1.079500 0.000000 1.140800
v 1.140800 0.647300 1.079500
v 1.079500 0.647300 1.140800
v 1.163200 0.000000 -1.163200
v 1.163200 0.647300 -1.163200
v 1.163200 0.000000 1.163200
v 1.163200 0.647300 1.163200
v 1.570000 0.000000 -0.043300
v 1.570000 0.000000 0.043300
v 1.570000 0.647300 -0.043300
v 1.570000 0.647300 0.043300
v 1.645000 0.000000 0.000000
v 1.645000 0.647300 0.000000
v -1.533000 0.681900 -0.885100
v -1.770200 0.681900 0.000000
v -1.082500 0.681900 -0.624900
v -1.207400 0.681900 -0.323500
v -1.249900 0.681900 0.000000
v -1.533000 0.681900 0.885100
v -1.207400 0.681900 0.323500
v -1.082500 0.681900 0.624900
v -1.533000 0.549600 -0.885100
v -1.770200 0.549600 0.000000
v -1.533000 0.681900 -0.885100
v -1.770200 0.681900 0.000000
v -1.533000 0.549600 0.885100
v -1.533000 0.681900 0.885100
v -0.885100 0.681900 -1.533000
v -1.533000 0.681900 -0.885100
v -0.624900 0.681900 -1.082500
v -0.883800 0.681900 -0.883800
v -1.082500 0.681900 -0.624900
v -1.533000 0.681900 0.885100
v -0.885100 0.681900 1.533000
v -1.082500 0.681900 0.624900
v -0.883800 0.681900 0.883800
v -0.624900 0.681900 1.082500
v -0.885100 0.549600 -1.533000
v -1.533000 0.549600 -0.885100
v -0.885100 0.681900 -1.533000
v -1.533000 0.681900 -0.885100
v -1.533000 0.549600 0.885100
v -0.885100 0.549600 1.533000
v -1.533000 0.681900 0.885100
v -0.885100 0.681900 1.533000
v -1.249900 0.681900 0.000000
v -1.207400 0.681900 0.323500
v 0.000000 0.681900 0.000000
v -1.082500 0.681900 0.624900
v -1.082500 0.681900 -0.624900
v -1.207400 0.681900 -0.323500
v -0.624900 0.681900 -1.082500
v -0.883800 0.681900 -0.883800
v -0.883800 0.681900 0.883800
v -0.624900 0.681900 1.082500
v 0.000000 0.681900 -1.770200
v 0.000000 0.681900 -1.249900
v -0.323500 0.681900 -1.207400
v 0.000000 0.681900 1.770200
v -0.323500 0.681900 1.207400
v 0.000000 0.681900 1.249900
v 0.000000 0.549600 -1.770200
v 0.000000 0.681900 -1.770200
v 0.000000 0.549600 1.770200
v 0.000000 0.681900 1.770200
v 0.000000 0.681900 -1.249900
v -0.323500 0.681900 -1.207400
v -0.323500 0.681900 1.207400
v 0.000000 0.681900 1.249900
v 0.624900 0.681900 -1.082500
v 0.323500 0.681900 -1.207400
v 0.323500 0.681900 1.207400
v 0.624900 0.681900 1.082500
v 0.885100 0.549600 -1.533000
v 0.000000 0.549600 -1.770200
v 0.885100 0.681900 -1.533000
v 0.000000 0.681900 -1.770200
v 0.000000 0.549600 1.770200
v 0.885100 0.549600 1.533000
v 0.000000 0.681900 1.770200
v 0.885100 0.681900 1.533000
v 0.885100 0.681900 -1.533000
v 0.000000 0.681900 -1.770200
v 0.624900 0.681900 -1.082500
v 0.323500 0.681900 -1.207400
v 0.000000 0.681900 -1.249900
v 0.000000 0.681900 1.770200
v 0.885100 0.681900 1.533000
v 0.000000 0.681900 1.249900
v 0.323500 0.681900 1.207400
v 0.624900 0.681900 1.082500
v 1.082500 0.681900 -0.624900
v 0.883800 0.681900 -0.883800
v 0.883800 0.681900 0.883800
v 1.082500 0.681900 0.624900
v 1.207400 0.681900 0.323500
v 1.249900 0.681900 0.000000
v 1.207400 0.681900 -0.323500
v 1.533000 0.549600 -0.885100
v 1.533000 0.681900 -0.885100
v 1.533000 0.549600 0.885100
v 1.533000 0.681900 0.885100
v 1.533000 0.681900 -0.885100
v 1.082500 0.681900 -0.624900
v 0.883800 0.681900 -0.883800
v 1.533000 0.681900 0.885100
v 0.883800 0.681900 0.883800
v 1.082500 0.681900 0.624900
v 1.770200 0.549600 0.000000
v 1.533000 0.549600 -0.885100
v 1.770200 0.681900 0.000000
v 1.533000 0.681900 -0.885100
v 1.533000 0.549600 0.885100
v 1.533000 0.681900 0.885100
v 1.770200 0.681900 0.000000
v 1.533000 0.681900 -0.885100
v 1.249900 0.681900 0.000000
v 1.207400 0.681900 -0.323500
v 1.082500 0.681900 -0.624900
v 1.533000 0.681900 0.885100
v 1.082500 0.681900 0.624900
v 1.207400 0.681900 0.323500
vt 0.070300 0.476500
vt 0.070300 0.476500
vt 0.070300 0.476500
vt 0.070300 0.476500
vt 0.070300 0.476500
vt 0.070300 0.476500
vt 0.085900 0.492100
vt 0.085900 0.492100
vt 0.085900 0.492100
vt 0.085900 0.492100
vt 0.085900 0.476500
vt 0.085900 0.476500
vt 0.085900 0.476500
vt 0.085900 0.476500
vt 0.085900 0.492100
vt 0.085900 0.492100
vt 0.085900 0.476500
vt 0.085900 0.476500
vt 0.070300 0.492100
vt 0.070300 0.492100
vt 0.070300 0.492100
vt 0.070300 0.492100
vt 0.070300 0.492100
vt 0.070300 0.492100
vt 0.070300 0.492100
vt 0.070300 0.492100
vt 0.070300 0.492100
vt 0.070300 0.492100
vt 0.070300 0.492100
vt 0.070300 0.492100
vt 0.085900 0.492100
vt 0.085900 0.492100
vt 0.085900 0.492100
vt 0.085900 0.492100
vt 0.085900 0.476500
vt 0.085900 0.476500
vt 0.085900 0.476500
vt 0.085900 0.476500
vt 0.085900 0.492100
vt 0.085900 0.492100
vt 0.085900 0.476500
vt 0.085900 0.476500
vt 0.070300 0.476500
vt 0.070300 0.476500
vt 0.070300 0.476500
vt 0.070300 0.476500
vt 0.070300 0.476500
vt 0.070300 0.476500
vt 0.039000 0.460900
vt 0.039000 0.460900
vt 0.039000 0.460900
vt 0.039000 0.460900
vt 0.039000 0.460900
vt 0.039000 0.460900
vt 0.039000 0.460900
vt 0.039000 0.460900
vt 0.054600 0.960900
vt 0.054600 0.960900
vt 0.054600 0.960900
vt 0.054600 0.960900
vt 0.054600 0.960900
vt 0.054600 0.960900
vt 0.054600 0.460900
vt 0.054600 0.460900
vt 0.054600 0.460900
vt 0.054600 0.460900
vt 0.054600 0.460900
vt 0.054600 0.460900
vt 0.054600 0.460900
vt 0.054600 0.460900
vt 0.054600 0.460900
vt 0.054600 0.460900
vt 0.039000 0.960900
vt 0.039000 0.960900
vt 0.039000 0.960900
vt 0.039000 0.960900
vt 0.039000 0.960900
vt 0.039000 0.960900
vt 0.039000 0.960900
vt 0.039000 0.960900
vt 0.070300 0.492100
vt 0.070300 0.492100
vt 0.070300 0.492100
vt 0.070300 0.492100
vt 0.070300 0.492100
vt 0.070300 0.492100
vt 0.070300 0.492100
vt 0.070300 0.492100
vt 0.070300 0.492100
vt 0.070300 0.492100
vt 0.054600 0.460900
vt 0.054600 0.460900
vt 0.054600 0.460900
vt 0.054600 0.460900
vt 0.054600 0.460900
vt 0.054600 0.460900
vt 0.039000 0.960900
vt 0.039000 0.960900
vt 0.039000 0.960900
vt 0.039000 0.960900
vt 0.070300 0.492100
vt 0.070300 0.492100
vt 0.070300 0.492100
vt 0.070300 0.492100
vt 0.070300 0.492100
vt 0.070300 0.492100
vt 0.070300 0.492100
vt 0.070300 0.492100
vt 0.054600 0.960900
vt 0.054600 0.960900
vt 0.054600 0.960900
vt 0.054600 0.960900
vt 0.054600 0.960900
vt 0.054600 0.960900
vt 0.054600 0.960900
vt 0.054600 0.960900
vt 0.039000 0.460900
vt 0.039000 0.460900
vt 0.039000 0.460900
vt 0.039000 0.460900
vt 0.039000 0.460900
vt 0.039000 0.460900
vt 0.039000 0.460900
vt 0.039000 0.460900
vt 0.039000 0.460900
vt 0.039000 0.460900
vt 0.070300 0.492100
vt 0.070300 0.492100
vt 0.070300 0.492100
vt 0.070300 0.492100
vt 0.070300 0.492100
vt 0.070300 0.492100
vt 0.070300 0.492100
vt 0.054600 0.960900
vt 0.054600 0.960900
vt 0.054600 0.960900
vt 0.054600 0.960900
vt 0.039000 0.460900
vt 0.039000 0.460900
vt 0.039000 0.460900
vt 0.039000 0.460900
vt 0.039000 0.460900
vt 0.039000 0.460900
vt 0.039000 0.960900
vt 0.039000 0.960900
vt 0.039000 0.960900
vt 0.039000 0.960900
vt 0.039000 0.960900
vt 0.039000 0.960900
vt 0.054600 0.460900
vt 0.054600 0.460900
vt 0.054600 0.460900
vt 0.054600 0.460900
vt 0.054600 0.460900
vt 0.054600 0.460900
vt 0.054600 0.460900
vt 0.054600 0.460900
vn 0.866019 0.000000 -0.500011
vn -0.866019 0.000000 -0.500011
vn 0.000000 0.000000 -1.000000
vn -0.866019 0.000000 0.500011
vn 0.000000 0.000000 1.000000
vn 0.866019 0.000000 0.500011
vn 0.259113 0.000000 -0.965847
vn -0.965847 0.000000 0.259113
vn -0.707107 0.000000 -0.707107
vn -0.259113 0.000000 0.965847
vn 0.259069 0.000000 0.965859
vn -0.707074 0.000000 0.707139
vn -0.707156 0.000000 -0.707058
vn -0.707107 0.000000 -0.707107
vn 0.707107 0.000000 0.707107
vn 0.965847 0.000000 -0.259113
vn 0.966005 0.000000 -0.258525
vn 0.966023 0.000000 -0.258458
vn 0.500011 0.000000 -0.866019
vn -1.000000 0.000000 0.000000
vn -0.500011 0.000000 -0.866019
vn -0.500011 0.000000 0.866019
vn -0.500011 0.000000 -0.866019
vn -0.500011 0.000000 0.866019
vn -1.000000 0.000000 0.000000
vn 0.500011 0.000000 0.866019
vn 0.500011 0.000000 0.866019
vn 1.000000 0.000000 0.000000
vn 1.000000 0.000000 0.000000
vn 0.500011 0.000000 -0.866019
vn -0.707107 0.000000 -0.707107
vn -0.259113 0.000000 0.965847
vn -0.965847 0.000000 0.259113
vn 0.707107 0.000000 0.707107
vn 0.707107 0.000000 -0.707107
vn -0.965847 0.000000 -0.259113
vn -0.259113 0.000000 -0.965847
vn -0.707107 0.000000 0.707107
vn 0.965847 0.000000 -0.259113
vn 0.259113 0.000000 -0.965847
vn 0.259113 0.000000 0.965847
vn 0.965847 0.000000 0.259113
vn 0.000000 0.000000 -1.000000
vn -0.866019 0.000000 0.500011
vn -0.866019 0.000000 -0.500011
vn 0.000000 0.000000 1.000000
vn 0.866019 0.000000 0.500011
vn 0.866019 0.000000 -0.500011
vn 0.000000 1.000000 0.000000
vn 0.000000 1.000000 0.000000
vn 0.000000 1.000000 0.000000
vn 0.000000 1.000000 0.000000
vn 0.000000 1.000000 0.000000
vn 0.000000 1.000000 0.000000
vn 0.000000 1.000000 0.000000
vn 0.000000 1.000000 0.000000
vn -0.965915 0.000000 -0.258858
vn -0.996034 0.000000 -0.088976
vn -0.965915 0.000000 -0.258858
vn -0.996034 0.000000 0.088976
vn -0.965915 0.000000 0.258858
vn -0.965915 0.000000 0.258858
vn 0.000000 1.000000 0.000000
vn 0.000000 1.000000 0.000000
vn 0.000000 1.000000 0.000000
vn 0.000000 1.000000 0.000000
vn 0.000000 1.000000 0.000000
vn 0.000000 1.000000 0.000000
vn 0.000000 1.000000 0.000000
vn 0.000000 1.000000 0.000000
vn 0.000000 1.000000 0.000000
vn 0.000000 1.000000 0.000000
vn -0.420991 0.000000 -0.907065
vn -0.707107 0.000000 -0.707107
vn -0.575065 0.000000 -0.818108
vn -0.707107 0.000000 -0.707107
vn -0.707107 0.000000 0.707107
vn -0.575065 0.000000 0.818108
vn -0.707107 0.000000 0.707107
vn -0.420991 0.000000 0.907065
vn 0.000000 1.000000 0.000000
vn 0.000000 1.000000 0.000000
vn 0.000000 1.000000 0.000000
vn 0.000000 1.000000 0.000000
vn 0.000000 1.000000 0.000000
vn 0.000000 1.000000 0.000000
vn 0.000000 1.000000 0.000000
vn 0.000000 1.000000 0.000000
vn 0.000000 1.000000 0.000000
vn 0.000000 1.000000 0.000000
vn 0.000000 1.000000 0.000000
vn 0.000000 1.000000 0.000000
vn 0.000000 1.000000 0.000000
vn 0.000000 1.000000 0.000000
vn 0.000000 1.000000 0.000000
vn 0.000000 1.000000 0.000000
vn -0.258858 0.000000 -0.965915
vn -0.258858 0.000000 -0.965915
vn -0.258858 0.000000 0.965915
vn -0.258858 0.000000 0.965915
vn 0.000000 1.000000 0.000000
vn 0.000000 1.000000 0.000000
vn 0.000000 1.000000 0.000000
vn 0.000000 1.000000 0.000000
vn 0.000000 1.000000 0.000000
vn 0.000000 1.000000 0.000000
vn 0.000000 1.000000 0.000000
vn 0.000000 1.000000 0.000000
vn 0.575065 0.000000 -0.818108
vn 0.258858 0.000000 -0.965915
vn 0.420991 0.000000 -0.907065
vn 0.258858 0.000000 -0.965915
vn 0.258858 0.000000 0.965915
vn 0.420991 0.000000 0.907065
vn 0.258858 0.000000 0.965915
vn 0.575065 0.000000 0.818108
vn 0.000000 1.000000 0.000000
vn 0.000000 1.000000 0.000000
vn 0.000000 1.000000 0.000000
vn 0.000000 1.000000 0.000000
vn 0.000000 1.000000 0.000000
vn 0.000000 1.000000 0.000000
vn 0.000000 1.000000 0.000000
vn 0.000000 1.000000 0.000000
vn 0.000000 1.000000 0.000000
vn 0.000000 1.000000 0.000000
vn 0.000000 1.000000 0.000000
vn 0.000000 1.000000 0.000000
vn 0.000000 1.000000 0.000000
vn 0.000000 1.000000 0.000000
vn 0.000000 1.000000 0.000000
vn 0.000000 1.000000 0.000000
vn 0.000000 1.000000 0.000000
vn 0.707107 0.000000 -0.707107
vn 0.707107 0.000000 -0.707107
vn 0.707107 0.000000 0.707107
vn 0.707107 0.000000 0.707107
vn 0.000000 1.000000 0.000000
vn 0.000000 1.000000 0.000000
vn 0.000000 1.000000 0.000000
vn 0.000000 1.000000 0.000000
vn 0.000000 1.000000 0.000000
vn 0.000000 1.000000 0.000000
vn 0.996034 0.000000 0.088976
vn 0.965915 0.000000 -0.258858
vn 0.996034 0.000000 -0.088976
vn 0.965915 0.000000 -0.258858
vn 0.965915 0.000000 0.258858
vn 0.965915 0.000000 0.258858
vn 0.000000 1.000000 0.000000
vn 0.000000 1.000000 0.000000
vn 0.000000 1.000000 0.000000
vn 0.000000 1.000000 0.000000
vn 0.000000 1.000000 0.000000
vn 0.000000 1.000000 0.000000
vn 0.000000 1.000000 0.000000
vn 0.000000 1.000000 0.000000
f 2/2/2 3/3/3 1/1/1 
f 2/2/2 3/3/3 2/2/2 
f 2/2/2 4/4/4 3/3/3 
f 5/5/5 4/4/4 2/2/2 
f 5/5/5 6/6/6 4/4/4 
f 1/1/1 6/6/6 5/5/5 
f 1/1/1 3/3/3 6/6/6 
f 8/8/8 9/9/9 7/7/7 
f 8/8/8 9/9/9 8/8/8 
f 8/8/8 10/10/10 9/9/9 
f 15/15/15 10/10/10 8/8/8 
f 15/15/15 16/16/16 10/10/10 
f 7/7/7 16/16/16 15/15/15 
f 7/7/7 9/9/9 16/16/16 
f 44/44/44 45/45/45 43/43/43 
f 44/44/44 45/45/45 44/44/44 
f 44/44/44 46/46/46 45/45/45 
f 47/47/47 46/46/46 44/44/44 
f 47/47/47 48/48/48 46/46/46 
f 43/43/43 48/48/48 47/47/47 
f 43/43/43 45/45/45 48/48/48 
f 12/12/12 13/13/13 11/11/11 
f 14/14/14 13/13/13 12/12/12 
f 14/14/14 13/13/13 13/13/13 
f 18/18/18 13/13/13 14/14/14 
f 18/18/18 17/17/17 13/13/13 
f 18/18/18 17/17/17 18/18/18 
f 18/18/18 11/11/11 17/17/17 
f 12/12/12 11/11/11 18/18/18 
f 20/20/20 21/21/21 19/19/19 
f 20/20/20 21/21/21 20/20/20 
f 20/20/20 22/22/22 21/21/21 
f 27/27/27 22/22/22 20/20/20 
f 27/27/27 28/28/28 22/22/22 
f 19/19/19 28/28/28 27/27/27 
f 19/19/19 21/21/21 28/28/28 
f 36/36/36 37/37/37 35/35/35 
f 36/36/36 37/37/37 36/36/36 
f 36/36/36 38/38/38 37/37/37 
f 41/41/41 38/38/38 36/36/36 
f 41/41/41 42/42/42 38/38/38 
f 35/35/35 42/42/42 41/41/41 
f 35/35/35 37/37/37 42/42/42 
f 24/24/24 25/25/25 23/23/23 
f 24/24/24 25/25/25 24/24/24 
f 24/24/24 26/26/26 25/25/25 
f 29/29/29 26/26/26 24/24/24 
f 29/29/29 30/30/30 26/26/26 
f 23/23/23 30/30/30 29/29/29 
f 23/23/23 25/25/25 30/30/30 
f 32/32/32 33/33/33 31/31/31 
f 32/32/32 33/33/33 32/32/32 
f 32/32/32 34/34/34 33/33/33 
f 39/39/39 34/34/34 32/32/32 
f 39/39/39 40/40/40 34/34/34 
f 31/31/31 40/40/40 39/39/39 
f 31/31/31 33/33/33 40/40/40 
f 76/76/76 74/74/74 76/76/76 
f 75/75/75 74/74/74 76/76/76 
f 75/75/75 73/73/73 74/74/74 
f 98/98/98 73/73/73 75/75/75 
f 98/98/98 97/97/97 73/73/73 
f 114/114/114 115/115/115 113/113/113 
f 114/114/114 115/115/115 114/114/114 
f 114/114/114 116/116/116 115/115/115 
f 136/136/136 116/116/116 114/114/114 
f 136/136/136 137/137/137 116/116/116 
f 147/147/147 145/145/145 147/147/147 
f 146/146/146 145/145/145 147/147/147 
f 146/146/146 144/144/144 145/145/145 
f 149/149/149 144/144/144 146/146/146 
f 149/149/149 148/148/148 144/144/144 
f 112/112/112 110/110/110 112/112/112 
f 111/111/111 110/110/110 112/112/112 
f 111/111/111 109/109/109 110/110/110 
f 135/135/135 109/109/109 111/111/111 
f 135/135/135 134/134/134 109/109/109 
f 67/67/67 64/64/64 67/67/67 
f 66/66/66 64/64/64 67/67/67 
f 66/66/66 64/64/64 64/64/64 
f 65/65/65 64/64/64 66/66/66 
f 65/65/65 63/63/63 64/64/64 
f 93/93/93 63/63/63 65/65/65 
f 93/93/93 63/63/63 63/63/63 
f 92/92/92 63/63/63 93/93/93 
f 92/92/92 91/91/91 63/63/63 
f 49/49/49 51/51/51 49/49/49 
f 50/50/50 51/51/51 49/49/49 
f 50/50/50 52/52/52 51/51/51 
f 50/50/50 52/52/52 50/50/50 
f 50/50/50 53/53/53 52/52/52 
f 54/54/54 53/53/53 50/50/50 
f 54/54/54 55/55/55 53/53/53 
f 56/56/56 55/55/55 54/54/54 
f 78/78/78 79/79/79 77/77/77 
f 78/78/78 79/79/79 78/78/78 
f 78/78/78 80/80/80 79/79/79 
f 99/99/99 80/80/80 78/78/78 
f 99/99/99 100/100/100 80/80/80 
f 88/88/88 83/83/83 87/87/87 
f 85/85/85 83/83/83 88/88/88 
f 85/85/85 83/83/83 83/83/83 
f 86/86/86 83/83/83 85/85/85 
f 86/86/86 83/83/83 83/83/83 
f 81/81/81 83/83/83 86/86/86 
f 81/81/81 83/83/83 83/83/83 
f 82/82/82 83/83/83 81/81/81 
f 82/82/82 83/83/83 83/83/83 
f 84/84/84 83/83/83 82/82/82 
f 84/84/84 83/83/83 83/83/83 
f 89/89/89 83/83/83 84/84/84 
f 89/89/89 83/83/83 83/83/83 
f 90/90/90 83/83/83 89/89/89 
f 90/90/90 83/83/83 83/83/83 
f 103/103/103 83/83/83 90/90/90 
f 103/103/103 83/83/83 83/83/83 
f 104/104/104 83/83/83 103/103/103 
f 104/104/104 83/83/83 104/104/104 
f 107/107/107 83/83/83 104/104/104 
f 107/107/107 83/83/83 83/83/83 
f 108/108/108 83/83/83 107/107/107 
f 108/108/108 83/83/83 83/83/83 
f 129/129/129 83/83/83 108/108/108 
f 129/129/129 83/83/83 83/83/83 
f 130/130/130 83/83/83 129/129/129 
f 130/130/130 83/83/83 83/83/83 
f 131/131/131 83/83/83 130/130/130 
f 131/131/131 83/83/83 83/83/83 
f 132/132/132 83/83/83 131/131/131 
f 132/132/132 83/83/83 83/83/83 
f 133/133/133 83/83/83 132/132/132 
f 133/133/133 83/83/83 83/83/83 
f 127/127/127 83/83/83 133/133/133 
f 127/127/127 83/83/83 83/83/83 
f 128/128/128 83/83/83 127/127/127 
f 128/128/128 83/83/83 83/83/83 
f 105/105/105 83/83/83 128/128/128 
f 105/105/105 83/83/83 105/105/105 
f 106/106/106 83/83/83 105/105/105 
f 106/106/106 83/83/83 83/83/83 
f 101/101/101 83/83/83 106/106/106 
f 101/101/101 83/83/83 83/83/83 
f 102/102/102 83/83/83 101/101/101 
f 102/102/102 87/87/87 83/83/83 
f 58/58/58 59/59/59 57/57/57 
f 58/58/58 59/59/59 58/58/58 
f 58/58/58 60/60/60 59/59/59 
f 61/61/61 60/60/60 58/58/58 
f 61/61/61 62/62/62 60/60/60 
f 69/69/69 70/70/70 68/68/68 
f 69/69/69 70/70/70 69/69/69 
f 69/69/69 71/71/71 70/70/70 
f 69/69/69 71/71/71 69/69/69 
f 69/69/69 72/72/72 71/71/71 
f 94/94/94 72/72/72 69/69/69 
f 94/94/94 95/95/95 72/72/72 
f 96/96/96 95/95/95 94/94/94 
f 123/123/123 124/124/124 122/122/122 
f 123/123/123 124/124/124 123/123/123 
f 123/123/123 125/125/125 124/124/124 
f 123/123/123 125/125/125 123/123/123 
f 123/123/123 126/126/126 125/125/125 
f 141/141/141 126/126/126 123/123/123 
f 141/141/141 142/142/142 126/126/126 
f 143/143/143 142/142/142 141/141/141 
f 120/120/120 118/118/118 121/121/121 
f 119/119/119 118/118/118 120/120/120 
f 119/119/119 117/117/117 118/118/118 
f 140/140/140 117/117/117 119/119/119 
f 140/140/140 117/117/117 117/117/117 
f 139/139/139 117/117/117 140/140/140 
f 139/139/139 138/138/138 117/117/117 
f 153/153/153 151/151/151 154/154/154 
f 152/152/152 151/151/151 153/153/153 
f 152/152/152 150/150/150 151/151/151 
f 157/157/157 150/150/150 152/152/152 
f 157/157/157 150/150/150 150/150/150 
f 156/156/156 150/150/150 157/157/157 
f 156/156/156 155/155/155 150/150/150 
