v 0.189000 1.477300 -0.550500
v -0.530900 1.477300 -0.550500
v 0.189000 1.174900 -0.550500
v -0.530900 1.174900 -0.550500
v -0.485300 1.503200 -0.550500
v 0.143500 1.503200 -0.550500
v -0.427800 1.527800 -0.550500
v 0.086000 1.527800 -0.550500
v -0.358600 1.546800 -0.550500
v 0.016700 1.546800 -0.550500
v -0.280300 1.562400 -0.550500
v -0.061500 1.562400 -0.550500
v -0.170900 1.570200 -0.550500
v -0.485300 1.503200 -0.550500
v 0.143500 1.503200 -0.550500
v -0.560400 0.000000 -0.181200
v -0.560400 0.331100 -0.181200
v -0.560400 0.000000 -0.550500
v -0.560400 0.331100 -0.550500
v -0.560400 0.331100 0.200200
v -0.560400 0.000000 0.200200
v -0.560400 0.818600 -0.181200
v -0.560400 0.818600 -0.550500
v -0.560400 0.818600 0.200200
v -0.560400 1.174900 -0.181200
v -0.560400 1.174900 -0.550500
v -0.560400 1.174900 0.200200
v -0.560400 1.174900 -0.550500
v -0.560400 1.174900 -0.181200
v -0.520600 1.164200 -0.516700
v -0.520600 1.164200 -0.181200
v -0.560400 1.174900 0.200200
v -0.520600 1.164200 0.157400
v -0.536300 1.112400 -0.550500
v -0.536300 1.174900 -0.550500
v -0.536300 1.112400 -0.584500
v -0.536300 1.174900 -0.584500
v -0.536300 1.477300 -0.584500
v -0.536300 1.477300 -0.550500
v -0.536300 1.477300 -0.550500
v -0.536300 1.174900 -0.550500
v -0.530900 1.477300 -0.550500
v -0.530900 1.174900 -0.550500
v -0.536300 1.477300 -0.550500
v -0.490000 1.503200 -0.550500
v -0.536300 1.477300 -0.584500
v -0.490000 1.503200 -0.584500
v -0.485300 1.503200 -0.550500
v -0.490000 1.503200 -0.550500
v -0.483700 1.164200 -0.209400
v -0.483700 1.164200 -0.153100
v -0.483700 1.134200 -0.209400
v -0.483700 1.134200 -0.153100
v -0.427800 1.527800 -0.550500
v -0.427800 1.527800 -0.584500
v -0.358600 1.546800 -0.550500
v -0.358600 1.546800 -0.584500
v -0.483700 1.164200 -0.209400
v -0.520600 1.164200 -0.516700
v -0.520600 1.164200 -0.181200
v -0.520600 1.164200 0.157400
v -0.483700 1.164200 -0.153100
v -0.427800 1.527800 -0.550500
v -0.490000 1.503200 -0.550500
v -0.485300 1.503200 -0.550500
v -0.280300 1.562400 -0.550500
v -0.280300 1.562400 -0.584500
v -0.170900 1.570200 -0.550500
v -0.170900 1.570200 -0.584500
v 0.218500 0.331100 -0.550500
v 0.218500 0.000000 -0.550500
v -0.560400 0.331100 -0.550500
v -0.560400 0.000000 -0.550500
v -0.560400 0.331100 0.200200
v -0.560400 0.000000 0.200200
v 0.218500 0.331100 0.200200
v 0.218500 0.000000 0.200200
v 0.218500 0.818600 -0.550500
v -0.560400 0.818600 -0.550500
v -0.560400 0.818600 0.200200
v 0.218500 0.818600 0.200200
v -0.560400 1.174900 -0.550500
v 0.218500 1.174900 -0.550500
v 0.218500 1.174900 0.200200
v -0.560400 1.174900 0.200200
v 0.194400 1.112400 -0.550500
v -0.536300 1.112400 -0.550500
v 0.194400 1.112400 -0.584500
v -0.536300 1.112400 -0.584500
v 0.194400 1.112400 -0.584500
v -0.536300 1.112400 -0.584500
v 0.194400 1.174900 -0.584500
v -0.536300 1.174900 -0.584500
v 0.194400 1.477300 -0.584500
v -0.536300 1.477300 -0.584500
v 0.218500 1.174900 -0.550500
v -0.560400 1.174900 -0.550500
v 0.178800 1.164200 -0.516700
v -0.520600 1.164200 -0.516700
v 0.218500 1.174900 0.200200
v 0.178800 1.164200 0.157400
v -0.560400 1.174900 0.200200
v -0.520600 1.164200 0.157400
v 0.148200 1.503200 -0.584500
v -0.490000 1.503200 -0.584500
v 0.086000 1.527800 -0.584500
v -0.427800 1.527800 -0.584500
v 0.016700 1.546800 -0.584500
v -0.358600 1.546800 -0.584500
v -0.061500 1.562400 -0.584500
v -0.280300 1.562400 -0.584500
v -0.170900 1.570200 -0.584500
v 0.178800 1.164200 -0.516700
v 0.141900 1.164200 -0.209400
v 0.178800 1.164200 0.157400
v 0.141900 1.164200 -0.153100
v -0.483700 1.134200 -0.209400
v -0.483700 1.134200 -0.153100
v 0.141900 1.134200 -0.209400
v 0.141900 1.134200 -0.153100
v -0.483700 1.134200 -0.209400
v 0.141900 1.134200 -0.209400
v -0.483700 1.164200 -0.209400
v 0.141900 1.164200 -0.209400
v -0.483700 1.134200 -0.153100
v -0.483700 1.164200 -0.153100
v 0.141900 1.134200 -0.153100
v 0.141900 1.164200 -0.153100
v -0.061500 1.562400 -0.550500
v -0.061500 1.562400 -0.584500
v 0.016700 1.546800 -0.550500
v 0.016700 1.546800 -0.584500
v 0.086000 1.527800 -0.550500
v 0.143500 1.503200 -0.550500
v 0.148200 1.503200 -0.550500
v 0.178800 1.164200 -0.181200
v 0.086000 1.527800 -0.550500
v 0.086000 1.527800 -0.584500
v 0.148200 1.503200 -0.550500
v 0.148200 1.503200 -0.584500
v 0.141900 1.164200 -0.153100
v 0.141900 1.164200 -0.209400
v 0.141900 1.134200 -0.153100
v 0.141900 1.134200 -0.209400
v 0.143500 1.503200 -0.550500
v 0.189000 1.477300 -0.550500
v 0.148200 1.503200 -0.550500
v 0.194400 1.477300 -0.550500
v 0.194400 1.477300 -0.550500
v 0.194400 1.477300 -0.584500
v 0.194400 1.174900 -0.550500
v 0.189000 1.174900 -0.550500
v 0.194400 1.112400 -0.550500
v 0.194400 1.112400 -0.584500
v 0.194400 1.174900 -0.550500
v 0.194400 1.174900 -0.584500
v 0.194400 1.477300 -0.584500
v 0.194400 1.477300 -0.550500
v 0.218500 1.174900 0.200200
v 0.218500 1.174900 -0.181200
v 0.178800 1.164200 0.157400
v 0.178800 1.164200 -0.181200
v 0.218500 1.174900 -0.550500
v 0.178800 1.164200 -0.516700
v 0.218500 0.331100 -0.550500
v 0.218500 0.331100 -0.181200
v 0.218500 0.000000 -0.550500
v 0.218500 0.000000 -0.181200
v 0.218500 0.000000 0.200200
v 0.218500 0.331100 0.200200
v 0.218500 0.818600 -0.550500
v 0.218500 0.818600 -0.181200
v 0.218500 0.818600 0.200200
v 0.218500 1.174900 -0.550500
v 0.218500 1.174900 -0.181200
v 0.218500 1.174900 0.200200
vt 1.038200 0.903900
vt -0.038200 0.903900
vt 1.038200 0.010500
vt -0.038200 0.010500
vt 0.029800 0.980600
vt 0.970100 0.980600
vt 0.351500 0.054600
vt 0.351500 0.054600
vt 0.351500 0.054600
vt 0.351500 0.054600
vt 0.351500 0.054600
vt 0.351500 0.054600
vt 0.351500 0.054600
vt 0.351500 0.054600
vt 0.351500 0.054600
vt 0.273400 0.664000
vt 0.273400 0.664000
vt 0.273400 0.664000
vt 0.273400 0.664000
vt 0.273400 0.664000
vt 0.273400 0.664000
vt 0.273400 0.664000
vt 0.273400 0.664000
vt 0.273400 0.664000
vt 0.273400 0.664000
vt 0.273400 0.664000
vt 0.273400 0.664000
vt 0.257800 0.679600
vt 0.257800 0.679600
vt 0.257800 0.679600
vt 0.257800 0.679600
vt 0.257800 0.679600
vt 0.257800 0.679600
vt 0.351500 0.039000
vt 0.351500 0.039000
vt 0.351500 0.039000
vt 0.351500 0.039000
vt 0.351500 0.039000
vt 0.351500 0.039000
vt 0.367100 0.054600
vt 0.367100 0.054600
vt 0.367100 0.054600
vt 0.367100 0.054600
vt 0.367100 0.039000
vt 0.367100 0.039000
vt 0.367100 0.039000
vt 0.367100 0.039000
vt 0.367100 0.054600
vt 0.367100 0.054600
vt 0.257800 0.164000
vt 0.257800 0.164000
vt 0.257800 0.164000
vt 0.257800 0.164000
vt 0.367100 0.039000
vt 0.367100 0.039000
vt 0.367100 0.039000
vt 0.367100 0.039000
vt 0.273400 0.164000
vt 0.273400 0.164000
vt 0.273400 0.164000
vt 0.273400 0.164000
vt 0.273400 0.164000
vt 0.351500 0.054600
vt 0.351500 0.054600
vt 0.351500 0.054600
vt 0.367100 0.039000
vt 0.367100 0.039000
vt 0.367100 0.039000
vt 0.367100 0.039000
vt 0.257800 0.179600
vt 0.257800 0.179600
vt 0.257800 0.179600
vt 0.257800 0.179600
vt 0.257800 0.664000
vt 0.257800 0.664000
vt 0.257800 0.664000
vt 0.257800 0.664000
vt 0.257800 0.179600
vt 0.257800 0.179600
vt 0.257800 0.664000
vt 0.257800 0.664000
vt 0.257800 0.179600
vt 0.257800 0.179600
vt 0.257800 0.664000
vt 0.257800 0.664000
vt 0.351500 0.039000
vt 0.351500 0.039000
vt 0.351500 0.039000
vt 0.351500 0.039000
vt 0.367100 0.054600
vt 0.367100 0.054600
vt 0.367100 0.054600
vt 0.367100 0.054600
vt 0.367100 0.054600
vt 0.367100 0.054600
vt 0.273400 0.679600
vt 0.273400 0.679600
vt 0.273400 0.679600
vt 0.273400 0.679600
vt 0.273400 0.679600
vt 0.273400 0.679600
vt 0.273400 0.679600
vt 0.273400 0.679600
vt 0.367100 0.054600
vt 0.367100 0.054600
vt 0.367100 0.054600
vt 0.367100 0.054600
vt 0.367100 0.054600
vt 0.367100 0.054600
vt 0.367100 0.054600
vt 0.367100 0.054600
vt 0.367100 0.054600
vt 0.273400 0.164000
vt 0.273400 0.164000
vt 0.273400 0.164000
vt 0.273400 0.164000
vt 0.007800 0.492100
vt 0.007800 0.492100
vt 0.007800 0.492100
vt 0.007800 0.492100
vt 0.273400 0.179600
vt 0.273400 0.179600
vt 0.273400 0.179600
vt 0.273400 0.179600
vt 0.273400 0.179600
vt 0.273400 0.179600
vt 0.273400 0.179600
vt 0.273400 0.179600
vt 0.367100 0.039000
vt 0.367100 0.039000
vt 0.367100 0.039000
vt 0.367100 0.039000
vt 0.351500 0.054600
vt 0.351500 0.054600
vt 0.351500 0.054600
vt 0.273400 0.164000
vt 0.367100 0.039000
vt 0.367100 0.039000
vt 0.367100 0.039000
vt 0.367100 0.039000
vt 0.257800 0.164000
vt 0.257800 0.164000
vt 0.257800 0.164000
vt 0.257800 0.164000
vt 0.367100 0.054600
vt 0.367100 0.054600
vt 0.367100 0.054600
vt 0.367100 0.054600
vt 0.367100 0.039000
vt 0.367100 0.039000
vt 0.367100 0.054600
vt 0.367100 0.054600
vt 0.351500 0.039000
vt 0.351500 0.039000
vt 0.351500 0.039000
vt 0.351500 0.039000
vt 0.351500 0.039000
vt 0.351500 0.039000
vt 0.257800 0.679600
vt 0.257800 0.679600
vt 0.257800 0.679600
vt 0.257800 0.679600
vt 0.257800 0.679600
vt 0.257800 0.679600
vt 0.273400 0.664000
vt 0.273400 0.664000
vt 0.273400 0.664000
vt 0.273400 0.664000
vt 0.273400 0.664000
vt 0.273400 0.664000
vt 0.273400 0.664000
vt 0.273400 0.664000
vt 0.273400 0.664000
vt 0.273400 0.664000
vt 0.273400 0.664000
vt 0.273400 0.664000
vn 0.000000 0.000000 1.000000
vn 0.000000 0.000000 1.000000
vn 0.000000 0.000000 1.000000
vn 0.000000 0.000000 1.000000
vn 0.000000 0.000000 1.000000
vn 0.000000 0.000000 1.000000
vn 0.000000 0.000000 1.000000
vn 0.000000 0.000000 1.000000
vn 0.000000 0.000000 1.000000
vn 0.000000 0.000000 1.000000
vn 0.000000 0.000000 1.000000
vn 0.000000 0.000000 1.000000
vn 0.000000 0.000000 1.000000
vn 0.000000 0.000000 1.000000
vn 0.000000 0.000000 1.000000
vn -1.000000 0.000000 0.000000
vn -1.000000 0.000000 0.000000
vn -1.000000 0.000000 0.000000
vn -1.000000 0.000000 0.000000
vn -1.000000 0.000000 0.000000
vn -1.000000 0.000000 0.000000
vn -1.000000 0.000000 0.000000
vn -1.000000 0.000000 0.000000
vn -1.000000 0.000000 0.000000
vn -1.000000 0.000000 0.000000
vn -1.000000 0.000000 0.000000
vn -1.000000 0.000000 0.000000
vn 0.259628 0.965709 0.000000
vn 0.259628 0.965709 0.000000
vn 0.259628 0.965709 0.000000
vn 0.259628 0.965709 0.000000
vn 0.259628 0.965709 0.000000
vn 0.259628 0.965709 0.000000
vn -1.000000 0.000000 0.000000
vn -1.000000 0.000000 0.000000
vn -1.000000 0.000000 0.000000
vn -1.000000 0.000000 0.000000
vn -1.000000 0.000000 0.000000
vn -1.000000 0.000000 0.000000
vn 0.000000 0.000000 1.000000
vn 0.000000 0.000000 1.000000
vn 0.000000 0.000000 1.000000
vn 0.000000 0.000000 1.000000
vn -0.488202 0.872731 0.000000
vn -0.442573 0.896733 0.000000
vn -0.488202 0.872731 0.000000
vn -0.402702 0.915331 0.000000
vn 0.000000 0.000000 1.000000
vn 0.000000 0.000000 1.000000
vn 1.000000 0.000000 0.000000
vn 1.000000 0.000000 0.000000
vn 1.000000 0.000000 0.000000
vn 1.000000 0.000000 0.000000
vn -0.332259 0.943188 0.000000
vn -0.297896 0.954598 0.000000
vn -0.240111 0.970745 0.000000
vn -0.217022 0.976167 0.000000
vn 0.000000 1.000000 0.000000
vn 0.000000 1.000000 0.000000
vn 0.000000 1.000000 0.000000
vn 0.000000 1.000000 0.000000
vn 0.000000 1.000000 0.000000
vn 0.000000 0.000000 1.000000
vn 0.000000 0.000000 1.000000
vn 0.000000 0.000000 1.000000
vn -0.145065 0.989422 0.000000
vn -0.104441 0.994531 0.000000
vn 0.000000 1.000000 0.000000
vn 0.000000 1.000000 0.000000
vn 0.000000 0.000000 -1.000000
vn 0.000000 0.000000 -1.000000
vn 0.000000 0.000000 -1.000000
vn 0.000000 0.000000 -1.000000
vn 0.000000 0.000000 1.000000
vn 0.000000 0.000000 1.000000
vn 0.000000 0.000000 1.000000
vn 0.000000 0.000000 1.000000
vn 0.000000 0.000000 -1.000000
vn 0.000000 0.000000 -1.000000
vn 0.000000 0.000000 1.000000
vn 0.000000 0.000000 1.000000
vn 0.000000 0.000000 -1.000000
vn 0.000000 0.000000 -1.000000
vn 0.000000 0.000000 1.000000
vn 0.000000 0.000000 1.000000
vn 0.000000 -1.000000 0.000000
vn 0.000000 -1.000000 0.000000
vn 0.000000 -1.000000 0.000000
vn 0.000000 -1.000000 0.000000
vn 0.000000 0.000000 -1.000000
vn 0.000000 0.000000 -1.000000
vn 0.000000 0.000000 -1.000000
vn 0.000000 0.000000 -1.000000
vn 0.000000 0.000000 -1.000000
vn 0.000000 0.000000 -1.000000
vn 0.000000 0.953368 0.301809
vn 0.000000 0.953368 0.301809
vn 0.000000 0.953368 0.301809
vn 0.000000 0.953368 0.301809
vn 0.000000 0.970142 -0.242538
vn 0.000000 0.970142 -0.242538
vn 0.000000 0.970142 -0.242538
vn 0.000000 0.970142 -0.242538
vn 0.000000 0.000000 -1.000000
vn 0.000000 0.000000 -1.000000
vn 0.000000 0.000000 -1.000000
vn 0.000000 0.000000 -1.000000
vn 0.000000 0.000000 -1.000000
vn 0.000000 0.000000 -1.000000
vn 0.000000 0.000000 -1.000000
vn 0.000000 0.000000 -1.000000
vn 0.000000 0.000000 -1.000000
vn 0.000000 1.000000 0.000000
vn 0.000000 1.000000 0.000000
vn 0.000000 1.000000 0.000000
vn 0.000000 1.000000 0.000000
vn 0.000000 1.000000 0.000000
vn 0.000000 1.000000 0.000000
vn 0.000000 1.000000 0.000000
vn 0.000000 1.000000 0.000000
vn 0.000000 0.000000 1.000000
vn 0.000000 0.000000 1.000000
vn 0.000000 0.000000 1.000000
vn 0.000000 0.000000 1.000000
vn 0.000000 0.000000 -1.000000
vn 0.000000 0.000000 -1.000000
vn 0.000000 0.000000 -1.000000
vn 0.000000 0.000000 -1.000000
vn 0.145172 0.989406 0.000000
vn 0.104475 0.994528 0.000000
vn 0.240006 0.970771 0.000000
vn 0.217114 0.976146 0.000000
vn 0.000000 0.000000 1.000000
vn 0.000000 0.000000 1.000000
vn 0.000000 0.000000 1.000000
vn 0.000000 1.000000 0.000000
vn 0.332106 0.943242 0.000000
vn 0.297625 0.954683 0.000000
vn 0.443033 0.896505 0.000000
vn 0.402900 0.915244 0.000000
vn -1.000000 0.000000 0.000000
vn -1.000000 0.000000 0.000000
vn -1.000000 0.000000 0.000000
vn -1.000000 0.000000 0.000000
vn 0.000000 0.000000 1.000000
vn 0.000000 0.000000 1.000000
vn 0.000000 0.000000 1.000000
vn 0.000000 0.000000 1.000000
vn 0.489006 0.872280 0.000000
vn 0.489006 0.872280 0.000000
vn 0.000000 0.000000 1.000000
vn 0.000000 0.000000 1.000000
vn 1.000000 0.000000 0.000000
vn 1.000000 0.000000 0.000000
vn 1.000000 0.000000 0.000000
vn 1.000000 0.000000 0.000000
vn 1.000000 0.000000 0.000000
vn 1.000000 0.000000 0.000000
vn -0.260238 0.965545 0.000000
vn -0.260238 0.965545 0.000000
vn -0.260238 0.965545 0.000000
vn -0.260238 0.965545 0.000000
vn -0.260238 0.965545 0.000000
vn -0.260238 0.965545 0.000000
vn 1.000000 0.000000 0.000000
vn 1.000000 0.000000 0.000000
vn 1.000000 0.000000 0.000000
vn 1.000000 0.000000 0.000000
vn 1.000000 0.000000 0.000000
vn 1.000000 0.000000 0.000000
vn 1.000000 0.000000 0.000000
vn 1.000000 0.000000 0.000000
vn 1.000000 0.000000 0.000000
vn 1.000000 0.000000 0.000000
vn 1.000000 0.000000 0.000000
vn 1.000000 0.000000 0.000000
f 5/5/5 1/1/1 6/6/6 
f 2/2/2 1/1/1 5/5/5 
f 2/2/2 3/3/3 1/1/1 
f 4/4/4 3/3/3 2/2/2 
f 15/15/15 7/7/7 14/14/14 
f 8/8/8 7/7/7 15/15/15 
f 8/8/8 9/9/9 7/7/7 
f 10/10/10 9/9/9 8/8/8 
f 10/10/10 11/11/11 9/9/9 
f 12/12/12 11/11/11 10/10/10 
f 12/12/12 13/13/13 11/11/11 
f 64/64/64 65/65/65 63/63/63 
f 158/158/158 157/157/157 158/158/158 
f 155/155/155 157/157/157 158/158/158 
f 155/155/155 156/156/156 157/157/157 
f 155/155/155 156/156/156 155/155/155 
f 155/155/155 154/154/154 156/156/156 
f 153/153/153 154/154/154 155/155/155 
f 134/134/134 135/135/135 133/133/133 
f 43/43/43 41/41/41 43/43/43 
f 42/42/42 41/41/41 43/43/43 
f 42/42/42 40/40/40 41/41/41 
f 42/42/42 40/40/40 42/42/42 
f 42/42/42 49/49/49 40/40/40 
f 48/48/48 49/49/49 42/42/42 
f 175/175/175 171/171/171 174/174/174 
f 172/172/172 171/171/171 175/175/175 
f 172/172/172 165/165/165 171/171/171 
f 166/166/166 165/165/165 172/172/172 
f 166/166/166 167/167/167 165/165/165 
f 166/166/166 167/167/167 166/166/166 
f 166/166/166 168/168/168 167/167/167 
f 166/166/166 168/168/168 166/166/166 
f 166/166/166 169/169/169 168/168/168 
f 166/166/166 169/169/169 166/166/166 
f 166/166/166 170/170/170 169/169/169 
f 172/172/172 170/170/170 166/166/166 
f 172/172/172 173/173/173 170/170/170 
f 175/175/175 173/173/173 172/172/172 
f 175/175/175 176/176/176 173/173/173 
f 77/77/77 75/75/75 77/77/77 
f 76/76/76 75/75/75 77/77/77 
f 76/76/76 74/74/74 75/75/75 
f 76/76/76 74/74/74 76/76/76 
f 76/76/76 80/80/80 74/74/74 
f 81/81/81 80/80/80 76/76/76 
f 81/81/81 80/80/80 80/80/80 
f 84/84/84 80/80/80 81/81/81 
f 84/84/84 85/85/85 80/80/80 
f 73/73/73 71/71/71 73/73/73 
f 72/72/72 71/71/71 73/73/73 
f 72/72/72 70/70/70 71/71/71 
f 72/72/72 70/70/70 72/72/72 
f 72/72/72 78/78/78 70/70/70 
f 79/79/79 78/78/78 72/72/72 
f 79/79/79 78/78/78 78/78/78 
f 82/82/82 78/78/78 79/79/79 
f 82/82/82 83/83/83 78/78/78 
f 59/59/59 58/58/58 59/59/59 
f 60/60/60 58/58/58 59/59/59 
f 60/60/60 62/62/62 58/58/58 
f 61/61/61 62/62/62 60/60/60 
f 61/61/61 62/62/62 62/62/62 
f 115/115/115 62/62/62 61/61/61 
f 115/115/115 116/116/116 62/62/62 
f 136/136/136 116/116/116 115/115/115 
f 136/136/136 114/114/114 116/116/116 
f 113/113/113 114/114/114 136/136/136 
f 113/113/113 114/114/114 114/114/114 
f 59/59/59 114/114/114 113/113/113 
f 59/59/59 58/58/58 114/114/114 
f 69/69/69 68/68/68 69/69/69 
f 67/67/67 68/68/68 69/69/69 
f 67/67/67 66/66/66 68/68/68 
f 57/57/57 66/66/66 67/67/67 
f 57/57/57 56/56/56 66/66/66 
f 55/55/55 56/56/56 57/57/57 
f 55/55/55 54/54/54 56/56/56 
f 47/47/47 54/54/54 55/55/55 
f 47/47/47 45/45/45 54/54/54 
f 46/46/46 45/45/45 47/47/47 
f 46/46/46 44/44/44 45/45/45 
f 150/150/150 139/139/139 149/149/149 
f 140/140/140 139/139/139 150/150/150 
f 140/140/140 137/137/137 139/139/139 
f 138/138/138 137/137/137 140/140/140 
f 138/138/138 131/131/131 137/137/137 
f 132/132/132 131/131/131 138/138/138 
f 132/132/132 129/129/129 131/131/131 
f 130/130/130 129/129/129 132/132/132 
f 130/130/130 68/68/68 129/129/129 
f 69/69/69 68/68/68 130/130/130 
f 91/91/91 92/92/92 90/90/90 
f 93/93/93 92/92/92 91/91/91 
f 93/93/93 94/94/94 92/92/92 
f 95/95/95 94/94/94 93/93/93 
f 95/95/95 104/104/104 94/94/94 
f 105/105/105 104/104/104 95/95/95 
f 105/105/105 106/106/106 104/104/104 
f 107/107/107 106/106/106 105/105/105 
f 107/107/107 108/108/108 106/106/106 
f 109/109/109 108/108/108 107/107/107 
f 109/109/109 110/110/110 108/108/108 
f 111/111/111 110/110/110 109/109/109 
f 111/111/111 112/112/112 110/110/110 
f 146/146/146 147/147/147 145/145/145 
f 146/146/146 147/147/147 146/146/146 
f 146/146/146 148/148/148 147/147/147 
f 152/152/152 148/148/148 146/146/146 
f 152/152/152 151/151/151 148/148/148 
f 22/22/22 20/20/20 24/24/24 
f 17/17/17 20/20/20 22/22/22 
f 17/17/17 21/21/21 20/20/20 
f 17/17/17 21/21/21 17/17/17 
f 17/17/17 16/16/16 21/21/21 
f 17/17/17 16/16/16 17/17/17 
f 17/17/17 18/18/18 16/16/16 
f 17/17/17 18/18/18 17/17/17 
f 17/17/17 19/19/19 18/18/18 
f 22/22/22 19/19/19 17/17/17 
f 22/22/22 23/23/23 19/19/19 
f 25/25/25 23/23/23 22/22/22 
f 25/25/25 26/26/26 23/23/23 
f 25/25/25 24/24/24 27/27/27 
f 22/22/22 24/24/24 25/25/25 
f 142/142/142 143/143/143 141/141/141 
f 144/144/144 143/143/143 142/142/142 
f 126/126/126 127/127/127 125/125/125 
f 128/128/128 127/127/127 126/126/126 
f 122/122/122 123/123/123 121/121/121 
f 124/124/124 123/123/123 122/122/122 
f 118/118/118 119/119/119 117/117/117 
f 120/120/120 119/119/119 118/118/118 
f 101/101/101 102/102/102 100/100/100 
f 103/103/103 102/102/102 101/101/101 
f 97/97/97 98/98/98 96/96/96 
f 99/99/99 98/98/98 97/97/97 
f 87/87/87 88/88/88 86/86/86 
f 89/89/89 88/88/88 87/87/87 
f 51/51/51 52/52/52 50/50/50 
f 53/53/53 52/52/52 51/51/51 
f 29/29/29 30/30/30 28/28/28 
f 29/29/29 30/30/30 29/29/29 
f 29/29/29 31/31/31 30/30/30 
f 29/29/29 31/31/31 29/29/29 
f 29/29/29 33/33/33 31/31/31 
f 32/32/32 33/33/33 29/29/29 
f 160/160/160 161/161/161 159/159/159 
f 160/160/160 161/161/161 160/160/160 
f 160/160/160 162/162/162 161/161/161 
f 160/160/160 162/162/162 160/160/160 
f 160/160/160 164/164/164 162/162/162 
f 163/163/163 164/164/164 160/160/160 
f 37/37/37 39/39/39 38/38/38 
f 37/37/37 39/39/39 37/37/37 
f 37/37/37 35/35/35 39/39/39 
f 36/36/36 35/35/35 37/37/37 
f 36/36/36 34/34/34 35/35/35 
