v -0.708300 0.619500 0.048600
v -0.820700 0.673400 0.048600
v -0.971200 0.522100 0.048600
v -0.937800 0.643000 0.048600
v -0.708300 0.619500 -0.048600
v -0.971200 0.522100 -0.048600
v -0.820700 0.673400 -0.048600
v -0.937800 0.643000 -0.048600
v -0.814900 0.471500 -0.048600
v -0.712500 0.522400 -0.048600
v -0.814900 0.471500 0.048600
v -0.712500 0.522400 0.048600
v -0.535600 0.941000 -0.693800
v -0.535600 1.099800 -0.693800
v 0.535600 0.941000 -0.693800
v 0.535600 1.099800 -0.693800
v 0.535600 0.941000 0.693800
v 0.535600 1.099800 0.693800
v -0.535600 0.941000 0.693800
v -0.535600 1.099800 0.693800
v 0.971100 0.521900 0.048600
v 0.814800 0.471400 0.048600
v 0.708200 0.619400 0.048600
v 0.712400 0.522300 0.048600
v 0.971100 0.521900 -0.048600
v 0.708200 0.619400 -0.048600
v 0.814800 0.471400 -0.048600
v 0.712400 0.522300 -0.048600
v 0.820600 0.673300 -0.048600
v 0.937700 0.642800 -0.048600
v 0.820600 0.673300 0.048600
v 0.937700 0.642800 0.048600
v -0.996700 1.096800 -0.891300
v -0.996700 1.096800 0.891300
v -0.996700 1.246500 -0.891300
v -0.996700 1.246500 0.891300
v -0.971200 0.522100 -0.048600
v -0.971200 0.522100 0.048600
v -0.937800 0.643000 -0.048600
v -0.937800 0.643000 0.048600
v -0.953900 0.000000 -0.899500
v -0.953900 0.000000 -0.449700
v -0.953900 0.139600 -0.899500
v -0.953900 0.139600 -0.449700
v -0.953900 0.000000 0.449700
v -0.953900 0.000000 0.899500
v -0.953900 0.139600 0.449700
v -0.953900 0.139600 0.899500
v -0.814900 0.471500 -0.048600
v -0.814900 0.471500 0.048600
v -0.820700 0.673400 -0.048600
v -0.820700 0.673400 0.048600
v -0.708300 0.619500 -0.048600
v -0.708300 0.619500 0.048600
v -0.712500 0.522400 -0.048600
v -0.712500 0.522400 0.048600
v -0.475800 0.949000 0.020200
v -0.476000 0.949000 -0.020200
v -0.820200 0.644800 0.020200
v -0.820000 0.645000 -0.020200
v -0.639300 0.000000 -0.449700
v -0.639300 0.000000 0.449700
v -0.641300 0.139600 -0.449700
v -0.641300 0.139600 0.449700
v -0.872800 0.499900 -0.043700
v -0.347200 0.185000 -0.043700
v -0.872600 0.499800 0.043700
v -0.348200 0.185600 0.043700
v -0.364900 0.949000 0.000000
v -0.475800 0.949000 0.020200
v -0.742500 0.620300 0.000000
v -0.820200 0.644800 0.020200
v -0.364900 0.949000 0.000000
v -0.742500 0.620300 0.000000
v -0.476000 0.949000 -0.020200
v -0.820000 0.645000 -0.020200
v -0.152800 0.185400 0.000000
v -0.800700 0.572600 0.000000
v -0.348200 0.185600 0.043700
v -0.872600 0.499800 0.043700
v -0.152800 0.185400 0.000000
v -0.347200 0.185000 -0.043700
v -0.800700 0.572600 0.000000
v -0.872800 0.499900 -0.043700
v -0.535600 0.941000 0.693800
v -0.535600 1.099800 0.693800
v -0.535600 0.941000 -0.693800
v -0.535600 1.099800 -0.693800
v -0.495800 0.190100 0.449700
v -0.495800 0.190100 -0.449700
v -0.495900 0.140400 0.449700
v -0.495900 0.140400 -0.449700
v -0.406300 0.938100 -0.000100
v -0.295500 0.938100 -0.369900
v -0.374100 0.851400 -0.000400
v -0.272000 0.851400 -0.341100
v -0.295500 0.938100 0.369700
v -0.272000 0.851400 0.340200
v -0.200500 0.751300 0.000000
v -0.146000 0.751300 -0.182000
v -0.087800 0.751300 0.242800
v -0.049700 0.938100 0.570100
v -0.045600 0.851400 0.524700
v 0.046600 0.938100 -0.553700
v 0.043000 0.851400 -0.510400
v 0.022400 0.751300 -0.272500
v -0.000900 0.712400 0.000000
v -0.641300 0.139600 0.449700
v 0.639300 0.139600 0.449700
v -0.641300 0.139600 -0.449700
v 0.639300 0.139600 -0.449700
v 0.495800 0.140400 -0.449700
v -0.495900 0.140400 -0.449700
v 0.495800 0.190100 -0.449700
v -0.495800 0.190100 -0.449700
v -0.495900 0.140400 0.449700
v 0.495800 0.140400 0.449700
v -0.495800 0.190100 0.449700
v 0.495800 0.190100 0.449700
v 0.953900 0.000000 -0.899500
v -0.953900 0.000000 -0.899500
v 0.953900 0.139600 -0.899500
v -0.953900 0.139600 -0.899500
v -0.953900 0.000000 -0.449700
v 0.953900 0.000000 -0.449700
v -0.953900 0.139600 -0.449700
v 0.953900 0.139600 -0.449700
v 0.953900 0.000000 0.449700
v -0.953900 0.000000 0.449700
v 0.953900 0.139600 0.449700
v -0.953900 0.139600 0.449700
v -0.953900 0.139600 0.899500
v -0.953900 0.000000 0.899500
v 0.953900 0.139600 0.899500
v 0.953900 0.000000 0.899500
v 0.953900 0.139600 -0.899500
v -0.953900 0.139600 -0.899500
v 0.953900 0.139600 -0.449700
v -0.953900 0.139600 -0.449700
v -0.953900 0.139600 0.899500
v 0.953900 0.139600 0.899500
v -0.953900 0.139600 0.449700
v 0.953900 0.139600 0.449700
v -0.495800 0.190100 0.449700
v 0.495800 0.190100 0.449700
v -0.495800 0.190100 -0.449700
v 0.495800 0.190100 -0.449700
v 0.996700 1.096800 -0.891300
v 0.996700 1.096800 0.891300
v -0.996700 1.096800 -0.891300
v -0.996700 1.096800 0.891300
v -0.996700 1.096800 -0.891300
v -0.996700 1.246500 -0.891300
v 0.996700 1.096800 -0.891300
v 0.996700 1.246500 -0.891300
v -0.996700 1.246500 0.891300
v -0.996700 1.096800 0.891300
v 0.996700 1.246500 0.891300
v 0.996700 1.096800 0.891300
v 0.996700 1.246500 0.891300
v 0.996700 1.246500 -0.891300
v -0.996700 1.246500 0.891300
v -0.996700 1.246500 -0.891300
v -0.856700 1.261900 -0.693800
v -0.856700 1.261900 0.693800
v 0.856700 1.261900 -0.693800
v 0.856700 1.261900 0.693800
v 0.109100 0.751300 0.225900
v 0.181700 0.751300 -0.029900
v 0.205300 0.851400 0.422300
v 0.222800 0.938100 0.458800
v 0.320400 0.851400 -0.239200
v 0.362000 0.851400 0.126100
v 0.347700 0.938100 -0.259300
v 0.392800 0.938100 0.137300
v 0.495800 0.190100 0.449700
v 0.495800 0.140400 0.449700
v 0.495800 0.190100 -0.449700
v 0.495800 0.140400 -0.449700
v 0.535600 0.941000 0.693800
v 0.535600 0.941000 -0.693800
v 0.535600 1.099800 0.693800
v 0.535600 1.099800 -0.693800
v 0.152800 0.187500 0.000000
v 0.347200 0.187100 -0.043700
v 0.789400 0.577000 0.000000
v 0.854600 0.496300 -0.043700
v 0.152800 0.187500 0.000000
v 0.789400 0.577000 0.000000
v 0.348200 0.187700 0.043700
v 0.854400 0.496200 0.043700
v 0.854600 0.496300 -0.043700
v 0.347200 0.187100 -0.043700
v 0.854400 0.496200 0.043700
v 0.348200 0.187700 0.043700
v 0.639300 0.139600 0.449700
v 0.639300 0.000000 0.449700
v 0.639300 0.139600 -0.449700
v 0.639300 0.000000 -0.449700
v 0.396600 0.949000 0.000000
v 0.518200 0.949000 0.043700
v 0.817200 0.612200 0.000000
v 0.903800 0.637700 0.043700
v 0.396600 0.949000 0.000000
v 0.817200 0.612200 0.000000
v 0.518400 0.949000 -0.043700
v 0.903600 0.637900 -0.043700
v 0.708200 0.619400 -0.048600
v 0.708200 0.619400 0.048600
v 0.712400 0.522300 -0.048600
v 0.712400 0.522300 0.048600
v 0.518200 0.949000 0.043700
v 0.518400 0.949000 -0.043700
v 0.903800 0.637700 0.043700
v 0.903600 0.637900 -0.043700
v 0.820600 0.673300 -0.048600
v 0.820600 0.673300 0.048600
v 0.937700 0.642800 -0.048600
v 0.937700 0.642800 0.048600
v 0.814800 0.471400 -0.048600
v 0.814800 0.471400 0.048600
v 0.971100 0.521900 -0.048600
v 0.971100 0.521900 0.048600
v 0.953900 0.139600 -0.449700
v 0.953900 0.000000 -0.449700
v 0.953900 0.139600 -0.899500
v 0.953900 0.000000 -0.899500
v 0.953900 0.000000 0.899500
v 0.953900 0.000000 0.449700
v 0.953900 0.139600 0.899500
v 0.953900 0.139600 0.449700
v 0.996700 1.246500 0.891300
v 0.996700 1.096800 0.891300
v 0.996700 1.246500 -0.891300
v 0.996700 1.096800 -0.891300
vt 0.382800 0.148400
vt 0.382800 0.148400
vt 0.382800 0.148400
vt 0.382800 0.148400
vt 0.382800 0.148400
vt 0.382800 0.148400
vt 0.382800 0.148400
vt 0.382800 0.148400
vt 0.382800 0.148400
vt 0.382800 0.148400
vt 0.382800 0.148400
vt 0.382800 0.148400
vt 0.382800 0.148400
vt 0.382800 0.148400
vt 0.382800 0.148400
vt 0.382800 0.148400
vt 0.382800 0.148400
vt 0.382800 0.148400
vt 0.382800 0.148400
vt 0.382800 0.148400
vt 0.382800 0.148400
vt 0.382800 0.148400
vt 0.382800 0.148400
vt 0.382800 0.148400
vt 0.382800 0.148400
vt 0.382800 0.148400
vt 0.382800 0.148400
vt 0.382800 0.148400
vt 0.382800 0.148400
vt 0.382800 0.148400
vt 0.382800 0.148400
vt 0.382800 0.148400
vt 0.601500 0.492100
vt 0.601500 0.492100
vt 0.601500 0.492100
vt 0.601500 0.492100
vt 0.757800 0.492100
vt 0.757800 0.492100
vt 0.757800 0.492100
vt 0.757800 0.492100
vt 0.820300 0.492100
vt 0.820300 0.492100
vt 0.820300 0.492100
vt 0.820300 0.492100
vt 0.820300 0.492100
vt 0.820300 0.492100
vt 0.820300 0.492100
vt 0.820300 0.492100
vt 0.757800 0.492100
vt 0.757800 0.492100
vt 0.757800 0.492100
vt 0.757800 0.492100
vt 0.757800 0.492100
vt 0.757800 0.492100
vt 0.757800 0.492100
vt 0.757800 0.492100
vt 0.507800 0.460900
vt 0.507800 0.460900
vt 0.507800 0.460900
vt 0.507800 0.460900
vt 0.851500 0.492100
vt 0.851500 0.492100
vt 0.851500 0.492100
vt 0.851500 0.492100
vt 0.539000 0.460900
vt 0.539000 0.460900
vt 0.539000 0.460900
vt 0.539000 0.460900
vt 0.976500 0.492100
vt 0.976500 0.492100
vt 0.976500 0.492100
vt 0.976500 0.492100
vt 0.976500 0.492100
vt 0.976500 0.492100
vt 0.976500 0.492100
vt 0.976500 0.492100
vt 0.976500 0.492100
vt 0.976500 0.492100
vt 0.976500 0.492100
vt 0.976500 0.492100
vt 0.976500 0.492100
vt 0.976500 0.492100
vt 0.976500 0.492100
vt 0.976500 0.492100
vt 0.695300 0.492100
vt 0.695300 0.492100
vt 0.695300 0.492100
vt 0.695300 0.492100
vt 0.914000 0.492100
vt 0.914000 0.492100
vt 0.914000 0.492100
vt 0.914000 0.492100
vt 0.757800 0.492100
vt 0.757800 0.492100
vt 0.757800 0.492100
vt 0.757800 0.492100
vt 0.757800 0.492100
vt 0.757800 0.492100
vt 0.757800 0.492100
vt 0.757800 0.492100
vt 0.757800 0.492100
vt 0.757800 0.492100
vt 0.757800 0.492100
vt 0.757800 0.492100
vt 0.757800 0.492100
vt 0.757800 0.492100
vt 0.757800 0.492100
vt 0.757800 0.492100
vt 0.757800 0.492100
vt 0.757800 0.492100
vt 0.757800 0.492100
vt 0.945300 0.492100
vt 0.945300 0.492100
vt 0.945300 0.492100
vt 0.945300 0.492100
vt 0.945300 0.492100
vt 0.945300 0.492100
vt 0.945300 0.492100
vt 0.945300 0.492100
vt 0.789000 0.492100
vt 0.789000 0.492100
vt 0.789000 0.492100
vt 0.789000 0.492100
vt 0.882800 0.492100
vt 0.882800 0.492100
vt 0.882800 0.492100
vt 0.882800 0.492100
vt 0.882800 0.492100
vt 0.882800 0.492100
vt 0.882800 0.492100
vt 0.882800 0.492100
vt 0.789000 0.492100
vt 0.789000 0.492100
vt 0.789000 0.492100
vt 0.789000 0.492100
vt 0.757800 0.492100
vt 0.757800 0.492100
vt 0.757800 0.492100
vt 0.757800 0.492100
vt 0.757800 0.492100
vt 0.757800 0.492100
vt 0.757800 0.492100
vt 0.757800 0.492100
vt 0.695300 0.492100
vt 0.695300 0.492100
vt 0.695300 0.492100
vt 0.695300 0.492100
vt 0.570300 0.492100
vt 0.570300 0.492100
vt 0.570300 0.492100
vt 0.570300 0.492100
vt 0.507800 0.492100
vt 0.507800 0.492100
vt 0.507800 0.492100
vt 0.507800 0.492100
vt 0.507800 0.492100
vt 0.507800 0.492100
vt 0.507800 0.492100
vt 0.507800 0.492100
vt 0.539000 0.492100
vt 0.539000 0.492100
vt 0.539000 0.492100
vt 0.539000 0.492100
vt 0.632800 0.492100
vt 0.632800 0.492100
vt 0.632800 0.492100
vt 0.632800 0.492100
vt 0.757800 0.492100
vt 0.757800 0.492100
vt 0.757800 0.492100
vt 0.757800 0.492100
vt 0.757800 0.492100
vt 0.757800 0.492100
vt 0.757800 0.492100
vt 0.757800 0.492100
vt 0.914000 0.492100
vt 0.914000 0.492100
vt 0.914000 0.492100
vt 0.914000 0.492100
vt 0.695300 0.492100
vt 0.695300 0.492100
vt 0.695300 0.492100
vt 0.695300 0.492100
vt 0.976500 0.492100
vt 0.976500 0.492100
vt 0.976500 0.492100
vt 0.976500 0.492100
vt 0.976500 0.492100
vt 0.976500 0.492100
vt 0.976500 0.492100
vt 0.976500 0.492100
vt 0.539000 0.460900
vt 0.539000 0.460900
vt 0.539000 0.460900
vt 0.539000 0.460900
vt 0.851500 0.492100
vt 0.851500 0.492100
vt 0.851500 0.492100
vt 0.851500 0.492100
vt 0.976500 0.492100
vt 0.976500 0.492100
vt 0.976500 0.492100
vt 0.976500 0.492100
vt 0.976500 0.492100
vt 0.976500 0.492100
vt 0.976500 0.492100
vt 0.976500 0.492100
vt 0.851500 0.492100
vt 0.851500 0.492100
vt 0.851500 0.492100
vt 0.851500 0.492100
vt 0.507800 0.460900
vt 0.507800 0.460900
vt 0.507800 0.460900
vt 0.507800 0.460900
vt 0.851500 0.492100
vt 0.851500 0.492100
vt 0.851500 0.492100
vt 0.851500 0.492100
vt 0.851500 0.492100
vt 0.851500 0.492100
vt 0.851500 0.492100
vt 0.851500 0.492100
vt 0.820300 0.492100
vt 0.820300 0.492100
vt 0.820300 0.492100
vt 0.820300 0.492100
vt 0.820300 0.492100
vt 0.820300 0.492100
vt 0.820300 0.492100
vt 0.820300 0.492100
vt 0.601500 0.492100
vt 0.601500 0.492100
vt 0.601500 0.492100
vt 0.601500 0.492100
vn 0.000000 0.000000 1.000000
vn 0.000000 0.000000 1.000000
vn 0.000000 0.000000 1.000000
vn 0.000000 0.000000 1.000000
vn 0.000000 0.000000 -1.000000
vn 0.000000 0.000000 -1.000000
vn 0.000000 0.000000 -1.000000
vn 0.000000 0.000000 -1.000000
vn 0.000000 0.000000 -1.000000
vn 0.000000 0.000000 -1.000000
vn 0.000000 0.000000 1.000000
vn 0.000000 0.000000 1.000000
vn 0.000000 0.000000 -1.000000
vn 0.000000 0.000000 -1.000000
vn 0.000000 0.000000 -1.000000
vn 0.000000 0.000000 -1.000000
vn 0.000000 0.000000 1.000000
vn 0.000000 0.000000 1.000000
vn 0.000000 0.000000 1.000000
vn 0.000000 0.000000 1.000000
vn 0.000000 0.000000 -1.000000
vn 0.000000 0.000000 -1.000000
vn 0.000000 0.000000 -1.000000
vn 0.000000 0.000000 -1.000000
vn 0.000000 0.000000 1.000000
vn 0.000000 0.000000 1.000000
vn 0.000000 0.000000 1.000000
vn 0.000000 0.000000 1.000000
vn 0.000000 0.000000 1.000000
vn 0.000000 0.000000 1.000000
vn 0.000000 0.000000 -1.000000
vn 0.000000 0.000000 -1.000000
vn -1.000000 0.000000 0.000000
vn -1.000000 0.000000 0.000000
vn -1.000000 0.000000 0.000000
vn -1.000000 0.000000 0.000000
vn -0.622539 -0.782589 0.000000
vn -0.956209 -0.292684 0.000000
vn -0.828616 0.559818 0.000000
vn -0.561743 0.827312 0.000000
vn -1.000000 0.000000 0.000000
vn -1.000000 0.000000 0.000000
vn -1.000000 0.000000 0.000000
vn -1.000000 0.000000 0.000000
vn -1.000000 0.000000 0.000000
vn -1.000000 0.000000 0.000000
vn -1.000000 0.000000 0.000000
vn -1.000000 0.000000 0.000000
vn -0.307998 -0.951387 0.000000
vn -0.307998 -0.951387 0.000000
vn -0.019904 0.999802 0.000000
vn 0.220795 0.975320 0.000000
vn 0.680553 0.732699 0.000000
vn 0.922250 0.386594 0.000000
vn 0.999066 -0.043214 0.000000
vn 0.999066 -0.043214 0.000000
vn -0.662007 0.749491 0.003277
vn -0.662103 0.749411 0.001854
vn -0.662103 0.749411 0.001854
vn -0.662198 0.749329 0.000430
vn -0.999897 -0.014325 0.000000
vn -0.999897 -0.014325 0.000000
vn -0.999897 -0.014325 0.000000
vn -0.999897 -0.014325 0.000000
vn -0.513944 -0.857824 0.000194
vn -0.513955 -0.857817 0.000101
vn -0.513955 -0.857817 0.000101
vn -0.513966 -0.857810 0.000008
vn 0.175517 -0.201629 0.963608
vn 0.179512 -0.204783 0.962205
vn 0.179512 -0.204783 0.962205
vn 0.184031 -0.208351 0.960585
vn 0.175224 -0.201292 -0.963731
vn 0.179344 -0.204543 -0.962288
vn 0.179344 -0.204543 -0.962288
vn 0.184015 -0.208228 -0.960614
vn 0.205304 0.343535 0.916425
vn 0.205992 0.344290 0.915987
vn 0.205992 0.344290 0.915987
vn 0.206846 0.345227 0.915441
vn 0.205301 0.343529 -0.916427
vn 0.205975 0.344269 -0.915999
vn 0.205975 0.344269 -0.915999
vn 0.206809 0.345185 -0.915466
vn -1.000000 0.000000 0.000000
vn -1.000000 0.000000 0.000000
vn -1.000000 0.000000 0.000000
vn -1.000000 0.000000 0.000000
vn -0.999998 0.002012 0.000000
vn -0.999998 0.002012 0.000000
vn -0.999998 0.002012 0.000000
vn -0.999998 0.002012 0.000000
vn -0.937435 -0.348160 0.000000
vn -0.787432 -0.375691 -0.488678
vn -0.759251 -0.650798 0.000000
vn -0.490288 -0.759124 -0.428191
vn -0.830696 -0.367317 0.418358
vn -0.527067 -0.772441 0.354310
vn -0.401243 -0.915616 0.025510
vn -0.231856 -0.936134 -0.264379
vn -0.181077 -0.954098 0.238552
vn -0.150134 -0.463868 0.873090
vn -0.061366 -0.869764 0.489638
vn 0.151639 -0.446747 -0.881716
vn 0.110025 -0.880696 -0.460727
vn 0.116781 -0.960759 -0.251604
vn 0.000000 -1.000000 0.000000
vn 0.000000 1.000000 0.000000
vn 0.000000 1.000000 0.000000
vn 0.000000 1.000000 0.000000
vn 0.000000 1.000000 0.000000
vn 0.000000 0.000000 -1.000000
vn 0.000000 0.000000 -1.000000
vn 0.000000 0.000000 -1.000000
vn 0.000000 0.000000 -1.000000
vn 0.000000 0.000000 1.000000
vn 0.000000 0.000000 1.000000
vn 0.000000 0.000000 1.000000
vn 0.000000 0.000000 1.000000
vn 0.000000 0.000000 -1.000000
vn 0.000000 0.000000 -1.000000
vn 0.000000 0.000000 -1.000000
vn 0.000000 0.000000 -1.000000
vn 0.000000 0.000000 1.000000
vn 0.000000 0.000000 1.000000
vn 0.000000 0.000000 1.000000
vn 0.000000 0.000000 1.000000
vn 0.000000 0.000000 -1.000000
vn 0.000000 0.000000 -1.000000
vn 0.000000 0.000000 -1.000000
vn 0.000000 0.000000 -1.000000
vn 0.000000 0.000000 1.000000
vn 0.000000 0.000000 1.000000
vn 0.000000 0.000000 1.000000
vn 0.000000 0.000000 1.000000
vn 0.000000 1.000000 0.000000
vn 0.000000 1.000000 0.000000
vn 0.000000 1.000000 0.000000
vn 0.000000 1.000000 0.000000
vn 0.000000 1.000000 0.000000
vn 0.000000 1.000000 0.000000
vn 0.000000 1.000000 0.000000
vn 0.000000 1.000000 0.000000
vn 0.000000 1.000000 0.000000
vn 0.000000 1.000000 0.000000
vn 0.000000 1.000000 0.000000
vn 0.000000 1.000000 0.000000
vn 0.000000 -1.000000 0.000000
vn 0.000000 -1.000000 0.000000
vn 0.000000 -1.000000 0.000000
vn 0.000000 -1.000000 0.000000
vn 0.000000 0.000000 -1.000000
vn 0.000000 0.000000 -1.000000
vn 0.000000 0.000000 -1.000000
vn 0.000000 0.000000 -1.000000
vn 0.000000 0.000000 1.000000
vn 0.000000 0.000000 1.000000
vn 0.000000 0.000000 1.000000
vn 0.000000 0.000000 1.000000
vn 0.000000 1.000000 0.000000
vn 0.000000 1.000000 0.000000
vn 0.000000 1.000000 0.000000
vn 0.000000 1.000000 0.000000
vn 0.000000 1.000000 0.000000
vn 0.000000 1.000000 0.000000
vn 0.000000 1.000000 0.000000
vn 0.000000 1.000000 0.000000
vn 0.187015 -0.951824 0.243016
vn 0.369324 -0.927077 -0.064258
vn 0.422506 -0.807214 0.412181
vn 0.711508 -0.389538 0.584822
vn 0.624878 -0.715172 -0.313141
vn 0.655398 -0.738821 0.156835
vn 0.834260 -0.359592 -0.417975
vn 0.936811 -0.342340 0.072029
vn 1.000000 0.000000 0.000000
vn 1.000000 0.000000 0.000000
vn 1.000000 0.000000 0.000000
vn 1.000000 0.000000 0.000000
vn 1.000000 0.000000 0.000000
vn 1.000000 0.000000 0.000000
vn 1.000000 0.000000 0.000000
vn 1.000000 0.000000 0.000000
vn 0.205873 -0.336480 0.918911
vn 0.204821 -0.335359 0.919556
vn 0.204821 -0.335359 0.919556
vn 0.203510 -0.333961 0.920355
vn 0.205856 -0.336452 -0.918925
vn 0.204833 -0.335363 -0.919552
vn 0.204833 -0.335363 -0.919552
vn 0.203555 -0.334002 -0.920330
vn -0.520374 0.853938 -0.000214
vn -0.520393 0.853927 -0.000061
vn -0.520393 0.853927 -0.000061
vn -0.520413 0.853915 0.000092
vn 1.000000 0.000000 0.000000
vn 1.000000 0.000000 0.000000
vn 1.000000 0.000000 0.000000
vn 1.000000 0.000000 0.000000
vn 0.311552 0.389069 -0.866926
vn 0.314925 0.391749 -0.864497
vn 0.314925 0.391749 -0.864497
vn 0.318649 0.394703 -0.861784
vn 0.311167 0.388589 0.867280
vn 0.314696 0.391391 0.864742
vn 0.314696 0.391391 0.864742
vn 0.318599 0.394485 0.861903
vn 0.680553 -0.732699 0.000000
vn 0.922250 -0.386594 0.000000
vn 0.999066 0.043214 0.000000
vn 0.999066 0.043214 0.000000
vn -0.628158 -0.778085 -0.001438
vn -0.628233 -0.778024 -0.000890
vn -0.628233 -0.778024 -0.000890
vn -0.628309 -0.777964 -0.000342
vn -0.020481 -0.999790 0.000000
vn 0.220523 -0.975382 0.000000
vn -0.828711 -0.559677 0.000000
vn -0.562166 -0.827024 0.000000
vn -0.307448 0.951565 0.000000
vn -0.307448 0.951565 0.000000
vn -0.622196 0.782862 0.000000
vn -0.956181 0.292775 0.000000
vn 1.000000 0.000000 0.000000
vn 1.000000 0.000000 0.000000
vn 1.000000 0.000000 0.000000
vn 1.000000 0.000000 0.000000
vn 1.000000 0.000000 0.000000
vn 1.000000 0.000000 0.000000
vn 1.000000 0.000000 0.000000
vn 1.000000 0.000000 0.000000
vn 1.000000 0.000000 0.000000
vn 1.000000 0.000000 0.000000
vn 1.000000 0.000000 0.000000
vn 1.000000 0.000000 0.000000
f 14/14/14 15/15/15 13/13/13 
f 16/16/16 15/15/15 14/14/14 
f 18/18/18 19/19/19 17/17/17 
f 20/20/20 19/19/19 18/18/18 
f 29/29/29 25/25/25 30/30/30 
f 26/26/26 25/25/25 29/29/29 
f 26/26/26 27/27/27 25/25/25 
f 28/28/28 27/27/27 26/26/26 
f 9/9/9 5/5/5 10/10/10 
f 6/6/6 5/5/5 9/9/9 
f 6/6/6 7/7/7 5/5/5 
f 8/8/8 7/7/7 6/6/6 
f 12/12/12 11/11/11 12/12/12 
f 1/1/1 11/11/11 12/12/12 
f 1/1/1 3/3/3 11/11/11 
f 2/2/2 3/3/3 1/1/1 
f 2/2/2 3/3/3 3/3/3 
f 4/4/4 3/3/3 2/2/2 
f 24/24/24 22/22/22 24/24/24 
f 23/23/23 22/22/22 24/24/24 
f 23/23/23 21/21/21 22/22/22 
f 31/31/31 21/21/21 23/23/23 
f 31/31/31 32/32/32 21/21/21 
f 46/46/46 47/47/47 45/45/45 
f 48/48/48 47/47/47 46/46/46 
f 104/104/104 96/96/96 94/94/94 
f 94/94/94 95/95/95 93/93/93 
f 96/96/96 95/95/95 94/94/94 
f 96/96/96 95/95/95 95/95/95 
f 99/99/99 95/95/95 96/96/96 
f 99/99/99 95/95/95 95/95/95 
f 98/98/98 95/95/95 99/99/99 
f 98/98/98 97/97/97 95/95/95 
f 102/102/102 97/97/97 98/98/98 
f 95/95/95 97/97/97 93/93/93 
f 102/102/102 103/103/103 170/170/170 
f 98/98/98 103/103/103 102/102/102 
f 98/98/98 101/101/101 103/103/103 
f 99/99/99 101/101/101 98/98/98 
f 99/99/99 107/107/107 101/101/101 
f 100/100/100 107/107/107 99/99/99 
f 100/100/100 106/106/106 107/107/107 
f 105/105/105 106/106/106 100/100/100 
f 105/105/105 169/169/169 106/106/106 
f 172/172/172 169/169/169 105/105/105 
f 172/172/172 169/169/169 172/172/172 
f 173/173/173 169/169/169 172/172/172 
f 173/173/173 169/169/169 169/169/169 
f 170/170/170 169/169/169 173/173/173 
f 170/170/170 168/168/168 169/169/169 
f 103/103/103 168/168/168 170/170/170 
f 103/103/103 168/168/168 168/168/168 
f 101/101/101 168/168/168 103/103/103 
f 101/101/101 168/168/168 168/168/168 
f 107/107/107 168/168/168 101/101/101 
f 107/107/107 169/169/169 168/168/168 
f 106/106/106 169/169/169 107/107/107 
f 99/99/99 100/100/100 99/99/99 
f 96/96/96 100/100/100 99/99/99 
f 96/96/96 105/105/105 100/100/100 
f 104/104/104 105/105/105 96/96/96 
f 104/104/104 172/172/172 105/105/105 
f 174/174/174 172/172/172 104/104/104 
f 174/174/174 172/172/172 172/172/172 
f 175/175/175 172/172/172 174/174/174 
f 175/175/175 173/173/173 172/172/172 
f 171/171/171 173/173/173 175/175/175 
f 171/171/171 170/170/170 173/173/173 
f 102/102/102 170/170/170 171/171/171 
f 42/42/42 43/43/43 41/41/41 
f 44/44/44 43/43/43 42/42/42 
f 34/34/34 35/35/35 33/33/33 
f 36/36/36 35/35/35 34/34/34 
f 233/233/233 234/234/234 232/232/232 
f 235/235/235 234/234/234 233/233/233 
f 229/229/229 230/230/230 228/228/228 
f 231/231/231 230/230/230 229/229/229 
f 225/225/225 226/226/226 224/224/224 
f 227/227/227 226/226/226 225/225/225 
f 213/213/213 214/214/214 212/212/212 
f 215/215/215 214/214/214 213/213/213 
f 221/221/221 222/222/222 220/220/220 
f 223/223/223 222/222/222 221/221/221 
f 223/223/223 218/218/218 222/222/222 
f 219/219/219 218/218/218 223/223/223 
f 219/219/219 216/216/216 218/218/218 
f 217/217/217 216/216/216 219/219/219 
f 217/217/217 208/208/208 216/216/216 
f 209/209/209 208/208/208 217/217/217 
f 209/209/209 210/210/210 208/208/208 
f 211/211/211 210/210/210 209/209/209 
f 205/205/205 206/206/206 204/204/204 
f 207/207/207 206/206/206 205/205/205 
f 201/201/201 202/202/202 200/200/200 
f 203/203/203 202/202/202 201/201/201 
f 197/197/197 198/198/198 196/196/196 
f 199/199/199 198/198/198 197/197/197 
f 193/193/193 194/194/194 192/192/192 
f 195/195/195 194/194/194 193/193/193 
f 189/189/189 190/190/190 188/188/188 
f 191/191/191 190/190/190 189/189/189 
f 185/185/185 186/186/186 184/184/184 
f 187/187/187 186/186/186 185/185/185 
f 181/181/181 182/182/182 180/180/180 
f 183/183/183 182/182/182 181/181/181 
f 177/177/177 178/178/178 176/176/176 
f 179/179/179 178/178/178 177/177/177 
f 165/165/165 166/166/166 164/164/164 
f 167/167/167 166/166/166 165/165/165 
f 161/161/161 162/162/162 160/160/160 
f 163/163/163 162/162/162 161/161/161 
f 157/157/157 158/158/158 156/156/156 
f 159/159/159 158/158/158 157/157/157 
f 153/153/153 154/154/154 152/152/152 
f 155/155/155 154/154/154 153/153/153 
f 149/149/149 150/150/150 148/148/148 
f 151/151/151 150/150/150 149/149/149 
f 145/145/145 146/146/146 144/144/144 
f 147/147/147 146/146/146 145/145/145 
f 141/141/141 142/142/142 140/140/140 
f 143/143/143 142/142/142 141/141/141 
f 137/137/137 138/138/138 136/136/136 
f 139/139/139 138/138/138 137/137/137 
f 133/133/133 134/134/134 132/132/132 
f 135/135/135 134/134/134 133/133/133 
f 129/129/129 130/130/130 128/128/128 
f 131/131/131 130/130/130 129/129/129 
f 125/125/125 126/126/126 124/124/124 
f 127/127/127 126/126/126 125/125/125 
f 121/121/121 122/122/122 120/120/120 
f 123/123/123 122/122/122 121/121/121 
f 117/117/117 118/118/118 116/116/116 
f 119/119/119 118/118/118 117/117/117 
f 113/113/113 114/114/114 112/112/112 
f 115/115/115 114/114/114 113/113/113 
f 109/109/109 110/110/110 108/108/108 
f 111/111/111 110/110/110 109/109/109 
f 90/90/90 91/91/91 89/89/89 
f 92/92/92 91/91/91 90/90/90 
f 86/86/86 87/87/87 85/85/85 
f 88/88/88 87/87/87 86/86/86 
f 82/82/82 83/83/83 81/81/81 
f 84/84/84 83/83/83 82/82/82 
f 78/78/78 79/79/79 77/77/77 
f 80/80/80 79/79/79 78/78/78 
f 74/74/74 75/75/75 73/73/73 
f 76/76/76 75/75/75 74/74/74 
f 70/70/70 71/71/71 69/69/69 
f 72/72/72 71/71/71 70/70/70 
f 66/66/66 67/67/67 65/65/65 
f 68/68/68 67/67/67 66/66/66 
f 62/62/62 63/63/63 61/61/61 
f 64/64/64 63/63/63 62/62/62 
f 58/58/58 59/59/59 57/57/57 
f 60/60/60 59/59/59 58/58/58 
f 50/50/50 37/37/37 49/49/49 
f 38/38/38 37/37/37 50/50/50 
f 38/38/38 39/39/39 37/37/37 
f 40/40/40 39/39/39 38/38/38 
f 40/40/40 51/51/51 39/39/39 
f 52/52/52 51/51/51 40/40/40 
f 52/52/52 53/53/53 51/51/51 
f 54/54/54 53/53/53 52/52/52 
f 54/54/54 55/55/55 53/53/53 
f 56/56/56 55/55/55 54/54/54 
