v -0.234700 0.170500 0.092000
v -0.146500 0.199100 0.497000
v -0.234700 0.323000 0.092000
v -0.146500 0.294400 0.497000
v -0.145000 0.047100 0.092000
v -0.090500 0.122000 0.497000
v -0.145000 0.446400 0.092000
v -0.234700 0.323000 0.092000
v -0.090500 0.371400 0.497000
v -0.146500 0.294400 0.497000
v -0.096300 0.085900 -0.006800
v -0.075700 0.120400 0.249800
v -0.177400 0.246700 -0.006800
v -0.139300 0.246700 0.249800
v -0.096300 0.407600 -0.006800
v -0.075700 0.373100 0.249800
v -0.115000 0.246700 0.348400
v -0.062400 0.142500 0.348400
v -0.062400 0.351000 0.348400
v -0.140300 0.246700 -0.192400
v -0.069400 0.127400 -0.192400
v -0.101800 0.246700 0.105000
v -0.050400 0.160100 0.105000
v -0.069400 0.366100 -0.192400
v -0.050400 0.333400 0.105000
v -0.090500 0.122000 0.497000
v -0.047600 0.181200 0.579400
v -0.146500 0.199100 0.497000
v -0.077000 0.246700 0.579400
v -0.090500 0.371400 0.497000
v -0.146500 0.294400 0.497000
v -0.047600 0.312300 0.579400
v -0.060400 0.246700 0.420600
v 0.000000 0.192300 0.420600
v 0.000000 0.301200 0.420600
v 0.000000 0.000000 0.092000
v 0.000000 0.092600 0.497000
v -0.145000 0.047100 0.092000
v -0.090500 0.122000 0.497000
v 0.000000 0.493500 0.092000
v -0.145000 0.446400 0.092000
v 0.000000 0.400900 0.497000
v -0.090500 0.371400 0.497000
v -0.053500 0.246700 0.187300
v 0.000000 0.198500 0.187300
v 0.000000 0.295000 0.187300
v -0.074000 0.246700 -0.105700
v -0.066300 0.246700 -0.227200
v 0.000000 0.168800 -0.105700
v 0.000000 0.177000 -0.227200
v 0.000000 0.324600 -0.105700
v 0.000000 0.316500 -0.227200
v 0.000000 0.092600 0.497000
v 0.000000 0.165700 0.579400
v 0.000000 0.400900 0.497000
v 0.000000 0.327800 0.579400
v -0.074000 0.246700 -0.105700
v 0.000000 0.168800 -0.105700
v -0.049900 0.246700 -0.025200
v 0.000000 0.201800 -0.025200
v 0.000000 0.324600 -0.105700
v 0.000000 0.291700 -0.025200
v 0.000000 0.246700 0.607700
v -0.040400 0.246700 -0.290900
v 0.000000 0.206300 -0.290900
v -0.033400 0.246700 -0.112600
v 0.000000 0.213200 -0.112600
v 0.000000 0.287200 -0.290900
v 0.000000 0.280200 -0.112600
v -0.027100 0.246700 -0.470600
v 0.000000 0.219600 -0.470600
v -0.019100 0.246700 -0.258200
v 0.000000 0.227500 -0.258200
v 0.000000 0.273900 -0.470600
v 0.000000 0.265900 -0.258200
v 0.000000 0.246700 0.445500
v 0.000000 0.246700 0.209400
v 0.000000 0.246700 -0.399600
v 0.000000 0.246700 -0.592700
v 0.096300 0.407600 -0.006800
v -0.096300 0.407600 -0.006800
v 0.075700 0.373100 0.249800
v -0.075700 0.373100 0.249800
v -0.069400 0.127400 -0.192400
v 0.069400 0.127400 -0.192400
v -0.050400 0.160100 0.105000
v 0.050400 0.160100 0.105000
v 0.062400 0.142500 0.348400
v 0.050400 0.160100 0.105000
v -0.075700 0.120400 0.249800
v 0.075700 0.120400 0.249800
v -0.062400 0.142500 0.348400
v 0.062400 0.142500 0.348400
v 0.050400 0.333400 0.105000
v 0.062400 0.351000 0.348400
v 0.075700 0.373100 0.249800
v -0.075700 0.373100 0.249800
v 0.062400 0.351000 0.348400
v -0.062400 0.351000 0.348400
v 0.069400 0.366100 -0.192400
v -0.069400 0.366100 -0.192400
v 0.050400 0.333400 0.105000
v -0.050400 0.333400 0.105000
v -0.096300 0.085900 -0.006800
v 0.096300 0.085900 -0.006800
v -0.075700 0.120400 0.249800
v 0.075700 0.120400 0.249800
v 0.027100 0.246700 -0.470600
v 0.040400 0.246700 -0.290900
v 0.047600 0.181200 0.579400
v 0.047600 0.312300 0.579400
v 0.053500 0.246700 0.187300
v 0.060400 0.246700 0.420600
v 0.019100 0.246700 -0.258200
v 0.033400 0.246700 -0.112600
v 0.077000 0.246700 0.579400
v 0.074000 0.246700 -0.105700
v 0.049900 0.246700 -0.025200
v 0.090500 0.122000 0.497000
v 0.090500 0.371400 0.497000
v 0.074000 0.246700 -0.105700
v 0.066300 0.246700 -0.227200
v 0.101800 0.246700 0.105000
v 0.145000 0.047100 0.092000
v 0.090500 0.122000 0.497000
v 0.145000 0.446400 0.092000
v 0.090500 0.371400 0.497000
v 0.115000 0.246700 0.348400
v 0.146500 0.199100 0.497000
v 0.146500 0.294400 0.497000
v 0.140300 0.246700 -0.192400
v 0.069400 0.127400 -0.192400
v 0.069400 0.366100 -0.192400
v 0.139300 0.246700 0.249800
v 0.075700 0.120400 0.249800
v 0.075700 0.373100 0.249800
v 0.177400 0.246700 -0.006800
v 0.096300 0.085900 -0.006800
v 0.096300 0.407600 -0.006800
v 0.145000 0.047100 0.092000
v 0.234700 0.170500 0.092000
v 0.090500 0.122000 0.497000
v 0.146500 0.199100 0.497000
v 0.145000 0.446400 0.092000
v 0.090500 0.371400 0.497000
v 0.234700 0.323000 0.092000
v 0.146500 0.294400 0.497000
v 0.234700 0.323000 0.092000
vt 0.007900 -0.654600
vt 0.203800 -0.620000
vt 0.007900 -0.317800
vt 0.203800 -0.352300
vt 0.040500 -0.794900
vt 0.203800 -0.814100
vt 0.007900 -0.255200
vt 0.007900 -0.563200
vt 0.203800 -0.409800
vt 0.203800 -0.611100
vt 0.443400 -0.999700
vt 0.243800 -0.893300
vt 0.443400 -0.462300
vt 0.243900 -0.500000
vt 0.443400 -0.052700
vt 0.243800 -0.126900
vt 0.243900 -0.500100
vt 0.243800 -0.810100
vt 0.243800 -0.190000
vt 0.585200 -0.003700
vt 0.436300 -0.003700
vt 0.585200 -0.519000
vt 0.485500 -0.519000
vt 0.734100 -0.003700
vt 0.700800 -0.519000
vt 0.193600 -0.643100
vt 0.193600 -0.643100
vt 0.193600 -0.643100
vt 0.193600 -0.643100
vt 0.193600 -0.643100
vt 0.193600 -0.643100
vt 0.193600 -0.643100
vt 0.243900 -0.500100
vt 0.243900 -0.672700
vt 0.243900 -0.327400
vt 0.007900 -0.404200
vt 0.202900 -0.404200
vt 0.007900 -0.575600
vt 0.202900 -0.537300
vt 0.007900 -0.443500
vt 0.007900 -0.579600
vt 0.202900 -0.404200
vt 0.202900 -0.537300
vt 0.585200 -0.661600
vt 0.520800 -0.661600
vt 0.649500 -0.661600
vt 0.886900 -0.422600
vt 0.886900 -0.000400
vt 0.964700 -0.422600
vt 0.964700 -0.098800
vt 0.809200 -0.422600
vt 0.809200 0.000500
vt 0.193600 -0.643100
vt 0.193600 -0.643100
vt 0.193600 -0.643100
vt 0.193600 -0.643100
vt 0.876300 -0.422600
vt 0.788900 -0.422600
vt 0.887100 -0.699700
vt 0.826900 -0.699700
vt 0.988000 -0.422600
vt 0.947300 -0.699700
vt 0.193600 -0.643100
vt 0.792100 -0.857100
vt 0.792100 -0.958900
vt 0.994900 -0.857100
vt 0.994900 -0.950100
vt 0.792100 -0.757400
vt 0.994900 -0.782900
vt 0.627500 -0.899300
vt 0.627500 -0.964600
vt 0.760700 -0.899300
vt 0.760700 -0.945500
vt 0.627500 -0.834100
vt 0.760700 -0.853200
vt 0.243900 -0.500100
vt 0.585200 -0.699900
vt 0.668500 -0.857100
vt 0.439200 -0.899300
vt 0.443400 -0.000600
vt 0.443400 -0.573100
vt 0.243900 -0.080800
vt 0.243900 -0.565400
vt 0.468400 -0.003700
vt 0.677600 -0.003700
vt 0.491800 -0.519000
vt 0.654200 -0.519000
vt 0.243800 -0.810100
vt 0.485500 -0.519000
vt 0.243900 -0.731800
vt 0.243900 -0.268300
vt 0.243900 -0.686000
vt 0.243900 -0.314100
vt 0.700800 -0.519000
vt 0.243800 -0.190000
vt 0.243900 -0.268300
vt 0.243900 -0.731800
vt 0.243900 -0.314100
vt 0.243900 -0.686000
vt 0.677600 -0.003700
vt 0.468400 -0.003700
vt 0.654200 -0.519000
vt 0.491800 -0.519000
vt 0.455800 -0.573100
vt 0.443400 -0.000600
vt 0.243900 -0.565400
vt 0.243900 -0.080800
vt 0.627500 -0.899300
vt 0.792100 -0.857100
vt 0.193600 -0.643100
vt 0.193600 -0.643100
vt 0.585200 -0.661600
vt 0.243900 -0.500100
vt 0.760700 -0.899300
vt 0.994900 -0.857100
vt 0.193600 -0.643100
vt 0.887100 -0.422600
vt 0.887100 -0.699700
vt 0.193600 -0.643100
vt 0.193600 -0.643100
vt 0.888100 -0.422600
vt 0.888100 -0.001600
vt 0.585200 -0.519000
vt 0.007900 -0.170800
vt 0.202900 -0.271200
vt 0.007900 -0.314600
vt 0.202900 -0.271200
vt 0.243900 -0.500100
vt 0.193600 -0.643100
vt 0.193600 -0.643100
vt 0.585200 -0.003700
vt 0.436300 -0.003700
vt 0.734100 -0.003700
vt 0.243900 -0.500000
vt 0.243800 -0.893300
vt 0.243800 -0.126900
vt 0.443400 -0.500000
vt 0.443400 -0.999700
vt 0.443400 -0.100700
vt 0.023400 -0.904600
vt 0.007900 -0.654600
vt 0.203800 -0.814100
vt 0.203800 -0.620000
vt 0.046900 -0.057000
vt 0.164800 -0.189500
vt 0.046900 -0.307000
vt 0.164800 -0.341500
vt 0.007900 -0.345500
vn -0.901188 -0.371964 0.222491
vn -0.961101 -0.165656 0.221005
vn -0.977098 0.000000 0.212790
vn -0.977098 0.000000 0.212790
vn -0.790384 -0.574534 0.212614
vn -0.790460 -0.574414 0.212655
vn -0.790360 0.574516 0.212749
vn -0.790312 0.574593 0.212723
vn -0.790312 0.574593 0.212723
vn -0.790234 0.574715 0.212680
vn -0.885163 -0.446435 0.131085
vn -0.882681 -0.444900 0.151451
vn -0.979564 -0.139063 0.145309
vn -0.974464 0.154746 0.162708
vn -0.885392 0.445932 0.131249
vn -0.880778 0.443365 0.166307
vn -0.936712 0.000000 0.350101
vn -0.579245 -0.596055 0.556052
vn -0.579563 0.595716 0.556083
vn -0.991725 0.000000 0.128384
vn -0.854503 -0.507556 0.110509
vn -0.984691 0.000000 0.174308
vn -0.716178 -0.626125 0.308313
vn -0.854719 0.507191 0.110510
vn -0.716564 0.625678 0.308322
vn -0.398475 -0.633968 0.662799
vn -0.477314 -0.409348 0.777564
vn -0.692053 -0.248429 0.677750
vn -0.615597 0.000000 0.788061
vn -0.398629 0.634211 0.662473
vn -0.692053 0.248429 0.677750
vn -0.477293 0.409254 0.777626
vn -0.639946 -0.000000 0.768420
vn 0.000000 -0.629625 0.776899
vn 0.000000 0.629261 0.777194
vn 0.000000 -0.974844 0.222890
vn -0.000000 -0.974843 0.222895
vn -0.301893 -0.929358 0.212495
vn -0.301911 -0.929351 0.212500
vn 0.000000 0.974844 0.222890
vn -0.302243 0.929219 0.212604
vn 0.000000 0.974810 0.223035
vn -0.302820 0.928990 0.212785
vn -0.734195 -0.000000 0.678939
vn 0.000000 -0.734309 0.678815
vn 0.000000 0.733919 0.679237
vn -0.957659 0.281440 -0.060676
vn -0.944948 -0.321647 -0.060135
vn -0.308667 -0.949028 -0.063796
vn 0.352115 -0.933850 -0.062766
vn 0.309077 0.948929 -0.063278
vn -0.352126 0.933879 -0.062275
vn 0.000000 -0.748060 0.663631
vn -0.000000 -0.673862 0.738857
vn 0.000000 0.748060 0.663631
vn 0.000000 0.673862 0.738857
vn -0.957990 0.000000 0.286802
vn 0.000000 -0.942875 0.333146
vn -0.942054 0.000000 0.335463
vn 0.000000 -0.925272 0.379304
vn 0.000000 0.943023 0.332726
vn 0.000000 0.925675 0.378319
vn 0.000000 0.000000 1.000000
vn -0.976473 0.199207 -0.082565
vn -0.200081 -0.976273 -0.082815
vn -0.935346 -0.351843 0.036524
vn 0.352420 -0.935134 0.036386
vn 0.200081 0.976273 -0.082815
vn -0.353179 0.934834 0.036736
vn -0.983017 0.179303 -0.039085
vn -0.180639 -0.982764 -0.039292
vn -0.923481 -0.382081 0.034603
vn 0.383081 -0.923070 0.034513
vn 0.180639 0.982764 -0.039292
vn -0.384282 0.922560 0.034801
vn 0.000000 0.000000 1.000000
vn 0.000000 0.000000 1.000000
vn -0.000000 0.000000 -1.000000
vn 0.000000 0.000000 -1.000000
vn 0.000000 0.991082 0.133251
vn 0.000000 0.991082 0.133251
vn 0.000000 0.991082 0.133251
vn 0.000000 0.991082 0.133251
vn 0.000000 -0.994009 0.109294
vn 0.000000 -0.994009 0.109294
vn 0.000000 -0.994009 0.109294
vn 0.000000 -0.994009 0.109294
vn 0.579245 -0.596055 0.556052
vn 0.716178 -0.626125 0.308313
vn 0.000000 -0.975790 0.218711
vn 0.000000 -0.975790 0.218711
vn 0.000000 -0.975790 0.218711
vn 0.000000 -0.975790 0.218711
vn 0.716564 0.625678 0.308322
vn 0.579563 0.595716 0.556083
vn 0.000000 0.975790 0.218711
vn 0.000000 0.975790 0.218711
vn 0.000000 0.975790 0.218711
vn 0.000000 0.975790 0.218711
vn 0.000000 0.994009 0.109294
vn 0.000000 0.994009 0.109294
vn 0.000000 0.994009 0.109294
vn 0.000000 0.994009 0.109294
vn 0.000000 -0.991082 0.133252
vn 0.000000 -0.991082 0.133252
vn 0.000000 -0.991082 0.133252
vn 0.000000 -0.991082 0.133252
vn 0.983014 -0.179302 -0.039170
vn 0.976464 -0.199205 -0.082676
vn 0.477314 -0.409348 0.777564
vn 0.477293 0.409254 0.777626
vn 0.734195 -0.000000 0.678939
vn 0.639946 0.000000 0.768420
vn 0.923682 0.381582 0.034737
vn 0.935448 0.351554 0.036691
vn 0.615597 0.000000 0.788061
vn 0.957990 0.000000 0.286802
vn 0.942054 0.000000 0.335463
vn 0.398475 -0.633968 0.662799
vn 0.398629 0.634212 0.662473
vn 0.957610 -0.281550 -0.060932
vn 0.944963 0.321653 -0.059871
vn 0.984691 -0.000000 0.174308
vn 0.301893 -0.929358 0.212495
vn 0.301911 -0.929351 0.212500
vn 0.302243 0.929219 0.212604
vn 0.302820 0.928990 0.212785
vn 0.936712 0.000000 0.350101
vn 0.692053 -0.248429 0.677750
vn 0.692053 0.248429 0.677750
vn 0.991725 0.000000 0.128384
vn 0.854503 -0.507556 0.110509
vn 0.854719 0.507191 0.110510
vn 0.974457 -0.154775 0.162723
vn 0.880629 -0.443655 0.166322
vn 0.882813 0.444639 0.151450
vn 0.979571 0.139033 0.145295
vn 0.885267 -0.446179 0.131252
vn 0.885277 0.446215 0.131064
vn 0.790384 -0.574534 0.212614
vn 0.927053 -0.301298 0.223141
vn 0.790460 -0.574414 0.212655
vn 0.927097 -0.301145 0.223167
vn 0.790360 0.574516 0.212749
vn 0.790311 0.574593 0.212723
vn 0.790311 0.574593 0.212723
vn 0.961092 0.165706 0.221006
vn 0.977098 0.000000 0.212790
f 81/81/81 82/82/82 80/80/80 
f 83/83/83 82/82/82 81/81/81 
f 12/12/12 13/13/13 11/11/11 
f 19/19/19 33/33/33 35/35/35 
f 17/17/17 33/33/33 19/19/19 
f 17/17/17 18/18/18 33/33/33 
f 17/17/17 18/18/18 17/17/17 
f 17/17/17 12/12/12 18/18/18 
f 14/14/14 12/12/12 17/17/17 
f 14/14/14 13/13/13 12/12/12 
f 14/14/14 13/13/13 14/14/14 
f 14/14/14 15/15/15 13/13/13 
f 14/14/14 15/15/15 14/14/14 
f 14/14/14 16/16/16 15/15/15 
f 17/17/17 16/16/16 14/14/14 
f 17/17/17 19/19/19 16/16/16 
f 34/34/34 33/33/33 18/18/18 
f 76/76/76 33/33/33 34/34/34 
f 76/76/76 35/35/35 33/33/33 
f 76/76/76 35/35/35 76/76/76 
f 76/76/76 113/113/113 35/35/35 
f 34/34/34 113/113/113 76/76/76 
f 34/34/34 88/88/88 113/113/113 
f 18/18/18 88/88/88 34/34/34 
f 136/136/136 137/137/137 139/139/139 
f 134/134/134 137/137/137 136/136/136 
f 134/134/134 138/138/138 137/137/137 
f 134/134/134 138/138/138 134/134/134 
f 134/134/134 135/135/135 138/138/138 
f 128/128/128 135/135/135 134/134/134 
f 128/128/128 88/88/88 135/135/135 
f 128/128/128 88/88/88 128/128/128 
f 128/128/128 113/113/113 88/88/88 
f 95/95/95 113/113/113 128/128/128 
f 95/95/95 35/35/35 113/113/113 
f 19/19/19 35/35/35 95/95/95 
f 136/136/136 128/128/128 134/134/134 
f 95/95/95 128/128/128 136/136/136 
f 101/101/101 102/102/102 100/100/100 
f 103/103/103 102/102/102 101/101/101 
f 97/97/97 98/98/98 96/96/96 
f 99/99/99 98/98/98 97/97/97 
f 94/94/94 25/25/25 46/46/46 
f 46/46/46 77/77/77 112/112/112 
f 46/46/46 77/77/77 46/46/46 
f 46/46/46 44/44/44 77/77/77 
f 25/25/25 44/44/44 46/46/46 
f 25/25/25 22/22/22 44/44/44 
f 24/24/24 22/22/22 25/25/25 
f 24/24/24 22/22/22 22/22/22 
f 20/20/20 22/22/22 24/24/24 
f 20/20/20 22/22/22 22/22/22 
f 21/21/21 22/22/22 20/20/20 
f 21/21/21 22/22/22 22/22/22 
f 23/23/23 22/22/22 21/21/21 
f 23/23/23 44/44/44 22/22/22 
f 23/23/23 44/44/44 23/23/23 
f 23/23/23 45/45/45 44/44/44 
f 89/89/89 45/45/45 23/23/23 
f 44/44/44 77/77/77 44/44/44 
f 45/45/45 77/77/77 44/44/44 
f 45/45/45 112/112/112 77/77/77 
f 89/89/89 112/112/112 45/45/45 
f 89/89/89 123/123/123 112/112/112 
f 132/132/132 123/123/123 89/89/89 
f 132/132/132 123/123/123 123/123/123 
f 131/131/131 123/123/123 132/132/132 
f 131/131/131 123/123/123 123/123/123 
f 133/133/133 123/123/123 131/131/131 
f 133/133/133 123/123/123 123/123/123 
f 94/94/94 123/123/123 133/133/133 
f 94/94/94 112/112/112 123/123/123 
f 46/46/46 112/112/112 94/94/94 
f 8/8/8 9/9/9 7/7/7 
f 10/10/10 9/9/9 8/8/8 
f 6/6/6 1/1/1 5/5/5 
f 2/2/2 1/1/1 6/6/6 
f 2/2/2 3/3/3 1/1/1 
f 4/4/4 3/3/3 2/2/2 
f 145/145/145 146/146/146 144/144/144 
f 147/147/147 146/146/146 145/145/145 
f 141/141/141 142/142/142 140/140/140 
f 141/141/141 142/142/142 141/141/141 
f 141/141/141 143/143/143 142/142/142 
f 141/141/141 143/143/143 141/141/141 
f 141/141/141 147/147/147 143/143/143 
f 148/148/148 147/147/147 141/141/141 
f 105/105/105 106/106/106 104/104/104 
f 107/107/107 106/106/106 105/105/105 
f 91/91/91 92/92/92 90/90/90 
f 93/93/93 92/92/92 91/91/91 
f 85/85/85 86/86/86 84/84/84 
f 87/87/87 86/86/86 85/85/85 
f 58/58/58 59/59/59 57/57/57 
f 58/58/58 59/59/59 58/58/58 
f 58/58/58 60/60/60 59/59/59 
f 58/58/58 60/60/60 58/58/58 
f 58/58/58 118/118/118 60/60/60 
f 117/117/117 118/118/118 58/58/58 
f 117/117/117 118/118/118 118/118/118 
f 61/61/61 118/118/118 117/117/117 
f 61/61/61 62/62/62 118/118/118 
f 61/61/61 62/62/62 61/61/61 
f 61/61/61 59/59/59 62/62/62 
f 57/57/57 59/59/59 61/61/61 
f 52/52/52 47/47/47 51/51/51 
f 48/48/48 47/47/47 52/52/52 
f 48/48/48 49/49/49 47/47/47 
f 50/50/50 49/49/49 48/48/48 
f 50/50/50 121/121/121 49/49/49 
f 122/122/122 121/121/121 50/50/50 
f 122/122/122 51/51/51 121/121/121 
f 52/52/52 51/51/51 122/122/122 
f 29/29/29 31/31/31 28/28/28 
f 32/32/32 31/31/31 29/29/29 
f 32/32/32 30/30/30 31/31/31 
f 56/56/56 30/30/30 32/32/32 
f 56/56/56 55/55/55 30/30/30 
f 56/56/56 55/55/55 56/56/56 
f 56/56/56 120/120/120 55/55/55 
f 111/111/111 120/120/120 56/56/56 
f 111/111/111 130/130/130 120/120/120 
f 116/116/116 130/130/130 111/111/111 
f 116/116/116 129/129/129 130/130/130 
f 63/63/63 56/56/56 32/32/32 
f 63/63/63 56/56/56 63/63/63 
f 63/63/63 111/111/111 56/56/56 
f 63/63/63 111/111/111 63/63/63 
f 63/63/63 116/116/116 111/111/111 
f 63/63/63 116/116/116 63/63/63 
f 63/63/63 110/110/110 116/116/116 
f 63/63/63 110/110/110 63/63/63 
f 63/63/63 54/54/54 110/110/110 
f 27/27/27 54/54/54 63/63/63 
f 116/116/116 129/129/129 116/116/116 
f 110/110/110 129/129/129 116/116/116 
f 110/110/110 119/119/119 129/129/129 
f 54/54/54 119/119/119 110/110/110 
f 54/54/54 53/53/53 119/119/119 
f 54/54/54 53/53/53 54/54/54 
f 54/54/54 26/26/26 53/53/53 
f 27/27/27 26/26/26 54/54/54 
f 27/27/27 28/28/28 26/26/26 
f 27/27/27 28/28/28 27/27/27 
f 27/27/27 29/29/29 28/28/28 
f 63/63/63 29/29/29 27/27/27 
f 63/63/63 32/32/32 29/29/29 
f 43/43/43 41/41/41 43/43/43 
f 42/42/42 41/41/41 43/43/43 
f 42/42/42 40/40/40 41/41/41 
f 42/42/42 40/40/40 42/42/42 
f 42/42/42 126/126/126 40/40/40 
f 127/127/127 126/126/126 42/42/42 
f 66/66/66 64/64/64 66/66/66 
f 69/69/69 64/64/64 66/66/66 
f 69/69/69 68/68/68 64/64/64 
f 115/115/115 68/68/68 69/69/69 
f 115/115/115 109/109/109 68/68/68 
f 67/67/67 109/109/109 115/115/115 
f 67/67/67 65/65/65 109/109/109 
f 66/66/66 65/65/65 67/67/67 
f 66/66/66 65/65/65 65/65/65 
f 64/64/64 65/65/65 66/66/66 
f 64/64/64 78/78/78 65/65/65 
f 68/68/68 78/78/78 64/64/64 
f 68/68/68 78/78/78 78/78/78 
f 109/109/109 78/78/78 68/68/68 
f 109/109/109 65/65/65 78/78/78 
f 75/75/75 74/74/74 75/75/75 
f 114/114/114 74/74/74 75/75/75 
f 114/114/114 108/108/108 74/74/74 
f 73/73/73 108/108/108 114/114/114 
f 73/73/73 71/71/71 108/108/108 
f 72/72/72 71/71/71 73/73/73 
f 72/72/72 70/70/70 71/71/71 
f 75/75/75 70/70/70 72/72/72 
f 75/75/75 70/70/70 70/70/70 
f 74/74/74 70/70/70 75/75/75 
f 74/74/74 79/79/79 70/70/70 
f 108/108/108 79/79/79 74/74/74 
f 108/108/108 79/79/79 79/79/79 
f 71/71/71 79/79/79 108/108/108 
f 71/71/71 70/70/70 79/79/79 
f 125/125/125 124/124/124 125/125/125 
f 37/37/37 124/124/124 125/125/125 
f 37/37/37 36/36/36 124/124/124 
f 37/37/37 36/36/36 37/37/37 
f 37/37/37 38/38/38 36/36/36 
f 39/39/39 38/38/38 37/37/37 
