v -0.096200 0.000100 -0.000200
v -0.096200 0.365800 -0.000200
v -0.083500 0.000100 -0.047400
v -0.083500 0.365800 -0.047400
v -0.083500 0.000100 0.047000
v -0.083500 0.365800 0.047000
v -0.096200 0.000100 -0.000200
v -0.096200 0.365800 -0.000200
v -0.076300 0.416900 -0.000200
v -0.066300 0.416900 -0.037500
v -0.066300 0.416900 0.037100
v -0.076300 0.416900 -0.000200
v -0.084800 0.083000 0.049200
v -0.049700 0.083000 0.083900
v -0.084500 0.299600 0.050100
v -0.050100 0.299600 0.083900
v -0.048900 0.000100 -0.082000
v -0.048900 0.365800 -0.082000
v -0.048900 0.000100 0.081600
v -0.048900 0.365800 0.081600
v -0.039000 0.416900 -0.064800
v -0.039000 0.416900 0.064400
v -0.026900 0.470300 -0.014700
v -0.030800 0.470300 -0.000200
v -0.030800 0.470300 -0.000200
v -0.026900 0.470300 0.014300
v -0.016200 0.470300 -0.025400
v -0.016200 0.470300 0.025000
v -0.096200 0.000100 -0.000200
v -0.083500 0.000100 -0.047400
v -0.001600 0.035500 -0.000200
v -0.083500 0.000100 0.047000
v -0.026900 0.697600 -0.014700
v -0.030800 0.697600 -0.000200
v -0.030800 0.697600 -0.000200
v -0.026900 0.697600 0.014300
v -0.001700 0.083000 0.096800
v -0.002000 0.299600 0.096700
v -0.001600 0.000100 -0.094700
v -0.001600 0.365800 -0.094700
v -0.001600 0.000100 0.094300
v -0.001600 0.365800 0.094300
v -0.048900 0.000100 -0.082000
v -0.048900 0.000100 0.081600
v -0.001600 0.416900 0.074400
v -0.001600 0.416900 -0.074900
v -0.016200 0.697600 -0.025400
v -0.016200 0.697600 0.025000
v -0.016200 0.697600 -0.025400
v -0.026900 0.697600 -0.014700
v -0.001600 0.697600 -0.000100
v -0.030800 0.697600 -0.000200
v -0.001600 0.470300 0.028900
v -0.001600 0.470300 -0.029300
v -0.026900 0.697600 0.014300
v -0.016200 0.697600 0.025000
v -0.001600 0.697600 0.028900
v -0.001600 0.000100 -0.094700
v -0.001600 0.000100 0.094300
v -0.001600 0.697600 -0.029300
v -0.001600 0.697600 0.028900
v -0.001600 0.697600 -0.029300
v 0.012800 0.697600 0.025000
v 0.012800 0.470300 -0.025400
v 0.012800 0.697600 -0.025400
v 0.012800 0.470300 0.025000
v 0.012800 0.697600 0.025000
v 0.045500 0.000100 -0.082000
v 0.045500 0.000100 0.081600
v 0.023500 0.697600 -0.014700
v 0.012800 0.697600 -0.025400
v 0.027400 0.697600 -0.000100
v 0.035600 0.416900 -0.064800
v 0.035600 0.416900 0.064400
v 0.023500 0.697600 0.014300
v 0.023500 0.470300 -0.014700
v 0.023500 0.697600 -0.014700
v 0.023500 0.470300 0.014300
v 0.023500 0.697600 0.014300
v 0.045500 0.365800 -0.082000
v 0.045500 0.365800 0.081600
v 0.045500 0.000100 -0.082000
v 0.045500 0.000100 0.081600
v 0.046700 0.083000 0.083500
v 0.046500 0.299600 0.083300
v 0.080100 0.000100 -0.047400
v 0.080100 0.000100 0.047000
v 0.027400 0.470300 -0.000100
v 0.027400 0.697600 -0.000100
v 0.092800 0.000100 -0.000100
v 0.062900 0.416900 0.037100
v 0.063000 0.416900 -0.037500
v 0.073000 0.416900 -0.000100
v 0.080100 0.365800 0.047000
v 0.080100 0.365800 -0.047400
v 0.080100 0.000100 -0.047400
v 0.080100 0.000100 0.047000
v 0.081400 0.083000 0.049000
v 0.081600 0.299600 0.049000
v 0.092800 0.365800 -0.000100
v 0.092800 0.000100 -0.000100
vt 0.003300 -2.000000
vt 0.003300 -1.475800
vt 0.041000 -2.000000
vt 0.041000 -1.475800
vt 0.040700 -2.000000
vt 0.040700 -1.475800
vt 0.002600 -2.000000
vt 0.002600 -1.475800
vt 0.003300 -1.402500
vt 0.041000 -1.402500
vt 0.040700 -1.402500
vt 0.002600 -1.402500
vt 0.237800 -1.004600
vt 0.434300 -1.004600
vt 0.237800 0.000100
vt 0.434300 0.000100
vt 0.078800 -2.000000
vt 0.078800 -1.475800
vt 0.078700 -2.000000
vt 0.078700 -1.475800
vt 0.078800 -1.402500
vt 0.078700 -1.402500
vt 0.041000 -1.326000
vt 0.003300 -1.326000
vt 0.002600 -1.326000
vt 0.040700 -1.326000
vt 0.078800 -1.326000
vt 0.078700 -1.326000
vt 1.199900 -1.172100
vt 1.212200 -1.173800
vt 1.202700 -1.195900
vt 1.188300 -1.176700
vt 0.041000 -1.003300
vt 0.003300 -1.003300
vt 0.002600 -1.003300
vt 0.040700 -1.003300
vt 0.630900 -1.004600
vt 0.630900 0.000100
vt 0.116600 -2.000000
vt 0.116600 -1.475800
vt 0.116800 -2.000000
vt 0.116800 -1.475800
vt 1.222000 -1.181500
vt 1.180600 -1.186500
vt 0.116800 -1.402500
vt 0.116600 -1.402500
vt 0.078800 -1.003300
vt 0.078700 -1.003300
vt 1.204700 -1.059500
vt 1.196100 -1.052700
vt 1.187700 -1.072200
vt 1.185200 -1.051200
vt 0.116800 -1.326000
vt 0.116600 -1.326000
vt 1.175000 -1.055200
vt 1.168300 -1.063900
vt 1.166700 -1.074700
vt 1.226600 -1.193100
vt 1.178800 -1.198800
vt 0.116600 -1.003300
vt 0.116800 -1.003300
vt 1.208800 -1.069700
vt 1.170800 -1.084900
vt 0.154300 -1.326000
vt 0.154300 -1.003300
vt 0.154900 -1.326000
vt 0.154900 -1.003300
vt 1.224800 -1.205400
vt 1.183500 -1.210300
vt 1.200400 -1.089200
vt 1.207200 -1.080600
vt 1.190200 -1.093300
vt 0.154300 -1.402500
vt 0.154900 -1.402500
vt 1.179400 -1.091700
vt 0.192100 -1.326000
vt 0.192100 -1.003300
vt 0.192900 -1.326000
vt 0.192900 -1.003300
vt 0.154300 -1.475800
vt 0.154800 -1.475800
vt 0.154300 -2.000000
vt 0.154800 -2.000000
vt 0.814400 -1.004600
vt 0.814400 0.000100
vt 1.217100 -1.215200
vt 1.193200 -1.218000
vt 0.231000 -1.326000
vt 0.231000 -1.003300
vt 1.205600 -1.219800
vt 0.192900 -1.402500
vt 0.192100 -1.402500
vt 0.231000 -1.402500
vt 0.192900 -1.475800
vt 0.192100 -1.475800
vt 0.192100 -2.000000
vt 0.192900 -2.000000
vt 0.997900 -1.004600
vt 0.997900 0.000100
vt 0.231000 -1.475800
vt 0.231000 -2.000000
vn -0.965655 0.000000 -0.259827
vn -0.965364 0.024550 -0.259748
vn -0.906721 0.000000 -0.421731
vn -0.823815 0.055263 -0.564159
vn -0.817843 0.000000 0.575441
vn -0.897729 0.044504 0.438294
vn -0.965655 0.000000 0.259827
vn -0.962959 0.074963 0.259019
vn -0.846095 0.482189 -0.227195
vn -0.716968 0.542627 -0.437621
vn -0.777652 0.506734 0.372127
vn -0.826602 0.517318 0.221609
vn -0.703042 -0.001981 0.711146
vn -0.494442 -0.000942 0.869210
vn -0.701963 -0.001642 0.712211
vn -0.491814 -0.000908 0.870700
vn -0.575111 0.000000 -0.818076
vn -0.427793 0.032963 -0.903275
vn -0.421194 0.000000 0.906971
vn -0.558989 0.044564 0.827977
vn -0.425920 0.484028 -0.764401
vn -0.487379 0.506730 0.711116
vn -0.853646 0.284651 -0.436191
vn -0.962088 0.086171 -0.258768
vn -0.904093 0.351582 0.242912
vn -0.835567 0.177188 0.520031
vn -0.518719 0.176972 -0.836428
vn -0.434924 0.284621 0.854302
vn 0.350472 -0.936573 0.000000
vn 0.303605 -0.936485 0.175557
vn -0.000000 -1.000000 0.000000
vn 0.303605 -0.936485 -0.175557
vn -0.865270 0.000000 -0.501307
vn -0.965680 0.000000 -0.259735
vn -0.965680 0.000000 0.259735
vn -0.865270 0.000000 0.501307
vn 0.094809 0.000702 0.995495
vn -0.084756 0.000149 0.996402
vn -0.089268 0.000000 -0.996008
vn 0.070346 0.044515 -0.996529
vn 0.089393 0.000000 0.995996
vn -0.070357 0.044553 0.996526
vn 0.175455 -0.936440 0.303801
vn 0.175455 -0.936440 -0.303801
vn -0.067023 0.506820 0.859442
vn 0.067147 0.506874 -0.859401
vn -0.499821 0.000000 -0.866129
vn -0.499821 0.000000 0.866129
vn 0.000000 1.000000 0.000000
vn 0.000000 1.000000 0.000000
vn 0.000000 1.000000 0.000000
vn 0.000000 1.000000 0.000000
vn -0.025572 0.218610 0.975477
vn 0.025242 0.220055 -0.975161
vn 0.000000 1.000000 0.000000
vn 0.000000 1.000000 0.000000
vn 0.000000 1.000000 0.000000
vn 0.000000 -0.936451 0.350798
vn 0.000000 -0.936451 -0.350798
vn -0.089094 0.000000 -0.996023
vn 0.089501 0.000000 0.995987
vn 0.000000 1.000000 0.000000
vn 0.000000 1.000000 0.000000
vn 0.437829 0.284941 -0.852710
vn 0.502800 0.000000 -0.864403
vn 0.521348 0.177406 0.834699
vn 0.502800 0.000000 0.864403
vn -0.175941 -0.936318 0.303898
vn -0.175941 -0.936318 -0.303898
vn 0.000000 1.000000 0.000000
vn 0.000000 1.000000 0.000000
vn 0.000000 1.000000 0.000000
vn 0.488377 0.506544 -0.710564
vn 0.372781 0.506668 0.777381
vn 0.000000 1.000000 0.000000
vn 0.836237 0.177309 -0.518912
vn 0.866129 0.000000 -0.499821
vn 0.852710 0.284941 0.437829
vn 0.864403 0.000000 0.502800
vn 0.559791 0.044432 -0.827442
vn 0.438820 0.044528 0.897471
vn 0.422269 0.000000 -0.906471
vn 0.575772 0.000000 0.817610
vn 0.498608 0.001261 0.866827
vn 0.497091 0.000677 0.867698
vn -0.304187 -0.936273 0.175678
vn -0.304001 -0.936273 -0.176000
vn 0.975128 0.220154 0.025629
vn 0.996023 0.000000 -0.089094
vn -0.351123 -0.936329 0.000000
vn 0.710251 0.506648 0.488724
vn 0.777685 0.506645 -0.372178
vn 0.859353 0.506846 0.067962
vn 0.827442 0.044432 0.559791
vn 0.897956 0.044369 -0.437843
vn 0.818076 0.000000 -0.575111
vn 0.906471 0.000000 0.422269
vn 0.701987 0.000329 0.712190
vn 0.698909 -0.000645 0.715210
vn 0.996526 0.044435 0.070433
vn 0.996008 0.000000 -0.089268
f 14/14/14 15/15/15 13/13/13 
f 14/14/14 15/15/15 14/14/14 
f 14/14/14 16/16/16 15/15/15 
f 14/14/14 16/16/16 14/14/14 
f 14/14/14 38/38/38 16/16/16 
f 37/37/37 38/38/38 14/14/14 
f 37/37/37 85/85/85 38/38/38 
f 84/84/84 85/85/85 37/37/37 
f 84/84/84 85/85/85 85/85/85 
f 98/98/98 85/85/85 84/84/84 
f 98/98/98 99/99/99 85/85/85 
f 79/79/79 66/66/66 79/79/79 
f 67/67/67 66/66/66 79/79/79 
f 67/67/67 61/61/61 66/66/66 
f 89/89/89 88/88/88 76/76/76 
f 79/79/79 88/88/88 89/89/89 
f 79/79/79 78/78/78 88/88/88 
f 66/66/66 78/78/78 79/79/79 
f 66/66/66 91/91/91 78/78/78 
f 66/66/66 91/91/91 66/66/66 
f 66/66/66 74/74/74 91/91/91 
f 66/66/66 74/74/74 66/66/66 
f 66/66/66 53/53/53 74/74/74 
f 61/61/61 53/53/53 66/66/66 
f 61/61/61 48/48/48 53/53/53 
f 93/93/93 78/78/78 91/91/91 
f 26/26/26 48/48/48 36/36/36 
f 28/28/28 48/48/48 26/26/26 
f 28/28/28 53/53/53 48/48/48 
f 45/45/45 53/53/53 28/28/28 
f 45/45/45 74/74/74 53/53/53 
f 42/42/42 74/74/74 45/45/45 
f 42/42/42 74/74/74 74/74/74 
f 81/81/81 74/74/74 42/42/42 
f 81/81/81 91/91/91 74/74/74 
f 94/94/94 91/91/91 81/81/81 
f 94/94/94 93/93/93 91/91/91 
f 22/22/22 6/6/6 20/20/20 
f 22/22/22 6/6/6 22/22/22 
f 22/22/22 11/11/11 6/6/6 
f 22/22/22 11/11/11 22/22/22 
f 22/22/22 26/26/26 11/11/11 
f 22/22/22 26/26/26 22/22/22 
f 22/22/22 28/28/28 26/26/26 
f 22/22/22 28/28/28 22/22/22 
f 22/22/22 45/45/45 28/28/28 
f 20/20/20 45/45/45 22/22/22 
f 20/20/20 42/42/42 45/45/45 
f 20/20/20 5/5/5 19/19/19 
f 6/6/6 5/5/5 20/20/20 
f 6/6/6 7/7/7 5/5/5 
f 6/6/6 7/7/7 6/6/6 
f 6/6/6 8/8/8 7/7/7 
f 11/11/11 8/8/8 6/6/6 
f 11/11/11 12/12/12 8/8/8 
f 11/11/11 12/12/12 11/11/11 
f 11/11/11 25/25/25 12/12/12 
f 26/26/26 25/25/25 11/11/11 
f 26/26/26 35/35/35 25/25/25 
f 26/26/26 35/35/35 26/26/26 
f 26/26/26 36/36/36 35/35/35 
f 95/95/95 101/101/101 96/96/96 
f 100/100/100 101/101/101 95/95/95 
f 100/100/100 97/97/97 101/101/101 
f 94/94/94 97/97/97 100/100/100 
f 94/94/94 83/83/83 97/97/97 
f 81/81/81 83/83/83 94/94/94 
f 81/81/81 41/41/41 83/83/83 
f 42/42/42 41/41/41 81/81/81 
f 42/42/42 19/19/19 41/41/41 
f 20/20/20 19/19/19 42/42/42 
f 94/94/94 93/93/93 94/94/94 
f 100/100/100 93/93/93 94/94/94 
f 100/100/100 92/92/92 93/93/93 
f 95/95/95 92/92/92 100/100/100 
f 95/95/95 73/73/73 92/92/92 
f 80/80/80 73/73/73 95/95/95 
f 80/80/80 46/46/46 73/73/73 
f 40/40/40 46/46/46 80/80/80 
f 40/40/40 21/21/21 46/46/46 
f 18/18/18 21/21/21 40/40/40 
f 18/18/18 21/21/21 21/21/21 
f 4/4/4 21/21/21 18/18/18 
f 2/2/2 3/3/3 1/1/1 
f 4/4/4 3/3/3 2/2/2 
f 4/4/4 17/17/17 3/3/3 
f 18/18/18 17/17/17 4/4/4 
f 18/18/18 39/39/39 17/17/17 
f 40/40/40 39/39/39 18/18/18 
f 40/40/40 82/82/82 39/39/39 
f 80/80/80 82/82/82 40/40/40 
f 80/80/80 96/96/96 82/82/82 
f 95/95/95 96/96/96 80/80/80 
f 9/9/9 4/4/4 2/2/2 
f 4/4/4 10/10/10 21/21/21 
f 9/9/9 10/10/10 4/4/4 
f 9/9/9 23/23/23 10/10/10 
f 24/24/24 23/23/23 9/9/9 
f 24/24/24 33/33/33 23/23/23 
f 34/34/34 33/33/33 24/24/24 
f 10/10/10 27/27/27 10/10/10 
f 23/23/23 27/27/27 10/10/10 
f 23/23/23 27/27/27 27/27/27 
f 33/33/33 27/27/27 23/23/23 
f 33/33/33 27/27/27 27/27/27 
f 47/47/47 27/27/27 33/33/33 
f 47/47/47 27/27/27 27/27/27 
f 60/60/60 27/27/27 47/47/47 
f 60/60/60 54/54/54 27/27/27 
f 65/65/65 54/54/54 60/60/60 
f 65/65/65 64/64/64 54/54/54 
f 65/65/65 64/64/64 65/65/65 
f 65/65/65 76/76/76 64/64/64 
f 77/77/77 76/76/76 65/65/65 
f 77/77/77 76/76/76 76/76/76 
f 89/89/89 76/76/76 77/77/77 
f 78/78/78 88/88/88 78/78/78 
f 93/93/93 88/88/88 78/78/78 
f 93/93/93 88/88/88 88/88/88 
f 92/92/92 88/88/88 93/93/93 
f 92/92/92 76/76/76 88/88/88 
f 73/73/73 76/76/76 92/92/92 
f 73/73/73 64/64/64 76/76/76 
f 46/46/46 64/64/64 73/73/73 
f 46/46/46 54/54/54 64/64/64 
f 21/21/21 54/54/54 46/46/46 
f 21/21/21 27/27/27 54/54/54 
f 10/10/10 27/27/27 21/21/21 
f 58/58/58 31/31/31 43/43/43 
f 68/68/68 31/31/31 58/58/58 
f 68/68/68 31/31/31 31/31/31 
f 86/86/86 31/31/31 68/68/68 
f 86/86/86 31/31/31 31/31/31 
f 90/90/90 31/31/31 86/86/86 
f 90/90/90 31/31/31 31/31/31 
f 87/87/87 31/31/31 90/90/90 
f 87/87/87 31/31/31 31/31/31 
f 69/69/69 31/31/31 87/87/87 
f 69/69/69 31/31/31 31/31/31 
f 59/59/59 31/31/31 69/69/69 
f 59/59/59 31/31/31 31/31/31 
f 44/44/44 31/31/31 59/59/59 
f 44/44/44 31/31/31 31/31/31 
f 32/32/32 31/31/31 44/44/44 
f 32/32/32 31/31/31 31/31/31 
f 29/29/29 31/31/31 32/32/32 
f 29/29/29 31/31/31 31/31/31 
f 30/30/30 31/31/31 29/29/29 
f 30/30/30 43/43/43 31/31/31 
f 50/50/50 51/51/51 49/49/49 
f 52/52/52 51/51/51 50/50/50 
f 52/52/52 51/51/51 51/51/51 
f 55/55/55 51/51/51 52/52/52 
f 55/55/55 51/51/51 51/51/51 
f 56/56/56 51/51/51 55/55/55 
f 56/56/56 51/51/51 51/51/51 
f 57/57/57 51/51/51 56/56/56 
f 57/57/57 51/51/51 51/51/51 
f 63/63/63 51/51/51 57/57/57 
f 63/63/63 51/51/51 51/51/51 
f 75/75/75 51/51/51 63/63/63 
f 75/75/75 51/51/51 51/51/51 
f 72/72/72 51/51/51 75/75/75 
f 72/72/72 51/51/51 51/51/51 
f 70/70/70 51/51/51 72/72/72 
f 70/70/70 51/51/51 51/51/51 
f 71/71/71 51/51/51 70/70/70 
f 71/71/71 51/51/51 51/51/51 
f 62/62/62 51/51/51 71/71/71 
f 62/62/62 49/49/49 51/51/51 
