v -0.233000 0.197200 -0.036100
v -0.243900 0.170300 -0.051900
v -0.222500 0.182300 -0.043800
v -0.231500 0.162400 -0.055900
v -0.222000 0.193100 0.012200
v -0.215700 0.199400 0.000300
v -0.190100 0.179300 0.022500
v -0.195500 0.193700 0.008400
v -0.159900 0.187100 -0.038500
v -0.157100 0.196700 -0.017300
v -0.100000 0.170100 0.023600
v -0.104300 0.187800 0.003600
v -0.059400 0.176500 -0.036500
v -0.059300 0.185100 -0.014900
v -0.009400 0.179900 0.006900
v -0.014200 0.165300 0.026500
v 0.023300 0.180900 -0.008400
v 0.024600 0.172400 -0.035100
v 0.068600 0.183600 0.003800
v 0.070700 0.170900 0.019500
v 0.116700 0.175200 -0.040200
v 0.121700 0.186700 -0.014600
v 0.172600 0.190800 0.007600
v 0.176100 0.173500 0.025900
v 0.209200 0.191400 -0.004100
v 0.198400 0.192100 -0.018900
v 0.225700 0.181000 -0.030200
v 0.213600 0.172200 -0.038600
v -0.272600 0.185100 0.024100
v -0.269900 0.199100 -0.009000
v -0.300600 0.182100 0.015300
v -0.293300 0.194900 -0.009000
v -0.274600 0.178400 -0.048800
v -0.298100 0.177900 -0.038100
v -0.310900 0.132200 -0.028300
v -0.218200 0.097900 -0.036000
v -0.310700 0.133500 0.012600
v -0.215000 0.098400 0.018100
v -0.318600 0.167700 -0.010100
v 0.000000 0.156500 -0.046100
v -0.274600 0.178400 -0.048800
v 0.000000 0.176400 -0.009000
v -0.269900 0.199100 -0.009000
v 0.000000 0.157300 0.029500
v -0.272600 0.185100 0.024100
v 0.000000 0.156500 -0.046100
v -0.218200 0.097900 -0.036000
v -0.274600 0.178400 -0.048800
v 0.000000 0.157300 0.029500
v -0.272600 0.185100 0.024100
v -0.215000 0.098400 0.018100
v 0.200100 0.098200 -0.034500
v 0.202200 0.097900 0.017800
v 0.275600 0.175900 -0.041900
v 0.276800 0.171600 0.026500
v 0.275600 0.175900 -0.041900
v 0.269300 0.193800 -0.005600
v 0.276800 0.171600 0.026500
v 0.299300 0.175900 -0.035600
v 0.294900 0.189100 -0.006100
v 0.318300 0.164200 -0.005100
v 0.305600 0.167800 0.019700
v 0.312900 0.128500 -0.024600
v 0.314600 0.130000 0.008500
v 0.202200 0.097900 0.017800
v 0.200100 0.098200 -0.034500
v 0.275600 0.175900 -0.041900
v 0.276800 0.171600 0.026500
v 0.269300 0.193800 -0.005600
v -0.257600 0.091300 -0.029400
v -0.239500 0.151500 -0.045600
v -0.236000 0.087600 -0.096700
v -0.225800 0.133800 -0.109500
v -0.246700 0.094300 0.029200
v -0.236200 0.084700 0.085600
v -0.231400 0.148700 0.042200
v -0.224300 0.141400 0.093500
v -0.194400 0.039100 -0.077300
v -0.224600 0.055900 -0.004700
v -0.194400 0.037700 0.068600
v -0.082100 0.098500 -0.121800
v -0.082100 0.097700 0.119600
v -0.099800 0.148700 -0.044400
v -0.089300 0.140100 -0.101500
v -0.089300 0.144700 0.093100
v -0.097400 0.146700 0.037700
v -0.239500 0.151500 -0.045600
v -0.257600 0.091300 -0.029400
v -0.149800 0.095500 -0.004600
v -0.149800 0.095500 -0.004600
v -0.257600 0.091300 -0.029400
v -0.224600 0.055900 -0.004700
v -0.231400 0.148700 0.042200
v -0.246700 0.094300 0.029200
v -0.246700 0.094300 0.029200
v -0.000900 0.005800 -0.077800
v -0.001200 0.002000 0.066100
v -0.088200 0.138800 -0.044500
v -0.085200 0.135900 0.037700
v -0.072900 0.136900 -0.101600
v -0.075600 0.149500 -0.044600
v -0.073900 0.146200 0.037800
v -0.072900 0.140900 0.092800
v 0.066300 0.149000 -0.044500
v 0.069900 0.139300 -0.102500
v 0.069300 0.138900 0.037900
v 0.069900 0.139100 0.096800
v 0.082100 0.098500 -0.121800
v 0.082100 0.099400 0.119600
v 0.195600 0.034500 0.069300
v 0.195600 0.035900 -0.078000
v 0.075700 0.138100 -0.044400
v 0.075800 0.127500 0.037700
v 0.229300 0.143200 -0.103000
v 0.086300 0.142900 -0.099500
v 0.230900 0.131900 0.102300
v 0.086300 0.141200 0.094900
v 0.086600 0.150200 -0.043900
v 0.088300 0.138600 0.037400
v 0.225700 0.059500 -0.003400
v 0.141900 0.089400 -0.006400
v 0.225700 0.059500 -0.003400
v 0.251800 0.101900 -0.031800
v 0.252800 0.097700 0.025200
v 0.227100 0.146600 0.038200
v 0.252800 0.097700 0.025200
v 0.141900 0.089400 -0.006400
v 0.228400 0.149400 -0.047800
v 0.251800 0.101900 -0.031800
v 0.228400 0.149400 -0.047800
v 0.227100 0.146600 0.038200
v 0.243200 0.093000 -0.090500
v 0.243200 0.088700 0.085200
v 0.251800 0.101900 -0.031800
v 0.252800 0.097700 0.025200
vt 0.070300 0.023400
vt 0.070300 0.023400
vt 0.070300 0.023400
vt 0.070300 0.023400
vt 0.070300 0.023400
vt 0.070300 0.023400
vt 0.070300 0.023400
vt 0.070300 0.023400
vt 0.070300 0.023400
vt 0.070300 0.023400
vt 0.070300 0.023400
vt 0.070300 0.023400
vt 0.070300 0.023400
vt 0.070300 0.023400
vt 0.070300 0.023400
vt 0.070300 0.023400
vt 0.070300 0.023400
vt 0.070300 0.023400
vt 0.070300 0.023400
vt 0.070300 0.023400
vt 0.070300 0.023400
vt 0.070300 0.023400
vt 0.070300 0.023400
vt 0.070300 0.023400
vt 0.070300 0.023400
vt 0.070300 0.023400
vt 0.070300 0.023400
vt 0.070300 0.023400
vt 0.140800 0.422800
vt 0.417400 0.450000
vt 0.168400 0.499900
vt 0.360800 0.542900
vt 0.586900 0.674400
vt 0.461400 0.693000
vt 0.359000 0.921700
vt 0.400000 0.995300
vt 0.042600 0.737400
vt 0.014700 0.741400
vt 0.252100 0.722200
vt 0.161000 0.019200
vt 0.654200 0.990300
vt 0.793100 0.018200
vt 0.991800 0.963700
vt 0.161000 0.019200
vt 0.654200 0.990300
vt 0.175800 0.305200
vt 0.175800 0.305200
vt 0.175800 0.305200
vt 0.175800 0.305200
vt 0.175800 0.305200
vt 0.175800 0.305200
vt 0.175800 0.305200
vt 0.175800 0.305200
vt 0.175800 0.305200
vt 0.175800 0.305200
vt 0.654200 0.990300
vt 0.991800 0.963700
vt 0.654200 0.990300
vt 0.503500 0.819400
vt 0.294100 0.978100
vt 0.260500 0.733800
vt 0.094300 0.765400
vt 0.508700 0.599900
vt 0.137900 0.492300
vt 0.107700 0.432300
vt 0.552100 0.625500
vt 0.534500 0.885900
vt 0.049900 0.803400
vt 0.314000 0.993700
vt 0.027600 0.021000
vt 0.027600 0.021000
vt 0.027600 0.021000
vt 0.027600 0.021000
vt 0.027600 0.021000
vt 0.027600 0.021000
vt 0.027600 0.021000
vt 0.027600 0.021000
vt 0.027600 0.021000
vt 0.027600 0.021000
vt 0.027600 0.021000
vt 0.027600 0.021000
vt 0.027600 0.021000
vt 0.027600 0.021000
vt 0.027600 0.021000
vt 0.027600 0.021000
vt 0.027600 0.021000
vt 0.117100 0.023400
vt 0.117100 0.023400
vt 0.117100 0.023400
vt 0.125000 0.023400
vt 0.125000 0.023400
vt 0.125000 0.023400
vt 0.117100 0.023400
vt 0.117100 0.023400
vt 0.125000 0.023400
vt 0.027600 0.021000
vt 0.027600 0.021000
vt 0.027600 0.021000
vt 0.027600 0.021000
vt 0.027600 0.021000
vt 0.027600 0.021000
vt 0.027600 0.021000
vt 0.027600 0.021000
vt 0.027600 0.021000
vt 0.027600 0.021000
vt 0.027600 0.021000
vt 0.027600 0.021000
vt 0.027600 0.021000
vt 0.027600 0.021000
vt 0.027600 0.021000
vt 0.027600 0.021000
vt 0.027600 0.021000
vt 0.027600 0.021000
vt 0.027600 0.021000
vt 0.027600 0.021000
vt 0.027600 0.021000
vt 0.027600 0.021000
vt 0.027600 0.021000
vt 0.027600 0.021000
vt 0.027600 0.021000
vt 0.125000 0.023400
vt 0.125000 0.023400
vt 0.125000 0.023400
vt 0.125000 0.023400
vt 0.117100 0.023400
vt 0.117100 0.023400
vt 0.117100 0.023400
vt 0.117100 0.023400
vt 0.117100 0.023400
vt 0.027600 0.021000
vt 0.027600 0.021000
vt 0.027600 0.021000
vt 0.027600 0.021000
vt 0.027600 0.021000
vt 0.027600 0.021000
vn -0.214789 -0.864622 0.454196
vn -0.050341 -0.495536 0.867128
vn -0.374142 -0.624738 0.685361
vn -0.043375 -0.504655 0.862231
vn 0.147300 -0.857881 -0.492284
vn -0.224901 -0.974221 0.017704
vn -0.251930 -0.723641 -0.642554
vn -0.033874 -0.947339 -0.318437
vn -0.036865 -0.908496 0.416264
vn -0.058943 -0.985788 -0.157312
vn -0.073504 -0.754618 -0.652034
vn -0.117149 -0.975396 -0.186756
vn -0.089840 -0.925169 0.368771
vn -0.086891 -0.981228 -0.172169
vn -0.036056 -0.989075 -0.142933
vn 0.006119 -0.802662 -0.596403
vn 0.035366 -0.992741 -0.114955
vn 0.057225 -0.950509 0.305382
vn 0.063886 -0.995811 -0.065409
vn 0.006145 -0.777059 -0.629398
vn 0.048655 -0.914625 0.401364
vn 0.094063 -0.991089 -0.094312
vn 0.033067 -0.959579 -0.279489
vn 0.121403 -0.709612 -0.694055
vn -0.179650 -0.942901 -0.280472
vn -0.101392 -0.956980 0.271863
vn -0.162038 -0.870888 0.464003
vn 0.011837 -0.698896 0.715125
vn -0.307199 0.087537 0.947611
vn -0.210715 0.975451 -0.063989
vn -0.336810 0.150160 0.929522
vn -0.538184 0.837890 -0.091097
vn -0.414732 0.030759 -0.909423
vn -0.409235 0.089163 -0.908062
vn -0.548161 -0.556943 -0.623967
vn -0.363636 -0.801835 -0.474162
vn -0.493769 -0.728511 0.474830
vn -0.292484 -0.586923 0.754967
vn -0.965327 0.257472 -0.043030
vn 0.009932 0.881189 -0.472660
vn 0.074406 0.879983 -0.469142
vn 0.021735 0.994365 -0.103761
vn 0.083442 0.992119 -0.093472
vn -0.004697 0.873361 0.487052
vn 0.079930 0.903644 0.420760
vn 0.007535 -0.155457 -0.987814
vn 0.000608 -0.172048 -0.985088
vn -0.002979 -0.159068 -0.987263
vn -0.004160 -0.140890 0.990017
vn -0.028696 -0.087971 0.995710
vn -0.013198 -0.143357 0.989583
vn 0.012481 -0.153751 -0.988031
vn 0.008008 -0.166941 0.985934
vn 0.023386 -0.117278 -0.992824
vn 0.017705 -0.134870 0.990705
vn -0.053402 0.885893 -0.460806
vn -0.056921 0.974568 0.216742
vn -0.036036 0.817976 0.574123
vn 0.360576 0.079722 -0.929317
vn 0.515424 0.854357 0.066422
vn 0.955445 0.288302 -0.063302
vn 0.334586 0.041229 0.941463
vn 0.469747 -0.525183 -0.709592
vn 0.413935 -0.828272 0.377654
vn 0.264759 -0.726164 0.634498
vn 0.278020 -0.799171 -0.532945
vn 0.255465 0.105604 -0.961034
vn 0.237956 0.069886 0.968758
vn 0.192354 0.975377 0.107885
vn -0.922456 -0.264220 -0.281537
vn -0.532302 0.772397 -0.346493
vn -0.589866 -0.405878 -0.698084
vn -0.159980 0.721138 -0.674066
vn -0.976212 -0.150441 0.156135
vn -0.607640 -0.340770 0.717391
vn -0.579571 0.787684 0.208927
vn -0.197588 0.713178 0.672560
vn -0.228573 -0.925606 -0.301674
vn -0.687780 -0.725404 -0.027338
vn -0.253189 -0.875064 0.412503
vn -0.051650 -0.235915 -0.970400
vn -0.071783 -0.226763 0.971301
vn 0.026506 0.978323 -0.205382
vn 0.205181 0.841895 -0.499114
vn 0.222196 0.854417 0.469681
vn 0.036487 0.996191 0.079200
vn -0.224403 0.315578 0.921983
vn -0.224403 0.315578 0.921983
vn -0.636532 0.740299 0.216296
vn -0.467523 0.882994 0.041758
vn -0.219480 0.412340 0.884197
vn -0.467523 0.882994 0.041758
vn -0.317130 0.303879 -0.898380
vn -0.317130 0.303879 -0.898380
vn -0.283614 0.537719 -0.793991
vn 0.034467 -0.915563 -0.400695
vn -0.044585 -0.925441 0.376260
vn 0.070748 0.952306 -0.296831
vn 0.129348 0.965214 0.227223
vn -0.137505 0.722784 -0.677256
vn -0.041844 0.980260 -0.193235
vn -0.003500 0.998898 0.046809
vn -0.142605 0.761713 0.632027
vn 0.074376 0.984311 -0.160001
vn 0.124626 0.903250 -0.410619
vn 0.123949 0.992278 -0.004632
vn 0.166769 0.941427 0.293091
vn 0.060166 -0.151551 -0.986617
vn 0.060177 -0.188503 0.980227
vn 0.233567 -0.927891 0.290628
vn 0.268687 -0.851878 -0.449567
vn -0.076020 0.947439 -0.310774
vn -0.034596 0.985682 0.165025
vn 0.168121 0.733502 -0.658567
vn -0.228974 0.817107 -0.529063
vn 0.173458 0.785324 0.594289
vn -0.196040 0.890765 0.410007
vn -0.041856 0.991773 -0.120974
vn -0.033813 0.995184 0.092005
vn 0.743494 -0.668688 -0.008605
vn 0.333358 0.940662 0.063464
vn 0.333358 0.940662 0.063464
vn 0.143410 0.488302 0.860810
vn 0.204927 0.489289 -0.847704
vn 0.230414 0.361300 -0.903533
vn 0.230414 0.361300 -0.903533
vn 0.468514 0.883138 -0.023690
vn 0.165604 0.387111 0.907039
vn 0.165604 0.387111 0.907039
vn 0.503261 0.853789 -0.133314
vn 0.434214 0.873969 0.218256
vn 0.616790 -0.331978 -0.713695
vn 0.622206 -0.393833 0.676576
vn 0.987000 -0.094020 -0.130348
vn 0.985773 -0.085080 0.144961
f 88/88/88 89/89/89 87/87/87 
f 89/89/89 94/94/94 93/93/93 
f 116/116/116 109/109/109 133/133/133 
f 107/107/107 109/109/109 107/107/107 
f 103/103/103 109/109/109 107/107/107 
f 103/103/103 82/82/82 109/109/109 
f 135/135/135 133/133/133 135/135/135 
f 131/131/131 133/133/133 135/135/135 
f 131/131/131 116/116/116 133/133/133 
f 119/119/119 116/116/116 131/131/131 
f 119/119/119 116/116/116 116/116/116 
f 117/117/117 116/116/116 119/119/119 
f 117/117/117 109/109/109 116/116/116 
f 113/113/113 109/109/109 117/117/117 
f 113/113/113 107/107/107 109/109/109 
f 106/106/106 107/107/107 113/113/113 
f 106/106/106 107/107/107 107/107/107 
f 102/102/102 107/107/107 106/106/106 
f 102/102/102 103/103/103 107/107/107 
f 113/113/113 117/117/117 119/119/119 
f 75/75/75 82/82/82 77/77/77 
f 102/102/102 103/103/103 102/102/102 
f 99/99/99 103/103/103 102/102/102 
f 99/99/99 82/82/82 103/103/103 
f 85/85/85 82/82/82 99/99/99 
f 85/85/85 77/77/77 82/82/82 
f 86/86/86 77/77/77 85/85/85 
f 86/86/86 77/77/77 77/77/77 
f 76/76/76 77/77/77 86/86/86 
f 76/76/76 75/75/75 77/77/77 
f 74/74/74 75/75/75 76/76/76 
f 74/74/74 75/75/75 75/75/75 
f 79/79/79 75/75/75 74/74/74 
f 79/79/79 80/80/80 75/75/75 
f 85/85/85 99/99/99 86/86/86 
f 135/135/135 120/120/120 135/135/135 
f 133/133/133 120/120/120 135/135/135 
f 133/133/133 110/110/110 120/120/120 
f 109/109/109 110/110/110 133/133/133 
f 109/109/109 97/97/97 110/110/110 
f 82/82/82 97/97/97 109/109/109 
f 82/82/82 80/80/80 97/97/97 
f 75/75/75 80/80/80 82/82/82 
f 79/79/79 80/80/80 79/79/79 
f 78/78/78 80/80/80 79/79/79 
f 78/78/78 97/97/97 80/80/80 
f 96/96/96 97/97/97 78/78/78 
f 96/96/96 110/110/110 97/97/97 
f 111/111/111 110/110/110 96/96/96 
f 111/111/111 120/120/120 110/110/110 
f 132/132/132 120/120/120 111/111/111 
f 132/132/132 134/134/134 120/120/120 
f 132/132/132 134/134/134 132/132/132 
f 132/132/132 130/130/130 134/134/134 
f 114/114/114 130/130/130 132/132/132 
f 108/108/108 111/111/111 96/96/96 
f 108/108/108 111/111/111 108/108/108 
f 108/108/108 132/132/132 111/111/111 
f 108/108/108 132/132/132 108/108/108 
f 108/108/108 114/114/114 132/132/132 
f 115/115/115 114/114/114 108/108/108 
f 100/100/100 108/108/108 81/81/81 
f 114/114/114 118/118/118 130/130/130 
f 115/115/115 118/118/118 114/114/114 
f 115/115/115 112/112/112 118/118/118 
f 108/108/108 112/112/112 115/115/115 
f 108/108/108 105/105/105 112/112/112 
f 100/100/100 105/105/105 108/108/108 
f 100/100/100 101/101/101 105/105/105 
f 100/100/100 101/101/101 100/100/100 
f 100/100/100 98/98/98 101/101/101 
f 81/81/81 98/98/98 100/100/100 
f 81/81/81 84/84/84 98/98/98 
f 98/98/98 84/84/84 83/83/83 
f 112/112/112 104/104/104 112/112/112 
f 105/105/105 104/104/104 112/112/112 
f 105/105/105 101/101/101 104/104/104 
f 81/81/81 72/72/72 73/73/73 
f 81/81/81 84/84/84 81/81/81 
f 73/73/73 84/84/84 81/81/81 
f 73/73/73 83/83/83 84/84/84 
f 73/73/73 83/83/83 73/73/73 
f 73/73/73 71/71/71 83/83/83 
f 72/72/72 71/71/71 73/73/73 
f 72/72/72 70/70/70 71/71/71 
f 72/72/72 70/70/70 72/72/72 
f 72/72/72 79/79/79 70/70/70 
f 72/72/72 79/79/79 72/72/72 
f 72/72/72 78/78/78 79/79/79 
f 81/81/81 78/78/78 72/72/72 
f 81/81/81 96/96/96 78/78/78 
f 108/108/108 96/96/96 81/81/81 
f 91/91/91 90/90/90 91/91/91 
f 92/92/92 90/90/90 91/91/91 
f 92/92/92 95/95/95 90/90/90 
f 124/124/124 121/121/121 124/124/124 
f 122/122/122 121/121/121 124/124/124 
f 122/122/122 123/123/123 121/121/121 
f 60/60/60 59/59/59 60/60/60 
f 61/61/61 59/59/59 60/60/60 
f 61/61/61 63/63/63 59/59/59 
f 60/60/60 69/69/69 60/60/60 
f 59/59/59 69/69/69 60/60/60 
f 59/59/59 67/67/67 69/69/69 
f 59/59/59 67/67/67 59/59/59 
f 59/59/59 66/66/66 67/67/67 
f 63/63/63 66/66/66 59/59/59 
f 63/63/63 64/64/64 66/66/66 
f 61/61/61 64/64/64 63/63/63 
f 61/61/61 62/62/62 64/64/64 
f 60/60/60 62/62/62 61/61/61 
f 60/60/60 62/62/62 62/62/62 
f 69/69/69 62/62/62 60/60/60 
f 69/69/69 62/62/62 62/62/62 
f 68/68/68 62/62/62 69/69/69 
f 68/68/68 62/62/62 62/62/62 
f 65/65/65 62/62/62 68/68/68 
f 65/65/65 64/64/64 62/62/62 
f 66/66/66 64/64/64 65/65/65 
f 127/127/127 129/129/129 128/128/128 
f 126/126/126 127/127/127 125/125/125 
f 52/52/52 46/46/46 54/54/54 
f 47/47/47 46/46/46 52/52/52 
f 47/47/47 48/48/48 46/46/46 
f 50/50/50 49/49/49 50/50/50 
f 51/51/51 49/49/49 50/50/50 
f 51/51/51 49/49/49 49/49/49 
f 53/53/53 49/49/49 51/51/51 
f 53/53/53 55/55/55 49/49/49 
f 35/35/35 39/39/39 35/35/35 
f 37/37/37 39/39/39 35/35/35 
f 37/37/37 31/31/31 39/39/39 
f 30/30/30 29/29/29 30/30/30 
f 31/31/31 29/29/29 30/30/30 
f 31/31/31 38/38/38 29/29/29 
f 37/37/37 38/38/38 31/31/31 
f 37/37/37 36/36/36 38/38/38 
f 35/35/35 36/36/36 37/37/37 
f 35/35/35 34/34/34 36/36/36 
f 39/39/39 34/34/34 35/35/35 
f 39/39/39 32/32/32 34/34/34 
f 31/31/31 32/32/32 39/39/39 
f 31/31/31 32/32/32 32/32/32 
f 30/30/30 32/32/32 31/31/31 
f 30/30/30 34/34/34 32/32/32 
f 33/33/33 34/34/34 30/30/30 
f 33/33/33 36/36/36 34/34/34 
f 57/57/57 42/42/42 57/57/57 
f 56/56/56 42/42/42 57/57/57 
f 56/56/56 42/42/42 42/42/42 
f 40/40/40 42/42/42 56/56/56 
f 40/40/40 42/42/42 42/42/42 
f 41/41/41 42/42/42 40/40/40 
f 41/41/41 42/42/42 42/42/42 
f 43/43/43 42/42/42 41/41/41 
f 43/43/43 42/42/42 42/42/42 
f 45/45/45 42/42/42 43/43/43 
f 45/45/45 42/42/42 42/42/42 
f 44/44/44 42/42/42 45/45/45 
f 44/44/44 57/57/57 42/42/42 
f 58/58/58 57/57/57 44/44/44 
f 17/17/17 15/15/15 18/18/18 
f 16/16/16 15/15/15 17/17/17 
f 16/16/16 15/15/15 15/15/15 
f 14/14/14 15/15/15 16/16/16 
f 14/14/14 13/13/13 15/15/15 
f 14/14/14 13/13/13 14/14/14 
f 14/14/14 12/12/12 13/13/13 
f 11/11/11 12/12/12 14/14/14 
f 11/11/11 12/12/12 12/12/12 
f 10/10/10 12/12/12 11/11/11 
f 10/10/10 9/9/9 12/12/12 
f 10/10/10 9/9/9 10/10/10 
f 10/10/10 8/8/8 9/9/9 
f 7/7/7 8/8/8 10/10/10 
f 7/7/7 8/8/8 7/7/7 
f 5/5/5 8/8/8 7/7/7 
f 5/5/5 6/6/6 8/8/8 
f 1/1/1 6/6/6 5/5/5 
f 1/1/1 3/3/3 6/6/6 
f 2/2/2 3/3/3 1/1/1 
f 2/2/2 4/4/4 3/3/3 
f 27/27/27 26/26/26 28/28/28 
f 25/25/25 26/26/26 27/27/27 
f 25/25/25 23/23/23 26/26/26 
f 24/24/24 23/23/23 25/25/25 
f 24/24/24 23/23/23 23/23/23 
f 22/22/22 23/23/23 24/24/24 
f 22/22/22 21/21/21 23/23/23 
f 22/22/22 21/21/21 22/22/22 
f 22/22/22 19/19/19 21/21/21 
f 20/20/20 19/19/19 22/22/22 
f 20/20/20 19/19/19 19/19/19 
f 17/17/17 19/19/19 20/20/20 
f 17/17/17 18/18/18 19/19/19 
