v -0.206000 0.015300 -0.153500
v -0.204700 0.000000 -0.148600
v -0.255900 0.015300 0.000000
v -0.251500 0.000000 0.002600
v -0.206400 0.015300 0.154300
v -0.201800 0.000000 0.153400
v -0.078000 0.015300 -0.250200
v -0.078000 0.000000 -0.245200
v -0.077100 0.015300 0.251100
v -0.073800 0.000000 0.247000
v -0.046100 0.315100 -0.003700
v -0.039700 0.315100 0.028000
v -0.037400 0.315100 -0.030700
v -0.020100 0.315100 -0.028500
v -0.033900 0.315100 0.010900
v -0.218400 0.015300 -0.075100
v -0.220300 0.015300 0.072300
v -0.014800 0.315100 0.045100
v -0.015600 0.315100 -0.045400
v -0.137100 0.015300 0.191600
v -0.133400 0.015300 -0.194300
v -0.218400 0.015300 -0.075100
v 0.137200 0.015300 -0.191700
v -0.133400 0.015300 -0.194300
v 0.000700 0.015300 -0.237700
v -0.055600 0.518500 -0.001500
v -0.053300 0.498100 -0.000400
v -0.046400 0.518500 0.036100
v -0.044300 0.498100 0.036100
v -0.044100 0.518500 -0.036300
v -0.042300 0.498100 -0.033600
v -0.251500 0.000000 0.002600
v -0.204700 0.000000 -0.148600
v 0.201700 0.000000 -0.151500
v 0.078900 0.000000 -0.244300
v -0.001700 0.315100 0.035600
v -0.001100 0.015300 0.238400
v -0.026900 0.495100 0.040300
v -0.042300 0.495100 -0.015300
v -0.026900 0.495100 0.040300
v -0.042300 0.495100 -0.015300
v -0.078000 0.000000 -0.245200
v 0.021300 0.315100 -0.026900
v 0.000700 0.015300 -0.237700
v -0.016400 0.518500 0.055300
v -0.014900 0.498100 0.053900
v -0.016500 0.498100 -0.053200
v -0.018300 0.518500 -0.056000
v -0.033200 0.528300 0.016500
v -0.033800 0.528300 -0.016500
v 0.001700 0.495100 -0.047200
v 0.001700 0.495100 -0.047200
v -0.220300 0.015300 0.072300
v 0.219800 0.015300 -0.072800
v -0.033200 0.528300 0.016500
v -0.033800 0.528300 -0.016500
v -0.008300 0.528300 -0.037200
v -0.008300 0.528300 -0.037200
v -0.008400 0.528300 0.036900
v -0.008400 0.528300 0.036900
v 0.018500 0.518500 -0.058900
v 0.017100 0.518500 0.056800
v 0.023700 0.528300 -0.028900
v -0.201800 0.000000 0.153400
v 0.249000 0.000000 0.000000
v 0.014500 0.315100 -0.044900
v 0.028100 0.495100 0.042300
v 0.014100 0.315100 0.045000
v 0.080200 0.015300 -0.249300
v 0.079400 0.015300 0.250000
v 0.018700 0.498100 -0.055700
v 0.078900 0.000000 -0.244300
v 0.018200 0.498100 0.055100
v 0.028100 0.495100 0.042300
v 0.079400 0.000000 0.244700
v 0.023900 0.528300 0.029500
v 0.023900 0.528300 0.029500
v 0.023700 0.528300 -0.028900
v 0.033000 0.315200 0.013000
v 0.037700 0.315100 0.028100
v 0.038100 0.528300 -0.000500
v 0.048600 0.518500 0.033900
v 0.048300 0.518500 -0.037800
v 0.047700 0.498100 0.033100
v 0.218900 0.015300 0.072800
v -0.137100 0.015300 0.191600
v 0.038100 0.528300 -0.000500
v 0.058600 0.518500 -0.001900
v 0.046700 0.495100 -0.014600
v 0.046700 0.315100 -0.000300
v 0.037500 0.315100 -0.028400
v 0.046700 0.495100 -0.014600
v 0.047400 0.498100 -0.035400
v 0.057300 0.498100 -0.001100
v 0.137200 0.015300 -0.191700
v -0.073800 0.000000 0.247000
v 0.202900 0.000000 0.150600
v 0.079400 0.000000 0.244700
v 0.133300 0.015300 0.193700
v 0.219800 0.015300 -0.072800
v 0.133300 0.015300 0.193700
v -0.001100 0.015300 0.238400
v 0.218900 0.015300 0.072800
v 0.206200 0.015300 0.154600
v 0.206100 0.015300 -0.154100
v 0.254100 0.015300 0.000900
v 0.201700 0.000000 -0.151500
v 0.202900 0.000000 0.150600
v 0.249000 0.000000 0.000000
vt 0.351500 0.429600
vt 0.351500 0.429600
vt 0.351500 0.429600
vt 0.351500 0.429600
vt 0.351500 0.429600
vt 0.351500 0.429600
vt 0.351500 0.429600
vt 0.351500 0.429600
vt 0.351500 0.429600
vt 0.351500 0.429600
vt 0.351500 0.429600
vt 0.351500 0.429600
vt 0.351500 0.429600
vt 0.351500 0.429600
vt 0.351500 0.429600
vt 0.351500 0.429600
vt 0.351500 0.429600
vt 0.351500 0.429600
vt 0.351500 0.429600
vt 0.351500 0.429600
vt 0.351500 0.429600
vt 0.367100 0.414000
vt 0.367100 0.414000
vt 0.367100 0.414000
vt 0.367100 0.414000
vt 0.367100 0.429600
vt 0.367100 0.429600
vt 0.367100 0.429600
vt 0.367100 0.429600
vt 0.367100 0.429600
vt 0.367100 0.429600
vt 0.351500 0.429600
vt 0.351500 0.429600
vt 0.351500 0.429600
vt 0.351500 0.429600
vt 0.351500 0.429600
vt 0.351500 0.429600
vt 0.367100 0.429600
vt 0.367100 0.429600
vt 0.351500 0.429600
vt 0.351500 0.429600
vt 0.351500 0.429600
vt 0.351500 0.429600
vt 0.351500 0.429600
vt 0.367100 0.429600
vt 0.367100 0.429600
vt 0.367100 0.429600
vt 0.367100 0.429600
vt 0.367100 0.429600
vt 0.367100 0.429600
vt 0.367100 0.429600
vt 0.351500 0.429600
vt 0.367100 0.414000
vt 0.367100 0.414000
vt 0.351500 0.429600
vt 0.351500 0.429600
vt 0.367100 0.429600
vt 0.351500 0.429600
vt 0.367100 0.429600
vt 0.351500 0.429600
vt 0.367100 0.429600
vt 0.367100 0.429600
vt 0.351500 0.429600
vt 0.351500 0.429600
vt 0.351500 0.429600
vt 0.351500 0.429600
vt 0.351500 0.429600
vt 0.351500 0.429600
vt 0.351500 0.429600
vt 0.351500 0.429600
vt 0.367100 0.429600
vt 0.351500 0.429600
vt 0.367100 0.429600
vt 0.367100 0.429600
vt 0.351500 0.429600
vt 0.351500 0.429600
vt 0.367100 0.429600
vt 0.367100 0.429600
vt 0.351500 0.429600
vt 0.351500 0.429600
vt 0.351500 0.429600
vt 0.367100 0.429600
vt 0.367100 0.429600
vt 0.367100 0.429600
vt 0.367100 0.414000
vt 0.367100 0.414000
vt 0.367100 0.429600
vt 0.367100 0.429600
vt 0.351500 0.429600
vt 0.351500 0.429600
vt 0.351500 0.429600
vt 0.367100 0.429600
vt 0.367100 0.429600
vt 0.367100 0.429600
vt 0.351500 0.429600
vt 0.351500 0.429600
vt 0.351500 0.429600
vt 0.351500 0.429600
vt 0.351500 0.429600
vt 0.351500 0.429600
vt 0.367100 0.414000
vt 0.367100 0.414000
vt 0.351500 0.429600
vt 0.351500 0.429600
vt 0.351500 0.429600
vt 0.351500 0.429600
vt 0.351500 0.429600
vt 0.351500 0.429600
vt 0.351500 0.429600
vn -0.694101 0.546651 -0.468398
vn -0.786668 -0.270238 -0.555090
vn -0.844871 0.534904 0.008360
vn -0.952780 -0.283264 0.109414
vn -0.676051 0.537255 0.504294
vn -0.711272 -0.290722 0.639978
vn -0.285306 0.528426 -0.799604
vn -0.305427 -0.295788 -0.905110
vn -0.250608 0.545850 0.799527
vn -0.191441 -0.316788 0.928976
vn -0.843079 0.505856 -0.182559
vn -0.819090 0.465387 0.335420
vn -0.582129 0.514310 -0.629770
vn 0.484369 -0.486438 0.727162
vn 0.835930 -0.495181 -0.236680
vn 0.794025 -0.548859 0.261302
vn 0.800377 -0.547602 -0.243985
vn -0.396418 0.473520 0.786531
vn -0.132640 0.481357 -0.866431
vn 0.502559 -0.555839 -0.662176
vn 0.495250 -0.556226 0.667338
vn 0.000000 1.000000 0.000000
vn 0.000000 1.000000 0.000000
vn 0.000000 1.000000 0.000000
vn 0.000000 1.000000 0.000000
vn -0.875809 0.476126 -0.079135
vn -0.924537 -0.377203 0.054315
vn -0.770648 0.343108 0.537009
vn -0.587727 -0.710885 0.386290
vn -0.633845 0.612835 -0.471883
vn -0.770461 -0.350626 -0.532402
vn 0.000000 -1.000000 0.000000
vn 0.000000 -1.000000 0.000000
vn 0.000000 -1.000000 0.000000
vn 0.000000 -1.000000 0.000000
vn 0.030768 -0.486338 -0.873229
vn 0.006433 -0.560278 -0.828280
vn -0.122177 -0.979245 0.161714
vn -0.176311 -0.982726 -0.056244
vn -0.616614 0.030939 0.786657
vn -0.949243 0.047688 -0.310908
vn 0.000000 -1.000000 0.000000
vn -0.539220 -0.504466 0.674356
vn -0.011127 -0.562675 0.826603
vn -0.271600 0.648306 0.711289
vn -0.254742 -0.455481 0.853020
vn -0.250401 -0.728925 -0.637156
vn -0.326481 0.279089 -0.903061
vn -0.345315 0.916396 0.202426
vn -0.387438 0.908019 -0.159353
vn -0.002606 -0.983691 -0.179848
vn 0.123531 0.034478 -0.991741
vn 0.000000 1.000000 0.000000
vn 0.000000 1.000000 0.000000
vn 0.804705 0.015088 -0.593483
vn 0.923289 0.015445 0.383795
vn -0.104705 0.927334 -0.359288
vn 0.210722 0.028211 0.977139
vn -0.062724 0.917859 0.391918
vn 0.221972 0.012921 -0.974968
vn 0.278523 0.566409 -0.775633
vn 0.190174 0.555742 0.809312
vn -0.399683 0.027408 0.916244
vn 0.000000 -1.000000 0.000000
vn 0.000000 -1.000000 0.000000
vn 0.430259 0.515200 -0.741246
vn 0.495257 0.016289 0.868594
vn 0.099993 0.517813 0.849630
vn 0.253742 0.543670 -0.800024
vn 0.283971 0.544518 0.789216
vn 0.141520 -0.657213 -0.740300
vn 0.200090 -0.319524 -0.926212
vn 0.393494 -0.298957 0.869360
vn 0.117352 -0.980811 0.155687
vn 0.407098 -0.317479 0.856434
vn -0.594194 0.014896 -0.804184
vn 0.284104 0.922823 0.260158
vn 0.210097 0.937625 -0.276980
vn -0.822366 -0.493465 -0.283206
vn 0.643049 0.469390 0.605113
vn -0.992553 0.019882 0.120177
vn 0.755513 0.383999 0.530796
vn 0.712011 0.570097 -0.409914
vn 0.730041 -0.457239 0.507911
vn 0.000000 1.000000 0.000000
vn 0.000000 1.000000 0.000000
vn 0.391099 0.919318 -0.043548
vn 0.747696 0.662862 0.039554
vn 0.983557 0.022468 -0.179196
vn 0.844638 0.535337 -0.000889
vn 0.718540 0.313981 -0.620577
vn 0.161643 -0.984152 -0.072913
vn 0.677582 -0.426056 -0.599465
vn 0.867792 -0.496795 0.011439
vn -0.499188 -0.557577 0.663263
vn 0.000000 -1.000000 0.000000
vn 0.000000 -1.000000 0.000000
vn 0.000000 -1.000000 0.000000
vn -0.494093 -0.555359 -0.668916
vn -0.798014 -0.550589 0.245003
vn 0.000000 1.000000 0.000000
vn 0.000000 1.000000 0.000000
vn -0.797067 -0.545667 -0.258710
vn 0.699755 0.536402 0.471821
vn 0.693761 0.538425 -0.478324
vn 0.849767 0.527127 0.005750
vn 0.715892 -0.312915 -0.624165
vn 0.832750 -0.315979 0.454626
vn 0.943165 -0.316441 -0.101518
f 24/24/24 23/23/23 25/25/25 
f 22/22/22 23/23/23 24/24/24 
f 22/22/22 54/54/54 23/23/23 
f 53/53/53 54/54/54 22/22/22 
f 53/53/53 85/85/85 54/54/54 
f 86/86/86 85/85/85 53/53/53 
f 86/86/86 101/101/101 85/85/85 
f 102/102/102 101/101/101 86/86/86 
f 6/6/6 5/5/5 4/4/4 
f 4/4/4 3/3/3 2/2/2 
f 5/5/5 3/3/3 4/4/4 
f 5/5/5 12/12/12 3/3/3 
f 12/12/12 18/18/18 12/12/12 
f 5/5/5 18/18/18 12/12/12 
f 5/5/5 9/9/9 18/18/18 
f 6/6/6 9/9/9 5/5/5 
f 6/6/6 9/9/9 9/9/9 
f 10/10/10 9/9/9 6/6/6 
f 10/10/10 70/70/70 9/9/9 
f 75/75/75 70/70/70 10/10/10 
f 75/75/75 104/104/104 70/70/70 
f 108/108/108 104/104/104 75/75/75 
f 108/108/108 106/106/106 104/104/104 
f 109/109/109 106/106/106 108/108/108 
f 9/9/9 68/68/68 18/18/18 
f 70/70/70 68/68/68 9/9/9 
f 3/3/3 11/11/11 3/3/3 
f 12/12/12 11/11/11 3/3/3 
f 12/12/12 41/41/41 11/11/11 
f 12/12/12 41/41/41 12/12/12 
f 12/12/12 40/40/40 41/41/41 
f 18/18/18 40/40/40 12/12/12 
f 18/18/18 67/67/67 40/40/40 
f 68/68/68 67/67/67 18/18/18 
f 68/68/68 80/80/80 67/67/67 
f 70/70/70 80/80/80 68/68/68 
f 70/70/70 80/80/80 80/80/80 
f 104/104/104 80/80/80 70/70/70 
f 104/104/104 90/90/90 80/80/80 
f 80/80/80 89/89/89 67/67/67 
f 90/90/90 89/89/89 80/80/80 
f 90/90/90 89/89/89 89/89/89 
f 91/91/91 89/89/89 90/90/90 
f 91/91/91 52/52/52 89/89/89 
f 104/104/104 90/90/90 104/104/104 
f 106/106/106 90/90/90 104/104/104 
f 106/106/106 90/90/90 90/90/90 
f 105/105/105 90/90/90 106/106/106 
f 105/105/105 91/91/91 90/90/90 
f 66/66/66 91/91/91 105/105/105 
f 66/66/66 52/52/52 91/91/91 
f 19/19/19 52/52/52 66/66/66 
f 19/19/19 41/41/41 52/52/52 
f 13/13/13 41/41/41 19/19/19 
f 13/13/13 11/11/11 41/41/41 
f 13/13/13 11/11/11 13/13/13 
f 13/13/13 1/1/1 11/11/11 
f 13/13/13 7/7/7 1/1/1 
f 19/19/19 7/7/7 13/13/13 
f 19/19/19 69/69/69 7/7/7 
f 66/66/66 69/69/69 19/19/19 
f 66/66/66 105/105/105 69/69/69 
f 109/109/109 105/105/105 106/106/106 
f 107/107/107 105/105/105 109/109/109 
f 107/107/107 69/69/69 105/105/105 
f 72/72/72 69/69/69 107/107/107 
f 72/72/72 7/7/7 69/69/69 
f 8/8/8 7/7/7 72/72/72 
f 8/8/8 7/7/7 7/7/7 
f 2/2/2 7/7/7 8/8/8 
f 2/2/2 1/1/1 7/7/7 
f 3/3/3 1/1/1 2/2/2 
f 3/3/3 11/11/11 1/1/1 
f 59/59/59 49/49/49 45/45/45 
f 30/30/30 50/50/50 57/57/57 
f 26/26/26 50/50/50 30/30/30 
f 26/26/26 49/49/49 50/50/50 
f 28/28/28 49/49/49 26/26/26 
f 28/28/28 45/45/45 49/49/49 
f 46/46/46 45/45/45 28/28/28 
f 46/46/46 45/45/45 45/45/45 
f 62/62/62 45/45/45 46/46/46 
f 62/62/62 59/59/59 45/45/45 
f 77/77/77 59/59/59 62/62/62 
f 29/29/29 28/28/28 27/27/27 
f 46/46/46 28/28/28 29/29/29 
f 87/87/87 88/88/88 87/87/87 
f 77/77/77 88/88/88 87/87/87 
f 77/77/77 82/82/82 88/88/88 
f 62/62/62 82/82/82 77/77/77 
f 62/62/62 73/73/73 82/82/82 
f 46/46/46 73/73/73 62/62/62 
f 46/46/46 74/74/74 73/73/73 
f 46/46/46 74/74/74 46/46/46 
f 46/46/46 38/38/38 74/74/74 
f 29/29/29 38/38/38 46/46/46 
f 29/29/29 39/39/39 38/38/38 
f 27/27/27 39/39/39 29/29/29 
f 82/82/82 84/84/84 94/94/94 
f 73/73/73 84/84/84 82/82/82 
f 73/73/73 84/84/84 84/84/84 
f 74/74/74 84/84/84 73/73/73 
f 74/74/74 94/94/94 84/84/84 
f 92/92/92 94/94/94 74/74/74 
f 92/92/92 93/93/93 94/94/94 
f 92/92/92 93/93/93 92/92/92 
f 92/92/92 71/71/71 93/93/93 
f 51/51/51 71/71/71 92/92/92 
f 51/51/51 47/47/47 71/71/71 
f 39/39/39 47/47/47 51/51/51 
f 27/27/27 39/39/39 27/27/27 
f 31/31/31 39/39/39 27/27/27 
f 31/31/31 47/47/47 39/39/39 
f 48/48/48 47/47/47 31/31/31 
f 48/48/48 71/71/71 47/47/47 
f 61/61/61 71/71/71 48/48/48 
f 61/61/61 93/93/93 71/71/71 
f 83/83/83 93/93/93 61/61/61 
f 83/83/83 94/94/94 93/93/93 
f 88/88/88 94/94/94 83/83/83 
f 88/88/88 94/94/94 94/94/94 
f 82/82/82 94/94/94 88/88/88 
f 28/28/28 27/27/27 28/28/28 
f 26/26/26 27/27/27 28/28/28 
f 26/26/26 31/31/31 27/27/27 
f 30/30/30 31/31/31 26/26/26 
f 30/30/30 48/48/48 31/31/31 
f 57/57/57 48/48/48 30/30/30 
f 57/57/57 61/61/61 48/48/48 
f 78/78/78 61/61/61 57/57/57 
f 78/78/78 83/83/83 61/61/61 
f 87/87/87 83/83/83 78/78/78 
f 87/87/87 88/88/88 83/83/83 
f 98/98/98 97/97/97 98/98/98 
f 96/96/96 97/97/97 98/98/98 
f 96/96/96 65/65/65 97/97/97 
f 64/64/64 65/65/65 96/96/96 
f 64/64/64 65/65/65 65/65/65 
f 32/32/32 65/65/65 64/64/64 
f 32/32/32 34/34/34 65/65/65 
f 33/33/33 34/34/34 32/32/32 
f 33/33/33 35/35/35 34/34/34 
f 42/42/42 35/35/35 33/33/33 
f 36/36/36 55/55/55 60/60/60 
f 36/36/36 55/55/55 36/36/36 
f 36/36/36 15/15/15 55/55/55 
f 20/20/20 15/15/15 36/36/36 
f 20/20/20 15/15/15 15/15/15 
f 17/17/17 15/15/15 20/20/20 
f 17/17/17 15/15/15 15/15/15 
f 16/16/16 15/15/15 17/17/17 
f 16/16/16 14/14/14 15/15/15 
f 21/21/21 14/14/14 16/16/16 
f 21/21/21 14/14/14 14/14/14 
f 44/44/44 14/14/14 21/21/21 
f 44/44/44 43/43/43 14/14/14 
f 95/95/95 43/43/43 44/44/44 
f 15/15/15 56/56/56 55/55/55 
f 14/14/14 56/56/56 15/15/15 
f 14/14/14 58/58/58 56/56/56 
f 14/14/14 58/58/58 14/14/14 
f 14/14/14 63/63/63 58/58/58 
f 43/43/43 63/63/63 14/14/14 
f 43/43/43 81/81/81 63/63/63 
f 79/79/79 81/81/81 43/43/43 
f 79/79/79 76/76/76 81/81/81 
f 36/36/36 76/76/76 79/79/79 
f 36/36/36 60/60/60 76/76/76 
f 95/95/95 43/43/43 95/95/95 
f 100/100/100 43/43/43 95/95/95 
f 100/100/100 79/79/79 43/43/43 
f 103/103/103 79/79/79 100/100/100 
f 103/103/103 79/79/79 79/79/79 
f 99/99/99 79/79/79 103/103/103 
f 99/99/99 36/36/36 79/79/79 
f 37/37/37 36/36/36 99/99/99 
f 37/37/37 20/20/20 36/36/36 
