v -0.750600 0.000000 0.750600
v -0.750600 1.499900 0.750600
v -0.750600 0.000000 -0.750600
v -0.750600 1.499900 -0.750600
v 0.750600 0.000000 -0.750600
v 0.750600 0.000000 0.750600
v -0.750600 0.000000 -0.750600
v -0.750600 0.000000 0.750600
v -0.750600 0.000000 -0.750600
v -0.750600 1.499900 -0.750600
v 0.750600 0.000000 -0.750600
v 0.750600 1.499900 -0.750600
v 0.750600 0.000000 0.750600
v 0.750600 1.499900 0.750600
v -0.750600 0.000000 0.750600
v -0.750600 1.499900 0.750600
v 0.750600 1.499900 0.750600
v 0.750600 1.499900 -0.750600
v -0.750600 1.499900 0.750600
v -0.750600 1.499900 -0.750600
v 0.750600 0.000000 -0.750600
v 0.750600 1.499900 -0.750600
v 0.750600 0.000000 0.750600
v 0.750600 1.499900 0.750600
vt 0.132800 0.460900
vt 0.132800 0.460900
vt 0.132800 0.460900
vt 0.132800 0.460900
vt 0.070300 0.085900
vt 0.070300 0.085900
vt 0.070300 0.085900
vt 0.070300 0.085900
vt 0.132800 0.335900
vt 0.132800 0.335900
vt 0.132800 0.335900
vt 0.132800 0.335900
vt 0.132800 0.335900
vt 0.132800 0.335900
vt 0.132800 0.335900
vt 0.132800 0.335900
vt 0.070300 0.085900
vt 0.070300 0.085900
vt 0.070300 0.085900
vt 0.070300 0.085900
vt 0.132800 0.460900
vt 0.132800 0.460900
vt 0.132800 0.460900
vt 0.132800 0.460900
vn -1.000000 0.000000 0.000000
vn -1.000000 0.000000 0.000000
vn -1.000000 0.000000 0.000000
vn -1.000000 0.000000 0.000000
vn 0.000000 -1.000000 0.000000
vn 0.000000 -1.000000 0.000000
vn 0.000000 -1.000000 0.000000
vn 0.000000 -1.000000 0.000000
vn 0.000000 0.000000 -1.000000
vn 0.000000 0.000000 -1.000000
vn 0.000000 0.000000 -1.000000
vn 0.000000 0.000000 -1.000000
vn 0.000000 0.000000 1.000000
vn 0.000000 0.000000 1.000000
vn 0.000000 0.000000 1.000000
vn 0.000000 0.000000 1.000000
vn 0.000000 1.000000 0.000000
vn 0.000000 1.000000 0.000000
vn 0.000000 1.000000 0.000000
vn 0.000000 1.000000 0.000000
vn 1.000000 0.000000 0.000000
vn 1.000000 0.000000 0.000000
vn 1.000000 0.000000 0.000000
vn 1.000000 0.000000 0.000000
f 2/2/2 3/3/3 1/1/1 
f 4/4/4 3/3/3 2/2/2 
f 22/22/22 23/23/23 21/21/21 
f 24/24/24 23/23/23 22/22/22 
f 18/18/18 19/19/19 17/17/17 
f 20/20/20 19/19/19 18/18/18 
f 14/14/14 15/15/15 13/13/13 
f 16/16/16 15/15/15 14/14/14 
f 10/10/10 11/11/11 9/9/9 
f 12/12/12 11/11/11 10/10/10 
f 6/6/6 7/7/7 5/5/5 
f 8/8/8 7/7/7 6/6/6 
