v -0.056400 0.163700 -1.329102
v -0.074499 0.163700 -1.318604
v -0.056400 3.091800 -1.329102
v -0.074499 3.091800 -1.318604
v -0.074499 0.163700 -1.297600
v -0.056400 0.163700 -1.287102
v -0.074499 3.091800 -1.297600
v -0.056400 3.091800 -1.287102
v -0.038200 0.163700 -1.318604
v -0.056400 0.163700 -1.329102
v -0.038200 3.091800 -1.318604
v -0.056400 3.091800 -1.329102
v -0.038200 0.163700 -1.297600
v -0.038200 3.091800 -1.297600
v -0.038200 0.163700 -1.297600
v -0.038200 3.091800 -1.297600
v -0.056400 0.163700 -1.541100
v -0.074499 0.163700 -1.530602
v -0.056400 3.091800 -1.541100
v -0.074499 3.091800 -1.530602
v -0.074499 0.163700 -1.509598
v -0.056400 0.163700 -1.499100
v -0.074499 3.091800 -1.509598
v -0.056400 3.091800 -1.499100
v -0.038200 0.163700 -1.530602
v -0.056400 0.163700 -1.541100
v -0.038200 3.091800 -1.530602
v -0.056400 3.091800 -1.541100
v -0.038200 0.163700 -1.509598
v -0.038200 3.091800 -1.509598
v -0.038200 0.163700 -1.509598
v -0.038200 3.091800 -1.509598
v -0.056400 0.163700 -1.757103
v -0.074499 0.163700 -1.746597
v -0.056400 3.091800 -1.757103
v -0.074499 3.091800 -1.746597
v -0.074499 0.163700 -1.725601
v -0.056400 0.163700 -1.715103
v -0.074499 3.091800 -1.725601
v -0.056400 3.091800 -1.715103
v -0.038200 0.163700 -1.746597
v -0.056400 0.163700 -1.757103
v -0.038200 3.091800 -1.746597
v -0.056400 3.091800 -1.757103
v -0.038200 0.163700 -1.725601
v -0.038200 3.091800 -1.725601
v -0.038200 0.163700 -1.725601
v -0.038200 3.091800 -1.725601
v -0.056400 0.163700 -1.935303
v -0.074499 0.163700 -1.924797
v -0.056400 3.091700 -1.935303
v -0.074499 3.091700 -1.924797
v -0.074499 0.163700 -1.903801
v -0.056400 0.163700 -1.893303
v -0.074499 3.091700 -1.903801
v -0.056400 3.091700 -1.893303
v -0.038200 0.163700 -1.924797
v -0.056400 0.163700 -1.935303
v -0.038200 3.091700 -1.924797
v -0.056400 3.091700 -1.935303
v -0.038200 0.163700 -1.903801
v -0.038200 3.091700 -1.903801
v -0.038200 0.163700 -1.903801
v -0.038200 3.091700 -1.903801
v -0.056400 0.163700 -1.110397
v -0.074499 0.163700 -1.099899
v -0.056400 3.091800 -1.110397
v -0.074499 3.091800 -1.099899
v -0.074499 0.163700 -1.079002
v -0.056400 0.163700 -1.068497
v -0.074499 3.091800 -1.079002
v -0.056400 3.091800 -1.068497
v -0.038200 0.163700 -1.099899
v -0.056400 0.163700 -1.110397
v -0.038200 3.091800 -1.099899
v -0.056400 3.091800 -1.110397
v -0.038200 0.163700 -1.079002
v -0.038200 3.091800 -1.079002
v -0.038200 0.163700 -1.079002
v -0.038200 3.091800 -1.079002
v -0.056400 0.163700 -0.900200
v -0.074499 0.163700 -0.889702
v -0.056400 3.091800 -0.900200
v -0.074499 3.091800 -0.889702
v -0.074499 0.163700 -0.868797
v -0.056400 0.163700 -0.858200
v -0.074499 3.091800 -0.868797
v -0.056400 3.091800 -0.858200
v -0.038200 0.163700 -0.889702
v -0.056400 0.163700 -0.900200
v -0.038200 3.091800 -0.889702
v -0.056400 3.091800 -0.900200
v -0.038200 0.163700 -0.868797
v -0.038200 3.091800 -0.868797
v -0.038200 0.163700 -0.868797
v -0.038200 3.091800 -0.868797
v -0.056400 0.163700 -0.697998
v -0.074499 0.163700 -0.687500
v -0.056400 3.091800 -0.697998
v -0.074499 3.091800 -0.687500
v -0.074499 0.163700 -0.666496
v -0.056400 0.163700 -0.655998
v -0.074499 3.091800 -0.666496
v -0.056400 3.091800 -0.655998
v -0.038200 0.163700 -0.687500
v -0.056400 0.163700 -0.697998
v -0.038200 3.091800 -0.687500
v -0.056400 3.091800 -0.697998
v -0.038200 0.163700 -0.666496
v -0.038200 3.091800 -0.666496
v -0.038200 0.163700 -0.666496
v -0.038200 3.091800 -0.666496
v -0.056400 0.163700 -0.499603
v -0.074499 0.163700 -0.489098
v -0.056400 3.091800 -0.499603
v -0.074499 3.091800 -0.489098
v -0.074499 0.163700 -0.468102
v -0.056400 0.163700 -0.457603
v -0.074499 3.091800 -0.468102
v -0.056400 3.091800 -0.457603
v -0.038200 0.163700 -0.489098
v -0.056400 0.163700 -0.499603
v -0.038200 3.091800 -0.489098
v -0.056400 3.091800 -0.499603
v -0.038200 0.163700 -0.468102
v -0.038200 3.091800 -0.468102
v -0.038200 0.163700 -0.468102
v -0.038200 3.091800 -0.468102
v -0.056400 0.163700 -0.292198
v -0.074499 0.163700 -0.281700
v -0.056400 3.091700 -0.292198
v -0.074499 3.091700 -0.281700
v -0.074499 0.163700 -0.260696
v -0.056400 0.163700 -0.250198
v -0.074499 3.091700 -0.260696
v -0.056400 3.091700 -0.250198
v -0.038200 0.163700 -0.281700
v -0.056400 0.163700 -0.292198
v -0.038200 3.091700 -0.281700
v -0.056400 3.091700 -0.292198
v -0.038200 0.163700 -0.260696
v -0.038200 3.091700 -0.260696
v -0.038200 0.163700 -0.260696
v -0.038200 3.091700 -0.260696
v -0.011700 0.125200 -0.109100
v -0.011700 0.125200 -2.063301
v -0.095100 0.208500 -0.195297
v -0.095100 0.208500 -1.977203
v -0.011700 0.125200 -2.063301
v -0.011700 2.856600 -2.063301
v -0.095100 0.208500 -1.977203
v -0.095100 2.773200 -1.977203
v -0.011700 2.856600 -0.109100
v -0.011700 0.125200 -0.109100
v -0.095100 2.773200 -0.195297
v -0.095100 0.208500 -0.195297
v -0.011700 2.856600 -2.063301
v -0.011700 2.856600 -0.109100
v -0.095100 2.773200 -1.977203
v -0.095100 2.773200 -0.195297
v -0.011700 0.008900 0.003098
v -0.011700 0.008900 -2.175598
v -0.011700 0.125200 -0.109100
v -0.011700 0.125200 -2.063301
v -0.011700 2.972800 -2.175598
v -0.011700 2.856600 -2.063301
v -0.011700 0.008900 -2.175598
v -0.011700 0.125200 -2.063301
v -0.011700 2.972800 0.003098
v -0.011700 2.856600 -0.109100
v -0.011700 2.972800 0.003098
v -0.011700 2.856600 -0.109100
v -0.011700 2.972800 -2.175598
v -0.011700 2.856600 -2.063301
vt 0.132800 0.492100
vt 0.132800 0.492100
vt 0.132800 0.492100
vt 0.132800 0.492100
vt 0.132800 0.492100
vt 0.132800 0.492100
vt 0.132800 0.492100
vt 0.132800 0.492100
vt 0.132800 0.492100
vt 0.132800 0.492100
vt 0.132800 0.492100
vt 0.132800 0.492100
vt 0.132800 0.492100
vt 0.132800 0.492100
vt 0.132800 0.492100
vt 0.132800 0.492100
vt 0.132800 0.492100
vt 0.132800 0.492100
vt 0.132800 0.492100
vt 0.132800 0.492100
vt 0.132800 0.492100
vt 0.132800 0.492100
vt 0.132800 0.492100
vt 0.132800 0.492100
vt 0.132800 0.492100
vt 0.132800 0.492100
vt 0.132800 0.492100
vt 0.132800 0.492100
vt 0.132800 0.492100
vt 0.132800 0.492100
vt 0.132800 0.492100
vt 0.132800 0.492100
vt 0.132800 0.492100
vt 0.132800 0.492100
vt 0.132800 0.492100
vt 0.132800 0.492100
vt 0.132800 0.492100
vt 0.132800 0.492100
vt 0.132800 0.492100
vt 0.132800 0.492100
vt 0.132800 0.492100
vt 0.132800 0.492100
vt 0.132800 0.492100
vt 0.132800 0.492100
vt 0.132800 0.492100
vt 0.132800 0.492100
vt 0.132800 0.492100
vt 0.132800 0.492100
vt 0.132800 0.492100
vt 0.132800 0.492100
vt 0.132800 0.492100
vt 0.132800 0.492100
vt 0.132800 0.492100
vt 0.132800 0.492100
vt 0.132800 0.492100
vt 0.132800 0.492100
vt 0.132800 0.492100
vt 0.132800 0.492100
vt 0.132800 0.492100
vt 0.132800 0.492100
vt 0.132800 0.492100
vt 0.132800 0.492100
vt 0.132800 0.492100
vt 0.132800 0.492100
vt 0.132800 0.492100
vt 0.132800 0.492100
vt 0.132800 0.492100
vt 0.132800 0.492100
vt 0.132800 0.492100
vt 0.132800 0.492100
vt 0.132800 0.492100
vt 0.132800 0.492100
vt 0.132800 0.492100
vt 0.132800 0.492100
vt 0.132800 0.492100
vt 0.132800 0.492100
vt 0.132800 0.492100
vt 0.132800 0.492100
vt 0.132800 0.492100
vt 0.132800 0.492100
vt 0.132800 0.492100
vt 0.132800 0.492100
vt 0.132800 0.492100
vt 0.132800 0.492100
vt 0.132800 0.492100
vt 0.132800 0.492100
vt 0.132800 0.492100
vt 0.132800 0.492100
vt 0.132800 0.492100
vt 0.132800 0.492100
vt 0.132800 0.492100
vt 0.132800 0.492100
vt 0.132800 0.492100
vt 0.132800 0.492100
vt 0.132800 0.492100
vt 0.132800 0.492100
vt 0.132800 0.492100
vt 0.132800 0.492100
vt 0.132800 0.492100
vt 0.132800 0.492100
vt 0.132800 0.492100
vt 0.132800 0.492100
vt 0.132800 0.492100
vt 0.132800 0.492100
vt 0.132800 0.492100
vt 0.132800 0.492100
vt 0.132800 0.492100
vt 0.132800 0.492100
vt 0.132800 0.492100
vt 0.132800 0.492100
vt 0.132800 0.492100
vt 0.132800 0.492100
vt 0.132800 0.492100
vt 0.132800 0.492100
vt 0.132800 0.492100
vt 0.132800 0.492100
vt 0.132800 0.492100
vt 0.132800 0.492100
vt 0.132800 0.492100
vt 0.132800 0.492100
vt 0.132800 0.492100
vt 0.132800 0.492100
vt 0.132800 0.492100
vt 0.132800 0.492100
vt 0.132800 0.492100
vt 0.132800 0.492100
vt 0.132800 0.492100
vt 0.132800 0.492100
vt 0.132800 0.492100
vt 0.132800 0.492100
vt 0.132800 0.492100
vt 0.132800 0.492100
vt 0.132800 0.492100
vt 0.132800 0.492100
vt 0.132800 0.492100
vt 0.132800 0.492100
vt 0.132800 0.492100
vt 0.132800 0.492100
vt 0.132800 0.492100
vt 0.132800 0.492100
vt 0.132800 0.492100
vt 0.132800 0.492100
vt 0.132800 0.492100
vt 0.132800 0.492100
vt 0.226500 0.867100
vt 0.226500 0.867100
vt 0.226500 0.867100
vt 0.226500 0.867100
vt 0.242100 0.867100
vt 0.242100 0.867100
vt 0.242100 0.867100
vt 0.242100 0.867100
vt 0.226500 0.851500
vt 0.226500 0.851500
vt 0.226500 0.851500
vt 0.226500 0.851500
vt 0.226500 0.867100
vt 0.226500 0.867100
vt 0.226500 0.867100
vt 0.226500 0.867100
vt 0.226500 0.867100
vt 0.226500 0.867100
vt 0.226500 0.867100
vt 0.226500 0.867100
vt 0.226500 0.867100
vt 0.226500 0.867100
vt 0.226500 0.867100
vt 0.226500 0.867100
vt 0.226500 0.867100
vt 0.226500 0.867100
vt 0.226500 0.867100
vt 0.226500 0.867100
vt 0.226500 0.867100
vt 0.226500 0.867100
vn -0.501744 0.000000 -0.865016
vn -0.501744 0.000000 -0.865016
vn -0.501744 0.000000 -0.865016
vn -0.501744 0.000000 -0.865016
vn -0.501744 0.000000 0.865016
vn -0.189491 0.000000 0.981882
vn -0.501744 0.000000 0.865016
vn 0.189152 0.000000 0.981948
vn 0.944847 0.000000 -0.327511
vn 0.499654 0.000000 -0.866225
vn 0.755689 0.000000 -0.654931
vn 0.499654 0.000000 -0.866225
vn 0.499654 0.000000 0.866225
vn 0.499654 0.000000 0.866225
vn 1.000000 0.000000 0.000000
vn 1.000000 0.000000 0.000000
vn -0.501744 0.000000 -0.865016
vn -0.501744 0.000000 -0.865016
vn -0.501744 0.000000 -0.865016
vn -0.501744 0.000000 -0.865016
vn -0.501744 0.000000 0.865016
vn -0.189491 0.000000 0.981882
vn -0.501744 0.000000 0.865016
vn 0.189152 0.000000 0.981948
vn 0.944847 0.000000 -0.327511
vn 0.499654 0.000000 -0.866225
vn 0.755689 0.000000 -0.654931
vn 0.499654 0.000000 -0.866225
vn 0.499654 0.000000 0.866225
vn 0.499654 0.000000 0.866225
vn 1.000000 0.000000 0.000000
vn 1.000000 0.000000 0.000000
vn -0.502017 0.000000 -0.864858
vn -0.502017 0.000000 -0.864858
vn -0.502017 0.000000 -0.864858
vn -0.502017 0.000000 -0.864858
vn -0.501744 0.000000 0.865016
vn -0.189491 0.000000 0.981882
vn -0.501744 0.000000 0.865016
vn 0.189152 0.000000 0.981948
vn 0.944833 0.000000 -0.327554
vn 0.499927 0.000000 -0.866068
vn 0.755748 0.000000 -0.654863
vn 0.499927 0.000000 -0.866068
vn 0.499654 0.000000 0.866225
vn 0.499654 0.000000 0.866225
vn 1.000000 0.000000 0.000000
vn 1.000000 0.000000 0.000000
vn -0.502017 0.000000 -0.864858
vn -0.502017 0.000000 -0.864858
vn -0.502017 0.000000 -0.864858
vn -0.502017 0.000000 -0.864858
vn -0.501744 0.000000 0.865016
vn -0.189491 0.000000 0.981882
vn -0.501744 0.000000 0.865016
vn 0.189152 0.000000 0.981948
vn 0.944833 0.000000 -0.327554
vn 0.499927 0.000000 -0.866068
vn 0.755748 0.000000 -0.654863
vn 0.499927 0.000000 -0.866068
vn 0.499654 0.000000 0.866225
vn 0.499654 0.000000 0.866225
vn 1.000000 0.000000 0.000000
vn 1.000000 0.000000 0.000000
vn -0.501744 0.000000 -0.865016
vn -0.501744 0.000000 -0.865016
vn -0.501744 0.000000 -0.865016
vn -0.501744 0.000000 -0.865016
vn -0.502017 0.000000 0.864858
vn -0.189624 0.000000 0.981857
vn -0.502017 0.000000 0.864858
vn 0.189285 0.000000 0.981922
vn 0.944433 0.000000 -0.328705
vn 0.499654 0.000000 -0.866225
vn 0.754863 0.000000 -0.655883
vn 0.499654 0.000000 -0.866225
vn 0.499927 0.000000 0.866068
vn 0.499927 0.000000 0.866068
vn 1.000000 0.000000 0.000000
vn 1.000000 0.000000 0.000000
vn -0.501744 0.000000 -0.865016
vn -0.501744 0.000000 -0.865016
vn -0.501744 0.000000 -0.865016
vn -0.501744 0.000000 -0.865016
vn -0.505278 0.000000 0.862956
vn -0.191216 0.000000 0.981548
vn -0.505278 0.000000 0.862956
vn 0.190874 0.000000 0.981614
vn 0.944462 0.000000 -0.328619
vn 0.499654 0.000000 -0.866225
vn 0.754922 0.000000 -0.655815
vn 0.499654 0.000000 -0.866225
vn 0.503184 0.000000 0.864179
vn 0.503184 0.000000 0.864179
vn 1.000000 0.000000 0.000000
vn 1.000000 0.000000 0.000000
vn -0.501744 0.000000 -0.865016
vn -0.501744 0.000000 -0.865016
vn -0.501744 0.000000 -0.865016
vn -0.501744 0.000000 -0.865016
vn -0.501744 0.000000 0.865016
vn -0.189491 0.000000 0.981882
vn -0.501744 0.000000 0.865016
vn 0.189152 0.000000 0.981948
vn 0.944847 0.000000 -0.327511
vn 0.499654 0.000000 -0.866225
vn 0.755689 0.000000 -0.654931
vn 0.499654 0.000000 -0.866225
vn 0.499654 0.000000 0.866225
vn 0.499654 0.000000 0.866225
vn 1.000000 0.000000 0.000000
vn 1.000000 0.000000 0.000000
vn -0.502017 0.000000 -0.864858
vn -0.502017 0.000000 -0.864858
vn -0.502017 0.000000 -0.864858
vn -0.502017 0.000000 -0.864858
vn -0.501744 0.000000 0.865016
vn -0.189491 0.000000 0.981882
vn -0.501744 0.000000 0.865016
vn 0.189152 0.000000 0.981948
vn 0.944833 0.000000 -0.327554
vn 0.499927 0.000000 -0.866068
vn 0.755748 0.000000 -0.654863
vn 0.499927 0.000000 -0.866068
vn 0.499654 0.000000 0.866225
vn 0.499654 0.000000 0.866225
vn 1.000000 0.000000 0.000000
vn 1.000000 0.000000 0.000000
vn -0.501744 0.000000 -0.865016
vn -0.501744 0.000000 -0.865016
vn -0.501744 0.000000 -0.865016
vn -0.501744 0.000000 -0.865016
vn -0.501744 0.000000 0.865016
vn -0.189491 0.000000 0.981883
vn -0.501744 0.000000 0.865016
vn 0.189152 0.000000 0.981948
vn 0.944847 0.000000 -0.327511
vn 0.499654 0.000000 -0.866225
vn 0.755689 0.000000 -0.654931
vn 0.499654 0.000000 -0.866225
vn 0.499654 0.000000 0.866225
vn 0.499654 0.000000 0.866225
vn 1.000000 0.000000 0.000000
vn 1.000000 0.000000 0.000000
vn 0.706679 0.707534 0.000000
vn 0.706679 0.707534 0.000000
vn 0.706679 0.707534 0.000000
vn 0.706679 0.707534 0.000000
vn 0.718267 0.000000 0.695768
vn 0.718267 0.000000 0.695768
vn 0.718267 0.000000 0.695768
vn 0.718267 0.000000 0.695768
vn 0.718667 0.000000 -0.695354
vn 0.718667 0.000000 -0.695354
vn 0.718667 0.000000 -0.695354
vn 0.718667 0.000000 -0.695354
vn 0.707104 -0.707110 0.000000
vn 0.707104 -0.707110 0.000000
vn 0.707104 -0.707110 0.000000
vn 0.707104 -0.707110 0.000000
vn 1.000000 0.000000 0.000000
vn 1.000000 0.000000 0.000000
vn 1.000000 0.000000 0.000000
vn 1.000000 0.000000 0.000000
vn 1.000000 0.000000 0.000000
vn 1.000000 0.000000 0.000000
vn 1.000000 0.000000 0.000000
vn 1.000000 0.000000 0.000000
vn 1.000000 0.000000 0.000000
vn 1.000000 0.000000 0.000000
vn 1.000000 0.000000 0.000000
vn 1.000000 0.000000 0.000000
vn 1.000000 0.000000 0.000000
vn 1.000000 0.000000 0.000000
f 18/18/18 19/19/19 17/17/17 
f 20/20/20 19/19/19 18/18/18 
f 2/2/2 3/3/3 1/1/1 
f 4/4/4 3/3/3 2/2/2 
f 172/172/172 173/173/173 171/171/171 
f 174/174/174 173/173/173 172/172/172 
f 166/166/166 167/167/167 165/165/165 
f 168/168/168 167/167/167 166/166/166 
f 158/158/158 159/159/159 157/157/157 
f 160/160/160 159/159/159 158/158/158 
f 154/154/154 155/155/155 153/153/153 
f 156/156/156 155/155/155 154/154/154 
f 150/150/150 151/151/151 149/149/149 
f 152/152/152 151/151/151 150/150/150 
f 146/146/146 147/147/147 145/145/145 
f 148/148/148 147/147/147 146/146/146 
f 134/134/134 135/135/135 133/133/133 
f 134/134/134 135/135/135 134/134/134 
f 134/134/134 136/136/136 135/135/135 
f 141/141/141 136/136/136 134/134/134 
f 141/141/141 142/142/142 136/136/136 
f 164/164/164 162/162/162 164/164/164 
f 163/163/163 162/162/162 164/164/164 
f 163/163/163 161/161/161 162/162/162 
f 170/170/170 161/161/161 163/163/163 
f 170/170/170 169/169/169 161/161/161 
f 140/140/140 138/138/138 140/140/140 
f 139/139/139 138/138/138 140/140/140 
f 139/139/139 137/137/137 138/138/138 
f 144/144/144 137/137/137 139/139/139 
f 144/144/144 143/143/143 137/137/137 
f 94/94/94 93/93/93 94/94/94 
f 88/88/88 93/93/93 94/94/94 
f 88/88/88 86/86/86 93/93/93 
f 87/87/87 86/86/86 88/88/88 
f 87/87/87 85/85/85 86/86/86 
f 62/62/62 61/61/61 62/62/62 
f 56/56/56 61/61/61 62/62/62 
f 56/56/56 54/54/54 61/61/61 
f 55/55/55 54/54/54 56/56/56 
f 55/55/55 53/53/53 54/54/54 
f 46/46/46 45/45/45 46/46/46 
f 40/40/40 45/45/45 46/46/46 
f 40/40/40 38/38/38 45/45/45 
f 39/39/39 38/38/38 40/40/40 
f 39/39/39 37/37/37 38/38/38 
f 30/30/30 29/29/29 30/30/30 
f 24/24/24 29/29/29 30/30/30 
f 24/24/24 22/22/22 29/29/29 
f 23/23/23 22/22/22 24/24/24 
f 23/23/23 21/21/21 22/22/22 
f 28/28/28 26/26/26 28/28/28 
f 27/27/27 26/26/26 28/28/28 
f 27/27/27 25/25/25 26/26/26 
f 32/32/32 25/25/25 27/27/27 
f 32/32/32 31/31/31 25/25/25 
f 14/14/14 13/13/13 14/14/14 
f 8/8/8 13/13/13 14/14/14 
f 8/8/8 6/6/6 13/13/13 
f 7/7/7 6/6/6 8/8/8 
f 7/7/7 5/5/5 6/6/6 
f 12/12/12 10/10/10 12/12/12 
f 11/11/11 10/10/10 12/12/12 
f 11/11/11 9/9/9 10/10/10 
f 16/16/16 9/9/9 11/11/11 
f 16/16/16 15/15/15 9/9/9 
f 70/70/70 71/71/71 69/69/69 
f 70/70/70 71/71/71 70/70/70 
f 70/70/70 72/72/72 71/71/71 
f 77/77/77 72/72/72 70/70/70 
f 77/77/77 78/78/78 72/72/72 
f 130/130/130 131/131/131 129/129/129 
f 132/132/132 131/131/131 130/130/130 
f 118/118/118 119/119/119 117/117/117 
f 118/118/118 119/119/119 118/118/118 
f 118/118/118 120/120/120 119/119/119 
f 125/125/125 120/120/120 118/118/118 
f 125/125/125 126/126/126 120/120/120 
f 41/41/41 48/48/48 47/47/47 
f 41/41/41 48/48/48 41/41/41 
f 41/41/41 43/43/43 48/48/48 
f 42/42/42 43/43/43 41/41/41 
f 42/42/42 44/44/44 43/43/43 
f 114/114/114 115/115/115 113/113/113 
f 116/116/116 115/115/115 114/114/114 
f 102/102/102 103/103/103 101/101/101 
f 102/102/102 103/103/103 102/102/102 
f 102/102/102 104/104/104 103/103/103 
f 109/109/109 104/104/104 102/102/102 
f 109/109/109 110/110/110 104/104/104 
f 57/57/57 64/64/64 63/63/63 
f 57/57/57 64/64/64 57/57/57 
f 57/57/57 59/59/59 64/64/64 
f 58/58/58 59/59/59 57/57/57 
f 58/58/58 60/60/60 59/59/59 
f 98/98/98 99/99/99 97/97/97 
f 100/100/100 99/99/99 98/98/98 
f 82/82/82 83/83/83 81/81/81 
f 84/84/84 83/83/83 82/82/82 
f 66/66/66 67/67/67 65/65/65 
f 68/68/68 67/67/67 66/66/66 
f 50/50/50 51/51/51 49/49/49 
f 52/52/52 51/51/51 50/50/50 
f 34/34/34 35/35/35 33/33/33 
f 36/36/36 35/35/35 34/34/34 
f 121/121/121 128/128/128 127/127/127 
f 121/121/121 128/128/128 121/121/121 
f 121/121/121 123/123/123 128/128/128 
f 122/122/122 123/123/123 121/121/121 
f 122/122/122 124/124/124 123/123/123 
f 73/73/73 80/80/80 79/79/79 
f 73/73/73 80/80/80 73/73/73 
f 73/73/73 75/75/75 80/80/80 
f 74/74/74 75/75/75 73/73/73 
f 74/74/74 76/76/76 75/75/75 
f 105/105/105 112/112/112 111/111/111 
f 105/105/105 112/112/112 105/105/105 
f 105/105/105 107/107/107 112/112/112 
f 106/106/106 107/107/107 105/105/105 
f 106/106/106 108/108/108 107/107/107 
f 89/89/89 96/96/96 95/95/95 
f 89/89/89 96/96/96 89/89/89 
f 89/89/89 91/91/91 96/96/96 
f 90/90/90 91/91/91 89/89/89 
f 90/90/90 92/92/92 91/91/91 
