v -0.080400 0.392900 0.080400
v -0.113700 0.392900 0.000000
v -0.080100 0.107200 0.080100
v -0.113200 0.107200 0.000000
v 0.000000 0.392900 0.113700
v 0.000000 0.107200 0.113200
v -0.028200 0.800200 0.028200
v -0.028200 0.800200 -0.028200
v -0.039900 0.800200 0.000000
v 0.000000 0.800200 0.039900
v 0.000000 0.800200 -0.039900
v 0.028200 0.800200 0.028200
v 0.028200 0.800200 -0.028200
v 0.039900 0.800200 0.000000
v 0.080400 0.392900 0.080400
v 0.080100 0.107200 0.080100
v 0.113700 0.392900 0.000000
v 0.113200 0.107200 0.000000
v -0.079700 0.000000 -0.079700
v -0.113200 0.107200 0.000000
v -0.080400 0.392900 -0.080400
v -0.113700 0.392900 0.000000
v -0.080100 0.107200 0.080100
v -0.079700 0.000000 0.079700
v -0.112800 0.000000 0.000000
v -0.067900 0.471700 -0.067900
v -0.096000 0.471700 0.000000
v -0.080400 0.392900 0.080400
v -0.067900 0.471700 0.067900
v -0.038500 0.514200 -0.038500
v -0.054400 0.514200 0.000000
v -0.038500 0.514200 0.038500
v 0.000000 0.107200 0.113200
v 0.000000 0.000000 0.112800
v -0.027600 0.779800 -0.027600
v -0.039000 0.779800 0.000000
v -0.027600 0.779800 0.027600
v 0.000000 0.392900 0.113700
v 0.000000 0.471700 0.096000
v -0.045200 0.784600 0.000000
v -0.039900 0.800200 0.000000
v -0.032000 0.784600 -0.032000
v -0.028200 0.800200 -0.028200
v -0.032000 0.784600 0.032000
v -0.028200 0.800200 0.028200
v -0.045200 0.784600 0.000000
v -0.032000 0.784600 -0.032000
v -0.039000 0.779800 0.000000
v -0.027600 0.779800 -0.027600
v -0.032000 0.784600 0.032000
v -0.027600 0.779800 0.027600
v 0.000000 0.514200 0.054400
v 0.000000 0.779800 0.039000
v 0.000000 0.784600 0.045200
v 0.000000 0.800200 0.039900
v 0.000000 0.784600 0.045200
v 0.000000 0.779800 0.039000
v 0.032000 0.784600 0.032000
v 0.027600 0.779800 0.027600
v 0.032000 0.784600 0.032000
v 0.028200 0.800200 0.028200
v 0.038500 0.514200 0.038500
v 0.027600 0.779800 0.027600
v 0.067900 0.471700 0.067900
v 0.032000 0.784600 -0.032000
v 0.045200 0.784600 0.000000
v 0.027600 0.779800 -0.027600
v 0.039000 0.779800 0.000000
v 0.045200 0.784600 0.000000
v 0.032000 0.784600 -0.032000
v 0.039900 0.800200 0.000000
v 0.028200 0.800200 -0.028200
v 0.080400 0.392900 0.080400
v 0.054400 0.514200 0.000000
v 0.038500 0.514200 -0.038500
v 0.039000 0.779800 0.000000
v 0.027600 0.779800 -0.027600
v 0.080100 0.107200 0.080100
v 0.079700 0.000000 0.079700
v 0.112800 0.000000 0.000000
v 0.079700 0.000000 -0.079700
v 0.113200 0.107200 0.000000
v 0.096000 0.471700 0.000000
v 0.067900 0.471700 -0.067900
v 0.080400 0.392900 -0.080400
v 0.113700 0.392900 0.000000
vt 0.254300 1.000000
vt 0.000000 1.000000
vt 0.250000 0.000000
vt 0.002100 0.000000
vt 0.499900 1.000000
vt 0.499900 0.000000
vt 0.144100 0.057600
vt 0.182300 0.626500
vt 0.020800 0.329000
vt 0.522100 0.014800
vt 0.522100 0.749800
vt 0.845800 0.057600
vt 0.845800 0.626500
vt 0.969000 0.329000
vt 0.745600 1.000000
vt 0.744500 0.000000
vt 1.000000 1.000000
vt 0.997800 0.000000
vt 0.117100 0.242100
vt 0.117100 0.242100
vt 0.117100 0.242100
vt 0.117100 0.242100
vt 0.117100 0.242100
vt 0.117100 0.242100
vt 0.117100 0.242100
vt 0.117100 0.242100
vt 0.117100 0.242100
vt 0.117100 0.242100
vt 0.117100 0.242100
vt 0.117100 0.242100
vt 0.117100 0.242100
vt 0.117100 0.242100
vt 0.117100 0.242100
vt 0.117100 0.242100
vt 0.117100 0.242100
vt 0.117100 0.242100
vt 0.117100 0.242100
vt 0.117100 0.242100
vt 0.117100 0.242100
vt 0.210900 0.304600
vt 0.210900 0.304600
vt 0.210900 0.304600
vt 0.210900 0.304600
vt 0.210900 0.304600
vt 0.210900 0.304600
vt 0.210900 0.304600
vt 0.210900 0.304600
vt 0.210900 0.304600
vt 0.210900 0.304600
vt 0.210900 0.304600
vt 0.210900 0.304600
vt 0.117100 0.242100
vt 0.117100 0.242100
vt 0.210900 0.304600
vt 0.210900 0.304600
vt 0.210900 0.304600
vt 0.210900 0.304600
vt 0.210900 0.304600
vt 0.210900 0.304600
vt 0.210900 0.304600
vt 0.210900 0.304600
vt 0.117100 0.242100
vt 0.117100 0.242100
vt 0.117100 0.242100
vt 0.210900 0.304600
vt 0.210900 0.304600
vt 0.210900 0.304600
vt 0.210900 0.304600
vt 0.210900 0.304600
vt 0.210900 0.304600
vt 0.210900 0.304600
vt 0.210900 0.304600
vt 0.117100 0.242100
vt 0.117100 0.242100
vt 0.117100 0.242100
vt 0.117100 0.242100
vt 0.117100 0.242100
vt 0.117100 0.242100
vt 0.117100 0.242100
vt 0.117100 0.242100
vt 0.117100 0.242100
vt 0.117100 0.242100
vt 0.117100 0.242100
vt 0.117100 0.242100
vt 0.117100 0.242100
vt 0.117100 0.242100
vn -0.603809 -0.001559 0.797127
vn -0.924044 -0.001494 0.382284
vn -0.797422 -0.001559 0.603421
vn -0.924198 -0.001617 0.381910
vn 0.136122 -0.001646 0.990691
vn -0.137097 -0.001646 0.990556
vn 0.000000 1.000000 0.000000
vn 0.000000 1.000000 0.000000
vn 0.000000 1.000000 0.000000
vn 0.000000 1.000000 0.000000
vn 0.000000 1.000000 0.000000
vn 0.000000 1.000000 0.000000
vn 0.000000 1.000000 0.000000
vn 0.000000 1.000000 0.000000
vn 0.797127 -0.001559 0.603809
vn 0.603421 -0.001559 0.797422
vn 0.923890 -0.001617 0.382656
vn 0.924044 -0.001494 0.382284
vn -0.923101 -0.002569 -0.384549
vn -0.972811 -0.002777 -0.231584
vn -0.923244 0.019802 -0.383702
vn -0.957208 0.093544 -0.273865
vn -0.604280 -0.004718 0.796758
vn -0.797553 -0.004716 0.603230
vn -0.999993 -0.003731 0.000000
vn -0.873358 0.326374 -0.361561
vn -0.908501 0.411561 0.072410
vn -0.769326 0.217428 0.600718
vn -0.591290 0.411521 0.693561
vn -0.881674 0.299935 -0.364268
vn -0.974257 0.219208 -0.052634
vn -0.726378 0.219312 0.651365
vn 0.136678 -0.004206 0.990607
vn -0.136902 -0.004207 0.990576
vn -0.922948 0.053517 -0.381187
vn -0.984299 0.057074 0.167026
vn -0.577103 0.057115 0.814672
vn -0.119032 0.217507 0.968774
vn 0.072411 0.411561 0.908501
vn -0.946846 0.321686 0.000000
vn -0.946182 0.323636 0.000000
vn -0.881108 0.301378 -0.364445
vn -0.880136 0.303343 -0.365163
vn -0.748208 0.322131 0.580014
vn -0.562608 0.321146 0.761799
vn -0.610085 -0.788689 0.075928
vn -0.593068 -0.767038 -0.244790
vn -0.609228 -0.787614 -0.092223
vn -0.592519 -0.767480 -0.244736
vn -0.376919 -0.789240 0.484800
vn -0.495921 -0.788115 0.364606
vn -0.052634 0.219208 0.974257
vn 0.167026 0.057074 0.984299
vn -0.119241 0.320655 0.939660
vn 0.139926 0.319837 0.937083
vn 0.075928 -0.788689 0.610085
vn -0.092223 -0.787614 0.609228
vn 0.484801 -0.789240 0.376919
vn 0.364606 -0.788115 0.495921
vn 0.669022 0.323757 0.669022
vn 0.668549 0.325704 0.668549
vn 0.651365 0.219312 0.726378
vn 0.814672 0.057115 0.577103
vn 0.693561 0.411521 0.591290
vn 0.592700 -0.767419 -0.244489
vn 0.610085 -0.788689 -0.075928
vn 0.593068 -0.767038 -0.244790
vn 0.609228 -0.787614 0.092223
vn 0.946846 0.321686 0.000000
vn 0.881108 0.301378 -0.364445
vn 0.946182 0.323636 0.000000
vn 0.880136 0.303343 -0.365163
vn 0.600718 0.217428 0.769326
vn 0.974257 0.219208 0.052634
vn 0.917017 0.125058 -0.378736
vn 0.984299 0.057074 -0.167026
vn 0.922937 0.053521 -0.381213
vn 0.796758 -0.004718 0.604280
vn 0.603230 -0.004716 0.797553
vn 0.990576 -0.004207 0.136902
vn 0.923101 -0.002569 -0.384549
vn 0.953484 -0.002446 -0.301435
vn 0.881990 0.470116 0.032912
vn 0.857384 0.372781 -0.354861
vn 0.923244 0.019802 -0.383702
vn 0.973693 0.109382 -0.199893
f 13/13/13 12/12/12 14/14/14 
f 11/11/11 12/12/12 13/13/13 
f 11/11/11 10/10/10 12/12/12 
f 11/11/11 10/10/10 11/11/11 
f 11/11/11 7/7/7 10/10/10 
f 8/8/8 7/7/7 11/11/11 
f 8/8/8 9/9/9 7/7/7 
f 3/3/3 2/2/2 4/4/4 
f 3/3/3 2/2/2 3/3/3 
f 3/3/3 1/1/1 2/2/2 
f 6/6/6 1/1/1 3/3/3 
f 6/6/6 5/5/5 1/1/1 
f 16/16/16 5/5/5 6/6/6 
f 16/16/16 15/15/15 5/5/5 
f 18/18/18 15/15/15 16/16/16 
f 18/18/18 17/17/17 15/15/15 
f 49/49/49 47/47/47 49/49/49 
f 48/48/48 47/47/47 49/49/49 
f 48/48/48 46/46/46 47/47/47 
f 51/51/51 46/46/46 48/48/48 
f 51/51/51 50/50/50 46/46/46 
f 57/57/57 50/50/50 51/51/51 
f 57/57/57 56/56/56 50/50/50 
f 59/59/59 56/56/56 57/57/57 
f 59/59/59 58/58/58 56/56/56 
f 68/68/68 58/58/58 59/59/59 
f 68/68/68 66/66/66 58/58/58 
f 67/67/67 66/66/66 68/68/68 
f 67/67/67 65/65/65 66/66/66 
f 75/75/75 74/74/74 84/84/84 
f 77/77/77 75/75/75 77/77/77 
f 76/76/76 75/75/75 77/77/77 
f 76/76/76 74/74/74 75/75/75 
f 63/63/63 74/74/74 76/76/76 
f 63/63/63 62/62/62 74/74/74 
f 53/53/53 62/62/62 63/63/63 
f 53/53/53 52/52/52 62/62/62 
f 37/37/37 52/52/52 53/53/53 
f 37/37/37 32/32/32 52/52/52 
f 36/36/36 32/32/32 37/37/37 
f 36/36/36 31/31/31 32/32/32 
f 85/85/85 86/86/86 85/85/85 
f 84/84/84 86/86/86 85/85/85 
f 84/84/84 83/83/83 86/86/86 
f 74/74/74 83/83/83 84/84/84 
f 74/74/74 83/83/83 83/83/83 
f 62/62/62 83/83/83 74/74/74 
f 62/62/62 64/64/64 83/83/83 
f 52/52/52 64/64/64 62/62/62 
f 52/52/52 39/39/39 64/64/64 
f 32/32/32 39/39/39 52/52/52 
f 32/32/32 29/29/29 39/39/39 
f 31/31/31 29/29/29 32/32/32 
f 31/31/31 29/29/29 29/29/29 
f 27/27/27 29/29/29 31/31/31 
f 27/27/27 28/28/28 29/29/29 
f 22/22/22 28/28/28 27/27/27 
f 38/38/38 29/29/29 28/28/28 
f 38/38/38 29/29/29 38/38/38 
f 38/38/38 39/39/39 29/29/29 
f 73/73/73 39/39/39 38/38/38 
f 73/73/73 64/64/64 39/39/39 
f 86/86/86 64/64/64 73/73/73 
f 86/86/86 83/83/83 64/64/64 
f 36/36/36 31/31/31 36/36/36 
f 35/35/35 31/31/31 36/36/36 
f 35/35/35 31/31/31 31/31/31 
f 30/30/30 31/31/31 35/35/35 
f 30/30/30 27/27/27 31/31/31 
f 26/26/26 27/27/27 30/30/30 
f 26/26/26 22/22/22 27/27/27 
f 21/21/21 22/22/22 26/26/26 
f 21/21/21 20/20/20 22/22/22 
f 19/19/19 20/20/20 21/21/21 
f 19/19/19 20/20/20 20/20/20 
f 25/25/25 20/20/20 19/19/19 
f 25/25/25 20/20/20 20/20/20 
f 24/24/24 20/20/20 25/25/25 
f 24/24/24 23/23/23 20/20/20 
f 34/34/34 23/23/23 24/24/24 
f 34/34/34 33/33/33 23/23/23 
f 79/79/79 33/33/33 34/34/34 
f 79/79/79 78/78/78 33/33/33 
f 80/80/80 78/78/78 79/79/79 
f 80/80/80 82/82/82 78/78/78 
f 81/81/81 82/82/82 80/80/80 
f 81/81/81 82/82/82 82/82/82 
f 85/85/85 82/82/82 81/81/81 
f 85/85/85 86/86/86 82/82/82 
f 72/72/72 70/70/70 72/72/72 
f 71/71/71 70/70/70 72/72/72 
f 71/71/71 69/69/69 70/70/70 
f 71/71/71 69/69/69 71/71/71 
f 71/71/71 60/60/60 69/69/69 
f 61/61/61 60/60/60 71/71/71 
f 61/61/61 60/60/60 60/60/60 
f 55/55/55 60/60/60 61/61/61 
f 55/55/55 54/54/54 60/60/60 
f 45/45/45 54/54/54 55/55/55 
f 45/45/45 44/44/44 54/54/54 
f 41/41/41 44/44/44 45/45/45 
f 41/41/41 40/40/40 44/44/44 
f 41/41/41 40/40/40 41/41/41 
f 41/41/41 42/42/42 40/40/40 
f 43/43/43 42/42/42 41/41/41 
