v -0.102200 0.191800 0.000000
v -0.072200 0.191800 0.072200
v -0.102200 0.390200 0.000000
v -0.072200 0.390200 0.072200
v -0.072200 0.000000 -0.072200
v -0.102200 0.191800 0.000000
v -0.070600 0.390500 -0.070600
v -0.102200 0.390200 0.000000
v -0.047600 0.512600 0.000000
v -0.033700 0.512600 0.033700
v -0.045000 0.594200 0.000000
v -0.031800 0.594200 0.031800
v 0.000000 0.390200 0.102200
v 0.000000 0.191800 0.102200
v -0.033700 0.512600 -0.033700
v -0.047600 0.512600 0.000000
v -0.045000 0.594200 0.000000
v 0.000000 0.512600 0.047700
v 0.000000 0.594200 0.046100
v 0.033700 0.512600 0.033700
v 0.032200 0.594200 0.032200
v 0.047600 0.512600 0.000000
v 0.033700 0.512600 -0.033700
v 0.045000 0.594200 0.000000
v 0.072200 0.390200 0.072200
v 0.072200 0.191800 0.072200
v 0.047600 0.512600 0.000000
v 0.045000 0.594200 0.000000
v 0.070600 0.390500 -0.070600
v 0.102200 0.390200 0.000000
v 0.072200 0.000000 -0.072200
v 0.102200 0.191800 0.000000
v 0.102200 0.191800 0.000000
v 0.102200 0.390200 0.000000
v -0.102200 0.000000 0.000000
v -0.072200 0.000000 0.072200
v -0.102200 0.191800 0.000000
v -0.072200 0.191800 0.072200
v -0.102200 0.390200 0.000000
v -0.072200 0.390200 0.072200
v -0.089400 0.484300 0.000000
v -0.063200 0.484300 0.063200
v -0.070600 0.390500 -0.070600
v -0.063200 0.484300 -0.063200
v -0.033700 0.512600 -0.033700
v -0.047600 0.512600 0.000000
v -0.033700 0.512600 0.033700
v -0.072200 0.000000 -0.072200
v -0.031600 0.772800 -0.031600
v -0.044300 0.772800 0.000000
v -0.029500 0.799500 -0.029500
v -0.041400 0.799500 0.000000
v -0.031200 0.772800 0.031300
v -0.029100 0.799500 0.029100
v -0.033700 0.512600 -0.033700
v -0.045000 0.594200 0.000000
v -0.027600 0.770500 -0.027500
v -0.038600 0.770500 0.000000
v 0.000000 0.191800 0.102200
v 0.000000 0.000000 0.102200
v -0.031800 0.594200 0.031800
v -0.027200 0.770500 0.027100
v -0.031600 0.772800 -0.031600
v -0.027600 0.770500 -0.027500
v -0.044300 0.772800 0.000000
v -0.038600 0.770500 0.000000
v -0.031200 0.772800 0.031300
v -0.027200 0.770500 0.027100
v 0.000000 0.390200 0.102200
v 0.000000 0.484400 0.089200
v 0.000000 0.512600 0.047700
v 0.000000 0.772800 0.045300
v 0.000000 0.799500 0.042300
v 0.000000 0.594200 0.046100
v 0.000000 0.770500 0.039500
v 0.000000 0.772800 0.045300
v 0.000000 0.770500 0.039500
v 0.041300 0.799500 0.000000
v 0.029500 0.799500 -0.029500
v 0.000000 0.799500 -0.042300
v 0.029500 0.799500 0.029500
v 0.031700 0.772800 0.031600
v 0.027500 0.770500 0.027500
v 0.032200 0.594200 0.032200
v 0.027500 0.770500 0.027500
v 0.031700 0.772800 0.031600
v 0.063200 0.484300 0.063200
v 0.033700 0.512600 0.033700
v 0.072200 0.390200 0.072200
v 0.031600 0.772800 -0.031600
v 0.044300 0.772800 0.000000
v 0.027500 0.770500 -0.027600
v 0.038600 0.770500 0.000000
v 0.045000 0.594200 0.000000
v 0.038600 0.770500 0.000000
v 0.072200 0.191800 0.072200
v 0.072200 0.000000 0.072200
v 0.033700 0.512600 -0.033700
v 0.027500 0.770500 -0.027600
v 0.044300 0.772800 0.000000
v 0.031600 0.772800 -0.031600
v 0.102200 0.000000 0.000000
v 0.072200 0.000000 -0.072200
v 0.102200 0.191800 0.000000
v 0.063200 0.484300 -0.063200
v 0.033700 0.512600 -0.033700
v 0.089400 0.484300 0.000000
v 0.047600 0.512600 0.000000
v 0.102200 0.390200 0.000000
v 0.070600 0.390500 -0.070600
vt 0.080700 0.006000
vt 0.291800 0.006000
vt 0.080700 0.996300
vt 0.291800 0.996300
vt 0.915500 0.786300
vt 0.946800 0.786300
vt 0.915500 0.933100
vt 0.946800 0.933100
vt 0.013900 0.006000
vt 0.258400 0.006000
vt 0.013900 0.996300
vt 0.258400 0.996300
vt 0.502900 0.996300
vt 0.502900 0.006000
vt 0.920500 0.859700
vt 0.956700 0.786300
vt 0.956700 0.933100
vt 0.502900 0.006000
vt 0.502900 0.996300
vt 0.747400 0.006000
vt 0.747400 0.996300
vt 0.811700 0.786300
vt 0.848000 0.859700
vt 0.811700 0.933100
vt 0.713900 0.996300
vt 0.713900 0.006000
vt 0.991900 0.006000
vt 0.991900 0.996300
vt 0.852900 0.933100
vt 0.821600 0.933100
vt 0.852900 0.786300
vt 0.821600 0.786300
vt 0.925000 0.006000
vt 0.925000 0.996300
vt 0.132800 0.210900
vt 0.132800 0.210900
vt 0.132800 0.210900
vt 0.132800 0.210900
vt 0.132800 0.210900
vt 0.132800 0.210900
vt 0.132800 0.210900
vt 0.132800 0.210900
vt 0.132800 0.210900
vt 0.132800 0.210900
vt 0.132800 0.210900
vt 0.132800 0.210900
vt 0.132800 0.210900
vt 0.132800 0.210900
vt 0.179600 0.476500
vt 0.179600 0.476500
vt 0.179600 0.476500
vt 0.179600 0.476500
vt 0.179600 0.476500
vt 0.179600 0.476500
vt 0.148400 0.210900
vt 0.148400 0.210900
vt 0.148400 0.210900
vt 0.148400 0.210900
vt 0.132800 0.210900
vt 0.132800 0.210900
vt 0.148400 0.210900
vt 0.148400 0.210900
vt 0.164000 0.476500
vt 0.164000 0.476500
vt 0.164000 0.476500
vt 0.164000 0.476500
vt 0.164000 0.476500
vt 0.164000 0.476500
vt 0.132800 0.210900
vt 0.132800 0.210900
vt 0.132800 0.210900
vt 0.179600 0.476500
vt 0.179600 0.476500
vt 0.148400 0.210900
vt 0.148400 0.210900
vt 0.164000 0.476500
vt 0.164000 0.476500
vt 0.179600 0.476500
vt 0.179600 0.476500
vt 0.179600 0.476500
vt 0.179600 0.476500
vt 0.164000 0.476500
vt 0.164000 0.476500
vt 0.148400 0.210900
vt 0.148400 0.210900
vt 0.179600 0.476500
vt 0.132800 0.210900
vt 0.132800 0.210900
vt 0.132800 0.210900
vt 0.164000 0.476500
vt 0.164000 0.476500
vt 0.164000 0.476500
vt 0.164000 0.476500
vt 0.148400 0.210900
vt 0.148400 0.210900
vt 0.132800 0.210900
vt 0.132800 0.210900
vt 0.148400 0.210900
vt 0.148400 0.210900
vt 0.179600 0.476500
vt 0.179600 0.476500
vt 0.132800 0.210900
vt 0.132800 0.210900
vt 0.132800 0.210900
vt 0.132800 0.210900
vt 0.132800 0.210900
vt 0.132800 0.210900
vt 0.132800 0.210900
vt 0.132800 0.210900
vt 0.132800 0.210900
vn -0.923455 0.000000 0.383707
vn -0.796919 0.000000 0.604086
vn -0.923455 0.000000 0.383707
vn -0.604086 0.000000 0.796919
vn -0.918292 0.005385 -0.395866
vn -0.916452 0.003577 -0.400129
vn -0.916452 0.003577 -0.400129
vn -0.912742 0.000000 -0.408536
vn -0.924050 0.029443 0.381136
vn -0.711340 0.029240 0.702240
vn -0.923620 0.029916 0.382139
vn -0.715205 0.032909 0.698139
vn 0.137194 0.000000 0.990544
vn -0.137194 0.000000 0.990544
vn -0.924050 0.029443 -0.381136
vn -0.924050 0.029443 -0.381136
vn -0.924050 0.029443 -0.381136
vn 0.000000 0.019604 0.999808
vn -0.003043 0.024668 0.999691
vn 0.610882 0.023634 0.791369
vn 0.804265 0.027700 0.593624
vn 0.924050 0.029443 -0.381136
vn 0.924050 0.029443 -0.381136
vn 0.924050 0.029443 -0.381136
vn 0.796919 0.000000 0.604086
vn 0.604086 0.000000 0.796919
vn 0.926488 0.026726 0.375375
vn 0.928864 0.029596 0.369238
vn 0.912737 0.005414 -0.408511
vn 0.916452 0.003577 -0.400129
vn 0.916452 0.003577 -0.400129
vn 0.923455 0.000000 -0.383707
vn 0.923455 0.000000 0.383707
vn 0.923455 0.000000 0.383707
vn -1.000000 0.000000 0.000000
vn -0.796919 0.000000 0.604086
vn -0.990544 0.000000 0.137194
vn -0.604086 0.000000 0.796919
vn -0.983132 0.126379 -0.132211
vn -0.782876 0.133223 0.607747
vn -0.924969 0.367510 0.096788
vn -0.585715 0.367460 0.722434
vn -0.907989 0.103660 -0.405968
vn -0.887294 0.259669 -0.381157
vn -0.546516 0.806332 -0.226164
vn -0.557425 0.822662 0.111827
vn -0.315820 0.822231 0.473492
vn -0.923455 0.000000 -0.383707
vn -0.923050 0.101777 -0.370973
vn -0.986571 0.107712 -0.122787
vn -0.301665 0.945646 -0.121456
vn -0.330542 0.942485 0.049636
vn -0.710427 0.110647 0.695018
vn -0.366848 0.858202 0.359043
vn -0.922572 0.031066 -0.384572
vn -0.986500 0.034673 -0.160051
vn -0.924588 0.032038 -0.379618
vn -0.987191 0.036148 0.155391
vn 0.137194 0.000000 0.990544
vn -0.137194 0.000000 0.990544
vn -0.714931 0.036787 0.698227
vn -0.714711 0.037268 0.698426
vn -0.372907 -0.915685 -0.149871
vn -0.371584 -0.916363 -0.149011
vn -0.374119 -0.927377 0.002547
vn -0.374196 -0.927346 0.002741
vn -0.234492 -0.927674 0.290575
vn -0.302813 -0.927043 0.221122
vn -0.123097 0.134790 0.983198
vn 0.096690 0.367180 0.925111
vn 0.111877 0.822093 0.558253
vn -0.004740 0.111656 0.993736
vn -0.005439 0.329571 0.944115
vn -0.006245 0.037409 0.999281
vn -0.006735 0.037863 0.999260
vn -0.001758 -0.929575 0.368629
vn -0.002167 -0.931343 0.364135
vn 0.330918 0.942519 -0.046387
vn 0.289769 0.950052 -0.115908
vn 0.000000 1.000000 0.000000
vn 0.344733 0.904400 0.251436
vn 0.230464 -0.929242 0.288783
vn 0.301133 -0.928599 0.216850
vn 0.624918 0.037195 0.779803
vn 0.812185 0.036826 0.582236
vn 0.614721 0.111427 0.780834
vn 0.722088 0.366762 0.586579
vn 0.473420 0.822569 0.315044
vn 0.607070 0.133875 0.783290
vn 0.369622 -0.917231 -0.148551
vn 0.372061 -0.928208 -0.000315
vn 0.369812 -0.917134 -0.148675
vn 0.374197 -0.927349 0.000000
vn 0.998151 0.035636 -0.049244
vn 0.999342 0.036278 0.000000
vn 0.796919 0.000000 0.604086
vn 0.604086 0.000000 0.796919
vn 0.922375 0.031281 -0.385026
vn 0.924206 0.032166 -0.380537
vn 0.985970 0.111253 0.124443
vn 0.923251 0.102734 -0.370207
vn 0.990544 0.000000 0.137194
vn 0.923455 0.000000 -0.383707
vn 1.000000 0.000000 0.000000
vn 0.859197 0.367303 -0.356186
vn 0.546516 0.806332 -0.226164
vn 0.910844 0.397154 -0.112393
vn 0.560629 0.828067 0.000000
vn 0.984017 0.133630 0.117704
vn 0.912159 0.113569 -0.393787
f 16/16/16 17/17/17 15/15/15 
f 34/34/34 33/33/33 34/34/34 
f 25/25/25 33/33/33 34/34/34 
f 25/25/25 26/26/26 33/33/33 
f 13/13/13 26/26/26 25/25/25 
f 13/13/13 14/14/14 26/26/26 
f 4/4/4 14/14/14 13/13/13 
f 4/4/4 2/2/2 14/14/14 
f 3/3/3 2/2/2 4/4/4 
f 3/3/3 1/1/1 2/2/2 
f 10/10/10 11/11/11 9/9/9 
f 10/10/10 11/11/11 10/10/10 
f 10/10/10 12/12/12 11/11/11 
f 10/10/10 12/12/12 10/10/10 
f 10/10/10 19/19/19 12/12/12 
f 18/18/18 19/19/19 10/10/10 
f 18/18/18 19/19/19 19/19/19 
f 20/20/20 19/19/19 18/18/18 
f 20/20/20 21/21/21 19/19/19 
f 27/27/27 21/21/21 20/20/20 
f 27/27/27 28/28/28 21/21/21 
f 23/23/23 24/24/24 22/22/22 
f 6/6/6 7/7/7 5/5/5 
f 8/8/8 7/7/7 6/6/6 
f 30/30/30 31/31/31 29/29/29 
f 32/32/32 31/31/31 30/30/30 
f 35/35/35 37/37/37 48/48/48 
f 36/36/36 37/37/37 35/35/35 
f 36/36/36 38/38/38 37/37/37 
f 60/60/60 38/38/38 36/36/36 
f 60/60/60 59/59/59 38/38/38 
f 97/97/97 59/59/59 60/60/60 
f 97/97/97 96/96/96 59/59/59 
f 102/102/102 96/96/96 97/97/97 
f 102/102/102 104/104/104 96/96/96 
f 103/103/103 104/104/104 102/102/102 
f 53/53/53 52/52/52 50/50/50 
f 50/50/50 51/51/51 49/49/49 
f 52/52/52 51/51/51 50/50/50 
f 52/52/52 78/78/78 51/51/51 
f 81/81/81 78/78/78 52/52/52 
f 81/81/81 100/100/100 78/78/78 
f 81/81/81 100/100/100 81/81/81 
f 81/81/81 86/86/86 100/100/100 
f 73/73/73 86/86/86 81/81/81 
f 73/73/73 72/72/72 86/86/86 
f 73/73/73 72/72/72 73/73/73 
f 73/73/73 53/53/53 72/72/72 
f 54/54/54 53/53/53 73/73/73 
f 54/54/54 52/52/52 53/53/53 
f 54/54/54 52/52/52 54/54/54 
f 54/54/54 81/81/81 52/52/52 
f 73/73/73 81/81/81 54/54/54 
f 101/101/101 78/78/78 100/100/100 
f 79/79/79 78/78/78 101/101/101 
f 79/79/79 51/51/51 78/78/78 
f 80/80/80 51/51/51 79/79/79 
f 70/70/70 69/69/69 70/70/70 
f 42/42/42 69/69/69 70/70/70 
f 42/42/42 40/40/40 69/69/69 
f 41/41/41 40/40/40 42/42/42 
f 41/41/41 39/39/39 40/40/40 
f 39/39/39 44/44/44 43/43/43 
f 41/41/41 44/44/44 39/39/39 
f 41/41/41 45/45/45 44/44/44 
f 41/41/41 45/45/45 41/41/41 
f 41/41/41 46/46/46 45/45/45 
f 42/42/42 46/46/46 41/41/41 
f 42/42/42 47/47/47 46/46/46 
f 70/70/70 47/47/47 42/42/42 
f 70/70/70 71/71/71 47/47/47 
f 87/87/87 71/71/71 70/70/70 
f 87/87/87 88/88/88 71/71/71 
f 87/87/87 88/88/88 87/87/87 
f 107/107/107 88/88/88 87/87/87 
f 107/107/107 108/108/108 88/88/88 
f 107/107/107 108/108/108 107/107/107 
f 107/107/107 106/106/106 108/108/108 
f 107/107/107 106/106/106 107/107/107 
f 107/107/107 105/105/105 106/106/106 
f 107/107/107 105/105/105 107/107/107 
f 107/107/107 110/110/110 105/105/105 
f 107/107/107 110/110/110 107/107/107 
f 107/107/107 109/109/109 110/110/110 
f 87/87/87 109/109/109 107/107/107 
f 87/87/87 89/89/89 109/109/109 
f 70/70/70 89/89/89 87/87/87 
f 70/70/70 69/69/69 89/89/89 
f 64/64/64 65/65/65 63/63/63 
f 66/66/66 65/65/65 64/64/64 
f 66/66/66 65/65/65 65/65/65 
f 68/68/68 65/65/65 66/66/66 
f 68/68/68 67/67/67 65/65/65 
f 77/77/77 67/67/67 68/68/68 
f 77/77/77 76/76/76 67/67/67 
f 77/77/77 76/76/76 77/77/77 
f 77/77/77 82/82/82 76/76/76 
f 83/83/83 82/82/82 77/77/77 
f 83/83/83 91/91/91 82/82/82 
f 93/93/93 91/91/91 83/83/83 
f 93/93/93 91/91/91 91/91/91 
f 92/92/92 91/91/91 93/93/93 
f 92/92/92 90/90/90 91/91/91 
f 99/99/99 94/94/94 98/98/98 
f 95/95/95 94/94/94 99/99/99 
f 95/95/95 94/94/94 94/94/94 
f 85/85/85 94/94/94 95/95/95 
f 85/85/85 84/84/84 94/94/94 
f 75/75/75 84/84/84 85/85/85 
f 75/75/75 74/74/74 84/84/84 
f 75/75/75 74/74/74 75/75/75 
f 75/75/75 61/61/61 74/74/74 
f 62/62/62 61/61/61 75/75/75 
f 62/62/62 61/61/61 61/61/61 
f 58/58/58 61/61/61 62/62/62 
f 58/58/58 56/56/56 61/61/61 
f 57/57/57 56/56/56 58/58/58 
f 57/57/57 55/55/55 56/56/56 
