v -0.080300 0.392700 0.080300
v -0.113600 0.392700 0.000000
v -0.080000 0.107100 0.080000
v -0.113200 0.107100 0.000000
v 0.000000 0.392700 0.113600
v 0.000000 0.107100 0.113200
v -0.028200 0.799700 0.028200
v -0.028200 0.799700 -0.028200
v -0.039900 0.799700 0.000000
v 0.000000 0.799700 0.039900
v 0.000000 0.799700 -0.039900
v 0.028200 0.799700 0.028200
v 0.028200 0.799700 -0.028200
v 0.039900 0.799700 0.000000
v 0.080300 0.392700 0.080300
v 0.080000 0.107100 0.080000
v 0.113600 0.392700 0.000000
v 0.113200 0.107100 0.000000
v -0.080000 0.107100 0.080000
v -0.113200 0.107100 0.000000
v -0.079700 0.000000 0.079700
v -0.112700 0.000000 0.000000
v -0.079700 0.000000 -0.079700
v -0.078700 0.420600 -0.078700
v -0.113600 0.392700 0.000000
v -0.080300 0.392700 0.080300
v -0.111300 0.420600 0.000000
v -0.078700 0.420600 0.078700
v -0.067800 0.471400 -0.067800
v -0.095900 0.471400 0.000000
v -0.067800 0.471400 0.067800
v -0.038500 0.513900 -0.038500
v -0.054400 0.513900 0.000000
v -0.038500 0.513900 0.038500
v 0.000000 0.107100 0.113200
v 0.000000 0.000000 0.112700
v -0.027500 0.779400 -0.027500
v -0.039000 0.779400 0.000000
v -0.027500 0.779400 0.027500
v 0.000000 0.392700 0.113600
v 0.000000 0.420600 0.111300
v 0.000000 0.471400 0.095900
v -0.045200 0.784100 0.000000
v -0.039900 0.799700 0.000000
v -0.032000 0.784100 -0.032000
v -0.028200 0.799700 -0.028200
v -0.032000 0.784100 0.032000
v -0.028200 0.799700 0.028200
v -0.045200 0.784100 0.000000
v -0.032000 0.784100 -0.032000
v -0.039000 0.779400 0.000000
v -0.027500 0.779400 -0.027500
v -0.032000 0.784100 0.032000
v -0.027500 0.779400 0.027500
v 0.000000 0.513900 0.054400
v 0.000000 0.779400 0.039000
v 0.000000 0.784100 0.045200
v 0.000000 0.799700 0.039900
v 0.000000 0.784100 0.045200
v 0.000000 0.779400 0.039000
v 0.032000 0.784100 0.032000
v 0.027500 0.779400 0.027500
v 0.032000 0.784100 0.032000
v 0.028200 0.799700 0.028200
v 0.038500 0.513900 0.038500
v 0.027500 0.779400 0.027500
v 0.067800 0.471400 0.067800
v 0.032000 0.784100 -0.032000
v 0.045200 0.784100 0.000000
v 0.027500 0.779400 -0.027500
v 0.039000 0.779400 0.000000
v 0.045200 0.784100 0.000000
v 0.032000 0.784100 -0.032000
v 0.039900 0.799700 0.000000
v 0.028200 0.799700 -0.028200
v 0.078700 0.420600 0.078700
v 0.080300 0.392700 0.080300
v 0.054400 0.513900 0.000000
v 0.038500 0.513900 -0.038500
v 0.039000 0.779400 0.000000
v 0.027500 0.779400 -0.027500
v 0.080000 0.107100 0.080000
v 0.079700 0.000000 0.079700
v 0.113600 0.392700 0.000000
v 0.078700 0.420600 -0.078700
v 0.111300 0.420600 0.000000
v 0.112700 0.000000 0.000000
v 0.079700 0.000000 -0.079700
v 0.113200 0.107100 0.000000
v 0.095900 0.471400 0.000000
v 0.067800 0.471400 -0.067800
vt 0.254300 1.000000
vt 0.000000 1.000000
vt 0.255400 0.000000
vt 0.002100 0.000000
vt 0.499900 1.000000
vt 0.499900 0.000000
vt 0.396000 0.783500
vt 0.396000 0.959700
vt 0.356900 0.857600
vt 0.490300 0.753800
vt 0.490300 0.991000
vt 0.584700 0.783500
vt 0.584700 0.959700
vt 0.623800 0.857600
vt 0.745600 1.000000
vt 0.744500 0.000000
vt 1.000000 1.000000
vt 0.997800 0.000000
vt 0.007800 0.273400
vt 0.007800 0.273400
vt 0.007800 0.273400
vt 0.007800 0.273400
vt 0.007800 0.273400
vt 0.007800 0.273400
vt 0.007800 0.273400
vt 0.007800 0.273400
vt 0.007800 0.273400
vt 0.007800 0.273400
vt 0.007800 0.273400
vt 0.007800 0.273400
vt 0.007800 0.273400
vt 0.007800 0.273400
vt 0.007800 0.273400
vt 0.007800 0.273400
vt 0.007800 0.273400
vt 0.007800 0.273400
vt 0.007800 0.273400
vt 0.007800 0.273400
vt 0.007800 0.273400
vt 0.007800 0.273400
vt 0.007800 0.273400
vt 0.007800 0.273400
vt 0.148400 0.304600
vt 0.148400 0.304600
vt 0.148400 0.304600
vt 0.148400 0.304600
vt 0.148400 0.304600
vt 0.148400 0.304600
vt 0.148400 0.304600
vt 0.148400 0.304600
vt 0.148400 0.304600
vt 0.148400 0.304600
vt 0.148400 0.304600
vt 0.148400 0.304600
vt 0.007800 0.273400
vt 0.007800 0.273400
vt 0.148400 0.304600
vt 0.148400 0.304600
vt 0.148400 0.304600
vt 0.148400 0.304600
vt 0.148400 0.304600
vt 0.148400 0.304600
vt 0.148400 0.304600
vt 0.148400 0.304600
vt 0.007800 0.273400
vt 0.007800 0.273400
vt 0.007800 0.273400
vt 0.148400 0.304600
vt 0.148400 0.304600
vt 0.148400 0.304600
vt 0.148400 0.304600
vt 0.148400 0.304600
vt 0.148400 0.304600
vt 0.148400 0.304600
vt 0.148400 0.304600
vt 0.007800 0.273400
vt 0.007800 0.273400
vt 0.007800 0.273400
vt 0.007800 0.273400
vt 0.007800 0.273400
vt 0.007800 0.273400
vt 0.007800 0.273400
vt 0.007800 0.273400
vt 0.007800 0.273400
vt 0.007800 0.273400
vt 0.007800 0.273400
vt 0.007800 0.273400
vt 0.007800 0.273400
vt 0.007800 0.273400
vt 0.007800 0.273400
vt 0.007800 0.273400
vn -0.604206 -0.001443 0.796827
vn -0.923672 -0.001333 0.383183
vn -0.797272 -0.001443 0.603619
vn -0.923622 -0.001294 0.383303
vn 0.136693 -0.001416 0.990612
vn -0.137265 -0.001416 0.990533
vn 0.000000 1.000000 0.000000
vn 0.000000 1.000000 0.000000
vn 0.000000 1.000000 0.000000
vn 0.000000 1.000000 0.000000
vn 0.000000 1.000000 0.000000
vn 0.000000 1.000000 0.000000
vn 0.000000 1.000000 0.000000
vn 0.000000 1.000000 0.000000
vn 0.796827 -0.001443 0.604206
vn 0.603619 -0.001443 0.797272
vn 0.923722 -0.001294 0.383063
vn 0.923672 -0.001333 0.383183
vn -0.604019 -0.004157 0.796959
vn -0.969475 -0.000380 -0.245190
vn -0.797254 -0.004157 0.603629
vn -0.999989 -0.004668 0.000000
vn -0.921099 0.001611 -0.389326
vn -0.918210 0.021828 -0.395493
vn -0.937783 0.011646 -0.347026
vn -0.793473 0.080532 0.603254
vn -0.975867 0.216700 -0.026914
vn -0.709105 0.216593 0.671013
vn -0.841373 0.412969 -0.348638
vn -0.865799 0.498235 0.046417
vn -0.579557 0.498129 0.644966
vn -0.881769 0.299478 -0.364412
vn -0.974260 0.219006 -0.053428
vn -0.725749 0.219065 0.652149
vn 0.136384 -0.004392 0.990646
vn -0.137364 -0.004391 0.990511
vn -0.922236 0.053783 -0.382868
vn -0.984227 0.057307 0.167371
vn -0.577092 0.057444 0.814656
vn -0.134541 0.080981 0.987594
vn -0.026914 0.216700 0.975867
vn 0.046417 0.498235 0.865799
vn -0.946847 0.321685 0.000000
vn -0.946182 0.323635 0.000000
vn -0.881108 0.301377 -0.364445
vn -0.880136 0.303342 -0.365163
vn -0.748208 0.322130 0.580014
vn -0.562608 0.321145 0.761799
vn -0.599033 -0.797177 0.075288
vn -0.581241 -0.777135 -0.241288
vn -0.598086 -0.796278 -0.090744
vn -0.575570 -0.781528 -0.240693
vn -0.369185 -0.799768 0.473364
vn -0.485007 -0.798509 0.356583
vn -0.053428 0.219006 0.974260
vn 0.167371 0.057307 0.984227
vn -0.119241 0.320654 0.939661
vn 0.139927 0.319835 0.937084
vn 0.075288 -0.797177 0.599033
vn -0.090744 -0.796278 0.598086
vn 0.473364 -0.799768 0.369185
vn 0.356583 -0.798509 0.485007
vn 0.669022 0.323756 0.669022
vn 0.668550 0.325703 0.668550
vn 0.652149 0.219065 0.725749
vn 0.814656 0.057444 0.577092
vn 0.644966 0.498129 0.579557
vn 0.577435 -0.780919 -0.238192
vn 0.599033 -0.797177 -0.075288
vn 0.581241 -0.777135 -0.241288
vn 0.598086 -0.796278 0.090744
vn 0.946847 0.321685 0.000000
vn 0.881108 0.301377 -0.364445
vn 0.946182 0.323635 0.000000
vn 0.880136 0.303342 -0.365163
vn 0.671013 0.216593 0.709105
vn 0.603254 0.080532 0.793473
vn 0.974260 0.219006 0.053428
vn 0.916376 0.125113 -0.380266
vn 0.984227 0.057307 -0.167371
vn 0.921227 0.054129 -0.385241
vn 0.796959 -0.004157 0.604019
vn 0.603629 -0.004157 0.797254
vn 0.954782 0.016804 -0.296831
vn 0.918210 0.021828 -0.395493
vn 0.969457 0.245263 0.000000
vn 0.990511 -0.004391 0.137364
vn 0.921099 0.001611 -0.389326
vn 0.949373 0.000024 -0.314151
vn 0.837182 0.545489 0.039595
vn 0.821414 0.457749 -0.340213
f 13/13/13 12/12/12 14/14/14 
f 11/11/11 12/12/12 13/13/13 
f 11/11/11 10/10/10 12/12/12 
f 11/11/11 10/10/10 11/11/11 
f 11/11/11 7/7/7 10/10/10 
f 8/8/8 7/7/7 11/11/11 
f 8/8/8 9/9/9 7/7/7 
f 3/3/3 2/2/2 4/4/4 
f 3/3/3 2/2/2 3/3/3 
f 3/3/3 1/1/1 2/2/2 
f 6/6/6 1/1/1 3/3/3 
f 6/6/6 5/5/5 1/1/1 
f 16/16/16 5/5/5 6/6/6 
f 16/16/16 15/15/15 5/5/5 
f 18/18/18 15/15/15 16/16/16 
f 18/18/18 17/17/17 15/15/15 
f 52/52/52 50/50/50 52/52/52 
f 51/51/51 50/50/50 52/52/52 
f 51/51/51 49/49/49 50/50/50 
f 54/54/54 49/49/49 51/51/51 
f 54/54/54 53/53/53 49/49/49 
f 60/60/60 53/53/53 54/54/54 
f 60/60/60 59/59/59 53/53/53 
f 62/62/62 59/59/59 60/60/60 
f 62/62/62 61/61/61 59/59/59 
f 71/71/71 61/61/61 62/62/62 
f 71/71/71 69/69/69 61/61/61 
f 70/70/70 69/69/69 71/71/71 
f 70/70/70 68/68/68 69/69/69 
f 80/80/80 66/66/66 78/78/78 
f 91/91/91 78/78/78 91/91/91 
f 79/79/79 78/78/78 91/91/91 
f 79/79/79 80/80/80 78/78/78 
f 81/81/81 80/80/80 79/79/79 
f 85/85/85 86/86/86 85/85/85 
f 91/91/91 86/86/86 85/85/85 
f 91/91/91 90/90/90 86/86/86 
f 78/78/78 90/90/90 91/91/91 
f 78/78/78 65/65/65 90/90/90 
f 66/66/66 65/65/65 78/78/78 
f 66/66/66 65/65/65 65/65/65 
f 56/56/56 65/65/65 66/66/66 
f 56/56/56 55/55/55 65/65/65 
f 39/39/39 55/55/55 56/56/56 
f 39/39/39 34/34/34 55/55/55 
f 38/38/38 34/34/34 39/39/39 
f 90/90/90 67/67/67 86/86/86 
f 65/65/65 67/67/67 90/90/90 
f 65/65/65 55/55/55 67/67/67 
f 88/88/88 89/89/89 88/88/88 
f 85/85/85 89/89/89 88/88/88 
f 85/85/85 84/84/84 89/89/89 
f 86/86/86 84/84/84 85/85/85 
f 86/86/86 76/76/76 84/84/84 
f 67/67/67 76/76/76 86/86/86 
f 67/67/67 42/42/42 76/76/76 
f 55/55/55 42/42/42 67/67/67 
f 55/55/55 42/42/42 42/42/42 
f 34/34/34 42/42/42 55/55/55 
f 34/34/34 31/31/31 42/42/42 
f 33/33/33 31/31/31 34/34/34 
f 40/40/40 28/28/28 26/26/26 
f 41/41/41 28/28/28 40/40/40 
f 41/41/41 31/31/31 28/28/28 
f 41/41/41 31/31/31 41/41/41 
f 41/41/41 42/42/42 31/31/31 
f 41/41/41 42/42/42 41/41/41 
f 41/41/41 76/76/76 42/42/42 
f 77/77/77 76/76/76 41/41/41 
f 77/77/77 84/84/84 76/76/76 
f 77/77/77 41/41/41 40/40/40 
f 33/33/33 31/31/31 33/33/33 
f 30/30/30 31/31/31 33/33/33 
f 30/30/30 28/28/28 31/31/31 
f 27/27/27 28/28/28 30/30/30 
f 27/27/27 26/26/26 28/28/28 
f 25/25/25 26/26/26 27/27/27 
f 38/38/38 33/33/33 34/34/34 
f 37/37/37 33/33/33 38/38/38 
f 37/37/37 33/33/33 33/33/33 
f 32/32/32 33/33/33 37/37/37 
f 32/32/32 30/30/30 33/33/33 
f 29/29/29 30/30/30 32/32/32 
f 29/29/29 27/27/27 30/30/30 
f 24/24/24 27/27/27 29/29/29 
f 24/24/24 25/25/25 27/27/27 
f 24/24/24 25/25/25 24/24/24 
f 24/24/24 20/20/20 25/25/25 
f 23/23/23 20/20/20 24/24/24 
f 23/23/23 20/20/20 23/23/23 
f 22/22/22 20/20/20 23/23/23 
f 22/22/22 20/20/20 20/20/20 
f 21/21/21 20/20/20 22/22/22 
f 21/21/21 19/19/19 20/20/20 
f 36/36/36 19/19/19 21/21/21 
f 36/36/36 35/35/35 19/19/19 
f 83/83/83 35/35/35 36/36/36 
f 83/83/83 82/82/82 35/35/35 
f 87/87/87 82/82/82 83/83/83 
f 87/87/87 89/89/89 82/82/82 
f 88/88/88 89/89/89 87/87/87 
f 75/75/75 73/73/73 75/75/75 
f 74/74/74 73/73/73 75/75/75 
f 74/74/74 72/72/72 73/73/73 
f 74/74/74 72/72/72 74/74/74 
f 74/74/74 63/63/63 72/72/72 
f 64/64/64 63/63/63 74/74/74 
f 64/64/64 63/63/63 63/63/63 
f 58/58/58 63/63/63 64/64/64 
f 58/58/58 57/57/57 63/63/63 
f 48/48/48 57/57/57 58/58/58 
f 48/48/48 47/47/47 57/57/57 
f 44/44/44 47/47/47 48/48/48 
f 44/44/44 43/43/43 47/47/47 
f 44/44/44 43/43/43 44/44/44 
f 44/44/44 45/45/45 43/43/43 
f 46/46/46 45/45/45 44/44/44 
