v -0.081800 0.399800 0.081800
v -0.115700 0.399800 0.000000
v -0.081500 0.109100 0.081500
v -0.115200 0.109100 0.000000
v 0.000000 0.399800 0.115700
v 0.000000 0.109100 0.115200
v 0.081800 0.399800 0.081800
v 0.081500 0.109100 0.081500
v 0.115700 0.399800 0.000000
v 0.115200 0.109100 0.000000
v -0.081100 0.000000 -0.081100
v -0.115200 0.109100 0.000000
v -0.081800 0.399800 -0.081800
v -0.115700 0.399800 0.000000
v -0.081500 0.109100 0.081500
v -0.081100 0.000000 0.081100
v -0.114700 0.000000 0.000000
v -0.081800 0.399800 0.081800
v -0.097700 0.479900 0.000000
v -0.069100 0.479900 0.069100
v -0.069100 0.479900 -0.069100
v -0.039200 0.523200 -0.039200
v -0.055400 0.523200 0.000000
v -0.039200 0.523200 0.039200
v 0.000000 0.109100 0.115200
v 0.000000 0.000000 0.114700
v -0.039700 0.793500 0.000000
v -0.028000 0.793500 0.028000
v -0.028000 0.793500 -0.028000
v 0.000000 0.399800 0.115700
v 0.000000 0.479900 0.097700
v -0.046000 0.798300 0.000000
v -0.040600 0.814200 0.000000
v -0.032500 0.798300 -0.032500
v -0.028700 0.814200 -0.028700
v -0.032500 0.798300 0.032500
v -0.028700 0.814200 0.028700
v -0.046000 0.798300 0.000000
v -0.032500 0.798300 -0.032500
v -0.039700 0.793500 0.000000
v -0.028000 0.793500 -0.028000
v -0.032500 0.798300 0.032500
v -0.028000 0.793500 0.028000
v 0.000000 0.523200 0.055400
v 0.000000 0.793500 0.039700
v 0.000000 0.798300 0.046000
v 0.000000 0.814200 0.040600
v 0.000000 0.798300 0.046000
v 0.000000 0.793500 0.039700
v 0.000000 0.814200 -0.040600
v 0.028700 0.814200 0.028700
v 0.028700 0.814200 -0.028700
v 0.032500 0.798300 0.032500
v 0.028000 0.793500 0.028000
v 0.032500 0.798300 0.032500
v 0.039200 0.523200 0.039200
v 0.028000 0.793500 0.028000
v 0.040600 0.814200 0.000000
v 0.069100 0.479900 0.069100
v 0.032500 0.798300 -0.032500
v 0.046000 0.798300 0.000000
v 0.028000 0.793500 -0.028000
v 0.039700 0.793500 0.000000
v 0.046000 0.798300 0.000000
v 0.032500 0.798300 -0.032500
v 0.081800 0.399800 0.081800
v 0.055400 0.523200 0.000000
v 0.039700 0.793500 0.000000
v 0.039200 0.523200 -0.039200
v 0.028000 0.793500 -0.028000
v 0.081500 0.109100 0.081500
v 0.081100 0.000000 0.081100
v 0.114700 0.000000 0.000000
v 0.081100 0.000000 -0.081100
v 0.115200 0.109100 0.000000
v 0.097700 0.479900 0.000000
v 0.069100 0.479900 -0.069100
v 0.115700 0.399800 0.000000
v 0.081800 0.399800 -0.081800
vt 0.254300 1.000000
vt 0.000000 1.000000
vt 0.255400 0.000000
vt 0.002100 0.000000
vt 0.499900 1.000000
vt 0.499900 0.000000
vt 0.745600 1.000000
vt 0.744500 0.000000
vt 1.000000 1.000000
vt 0.997800 0.000000
vt 0.007800 0.117100
vt 0.007800 0.117100
vt 0.007800 0.117100
vt 0.007800 0.117100
vt 0.007800 0.117100
vt 0.007800 0.117100
vt 0.007800 0.117100
vt 0.007800 0.117100
vt 0.007800 0.117100
vt 0.007800 0.117100
vt 0.007800 0.117100
vt 0.007800 0.117100
vt 0.007800 0.117100
vt 0.007800 0.117100
vt 0.007800 0.117100
vt 0.007800 0.117100
vt 0.007800 0.117100
vt 0.007800 0.117100
vt 0.007800 0.117100
vt 0.007800 0.117100
vt 0.007800 0.117100
vt 0.242100 0.179600
vt 0.242100 0.179600
vt 0.242100 0.179600
vt 0.242100 0.179600
vt 0.242100 0.179600
vt 0.242100 0.179600
vt 0.242100 0.179600
vt 0.242100 0.179600
vt 0.242100 0.179600
vt 0.242100 0.179600
vt 0.242100 0.179600
vt 0.242100 0.179600
vt 0.007800 0.117100
vt 0.007800 0.117100
vt 0.242100 0.179600
vt 0.242100 0.179600
vt 0.242100 0.179600
vt 0.242100 0.179600
vt 0.242100 0.179600
vt 0.242100 0.179600
vt 0.242100 0.179600
vt 0.242100 0.179600
vt 0.242100 0.179600
vt 0.242100 0.179600
vt 0.007800 0.117100
vt 0.007800 0.117100
vt 0.242100 0.179600
vt 0.007800 0.117100
vt 0.242100 0.179600
vt 0.242100 0.179600
vt 0.242100 0.179600
vt 0.242100 0.179600
vt 0.242100 0.179600
vt 0.242100 0.179600
vt 0.007800 0.117100
vt 0.007800 0.117100
vt 0.007800 0.117100
vt 0.007800 0.117100
vt 0.007800 0.117100
vt 0.007800 0.117100
vt 0.007800 0.117100
vt 0.007800 0.117100
vt 0.007800 0.117100
vt 0.007800 0.117100
vt 0.007800 0.117100
vt 0.007800 0.117100
vt 0.007800 0.117100
vt 0.007800 0.117100
vn -0.603872 -0.001532 0.797080
vn -0.923961 -0.001469 0.382485
vn -0.797369 -0.001532 0.603491
vn -0.924112 -0.001589 0.382118
vn 0.136213 -0.001618 0.990678
vn -0.137171 -0.001618 0.990546
vn 0.797080 -0.001532 0.603872
vn 0.603491 -0.001532 0.797369
vn 0.923809 -0.001589 0.382850
vn 0.923961 -0.001469 0.382485
vn -0.923120 -0.002706 -0.384503
vn -0.972790 -0.002920 -0.231671
vn -0.923172 0.019804 -0.383878
vn -0.957155 0.093523 -0.274060
vn -0.604077 -0.004938 0.796911
vn -0.797545 -0.004937 0.603240
vn -0.999989 -0.004583 0.000000
vn -0.769332 0.217382 0.600728
vn -0.908554 0.411462 0.072313
vn -0.591466 0.411381 0.693494
vn -0.873331 0.326326 -0.361668
vn -0.881607 0.299915 -0.364446
vn -0.974191 0.219334 -0.053333
vn -0.725651 0.219423 0.652138
vn 0.136361 -0.004738 0.990648
vn -0.136980 -0.004738 0.990562
vn -0.984205 0.057359 0.167480
vn -0.577148 0.057476 0.814615
vn -0.922225 0.053822 -0.382888
vn -0.119066 0.217543 0.968761
vn 0.072313 0.411462 0.908554
vn -0.946881 0.321583 0.000000
vn -0.823125 0.567860 0.000000
vn -0.881439 0.298723 -0.365826
vn -0.180128 0.980803 -0.074687
vn -0.749267 0.318310 0.580757
vn -0.160955 0.962702 0.217483
vn -0.602834 -0.794254 0.075840
vn -0.585553 -0.773072 -0.243900
vn -0.601947 -0.793239 -0.091822
vn -0.583066 -0.775032 -0.243638
vn -0.372964 -0.795049 0.478325
vn -0.489518 -0.793895 0.360698
vn -0.053333 0.219333 0.974191
vn 0.167480 0.057359 0.984205
vn -0.119412 0.318886 0.940241
vn 0.040160 0.962738 0.267439
vn 0.075840 -0.794254 0.602834
vn -0.091822 -0.793239 0.601947
vn 0.000000 1.000000 0.000000
vn 0.127764 0.983541 0.127764
vn 0.180128 0.980803 -0.074687
vn 0.478325 -0.795049 0.372964
vn 0.360698 -0.793895 0.489518
vn 0.669733 0.320806 0.669733
vn 0.652138 0.219423 0.725651
vn 0.814615 0.057476 0.577148
vn 0.823125 0.567860 -0.000000
vn 0.693494 0.411381 0.591466
vn 0.583882 -0.774763 -0.242536
vn 0.602834 -0.794254 -0.075840
vn 0.585553 -0.773072 -0.243900
vn 0.601947 -0.793239 0.091822
vn 0.946881 0.321583 0.000000
vn 0.881439 0.298723 -0.365826
vn 0.600728 0.217382 0.769332
vn 0.974191 0.219334 0.053333
vn 0.984205 0.057359 -0.167480
vn 0.916335 0.125331 -0.380293
vn 0.921334 0.054128 -0.384986
vn 0.796911 -0.004938 0.604077
vn 0.603240 -0.004937 0.797545
vn 0.990562 -0.004738 0.136980
vn 0.923120 -0.002706 -0.384503
vn 0.953483 -0.002613 -0.301437
vn 0.882082 0.469939 0.032998
vn 0.857372 0.372692 -0.354984
vn 0.973656 0.109348 -0.200092
vn 0.923172 0.019804 -0.383878
f 3/3/3 2/2/2 4/4/4 
f 3/3/3 2/2/2 3/3/3 
f 3/3/3 1/1/1 2/2/2 
f 6/6/6 1/1/1 3/3/3 
f 6/6/6 5/5/5 1/1/1 
f 8/8/8 5/5/5 6/6/6 
f 8/8/8 7/7/7 5/5/5 
f 10/10/10 7/7/7 8/8/8 
f 10/10/10 9/9/9 7/7/7 
f 41/41/41 39/39/39 41/41/41 
f 40/40/40 39/39/39 41/41/41 
f 40/40/40 38/38/38 39/39/39 
f 43/43/43 38/38/38 40/40/40 
f 43/43/43 42/42/42 38/38/38 
f 49/49/49 42/42/42 43/43/43 
f 49/49/49 48/48/48 42/42/42 
f 54/54/54 48/48/48 49/49/49 
f 54/54/54 53/53/53 48/48/48 
f 63/63/63 53/53/53 54/54/54 
f 63/63/63 61/61/61 53/53/53 
f 62/62/62 61/61/61 63/63/63 
f 62/62/62 60/60/60 61/61/61 
f 69/69/69 67/67/67 77/77/77 
f 70/70/70 69/69/69 70/70/70 
f 68/68/68 69/69/69 70/70/70 
f 68/68/68 67/67/67 69/69/69 
f 57/57/57 67/67/67 68/68/68 
f 57/57/57 56/56/56 67/67/67 
f 45/45/45 56/56/56 57/57/57 
f 45/45/45 44/44/44 56/56/56 
f 28/28/28 44/44/44 45/45/45 
f 28/28/28 24/24/24 44/44/44 
f 27/27/27 24/24/24 28/28/28 
f 27/27/27 23/23/23 24/24/24 
f 79/79/79 78/78/78 79/79/79 
f 77/77/77 78/78/78 79/79/79 
f 77/77/77 76/76/76 78/78/78 
f 67/67/67 76/76/76 77/77/77 
f 67/67/67 76/76/76 76/76/76 
f 56/56/56 76/76/76 67/67/67 
f 56/56/56 59/59/59 76/76/76 
f 44/44/44 59/59/59 56/56/56 
f 44/44/44 31/31/31 59/59/59 
f 24/24/24 31/31/31 44/44/44 
f 24/24/24 20/20/20 31/31/31 
f 23/23/23 20/20/20 24/24/24 
f 23/23/23 20/20/20 20/20/20 
f 19/19/19 20/20/20 23/23/23 
f 19/19/19 18/18/18 20/20/20 
f 14/14/14 18/18/18 19/19/19 
f 30/30/30 20/20/20 18/18/18 
f 30/30/30 20/20/20 30/30/30 
f 30/30/30 31/31/31 20/20/20 
f 66/66/66 31/31/31 30/30/30 
f 66/66/66 59/59/59 31/31/31 
f 78/78/78 59/59/59 66/66/66 
f 78/78/78 76/76/76 59/59/59 
f 27/27/27 23/23/23 27/27/27 
f 29/29/29 23/23/23 27/27/27 
f 29/29/29 23/23/23 23/23/23 
f 22/22/22 23/23/23 29/29/29 
f 22/22/22 19/19/19 23/23/23 
f 21/21/21 19/19/19 22/22/22 
f 21/21/21 14/14/14 19/19/19 
f 13/13/13 14/14/14 21/21/21 
f 13/13/13 12/12/12 14/14/14 
f 11/11/11 12/12/12 13/13/13 
f 11/11/11 12/12/12 12/12/12 
f 17/17/17 12/12/12 11/11/11 
f 17/17/17 12/12/12 12/12/12 
f 16/16/16 12/12/12 17/17/17 
f 16/16/16 15/15/15 12/12/12 
f 26/26/26 15/15/15 16/16/16 
f 26/26/26 25/25/25 15/15/15 
f 72/72/72 25/25/25 26/26/26 
f 72/72/72 71/71/71 25/25/25 
f 73/73/73 71/71/71 72/72/72 
f 73/73/73 75/75/75 71/71/71 
f 74/74/74 75/75/75 73/73/73 
f 74/74/74 75/75/75 75/75/75 
f 79/79/79 75/75/75 74/74/74 
f 79/79/79 78/78/78 75/75/75 
f 47/47/47 51/51/51 47/47/47 
f 55/55/55 51/51/51 47/47/47 
f 55/55/55 58/58/58 51/51/51 
f 64/64/64 58/58/58 55/55/55 
f 64/64/64 58/58/58 58/58/58 
f 65/65/65 58/58/58 64/64/64 
f 65/65/65 58/58/58 58/58/58 
f 52/52/52 58/58/58 65/65/65 
f 52/52/52 51/51/51 58/58/58 
f 50/50/50 51/51/51 52/52/52 
f 55/55/55 47/47/47 46/46/46 
f 47/47/47 46/46/46 47/47/47 
f 37/37/37 46/46/46 47/47/47 
f 37/37/37 36/36/36 46/46/46 
f 33/33/33 36/36/36 37/37/37 
f 33/33/33 32/32/32 36/36/36 
f 33/33/33 32/32/32 33/33/33 
f 33/33/33 34/34/34 32/32/32 
f 33/33/33 34/34/34 33/33/33 
f 33/33/33 35/35/35 34/34/34 
f 37/37/37 35/35/35 33/33/33 
f 37/37/37 50/50/50 35/35/35 
f 47/47/47 50/50/50 37/37/37 
f 47/47/47 51/51/51 50/50/50 
