v -0.756600 0.253200 0.472700
v -1.163600 0.072600 0.554500
v -1.403000 0.839800 0.389500
v -1.678100 0.645100 0.617600
v -1.351000 0.870100 0.776000
v -1.678100 0.645100 0.617600
v -0.782400 0.069200 0.752800
v -1.163600 0.072600 0.554500
v -1.636300 0.973500 0.638300
v -1.636300 0.973500 0.638300
v -0.544800 0.973600 -0.254400
v -0.323400 0.766000 -0.342500
v -0.726900 0.458500 -0.286600
v -0.511600 0.468200 -0.357800
v -0.676800 0.402800 0.624400
v -0.882200 0.496000 0.358500
v -1.011500 0.160100 0.319000
v 0.033100 0.332600 0.235500
v -0.365900 0.582000 0.182200
v -0.571300 0.330500 -0.319200
v -0.728600 0.063200 0.683400
v -0.623100 0.265100 -0.321100
v -0.726900 0.458500 -0.286600
v -0.511600 0.468200 -0.357800
v -0.500800 0.469200 -0.135800
v 0.002600 0.061400 0.097500
v -0.500800 0.469200 -0.135800
v -0.549100 0.882100 -0.055900
v -0.601200 1.044600 -0.339100
v -0.495900 0.752300 -0.485700
v -0.057100 0.068200 -0.398900
v -0.362600 1.598400 -0.723000
v -0.520200 1.282900 -0.379400
v -0.727900 1.890400 -0.675400
v -0.448500 0.630000 -0.246400
v -0.194100 1.537200 -0.242000
v -0.215500 1.787900 -0.356100
v -0.264700 1.538100 -0.261400
v -0.184200 1.829600 -0.147100
v -0.264700 1.610100 -0.056400
v -0.601200 1.044600 -0.339100
v -0.549100 0.882100 -0.055900
v -0.070500 1.038600 -0.265600
v -0.571300 0.330500 -0.319200
v -0.365900 0.582000 0.182200
v -0.238100 1.089600 -0.255000
v -0.495900 0.752300 -0.485700
v -0.085900 1.283000 -0.348300
v -0.290600 1.332800 -0.212300
v -0.448500 0.630000 -0.246400
v -0.070600 1.162000 -0.346800
v -0.069100 1.148500 -0.367900
v -0.069400 1.643700 0.022200
v -0.082700 1.548800 0.004700
v -0.170100 1.505500 0.000100
v -0.284500 1.348300 0.095400
v -0.170100 1.505500 0.000100
v -0.290600 1.332800 -0.212300
v -0.027800 1.845900 -0.096200
v -0.272300 1.123600 0.034500
v -0.144800 1.066000 -0.066900
v -0.065700 0.366400 -0.736100
v -0.092400 1.022300 -0.084200
v -0.065700 0.366400 -0.736100
v 0.097900 1.288400 -0.171200
v -0.022100 1.093700 0.058600
v -0.039400 1.524400 -0.461900
v 0.034900 1.305400 0.128500
v -0.128100 1.354300 0.187400
v -0.069100 1.028600 -0.037400
v -0.213900 1.094100 -0.059800
v -0.214900 0.963100 -0.054900
v -0.019600 0.712700 0.318200
v -0.243400 1.518400 -0.098200
v -0.142700 1.599500 0.045400
v -0.085300 1.708700 -0.063900
v -0.142700 1.599500 0.045400
v -0.243400 1.518400 -0.098200
v -0.064900 1.451700 0.005600
v -0.011000 0.783400 -0.348600
v -0.144800 1.066000 -0.066900
v -0.106100 1.459400 0.100900
v 0.002700 1.904300 -0.352900
v -0.170100 1.505500 0.000100
v -0.106100 1.459400 0.100900
v -0.094400 1.551300 0.106400
v -0.019600 0.712700 0.318200
v -0.082700 1.548800 0.004700
v -0.016100 1.676400 -0.526500
v -0.064900 1.451700 0.005600
v -0.028300 1.481300 0.015700
v -0.028300 1.481300 0.015700
v 0.134500 1.580000 -0.012700
v -0.028300 1.481300 0.015700
v 0.097900 1.288400 -0.171200
v -0.093100 1.755900 -0.408700
v -0.029200 1.844100 -0.202300
v 0.135600 2.008200 -0.391400
v 0.075700 1.094100 -0.059800
v -0.069100 1.028600 -0.037400
v 0.076700 0.963100 -0.054900
v 0.191600 1.736600 -0.309000
v 0.124600 1.788100 -0.115100
v 0.092700 1.414600 -0.101500
v 0.075000 1.568600 0.036600
v -0.054600 1.496600 0.012500
v 0.103700 1.664200 -0.128200
v 0.127400 1.798600 -0.311700
v 0.075000 1.568600 0.036600
v 0.092700 1.414600 -0.101500
v 0.103700 1.664200 -0.128200
v 0.397100 1.447400 -0.604800
v 0.482200 0.424100 -0.109400
v 0.482200 0.424100 -0.109400
v 0.143900 1.503900 -0.221800
v 0.076400 1.486000 -0.213300
v 0.431500 1.225800 -0.273000
v 0.098800 1.090800 -0.254800
v -0.153600 0.930200 -0.210900
v 0.465400 1.033500 -0.370800
v 0.242800 0.670100 -0.400400
v 0.478500 0.882100 -0.136100
v 0.334700 0.729200 -0.088800
v 0.912100 0.103300 0.026900
v 0.784900 1.700900 -0.571100
v 0.517500 0.329300 -0.218400
v 0.378700 0.489700 -0.293300
v 0.565000 0.586700 -0.240900
v 0.427900 0.520700 -0.123400
v 0.614300 0.017000 0.307000
v 0.672000 0.416300 0.368100
v 0.378700 0.489700 -0.293300
v 0.163600 0.962700 -0.285000
v 0.565000 0.586700 -0.240900
v 0.389100 0.928700 -0.293000
v 0.242800 0.670100 -0.400400
v 0.465400 1.033500 -0.370800
v 0.334700 0.729200 -0.088800
v 0.478500 0.882100 -0.136100
v 0.163600 0.962700 -0.285000
v 0.427900 0.520700 -0.123400
v 0.857800 0.551200 0.209900
v 1.358900 0.752800 0.519300
v 1.642100 0.915800 0.259000
v 1.372100 0.821600 0.132800
v 1.642100 0.915800 0.259000
v 1.358900 0.752800 0.519300
v 1.587800 0.546000 0.210600
v 0.666800 0.164300 0.220400
v 0.726900 0.093000 0.487300
v 0.821700 -0.004700 0.283400
v 0.726900 0.093000 0.487300
vt 0.039000 0.085900
vt 0.039000 0.085900
vt 0.039000 0.085900
vt 0.039000 0.085900
vt 0.039000 0.085900
vt 0.039000 0.085900
vt 0.039000 0.085900
vt 0.039000 0.085900
vt 0.039000 0.085900
vt 0.039000 0.085900
vt 0.289000 0.304600
vt 0.289000 0.304600
vt 0.289000 0.304600
vt 0.289000 0.304600
vt 0.132800 0.335900
vt 0.132800 0.335900
vt 0.132800 0.335900
vt 0.132800 0.335900
vt 0.132800 0.335900
vt 0.132800 0.335900
vt 0.132800 0.335900
vt 0.382800 0.492100
vt 0.382800 0.492100
vt 0.382800 0.492100
vt 0.382800 0.492100
vt 0.132800 0.335900
vt 0.289000 0.304600
vt 0.007800 0.492100
vt 0.007800 0.492100
vt 0.007800 0.492100
vt 0.132800 0.335900
vt 0.289000 0.398400
vt 0.289000 0.398400
vt 0.289000 0.398400
vt 0.007800 0.492100
vt 0.289000 0.398400
vt 0.226500 0.304600
vt 0.226500 0.304600
vt 0.226500 0.304600
vt 0.226500 0.304600
vt 0.289000 0.054600
vt 0.289000 0.054600
vt 0.289000 0.054600
vt 0.289000 0.054600
vt 0.289000 0.054600
vt 0.289000 0.054600
vt 0.289000 0.054600
vt 0.226500 0.304600
vt 0.226500 0.304600
vt 0.289000 0.054600
vt 0.289000 0.398400
vt 0.289000 0.054600
vt 0.226500 0.304600
vt 0.226500 0.304600
vt 0.226500 0.304600
vt 0.132800 0.148400
vt 0.132800 0.148400
vt 0.132800 0.148400
vt 0.226500 0.304600
vt 0.132800 0.148400
vt 0.132800 0.148400
vt 0.289000 0.054600
vt 0.289000 0.054600
vt 0.132800 0.335900
vt 0.132800 0.148400
vt 0.132800 0.148400
vt 0.289000 0.398400
vt 0.132800 0.148400
vt 0.132800 0.148400
vt 0.132800 0.460900
vt 0.132800 0.460900
vt 0.132800 0.460900
vt 0.289000 0.054600
vt 0.479100 0.448900
vt 0.479100 0.448900
vt 0.479100 0.448900
vt 0.007800 0.492100
vt 0.007800 0.492100
vt 0.007800 0.492100
vt 0.226500 0.304600
vt 0.226500 0.304600
vt 0.132800 0.148400
vt 0.226500 0.304600
vt 0.039000 0.085900
vt 0.039000 0.085900
vt 0.039000 0.085900
vt 0.132800 0.335900
vt 0.039000 0.085900
vt 0.226500 0.304600
vt 0.479100 0.448900
vt 0.132800 0.148400
vt 0.039000 0.085900
vt 0.226500 0.304600
vt 0.226500 0.304600
vt 0.226500 0.304600
vt 0.289000 0.398400
vt 0.289000 0.398400
vt 0.289000 0.398400
vt 0.132800 0.460900
vt 0.132800 0.460900
vt 0.132800 0.460900
vt 0.226500 0.304600
vt 0.226500 0.304600
vt 0.479100 0.448900
vt 0.479100 0.448900
vt 0.479100 0.448900
vt 0.479100 0.448900
vt 0.289000 0.398400
vt 0.007800 0.492100
vt 0.007800 0.492100
vt 0.007800 0.492100
vt 0.289000 0.398400
vt 0.289000 0.054600
vt 0.132800 0.335900
vt 0.226500 0.304600
vt 0.289000 0.398400
vt 0.289000 0.398400
vt 0.289000 0.054600
vt 0.289000 0.054600
vt 0.289000 0.054600
vt 0.289000 0.054600
vt 0.289000 0.054600
vt 0.289000 0.054600
vt 0.132800 0.335900
vt 0.289000 0.398400
vt 0.382800 0.492100
vt 0.382800 0.492100
vt 0.382800 0.492100
vt 0.382800 0.492100
vt 0.132800 0.335900
vt 0.132800 0.335900
vt 0.289000 0.304600
vt 0.289000 0.304600
vt 0.289000 0.304600
vt 0.289000 0.304600
vt 0.007800 0.492100
vt 0.007800 0.492100
vt 0.007800 0.492100
vt 0.007800 0.492100
vt 0.289000 0.304600
vt 0.289000 0.304600
vt 0.132800 0.335900
vt 0.039000 0.085900
vt 0.039000 0.085900
vt 0.039000 0.085900
vt 0.039000 0.085900
vt 0.039000 0.085900
vt 0.039000 0.085900
vt 0.039000 0.085900
vt 0.039000 0.085900
vt 0.039000 0.085900
vt 0.039000 0.085900
vn 0.708284 0.529166 -0.467244
vn -0.264551 -0.280959 -0.922537
vn 0.023856 0.227042 -0.973593
vn -0.534991 -0.204457 -0.819745
vn 0.437198 0.537644 0.720969
vn -0.357286 -0.282907 0.890118
vn -0.009234 -0.088576 0.996027
vn -0.413400 -0.458242 0.786838
vn -0.222458 0.756426 -0.615087
vn -0.435074 -0.001376 0.900394
vn -0.431317 0.674829 0.598808
vn 0.068248 0.530133 -0.845164
vn -0.763182 0.333573 -0.553428
vn -0.314312 0.245746 -0.916961
vn 0.024845 0.574059 0.818437
vn -0.561214 0.818111 -0.125432
vn -0.547531 -0.820229 -0.165635
vn 0.193603 0.229785 0.953791
vn -0.050703 0.931911 0.359125
vn -0.710168 -0.085160 -0.698863
vn 0.171893 -0.710722 0.682149
vn -0.876876 -0.478624 0.044815
vn -0.876876 -0.478624 0.044815
vn -0.314012 0.000830 -0.949419
vn -0.494587 -0.402833 0.770136
vn 0.007432 -0.992891 0.118797
vn -0.037107 0.225663 0.973499
vn -0.937519 -0.347759 -0.011021
vn -0.943318 -0.331472 -0.016657
vn -0.937519 -0.347759 -0.011021
vn 0.013634 -0.878159 -0.478175
vn 0.216563 -0.058723 -0.974501
vn -0.770139 -0.608164 0.192409
vn -0.662723 0.677805 0.318400
vn -0.929794 -0.368059 -0.003934
vn -0.041654 0.628957 0.776323
vn -0.758291 0.196497 -0.621598
vn -0.911395 0.063027 -0.406678
vn -0.694214 0.654038 0.300501
vn -0.849118 0.185044 0.494730
vn 0.050032 0.957796 -0.283062
vn 0.294462 0.310533 0.903804
vn 0.937519 0.347759 0.011021
vn -0.807168 0.393896 -0.439689
vn -0.748206 0.534393 0.393208
vn -0.868680 0.489163 0.078190
vn 0.471747 -0.023330 -0.881425
vn 0.073504 -0.243590 -0.967089
vn -0.903557 -0.263375 -0.337962
vn 0.710734 -0.644231 0.282532
vn -0.014837 -0.903637 -0.428042
vn 0.095253 0.405389 -0.909168
vn -0.063677 0.383472 0.921355
vn -0.099222 0.021015 0.994843
vn -0.629463 -0.158381 0.760718
vn -0.464110 -0.863958 0.195395
vn -0.687353 0.663098 0.296389
vn -0.623777 0.253921 0.739207
vn 0.049903 0.815710 0.576305
vn -0.714050 -0.008705 0.700041
vn -0.081328 -0.943971 -0.319852
vn 0.140824 0.422198 -0.895498
vn 0.265194 0.716513 0.645198
vn 0.195005 -0.732244 -0.652527
vn 0.348691 -0.815317 0.462247
vn 0.203605 0.551954 0.808636
vn 0.224774 0.468887 -0.854179
vn 0.517631 -0.722110 0.458928
vn -0.034790 0.438801 0.897911
vn -0.135927 0.038068 0.989987
vn -0.135927 0.038068 0.989987
vn -0.135927 0.038068 0.989987
vn 0.329361 0.776205 0.537613
vn -0.771113 0.604729 0.199217
vn -0.116331 0.732508 0.670745
vn -0.116331 0.732508 0.670745
vn -0.568116 -0.479208 0.669032
vn -0.568116 -0.479208 0.669032
vn -0.568116 -0.479208 0.669032
vn -0.025248 -0.789076 -0.613776
vn -0.153868 -0.733161 0.662420
vn 0.022760 0.632466 0.774254
vn 0.155483 0.937119 -0.312464
vn -0.775904 0.544992 0.317735
vn -0.116749 -0.044515 0.992163
vn 0.048367 0.725771 0.686234
vn 0.293242 -0.164259 0.941822
vn 0.168743 0.985648 -0.004817
vn 0.111997 -0.023326 -0.993435
vn 0.749952 0.227503 0.621140
vn 0.749876 0.512458 0.418417
vn 0.863858 0.246567 0.439265
vn 0.736290 -0.064904 0.673546
vn 0.357640 -0.339593 0.869925
vn 0.950040 -0.307676 0.052531
vn -0.425063 0.439560 -0.791270
vn -0.348028 0.836728 0.422803
vn -0.006036 0.920216 -0.391363
vn 0.135927 0.038068 0.989987
vn 0.135927 0.038068 0.989987
vn 0.135927 0.038068 0.989987
vn 0.876536 -0.033090 -0.480198
vn 0.745142 0.491814 0.450425
vn 0.216905 -0.637798 0.739031
vn -0.242361 0.113747 0.963495
vn -0.242361 0.113747 0.963495
vn -0.503005 0.782743 0.366468
vn 0.961505 -0.129727 -0.242239
vn 0.987329 -0.026781 0.156408
vn 0.987329 -0.026781 0.156408
vn 0.987329 -0.026781 0.156408
vn -0.010574 -0.107994 -0.994095
vn 0.830607 0.513471 -0.215498
vn 0.693237 0.275219 -0.666091
vn 0.949579 -0.212529 -0.230502
vn 0.037913 0.696315 0.716734
vn 0.549471 -0.657940 0.514973
vn 0.797755 0.523879 0.298559
vn -0.279228 0.960135 -0.013157
vn -0.259348 0.852996 -0.452920
vn -0.280847 0.247562 -0.927275
vn -0.033608 0.687064 0.725819
vn -0.082069 0.364174 0.927708
vn 0.572356 -0.701087 -0.425307
vn 0.583185 0.702161 0.408491
vn 0.950823 -0.196399 -0.239506
vn 0.336464 -0.143446 -0.930707
vn 0.950823 -0.196399 -0.239506
vn 0.665548 -0.057774 0.744116
vn 0.019992 -0.629779 0.776517
vn 0.246114 0.063612 0.967151
vn 0.213488 0.114111 -0.970259
vn 0.107480 -0.001867 -0.994206
vn 0.411020 0.200856 -0.889224
vn 0.400370 0.516217 0.757116
vn 0.848104 -0.506963 -0.153977
vn 0.786266 -0.566447 -0.246826
vn 0.786266 -0.566447 -0.246826
vn 0.566437 -0.677757 -0.468823
vn 0.091259 0.389630 0.916439
vn 0.269952 0.391371 0.879747
vn 0.234433 0.969050 -0.077355
vn -0.642444 0.741541 0.193344
vn -0.021863 0.823036 -0.567568
vn -0.300667 0.373375 -0.877605
vn 0.721890 -0.192978 0.664556
vn 0.562904 -0.430319 0.705666
vn 0.729102 -0.673777 0.120144
vn -0.713821 0.678827 -0.172204
vn -0.690156 0.645180 0.327762
vn 0.314496 -0.526590 -0.789807
vn 0.506121 -0.562523 0.653765
f 71/71/71 72/72/72 70/70/70 
f 127/127/127 126/126/126 127/127/127 
f 128/128/128 126/126/126 127/127/127 
f 128/128/128 129/129/129 126/126/126 
f 90/90/90 75/75/75 90/90/90 
f 76/76/76 75/75/75 90/90/90 
f 76/76/76 74/74/74 75/75/75 
f 29/29/29 28/28/28 29/29/29 
f 30/30/30 28/28/28 29/29/29 
f 30/30/30 35/35/35 28/28/28 
f 25/25/25 22/22/22 25/25/25 
f 23/23/23 22/22/22 25/25/25 
f 23/23/23 24/24/24 22/22/22 
f 42/42/42 43/43/43 42/42/42 
f 50/50/50 43/43/43 42/42/42 
f 50/50/50 43/43/43 43/43/43 
f 47/47/47 43/43/43 50/50/50 
f 47/47/47 43/43/43 43/43/43 
f 41/41/41 43/43/43 47/47/47 
f 41/41/41 42/42/42 43/43/43 
f 14/14/14 12/12/12 14/14/14 
f 13/13/13 12/12/12 14/14/14 
f 13/13/13 11/11/11 12/12/12 
f 27/27/27 11/11/11 13/13/13 
f 27/27/27 12/12/12 11/11/11 
f 48/48/48 49/49/49 48/48/48 
f 80/80/80 49/49/49 48/48/48 
f 80/80/80 81/81/81 49/49/49 
f 80/80/80 81/81/81 80/80/80 
f 80/80/80 95/95/95 81/81/81 
f 48/48/48 95/95/95 80/80/80 
f 48/48/48 115/115/115 95/95/95 
f 48/48/48 115/115/115 48/48/48 
f 48/48/48 102/102/102 115/115/115 
f 89/89/89 102/102/102 48/48/48 
f 40/40/40 54/54/54 53/53/53 
f 40/40/40 54/54/54 40/40/40 
f 40/40/40 55/55/55 54/54/54 
f 40/40/40 55/55/55 40/40/40 
f 40/40/40 49/49/49 55/55/55 
f 38/38/38 49/49/49 40/40/40 
f 38/38/38 48/48/48 49/49/49 
f 37/37/37 48/48/48 38/38/38 
f 37/37/37 89/89/89 48/48/48 
f 83/83/83 89/89/89 37/37/37 
f 83/83/83 102/102/102 89/89/89 
f 103/103/103 102/102/102 83/83/83 
f 83/83/83 39/39/39 83/83/83 
f 37/37/37 39/39/39 83/83/83 
f 37/37/37 39/39/39 39/39/39 
f 38/38/38 39/39/39 37/37/37 
f 38/38/38 39/39/39 39/39/39 
f 40/40/40 39/39/39 38/38/38 
f 40/40/40 39/39/39 39/39/39 
f 53/53/53 39/39/39 40/40/40 
f 53/53/53 59/59/59 39/39/39 
f 103/103/103 115/115/115 102/102/102 
f 93/93/93 115/115/115 103/103/103 
f 93/93/93 95/95/95 115/115/115 
f 93/93/93 95/95/95 93/93/93 
f 93/93/93 94/94/94 95/95/95 
f 93/93/93 94/94/94 93/93/93 
f 93/93/93 54/54/54 94/94/94 
f 93/93/93 54/54/54 93/93/93 
f 93/93/93 53/53/53 54/54/54 
f 103/103/103 53/53/53 93/93/93 
f 103/103/103 59/59/59 53/53/53 
f 83/83/83 59/59/59 103/103/103 
f 83/83/83 39/39/39 59/59/59 
f 125/125/125 112/112/112 125/125/125 
f 117/117/117 112/112/112 125/125/125 
f 117/117/117 51/51/51 112/112/112 
f 117/117/117 51/51/51 117/117/117 
f 117/117/117 116/116/116 51/51/51 
f 125/125/125 116/116/116 117/117/117 
f 125/125/125 116/116/116 116/116/116 
f 112/112/112 116/116/116 125/125/125 
f 112/112/112 67/67/67 116/116/116 
f 51/51/51 67/67/67 112/112/112 
f 51/51/51 32/32/32 67/67/67 
f 33/33/33 32/32/32 51/51/51 
f 33/33/33 34/34/34 32/32/32 
f 36/36/36 34/34/34 33/33/33 
f 36/36/36 32/32/32 34/34/34 
f 67/67/67 32/32/32 36/36/36 
f 36/36/36 33/33/33 51/51/51 
f 18/18/18 87/87/87 19/19/19 
f 18/18/18 87/87/87 18/18/18 
f 18/18/18 114/114/114 87/87/87 
f 142/142/142 114/114/114 18/18/18 
f 142/142/142 124/124/124 114/114/114 
f 131/131/131 124/124/124 142/142/142 
f 131/131/131 130/130/130 124/124/124 
f 18/18/18 130/130/130 131/131/131 
f 18/18/18 26/26/26 130/130/130 
f 21/21/21 26/26/26 18/18/18 
f 21/21/21 17/17/17 26/26/26 
f 21/21/21 17/17/17 21/21/21 
f 21/21/21 15/15/15 17/17/17 
f 18/18/18 15/15/15 21/21/21 
f 18/18/18 131/131/131 142/142/142 
f 17/17/17 31/31/31 26/26/26 
f 26/26/26 124/124/124 130/130/130 
f 31/31/31 124/124/124 26/26/26 
f 31/31/31 114/114/114 124/124/124 
f 31/31/31 114/114/114 31/31/31 
f 31/31/31 64/64/64 114/114/114 
f 31/31/31 64/64/64 31/31/31 
f 31/31/31 20/20/20 64/64/64 
f 17/17/17 20/20/20 31/31/31 
f 17/17/17 16/16/16 20/20/20 
f 15/15/15 16/16/16 17/17/17 
f 15/15/15 19/19/19 16/16/16 
f 18/18/18 19/19/19 15/15/15 
f 16/16/16 19/19/19 20/20/20 
f 6/6/6 8/8/8 7/7/7 
f 6/6/6 5/5/5 10/10/10 
f 7/7/7 5/5/5 6/6/6 
f 7/7/7 5/5/5 5/5/5 
f 1/1/1 5/5/5 7/7/7 
f 1/1/1 3/3/3 5/5/5 
f 2/2/2 3/3/3 1/1/1 
f 2/2/2 3/3/3 3/3/3 
f 4/4/4 3/3/3 2/2/2 
f 4/4/4 3/3/3 3/3/3 
f 9/9/9 3/3/3 4/4/4 
f 9/9/9 5/5/5 3/3/3 
f 149/149/149 145/145/145 151/151/151 
f 147/147/147 148/148/148 146/146/146 
f 152/152/152 148/148/148 147/147/147 
f 152/152/152 148/148/148 148/148/148 
f 151/151/151 148/148/148 152/152/152 
f 151/151/151 148/148/148 148/148/148 
f 145/145/145 148/148/148 151/151/151 
f 145/145/145 144/144/144 148/148/148 
f 145/145/145 144/144/144 145/145/145 
f 145/145/145 143/143/143 144/144/144 
f 149/149/149 143/143/143 145/145/145 
f 149/149/149 150/150/150 143/143/143 
f 110/110/110 111/111/111 109/109/109 
f 91/91/91 69/69/69 68/68/68 
f 82/82/82 69/69/69 91/91/91 
f 82/82/82 69/69/69 69/69/69 
f 57/57/57 69/69/69 82/82/82 
f 57/57/57 56/56/56 69/69/69 
f 58/58/58 56/56/56 57/57/57 
f 58/58/58 65/65/65 56/56/56 
f 66/66/66 65/65/65 58/58/58 
f 66/66/66 61/61/61 65/65/65 
f 60/60/60 61/61/61 66/66/66 
f 60/60/60 58/58/58 61/61/61 
f 66/66/66 58/58/58 60/60/60 
f 56/56/56 68/68/68 69/69/69 
f 65/65/65 68/68/68 56/56/56 
f 65/65/65 91/91/91 68/68/68 
f 105/105/105 106/106/106 104/104/104 
f 107/107/107 106/106/106 105/105/105 
f 100/100/100 101/101/101 99/99/99 
f 45/45/45 63/63/63 46/46/46 
f 73/73/73 63/63/63 45/45/45 
f 73/73/73 63/63/63 63/63/63 
f 113/113/113 63/63/63 73/73/73 
f 113/113/113 118/118/118 63/63/63 
f 113/113/113 118/118/118 113/113/113 
f 113/113/113 52/52/52 118/118/118 
f 62/62/62 52/52/52 113/113/113 
f 62/62/62 52/52/52 52/52/52 
f 44/44/44 52/52/52 62/62/62 
f 44/44/44 46/46/46 52/52/52 
f 45/45/45 46/46/46 44/44/44 
f 133/133/133 134/134/134 132/132/132 
f 135/135/135 134/134/134 133/133/133 
f 135/135/135 141/141/141 134/134/134 
f 140/140/140 141/141/141 135/135/135 
f 85/85/85 86/86/86 84/84/84 
f 92/92/92 86/86/86 85/85/85 
f 92/92/92 86/86/86 86/86/86 
f 88/88/88 86/86/86 92/92/92 
f 88/88/88 84/84/84 86/86/86 
f 78/78/78 79/79/79 77/77/77 
f 97/97/97 98/98/98 96/96/96 
f 108/108/108 98/98/98 97/97/97 
f 108/108/108 96/96/96 98/98/98 
f 137/137/137 138/138/138 136/136/136 
f 139/139/139 138/138/138 137/137/137 
f 122/122/122 119/119/119 123/123/123 
f 120/120/120 119/119/119 122/122/122 
f 120/120/120 121/121/121 119/119/119 
