v -0.102200 0.000000 0.000000
v -0.072200 0.000000 0.072200
v -0.102200 0.191800 0.000000
v -0.072200 0.191800 0.072200
v -0.102200 0.390100 0.000000
v -0.072200 0.390100 0.072200
v -0.085200 0.485000 0.000000
v -0.060200 0.485000 0.060200
v -0.070800 0.424200 -0.070800
v -0.060200 0.485000 -0.060200
v -0.033700 0.512600 -0.033700
v -0.047600 0.512600 0.000000
v -0.033700 0.512600 0.033700
v -0.072200 0.000000 -0.072200
v -0.031600 0.772800 -0.031600
v -0.044300 0.772800 0.000000
v -0.029500 0.799400 -0.029500
v -0.041400 0.799400 0.000000
v -0.031200 0.772800 0.031300
v -0.029100 0.799400 0.029100
v -0.033700 0.512600 -0.033700
v -0.045000 0.594200 0.000000
v -0.027600 0.770400 -0.027500
v -0.038600 0.770400 0.000000
v 0.000000 0.191800 0.102200
v 0.000000 0.000000 0.102200
v -0.031800 0.594200 0.031800
v -0.027200 0.770400 0.027100
v -0.031600 0.772800 -0.031600
v -0.027600 0.770400 -0.027500
v -0.044300 0.772800 0.000000
v -0.038600 0.770400 0.000000
v -0.031200 0.772800 0.031300
v -0.027200 0.770400 0.027100
v 0.000000 0.390100 0.102200
v 0.000000 0.485100 0.085000
v 0.000000 0.512600 0.047700
v 0.000000 0.772800 0.045300
v 0.000000 0.799400 0.042300
v 0.000000 0.594200 0.046100
v 0.000000 0.770400 0.039500
v 0.000000 0.772800 0.045300
v 0.000000 0.770400 0.039500
v 0.041300 0.799400 0.000000
v 0.029500 0.799400 -0.029500
v 0.000000 0.799400 -0.042300
v 0.029500 0.799400 0.029500
v 0.031700 0.772800 0.031600
v 0.027500 0.770400 0.027500
v 0.032200 0.594200 0.032200
v 0.027500 0.770400 0.027500
v 0.031700 0.772800 0.031600
v 0.060200 0.485000 0.060200
v 0.033700 0.512600 0.033700
v 0.072200 0.390100 0.072200
v 0.031600 0.772800 -0.031600
v 0.044300 0.772800 0.000000
v 0.027500 0.770400 -0.027600
v 0.038600 0.770400 0.000000
v 0.045000 0.594200 0.000000
v 0.038600 0.770400 0.000000
v 0.072200 0.191800 0.072200
v 0.072200 0.000000 0.072200
v 0.033700 0.512600 -0.033700
v 0.027500 0.770400 -0.027600
v 0.044300 0.772800 0.000000
v 0.031600 0.772800 -0.031600
v 0.102200 0.000000 0.000000
v 0.072200 0.000000 -0.072200
v 0.102200 0.191800 0.000000
v 0.060200 0.485000 -0.060200
v 0.033700 0.512600 -0.033700
v 0.085200 0.485000 0.000000
v 0.047600 0.512600 0.000000
v 0.102200 0.390100 0.000000
v 0.070800 0.424200 -0.070800
v -0.102200 0.191800 0.000000
v -0.072200 0.191800 0.072200
v -0.102200 0.390100 0.000000
v -0.072200 0.390100 0.072200
v -0.072200 0.000000 -0.072200
v -0.102200 0.191800 0.000000
v -0.070800 0.424200 -0.070800
v -0.102200 0.390100 0.000000
v -0.047600 0.512600 0.000000
v -0.033700 0.512600 0.033700
v -0.045000 0.594200 0.000000
v -0.031800 0.594200 0.031800
v 0.000000 0.390100 0.102200
v 0.000000 0.191800 0.102200
v -0.033700 0.512600 -0.033700
v -0.047600 0.512600 0.000000
v -0.045000 0.594200 0.000000
v 0.000000 0.512600 0.047700
v 0.000000 0.594200 0.046100
v 0.033700 0.512600 0.033700
v 0.032200 0.594200 0.032200
v 0.047600 0.512600 0.000000
v 0.033700 0.512600 -0.033700
v 0.045000 0.594200 0.000000
v 0.072200 0.390100 0.072200
v 0.072200 0.191800 0.072200
v 0.047600 0.512600 0.000000
v 0.045000 0.594200 0.000000
v 0.070800 0.424200 -0.070800
v 0.102200 0.390100 0.000000
v 0.072200 0.000000 -0.072200
v 0.102200 0.191800 0.000000
v 0.102200 0.191800 0.000000
v 0.102200 0.390100 0.000000
vt 0.164000 0.210900
vt 0.164000 0.210900
vt 0.164000 0.210900
vt 0.164000 0.210900
vt 0.164000 0.210900
vt 0.164000 0.210900
vt 0.164000 0.210900
vt 0.164000 0.210900
vt 0.164000 0.210900
vt 0.164000 0.210900
vt 0.164000 0.210900
vt 0.164000 0.210900
vt 0.164000 0.210900
vt 0.164000 0.210900
vt 0.179600 0.476500
vt 0.179600 0.476500
vt 0.179600 0.476500
vt 0.179600 0.476500
vt 0.179600 0.476500
vt 0.179600 0.476500
vt 0.148400 0.210900
vt 0.148400 0.210900
vt 0.148400 0.210900
vt 0.148400 0.210900
vt 0.164000 0.210900
vt 0.164000 0.210900
vt 0.148400 0.210900
vt 0.148400 0.210900
vt 0.164000 0.476500
vt 0.164000 0.476500
vt 0.164000 0.476500
vt 0.164000 0.476500
vt 0.164000 0.476500
vt 0.164000 0.476500
vt 0.164000 0.210900
vt 0.164000 0.210900
vt 0.164000 0.210900
vt 0.179600 0.476500
vt 0.179600 0.476500
vt 0.148400 0.210900
vt 0.148400 0.210900
vt 0.164000 0.476500
vt 0.164000 0.476500
vt 0.179600 0.476500
vt 0.179600 0.476500
vt 0.179600 0.476500
vt 0.179600 0.476500
vt 0.164000 0.476500
vt 0.164000 0.476500
vt 0.148400 0.210900
vt 0.148400 0.210900
vt 0.179600 0.476500
vt 0.164000 0.210900
vt 0.164000 0.210900
vt 0.164000 0.210900
vt 0.164000 0.476500
vt 0.164000 0.476500
vt 0.164000 0.476500
vt 0.164000 0.476500
vt 0.148400 0.210900
vt 0.148400 0.210900
vt 0.164000 0.210900
vt 0.164000 0.210900
vt 0.148400 0.210900
vt 0.148400 0.210900
vt 0.179600 0.476500
vt 0.179600 0.476500
vt 0.164000 0.210900
vt 0.164000 0.210900
vt 0.164000 0.210900
vt 0.164000 0.210900
vt 0.164000 0.210900
vt 0.164000 0.210900
vt 0.164000 0.210900
vt 0.164000 0.210900
vt 0.164000 0.210900
vt 0.080700 0.007500
vt 0.291800 0.007500
vt 0.080700 0.997500
vt 0.291800 0.997500
vt 0.939000 0.552300
vt 0.966500 0.552300
vt 0.939000 0.681100
vt 0.966500 0.681100
vt 0.013900 0.007500
vt 0.258400 0.007500
vt 0.013900 0.997500
vt 0.258400 0.997500
vt 0.502900 0.997500
vt 0.502900 0.007500
vt 0.943300 0.616700
vt 0.975200 0.552300
vt 0.975200 0.681100
vt 0.502900 0.007500
vt 0.502900 0.997500
vt 0.747400 0.007500
vt 0.747400 0.997500
vt 0.847900 0.552300
vt 0.879700 0.616700
vt 0.847900 0.681100
vt 0.713900 0.997500
vt 0.713900 0.007500
vt 0.991900 0.007500
vt 0.991900 0.997500
vt 0.884100 0.681100
vt 0.856600 0.681100
vt 0.884100 0.552300
vt 0.856600 0.552300
vt 0.925000 0.007500
vt 0.925000 0.997500
vn -1.000000 0.000000 0.000000
vn -0.796919 0.000000 0.604086
vn -0.990544 0.000000 0.137194
vn -0.604086 0.000000 0.796919
vn -0.983815 0.176237 0.032394
vn -0.775134 0.174835 0.607125
vn -0.936473 0.349321 0.031530
vn -0.581468 0.371153 0.723976
vn -0.919074 0.186551 -0.347133
vn -0.809707 0.480942 -0.336257
vn -0.575290 0.782459 -0.238326
vn -0.588248 0.800426 0.115252
vn -0.335639 0.799751 0.497739
vn -0.923455 0.000000 -0.383707
vn -0.923014 0.102156 -0.370958
vn -0.986527 0.108112 -0.122782
vn -0.300654 0.946020 -0.121049
vn -0.329441 0.942879 0.049471
vn -0.710394 0.111058 0.694986
vn -0.365835 0.859049 0.358051
vn -0.922561 0.031079 -0.384599
vn -0.986494 0.034690 -0.160082
vn -0.924581 0.032053 -0.379635
vn -0.987191 0.036168 0.155391
vn 0.137194 0.000000 0.990544
vn -0.137194 0.000000 0.990544
vn -0.714930 0.036808 0.698226
vn -0.714710 0.037289 0.698426
vn -0.386360 -0.909184 -0.155278
vn -0.385011 -0.909906 -0.154395
vn -0.387983 -0.921663 0.002642
vn -0.388061 -0.921629 0.002843
vn -0.243187 -0.921981 0.301350
vn -0.314025 -0.921306 0.229309
vn -0.118428 0.176214 0.977202
vn 0.100821 0.370907 0.923181
vn 0.115279 0.799673 0.589266
vn -0.004739 0.112070 0.993689
vn -0.005437 0.330675 0.943729
vn -0.006245 0.037430 0.999280
vn -0.006735 0.037884 0.999259
vn -0.001824 -0.924013 0.382357
vn -0.002249 -0.925905 0.377751
vn 0.329816 0.942912 -0.046233
vn 0.288789 0.950399 -0.115515
vn 0.000000 1.000000 0.000000
vn 0.343676 0.905016 0.250665
vn 0.239040 -0.923657 0.299530
vn 0.312323 -0.922969 0.224907
vn 0.624918 0.037217 0.779803
vn 0.812185 0.036847 0.582236
vn 0.614693 0.111841 0.780797
vn 0.723624 0.370442 0.582358
vn 0.497599 0.800187 0.334807
vn 0.606448 0.175460 0.775522
vn 0.383004 -0.910831 -0.153929
vn 0.385874 -0.922551 -0.000326
vn 0.383198 -0.910728 -0.154056
vn 0.388063 -0.921633 0.000000
vn 0.998149 0.035654 -0.049276
vn 0.999341 0.036298 0.000000
vn 0.796919 0.000000 0.604086
vn 0.604086 0.000000 0.796919
vn 0.922364 0.031294 -0.385052
vn 0.924199 0.032180 -0.380554
vn 0.985924 0.111667 0.124437
vn 0.923214 0.103117 -0.370192
vn 0.990544 0.000000 0.137194
vn 0.923455 0.000000 -0.383707
vn 1.000000 0.000000 0.000000
vn 0.809707 0.480942 -0.336257
vn 0.575290 0.782459 -0.238326
vn 0.900119 0.430695 -0.065479
vn 0.591735 0.806132 0.000000
vn 0.974302 0.174482 0.142446
vn 0.919074 0.186551 -0.347133
vn -0.923455 0.000000 0.383707
vn -0.796919 0.000000 0.604086
vn -0.923455 0.000000 0.383707
vn -0.604086 0.000000 0.796919
vn -0.919316 0.004333 -0.393497
vn -0.917688 0.002957 -0.397290
vn -0.917688 0.002957 -0.397290
vn -0.914131 0.000000 -0.405420
vn -0.924050 0.029443 0.381136
vn -0.711340 0.029240 0.702240
vn -0.923620 0.029916 0.382139
vn -0.715205 0.032909 0.698139
vn 0.137194 0.000000 0.990544
vn -0.137194 0.000000 0.990544
vn -0.924050 0.029443 -0.381136
vn -0.924050 0.029443 -0.381136
vn -0.924050 0.029443 -0.381136
vn 0.000000 0.019604 0.999808
vn -0.003043 0.024668 0.999691
vn 0.610882 0.023634 0.791369
vn 0.804265 0.027700 0.593624
vn 0.924050 0.029443 -0.381136
vn 0.924050 0.029443 -0.381136
vn 0.924050 0.029443 -0.381136
vn 0.796919 0.000000 0.604086
vn 0.604086 0.000000 0.796919
vn 0.926488 0.026726 0.375375
vn 0.928864 0.029596 0.369238
vn 0.914897 0.004352 -0.403664
vn 0.917688 0.002957 -0.397290
vn 0.917688 0.002957 -0.397290
vn 0.923455 0.000000 -0.383707
vn 0.923455 0.000000 0.383707
vn 0.923455 0.000000 0.383707
f 1/1/1 3/3/3 14/14/14 
f 2/2/2 3/3/3 1/1/1 
f 2/2/2 4/4/4 3/3/3 
f 26/26/26 4/4/4 2/2/2 
f 26/26/26 25/25/25 4/4/4 
f 63/63/63 25/25/25 26/26/26 
f 63/63/63 62/62/62 25/25/25 
f 68/68/68 62/62/62 63/63/63 
f 68/68/68 70/70/70 62/62/62 
f 69/69/69 70/70/70 68/68/68 
f 19/19/19 18/18/18 16/16/16 
f 16/16/16 17/17/17 15/15/15 
f 18/18/18 17/17/17 16/16/16 
f 18/18/18 44/44/44 17/17/17 
f 47/47/47 44/44/44 18/18/18 
f 47/47/47 66/66/66 44/44/44 
f 47/47/47 66/66/66 47/47/47 
f 47/47/47 52/52/52 66/66/66 
f 39/39/39 52/52/52 47/47/47 
f 39/39/39 38/38/38 52/52/52 
f 39/39/39 38/38/38 39/39/39 
f 39/39/39 19/19/19 38/38/38 
f 20/20/20 19/19/19 39/39/39 
f 20/20/20 18/18/18 19/19/19 
f 20/20/20 18/18/18 20/20/20 
f 20/20/20 47/47/47 18/18/18 
f 39/39/39 47/47/47 20/20/20 
f 67/67/67 44/44/44 66/66/66 
f 45/45/45 44/44/44 67/67/67 
f 45/45/45 17/17/17 44/44/44 
f 46/46/46 17/17/17 45/45/45 
f 37/37/37 36/36/36 37/37/37 
f 13/13/13 36/36/36 37/37/37 
f 13/13/13 8/8/8 36/36/36 
f 12/12/12 8/8/8 13/13/13 
f 12/12/12 7/7/7 8/8/8 
f 12/12/12 7/7/7 12/12/12 
f 11/11/11 7/7/7 12/12/12 
f 11/11/11 7/7/7 7/7/7 
f 10/10/10 7/7/7 11/11/11 
f 10/10/10 7/7/7 7/7/7 
f 9/9/9 7/7/7 10/10/10 
f 9/9/9 7/7/7 7/7/7 
f 5/5/5 7/7/7 9/9/9 
f 5/5/5 7/7/7 7/7/7 
f 6/6/6 7/7/7 5/5/5 
f 6/6/6 8/8/8 7/7/7 
f 35/35/35 8/8/8 6/6/6 
f 35/35/35 36/36/36 8/8/8 
f 55/55/55 36/36/36 35/35/35 
f 55/55/55 53/53/53 36/36/36 
f 55/55/55 53/53/53 55/55/55 
f 75/75/75 53/53/53 55/55/55 
f 75/75/75 73/73/73 53/53/53 
f 76/76/76 73/73/73 75/75/75 
f 76/76/76 73/73/73 73/73/73 
f 71/71/71 73/73/73 76/76/76 
f 71/71/71 73/73/73 73/73/73 
f 72/72/72 73/73/73 71/71/71 
f 72/72/72 73/73/73 73/73/73 
f 74/74/74 73/73/73 72/72/72 
f 74/74/74 73/73/73 73/73/73 
f 54/54/54 73/73/73 74/74/74 
f 54/54/54 53/53/53 73/73/73 
f 37/37/37 53/53/53 54/54/54 
f 37/37/37 36/36/36 53/53/53 
f 65/65/65 60/60/60 64/64/64 
f 61/61/61 60/60/60 65/65/65 
f 61/61/61 60/60/60 60/60/60 
f 51/51/51 60/60/60 61/61/61 
f 51/51/51 50/50/50 60/60/60 
f 41/41/41 50/50/50 51/51/51 
f 41/41/41 40/40/40 50/50/50 
f 41/41/41 40/40/40 41/41/41 
f 41/41/41 27/27/27 40/40/40 
f 28/28/28 27/27/27 41/41/41 
f 28/28/28 27/27/27 27/27/27 
f 24/24/24 27/27/27 28/28/28 
f 24/24/24 22/22/22 27/27/27 
f 23/23/23 22/22/22 24/24/24 
f 23/23/23 21/21/21 22/22/22 
f 30/30/30 31/31/31 29/29/29 
f 32/32/32 31/31/31 30/30/30 
f 32/32/32 31/31/31 31/31/31 
f 34/34/34 31/31/31 32/32/32 
f 34/34/34 33/33/33 31/31/31 
f 43/43/43 33/33/33 34/34/34 
f 43/43/43 42/42/42 33/33/33 
f 43/43/43 42/42/42 43/43/43 
f 43/43/43 48/48/48 42/42/42 
f 49/49/49 48/48/48 43/43/43 
f 49/49/49 57/57/57 48/48/48 
f 59/59/59 57/57/57 49/49/49 
f 59/59/59 57/57/57 57/57/57 
f 58/58/58 57/57/57 59/59/59 
f 58/58/58 56/56/56 57/57/57 
f 92/92/92 93/93/93 91/91/91 
f 110/110/110 109/109/109 110/110/110 
f 101/101/101 109/109/109 110/110/110 
f 101/101/101 102/102/102 109/109/109 
f 89/89/89 102/102/102 101/101/101 
f 89/89/89 90/90/90 102/102/102 
f 80/80/80 90/90/90 89/89/89 
f 80/80/80 78/78/78 90/90/90 
f 79/79/79 78/78/78 80/80/80 
f 79/79/79 77/77/77 78/78/78 
f 86/86/86 87/87/87 85/85/85 
f 86/86/86 87/87/87 86/86/86 
f 86/86/86 88/88/88 87/87/87 
f 86/86/86 88/88/88 86/86/86 
f 86/86/86 95/95/95 88/88/88 
f 94/94/94 95/95/95 86/86/86 
f 94/94/94 95/95/95 95/95/95 
f 96/96/96 95/95/95 94/94/94 
f 96/96/96 97/97/97 95/95/95 
f 103/103/103 97/97/97 96/96/96 
f 103/103/103 104/104/104 97/97/97 
f 99/99/99 100/100/100 98/98/98 
f 82/82/82 83/83/83 81/81/81 
f 84/84/84 83/83/83 82/82/82 
f 106/106/106 107/107/107 105/105/105 
f 108/108/108 107/107/107 106/106/106 
