v -12.917700 -6.749000 0.499900
v 12.917700 -6.749000 0.499900
v -12.917700 6.749000 0.499900
v 12.917700 6.749000 0.499900
v -12.917700 -6.749000 -0.499900
v -12.917700 -6.749000 0.499900
v -12.917700 6.749000 -0.499900
v -12.917700 6.749000 0.499900
v -12.917700 -6.749000 -0.499900
v 12.917700 -6.749000 -0.499900
v -12.917700 -6.749000 0.499900
v 12.917700 -6.749000 0.499900
v -12.917700 6.749000 0.499900
v 12.917700 6.749000 0.499900
v -12.917700 6.749000 -0.499900
v 12.917700 6.749000 -0.499900
v 12.917700 -6.749000 0.499900
v 12.917700 -6.749000 -0.499900
v 12.917700 6.749000 0.499900
v 12.917700 6.749000 -0.499900
vt 0.000000 0.750000
vt 0.500000 0.750000
vt 0.000000 0.999900
vt 0.500000 0.999900
vt 0.039000 0.492100
vt 0.039000 0.492100
vt 0.039000 0.492100
vt 0.039000 0.492100
vt 0.054600 0.476500
vt 0.054600 0.476500
vt 0.054600 0.476500
vt 0.054600 0.476500
vt 0.054600 0.492100
vt 0.054600 0.492100
vt 0.054600 0.492100
vt 0.054600 0.492100
vt 0.039000 0.992100
vt 0.039000 0.992100
vt 0.039000 0.992100
vt 0.039000 0.992100
vn 0.000000 0.000000 1.000000
vn 0.000000 0.000000 1.000000
vn 0.000000 0.000000 1.000000
vn 0.000000 0.000000 1.000000
vn -1.000000 0.000000 0.000000
vn -1.000000 0.000000 0.000000
vn -1.000000 0.000000 0.000000
vn -1.000000 0.000000 0.000000
vn 0.000000 -1.000000 0.000000
vn 0.000000 -1.000000 0.000000
vn 0.000000 -1.000000 0.000000
vn 0.000000 -1.000000 0.000000
vn 0.000000 1.000000 0.000000
vn 0.000000 1.000000 0.000000
vn 0.000000 1.000000 0.000000
vn 0.000000 1.000000 0.000000
vn 1.000000 0.000000 0.000000
vn 1.000000 0.000000 0.000000
vn 1.000000 0.000000 0.000000
vn 1.000000 0.000000 0.000000
f 2/2/2 3/3/3 1/1/1 
f 4/4/4 3/3/3 2/2/2 
f 6/6/6 7/7/7 5/5/5 
f 8/8/8 7/7/7 6/6/6 
f 18/18/18 19/19/19 17/17/17 
f 20/20/20 19/19/19 18/18/18 
f 14/14/14 15/15/15 13/13/13 
f 16/16/16 15/15/15 14/14/14 
f 10/10/10 11/11/11 9/9/9 
f 12/12/12 11/11/11 10/10/10 
