v -0.433400 0.509700 -0.274000
v -0.433400 0.509700 0.274000
v -0.433400 0.540600 -0.274000
v -0.433400 0.540600 0.274000
v -0.398900 0.384900 -0.252300
v -0.398900 0.384900 0.252300
v -0.398900 0.509700 -0.252300
v -0.398900 0.509700 0.252300
v -0.433400 0.540600 -0.274000
v -0.433400 0.540600 0.274000
v -0.359300 0.540600 0.140200
v -0.359300 0.540600 0.215500
v -0.398900 0.384900 0.252300
v -0.398900 0.384900 -0.252300
v -0.387500 0.373300 0.242300
v -0.387500 0.373300 -0.242300
v -0.387500 0.373300 0.242300
v -0.387500 0.373300 -0.242300
v -0.359000 0.361600 0.214400
v -0.359000 0.361600 -0.214400
v -0.319000 0.361600 -0.131800
v -0.319000 0.361600 -0.214400
v -0.358000 0.000000 -0.177300
v -0.358000 0.000000 -0.214400
v -0.319000 0.361600 0.131800
v -0.358000 0.000000 0.177300
v -0.319000 0.361600 0.214400
v -0.358000 0.000000 0.214400
v -0.235300 0.361600 -0.214400
v -0.320300 0.000000 -0.214400
v -0.319000 0.361600 -0.214400
v -0.358000 0.000000 -0.214400
v -0.235300 0.361600 -0.131800
v -0.319000 0.361600 -0.131800
v -0.320300 0.000000 -0.177300
v -0.358000 0.000000 -0.177300
v -0.235300 0.361600 0.131800
v -0.320300 0.000000 0.177300
v -0.319000 0.361600 0.131800
v -0.358000 0.000000 0.177300
v -0.235300 0.361600 0.214400
v -0.319000 0.361600 0.214400
v -0.320300 0.000000 0.214400
v -0.358000 0.000000 0.214400
v -0.235300 0.361600 -0.131800
v -0.320300 0.000000 -0.177300
v -0.235300 0.361600 -0.214400
v -0.320300 0.000000 -0.214400
v -0.235300 0.361600 0.131800
v -0.235300 0.361600 0.214400
v -0.320300 0.000000 0.177300
v -0.320300 0.000000 0.214400
v -0.359300 0.540600 0.215500
v -0.179200 0.540600 0.215500
v -0.359300 0.540600 0.140200
v -0.179200 0.540600 0.140200
v -0.179200 0.540600 0.140200
v 0.433400 0.540600 -0.274000
v 0.433400 0.540600 0.274000
v -0.179200 0.540600 0.215500
v -0.359000 0.361600 -0.214400
v 0.359000 0.361600 -0.214400
v -0.359000 0.361600 0.214400
v 0.359000 0.361600 0.214400
v -0.387500 0.373300 -0.242300
v 0.387500 0.373300 -0.242300
v -0.359000 0.361600 -0.214400
v 0.359000 0.361600 -0.214400
v 0.387500 0.373300 0.242300
v -0.387500 0.373300 0.242300
v 0.359000 0.361600 0.214400
v -0.359000 0.361600 0.214400
v -0.398900 0.384900 -0.252300
v 0.398900 0.384900 -0.252300
v -0.387500 0.373300 -0.242300
v 0.387500 0.373300 -0.242300
v 0.398900 0.384900 0.252300
v -0.398900 0.384900 0.252300
v 0.387500 0.373300 0.242300
v -0.387500 0.373300 0.242300
v -0.398900 0.509700 -0.252300
v 0.398900 0.509700 -0.252300
v -0.398900 0.384900 -0.252300
v 0.398900 0.384900 -0.252300
v -0.398900 0.384900 0.252300
v 0.398900 0.384900 0.252300
v -0.398900 0.509700 0.252300
v 0.398900 0.509700 0.252300
v -0.433400 0.509700 -0.274000
v 0.433400 0.509700 -0.274000
v -0.433400 0.509700 0.274000
v 0.433400 0.509700 0.274000
v -0.433400 0.540600 -0.274000
v 0.433400 0.540600 -0.274000
v -0.433400 0.509700 -0.274000
v 0.433400 0.509700 -0.274000
v -0.433400 0.509700 0.274000
v 0.433400 0.509700 0.274000
v -0.433400 0.540600 0.274000
v 0.433400 0.540600 0.274000
v 0.235100 0.361600 -0.131800
v 0.235100 0.361600 -0.214400
v 0.320100 0.000000 -0.177300
v 0.320100 0.000000 -0.214400
v 0.235100 0.361600 0.131800
v 0.320100 0.000000 0.177300
v 0.235100 0.361600 0.214400
v 0.320100 0.000000 0.214400
v 0.235100 0.361600 -0.214400
v 0.318800 0.361600 -0.214400
v 0.320100 0.000000 -0.214400
v 0.357800 0.000000 -0.214400
v 0.235100 0.361600 -0.131800
v 0.320100 0.000000 -0.177300
v 0.318800 0.361600 -0.131800
v 0.357800 0.000000 -0.177300
v 0.235100 0.361600 0.131800
v 0.318800 0.361600 0.131800
v 0.320100 0.000000 0.177300
v 0.357800 0.000000 0.177300
v 0.235100 0.361600 0.214400
v 0.320100 0.000000 0.214400
v 0.318800 0.361600 0.214400
v 0.357800 0.000000 0.214400
v 0.318800 0.361600 -0.131800
v 0.357800 0.000000 -0.177300
v 0.318800 0.361600 -0.214400
v 0.357800 0.000000 -0.214400
v 0.318800 0.361600 0.131800
v 0.318800 0.361600 0.214400
v 0.357800 0.000000 0.177300
v 0.357800 0.000000 0.214400
v 0.387500 0.373300 -0.242300
v 0.387500 0.373300 0.242300
v 0.359000 0.361600 -0.214400
v 0.359000 0.361600 0.214400
v 0.398900 0.384900 -0.252300
v 0.398900 0.384900 0.252300
v 0.387500 0.373300 -0.242300
v 0.387500 0.373300 0.242300
v 0.398900 0.384900 0.252300
v 0.398900 0.384900 -0.252300
v 0.398900 0.509700 0.252300
v 0.398900 0.509700 -0.252300
v 0.433400 0.509700 0.274000
v 0.433400 0.509700 -0.274000
v 0.433400 0.540600 0.274000
v 0.433400 0.540600 -0.274000
vt 0.257800 0.195300
vt 0.257800 0.195300
vt 0.257800 0.195300
vt 0.257800 0.195300
vt 0.085900 0.132800
vt 0.085900 0.132800
vt 0.085900 0.132800
vt 0.085900 0.132800
vt 0.273400 0.195300
vt 0.273400 0.195300
vt 0.273400 0.195300
vt 0.273400 0.195300
vt 0.085900 0.132800
vt 0.085900 0.132800
vt 0.085900 0.132800
vt 0.085900 0.132800
vt 0.085900 0.132800
vt 0.085900 0.132800
vt 0.085900 0.132800
vt 0.085900 0.132800
vt 0.132800 0.257800
vt 0.132800 0.257800
vt 0.132800 0.257800
vt 0.132800 0.257800
vt 0.132800 0.257800
vt 0.132800 0.257800
vt 0.132800 0.257800
vt 0.132800 0.257800
vt 0.148400 0.273400
vt 0.148400 0.273400
vt 0.148400 0.273400
vt 0.148400 0.273400
vt 0.148400 0.257800
vt 0.148400 0.257800
vt 0.148400 0.257800
vt 0.148400 0.257800
vt 0.132800 0.273400
vt 0.132800 0.273400
vt 0.132800 0.273400
vt 0.132800 0.273400
vt 0.148400 0.273400
vt 0.148400 0.273400
vt 0.148400 0.273400
vt 0.148400 0.273400
vt 0.132800 0.273400
vt 0.132800 0.273400
vt 0.132800 0.273400
vt 0.132800 0.273400
vt 0.148400 0.257800
vt 0.148400 0.257800
vt 0.148400 0.257800
vt 0.148400 0.257800
vt 0.257800 0.195300
vt 0.257800 0.195300
vt 0.257800 0.195300
vt 0.257800 0.195300
vt 0.273400 0.195300
vt 0.273400 0.195300
vt 0.273400 0.195300
vt 0.273400 0.195300
vt 0.085900 0.148400
vt 0.085900 0.148400
vt 0.085900 0.148400
vt 0.085900 0.148400
vt 0.070300 0.132800
vt 0.070300 0.132800
vt 0.070300 0.132800
vt 0.070300 0.132800
vt 0.070300 0.132800
vt 0.070300 0.132800
vt 0.070300 0.132800
vt 0.070300 0.132800
vt 0.070300 0.132800
vt 0.070300 0.132800
vt 0.070300 0.132800
vt 0.070300 0.132800
vt 0.070300 0.132800
vt 0.070300 0.132800
vt 0.070300 0.132800
vt 0.070300 0.132800
vt 0.070300 0.132800
vt 0.070300 0.132800
vt 0.070300 0.132800
vt 0.070300 0.132800
vt 0.070300 0.132800
vt 0.070300 0.132800
vt 0.070300 0.132800
vt 0.070300 0.132800
vt 0.273400 0.210900
vt 0.273400 0.210900
vt 0.273400 0.210900
vt 0.273400 0.210900
vt 0.257800 0.210900
vt 0.257800 0.210900
vt 0.257800 0.210900
vt 0.257800 0.210900
vt 0.257800 0.210900
vt 0.257800 0.210900
vt 0.257800 0.210900
vt 0.257800 0.210900
vt 0.132800 0.273400
vt 0.132800 0.273400
vt 0.132800 0.273400
vt 0.132800 0.273400
vt 0.148400 0.257800
vt 0.148400 0.257800
vt 0.148400 0.257800
vt 0.148400 0.257800
vt 0.148400 0.273400
vt 0.148400 0.273400
vt 0.148400 0.273400
vt 0.148400 0.273400
vt 0.148400 0.257800
vt 0.148400 0.257800
vt 0.148400 0.257800
vt 0.148400 0.257800
vt 0.132800 0.273400
vt 0.132800 0.273400
vt 0.132800 0.273400
vt 0.132800 0.273400
vt 0.148400 0.273400
vt 0.148400 0.273400
vt 0.148400 0.273400
vt 0.148400 0.273400
vt 0.132800 0.257800
vt 0.132800 0.257800
vt 0.132800 0.257800
vt 0.132800 0.257800
vt 0.132800 0.257800
vt 0.132800 0.257800
vt 0.132800 0.257800
vt 0.132800 0.257800
vt 0.085900 0.132800
vt 0.085900 0.132800
vt 0.085900 0.132800
vt 0.085900 0.132800
vt 0.085900 0.132800
vt 0.085900 0.132800
vt 0.085900 0.132800
vt 0.085900 0.132800
vt 0.085900 0.132800
vt 0.085900 0.132800
vt 0.085900 0.132800
vt 0.085900 0.132800
vt 0.257800 0.195300
vt 0.257800 0.195300
vt 0.257800 0.195300
vt 0.257800 0.195300
vn -1.000000 0.000000 0.000000
vn -1.000000 0.000000 0.000000
vn -1.000000 0.000000 0.000000
vn -1.000000 0.000000 0.000000
vn -1.000000 0.000000 0.000000
vn -1.000000 0.000000 0.000000
vn -1.000000 0.000000 0.000000
vn -1.000000 0.000000 0.000000
vn 0.000000 1.000000 0.000000
vn 0.000000 1.000000 0.000000
vn 0.000000 1.000000 0.000000
vn 0.000000 1.000000 0.000000
vn -0.713229 -0.700931 0.000000
vn -0.713229 -0.700931 0.000000
vn -0.713229 -0.700931 0.000000
vn -0.713229 -0.700931 0.000000
vn -0.379769 -0.925081 0.000000
vn -0.379770 -0.925081 0.000000
vn -0.379770 -0.925081 0.000000
vn -0.379769 -0.925081 0.000000
vn -0.994234 0.107232 0.000000
vn -0.994234 0.107232 0.000000
vn -0.994234 0.107232 0.000000
vn -0.994234 0.107232 0.000000
vn -0.994234 0.107232 0.000000
vn -0.994234 0.107232 0.000000
vn -0.994234 0.107232 0.000000
vn -0.994234 0.107232 0.000000
vn 0.000000 0.000000 -1.000000
vn 0.000000 0.000000 -1.000000
vn 0.000000 0.000000 -1.000000
vn 0.000000 0.000000 -1.000000
vn 0.000000 -0.124845 0.992176
vn 0.000000 -0.124845 0.992176
vn 0.000000 -0.124845 0.992176
vn 0.000000 -0.124845 0.992176
vn 0.000000 -0.124845 -0.992176
vn 0.000000 -0.124845 -0.992176
vn 0.000000 -0.124845 -0.992176
vn 0.000000 -0.124845 -0.992176
vn 0.000000 0.000000 1.000000
vn 0.000000 0.000000 1.000000
vn 0.000000 0.000000 1.000000
vn 0.000000 0.000000 1.000000
vn 0.973467 -0.228829 0.000000
vn 0.973467 -0.228829 0.000000
vn 0.973467 -0.228829 0.000000
vn 0.973467 -0.228829 0.000000
vn 0.973467 -0.228829 0.000000
vn 0.973467 -0.228829 0.000000
vn 0.973467 -0.228829 0.000000
vn 0.973467 -0.228829 0.000000
vn 0.000000 1.000000 0.000000
vn 0.000000 1.000000 0.000000
vn 0.000000 1.000000 0.000000
vn 0.000000 1.000000 0.000000
vn 0.000000 1.000000 0.000000
vn 0.000000 1.000000 0.000000
vn 0.000000 1.000000 0.000000
vn 0.000000 1.000000 0.000000
vn 0.000000 -1.000000 0.000000
vn 0.000000 -1.000000 0.000000
vn 0.000000 -1.000000 0.000000
vn 0.000000 -1.000000 0.000000
vn 0.000000 -0.922195 -0.386726
vn 0.000000 -0.922195 -0.386726
vn 0.000000 -0.922195 -0.386726
vn 0.000000 -0.922195 -0.386726
vn 0.000000 -0.922195 0.386726
vn 0.000000 -0.922195 0.386726
vn 0.000000 -0.922195 0.386726
vn 0.000000 -0.922195 0.386726
vn 0.000000 -0.652939 -0.757411
vn 0.000000 -0.652939 -0.757411
vn 0.000000 -0.652939 -0.757411
vn 0.000000 -0.652939 -0.757411
vn 0.000000 -0.652939 0.757411
vn 0.000000 -0.652939 0.757411
vn 0.000000 -0.652939 0.757411
vn 0.000000 -0.652939 0.757411
vn 0.000000 0.000000 -1.000000
vn 0.000000 0.000000 -1.000000
vn 0.000000 0.000000 -1.000000
vn 0.000000 0.000000 -1.000000
vn 0.000000 0.000000 1.000000
vn 0.000000 0.000000 1.000000
vn 0.000000 0.000000 1.000000
vn 0.000000 0.000000 1.000000
vn 0.000000 -1.000000 0.000000
vn 0.000000 -1.000000 0.000000
vn 0.000000 -1.000000 0.000000
vn 0.000000 -1.000000 0.000000
vn 0.000000 0.000000 -1.000000
vn 0.000000 0.000000 -1.000000
vn 0.000000 0.000000 -1.000000
vn 0.000000 0.000000 -1.000000
vn 0.000000 0.000000 1.000000
vn 0.000000 0.000000 1.000000
vn 0.000000 0.000000 1.000000
vn 0.000000 0.000000 1.000000
vn -0.973467 -0.228829 0.000000
vn -0.973467 -0.228829 0.000000
vn -0.973467 -0.228829 0.000000
vn -0.973467 -0.228829 0.000000
vn -0.973467 -0.228829 0.000000
vn -0.973467 -0.228829 0.000000
vn -0.973467 -0.228829 0.000000
vn -0.973467 -0.228829 0.000000
vn 0.000000 0.000000 -1.000000
vn 0.000000 0.000000 -1.000000
vn 0.000000 0.000000 -1.000000
vn 0.000000 0.000000 -1.000000
vn 0.000000 -0.124845 0.992176
vn 0.000000 -0.124845 0.992176
vn 0.000000 -0.124845 0.992176
vn 0.000000 -0.124845 0.992176
vn 0.000000 -0.124845 -0.992176
vn 0.000000 -0.124845 -0.992176
vn 0.000000 -0.124845 -0.992176
vn 0.000000 -0.124845 -0.992176
vn 0.000000 0.000000 1.000000
vn 0.000000 0.000000 1.000000
vn 0.000000 0.000000 1.000000
vn 0.000000 0.000000 1.000000
vn 0.994234 0.107232 0.000000
vn 0.994234 0.107232 0.000000
vn 0.994234 0.107232 0.000000
vn 0.994234 0.107232 0.000000
vn 0.994234 0.107232 0.000000
vn 0.994234 0.107232 0.000000
vn 0.994234 0.107232 0.000000
vn 0.994234 0.107232 0.000000
vn 0.379769 -0.925081 0.000000
vn 0.379770 -0.925081 0.000000
vn 0.379770 -0.925081 0.000000
vn 0.379769 -0.925081 0.000000
vn 0.713229 -0.700931 0.000000
vn 0.713229 -0.700931 0.000000
vn 0.713229 -0.700931 0.000000
vn 0.713229 -0.700931 0.000000
vn 1.000000 0.000000 0.000000
vn 1.000000 0.000000 0.000000
vn 1.000000 0.000000 0.000000
vn 1.000000 0.000000 0.000000
vn 1.000000 0.000000 0.000000
vn 1.000000 0.000000 0.000000
vn 1.000000 0.000000 0.000000
vn 1.000000 0.000000 0.000000
f 8/8/8 6/6/6 8/8/8 
f 7/7/7 6/6/6 8/8/8 
f 7/7/7 5/5/5 6/6/6 
f 2/2/2 3/3/3 1/1/1 
f 4/4/4 3/3/3 2/2/2 
f 146/146/146 147/147/147 145/145/145 
f 148/148/148 147/147/147 146/146/146 
f 142/142/142 143/143/143 141/141/141 
f 144/144/144 143/143/143 142/142/142 
f 138/138/138 139/139/139 137/137/137 
f 140/140/140 139/139/139 138/138/138 
f 134/134/134 135/135/135 133/133/133 
f 136/136/136 135/135/135 134/134/134 
f 130/130/130 131/131/131 129/129/129 
f 132/132/132 131/131/131 130/130/130 
f 126/126/126 127/127/127 125/125/125 
f 128/128/128 127/127/127 126/126/126 
f 122/122/122 123/123/123 121/121/121 
f 124/124/124 123/123/123 122/122/122 
f 118/118/118 119/119/119 117/117/117 
f 120/120/120 119/119/119 118/118/118 
f 114/114/114 115/115/115 113/113/113 
f 116/116/116 115/115/115 114/114/114 
f 110/110/110 111/111/111 109/109/109 
f 112/112/112 111/111/111 110/110/110 
f 106/106/106 107/107/107 105/105/105 
f 108/108/108 107/107/107 106/106/106 
f 102/102/102 103/103/103 101/101/101 
f 104/104/104 103/103/103 102/102/102 
f 98/98/98 99/99/99 97/97/97 
f 100/100/100 99/99/99 98/98/98 
f 94/94/94 95/95/95 93/93/93 
f 96/96/96 95/95/95 94/94/94 
f 90/90/90 91/91/91 89/89/89 
f 92/92/92 91/91/91 90/90/90 
f 86/86/86 87/87/87 85/85/85 
f 88/88/88 87/87/87 86/86/86 
f 82/82/82 83/83/83 81/81/81 
f 84/84/84 83/83/83 82/82/82 
f 78/78/78 79/79/79 77/77/77 
f 80/80/80 79/79/79 78/78/78 
f 74/74/74 75/75/75 73/73/73 
f 76/76/76 75/75/75 74/74/74 
f 70/70/70 71/71/71 69/69/69 
f 72/72/72 71/71/71 70/70/70 
f 66/66/66 67/67/67 65/65/65 
f 68/68/68 67/67/67 66/66/66 
f 62/62/62 63/63/63 61/61/61 
f 64/64/64 63/63/63 62/62/62 
f 54/54/54 55/55/55 53/53/53 
f 56/56/56 55/55/55 54/54/54 
f 50/50/50 51/51/51 49/49/49 
f 52/52/52 51/51/51 50/50/50 
f 46/46/46 47/47/47 45/45/45 
f 48/48/48 47/47/47 46/46/46 
f 42/42/42 43/43/43 41/41/41 
f 44/44/44 43/43/43 42/42/42 
f 38/38/38 39/39/39 37/37/37 
f 40/40/40 39/39/39 38/38/38 
f 34/34/34 35/35/35 33/33/33 
f 36/36/36 35/35/35 34/34/34 
f 30/30/30 31/31/31 29/29/29 
f 32/32/32 31/31/31 30/30/30 
f 26/26/26 27/27/27 25/25/25 
f 28/28/28 27/27/27 26/26/26 
f 22/22/22 23/23/23 21/21/21 
f 24/24/24 23/23/23 22/22/22 
f 18/18/18 19/19/19 17/17/17 
f 20/20/20 19/19/19 18/18/18 
f 14/14/14 15/15/15 13/13/13 
f 16/16/16 15/15/15 14/14/14 
f 60/60/60 10/10/10 59/59/59 
f 12/12/12 10/10/10 60/60/60 
f 12/12/12 10/10/10 10/10/10 
f 11/11/11 10/10/10 12/12/12 
f 11/11/11 9/9/9 10/10/10 
f 57/57/57 9/9/9 11/11/11 
f 57/57/57 58/58/58 9/9/9 
f 57/57/57 58/58/58 57/57/57 
f 57/57/57 59/59/59 58/58/58 
f 60/60/60 59/59/59 57/57/57 
