v -0.414000 1.136000 0.186600
v -0.447300 1.136000 -0.084300
v -0.414000 1.062900 0.186600
v -0.447300 1.062900 -0.084300
v -0.326400 1.136000 -0.340700
v -0.326400 1.062900 -0.340700
v -0.227100 1.136000 0.391600
v -0.326400 1.136000 -0.340700
v -0.414000 1.136000 0.186600
v -0.447300 1.136000 -0.084300
v -0.326400 1.062900 -0.340700
v -0.227100 1.062900 0.391600
v -0.447300 1.062900 -0.084300
v -0.414000 1.062900 0.186600
v -0.343500 1.065600 0.142300
v -0.368600 1.065600 -0.048400
v -0.277000 0.083400 0.114700
v -0.297200 0.083400 -0.039100
v -0.227100 1.136000 0.391600
v -0.227100 1.062900 0.391600
v -0.389800 1.058400 0.000000
v -0.275400 1.058400 0.273300
v -0.359500 1.206300 0.000000
v -0.254800 1.206300 0.252700
v -0.275400 1.058400 -0.273300
v -0.254800 1.206300 -0.252700
v -0.290800 1.065600 -0.224200
v -0.297200 0.083400 -0.039100
v -0.237800 0.083400 -0.182500
v -0.277000 0.083400 0.114700
v -0.297200 0.083400 -0.039100
v -0.272100 0.000000 0.112700
v -0.291900 0.000000 -0.038400
v -0.188500 1.357800 -0.186400
v -0.265800 1.357800 0.000000
v -0.188500 1.357800 0.186400
v -0.237800 0.083400 -0.182500
v -0.233600 0.000000 -0.179200
v -0.227700 1.065600 0.289600
v -0.182500 0.083400 0.237800
v -0.277000 0.083400 0.114700
v -0.182500 0.083400 0.237800
v -0.179200 0.000000 0.233600
v -0.142300 1.065600 -0.338500
v -0.237800 0.083400 -0.182500
v -0.114700 0.083400 -0.276900
v -0.291900 0.000000 -0.038400
v -0.038400 0.000000 0.291900
v -0.272100 0.000000 0.112700
v -0.179200 0.000000 0.233600
v -0.106600 1.415500 -0.104500
v -0.150000 1.415500 0.000000
v -0.106600 1.415500 0.104500
v -0.114700 0.083400 -0.276900
v -0.112700 0.000000 -0.272000
v -0.022800 1.136000 -0.465200
v -0.022800 1.062900 -0.465200
v -0.022800 1.136000 -0.465200
v 0.027200 1.136000 0.459500
v -0.022800 1.062900 -0.465200
v 0.036500 1.062900 0.459500
v -0.002000 1.058400 0.386500
v -0.002000 1.206300 0.357400
v -0.002000 1.058400 -0.386500
v -0.002000 1.206300 -0.357400
v -0.048600 1.065600 0.368600
v -0.039100 0.083400 0.297200
v -0.182500 0.083400 0.237800
v -0.233600 0.000000 -0.179200
v 0.112600 0.000000 0.272100
v -0.002000 1.357800 0.263700
v -0.002000 1.357800 -0.263700
v -0.039100 0.083400 0.297200
v -0.038400 0.000000 0.291900
v 0.036500 1.062900 0.459500
v 0.027200 1.136000 0.459500
v -0.002000 1.415500 -0.147900
v -0.002000 1.415500 0.147900
v -0.002000 1.444900 0.000000
v -0.002000 1.444900 0.000000
v -0.142300 1.065600 -0.338500
v 0.047600 1.065600 -0.367500
v -0.114700 0.083400 -0.276900
v 0.039100 0.083400 -0.297200
v 0.039100 0.083400 -0.297200
v 0.038400 0.000000 -0.291900
v -0.002000 1.444900 0.000000
v -0.002000 1.444900 0.000000
v -0.112700 0.000000 -0.272000
v 0.233600 0.000000 0.179200
v 0.102500 1.415500 -0.104500
v -0.002000 1.444900 0.000000
v 0.102500 1.415500 0.104500
v -0.002000 1.444900 0.000000
v 0.114700 0.083400 0.277000
v 0.112600 0.000000 0.272100
v 0.142100 1.065600 0.341000
v 0.114700 0.083400 0.277000
v -0.039100 0.083400 0.297200
v 0.145800 1.415500 0.000000
v 0.102500 1.415500 -0.104500
v -0.002000 1.444900 0.000000
v -0.002000 1.444900 0.000000
v 0.184300 1.357800 -0.186400
v 0.184300 1.357800 0.186400
v 0.250600 1.206300 -0.252700
v 0.250600 1.206300 0.252700
v 0.182500 0.083400 -0.237800
v 0.179200 0.000000 -0.233600
v 0.291900 0.000000 0.038400
v 0.038400 0.000000 -0.291900
v 0.264400 1.136000 -0.377600
v 0.264400 1.062900 -0.377600
v 0.226700 1.071400 -0.288900
v 0.182500 0.083400 -0.237800
v 0.039100 0.083400 -0.297200
v 0.271200 1.058400 -0.273300
v 0.271200 1.058400 0.273300
v 0.333800 1.136000 0.316500
v 0.264400 1.136000 -0.377600
v 0.333800 1.062900 0.316500
v 0.264400 1.062900 -0.377600
v 0.261600 1.357800 0.000000
v 0.184300 1.357800 -0.186400
v 0.237800 0.083400 0.182500
v 0.233600 0.000000 0.179200
v 0.333800 1.136000 0.316500
v 0.333800 1.062900 0.316500
v 0.272000 0.000000 -0.112600
v 0.179200 0.000000 -0.233600
v 0.292300 1.065600 0.224900
v 0.237800 0.083400 0.182500
v 0.114700 0.083400 0.277000
v 0.276900 0.083400 -0.114700
v 0.272000 0.000000 -0.112600
v 0.343400 1.065600 -0.142100
v 0.182500 0.083400 -0.237800
v 0.276900 0.083400 -0.114700
v 0.355300 1.206300 0.000000
v 0.250600 1.206300 -0.252700
v 0.261600 1.357800 0.000000
v 0.184300 1.357800 -0.186400
v 0.250600 1.206300 0.252700
v 0.355300 1.206300 0.000000
v 0.184300 1.357800 0.186400
v 0.261600 1.357800 0.000000
v 0.297200 0.083400 0.039100
v 0.291900 0.000000 0.038400
v 0.368500 1.065600 0.048600
v 0.297200 0.083400 0.039100
v 0.237800 0.083400 0.182500
v 0.271200 1.058400 0.273300
v 0.384400 1.058400 0.000000
v 0.384400 1.058400 0.000000
v 0.271200 1.058400 -0.273300
v 0.276900 0.083400 -0.114700
v 0.297200 0.083400 0.039100
v 0.422700 1.136000 -0.178800
v 0.422700 1.062900 -0.183000
v 0.422700 1.062900 -0.183000
v 0.458200 1.062900 0.036300
v 0.422700 1.136000 -0.178800
v 0.458200 1.136000 0.036300
v 0.458200 1.136000 0.036300
v 0.458200 1.062900 0.036300
vt 0.683300 0.237400
vt 0.683300 0.237400
vt 0.683300 0.237400
vt 0.683300 0.237400
vt 0.683300 0.237400
vt 0.683300 0.237400
vt 0.683300 0.237400
vt 0.683300 0.237400
vt 0.683300 0.237400
vt 0.683300 0.237400
vt 0.683300 0.237400
vt 0.683300 0.237400
vt 0.683300 0.237400
vt 0.683300 0.237400
vt 0.881000 0.516000
vt 0.881000 0.516000
vt 0.012500 0.516400
vt 0.012600 0.516400
vt 0.683300 0.237400
vt 0.683300 0.237400
vt 0.861100 0.342300
vt 0.887400 0.351400
vt 0.859500 0.355300
vt 0.880600 0.362600
vt 0.833400 0.345000
vt 0.837500 0.357100
vt 0.881000 0.516000
vt 0.012500 0.516400
vt 0.012600 0.516400
vt 0.751000 0.229300
vt 0.751000 0.229300
vt 0.751000 0.224800
vt 0.751000 0.224800
vt 0.841600 0.371900
vt 0.857400 0.370800
vt 0.872400 0.375800
vt 0.751000 0.229300
vt 0.751000 0.224800
vt 0.881000 0.516000
vt 0.012500 0.516400
vt 0.012600 0.516400
vt 0.751000 0.229300
vt 0.751000 0.224800
vt 0.881000 0.516100
vt 0.012500 0.516400
vt 0.012600 0.516400
vt 0.751000 0.224800
vt 0.751000 0.224800
vt 0.751000 0.224800
vt 0.751000 0.224800
vt 0.844300 0.383300
vt 0.855600 0.382500
vt 0.866300 0.385800
vt 0.751000 0.229300
vt 0.751000 0.224800
vt 0.683300 0.237400
vt 0.683300 0.237400
vt 0.683300 0.237400
vt 0.683300 0.237400
vt 0.683300 0.237400
vt 0.683300 0.237400
vt 0.907500 0.370300
vt 0.897000 0.378100
vt 0.810900 0.361100
vt 0.819000 0.367800
vt 0.881000 0.516000
vt 0.012500 0.516400
vt 0.012600 0.516400
vt 0.751000 0.224800
vt 0.751000 0.224800
vt 0.884400 0.386800
vt 0.827000 0.378600
vt 0.751000 0.229300
vt 0.751000 0.224800
vt 0.683300 0.237400
vt 0.683300 0.237400
vt 0.833700 0.387600
vt 0.874600 0.392900
vt 0.851000 0.395100
vt 0.857500 0.395800
vt 0.880900 0.515900
vt 0.880900 0.515900
vt 0.012500 0.516400
vt 0.012600 0.516400
vt 0.751000 0.229300
vt 0.751000 0.224800
vt 0.843600 0.396700
vt 0.862600 0.398600
vt 0.751000 0.224800
vt 0.751000 0.224800
vt 0.825200 0.394000
vt 0.836800 0.400600
vt 0.878600 0.402600
vt 0.865200 0.402300
vt 0.751000 0.229300
vt 0.751000 0.224800
vt 0.881000 0.516000
vt 0.012500 0.516400
vt 0.012600 0.516400
vt 0.876000 0.412400
vt 0.868000 0.418400
vt 0.864700 0.405600
vt 0.865400 0.404400
vt 0.814200 0.388700
vt 0.890300 0.402500
vt 0.801400 0.375900
vt 0.906300 0.399600
vt 0.751000 0.229300
vt 0.751000 0.224800
vt 0.751000 0.224800
vt 0.751000 0.224800
vt 0.683300 0.237400
vt 0.683300 0.237400
vt 0.889300 0.515900
vt 0.012600 0.516400
vt 0.012500 0.516400
vt 0.798400 0.361100
vt 0.918900 0.394700
vt 0.683300 0.237400
vt 0.683300 0.237400
vt 0.683300 0.237400
vt 0.683300 0.237400
vt 0.885300 0.419000
vt 0.871100 0.429300
vt 0.751000 0.229300
vt 0.751000 0.224800
vt 0.683300 0.237400
vt 0.683300 0.237400
vt 0.751000 0.224800
vt 0.751000 0.224800
vt 0.880900 0.515900
vt 0.012500 0.516400
vt 0.012600 0.516400
vt 0.751000 0.229300
vt 0.751000 0.224800
vt 0.880900 0.515900
vt 0.012500 0.516400
vt 0.012600 0.516400
vt 0.356500 0.231500
vt 0.647200 0.232700
vt 0.400700 0.389400
vt 0.612700 0.389100
vt 0.261800 0.267500
vt 0.528600 0.235300
vt 0.301800 0.389500
vt 0.492300 0.388700
vt 0.751000 0.229300
vt 0.751000 0.224800
vt 0.880900 0.515900
vt 0.012500 0.516400
vt 0.012600 0.516400
vt 0.238500 0.086100
vt 0.551400 0.129400
vt 0.348600 0.144800
vt 0.661300 0.068600
vt 0.012500 0.516400
vt 0.012600 0.516400
vt 0.683300 0.237400
vt 0.683300 0.237400
vt 0.683300 0.237400
vt 0.683300 0.237400
vt 0.683300 0.237400
vt 0.683300 0.237400
vt 0.683300 0.237400
vt 0.683300 0.237400
vn -0.858293 0.000000 0.513160
vn -0.997694 0.000000 -0.067871
vn -0.946932 0.000000 0.321434
vn -0.966384 0.000000 -0.257102
vn -0.759761 0.000000 -0.650202
vn -0.570225 0.000000 -0.821489
vn 0.000000 1.000000 0.000000
vn 0.000000 1.000000 0.000000
vn 0.000000 1.000000 0.000000
vn 0.000000 1.000000 0.000000
vn 0.000000 -1.000000 0.000000
vn 0.000000 -1.000000 0.000000
vn 0.000000 -1.000000 0.000000
vn 0.000000 -1.000000 0.000000
vn -0.888322 -0.072230 0.453505
vn -0.995397 -0.072932 -0.062176
vn -0.988988 -0.070638 0.130047
vn -0.989006 -0.070665 0.129895
vn -0.526043 0.000000 0.850458
vn -0.522040 -0.008262 0.852881
vn -0.972151 0.196742 -0.127342
vn -0.777083 0.194049 0.598738
vn -0.928036 0.371841 0.021975
vn -0.641671 0.369610 0.672047
vn -0.597216 0.191599 -0.778860
vn -0.671188 0.370651 -0.641969
vn -0.832945 -0.069649 -0.548956
vn -0.916584 -0.068273 -0.393970
vn -0.921864 -0.065956 -0.381860
vn -0.884757 -0.063347 0.461728
vn -0.997046 -0.063537 -0.043147
vn -0.952670 -0.063290 0.297346
vn -0.973653 -0.063624 -0.218977
vn -0.572033 0.679412 -0.459541
vn -0.729444 0.679385 0.079669
vn -0.459363 0.679371 0.572225
vn -0.842077 -0.063687 -0.535584
vn -0.733847 -0.063431 -0.676347
vn -0.544712 -0.070478 0.835657
vn -0.787458 -0.069531 0.612435
vn -0.791241 -0.070639 0.607411
vn -0.535483 -0.063686 0.842141
vn -0.676124 -0.063426 0.734052
vn -0.607951 -0.066549 -0.791181
vn -0.607951 -0.066549 -0.791181
vn -0.607170 -0.066718 -0.791766
vn 0.000000 -1.000000 0.000000
vn 0.000000 -1.000000 0.000000
vn 0.000000 -1.000000 0.000000
vn 0.000000 -1.000000 0.000000
vn -0.287679 0.934156 -0.211171
vn -0.352579 0.934205 0.054303
vn -0.211031 0.934148 0.287809
vn -0.461554 -0.063342 -0.884848
vn -0.297550 -0.063284 -0.952607
vn -0.177588 0.000000 -0.984105
vn 0.057649 0.000000 -0.998337
vn 0.000000 1.000000 0.000000
vn 0.000000 1.000000 0.000000
vn 0.000000 -1.000000 0.000000
vn 0.000000 -1.000000 0.000000
vn -0.127460 0.191542 0.973173
vn 0.021247 0.369565 0.928962
vn 0.127491 0.191555 -0.973166
vn -0.021248 0.369533 -0.928975
vn -0.059327 -0.072189 0.995625
vn -0.393441 -0.068454 0.916798
vn -0.381854 -0.066190 0.921850
vn 0.000000 -1.000000 0.000000
vn 0.000000 -1.000000 0.000000
vn 0.079672 0.679418 0.729413
vn -0.079663 0.679348 -0.729480
vn -0.043156 -0.063591 0.997042
vn -0.219025 -0.063624 0.973643
vn 0.243810 0.010681 0.969764
vn 0.008732 0.011587 0.999895
vn -0.054291 0.934168 -0.352679
vn 0.054309 0.934177 0.352652
vn -0.194207 0.977639 -0.080656
vn -0.194207 0.977639 0.080656
vn -0.150632 -0.066095 -0.986378
vn 0.132616 -0.069950 -0.988696
vn -0.141660 -0.067690 -0.987598
vn -0.130537 -0.069657 -0.988993
vn 0.042703 -0.063542 -0.997065
vn 0.218764 -0.063625 -0.973701
vn -0.080632 0.977616 -0.194333
vn -0.080632 0.977616 0.194333
vn 0.000000 -1.000000 0.000000
vn 0.000000 -1.000000 0.000000
vn 0.153643 0.916184 -0.370135
vn 0.080708 0.977610 -0.194332
vn 0.287911 0.934094 0.211129
vn 0.080708 0.977610 0.194332
vn 0.461628 -0.063647 0.884787
vn 0.297340 -0.063591 0.952652
vn 0.455567 -0.070342 0.887418
vn 0.137104 -0.069358 0.988126
vn 0.129896 -0.070639 0.989008
vn 0.352822 0.934111 -0.054341
vn 0.311191 0.941559 -0.128943
vn 0.194461 0.977595 -0.080576
vn 0.194461 0.977595 0.080576
vn 0.306441 0.600062 -0.738931
vn 0.317293 0.784185 0.533272
vn 0.365643 0.296528 -0.882257
vn 0.351659 0.396150 0.848175
vn 0.535584 -0.063687 -0.842077
vn 0.676457 -0.063682 -0.733723
vn 0.000000 -1.000000 0.000000
vn 0.000000 -1.000000 0.000000
vn 0.537933 0.008605 -0.842944
vn 0.535120 0.000000 -0.844776
vn 0.604685 -0.068095 -0.793548
vn 0.393537 -0.067022 -0.916862
vn 0.381774 -0.069271 -0.921656
vn 0.376604 0.179050 -0.908906
vn 0.376664 0.178944 0.908902
vn 0.000000 1.000000 0.000000
vn 0.000000 1.000000 0.000000
vn 0.000000 -1.000000 0.000000
vn 0.000000 -1.000000 0.000000
vn 0.445656 0.894291 0.040429
vn 0.438612 0.880088 -0.181838
vn 0.842141 -0.063686 0.535483
vn 0.733929 -0.063678 0.676234
vn 0.704399 0.015141 0.709642
vn 0.708361 0.000000 0.705850
vn 0.000000 -1.000000 0.000000
vn 0.000000 -1.000000 0.000000
vn 0.834121 -0.070784 0.547021
vn 0.608962 -0.068193 0.790263
vn 0.607501 -0.068512 0.791359
vn 0.884879 -0.063643 -0.461453
vn 0.952588 -0.063585 -0.297544
vn 0.887017 -0.071661 -0.456141
vn 0.785110 -0.068639 -0.615542
vn 0.791558 -0.070526 -0.607011
vn 0.882344 0.296397 -0.365538
vn 0.848229 0.396150 -0.351529
vn 0.802018 0.496247 -0.332424
vn 0.801858 0.496435 -0.332530
vn 0.882309 0.296520 0.365523
vn 0.848253 0.396090 0.351539
vn 0.802018 0.496247 0.332424
vn 0.802057 0.496058 0.332613
vn 0.997061 -0.063596 0.042712
vn 0.973691 -0.063625 0.218812
vn 0.995602 -0.072863 0.058880
vn 0.918412 -0.069107 0.389542
vn 0.921760 -0.067629 0.381817
vn 0.908957 0.179041 0.376487
vn 0.908953 0.178944 0.376542
vn 0.908989 0.178848 -0.376500
vn 0.908953 0.178944 -0.376542
vn 0.988957 -0.070562 -0.130330
vn 0.988933 -0.070526 -0.130529
vn 0.940119 0.016532 -0.340444
vn 0.866923 0.015755 -0.498194
vn 0.000000 -1.000000 0.000000
vn 0.000000 -1.000000 0.000000
vn 0.000000 1.000000 0.000000
vn 0.000000 1.000000 0.000000
vn 0.984271 0.000000 0.176664
vn 0.984399 0.002018 0.175941
f 16/16/16 17/17/17 15/15/15 
f 18/18/18 17/17/17 16/16/16 
f 15/15/15 40/40/40 39/39/39 
f 41/41/41 40/40/40 15/15/15 
f 39/39/39 67/67/67 66/66/66 
f 68/68/68 67/67/67 39/39/39 
f 99/99/99 66/66/66 99/99/99 
f 98/98/98 66/66/66 99/99/99 
f 98/98/98 97/97/97 66/66/66 
f 97/97/97 132/132/132 131/131/131 
f 133/133/133 132/132/132 97/97/97 
f 131/131/131 150/150/150 149/149/149 
f 151/151/151 150/150/150 131/131/131 
f 149/149/149 156/156/156 136/136/136 
f 157/157/157 156/156/156 149/149/149 
f 136/136/136 137/137/137 114/114/114 
f 138/138/138 137/137/137 136/136/136 
f 115/115/115 82/82/82 114/114/114 
f 116/116/116 82/82/82 115/115/115 
f 82/82/82 83/83/83 81/81/81 
f 84/84/84 83/83/83 82/82/82 
f 100/100/100 103/103/103 93/93/93 
f 93/93/93 94/94/94 78/78/78 
f 102/102/102 101/101/101 102/102/102 
f 100/100/100 101/101/101 102/102/102 
f 100/100/100 124/124/124 101/101/101 
f 100/100/100 124/124/124 100/100/100 
f 100/100/100 123/123/123 124/124/124 
f 93/93/93 123/123/123 100/100/100 
f 93/93/93 105/105/105 123/123/123 
f 78/78/78 105/105/105 93/93/93 
f 78/78/78 71/71/71 105/105/105 
f 53/53/53 71/71/71 78/78/78 
f 53/53/53 36/36/36 71/71/71 
f 52/52/52 36/36/36 53/53/53 
f 53/53/53 80/80/80 52/52/52 
f 78/78/78 88/88/88 53/53/53 
f 52/52/52 79/79/79 51/51/51 
f 51/51/51 87/87/87 77/77/77 
f 77/77/77 92/92/92 91/91/91 
f 52/52/52 35/35/35 36/36/36 
f 51/51/51 35/35/35 52/52/52 
f 51/51/51 34/34/34 35/35/35 
f 77/77/77 34/34/34 51/51/51 
f 77/77/77 72/72/72 34/34/34 
f 91/91/91 72/72/72 77/77/77 
f 91/91/91 72/72/72 72/72/72 
f 104/104/104 72/72/72 91/91/91 
f 104/104/104 65/65/65 72/72/72 
f 106/106/106 65/65/65 104/104/104 
f 106/106/106 64/64/64 65/65/65 
f 117/117/117 64/64/64 106/106/106 
f 105/105/105 107/107/107 105/105/105 
f 71/71/71 107/107/107 105/105/105 
f 71/71/71 63/63/63 107/107/107 
f 36/36/36 63/63/63 71/71/71 
f 36/36/36 24/24/24 63/63/63 
f 35/35/35 24/24/24 36/36/36 
f 35/35/35 23/23/23 24/24/24 
f 34/34/34 23/23/23 35/35/35 
f 34/34/34 26/26/26 23/23/23 
f 72/72/72 26/26/26 34/34/34 
f 72/72/72 26/26/26 26/26/26 
f 65/65/65 26/26/26 72/72/72 
f 65/65/65 25/25/25 26/26/26 
f 64/64/64 25/25/25 65/65/65 
f 107/107/107 118/118/118 107/107/107 
f 63/63/63 118/118/118 107/107/107 
f 63/63/63 62/62/62 118/118/118 
f 24/24/24 62/62/62 63/63/63 
f 24/24/24 22/22/22 62/62/62 
f 23/23/23 22/22/22 24/24/24 
f 23/23/23 21/21/21 22/22/22 
f 26/26/26 21/21/21 23/23/23 
f 26/26/26 25/25/25 21/21/21 
f 14/14/14 12/12/12 14/14/14 
f 13/13/13 12/12/12 14/14/14 
f 13/13/13 12/12/12 12/12/12 
f 11/11/11 12/12/12 13/13/13 
f 11/11/11 61/61/61 12/12/12 
f 60/60/60 61/61/61 11/11/11 
f 60/60/60 121/121/121 61/61/61 
f 122/122/122 121/121/121 60/60/60 
f 122/122/122 121/121/121 121/121/121 
f 160/160/160 121/121/121 122/122/122 
f 160/160/160 161/161/161 121/121/121 
f 38/38/38 37/37/37 38/38/38 
f 33/33/33 37/37/37 38/38/38 
f 33/33/33 31/31/31 37/37/37 
f 32/32/32 31/31/31 33/33/33 
f 32/32/32 30/30/30 31/31/31 
f 148/148/148 147/147/147 148/148/148 
f 135/135/135 147/147/147 148/148/148 
f 135/135/135 134/134/134 147/147/147 
f 109/109/109 134/134/134 135/135/135 
f 109/109/109 108/108/108 134/134/134 
f 86/86/86 108/108/108 109/109/109 
f 86/86/86 85/85/85 108/108/108 
f 55/55/55 85/85/85 86/86/86 
f 55/55/55 54/54/54 85/85/85 
f 38/38/38 54/54/54 55/55/55 
f 38/38/38 37/37/37 54/54/54 
f 32/32/32 30/30/30 32/32/32 
f 43/43/43 30/30/30 32/32/32 
f 43/43/43 42/42/42 30/30/30 
f 74/74/74 42/42/42 43/43/43 
f 74/74/74 73/73/73 42/42/42 
f 96/96/96 73/73/73 74/74/74 
f 96/96/96 95/95/95 73/73/73 
f 126/126/126 95/95/95 96/96/96 
f 126/126/126 125/125/125 95/95/95 
f 148/148/148 125/125/125 126/126/126 
f 148/148/148 147/147/147 125/125/125 
f 56/56/56 6/6/6 5/5/5 
f 56/56/56 6/6/6 56/56/56 
f 56/56/56 57/57/57 6/6/6 
f 112/112/112 57/57/57 56/56/56 
f 112/112/112 113/113/113 57/57/57 
f 112/112/112 113/113/113 112/112/112 
f 112/112/112 159/159/159 113/113/113 
f 158/158/158 159/159/159 112/112/112 
f 158/158/158 165/165/165 159/159/159 
f 164/164/164 165/165/165 158/158/158 
f 164/164/164 165/165/165 165/165/165 
f 127/127/127 165/165/165 164/164/164 
f 127/127/127 128/128/128 165/165/165 
f 127/127/127 75/75/75 128/128/128 
f 76/76/76 75/75/75 127/127/127 
f 76/76/76 20/20/20 75/75/75 
f 19/19/19 20/20/20 76/76/76 
f 19/19/19 20/20/20 20/20/20 
f 1/1/1 20/20/20 19/19/19 
f 1/1/1 3/3/3 20/20/20 
f 2/2/2 3/3/3 1/1/1 
f 2/2/2 4/4/4 3/3/3 
f 5/5/5 4/4/4 2/2/2 
f 5/5/5 6/6/6 4/4/4 
f 129/129/129 111/111/111 130/130/130 
f 110/110/110 111/111/111 129/129/129 
f 110/110/110 89/89/89 111/111/111 
f 90/90/90 89/89/89 110/110/110 
f 90/90/90 69/69/69 89/89/89 
f 70/70/70 69/69/69 90/90/90 
f 70/70/70 47/47/47 69/69/69 
f 48/48/48 47/47/47 70/70/70 
f 48/48/48 49/49/49 47/47/47 
f 50/50/50 49/49/49 48/48/48 
f 9/9/9 8/8/8 10/10/10 
f 7/7/7 8/8/8 9/9/9 
f 7/7/7 8/8/8 8/8/8 
f 59/59/59 8/8/8 7/7/7 
f 59/59/59 58/58/58 8/8/8 
f 119/119/119 58/58/58 59/59/59 
f 119/119/119 120/120/120 58/58/58 
f 119/119/119 120/120/120 119/119/119 
f 119/119/119 162/162/162 120/120/120 
f 163/163/163 162/162/162 119/119/119 
f 153/153/153 143/143/143 152/152/152 
f 144/144/144 143/143/143 153/153/153 
f 144/144/144 145/145/145 143/143/143 
f 146/146/146 145/145/145 144/144/144 
f 27/27/27 28/28/28 16/16/16 
f 29/29/29 28/28/28 27/27/27 
f 44/44/44 45/45/45 27/27/27 
f 46/46/46 45/45/45 44/44/44 
f 155/155/155 139/139/139 154/154/154 
f 140/140/140 139/139/139 155/155/155 
f 140/140/140 141/141/141 139/139/139 
f 142/142/142 141/141/141 140/140/140 
