v -0.122200 0.999300 0.000800
v -0.116200 0.961500 0.000800
v -0.122200 0.999300 0.072300
v -0.116200 0.961500 0.072300
v -0.116200 1.037100 0.000800
v -0.116200 1.037100 0.072300
v -0.098800 0.927500 0.000800
v -0.098800 0.927500 0.072300
v -0.098800 1.071100 0.000800
v -0.098800 1.071100 0.072300
v -0.071800 0.900400 0.000800
v -0.071800 0.900400 0.072300
v -0.071800 1.098100 0.000800
v -0.071800 1.098100 0.072300
v -0.037700 0.883100 0.000800
v -0.037700 0.883100 0.072300
v -0.037700 1.115500 0.000800
v -0.037700 1.115500 0.072300
v 0.000000 0.877100 0.000800
v 0.000000 0.877100 0.072300
v 0.000000 1.121500 0.000800
v 0.000000 1.121500 0.072300
v 0.122100 0.999300 0.072300
v -0.122200 0.999300 0.072300
v 0.116100 0.961500 0.072300
v -0.116200 0.961500 0.072300
v -0.116200 1.037100 0.072300
v 0.116100 1.037100 0.072300
v 0.098800 0.927500 0.072300
v -0.098800 0.927500 0.072300
v -0.098800 1.071100 0.072300
v 0.098800 1.071100 0.072300
v 0.071700 0.900400 0.072300
v -0.071800 0.900400 0.072300
v 0.037700 0.883100 0.072300
v -0.037700 0.883100 0.072300
v -0.071800 1.098100 0.072300
v 0.071700 1.098100 0.072300
v -0.037700 1.115500 0.072300
v 0.037700 1.115500 0.072300
v 0.000000 0.877100 0.072300
v 0.000000 1.121500 0.072300
v 0.037700 0.883100 0.000800
v 0.037700 0.883100 0.072300
v 0.037700 1.115500 0.000800
v 0.037700 1.115500 0.072300
v 0.071700 0.900400 0.000800
v 0.071700 0.900400 0.072300
v 0.071700 1.098100 0.000800
v 0.071700 1.098100 0.072300
v 0.098800 0.927500 0.000800
v 0.098800 0.927500 0.072300
v 0.098800 1.071100 0.000800
v 0.098800 1.071100 0.072300
v 0.116100 0.961500 0.000800
v 0.116100 0.961500 0.072300
v 0.116100 1.037100 0.000800
v 0.116100 1.037100 0.072300
v 0.122100 0.999300 0.000800
v 0.122100 0.999300 0.072300
v -0.067200 0.000000 0.000000
v 0.067200 0.000000 0.000000
v 0.000200 0.036100 0.000000
vt 0.065800 0.586900
vt 0.065800 0.586900
vt 0.065800 0.586900
vt 0.065800 0.586900
vt 0.065800 0.586900
vt 0.065800 0.586900
vt 0.065800 0.586900
vt 0.065800 0.586900
vt 0.065800 0.586900
vt 0.065800 0.586900
vt 0.065800 0.586900
vt 0.065800 0.586900
vt 0.065800 0.586900
vt 0.065800 0.586900
vt 0.065800 0.586900
vt 0.065800 0.586900
vt 0.065800 0.586900
vt 0.065800 0.586900
vt 0.065800 0.586900
vt 0.065800 0.586900
vt 0.065800 0.586900
vt 0.065800 0.586900
vt 0.079600 0.577900
vt 0.079600 0.577900
vt 0.079600 0.577900
vt 0.079600 0.577900
vt 0.079600 0.577900
vt 0.079600 0.577900
vt 0.079600 0.577900
vt 0.079600 0.577900
vt 0.079600 0.577900
vt 0.079600 0.577900
vt 0.079600 0.577900
vt 0.079600 0.577900
vt 0.079600 0.577900
vt 0.079600 0.577900
vt 0.079600 0.577900
vt 0.079600 0.577900
vt 0.079600 0.577900
vt 0.079600 0.577900
vt 0.079600 0.577900
vt 0.079600 0.577900
vt 0.065800 0.586900
vt 0.065800 0.586900
vt 0.065800 0.586900
vt 0.065800 0.586900
vt 0.065800 0.586900
vt 0.065800 0.586900
vt 0.065800 0.586900
vt 0.065800 0.586900
vt 0.065800 0.586900
vt 0.065800 0.586900
vt 0.065800 0.586900
vt 0.065800 0.586900
vt 0.065800 0.586900
vt 0.065800 0.586900
vt 0.065800 0.586900
vt 0.065800 0.586900
vt 0.065800 0.586900
vt 0.065800 0.586900
vt 0.000000 1.000000
vt 0.000000 1.000000
vt 0.000000 1.000000
vn -0.998603 0.052836 0.000000
vn -0.965854 -0.259088 0.000000
vn -0.998603 -0.052836 0.000000
vn -0.933027 -0.359806 0.000000
vn -0.933027 0.359806 0.000000
vn -0.965854 0.259089 0.000000
vn -0.838504 -0.544895 0.000000
vn -0.777245 -0.629198 0.000000
vn -0.776545 0.630061 0.000000
vn -0.838242 0.545298 0.000000
vn -0.630161 -0.776464 0.000000
vn -0.543873 -0.839168 0.000000
vn -0.544493 0.838766 0.000000
vn -0.629629 0.776896 0.000000
vn -0.357975 -0.933731 0.000000
vn -0.258486 -0.966015 0.000000
vn -0.259310 0.965794 0.000000
vn -0.359511 0.933141 0.000000
vn -0.052976 -0.998596 0.000000
vn 0.052976 -0.998596 0.000000
vn 0.052976 0.998596 0.000000
vn -0.052976 0.998596 0.000000
vn 0.000000 0.000000 1.000000
vn 0.000000 0.000000 1.000000
vn 0.000000 0.000000 1.000000
vn 0.000000 0.000000 1.000000
vn 0.000000 0.000000 1.000000
vn 0.000000 0.000000 1.000000
vn 0.000000 0.000000 1.000000
vn 0.000000 0.000000 1.000000
vn 0.000000 0.000000 1.000000
vn 0.000000 0.000000 1.000000
vn 0.000000 0.000000 1.000000
vn 0.000000 0.000000 1.000000
vn 0.000000 0.000000 1.000000
vn 0.000000 0.000000 1.000000
vn 0.000000 0.000000 1.000000
vn 0.000000 0.000000 1.000000
vn 0.000000 0.000000 1.000000
vn 0.000000 0.000000 1.000000
vn 0.000000 0.000000 1.000000
vn 0.000000 0.000000 1.000000
vn 0.258706 -0.965956 0.000000
vn 0.358565 -0.933505 0.000000
vn 0.360103 0.932912 0.000000
vn 0.259531 0.965735 0.000000
vn 0.544275 -0.838907 0.000000
vn 0.629730 -0.776814 0.000000
vn 0.629198 0.777245 0.000000
vn 0.544895 0.838504 0.000000
vn 0.776814 -0.629730 0.000000
vn 0.838907 -0.544275 0.000000
vn 0.838645 0.544678 0.000000
vn 0.776114 0.630593 0.000000
vn 0.933618 -0.358270 0.000000
vn 0.966074 -0.258266 0.000000
vn 0.966074 0.258266 0.000000
vn 0.933618 0.358269 0.000000
vn 0.998603 -0.052836 0.000000
vn 0.998603 0.052836 0.000000
vn 0.000000 0.000000 1.000000
vn 0.000000 0.000000 1.000000
vn 0.000000 0.000000 1.000000
f 24/24/24 25/25/25 24/24/24 
f 26/26/26 25/25/25 24/24/24 
f 26/26/26 29/29/29 25/25/25 
f 30/30/30 29/29/29 26/26/26 
f 30/30/30 33/33/33 29/29/29 
f 34/34/34 33/33/33 30/30/30 
f 34/34/34 35/35/35 33/33/33 
f 36/36/36 35/35/35 34/34/34 
f 36/36/36 41/41/41 35/35/35 
f 42/42/42 40/40/40 42/42/42 
f 39/39/39 40/40/40 42/42/42 
f 39/39/39 38/38/38 40/40/40 
f 37/37/37 38/38/38 39/39/39 
f 37/37/37 32/32/32 38/38/38 
f 31/31/31 32/32/32 37/37/37 
f 31/31/31 28/28/28 32/32/32 
f 27/27/27 28/28/28 31/31/31 
f 27/27/27 23/23/23 28/28/28 
f 24/24/24 23/23/23 27/27/27 
f 24/24/24 25/25/25 23/23/23 
f 8/8/8 7/7/7 8/8/8 
f 4/4/4 7/7/7 8/8/8 
f 4/4/4 2/2/2 7/7/7 
f 3/3/3 2/2/2 4/4/4 
f 3/3/3 1/1/1 2/2/2 
f 6/6/6 1/1/1 3/3/3 
f 6/6/6 5/5/5 1/1/1 
f 10/10/10 5/5/5 6/6/6 
f 10/10/10 9/9/9 5/5/5 
f 14/14/14 9/9/9 10/10/10 
f 14/14/14 13/13/13 9/9/9 
f 14/14/14 13/13/13 14/14/14 
f 18/18/18 13/13/13 14/14/14 
f 18/18/18 17/17/17 13/13/13 
f 22/22/22 17/17/17 18/18/18 
f 22/22/22 21/21/21 17/17/17 
f 46/46/46 21/21/21 22/22/22 
f 46/46/46 45/45/45 21/21/21 
f 50/50/50 45/45/45 46/46/46 
f 50/50/50 49/49/49 45/45/45 
f 54/54/54 49/49/49 50/50/50 
f 54/54/54 53/53/53 49/49/49 
f 54/54/54 53/53/53 54/54/54 
f 58/58/58 53/53/53 54/54/54 
f 58/58/58 57/57/57 53/53/53 
f 60/60/60 57/57/57 58/58/58 
f 60/60/60 59/59/59 57/57/57 
f 56/56/56 59/59/59 60/60/60 
f 56/56/56 55/55/55 59/59/59 
f 52/52/52 55/55/55 56/56/56 
f 52/52/52 51/51/51 55/55/55 
f 48/48/48 51/51/51 52/52/52 
f 48/48/48 47/47/47 51/51/51 
f 48/48/48 47/47/47 48/48/48 
f 44/44/44 47/47/47 48/48/48 
f 44/44/44 43/43/43 47/47/47 
f 20/20/20 43/43/43 44/44/44 
f 20/20/20 19/19/19 43/43/43 
f 16/16/16 19/19/19 20/20/20 
f 16/16/16 15/15/15 19/19/19 
f 12/12/12 15/15/15 16/16/16 
f 12/12/12 11/11/11 15/15/15 
f 8/8/8 11/11/11 12/12/12 
f 8/8/8 7/7/7 11/11/11 
f 62/62/62 63/63/63 61/61/61 
