v -0.403700 3.141500 0.361800
v -0.354500 2.321400 0.348800
v -0.403700 3.141500 -0.365600
v -0.354500 2.321400 -0.352900
v 0.000000 0.000000 -0.061000
v -0.070300 0.000000 0.000100
v 0.000000 2.648000 -0.044700
v -0.051600 2.648000 0.000000
v -0.366700 3.141500 -0.402800
v -0.354500 2.321400 -0.352900
v 0.356700 3.141500 -0.402800
v 0.346000 2.321400 -0.352900
v 0.356700 3.141500 0.397800
v 0.346000 2.321400 0.349000
v -0.366700 3.141500 0.397800
v -0.354500 2.321400 0.349000
v 0.070300 0.000000 0.000100
v 0.051600 2.648000 0.000000
v 0.400200 3.141500 -0.365600
v 0.346000 2.321400 -0.352900
v 0.400200 3.141500 0.361800
v 0.346000 2.321400 0.348800
v -0.406500 2.255500 0.364300
v -0.406500 3.143500 0.364300
v -0.406500 2.255500 -0.368100
v -0.406500 3.143500 -0.368100
v -0.369200 2.255500 -0.405600
v -0.369200 3.143500 -0.405600
v 0.359200 2.255500 -0.405600
v 0.359200 3.143500 -0.405600
v 0.359200 2.255500 0.400600
v 0.359200 3.143500 0.400600
v -0.369200 2.255500 0.400600
v -0.369200 3.143500 0.400600
v 0.403000 2.255500 -0.368100
v 0.403000 3.143500 -0.368100
v 0.403000 2.255500 0.364300
v 0.403000 3.143500 0.364300
vt 0.257800 0.476500
vt 0.257800 0.476500
vt 0.257800 0.476500
vt 0.257800 0.476500
vt 0.273400 0.992100
vt 0.273400 0.992100
vt 0.273400 0.992100
vt 0.273400 0.992100
vt 0.257800 0.492100
vt 0.257800 0.492100
vt 0.257800 0.492100
vt 0.257800 0.492100
vt 0.257800 0.992100
vt 0.257800 0.992100
vt 0.257800 0.992100
vt 0.257800 0.992100
vt 0.273400 0.992100
vt 0.273400 0.992100
vt 0.273400 0.476500
vt 0.273400 0.476500
vt 0.273400 0.476500
vt 0.273400 0.476500
vt 0.914300 0.005900
vt 0.923100 0.995400
vt 0.095700 0.005900
vt 0.080300 0.995400
vt 0.914300 0.005900
vt 0.923100 0.995400
vt 0.095700 0.005900
vt 0.080300 0.995400
vt 0.907600 0.005900
vt 0.923100 0.995400
vt 0.089100 0.005900
vt 0.080300 0.995400
vt 0.907600 0.005900
vt 0.923100 0.995400
vt 0.089100 0.005900
vt 0.080300 0.995400
vn 0.998205 0.059885 0.000000
vn 0.998205 0.059885 0.000000
vn 0.998205 0.059885 0.000000
vn 0.998205 0.059885 0.000000
vn 0.226521 0.005976 -0.973988
vn -0.984712 0.006997 0.174046
vn -0.332160 0.005785 -0.943205
vn -0.226524 0.001636 0.974004
vn 0.000000 0.060734 0.998154
vn 0.000000 0.060734 0.998154
vn 0.000000 0.060734 0.998154
vn 0.000000 0.060734 0.998154
vn 0.000000 0.059400 -0.998234
vn 0.000000 0.059400 -0.998234
vn 0.000000 0.059400 -0.998234
vn 0.000000 0.059400 -0.998234
vn 0.332165 0.002381 0.943218
vn 0.984713 0.006984 -0.174047
vn -0.997823 0.065946 0.000000
vn -0.997823 0.065946 0.000000
vn -0.997823 0.065946 0.000000
vn -0.997823 0.065946 0.000000
vn -1.000000 0.000000 0.000000
vn -1.000000 0.000000 0.000000
vn -1.000000 0.000000 0.000000
vn -1.000000 0.000000 0.000000
vn 0.000000 0.000000 -1.000000
vn 0.000000 0.000000 -1.000000
vn 0.000000 0.000000 -1.000000
vn 0.000000 0.000000 -1.000000
vn 0.000000 0.000000 1.000000
vn 0.000000 0.000000 1.000000
vn 0.000000 0.000000 1.000000
vn 0.000000 0.000000 1.000000
vn 1.000000 0.000000 0.000000
vn 1.000000 0.000000 0.000000
vn 1.000000 0.000000 0.000000
vn 1.000000 0.000000 0.000000
f 2/2/2 3/3/3 1/1/1 
f 4/4/4 3/3/3 2/2/2 
f 20/20/20 21/21/21 19/19/19 
f 22/22/22 21/21/21 20/20/20 
f 14/14/14 15/15/15 13/13/13 
f 16/16/16 15/15/15 14/14/14 
f 10/10/10 11/11/11 9/9/9 
f 12/12/12 11/11/11 10/10/10 
f 6/6/6 7/7/7 5/5/5 
f 6/6/6 7/7/7 6/6/6 
f 6/6/6 8/8/8 7/7/7 
f 17/17/17 8/8/8 6/6/6 
f 17/17/17 18/18/18 8/8/8 
f 5/5/5 18/18/18 17/17/17 
f 5/5/5 7/7/7 18/18/18 
f 24/24/24 25/25/25 23/23/23 
f 26/26/26 25/25/25 24/24/24 
f 36/36/36 37/37/37 35/35/35 
f 38/38/38 37/37/37 36/36/36 
f 32/32/32 33/33/33 31/31/31 
f 34/34/34 33/33/33 32/32/32 
f 28/28/28 29/29/29 27/27/27 
f 30/30/30 29/29/29 28/28/28 
