v -0.173100 0.337900 0.083300
v -0.202400 0.459500 0.071600
v -0.192700 0.339300 0.017000
v -0.218700 0.462100 0.017100
v -0.141100 0.476600 -0.007700
v -0.218700 0.462100 0.017100
v -0.124700 0.474000 0.046700
v -0.202400 0.459500 0.071600
v -0.159800 0.116300 0.017000
v -0.140200 0.120500 0.084500
v -0.107100 0.357600 -0.009000
v -0.192700 0.339300 0.017000
v -0.141100 0.476600 -0.007700
v -0.218700 0.462100 0.017100
v -0.104900 0.400000 0.015300
v -0.115800 0.391100 -0.053700
v -0.090500 0.101900 0.025600
v -0.104800 0.096400 -0.007300
v -0.101400 0.093000 -0.043300
v -0.173100 0.337900 0.083300
v -0.087400 0.356200 0.057300
v -0.202400 0.459500 0.071600
v -0.124700 0.474000 0.046700
v -0.026400 0.402100 -0.069100
v -0.012000 0.104000 -0.058800
v -0.115800 0.391100 -0.053700
v -0.035400 0.099800 -0.067500
v -0.081900 0.094100 -0.059400
v -0.101400 0.093000 -0.043300
v -0.159800 0.116300 0.017000
v -0.074200 0.134600 -0.009000
v -0.121600 0.550000 -0.014300
v -0.131100 0.546500 -0.074000
v -0.107100 0.357600 -0.009000
v -0.141100 0.476600 -0.007700
v -0.087400 0.356200 0.057300
v -0.124700 0.474000 0.046700
v -0.140200 0.120500 0.084500
v -0.054500 0.138800 0.058500
v -0.090500 0.101900 0.025600
v -0.067100 0.106100 0.034200
v -0.104900 0.400000 0.015300
v -0.015500 0.410900 -0.000100
v -0.001100 0.112800 0.010100
v -0.020600 0.111800 0.026200
v -0.045500 0.557000 -0.088800
v -0.131100 0.546500 -0.074000
v -0.036000 0.560500 -0.029100
v -0.121600 0.550000 -0.014300
v -0.074200 0.134600 -0.009000
v -0.054500 0.138800 0.058500
v -0.131100 0.546500 -0.074000
v -0.045500 0.557000 -0.088800
v -0.121600 0.550000 -0.014300
v -0.036000 0.560500 -0.029100
v -0.015500 0.410900 -0.000100
v -0.026400 0.402100 -0.069100
v -0.036000 0.560500 -0.029100
v -0.045500 0.557000 -0.088800
v -0.010100 0.329900 -0.009500
v -0.010500 0.064800 -0.014700
v -0.043200 0.324400 0.052600
v -0.043600 0.065900 0.047300
v -0.002500 0.457100 -0.009500
v -0.031300 0.444200 0.044400
v -0.012000 0.104000 -0.058800
v 0.002200 0.109500 -0.025800
v -0.001100 0.112800 0.010100
v 0.036900 0.063300 0.090300
v 0.037300 0.321500 0.095600
v -0.043600 0.065900 0.047300
v -0.043200 0.324400 0.052600
v -0.031300 0.444200 0.044400
v 0.045000 0.434400 0.085100
v 0.073700 0.442400 0.031100
v -0.002500 0.457100 -0.009500
v 0.045000 0.434400 0.085100
v -0.031300 0.444200 0.044400
v 0.070000 0.062200 0.028100
v -0.010500 0.064800 -0.014700
v 0.070400 0.327300 0.033400
v -0.010100 0.329900 -0.009500
v 0.071200 0.384100 -0.075400
v 0.024000 0.078500 -0.064300
v 0.036100 0.390700 -0.014700
v -0.008800 0.084800 -0.002300
v -0.002500 0.457100 -0.009500
v 0.073700 0.442400 0.031100
v -0.008800 0.084800 -0.002300
v 0.071700 0.082200 0.040600
v 0.036100 0.390700 -0.014700
v 0.114300 0.382800 0.031300
v 0.070400 0.327300 0.033400
v 0.037300 0.321500 0.095600
v 0.070000 0.062200 0.028100
v 0.036900 0.063300 0.090300
v 0.073700 0.442400 0.031100
v 0.045000 0.434400 0.085100
v 0.085100 0.589800 -0.041800
v 0.119000 0.583400 -0.095800
v 0.024000 0.078500 -0.064300
v 0.071200 0.384100 -0.075400
v 0.104600 0.075900 -0.021300
v 0.149400 0.376100 -0.029200
v 0.085100 0.589800 -0.041800
v 0.160200 0.576600 0.007000
v 0.071700 0.082200 0.040600
v 0.104600 0.075900 -0.021300
v 0.114300 0.382800 0.031300
v 0.149400 0.376100 -0.029200
v 0.119000 0.583400 -0.095800
v 0.194200 0.570200 -0.046900
v 0.160200 0.576600 0.007000
v 0.194200 0.570200 -0.046900
v 0.085100 0.589800 -0.041800
v 0.119000 0.583400 -0.095800
v 0.160200 0.576600 0.007000
v 0.194200 0.570200 -0.046900
v -0.213100 0.330900 0.011100
v -0.213100 0.324900 0.058300
v -0.175500 0.004100 -0.071100
v -0.175500 0.004100 0.092900
v -0.213100 0.324900 0.058300
v -0.213100 0.320100 0.105600
v -0.175500 0.004100 0.092900
v -0.175500 0.004100 -0.071100
v -0.213100 0.341500 -0.037800
v -0.213100 0.330900 0.011100
v -0.175500 0.004100 -0.071100
v -0.213100 0.355500 -0.088500
v -0.213100 0.341500 -0.037800
v -0.213100 0.320100 0.105600
v -0.144500 0.301100 0.105600
v -0.175500 0.004100 0.092900
v -0.144500 0.360700 -0.088500
v -0.213100 0.355500 -0.088500
v -0.175500 0.004100 -0.071100
v -0.175500 0.004100 0.092900
v -0.144500 0.301100 0.105600
v -0.076000 0.292700 0.105600
v -0.076000 0.363200 -0.088500
v -0.144500 0.360700 -0.088500
v -0.175500 0.004100 -0.071100
v 0.019500 0.363200 -0.088500
v -0.076000 0.363200 -0.088500
v 0.120100 0.004100 -0.071100
v -0.175500 0.004100 -0.071100
v -0.076000 0.292700 0.105600
v 0.019500 0.292700 0.105600
v -0.175500 0.004100 0.092900
v 0.120100 0.004100 0.092900
v 0.120100 0.004100 0.092900
v 0.120100 0.004100 -0.071100
v -0.175500 0.004100 0.092900
v -0.175500 0.004100 -0.071100
v 0.088000 0.301100 0.105600
v 0.120100 0.004100 0.092900
v 0.019500 0.292700 0.105600
v 0.120100 0.004100 -0.071100
v 0.088000 0.360700 -0.088500
v 0.019500 0.363200 -0.088500
v 0.120100 0.004100 0.092900
v 0.088000 0.301100 0.105600
v 0.156600 0.320100 0.105600
v 0.120100 0.004100 -0.071100
v 0.156600 0.355500 -0.088500
v 0.088000 0.360700 -0.088500
v 0.120100 0.004100 0.092900
v 0.156600 0.320100 0.105600
v 0.156600 0.324900 0.058300
v 0.156600 0.341500 -0.037800
v 0.120100 0.004100 -0.071100
v 0.156600 0.330900 0.011100
v 0.156600 0.341500 -0.037800
v 0.156600 0.355500 -0.088500
v 0.120100 0.004100 -0.071100
v 0.156600 0.330900 0.011100
v 0.120100 0.004100 -0.071100
v 0.156600 0.324900 0.058300
v 0.120100 0.004100 0.092900
v -0.213100 0.330900 0.011100
v -0.179000 0.000000 -0.072500
v -0.213100 0.324900 0.058300
v -0.179000 0.000000 0.094700
v -0.213100 0.324900 0.058300
v -0.179000 0.000000 0.094700
v -0.213100 0.320100 0.105600
v -0.179000 0.000000 -0.072500
v -0.213100 0.330900 0.011100
v -0.213100 0.341500 -0.037800
v -0.179000 0.000000 -0.072500
v -0.213100 0.341500 -0.037800
v -0.213100 0.355500 -0.088500
v -0.144500 0.360700 -0.088500
v -0.179000 0.000000 -0.072500
v -0.213100 0.355500 -0.088500
v -0.076000 0.363200 -0.088500
v -0.179000 0.000000 -0.072500
v -0.144500 0.360700 -0.088500
v -0.076000 0.363200 -0.088500
v 0.019500 0.363200 -0.088500
v -0.179000 0.000000 -0.072500
v 0.122500 0.000000 -0.072500
v 0.122500 0.000000 -0.072500
v 0.019500 0.363200 -0.088500
v 0.088000 0.360700 -0.088500
v 0.122500 0.000000 -0.072500
v 0.088000 0.360700 -0.088500
v 0.156600 0.355500 -0.088500
v 0.122500 0.000000 0.094700
v 0.156600 0.324900 0.058300
v 0.156600 0.320100 0.105600
v 0.156600 0.341500 -0.037800
v 0.156600 0.330900 0.011100
v 0.122500 0.000000 -0.072500
v 0.156600 0.341500 -0.037800
v 0.122500 0.000000 -0.072500
v 0.156600 0.355500 -0.088500
v 0.156600 0.330900 0.011100
v 0.156600 0.324900 0.058300
v 0.122500 0.000000 -0.072500
v 0.122500 0.000000 0.094700
v -0.213100 0.320100 0.105600
v -0.179000 0.000000 0.094700
v -0.144500 0.301100 0.105600
v -0.179000 0.000000 0.094700
v -0.076000 0.292700 0.105600
v -0.144500 0.301100 0.105600
v 0.019500 0.292700 0.105600
v -0.076000 0.292700 0.105600
v 0.122500 0.000000 0.094700
v -0.179000 0.000000 0.094700
v 0.088000 0.301100 0.105600
v 0.019500 0.292700 0.105600
v 0.122500 0.000000 0.094700
v 0.122500 0.000000 0.094700
v 0.156600 0.320100 0.105600
v 0.088000 0.301100 0.105600
vt 0.132800 0.289000
vt 0.132800 0.289000
vt 0.132800 0.289000
vt 0.132800 0.289000
vt 0.132800 0.804600
vt 0.132800 0.804600
vt 0.132800 0.804600
vt 0.132800 0.804600
vt 0.132800 0.289000
vt 0.132800 0.289000
vt 0.148400 0.304600
vt 0.148400 0.304600
vt 0.148400 0.304600
vt 0.148400 0.304600
vt 0.148400 0.789000
vt 0.148400 0.789000
vt 0.148400 0.789000
vt 0.148400 0.789000
vt 0.148400 0.789000
vt 0.132800 0.304600
vt 0.132800 0.304600
vt 0.132800 0.304600
vt 0.132800 0.304600
vt 0.132800 0.789000
vt 0.132800 0.789000
vt 0.132800 0.789000
vt 0.132800 0.789000
vt 0.132800 0.789000
vt 0.132800 0.789000
vt 0.148400 0.304600
vt 0.148400 0.304600
vt 0.148400 0.789000
vt 0.148400 0.789000
vt 0.148400 0.289000
vt 0.148400 0.289000
vt 0.148400 0.289000
vt 0.148400 0.289000
vt 0.132800 0.304600
vt 0.132800 0.304600
vt 0.148400 0.804600
vt 0.148400 0.804600
vt 0.148400 0.804600
vt 0.148400 0.804600
vt 0.148400 0.804600
vt 0.148400 0.804600
vt 0.148400 0.304600
vt 0.148400 0.304600
vt 0.148400 0.304600
vt 0.148400 0.304600
vt 0.148400 0.289000
vt 0.148400 0.289000
vt 0.132800 0.789000
vt 0.132800 0.789000
vt 0.148400 0.804600
vt 0.148400 0.804600
vt 0.132800 0.304600
vt 0.132800 0.304600
vt 0.132800 0.304600
vt 0.132800 0.304600
vt 0.132800 0.804600
vt 0.132800 0.804600
vt 0.132800 0.804600
vt 0.132800 0.804600
vt 0.132800 0.804600
vt 0.132800 0.804600
vt 0.132800 0.304600
vt 0.132800 0.304600
vt 0.132800 0.304600
vt 0.132800 0.289000
vt 0.132800 0.289000
vt 0.132800 0.289000
vt 0.132800 0.289000
vt 0.132800 0.289000
vt 0.132800 0.289000
vt 0.148400 0.804600
vt 0.148400 0.804600
vt 0.148400 0.804600
vt 0.148400 0.804600
vt 0.148400 0.289000
vt 0.148400 0.289000
vt 0.148400 0.289000
vt 0.148400 0.289000
vt 0.257800 0.289000
vt 0.257800 0.289000
vt 0.257800 0.289000
vt 0.257800 0.289000
vt 0.148400 0.289000
vt 0.148400 0.289000
vt 0.257800 0.304600
vt 0.257800 0.304600
vt 0.257800 0.304600
vt 0.257800 0.304600
vt 0.132800 0.789000
vt 0.132800 0.789000
vt 0.132800 0.789000
vt 0.132800 0.789000
vt 0.132800 0.789000
vt 0.132800 0.789000
vt 0.257800 0.289000
vt 0.257800 0.289000
vt 0.273400 0.304600
vt 0.273400 0.304600
vt 0.273400 0.304600
vt 0.273400 0.304600
vt 0.257800 0.304600
vt 0.257800 0.304600
vt 0.273400 0.289000
vt 0.273400 0.289000
vt 0.273400 0.289000
vt 0.273400 0.289000
vt 0.273400 0.304600
vt 0.273400 0.304600
vt 0.257800 0.804600
vt 0.257800 0.804600
vt 0.257800 0.804600
vt 0.257800 0.804600
vt 0.273400 0.289000
vt 0.273400 0.289000
vt 0.195300 0.039000
vt 0.195300 0.039000
vt 0.195300 0.039000
vt 0.195300 0.039000
vt 0.195300 0.039000
vt 0.195300 0.039000
vt 0.195300 0.039000
vt 0.195300 0.039000
vt 0.195300 0.039000
vt 0.195300 0.039000
vt 0.195300 0.039000
vt 0.195300 0.039000
vt 0.195300 0.039000
vt 0.195300 0.054600
vt 0.195300 0.054600
vt 0.195300 0.054600
vt 0.210900 0.039000
vt 0.210900 0.039000
vt 0.210900 0.039000
vt 0.195300 0.054600
vt 0.195300 0.054600
vt 0.195300 0.054600
vt 0.210900 0.039000
vt 0.210900 0.039000
vt 0.210900 0.039000
vt 0.210900 0.039000
vt 0.210900 0.039000
vt 0.210900 0.039000
vt 0.210900 0.039000
vt 0.195300 0.054600
vt 0.195300 0.054600
vt 0.195300 0.054600
vt 0.195300 0.054600
vt 0.195300 0.054600
vt 0.195300 0.054600
vt 0.195300 0.054600
vt 0.195300 0.054600
vt 0.195300 0.054600
vt 0.195300 0.054600
vt 0.195300 0.054600
vt 0.210900 0.039000
vt 0.210900 0.039000
vt 0.210900 0.039000
vt 0.195300 0.054600
vt 0.195300 0.054600
vt 0.195300 0.054600
vt 0.210900 0.039000
vt 0.210900 0.039000
vt 0.210900 0.039000
vt 0.195300 0.039000
vt 0.195300 0.039000
vt 0.195300 0.039000
vt 0.195300 0.039000
vt 0.195300 0.039000
vt 0.195300 0.039000
vt 0.195300 0.039000
vt 0.195300 0.039000
vt 0.195300 0.039000
vt 0.195300 0.039000
vt 0.195300 0.039000
vt 0.195300 0.039000
vt 0.195300 0.039000
vt 0.289000 0.039000
vt 0.289000 0.039000
vt 0.289000 0.039000
vt 0.289000 0.039000
vt 0.289000 0.039000
vt 0.289000 0.039000
vt 0.289000 0.039000
vt 0.289000 0.039000
vt 0.289000 0.039000
vt 0.289000 0.039000
vt 0.289000 0.039000
vt 0.289000 0.039000
vt 0.289000 0.039000
vt 0.304600 0.039000
vt 0.304600 0.039000
vt 0.304600 0.039000
vt 0.304600 0.039000
vt 0.304600 0.039000
vt 0.304600 0.039000
vt 0.304600 0.039000
vt 0.304600 0.039000
vt 0.304600 0.039000
vt 0.304600 0.039000
vt 0.304600 0.039000
vt 0.304600 0.039000
vt 0.304600 0.039000
vt 0.304600 0.039000
vt 0.304600 0.039000
vt 0.304600 0.039000
vt 0.289000 0.039000
vt 0.289000 0.039000
vt 0.289000 0.039000
vt 0.289000 0.039000
vt 0.289000 0.039000
vt 0.289000 0.039000
vt 0.289000 0.039000
vt 0.289000 0.039000
vt 0.289000 0.039000
vt 0.289000 0.039000
vt 0.289000 0.039000
vt 0.289000 0.039000
vt 0.289000 0.039000
vt 0.013500 0.991200
vt 0.064000 0.028500
vt 0.163600 0.992400
vt 0.064000 0.028500
vt 0.361700 0.967000
vt 0.163600 0.992400
vt 0.638200 0.967000
vt 0.361700 0.967000
vt 0.935900 0.028500
vt 0.064000 0.028500
vt 0.836300 0.992400
vt 0.638200 0.967000
vt 0.935900 0.028500
vt 0.935900 0.028500
vt 0.986400 0.991200
vt 0.836300 0.992400
vn -0.947702 -0.153910 0.279593
vn -0.940995 -0.199959 0.273029
vn -0.946069 -0.170259 0.275620
vn -0.941374 -0.199535 0.272030
vn -0.153944 0.983653 0.093422
vn -0.153871 0.983688 0.093175
vn -0.153871 0.983688 0.093175
vn -0.153798 0.983723 0.092928
vn -0.949265 -0.141064 0.281063
vn -0.948213 -0.141928 0.284164
vn -0.280216 -0.051170 -0.958572
vn -0.283067 -0.049735 -0.957810
vn -0.284629 -0.065090 -0.956425
vn -0.293427 -0.061349 -0.954011
vn -0.985221 -0.053901 0.162589
vn -0.986049 -0.043141 0.160768
vn -0.969984 -0.018369 0.242474
vn -0.987404 -0.012017 0.157760
vn -0.994707 -0.051159 -0.089113
vn 0.275585 0.071396 0.958622
vn 0.272291 0.107289 0.956215
vn 0.263708 0.161939 0.950912
vn 0.271553 0.171205 0.947073
vn -0.158010 -0.093399 -0.983010
vn -0.058818 -0.003532 -0.998263
vn -0.165520 -0.037975 -0.985475
vn 0.001802 0.047817 -0.998854
vn -0.342267 -0.021039 -0.939367
vn -0.633691 -0.057525 -0.771444
vn -0.282216 -0.041636 -0.958447
vn -0.282216 -0.041636 -0.958447
vn -0.983620 -0.076387 0.163271
vn -0.984030 -0.075847 0.161034
vn 0.943002 0.185515 -0.276281
vn 0.925392 0.268113 -0.267889
vn 0.942860 0.183530 -0.278086
vn 0.925592 0.269127 -0.266176
vn 0.280633 0.047761 0.958626
vn 0.280633 0.047761 0.958626
vn -0.347388 0.015615 0.937592
vn -0.017339 0.061944 0.997929
vn 0.157311 0.101213 0.982349
vn 0.153693 0.125186 0.980157
vn 0.268921 0.079815 0.959850
vn 0.328231 0.131387 0.935415
vn -0.128086 0.991045 -0.037720
vn -0.128087 0.991045 -0.037719
vn -0.128087 0.991045 -0.037719
vn -0.128087 0.991045 -0.037719
vn 0.948887 0.141003 -0.282369
vn 0.947835 0.141864 -0.285454
vn -0.151245 -0.142854 -0.978119
vn -0.151551 -0.143073 -0.978040
vn 0.141748 0.206941 0.968030
vn 0.141956 0.207093 0.967967
vn 0.984566 0.062435 -0.163496
vn 0.983919 0.071386 -0.163731
vn 0.981062 0.101169 -0.165175
vn 0.981651 0.100428 -0.162097
vn -0.883809 0.030882 -0.466828
vn -0.882421 0.010780 -0.470337
vn -0.882690 0.019127 -0.469565
vn -0.882021 0.011023 -0.471081
vn -0.885964 0.052935 -0.460722
vn -0.884500 0.054446 -0.463351
vn 0.916288 0.030463 -0.399359
vn 0.983714 0.071766 -0.164790
vn 0.994693 0.065201 -0.079586
vn -0.471522 -0.017368 0.881683
vn -0.469169 0.021605 0.882844
vn -0.471547 -0.017357 0.881670
vn -0.470424 0.022058 0.882165
vn -0.461149 0.109602 0.880527
vn -0.456265 0.113204 0.882614
vn 0.086848 0.977739 0.191009
vn 0.043632 0.976220 0.212343
vn 0.043632 0.976220 0.212343
vn 0.000587 0.972463 0.233055
vn 0.469808 0.016937 -0.882606
vn 0.470232 0.016765 -0.882383
vn 0.470144 0.008225 -0.882551
vn 0.469307 -0.005108 -0.883020
vn -0.847176 0.129533 -0.515280
vn -0.864513 0.111372 -0.490115
vn -0.861120 0.118577 -0.494381
vn -0.874026 0.109097 -0.473473
vn 0.465858 -0.027834 -0.884422
vn 0.467532 -0.029419 -0.883487
vn -0.465142 0.103910 0.879116
vn -0.481169 0.100576 0.870839
vn -0.480570 0.134069 0.866648
vn -0.493710 0.172528 0.852340
vn 0.883193 -0.012294 0.468848
vn 0.883102 -0.012440 0.469016
vn 0.882903 -0.010859 0.469430
vn 0.882650 -0.011013 0.469901
vn 0.883585 -0.016356 0.467985
vn 0.883937 -0.016826 0.467303
vn -0.841007 0.142101 -0.522030
vn -0.830330 0.144043 -0.538334
vn 0.465549 -0.103828 -0.878911
vn 0.482754 -0.126391 -0.866587
vn 0.482151 -0.100518 -0.870303
vn 0.498116 -0.155337 -0.853083
vn -0.489146 0.228273 0.841800
vn -0.503083 0.223818 0.834753
vn 0.873117 -0.109035 0.475161
vn 0.863623 -0.111559 0.491639
vn 0.860367 -0.117991 0.495829
vn 0.846456 -0.128391 0.516747
vn 0.496420 -0.198690 -0.845038
vn 0.510575 -0.194227 -0.837609
vn 0.176569 0.984273 -0.005491
vn 0.176562 0.984273 -0.005655
vn 0.176562 0.984273 -0.005655
vn 0.176554 0.984274 -0.005818
vn 0.840398 -0.139808 0.523627
vn 0.829486 -0.142199 0.540122
vn 0.993744 0.110793 0.014084
vn 0.993348 0.115108 0.003270
vn 0.993348 0.115108 0.003270
vn 0.993201 0.116410 0.000000
vn 0.992981 0.117672 0.011941
vn 0.992981 0.117672 0.011941
vn 0.992981 0.117672 0.011941
vn 0.993826 0.108433 0.023505
vn 0.993826 0.108433 0.023505
vn 0.993826 0.108433 0.023505
vn 0.993726 0.107803 0.029768
vn 0.993726 0.107803 0.029768
vn 0.993726 0.107803 0.029768
vn 0.011500 0.041521 -0.999071
vn 0.011500 0.041521 -0.999071
vn 0.011500 0.041521 -0.999071
vn -0.003719 0.049058 0.998789
vn -0.003719 0.049058 0.998789
vn -0.003719 0.049058 0.998789
vn 0.005173 0.042182 -0.999097
vn 0.005173 0.042182 -0.999097
vn 0.005173 0.042182 -0.999097
vn -0.001784 0.048891 0.998803
vn -0.001784 0.048891 0.998803
vn -0.001784 0.048891 0.998803
vn 0.000000 0.048398 0.998828
vn 0.000000 0.048398 0.998828
vn 0.000000 0.048398 0.998828
vn 0.000000 0.048398 0.998828
vn 0.000000 0.043963 -0.999033
vn 0.000000 0.043963 -0.999033
vn 0.000000 0.043963 -0.999033
vn 0.000000 0.043963 -0.999033
vn 0.000000 1.000000 0.000000
vn 0.000000 1.000000 0.000000
vn 0.000000 1.000000 0.000000
vn 0.000000 1.000000 0.000000
vn -0.005170 0.042164 -0.999097
vn -0.005170 0.042164 -0.999097
vn -0.005170 0.042164 -0.999097
vn 0.001785 0.048896 0.998802
vn 0.001785 0.048896 0.998802
vn 0.001785 0.048896 0.998802
vn -0.011489 0.041480 -0.999073
vn -0.011489 0.041480 -0.999073
vn -0.011489 0.041480 -0.999073
vn 0.003720 0.049070 0.998788
vn 0.003720 0.049070 0.998788
vn 0.003720 0.049070 0.998788
vn -0.993381 0.114276 0.011597
vn -0.993381 0.114276 0.011597
vn -0.993381 0.114276 0.011597
vn -0.994179 0.105298 0.022825
vn -0.994179 0.105298 0.022825
vn -0.994179 0.105298 0.022825
vn -0.994085 0.104687 0.028908
vn -0.994085 0.104687 0.028908
vn -0.994085 0.104687 0.028908
vn -0.994101 0.107590 0.013677
vn -0.993727 0.111783 0.003176
vn -0.993727 0.111783 0.003176
vn -0.993589 0.113049 0.000000
vn -0.994973 -0.099344 -0.012628
vn -0.994653 -0.103231 -0.002889
vn -0.994653 -0.103231 -0.002889
vn -0.994537 -0.104382 0.000000
vn -0.994355 -0.105563 -0.010713
vn -0.994355 -0.105563 -0.010713
vn -0.994355 -0.105563 -0.010713
vn -0.995040 -0.097217 -0.021074
vn -0.995040 -0.097217 -0.021074
vn -0.995040 -0.097217 -0.021074
vn -0.994962 -0.096639 -0.026685
vn -0.994962 -0.096639 -0.026685
vn -0.994962 -0.096639 -0.026685
vn 0.003384 -0.044637 -0.998998
vn 0.003384 -0.044637 -0.998998
vn 0.003384 -0.044637 -0.998998
vn 0.001623 -0.044469 -0.999009
vn 0.001623 -0.044469 -0.999009
vn 0.001623 -0.044469 -0.999009
vn 0.000000 -0.044010 -0.999031
vn 0.000000 -0.044010 -0.999031
vn 0.000000 -0.044010 -0.999031
vn 0.000000 -0.044010 -0.999031
vn -0.001623 -0.044469 -0.999009
vn -0.001623 -0.044469 -0.999009
vn -0.001623 -0.044469 -0.999009
vn -0.003384 -0.044637 -0.998998
vn -0.003384 -0.044637 -0.998998
vn -0.003384 -0.044637 -0.998998
vn 0.994355 -0.105563 -0.010713
vn 0.994355 -0.105563 -0.010713
vn 0.994355 -0.105563 -0.010713
vn 0.995040 -0.097217 -0.021074
vn 0.995040 -0.097217 -0.021074
vn 0.995040 -0.097217 -0.021074
vn 0.994962 -0.096639 -0.026685
vn 0.994962 -0.096639 -0.026685
vn 0.994962 -0.096639 -0.026685
vn 0.994973 -0.099344 -0.012628
vn 0.994653 -0.103231 -0.002889
vn 0.994653 -0.103231 -0.002889
vn 0.994537 -0.104382 0.000000
vn -0.009712 -0.035064 0.999338
vn -0.009712 -0.035064 0.999338
vn -0.009712 -0.035064 0.999338
vn -0.004375 -0.035676 0.999354
vn -0.004375 -0.035676 0.999354
vn -0.004375 -0.035676 0.999354
vn 0.000000 -0.037214 0.999307
vn 0.000000 -0.037214 0.999307
vn 0.000000 -0.037214 0.999307
vn 0.000000 -0.037214 0.999307
vn 0.004375 -0.035676 0.999354
vn 0.004375 -0.035676 0.999354
vn 0.004375 -0.035676 0.999354
vn 0.009712 -0.035064 0.999338
vn 0.009712 -0.035064 0.999338
vn 0.009712 -0.035064 0.999338
f 124/124/124 125/125/125 123/123/123 
f 98/98/98 97/97/97 98/98/98 
f 94/94/94 97/97/97 98/98/98 
f 94/94/94 93/93/93 97/97/97 
f 94/94/94 93/93/93 94/94/94 
f 94/94/94 95/95/95 93/93/93 
f 96/96/96 95/95/95 94/94/94 
f 6/6/6 7/7/7 5/5/5 
f 8/8/8 7/7/7 6/6/6 
f 220/220/220 221/221/221 219/219/219 
f 222/222/222 221/221/221 220/220/220 
f 217/217/217 218/218/218 216/216/216 
f 86/86/86 84/84/84 86/86/86 
f 85/85/85 84/84/84 86/86/86 
f 85/85/85 83/83/83 84/84/84 
f 99/99/99 83/83/83 85/85/85 
f 99/99/99 100/100/100 83/83/83 
f 64/64/64 65/65/65 64/64/64 
f 60/60/60 65/65/65 64/64/64 
f 60/60/60 62/62/62 65/65/65 
f 61/61/61 62/62/62 60/60/60 
f 61/61/61 62/62/62 62/62/62 
f 63/63/63 62/62/62 61/61/61 
f 214/214/214 215/215/215 213/213/213 
f 37/37/37 35/35/35 37/37/37 
f 36/36/36 35/35/35 37/37/37 
f 36/36/36 34/34/34 35/35/35 
f 36/36/36 34/34/34 36/36/36 
f 36/36/36 50/50/50 34/34/34 
f 51/51/51 50/50/50 36/36/36 
f 211/211/211 212/212/212 210/210/210 
f 29/29/29 28/28/28 29/29/29 
f 26/26/26 28/28/28 29/29/29 
f 26/26/26 27/27/27 28/28/28 
f 26/26/26 27/27/27 26/26/26 
f 26/26/26 25/25/25 27/27/27 
f 26/26/26 25/25/25 26/26/26 
f 26/26/26 24/24/24 25/25/25 
f 52/52/52 24/24/24 26/26/26 
f 52/52/52 53/53/53 24/24/24 
f 33/33/33 32/32/32 33/33/33 
f 16/16/16 32/32/32 33/33/33 
f 16/16/16 15/15/15 32/32/32 
f 16/16/16 15/15/15 16/16/16 
f 16/16/16 17/17/17 15/15/15 
f 16/16/16 17/17/17 16/16/16 
f 16/16/16 18/18/18 17/17/17 
f 19/19/19 18/18/18 16/16/16 
f 208/208/208 209/209/209 207/207/207 
f 30/30/30 31/31/31 30/30/30 
f 12/12/12 31/31/31 30/30/30 
f 12/12/12 11/11/11 31/31/31 
f 12/12/12 11/11/11 12/12/12 
f 12/12/12 13/13/13 11/11/11 
f 14/14/14 13/13/13 12/12/12 
f 205/205/205 206/206/206 204/204/204 
f 4/4/4 2/2/2 4/4/4 
f 3/3/3 2/2/2 4/4/4 
f 3/3/3 1/1/1 2/2/2 
f 9/9/9 1/1/1 3/3/3 
f 9/9/9 1/1/1 1/1/1 
f 10/10/10 1/1/1 9/9/9 
f 201/201/201 202/202/202 200/200/200 
f 203/203/203 202/202/202 201/201/201 
f 198/198/198 199/199/199 197/197/197 
f 41/41/41 42/42/42 40/40/40 
f 45/45/45 42/42/42 41/41/41 
f 45/45/45 42/42/42 42/42/42 
f 44/44/44 42/42/42 45/45/45 
f 44/44/44 42/42/42 42/42/42 
f 43/43/43 42/42/42 44/44/44 
f 43/43/43 54/54/54 42/42/42 
f 55/55/55 54/54/54 43/43/43 
f 39/39/39 20/20/20 38/38/38 
f 21/21/21 20/20/20 39/39/39 
f 21/21/21 22/22/22 20/20/20 
f 23/23/23 22/22/22 21/21/21 
f 57/57/57 67/67/67 66/66/66 
f 57/57/57 67/67/67 57/57/57 
f 57/57/57 68/68/68 67/67/67 
f 57/57/57 68/68/68 57/57/57 
f 57/57/57 56/56/56 68/68/68 
f 57/57/57 56/56/56 57/57/57 
f 57/57/57 58/58/58 56/56/56 
f 59/59/59 58/58/58 57/57/57 
f 70/70/70 71/71/71 69/69/69 
f 70/70/70 71/71/71 70/70/70 
f 70/70/70 72/72/72 71/71/71 
f 70/70/70 72/72/72 70/70/70 
f 70/70/70 73/73/73 72/72/72 
f 74/74/74 73/73/73 70/70/70 
f 80/80/80 81/81/81 79/79/79 
f 82/82/82 81/81/81 80/80/80 
f 82/82/82 88/88/88 81/81/81 
f 87/87/87 88/88/88 82/82/82 
f 90/90/90 91/91/91 89/89/89 
f 92/92/92 91/91/91 90/90/90 
f 92/92/92 105/105/105 91/91/91 
f 106/106/106 105/105/105 92/92/92 
f 102/102/102 103/103/103 101/101/101 
f 102/102/102 103/103/103 102/102/102 
f 102/102/102 104/104/104 103/103/103 
f 111/111/111 104/104/104 102/102/102 
f 111/111/111 112/112/112 104/104/104 
f 195/195/195 196/196/196 194/194/194 
f 108/108/108 109/109/109 107/107/107 
f 110/110/110 109/109/109 108/108/108 
f 110/110/110 117/117/117 109/109/109 
f 118/118/118 117/117/117 110/110/110 
f 47/47/47 48/48/48 46/46/46 
f 49/49/49 48/48/48 47/47/47 
f 76/76/76 77/77/77 75/75/75 
f 78/78/78 77/77/77 76/76/76 
f 114/114/114 115/115/115 113/113/113 
f 116/116/116 115/115/115 114/114/114 
f 120/120/120 121/121/121 119/119/119 
f 122/122/122 121/121/121 120/120/120 
f 145/145/145 146/146/146 144/144/144 
f 147/147/147 146/146/146 145/145/145 
f 149/149/149 150/150/150 148/148/148 
f 151/151/151 150/150/150 149/149/149 
f 153/153/153 154/154/154 152/152/152 
f 155/155/155 154/154/154 153/153/153 
f 127/127/127 128/128/128 126/126/126 
f 192/192/192 193/193/193 191/191/191 
f 130/130/130 131/131/131 129/129/129 
f 189/189/189 190/190/190 188/188/188 
f 133/133/133 134/134/134 132/132/132 
f 186/186/186 187/187/187 185/185/185 
f 136/136/136 137/137/137 135/135/135 
f 182/182/182 183/183/183 181/181/181 
f 184/184/184 183/183/183 182/182/182 
f 178/178/178 179/179/179 177/177/177 
f 180/180/180 179/179/179 178/178/178 
f 175/175/175 176/176/176 174/174/174 
f 139/139/139 140/140/140 138/138/138 
f 172/172/172 173/173/173 171/171/171 
f 142/142/142 143/143/143 141/141/141 
f 169/169/169 170/170/170 168/168/168 
f 157/157/157 158/158/158 156/156/156 
f 166/166/166 167/167/167 165/165/165 
f 160/160/160 161/161/161 159/159/159 
f 163/163/163 164/164/164 162/162/162 
f 224/224/224 225/225/225 223/223/223 
f 230/230/230 231/231/231 229/229/229 
f 232/232/232 231/231/231 230/230/230 
f 227/227/227 228/228/228 226/226/226 
f 237/237/237 238/238/238 236/236/236 
f 234/234/234 235/235/235 233/233/233 
