v 0.136000 0.820700 -0.130400
v 0.188400 0.820700 0.001900
v 0.215900 0.956900 -0.085500
v 0.057500 0.648000 -0.048500
v 0.075200 0.648000 -0.004000
v 0.123400 0.801700 -0.126800
v 0.176800 0.801700 0.007900
v 0.188400 0.796100 0.003900
v 0.131800 0.796100 0.134500
v 0.213100 0.936100 0.092200
v 0.075000 0.648000 0.006300
v 0.056000 0.648000 0.050300
v 0.177400 0.776500 -0.003400
v 0.118900 0.776500 0.131600
v 0.130400 0.820700 0.136000
v -0.001900 0.820700 0.188400
v 0.085500 0.956900 0.215900
v 0.048500 0.648000 0.057500
v 0.004000 0.648000 0.075200
v 0.127600 0.801700 0.123100
v -0.008600 0.801700 0.177100
v 0.002800 0.776500 0.177200
v -0.131100 0.776500 0.119200
v -0.003900 0.796100 0.188400
v -0.134500 0.796100 0.131800
v -0.006300 0.648000 0.075000
v -0.050300 0.648000 0.056000
v -0.092200 0.936100 0.213100
v -0.123200 0.801700 0.127300
v -0.177000 0.801700 -0.008300
v -0.136000 0.820700 0.130400
v -0.188400 0.820700 -0.001900
v -0.057500 0.648000 0.048500
v -0.075200 0.648000 0.004000
v -0.215900 0.956900 0.085500
v -0.131800 0.796100 -0.134500
v -0.188400 0.796100 -0.003900
v -0.120000 0.776500 -0.129300
v -0.176400 0.776500 0.001000
v -0.056000 0.648000 -0.050300
v -0.075000 0.648000 -0.006300
v -0.213100 0.936100 -0.092200
v -0.127600 0.801700 -0.123100
v 0.008700 0.801700 -0.177100
v -0.130400 0.820700 -0.136000
v 0.001900 0.820700 -0.188400
v -0.048500 0.648000 -0.057500
v -0.004000 0.648000 -0.075200
v -0.085500 0.956900 -0.215900
v 0.003900 0.796100 -0.188400
v 0.134500 0.796100 -0.131800
v 0.092200 0.936100 -0.213100
v 0.006300 0.648000 -0.075000
v 0.050300 0.648000 -0.056000
v -0.002900 0.776500 -0.177200
v 0.131100 0.776500 -0.119200
v 0.062100 0.647300 -0.052300
v 0.081100 0.647300 -0.004300
v 0.204900 0.769400 -0.213100
v 0.295200 0.769400 0.015000
v 0.232300 0.788900 -0.222700
v 0.321800 0.788900 0.003200
v 0.397300 0.912400 -0.157300
v 0.080900 0.647300 0.006800
v 0.060400 0.647300 0.054200
v 0.296400 0.746900 -0.007700
v 0.197300 0.746900 0.221400
v 0.321700 0.766400 0.006700
v 0.225200 0.766400 0.229800
v 0.392200 0.893600 0.169600
v 0.052300 0.647300 0.062100
v 0.004300 0.647300 0.081100
v 0.213600 0.769400 0.204700
v -0.015500 0.769400 0.295400
v 0.222700 0.788900 0.232300
v -0.003200 0.788900 0.321800
v 0.157300 0.912400 0.397300
v 0.006500 0.746900 0.295900
v -0.220200 0.746900 0.197800
v -0.006700 0.766400 0.321700
v -0.229800 0.766400 0.225200
v -0.169600 0.893600 0.392200
v -0.006800 0.647300 0.080900
v -0.054200 0.647300 0.060400
v -0.205100 0.769400 0.212500
v -0.295000 0.769400 -0.014300
v -0.232300 0.788900 0.222700
v -0.321800 0.788900 -0.003200
v -0.397300 0.912400 0.157300
v -0.062100 0.647300 0.052300
v -0.081100 0.647300 0.004300
v -0.296900 0.746900 0.008800
v -0.196800 0.746900 -0.222400
v -0.321700 0.766400 -0.006700
v -0.225200 0.766400 -0.229800
v -0.392200 0.893600 -0.169600
v -0.080900 0.647300 -0.006800
v -0.060400 0.647300 -0.054200
v -0.212600 0.769400 -0.205100
v 0.014500 0.769400 -0.295000
v -0.222700 0.788900 -0.232300
v 0.003200 0.788900 -0.321800
v -0.157300 0.912400 -0.397300
v -0.052300 0.647300 -0.062100
v -0.004300 0.647300 -0.081100
v 0.006800 0.647300 -0.080900
v 0.054200 0.647300 -0.060400
v -0.005000 0.746900 -0.295200
v 0.218600 0.746900 -0.198400
v 0.006700 0.766400 -0.321700
v 0.229800 0.766400 -0.225200
v 0.169600 0.893600 -0.392200
v 0.034200 0.643000 -0.068800
v 0.068800 0.643000 -0.034200
v 0.113800 0.700400 -0.319000
v 0.319000 0.700400 -0.113800
v 0.141900 0.713500 -0.337500
v 0.337500 0.713500 -0.141900
v 0.343800 0.805300 -0.343800
v 0.072900 0.643000 -0.024400
v 0.072900 0.643000 0.024400
v 0.306100 0.675500 -0.145100
v 0.306100 0.675500 0.145100
v 0.339100 0.688500 -0.138300
v 0.339100 0.688500 0.138300
v 0.486200 0.784600 0.000000
v 0.068800 0.643000 0.034200
v 0.034200 0.643000 0.068800
v 0.319000 0.700400 0.113800
v 0.113800 0.700400 0.319000
v 0.337500 0.713500 0.141900
v 0.141900 0.713500 0.337500
v 0.343800 0.805300 0.343800
v 0.138300 0.688500 0.339100
v -0.138300 0.688500 0.339100
v 0.000000 0.784600 0.486200
v 0.024400 0.643000 0.072900
v -0.024400 0.643000 0.072900
v 0.145100 0.675500 0.306100
v -0.145100 0.675500 0.306100
v -0.113800 0.700400 0.319000
v -0.319000 0.700400 0.113800
v -0.141900 0.713500 0.337500
v -0.337500 0.713500 0.141900
v -0.343800 0.805300 0.343800
v -0.034200 0.643000 0.068800
v -0.068800 0.643000 0.034200
v -0.306100 0.675500 0.145100
v -0.306100 0.675500 -0.145100
v -0.339100 0.688500 0.138300
v -0.339100 0.688500 -0.138300
v -0.486200 0.784600 0.000000
v -0.072900 0.643000 0.024400
v -0.072900 0.643000 -0.024400
v -0.319000 0.700400 -0.113800
v -0.113800 0.700400 -0.319000
v -0.337500 0.713500 -0.141900
v -0.141900 0.713500 -0.337500
v -0.343800 0.805300 -0.343800
v -0.068800 0.643000 -0.034200
v -0.034200 0.643000 -0.068800
v -0.138300 0.688500 -0.339100
v 0.138300 0.688500 -0.339100
v 0.000000 0.784600 -0.486200
v -0.024400 0.643000 -0.072900
v 0.024400 0.643000 -0.072900
v -0.145100 0.675500 -0.306100
v 0.145100 0.675500 -0.306100
v -0.072900 0.646100 -0.042100
v -0.084200 0.646100 0.000000
v -0.044400 0.679000 -0.025600
v -0.047800 0.679000 0.012800
v -0.042100 0.646100 0.072900
v -0.025600 0.679000 0.044400
v -0.072900 0.646100 0.042100
v -0.042100 0.646100 -0.072900
v -0.012800 0.679000 -0.047800
v 0.000000 0.694700 0.000000
v 0.000000 0.646100 0.084200
v 0.012800 0.679000 0.047800
v 0.000000 0.646100 -0.084200
v 0.025600 0.679000 -0.044400
v 0.042100 0.646100 0.072900
v 0.044400 0.679000 0.025600
v 0.042100 0.646100 -0.072900
v 0.047800 0.679000 -0.012800
v 0.084200 0.646100 0.000000
v 0.072900 0.646100 -0.042100
v 0.072900 0.646100 0.042100
vt 0.605600 0.996700
vt 0.605600 -0.002200
vt 1.015000 0.508400
vt 0.000100 0.674300
vt 0.000100 0.372700
vt 0.486200 1.006900
vt 0.486200 0.006600
vt 0.605600 0.996700
vt 0.605600 -0.002200
vt 1.015000 0.508400
vt 0.000100 0.674300
vt 0.000100 0.372700
vt 0.486200 1.006900
vt 0.486200 0.006600
vt 0.605600 0.996700
vt 0.605600 -0.002200
vt 1.015000 0.508400
vt 0.000100 0.674300
vt 0.000100 0.372700
vt 0.486200 1.006900
vt 0.486200 0.006600
vt 0.486200 1.006900
vt 0.486200 0.006600
vt 0.605600 0.996700
vt 0.605600 -0.002200
vt 0.000100 0.674300
vt 0.000100 0.372700
vt 1.015000 0.508400
vt 0.486200 1.006900
vt 0.486200 0.006600
vt 0.605600 0.996700
vt 0.605600 -0.002200
vt 0.000100 0.674300
vt 0.000100 0.372700
vt 1.015000 0.508400
vt 0.605600 -0.002200
vt 0.605600 0.996700
vt 0.486200 0.006600
vt 0.486200 1.006900
vt 0.000100 0.372700
vt 0.000100 0.674300
vt 1.015000 0.508400
vt 0.486200 1.006900
vt 0.486200 0.006600
vt 0.605600 0.996700
vt 0.605600 -0.002200
vt 0.000100 0.674300
vt 0.000100 0.372700
vt 1.015000 0.508400
vt 0.605600 0.996700
vt 0.605600 -0.002200
vt 1.015000 0.508400
vt 0.000100 0.674300
vt 0.000100 0.372700
vt 0.486200 1.006900
vt 0.486200 0.006600
vt 0.000100 0.674300
vt 0.000100 0.372700
vt 0.486200 1.006900
vt 0.486200 0.006600
vt 0.605600 0.996700
vt 0.605600 -0.002200
vt 1.015000 0.508400
vt 0.000100 0.674300
vt 0.000100 0.372700
vt 0.486200 1.006900
vt 0.486200 0.006600
vt 0.605600 0.996700
vt 0.605600 -0.002200
vt 1.015000 0.508400
vt 0.000100 0.674300
vt 0.000100 0.372700
vt 0.486200 1.006900
vt 0.486200 0.006600
vt 0.605600 0.996700
vt 0.605600 -0.002200
vt 1.015000 0.508400
vt 0.486200 1.006900
vt 0.486200 0.006600
vt 0.605600 0.996700
vt 0.605600 -0.002200
vt 1.015000 0.508400
vt 0.000100 0.674300
vt 0.000100 0.372700
vt 0.486200 1.006900
vt 0.486200 0.006600
vt 0.605600 0.996700
vt 0.605600 -0.002200
vt 1.015000 0.508400
vt 0.000100 0.674300
vt 0.000100 0.372700
vt 0.486200 1.006900
vt 0.486200 0.006600
vt 0.605600 0.996700
vt 0.605600 -0.002200
vt 1.015000 0.508400
vt 0.000100 0.674300
vt 0.000100 0.372700
vt 0.486200 1.006900
vt 0.486200 0.006600
vt 0.605600 0.996700
vt 0.605600 -0.002200
vt 1.015000 0.508400
vt 0.000100 0.674300
vt 0.000100 0.372700
vt 0.000100 0.674300
vt 0.000100 0.372700
vt 0.486200 1.006900
vt 0.486200 0.006600
vt 0.605600 0.996700
vt 0.605600 -0.002200
vt 1.015000 0.508400
vt 0.000100 0.674300
vt 0.000100 0.372700
vt 0.486200 1.006900
vt 0.486200 0.006600
vt 0.605600 0.996700
vt 0.605600 -0.002200
vt 1.015000 0.508400
vt 0.000100 0.674300
vt 0.000100 0.372700
vt 0.486200 1.006900
vt 0.486200 0.006600
vt 0.605600 0.996700
vt 0.605600 -0.002200
vt 1.015000 0.508400
vt 0.000100 0.674300
vt 0.000100 0.372700
vt 0.486200 1.006900
vt 0.486200 0.006600
vt 0.605600 0.996700
vt 0.605600 -0.002200
vt 1.015000 0.508400
vt 0.605600 0.996700
vt 0.605600 -0.002200
vt 1.015000 0.508400
vt 0.000100 0.674300
vt 0.000100 0.372700
vt 0.486200 1.006900
vt 0.486200 0.006600
vt 0.486200 1.006900
vt 0.486200 0.006600
vt 0.605600 0.996700
vt 0.605600 -0.002200
vt 1.015000 0.508400
vt 0.000100 0.674300
vt 0.000100 0.372700
vt 0.486200 1.006900
vt 0.486200 0.006600
vt 0.605600 0.996700
vt 0.605600 -0.002200
vt 1.015000 0.508400
vt 0.000100 0.674300
vt 0.000100 0.372700
vt 0.486200 1.006900
vt 0.486200 0.006600
vt 0.605600 0.996700
vt 0.605600 -0.002200
vt 1.015000 0.508400
vt 0.000100 0.674300
vt 0.000100 0.372700
vt 0.605600 0.996700
vt 0.605600 -0.002200
vt 1.015000 0.508400
vt 0.000100 0.674300
vt 0.000100 0.372700
vt 0.486200 1.006900
vt 0.486200 0.006600
vt 0.867800 0.486100
vt 0.867800 0.481900
vt 0.829900 0.496700
vt 0.829900 0.495500
vt 0.867800 0.497600
vt 0.829900 0.503700
vt 0.867800 0.486100
vt 0.867800 0.497600
vt 0.829900 0.508500
vt 0.808500 0.513300
vt 0.867800 0.513300
vt 0.829900 0.518000
vt 0.867800 0.513300
vt 0.829900 0.522800
vt 0.867800 0.529000
vt 0.829900 0.529800
vt 0.867800 0.529000
vt 0.829900 0.531100
vt 0.867800 0.544600
vt 0.867800 0.540400
vt 0.867800 0.540400
vn -0.837710 0.433744 0.331825
vn -0.845984 0.414777 0.335068
vn -0.855962 0.390377 0.339020
vn -0.801449 0.506024 0.318778
vn -0.801908 0.505680 0.318168
vn -0.798932 0.511117 0.316965
vn -0.795218 0.517939 0.315225
vn -0.830993 0.423974 -0.360135
vn -0.838786 0.405332 -0.363517
vn -0.848154 0.381474 -0.367577
vn -0.751517 0.574378 -0.324519
vn -0.751462 0.573977 -0.325354
vn -0.752833 0.571824 -0.325976
vn -0.754525 0.569022 -0.326965
vn -0.331824 0.433771 -0.837696
vn -0.335086 0.414674 -0.846028
vn -0.339020 0.390377 -0.855962
vn -0.318763 0.506094 -0.801410
vn -0.318170 0.505757 -0.801859
vn -0.316976 0.511155 -0.798904
vn -0.315274 0.517830 -0.795270
vn 0.325862 0.571921 -0.752808
vn 0.326927 0.568806 -0.754705
vn 0.360248 0.423289 -0.831292
vn 0.363581 0.404966 -0.838934
vn 0.324454 0.574609 -0.751368
vn 0.325191 0.574258 -0.751318
vn 0.367577 0.381474 -0.848154
vn 0.798820 0.511198 -0.317116
vn 0.795179 0.517869 -0.315439
vn 0.837720 0.433700 -0.331859
vn 0.846064 0.414589 -0.335100
vn 0.801451 0.506019 -0.318779
vn 0.801801 0.505757 -0.318316
vn 0.855962 0.390377 -0.339020
vn 0.838970 0.404879 0.363597
vn 0.831488 0.422856 0.360305
vn 0.754803 0.568770 0.326762
vn 0.752833 0.571989 0.325686
vn 0.751384 0.574258 0.325039
vn 0.751425 0.574520 0.324479
vn 0.848154 0.381474 0.367577
vn 0.316835 0.511087 0.799003
vn 0.315086 0.517865 0.795322
vn 0.331771 0.433938 0.837631
vn 0.335056 0.414853 0.845952
vn 0.318763 0.506094 0.801410
vn 0.318034 0.505680 0.801961
vn 0.339020 0.390377 0.855962
vn -0.360190 0.423466 0.831228
vn -0.363581 0.404966 0.838934
vn -0.367577 0.381474 0.848154
vn -0.324501 0.574440 0.751477
vn -0.325061 0.574173 0.751439
vn -0.325692 0.571958 0.752854
vn -0.326721 0.568893 0.754728
vn -0.499029 0.843772 0.197532
vn -0.499014 0.843778 0.197545
vn -0.501247 0.842245 0.198430
vn -0.503551 0.840649 0.199364
vn -0.608968 0.755618 0.241246
vn -0.623020 0.742239 0.246836
vn -0.642114 0.723166 0.254401
vn -0.422579 0.887708 -0.182761
vn -0.422583 0.887701 -0.182788
vn -0.433526 0.881414 -0.187522
vn -0.444923 0.874645 -0.192456
vn -0.608914 0.748234 -0.263382
vn -0.623823 0.733510 -0.269829
vn -0.643468 0.713080 -0.278326
vn -0.197534 0.843769 -0.499033
vn -0.197551 0.843778 -0.499011
vn -0.198436 0.842246 -0.501243
vn -0.199368 0.840655 -0.503540
vn -0.241226 0.755668 -0.608914
vn -0.246838 0.742235 -0.623024
vn -0.254401 0.723166 -0.642114
vn 0.187577 0.881411 -0.433508
vn 0.192550 0.874590 -0.444992
vn 0.263451 0.748104 -0.609044
vn 0.269813 0.733548 -0.623786
vn 0.278326 0.713080 -0.643468
vn 0.182748 0.887725 -0.422549
vn 0.182838 0.887701 -0.422561
vn 0.501094 0.842300 -0.198583
vn 0.503494 0.840635 -0.199565
vn 0.609092 0.755491 -0.241332
vn 0.623176 0.742087 -0.246898
vn 0.642114 0.723166 -0.254401
vn 0.499094 0.843728 -0.197558
vn 0.498908 0.843801 -0.197711
vn 0.433546 0.881371 0.187677
vn 0.444776 0.874700 0.192544
vn 0.608709 0.748421 0.263323
vn 0.623692 0.733643 0.269772
vn 0.643468 0.713080 0.278326
vn 0.422540 0.887730 0.182744
vn 0.422567 0.887681 0.182920
vn 0.198423 0.842245 0.501251
vn 0.199360 0.840643 0.503561
vn 0.241266 0.755568 0.609022
vn 0.246834 0.742243 0.623016
vn 0.254401 0.723166 0.642114
vn 0.197531 0.843774 0.499025
vn 0.197539 0.843778 0.499016
vn -0.182783 0.887679 0.422630
vn -0.182941 0.887636 0.422652
vn -0.187642 0.881400 0.433503
vn -0.192623 0.874571 0.444997
vn -0.263434 0.748166 0.608975
vn -0.269736 0.733728 0.623607
vn -0.278326 0.713080 0.643468
vn -0.169001 0.971019 0.169001
vn -0.169001 0.971019 0.169001
vn -0.179514 0.967238 0.179514
vn -0.189955 0.963242 0.189955
vn -0.341954 0.875291 0.341954
vn -0.355785 0.864195 0.355785
vn -0.374143 0.848548 0.374143
vn -0.138031 0.990428 0.000000
vn -0.138031 0.990428 0.000000
vn -0.164596 0.986361 0.000000
vn -0.190913 0.981607 0.000000
vn -0.496263 0.868172 0.000000
vn -0.518123 0.855306 0.000000
vn -0.546927 0.837180 0.000000
vn -0.169001 0.971019 -0.169001
vn -0.169001 0.971019 -0.169001
vn -0.179514 0.967238 -0.179514
vn -0.189955 0.963242 -0.189955
vn -0.341954 0.875291 -0.341954
vn -0.355785 0.864195 -0.355785
vn -0.374143 0.848548 -0.374143
vn 0.000000 0.868172 -0.496263
vn 0.000000 0.855306 -0.518123
vn 0.000000 0.837180 -0.546927
vn 0.000000 0.990428 -0.138031
vn 0.000000 0.990428 -0.138031
vn 0.000000 0.986361 -0.164596
vn 0.000000 0.981607 -0.190913
vn 0.179514 0.967238 -0.179514
vn 0.189955 0.963242 -0.189955
vn 0.341954 0.875291 -0.341954
vn 0.355785 0.864195 -0.355785
vn 0.374143 0.848548 -0.374143
vn 0.169001 0.971019 -0.169001
vn 0.169001 0.971019 -0.169001
vn 0.164596 0.986361 0.000000
vn 0.190913 0.981607 0.000000
vn 0.496263 0.868172 0.000000
vn 0.518123 0.855306 0.000000
vn 0.546927 0.837180 0.000000
vn 0.138031 0.990428 0.000000
vn 0.138031 0.990428 0.000000
vn 0.179514 0.967238 0.179514
vn 0.189955 0.963242 0.189955
vn 0.341954 0.875291 0.341954
vn 0.355785 0.864195 0.355785
vn 0.374143 0.848548 0.374143
vn 0.169001 0.971019 0.169001
vn 0.169001 0.971019 0.169001
vn 0.000000 0.868172 0.496263
vn 0.000000 0.855306 0.518123
vn 0.000000 0.837180 0.546927
vn 0.000000 0.990428 0.138031
vn 0.000000 0.990428 0.138031
vn 0.000000 0.986361 0.164596
vn 0.000000 0.981607 0.190913
vn -0.612037 0.707447 -0.353453
vn -0.691225 0.722386 -0.019169
vn -0.480786 0.831711 -0.277670
vn -0.515194 0.845834 0.138342
vn -0.353454 0.707447 0.612037
vn -0.277670 0.831711 0.480786
vn -0.588911 0.722410 0.362363
vn -0.362363 0.722410 -0.588911
vn -0.138342 0.845834 -0.515194
vn 0.000000 1.000000 0.000000
vn -0.019169 0.722386 0.691225
vn 0.138342 0.845834 0.515194
vn 0.019169 0.722386 -0.691225
vn 0.277670 0.831711 -0.480786
vn 0.362363 0.722410 0.588911
vn 0.480786 0.831711 0.277670
vn 0.353454 0.707447 -0.612037
vn 0.515194 0.845834 -0.138342
vn 0.691225 0.722386 0.019169
vn 0.588911 0.722410 -0.362363
vn 0.612037 0.707447 0.353453
f 10/10/10 9/9/9 10/10/10 
f 8/8/8 9/9/9 10/10/10 
f 8/8/8 14/14/14 9/9/9 
f 13/13/13 14/14/14 8/8/8 
f 13/13/13 12/12/12 14/14/14 
f 11/11/11 12/12/12 13/13/13 
f 42/42/42 36/36/36 42/42/42 
f 37/37/37 36/36/36 42/42/42 
f 37/37/37 38/38/38 36/36/36 
f 39/39/39 38/38/38 37/37/37 
f 39/39/39 40/40/40 38/38/38 
f 41/41/41 40/40/40 39/39/39 
f 5/5/5 6/6/6 4/4/4 
f 7/7/7 6/6/6 5/5/5 
f 7/7/7 1/1/1 6/6/6 
f 2/2/2 1/1/1 7/7/7 
f 2/2/2 3/3/3 1/1/1 
f 171/171/171 177/177/177 171/171/171 
f 178/178/178 177/177/177 171/171/171 
f 178/178/178 182/182/182 177/177/177 
f 178/178/178 182/182/182 178/178/178 
f 178/178/178 186/186/186 182/182/182 
f 178/178/178 186/186/186 178/178/178 
f 178/178/178 184/184/184 186/186/186 
f 178/178/178 184/184/184 178/178/178 
f 178/178/178 180/180/180 184/184/184 
f 178/178/178 180/180/180 178/178/178 
f 178/178/178 174/174/174 180/180/180 
f 178/178/178 174/174/174 178/178/178 
f 178/178/178 172/172/172 174/174/174 
f 171/171/171 172/172/172 178/178/178 
f 180/180/180 179/179/179 183/183/183 
f 174/174/174 179/179/179 180/180/180 
f 174/174/174 173/173/173 179/179/179 
f 174/174/174 173/173/173 174/174/174 
f 174/174/174 175/175/175 173/173/173 
f 172/172/172 175/175/175 174/174/174 
f 172/172/172 170/170/170 175/175/175 
f 171/171/171 170/170/170 172/172/172 
f 171/171/171 169/169/169 170/170/170 
f 171/171/171 169/169/169 171/171/171 
f 171/171/171 176/176/176 169/169/169 
f 171/171/171 176/176/176 171/171/171 
f 171/171/171 177/177/177 176/176/176 
f 177/177/177 181/181/181 176/176/176 
f 182/182/182 181/181/181 177/177/177 
f 182/182/182 185/185/185 181/181/181 
f 182/182/182 185/185/185 182/182/182 
f 182/182/182 188/188/188 185/185/185 
f 186/186/186 188/188/188 182/182/182 
f 186/186/186 187/187/187 188/188/188 
f 184/184/184 187/187/187 186/186/186 
f 184/184/184 189/189/189 187/187/187 
f 184/184/184 189/189/189 184/184/184 
f 184/184/184 183/183/183 189/189/189 
f 180/180/180 183/183/183 184/184/184 
f 19/19/19 20/20/20 18/18/18 
f 21/21/21 20/20/20 19/19/19 
f 21/21/21 15/15/15 20/20/20 
f 16/16/16 15/15/15 21/21/21 
f 16/16/16 17/17/17 15/15/15 
f 166/166/166 167/167/167 165/165/165 
f 168/168/168 167/167/167 166/166/166 
f 168/168/168 162/162/162 167/167/167 
f 163/163/163 162/162/162 168/168/168 
f 163/163/163 164/164/164 162/162/162 
f 27/27/27 22/22/22 26/26/26 
f 23/23/23 22/22/22 27/27/27 
f 23/23/23 24/24/24 22/22/22 
f 25/25/25 24/24/24 23/23/23 
f 25/25/25 28/28/28 24/24/24 
f 161/161/161 155/155/155 160/160/160 
f 156/156/156 155/155/155 161/161/161 
f 156/156/156 157/157/157 155/155/155 
f 158/158/158 157/157/157 156/156/156 
f 158/158/158 159/159/159 157/157/157 
f 34/34/34 29/29/29 33/33/33 
f 30/30/30 29/29/29 34/34/34 
f 30/30/30 31/31/31 29/29/29 
f 32/32/32 31/31/31 30/30/30 
f 32/32/32 35/35/35 31/31/31 
f 154/154/154 148/148/148 153/153/153 
f 149/149/149 148/148/148 154/154/154 
f 149/149/149 150/150/150 148/148/148 
f 151/151/151 150/150/150 149/149/149 
f 151/151/151 152/152/152 150/150/150 
f 48/48/48 43/43/43 47/47/47 
f 44/44/44 43/43/43 48/48/48 
f 44/44/44 45/45/45 43/43/43 
f 46/46/46 45/45/45 44/44/44 
f 46/46/46 49/49/49 45/45/45 
f 147/147/147 141/141/141 146/146/146 
f 142/142/142 141/141/141 147/147/147 
f 142/142/142 143/143/143 141/141/141 
f 144/144/144 143/143/143 142/142/142 
f 144/144/144 145/145/145 143/143/143 
f 54/54/54 55/55/55 53/53/53 
f 56/56/56 55/55/55 54/54/54 
f 56/56/56 50/50/50 55/55/55 
f 51/51/51 50/50/50 56/56/56 
f 51/51/51 52/52/52 50/50/50 
f 138/138/138 139/139/139 137/137/137 
f 140/140/140 139/139/139 138/138/138 
f 140/140/140 134/134/134 139/139/139 
f 135/135/135 134/134/134 140/140/140 
f 135/135/135 136/136/136 134/134/134 
f 58/58/58 59/59/59 57/57/57 
f 60/60/60 59/59/59 58/58/58 
f 60/60/60 61/61/61 59/59/59 
f 62/62/62 61/61/61 60/60/60 
f 62/62/62 63/63/63 61/61/61 
f 128/128/128 129/129/129 127/127/127 
f 130/130/130 129/129/129 128/128/128 
f 130/130/130 131/131/131 129/129/129 
f 132/132/132 131/131/131 130/130/130 
f 132/132/132 133/133/133 131/131/131 
f 65/65/65 66/66/66 64/64/64 
f 67/67/67 66/66/66 65/65/65 
f 67/67/67 68/68/68 66/66/66 
f 69/69/69 68/68/68 67/67/67 
f 69/69/69 70/70/70 68/68/68 
f 121/121/121 122/122/122 120/120/120 
f 123/123/123 122/122/122 121/121/121 
f 123/123/123 124/124/124 122/122/122 
f 125/125/125 124/124/124 123/123/123 
f 125/125/125 126/126/126 124/124/124 
f 72/72/72 73/73/73 71/71/71 
f 74/74/74 73/73/73 72/72/72 
f 74/74/74 75/75/75 73/73/73 
f 76/76/76 75/75/75 74/74/74 
f 76/76/76 77/77/77 75/75/75 
f 114/114/114 115/115/115 113/113/113 
f 116/116/116 115/115/115 114/114/114 
f 116/116/116 117/117/117 115/115/115 
f 118/118/118 117/117/117 116/116/116 
f 118/118/118 119/119/119 117/117/117 
f 84/84/84 78/78/78 83/83/83 
f 79/79/79 78/78/78 84/84/84 
f 79/79/79 80/80/80 78/78/78 
f 81/81/81 80/80/80 79/79/79 
f 81/81/81 82/82/82 80/80/80 
f 107/107/107 108/108/108 106/106/106 
f 109/109/109 108/108/108 107/107/107 
f 109/109/109 110/110/110 108/108/108 
f 111/111/111 110/110/110 109/109/109 
f 111/111/111 112/112/112 110/110/110 
f 91/91/91 85/85/85 90/90/90 
f 86/86/86 85/85/85 91/91/91 
f 86/86/86 87/87/87 85/85/85 
f 88/88/88 87/87/87 86/86/86 
f 88/88/88 89/89/89 87/87/87 
f 105/105/105 99/99/99 104/104/104 
f 100/100/100 99/99/99 105/105/105 
f 100/100/100 101/101/101 99/99/99 
f 102/102/102 101/101/101 100/100/100 
f 102/102/102 103/103/103 101/101/101 
f 98/98/98 92/92/92 97/97/97 
f 93/93/93 92/92/92 98/98/98 
f 93/93/93 94/94/94 92/92/92 
f 95/95/95 94/94/94 93/93/93 
f 95/95/95 96/96/96 94/94/94 
