v -0.219600 0.331900 0.046700
v -0.219800 0.316900 0.049100
v -0.220400 0.331900 0.056000
v -0.220700 0.316900 0.058400
v -0.214000 0.000000 -0.116900
v -0.214000 0.000000 0.117500
v -0.214000 0.136600 -0.116900
v -0.214000 0.136600 0.117500
v -0.201200 0.273700 -0.125200
v -0.221600 0.273700 0.108300
v -0.201200 0.410400 -0.125200
v -0.221600 0.410400 0.108300
v -0.184800 0.273500 0.049200
v -0.153100 0.273500 -0.183000
v -0.184800 0.136800 0.049200
v -0.153100 0.136800 -0.183000
v -0.159100 0.179600 -0.163500
v -0.159400 0.164600 -0.161200
v -0.160300 0.179600 -0.154300
v -0.160600 0.164600 -0.151900
v -0.139200 0.019600 0.119300
v -0.129900 0.019600 0.119300
v -0.138900 0.034600 0.119300
v -0.129500 0.034600 0.119300
v -0.079600 0.309600 0.123500
v -0.081100 0.313200 0.123300
v -0.133600 0.296300 0.118800
v -0.135100 0.299900 0.118600
v -0.096400 0.218000 -0.182800
v -0.095200 0.222200 -0.182500
v -0.017800 0.200300 -0.172600
v -0.016500 0.204500 -0.172300
v 0.006600 0.413500 -0.058300
v 0.005200 0.413500 -0.061800
v -0.056200 0.413500 -0.036200
v -0.057700 0.413500 -0.039700
v 0.204800 0.410400 0.145600
v -0.221600 0.410400 0.108300
v 0.204800 0.273700 0.145600
v -0.221600 0.273700 0.108300
v -0.214000 0.000000 -0.116900
v 0.214000 0.000000 -0.116900
v -0.214000 0.000000 0.117500
v 0.214000 0.000000 0.117500
v -0.214000 0.136600 -0.116900
v 0.214000 0.136600 -0.116900
v -0.214000 0.000000 -0.116900
v 0.214000 0.000000 -0.116900
v -0.214000 0.000000 0.117500
v 0.214000 0.000000 0.117500
v -0.214000 0.136600 0.117500
v 0.214000 0.136600 0.117500
v -0.214000 0.136600 0.117500
v 0.214000 0.136600 0.117500
v -0.214000 0.136600 -0.116900
v 0.214000 0.136600 -0.116900
v 0.204800 0.273700 0.145600
v -0.221600 0.273700 0.108300
v 0.225200 0.273700 -0.087800
v -0.201200 0.273700 -0.125200
v 0.225200 0.410400 -0.087800
v -0.201200 0.410400 -0.125200
v 0.204800 0.410400 0.145600
v -0.221600 0.410400 0.108300
v 0.225200 0.273700 -0.087800
v -0.201200 0.273700 -0.125200
v 0.225200 0.410400 -0.087800
v -0.201200 0.410400 -0.125200
v -0.003700 0.084200 0.120200
v 0.040100 0.118600 0.120200
v -0.006200 0.087900 0.120200
v 0.037700 0.122400 0.120200
v -0.184800 0.136800 0.049200
v 0.239400 0.136800 0.107000
v -0.184800 0.273500 0.049200
v 0.239400 0.273500 0.107000
v -0.153100 0.136800 -0.183000
v 0.271000 0.136800 -0.125200
v -0.184800 0.136800 0.049200
v 0.239400 0.136800 0.107000
v -0.184800 0.273500 0.049200
v 0.239400 0.273500 0.107000
v -0.153100 0.273500 -0.183000
v 0.271000 0.273500 -0.125200
v -0.153100 0.273500 -0.183000
v 0.271000 0.273500 -0.125200
v -0.153100 0.136800 -0.183000
v 0.271000 0.136800 -0.125200
v 0.150000 0.413500 0.067600
v 0.148500 0.413500 0.063700
v 0.067900 0.413500 0.093700
v 0.066400 0.413500 0.089800
v 0.134700 0.346800 -0.099200
v 0.115000 0.360100 -0.101900
v 0.136600 0.349600 -0.099100
v 0.116900 0.362900 -0.101700
v 0.214000 0.000000 0.117500
v 0.214000 0.000000 -0.116900
v 0.214000 0.136600 0.117500
v 0.214000 0.136600 -0.116900
v 0.204800 0.273700 0.145600
v 0.225200 0.273700 -0.087800
v 0.204800 0.410400 0.145600
v 0.225200 0.410400 -0.087800
v 0.220200 0.379700 -0.013600
v 0.220200 0.367300 -0.015500
v 0.220200 0.379700 -0.021300
v 0.220200 0.367300 -0.023300
v 0.246900 0.235500 0.058900
v 0.246900 0.245100 0.059900
v 0.245700 0.235500 0.066700
v 0.245700 0.245600 0.066500
v 0.271000 0.273500 -0.125200
v 0.239400 0.273500 0.107000
v 0.271000 0.136800 -0.125200
v 0.239400 0.136800 0.107000
vt 0.039000 0.976500
vt 0.039000 0.976500
vt 0.039000 0.976500
vt 0.039000 0.976500
vt 0.070300 0.648400
vt 0.070300 0.648400
vt 0.070300 0.648400
vt 0.070300 0.648400
vt 0.070300 0.648400
vt 0.070300 0.648400
vt 0.070300 0.648400
vt 0.070300 0.648400
vt 0.070300 0.148400
vt 0.070300 0.148400
vt 0.070300 0.148400
vt 0.070300 0.148400
vt 0.039000 0.976500
vt 0.039000 0.976500
vt 0.039000 0.976500
vt 0.039000 0.976500
vt 0.039000 0.976500
vt 0.039000 0.976500
vt 0.039000 0.976500
vt 0.039000 0.976500
vt 0.039000 0.976500
vt 0.039000 0.976500
vt 0.039000 0.976500
vt 0.039000 0.976500
vt 0.039000 0.976500
vt 0.039000 0.976500
vt 0.039000 0.976500
vt 0.039000 0.976500
vt 0.039000 0.976500
vt 0.039000 0.976500
vt 0.039000 0.976500
vt 0.039000 0.976500
vt 0.070300 0.132800
vt 0.070300 0.132800
vt 0.070300 0.132800
vt 0.070300 0.132800
vt 0.085900 0.132800
vt 0.085900 0.132800
vt 0.085900 0.132800
vt 0.085900 0.132800
vt 0.070300 0.132800
vt 0.070300 0.132800
vt 0.070300 0.132800
vt 0.070300 0.132800
vt 0.070300 0.132800
vt 0.070300 0.132800
vt 0.070300 0.132800
vt 0.070300 0.132800
vt 0.085900 0.148400
vt 0.085900 0.148400
vt 0.085900 0.148400
vt 0.085900 0.148400
vt 0.085900 0.132800
vt 0.085900 0.132800
vt 0.085900 0.132800
vt 0.085900 0.132800
vt 0.085900 0.148400
vt 0.085900 0.148400
vt 0.085900 0.148400
vt 0.085900 0.148400
vt 0.070300 0.132800
vt 0.070300 0.132800
vt 0.070300 0.132800
vt 0.070300 0.132800
vt 0.039000 0.976500
vt 0.039000 0.976500
vt 0.039000 0.976500
vt 0.039000 0.976500
vt 0.070300 0.632800
vt 0.070300 0.632800
vt 0.070300 0.632800
vt 0.070300 0.632800
vt 0.085900 0.148400
vt 0.085900 0.148400
vt 0.085900 0.148400
vt 0.085900 0.148400
vt 0.085900 0.132800
vt 0.085900 0.132800
vt 0.085900 0.132800
vt 0.085900 0.132800
vt 0.070300 0.632800
vt 0.070300 0.632800
vt 0.070300 0.632800
vt 0.070300 0.632800
vt 0.039000 0.976500
vt 0.039000 0.976500
vt 0.039000 0.976500
vt 0.039000 0.976500
vt 0.039000 0.976500
vt 0.039000 0.976500
vt 0.039000 0.976500
vt 0.039000 0.976500
vt 0.070300 0.648400
vt 0.070300 0.648400
vt 0.070300 0.648400
vt 0.070300 0.648400
vt 0.070300 0.648400
vt 0.070300 0.648400
vt 0.070300 0.648400
vt 0.070300 0.648400
vt 0.039000 0.976500
vt 0.039000 0.976500
vt 0.039000 0.976500
vt 0.039000 0.976500
vt 0.039000 0.976500
vt 0.039000 0.976500
vt 0.039000 0.976500
vt 0.039000 0.976500
vt 0.070300 0.148400
vt 0.070300 0.148400
vt 0.070300 0.148400
vt 0.070300 0.148400
vn -0.996320 -0.000429 -0.085705
vn -0.995847 0.002034 -0.091018
vn -0.995847 0.002034 -0.091018
vn -0.995340 0.004494 -0.096323
vn -1.000000 0.000000 0.000000
vn -1.000000 0.000000 0.000000
vn -1.000000 0.000000 0.000000
vn -1.000000 0.000000 0.000000
vn -0.996205 0.000000 -0.087035
vn -0.996205 0.000000 -0.087035
vn -0.996205 0.000000 -0.087035
vn -0.996205 0.000000 -0.087035
vn -0.990809 0.000000 -0.135266
vn -0.990809 0.000000 -0.135266
vn -0.990809 0.000000 -0.135266
vn -0.990809 0.000000 -0.135266
vn -0.991600 0.000000 -0.129340
vn -0.991690 -0.000321 -0.128652
vn -0.991690 -0.000321 -0.128652
vn -0.991778 -0.000640 -0.127972
vn 0.000000 0.000000 1.000000
vn 0.000000 0.000000 1.000000
vn 0.000000 0.000000 1.000000
vn 0.000000 0.000000 1.000000
vn -0.090953 0.017418 0.995703
vn -0.090953 0.017418 0.995703
vn -0.090953 0.017418 0.995703
vn -0.090953 0.017418 0.995703
vn 0.135700 0.031957 -0.990234
vn 0.135293 0.030472 -0.990337
vn 0.135293 0.030472 -0.990337
vn 0.134888 0.028996 -0.990437
vn 0.000000 1.000000 0.000000
vn 0.000000 1.000000 0.000000
vn 0.000000 1.000000 0.000000
vn 0.000000 1.000000 0.000000
vn -0.087144 0.000000 0.996196
vn -0.087144 0.000000 0.996196
vn -0.087144 0.000000 0.996196
vn -0.087144 0.000000 0.996196
vn 0.000000 -1.000000 0.000000
vn 0.000000 -1.000000 0.000000
vn 0.000000 -1.000000 0.000000
vn 0.000000 -1.000000 0.000000
vn 0.000000 0.000000 -1.000000
vn 0.000000 0.000000 -1.000000
vn 0.000000 0.000000 -1.000000
vn 0.000000 0.000000 -1.000000
vn 0.000000 0.000000 1.000000
vn 0.000000 0.000000 1.000000
vn 0.000000 0.000000 1.000000
vn 0.000000 0.000000 1.000000
vn 0.000000 1.000000 0.000000
vn 0.000000 1.000000 0.000000
vn 0.000000 1.000000 0.000000
vn 0.000000 1.000000 0.000000
vn 0.000000 -1.000000 0.000000
vn 0.000000 -1.000000 0.000000
vn 0.000000 -1.000000 0.000000
vn 0.000000 -1.000000 0.000000
vn 0.000000 1.000000 0.000000
vn 0.000000 1.000000 0.000000
vn 0.000000 1.000000 0.000000
vn 0.000000 1.000000 0.000000
vn 0.087376 0.000000 -0.996175
vn 0.087376 0.000000 -0.996175
vn 0.087376 0.000000 -0.996175
vn 0.087376 0.000000 -0.996175
vn 0.000000 0.000000 1.000000
vn 0.000000 0.000000 1.000000
vn 0.000000 0.000000 1.000000
vn 0.000000 0.000000 1.000000
vn -0.135009 0.000000 0.990844
vn -0.135009 0.000000 0.990844
vn -0.135009 0.000000 0.990844
vn -0.135009 0.000000 0.990844
vn 0.000000 -1.000000 0.000000
vn 0.000000 -1.000000 0.000000
vn 0.000000 -1.000000 0.000000
vn 0.000000 -1.000000 0.000000
vn 0.000000 1.000000 0.000000
vn 0.000000 1.000000 0.000000
vn 0.000000 1.000000 0.000000
vn 0.000000 1.000000 0.000000
vn 0.135040 0.000000 -0.990840
vn 0.135040 0.000000 -0.990840
vn 0.135040 0.000000 -0.990840
vn 0.135040 0.000000 -0.990840
vn 0.000000 1.000000 0.000000
vn 0.000000 1.000000 0.000000
vn 0.000000 1.000000 0.000000
vn 0.000000 1.000000 0.000000
vn 0.109778 -0.039021 -0.993190
vn 0.116226 -0.025677 -0.992891
vn 0.116226 -0.025677 -0.992891
vn 0.122643 -0.012339 -0.992374
vn 1.000000 0.000000 0.000000
vn 1.000000 0.000000 0.000000
vn 1.000000 0.000000 0.000000
vn 1.000000 0.000000 0.000000
vn 0.996202 0.000000 0.087072
vn 0.996202 0.000000 0.087072
vn 0.996202 0.000000 0.087072
vn 0.996202 0.000000 0.087072
vn 1.000000 0.000000 0.000000
vn 1.000000 0.000000 0.000000
vn 1.000000 0.000000 0.000000
vn 1.000000 0.000000 0.000000
vn 0.988248 -0.015837 0.152039
vn 0.986334 -0.006685 0.164622
vn 0.986334 -0.006685 0.164622
vn 0.983911 0.003537 0.178626
vn 0.990867 0.000000 0.134847
vn 0.990867 0.000000 0.134847
vn 0.990867 0.000000 0.134847
vn 0.990867 0.000000 0.134847
f 2/2/2 3/3/3 1/1/1 
f 4/4/4 3/3/3 2/2/2 
f 114/114/114 115/115/115 113/113/113 
f 116/116/116 115/115/115 114/114/114 
f 110/110/110 111/111/111 109/109/109 
f 112/112/112 111/111/111 110/110/110 
f 106/106/106 107/107/107 105/105/105 
f 108/108/108 107/107/107 106/106/106 
f 102/102/102 103/103/103 101/101/101 
f 104/104/104 103/103/103 102/102/102 
f 98/98/98 99/99/99 97/97/97 
f 100/100/100 99/99/99 98/98/98 
f 94/94/94 95/95/95 93/93/93 
f 96/96/96 95/95/95 94/94/94 
f 90/90/90 91/91/91 89/89/89 
f 92/92/92 91/91/91 90/90/90 
f 86/86/86 87/87/87 85/85/85 
f 88/88/88 87/87/87 86/86/86 
f 82/82/82 83/83/83 81/81/81 
f 84/84/84 83/83/83 82/82/82 
f 78/78/78 79/79/79 77/77/77 
f 80/80/80 79/79/79 78/78/78 
f 74/74/74 75/75/75 73/73/73 
f 76/76/76 75/75/75 74/74/74 
f 70/70/70 71/71/71 69/69/69 
f 72/72/72 71/71/71 70/70/70 
f 66/66/66 67/67/67 65/65/65 
f 68/68/68 67/67/67 66/66/66 
f 62/62/62 63/63/63 61/61/61 
f 64/64/64 63/63/63 62/62/62 
f 58/58/58 59/59/59 57/57/57 
f 60/60/60 59/59/59 58/58/58 
f 54/54/54 55/55/55 53/53/53 
f 56/56/56 55/55/55 54/54/54 
f 50/50/50 51/51/51 49/49/49 
f 52/52/52 51/51/51 50/50/50 
f 46/46/46 47/47/47 45/45/45 
f 48/48/48 47/47/47 46/46/46 
f 42/42/42 43/43/43 41/41/41 
f 44/44/44 43/43/43 42/42/42 
f 38/38/38 39/39/39 37/37/37 
f 40/40/40 39/39/39 38/38/38 
f 34/34/34 35/35/35 33/33/33 
f 36/36/36 35/35/35 34/34/34 
f 30/30/30 31/31/31 29/29/29 
f 32/32/32 31/31/31 30/30/30 
f 26/26/26 27/27/27 25/25/25 
f 28/28/28 27/27/27 26/26/26 
f 22/22/22 23/23/23 21/21/21 
f 24/24/24 23/23/23 22/22/22 
f 18/18/18 19/19/19 17/17/17 
f 20/20/20 19/19/19 18/18/18 
f 14/14/14 15/15/15 13/13/13 
f 16/16/16 15/15/15 14/14/14 
f 10/10/10 11/11/11 9/9/9 
f 12/12/12 11/11/11 10/10/10 
f 6/6/6 7/7/7 5/5/5 
f 8/8/8 7/7/7 6/6/6 
