v -1.212400 0.000000 -2.326200
v -1.533300 0.000000 0.000000
v -0.972300 1.514800 -1.794000
v -1.223500 1.514800 0.065700
v -1.212400 0.000000 2.361600
v -0.972300 1.514800 1.872300
v 1.212400 0.000000 2.361600
v 0.972300 1.514800 1.872300
v -1.212400 0.000000 2.361600
v -0.972300 1.514800 1.872300
v -1.223500 1.514800 0.065700
v 1.223500 1.514800 0.065700
v -0.972300 1.514800 -1.794000
v 0.972300 1.514800 -1.794000
v 0.972300 1.514800 1.872300
v -0.972300 1.514800 1.872300
v 1.212400 0.000000 -2.326200
v -1.212400 0.000000 -2.326200
v 0.972300 1.514800 -1.794000
v -0.972300 1.514800 -1.794000
v 1.212400 0.000000 -2.326200
v 0.972300 1.514800 -1.794000
v 1.533300 0.000000 0.000000
v 1.223500 1.514800 0.065700
v 1.212400 0.000000 2.361600
v 0.972300 1.514800 1.872300
v -0.941300 1.514800 1.470900
v -0.941300 1.630900 1.470900
v -0.941300 1.514800 -1.449100
v -0.941300 1.630900 -1.449100
v -0.878400 1.630900 0.821500
v -0.735800 2.599900 0.648600
v -0.878400 1.630900 -0.888200
v -0.735800 2.599900 -0.785200
v -0.286900 1.915300 0.449000
v -0.286900 1.915300 0.945900
v -0.286900 2.489100 0.449000
v -0.286900 2.489100 0.945900
v 0.000000 1.950800 4.930900
v -0.251300 2.202200 4.930900
v 0.000000 1.950800 4.201000
v -0.251300 2.202200 4.201000
v 0.000000 2.453600 4.930900
v 0.000000 2.453600 4.201000
v -0.136100 2.202200 2.495300
v -0.136100 2.202200 0.945900
v 0.000000 2.062400 2.495300
v 0.000000 2.062400 0.945900
v -0.136100 2.202200 4.201000
v 0.000000 2.062400 4.201000
v 0.000000 2.338400 2.495300
v 0.000000 2.338400 0.945900
v 0.000000 2.338400 4.201000
v -0.006000 2.202200 4.272000
v -0.251300 2.202200 4.930900
v 0.000000 1.950800 4.930900
v 0.000000 2.453600 4.930900
v 0.000000 1.950800 4.201000
v -0.251300 2.202200 4.201000
v 0.251300 2.202200 4.201000
v 0.000000 2.453600 4.201000
v 0.941300 1.630900 -1.449100
v 0.941300 1.514800 -1.449100
v -0.941300 1.630900 -1.449100
v -0.941300 1.514800 -1.449100
v 0.941300 1.514800 1.470900
v 0.941300 1.630900 1.470900
v -0.941300 1.514800 1.470900
v -0.941300 1.630900 1.470900
v 0.941300 1.630900 1.470900
v 0.941300 1.630900 -1.449100
v -0.941300 1.630900 1.470900
v -0.941300 1.630900 -1.449100
v 0.286900 1.915300 0.449000
v 0.286900 1.915300 0.945900
v -0.286900 1.915300 0.449000
v -0.286900 1.915300 0.945900
v 0.286900 2.489100 0.449000
v 0.286900 1.915300 0.449000
v -0.286900 2.489100 0.449000
v -0.286900 1.915300 0.449000
v 0.286900 1.915300 0.945900
v 0.286900 2.489100 0.945900
v -0.286900 1.915300 0.945900
v -0.286900 2.489100 0.945900
v 0.286900 2.489100 0.945900
v 0.286900 2.489100 0.449000
v -0.286900 2.489100 0.945900
v -0.286900 2.489100 0.449000
v 0.735800 2.599900 -0.785200
v -0.735800 2.599900 -0.785200
v 0.735800 2.599900 0.648600
v -0.735800 2.599900 0.648600
v 0.878400 1.630900 -0.888200
v -0.878400 1.630900 -0.888200
v 0.735800 2.599900 -0.785200
v -0.735800 2.599900 -0.785200
v 0.878400 1.630900 0.821500
v 0.735800 2.599900 0.648600
v -0.878400 1.630900 0.821500
v -0.735800 2.599900 0.648600
v 0.251300 2.202200 4.930900
v 0.136100 2.202200 2.495300
v 0.136100 2.202200 0.945900
v 0.136100 2.202200 4.201000
v 0.251300 2.202200 4.930900
v 0.251300 2.202200 4.201000
v 0.286900 1.915300 0.945900
v 0.286900 1.915300 0.449000
v 0.286900 2.489100 0.945900
v 0.286900 2.489100 0.449000
v 0.878400 1.630900 0.821500
v 0.878400 1.630900 -0.888200
v 0.735800 2.599900 0.648600
v 0.735800 2.599900 -0.785200
v 0.941300 1.514800 -1.449100
v 0.941300 1.630900 -1.449100
v 0.941300 1.514800 1.470900
v 0.941300 1.630900 1.470900
vt 0.007800 0.023400
vt 0.007800 0.023400
vt 0.007800 0.023400
vt 0.007800 0.023400
vt 0.007800 0.023400
vt 0.007800 0.023400
vt 0.007800 0.054600
vt 0.007800 0.054600
vt 0.007800 0.054600
vt 0.007800 0.054600
vt 0.007800 0.085900
vt 0.007800 0.085900
vt 0.007800 0.085900
vt 0.007800 0.085900
vt 0.007800 0.085900
vt 0.007800 0.085900
vt 0.007800 0.054600
vt 0.007800 0.054600
vt 0.007800 0.054600
vt 0.007800 0.054600
vt 0.007800 0.023400
vt 0.007800 0.023400
vt 0.007800 0.023400
vt 0.007800 0.023400
vt 0.007800 0.023400
vt 0.007800 0.023400
vt 0.382800 0.242100
vt 0.382800 0.242100
vt 0.382800 0.242100
vt 0.382800 0.242100
vt 0.226500 0.179600
vt 0.226500 0.179600
vt 0.226500 0.179600
vt 0.226500 0.179600
vt 0.195300 0.992100
vt 0.195300 0.992100
vt 0.195300 0.992100
vt 0.195300 0.992100
vt 0.273400 0.757800
vt 0.273400 0.757800
vt 0.273400 0.757800
vt 0.273400 0.757800
vt 0.273400 0.757800
vt 0.273400 0.757800
vt 0.195300 0.976500
vt 0.195300 0.976500
vt 0.195300 0.976500
vt 0.195300 0.976500
vt 0.195300 0.976500
vt 0.195300 0.976500
vt 0.195300 0.976500
vt 0.195300 0.976500
vt 0.195300 0.976500
vt 0.148400 0.976500
vt 0.148400 0.976500
vt 0.148400 0.976500
vt 0.148400 0.976500
vt 0.257800 0.757800
vt 0.257800 0.757800
vt 0.257800 0.757800
vt 0.257800 0.757800
vt 0.117100 0.085900
vt 0.117100 0.085900
vt 0.117100 0.085900
vt 0.117100 0.085900
vt 0.117100 0.085900
vt 0.117100 0.085900
vt 0.117100 0.085900
vt 0.117100 0.085900
vt 0.195300 0.476500
vt 0.195300 0.476500
vt 0.195300 0.476500
vt 0.195300 0.476500
vt 0.210900 0.476500
vt 0.210900 0.476500
vt 0.210900 0.476500
vt 0.210900 0.476500
vt 0.210900 0.992100
vt 0.210900 0.992100
vt 0.210900 0.992100
vt 0.210900 0.992100
vt 0.210900 0.992100
vt 0.210900 0.992100
vt 0.210900 0.992100
vt 0.210900 0.992100
vt 0.210900 0.476500
vt 0.210900 0.476500
vt 0.210900 0.476500
vt 0.210900 0.476500
vt 0.039000 0.195300
vt 0.039000 0.195300
vt 0.039000 0.195300
vt 0.039000 0.195300
vt 0.273400 0.273400
vt 0.273400 0.273400
vt 0.273400 0.273400
vt 0.273400 0.273400
vt 0.273400 0.273400
vt 0.273400 0.273400
vt 0.273400 0.273400
vt 0.273400 0.273400
vt 0.148400 0.976500
vt 0.195300 0.976500
vt 0.195300 0.976500
vt 0.195300 0.976500
vt 0.273400 0.757800
vt 0.273400 0.757800
vt 0.195300 0.992100
vt 0.195300 0.992100
vt 0.195300 0.992100
vt 0.195300 0.992100
vt 0.226500 0.179600
vt 0.226500 0.179600
vt 0.226500 0.179600
vt 0.226500 0.179600
vt 0.382800 0.242100
vt 0.382800 0.242100
vt 0.382800 0.242100
vt 0.382800 0.242100
vn -0.970432 0.200850 -0.133871
vn -0.979705 0.200447 0.000000
vn -0.970305 0.202291 -0.132615
vn -0.979721 0.200368 0.000000
vn -0.971548 0.196636 0.132016
vn -0.971690 0.195018 0.133368
vn 0.000000 0.307375 0.951588
vn 0.000000 0.307375 0.951588
vn 0.000000 0.307375 0.951588
vn 0.000000 0.307375 0.951588
vn 0.000000 1.000000 0.000000
vn 0.000000 1.000000 0.000000
vn 0.000000 1.000000 0.000000
vn 0.000000 1.000000 0.000000
vn 0.000000 1.000000 0.000000
vn 0.000000 1.000000 0.000000
vn 0.000000 0.331471 -0.943465
vn 0.000000 0.331471 -0.943465
vn 0.000000 0.331471 -0.943465
vn 0.000000 0.331471 -0.943465
vn 0.970432 0.200850 -0.133871
vn 0.970305 0.202291 -0.132615
vn 0.979705 0.200447 0.000000
vn 0.979721 0.200368 0.000000
vn 0.971548 0.196636 0.132016
vn 0.971690 0.195018 0.133368
vn -1.000000 0.000000 0.000000
vn -1.000000 0.000000 0.000000
vn -1.000000 0.000000 0.000000
vn -1.000000 0.000000 0.000000
vn -0.989344 0.145594 0.000000
vn -0.989344 0.145594 0.000000
vn -0.989344 0.145594 0.000000
vn -0.989344 0.145594 0.000000
vn -1.000000 0.000000 0.000000
vn -1.000000 0.000000 0.000000
vn -1.000000 0.000000 0.000000
vn -1.000000 0.000000 0.000000
vn 0.316341 -0.948646 0.000000
vn -0.948721 -0.316115 0.000000
vn -0.316341 -0.948646 0.000000
vn -0.948721 0.316115 0.000000
vn -0.316341 0.948646 0.000000
vn 0.316341 0.948646 0.000000
vn -0.979782 -0.200070 0.000000
vn -1.000000 0.000000 0.000000
vn 0.016439 -0.999865 0.000000
vn 0.323933 -0.946080 0.000000
vn -0.949578 0.313531 0.000000
vn -0.323933 -0.946080 0.000000
vn -0.149174 0.988811 0.000000
vn 0.000000 1.000000 0.000000
vn 0.316437 0.948614 0.000000
vn 0.000000 0.000000 1.000000
vn 0.937162 0.000000 0.348893
vn 0.000000 0.934303 0.356479
vn 0.000000 -0.934304 0.356479
vn 0.000000 0.000000 -1.000000
vn 0.000000 0.000000 -1.000000
vn 0.000000 0.000000 -1.000000
vn 0.000000 0.000000 -1.000000
vn 0.000000 0.000000 -1.000000
vn 0.000000 0.000000 -1.000000
vn 0.000000 0.000000 -1.000000
vn 0.000000 0.000000 -1.000000
vn 0.000000 0.000000 1.000000
vn 0.000000 0.000000 1.000000
vn 0.000000 0.000000 1.000000
vn 0.000000 0.000000 1.000000
vn 0.000000 1.000000 0.000000
vn 0.000000 1.000000 0.000000
vn 0.000000 1.000000 0.000000
vn 0.000000 1.000000 0.000000
vn 0.000000 -1.000000 0.000000
vn 0.000000 -1.000000 0.000000
vn 0.000000 -1.000000 0.000000
vn 0.000000 -1.000000 0.000000
vn 0.000000 0.000000 -1.000000
vn 0.000000 0.000000 -1.000000
vn 0.000000 0.000000 -1.000000
vn 0.000000 0.000000 -1.000000
vn 0.000000 0.000000 1.000000
vn 0.000000 0.000000 1.000000
vn 0.000000 0.000000 1.000000
vn 0.000000 0.000000 1.000000
vn 0.000000 1.000000 0.000000
vn 0.000000 1.000000 0.000000
vn 0.000000 1.000000 0.000000
vn 0.000000 1.000000 0.000000
vn 0.000000 1.000000 0.000000
vn 0.000000 1.000000 0.000000
vn 0.000000 1.000000 0.000000
vn 0.000000 1.000000 0.000000
vn 0.000000 0.105700 -0.994398
vn 0.000000 0.105700 -0.994398
vn 0.000000 0.105700 -0.994398
vn 0.000000 0.105700 -0.994398
vn 0.000000 0.175657 0.984451
vn 0.000000 0.175657 0.984451
vn 0.000000 0.175657 0.984451
vn 0.000000 0.175657 0.984451
vn -0.931497 0.000000 0.363749
vn 0.999875 0.015787 0.000000
vn 0.949578 0.313531 0.000000
vn 0.950384 -0.311081 0.000000
vn 0.948721 0.316115 0.000000
vn 0.948721 -0.316115 0.000000
vn 1.000000 0.000000 0.000000
vn 1.000000 0.000000 0.000000
vn 1.000000 0.000000 0.000000
vn 1.000000 0.000000 0.000000
vn 0.989344 0.145594 0.000000
vn 0.989344 0.145594 0.000000
vn 0.989344 0.145594 0.000000
vn 0.989344 0.145594 0.000000
vn 1.000000 0.000000 0.000000
vn 1.000000 0.000000 0.000000
vn 1.000000 0.000000 0.000000
vn 1.000000 0.000000 0.000000
f 8/8/8 9/9/9 7/7/7 
f 10/10/10 9/9/9 8/8/8 
f 18/18/18 19/19/19 17/17/17 
f 20/20/20 19/19/19 18/18/18 
f 22/22/22 23/23/23 21/21/21 
f 24/24/24 23/23/23 22/22/22 
f 24/24/24 23/23/23 23/23/23 
f 26/26/26 23/23/23 24/24/24 
f 26/26/26 25/25/25 23/23/23 
f 2/2/2 3/3/3 1/1/1 
f 2/2/2 3/3/3 2/2/2 
f 2/2/2 4/4/4 3/3/3 
f 2/2/2 4/4/4 2/2/2 
f 2/2/2 6/6/6 4/4/4 
f 5/5/5 6/6/6 2/2/2 
f 15/15/15 11/11/11 16/16/16 
f 12/12/12 11/11/11 15/15/15 
f 12/12/12 13/13/13 11/11/11 
f 14/14/14 13/13/13 12/12/12 
f 34/34/34 32/32/32 34/34/34 
f 33/33/33 32/32/32 34/34/34 
f 33/33/33 31/31/31 32/32/32 
f 28/28/28 29/29/29 27/27/27 
f 30/30/30 29/29/29 28/28/28 
f 117/117/117 118/118/118 116/116/116 
f 119/119/119 118/118/118 117/117/117 
f 113/113/113 114/114/114 112/112/112 
f 115/115/115 114/114/114 113/113/113 
f 109/109/109 110/110/110 108/108/108 
f 111/111/111 110/110/110 109/109/109 
f 99/99/99 100/100/100 98/98/98 
f 101/101/101 100/100/100 99/99/99 
f 95/95/95 96/96/96 94/94/94 
f 97/97/97 96/96/96 95/95/95 
f 91/91/91 92/92/92 90/90/90 
f 93/93/93 92/92/92 91/91/91 
f 87/87/87 88/88/88 86/86/86 
f 89/89/89 88/88/88 87/87/87 
f 83/83/83 84/84/84 82/82/82 
f 85/85/85 84/84/84 83/83/83 
f 79/79/79 80/80/80 78/78/78 
f 81/81/81 80/80/80 79/79/79 
f 75/75/75 76/76/76 74/74/74 
f 77/77/77 76/76/76 75/75/75 
f 71/71/71 72/72/72 70/70/70 
f 73/73/73 72/72/72 71/71/71 
f 67/67/67 68/68/68 66/66/66 
f 69/69/69 68/68/68 67/67/67 
f 63/63/63 64/64/64 62/62/62 
f 65/65/65 64/64/64 63/63/63 
f 59/59/59 60/60/60 58/58/58 
f 61/61/61 60/60/60 59/59/59 
f 36/36/36 37/37/37 35/35/35 
f 38/38/38 37/37/37 36/36/36 
f 45/45/45 50/50/50 49/49/49 
f 47/47/47 50/50/50 45/45/45 
f 47/47/47 105/105/105 50/50/50 
f 103/103/103 105/105/105 47/47/47 
f 103/103/103 53/53/53 105/105/105 
f 51/51/51 53/53/53 103/103/103 
f 51/51/51 49/49/49 53/53/53 
f 51/51/51 49/49/49 51/51/51 
f 51/51/51 45/45/45 49/49/49 
f 46/46/46 45/45/45 51/51/51 
f 46/46/46 47/47/47 45/45/45 
f 46/46/46 47/47/47 46/46/46 
f 48/48/48 47/47/47 46/46/46 
f 48/48/48 103/103/103 47/47/47 
f 104/104/104 103/103/103 48/48/48 
f 104/104/104 51/51/51 103/103/103 
f 52/52/52 51/51/51 104/104/104 
f 52/52/52 46/46/46 51/51/51 
f 55/55/55 54/54/54 55/55/55 
f 56/56/56 54/54/54 55/55/55 
f 56/56/56 54/54/54 54/54/54 
f 102/102/102 54/54/54 56/56/56 
f 102/102/102 54/54/54 54/54/54 
f 57/57/57 54/54/54 102/102/102 
f 57/57/57 55/55/55 54/54/54 
f 44/44/44 43/43/43 44/44/44 
f 42/42/42 43/43/43 44/44/44 
f 42/42/42 40/40/40 43/43/43 
f 41/41/41 40/40/40 42/42/42 
f 41/41/41 39/39/39 40/40/40 
f 107/107/107 39/39/39 41/41/41 
f 107/107/107 106/106/106 39/39/39 
f 44/44/44 106/106/106 107/107/107 
f 44/44/44 43/43/43 106/106/106 
