v -1.628700 -0.015785 1.357946
v -1.056800 0.986315 1.062846
v -1.630100 0.004215 -0.761253
v -1.064900 1.027615 -0.570553
v -1.630100 0.004215 -0.761253
v -1.064900 1.027615 -0.570553
v -1.148000 0.009315 -1.297154
v -0.776500 1.034914 -0.930954
v -0.974200 0.989614 0.960047
v -0.974200 1.148815 0.960047
v -0.974200 0.996114 0.703447
v -0.974200 1.148815 0.703447
v -0.914000 0.888814 1.090246
v -0.914000 0.198115 1.298546
v -0.914000 0.926515 1.395947
v -0.914000 0.227115 1.473346
v -0.914000 0.442914 1.797547
v -0.914000 0.786114 1.753646
v -0.225900 0.478415 6.772846
v -0.188900 0.718115 6.776146
v -0.201900 0.485115 6.189547
v -0.165100 0.691615 6.191846
v -0.332900 1.017815 -0.183554
v -0.032900 1.004714 0.335646
v -0.332900 1.289915 -0.173154
v -0.032900 1.275515 0.346146
v -0.032900 1.030815 -0.702753
v -0.032900 1.304214 -0.692653
v -0.032900 1.275515 0.346146
v 0.017000 1.277915 0.259546
v -0.332900 1.289915 -0.173154
v -0.232900 1.289915 -0.173154
v -0.032900 1.304214 -0.692653
v 0.017000 1.301815 -0.606053
v -0.158600 0.508315 1.780946
v -0.130400 0.513915 3.901047
v -0.152800 0.672215 1.772046
v -0.114400 0.650515 3.897646
v -0.201900 0.485115 6.189547
v -0.165100 0.691615 6.191846
v -0.102200 0.519515 6.021246
v -0.076000 0.628814 6.023246
v -0.023600 0.354015 6.779047
v -0.021200 0.373914 6.190947
v -0.076000 0.628814 6.023246
v -0.102200 0.519515 6.021246
v -0.021200 0.373914 6.190947
v -0.020200 0.480615 6.022846
v -0.024100 0.429115 1.784546
v -0.022200 0.454915 3.903746
v -0.188900 0.718115 6.776146
v -0.225900 0.478415 6.772846
v -0.005100 0.586715 6.266447
v 0.025700 0.801414 6.776347
v 0.017300 0.766415 6.192047
v -0.013100 0.730515 1.769547
v -0.002700 0.697315 3.896446
v -0.020200 0.480615 6.022846
v 1.054500 0.009315 -1.297154
v -1.148000 0.009315 -1.297154
v 0.652700 1.034914 -0.926354
v -0.776500 1.034914 -0.930954
v 0.017300 0.766415 6.192047
v 0.007700 0.664015 6.023346
v -1.226700 -0.015785 1.360546
v 1.093000 -0.015785 1.360546
v -0.914000 0.888814 1.092746
v 0.850300 0.888814 1.092746
v -0.023600 0.354015 6.779047
v 0.007700 0.664015 6.023346
v 1.004100 1.027615 -0.571253
v 0.652700 1.034914 -0.926354
v -1.064900 1.027615 -0.570553
v -0.776500 1.034914 -0.930954
v -0.914000 0.198115 1.298546
v 0.850300 0.198115 1.301346
v -0.914000 0.227115 1.473346
v 0.850300 0.227115 1.473346
v 0.850300 0.442914 1.797547
v -0.914000 0.442914 1.797547
v 0.850300 0.786114 1.753646
v -0.914000 0.786114 1.753646
v 0.850300 0.926515 1.395947
v -0.914000 0.926515 1.395947
v 0.850300 0.888814 1.090246
v -0.914000 0.888814 1.090246
v 0.025700 0.801414 6.776347
v -1.064900 1.027615 -0.570553
v -1.056800 0.986315 1.062846
v 1.004100 1.027615 -0.571253
v 1.004100 0.986315 1.062846
v -1.628700 -0.015785 1.357946
v 1.571700 -0.015785 1.358046
v -1.056800 0.986315 1.062846
v 1.004100 0.986315 1.062846
v 0.945300 1.148815 0.960047
v -0.974200 1.148815 0.960047
v 0.945300 0.989614 0.960047
v -0.974200 0.989614 0.960047
v 0.945300 0.996114 0.703447
v -0.974200 0.996114 0.703447
v 0.945300 1.148815 0.703447
v -0.974200 1.148815 0.703447
v 0.945300 1.148815 0.703447
v -0.974200 1.148815 0.703447
v 0.945300 1.148815 0.960047
v -0.974200 1.148815 0.960047
v 0.017000 1.277915 0.259546
v 0.264100 1.460715 -0.173254
v -0.232900 1.289915 -0.173154
v 0.017000 1.301815 -0.606053
v 0.175900 0.439715 6.774247
v 0.089300 0.500015 3.902546
v 0.064100 0.514615 6.022846
v 0.114600 0.485415 1.782246
v 0.209500 0.662014 6.776746
v 0.153300 0.447915 6.191146
v 0.064100 0.514615 6.022846
v 0.114100 0.625015 3.898947
v 0.085900 0.612415 6.024046
v 0.142300 0.637614 1.773847
v 0.175900 0.439715 6.774247
v 0.153300 0.447915 6.191146
v 0.185600 0.642815 6.192546
v 0.085900 0.612415 6.024046
v 0.209500 0.662014 6.776746
v 0.185600 0.642815 6.192546
v 0.517000 1.301815 -0.606053
v 0.517000 1.277915 0.259546
v 0.567000 1.275515 0.346146
v 0.517000 1.277915 0.259546
v 0.567000 1.304214 -0.692653
v 0.517000 1.301815 -0.606053
v 0.567000 1.004714 0.335646
v 0.567000 1.275515 0.346146
v 0.567000 1.030815 -0.702753
v 0.567000 1.304214 -0.692653
v 0.767000 1.289915 -0.173154
v 0.867000 1.289915 -0.173154
v 0.767000 1.289915 -0.173154
v 0.867000 1.017815 -0.183554
v 0.867000 1.289915 -0.173154
v 0.850300 0.888814 1.090246
v 0.850300 0.926515 1.395947
v 0.850300 0.198115 1.301346
v 0.850300 0.227115 1.473346
v 0.850300 0.442914 1.797547
v 0.850300 0.786114 1.753646
v 0.945300 0.989614 0.960047
v 0.945300 0.996114 0.703447
v 0.945300 1.148815 0.960047
v 0.945300 1.148815 0.703447
v 1.598000 0.004215 -0.761253
v 1.054500 0.009315 -1.297154
v 1.004100 1.027615 -0.571253
v 0.652700 1.034914 -0.926354
v 1.571700 -0.015785 1.358046
v 1.598000 0.004215 -0.761253
v 1.004100 0.986315 1.062846
v 1.004100 1.027615 -0.571253
vt 0.366900 0.366500
vt 0.366900 0.366500
vt 0.366900 0.366500
vt 0.366900 0.366500
vt 0.351300 0.366500
vt 0.351300 0.366500
vt 0.351300 0.366500
vt 0.351300 0.366500
vt 0.351300 0.366500
vt 0.351300 0.366500
vt 0.351300 0.366500
vt 0.351300 0.366500
vt 0.273200 0.397700
vt 0.273200 0.397700
vt 0.273200 0.397700
vt 0.273200 0.397700
vt 0.273200 0.397700
vt 0.273200 0.397700
vt 0.351300 0.866500
vt 0.351300 0.866500
vt 0.351300 0.866500
vt 0.351300 0.866500
vt 0.257600 0.382100
vt 0.257600 0.382100
vt 0.257600 0.382100
vt 0.257600 0.382100
vt 0.257600 0.382100
vt 0.257600 0.382100
vt 0.273200 0.382100
vt 0.273200 0.382100
vt 0.273200 0.382100
vt 0.273200 0.382100
vt 0.273200 0.382100
vt 0.273200 0.382100
vt 0.366900 0.850800
vt 0.366900 0.850800
vt 0.366900 0.850800
vt 0.366900 0.850800
vt 0.351300 0.350800
vt 0.351300 0.350800
vt 0.351300 0.350800
vt 0.351300 0.350800
vt 0.351300 0.866500
vt 0.351300 0.866500
vt 0.366900 0.850800
vt 0.366900 0.850800
vt 0.351300 0.350800
vt 0.351300 0.350800
vt 0.366900 0.850800
vt 0.366900 0.850800
vt 0.085900 0.976500
vt 0.085900 0.976500
vt 0.085900 0.976500
vt 0.351300 0.866500
vt 0.351300 0.866500
vt 0.366900 0.850800
vt 0.366900 0.850800
vt 0.366900 0.850800
vt 0.351300 0.350800
vt 0.351300 0.350800
vt 0.351300 0.350800
vt 0.351300 0.350800
vt 0.351300 0.350800
vt 0.351300 0.350800
vt 0.351300 0.350800
vt 0.351300 0.350800
vt 0.351300 0.350800
vt 0.351300 0.350800
vt 0.085900 0.976500
vt 0.366900 0.850800
vt 0.351300 0.850800
vt 0.351300 0.850800
vt 0.351300 0.850800
vt 0.351300 0.850800
vt 0.273200 0.382100
vt 0.273200 0.382100
vt 0.273200 0.382100
vt 0.273200 0.382100
vt 0.273200 0.382100
vt 0.273200 0.382100
vt 0.273200 0.382100
vt 0.273200 0.382100
vt 0.273200 0.382100
vt 0.273200 0.382100
vt 0.273200 0.382100
vt 0.273200 0.382100
vt 0.085900 0.976500
vt 0.351300 0.850800
vt 0.351300 0.850800
vt 0.351300 0.850800
vt 0.351300 0.850800
vt 0.351300 0.366500
vt 0.351300 0.366500
vt 0.351300 0.366500
vt 0.351300 0.366500
vt 0.351300 0.350800
vt 0.351300 0.350800
vt 0.351300 0.350800
vt 0.351300 0.350800
vt 0.351300 0.350800
vt 0.351300 0.350800
vt 0.351300 0.350800
vt 0.351300 0.350800
vt 0.366900 0.366500
vt 0.366900 0.366500
vt 0.366900 0.366500
vt 0.366900 0.366500
vt 0.366900 0.350800
vt 0.366900 0.350800
vt 0.366900 0.350800
vt 0.366900 0.350800
vt 0.085900 0.976500
vt 0.366900 0.850800
vt 0.366900 0.850800
vt 0.366900 0.850800
vt 0.085900 0.976500
vt 0.351300 0.350800
vt 0.351300 0.350800
vt 0.366900 0.850800
vt 0.366900 0.850800
vt 0.366900 0.850800
vt 0.351300 0.866500
vt 0.351300 0.866500
vt 0.351300 0.350800
vt 0.351300 0.350800
vt 0.351300 0.866500
vt 0.351300 0.866500
vt 0.366900 0.350800
vt 0.366900 0.350800
vt 0.273200 0.382100
vt 0.273200 0.382100
vt 0.273200 0.382100
vt 0.273200 0.382100
vt 0.257600 0.382100
vt 0.257600 0.382100
vt 0.257600 0.382100
vt 0.257600 0.382100
vt 0.366900 0.350800
vt 0.273200 0.382100
vt 0.273200 0.382100
vt 0.257600 0.382100
vt 0.257600 0.382100
vt 0.273200 0.397700
vt 0.273200 0.397700
vt 0.273200 0.397700
vt 0.273200 0.397700
vt 0.273200 0.397700
vt 0.273200 0.397700
vt 0.351300 0.366500
vt 0.351300 0.366500
vt 0.351300 0.366500
vt 0.351300 0.366500
vt 0.351300 0.366500
vt 0.351300 0.366500
vt 0.351300 0.366500
vt 0.351300 0.366500
vt 0.366900 0.366500
vt 0.366900 0.366500
vt 0.366900 0.366500
vt 0.366900 0.366500
vn -0.867835 0.496824 0.005262
vn -0.871718 0.489902 0.010210
vn -0.871718 0.489902 0.010210
vn -0.876552 0.481023 0.016509
vn -0.657458 0.472472 -0.586958
vn -0.674762 0.464375 -0.573631
vn -0.674762 0.464375 -0.573631
vn -0.701257 0.451119 -0.552024
vn -1.000000 0.000000 0.000000
vn -1.000000 0.000000 0.000000
vn -1.000000 0.000000 0.000000
vn -1.000000 0.000000 0.000000
vn -1.000000 0.000000 0.000000
vn -1.000000 0.000000 0.000000
vn -1.000000 0.000000 0.000000
vn -1.000000 0.000000 0.000000
vn -1.000000 0.000000 0.000000
vn -1.000000 0.000000 0.000000
vn -0.807018 -0.589181 -0.039834
vn -0.787288 0.614092 -0.055386
vn -0.981152 -0.187663 -0.046071
vn -0.787119 0.613886 -0.059903
vn -0.981858 0.007000 -0.189489
vn -0.654972 -0.029173 0.755090
vn -0.982083 -0.007301 0.188307
vn -0.327283 -0.036611 0.944217
vn -0.327203 0.034885 -0.944310
vn -0.654158 0.028163 -0.755833
vn 0.000005 0.999616 0.027705
vn 0.000005 0.999616 0.027712
vn 0.000005 0.999618 0.027645
vn 0.000061 0.999619 0.027604
vn 0.000057 0.999619 0.027603
vn 0.000061 0.999617 0.027667
vn -0.883989 -0.467326 0.012993
vn -0.896936 -0.441915 0.014734
vn -0.911330 0.411261 0.018488
vn -0.784826 0.619418 0.019226
vn -0.711304 -0.450468 -0.539560
vn -0.715042 0.454569 -0.531114
vn -0.846376 -0.041758 -0.530946
vn -0.509300 0.684318 -0.521846
vn -0.095699 -0.994828 -0.034053
vn -0.099637 -0.994450 -0.033796
vn -0.653335 0.756817 0.019502
vn -0.918667 -0.394694 0.016348
vn -0.004126 -0.845895 -0.533333
vn -0.272541 -0.825362 -0.494469
vn -0.074473 -0.997156 0.011579
vn -0.053968 -0.998474 0.011677
vn 0.719209 -0.564614 0.404907
vn 0.817814 0.374763 0.436730
vn -0.002658 0.000026 0.999996
vn 0.301812 0.951527 -0.059205
vn -0.060712 0.996266 -0.061391
vn -0.029945 0.999427 0.015779
vn 0.154127 0.987938 0.014957
vn -0.029567 -0.999489 0.012150
vn 0.000000 0.340005 -0.940424
vn 0.001192 0.338153 -0.941090
vn 0.001192 0.338153 -0.941090
vn 0.003032 0.335291 -0.942110
vn 0.109184 0.850344 -0.514776
vn 0.088597 0.849238 -0.520524
vn 0.000000 0.283865 0.958864
vn 0.000000 0.283865 0.958864
vn 0.000000 0.283865 0.958864
vn 0.000000 0.283865 0.958864
vn 0.085822 0.906038 0.414402
vn 0.303038 0.952875 0.014039
vn 0.000007 0.999789 0.020546
vn -0.000023 0.999792 0.020403
vn -0.000023 0.999792 0.020403
vn -0.000065 0.999796 0.020199
vn -0.000260 -0.986516 0.163667
vn -0.000131 -0.986301 0.164953
vn -0.000041 -0.897294 0.441434
vn 0.000000 -0.896800 0.442436
vn 0.000000 -0.615131 0.788425
vn 0.000000 -0.253469 0.967343
vn 0.000000 0.474347 0.880338
vn 0.000000 0.772582 0.634915
vn 0.000000 0.972810 0.231603
vn 0.000000 0.997758 0.066922
vn 0.000000 0.992481 -0.122397
vn 0.000000 0.992481 -0.122397
vn -0.128890 -0.911136 0.391431
vn 0.000009 0.999681 0.025277
vn 0.000004 0.999681 0.025271
vn 0.000004 0.999681 0.025271
vn 0.000000 0.999681 0.025266
vn -0.000030 0.282503 0.959266
vn -0.000018 0.282532 0.959258
vn -0.000018 0.282532 0.959258
vn 0.000000 0.282576 0.959245
vn 0.000000 0.000000 1.000000
vn 0.000000 0.000000 1.000000
vn 0.000000 0.000000 1.000000
vn 0.000000 0.000000 1.000000
vn 0.000000 0.000000 -1.000000
vn 0.000000 0.000000 -1.000000
vn 0.000000 0.000000 -1.000000
vn 0.000000 0.000000 -1.000000
vn 0.000000 1.000000 0.000000
vn 0.000000 1.000000 0.000000
vn 0.000000 1.000000 0.000000
vn 0.000000 1.000000 0.000000
vn -0.160795 0.938776 0.304704
vn 0.000000 0.999619 0.027600
vn -0.324890 0.945392 0.026103
vn -0.163227 0.952644 -0.256566
vn -0.723200 0.550446 0.417122
vn 0.752350 -0.658629 0.013290
vn 0.630797 -0.775841 0.012860
vn 0.867809 -0.496717 0.013384
vn -0.842954 -0.352406 0.406495
vn 0.714770 -0.441955 -0.542014
vn 0.500156 -0.678201 -0.538412
vn 0.930691 0.365519 0.014476
vn 0.993281 0.114826 0.014383
vn 0.791775 0.610660 0.013674
vn 0.682514 -0.729924 -0.037222
vn 0.897716 -0.438849 -0.038964
vn 0.782875 0.335770 -0.523799
vn 0.778863 0.321873 -0.538302
vn 0.977029 0.207464 -0.048707
vn 0.818583 0.571792 -0.054550
vn 0.162359 0.953190 -0.255086
vn 0.159951 0.939376 0.303296
vn -0.000005 0.999616 0.027711
vn -0.000005 0.999616 0.027705
vn -0.000057 0.999617 0.027669
vn -0.000061 0.999619 0.027597
vn 0.500479 -0.033463 0.865102
vn 0.499935 -0.033556 0.865412
vn 0.499833 0.031975 -0.865531
vn 0.499367 0.032168 -0.865793
vn 0.321474 0.946558 0.026135
vn -0.000057 0.999619 0.027609
vn -0.000005 0.999618 0.027642
vn 0.981858 0.007000 -0.189489
vn 0.982083 -0.007301 0.188307
vn 1.000000 0.000000 0.000000
vn 1.000000 0.000000 0.000000
vn 1.000000 0.000000 0.000000
vn 1.000000 0.000000 0.000000
vn 1.000000 0.000000 0.000000
vn 1.000000 0.000000 0.000000
vn 1.000000 0.000000 0.000000
vn 1.000000 0.000000 0.000000
vn 1.000000 0.000000 0.000000
vn 1.000000 0.000000 0.000000
vn 0.619878 0.475603 -0.624142
vn 0.624734 0.473517 -0.620878
vn 0.624734 0.473517 -0.620878
vn 0.632102 0.470296 -0.615848
vn 0.868055 0.496228 0.015455
vn 0.867085 0.497958 0.014208
vn 0.867085 0.497958 0.014208
vn 0.865859 0.500129 0.012640
f 60/60/60 61/61/61 59/59/59 
f 62/62/62 61/61/61 60/60/60 
f 10/10/10 11/11/11 9/9/9 
f 12/12/12 11/11/11 10/10/10 
f 6/6/6 7/7/7 5/5/5 
f 8/8/8 7/7/7 6/6/6 
f 2/2/2 3/3/3 1/1/1 
f 4/4/4 3/3/3 2/2/2 
f 158/158/158 159/159/159 157/157/157 
f 160/160/160 159/159/159 158/158/158 
f 154/154/154 155/155/155 153/153/153 
f 156/156/156 155/155/155 154/154/154 
f 150/150/150 151/151/151 149/149/149 
f 152/152/152 151/151/151 150/150/150 
f 105/105/105 106/106/106 104/104/104 
f 107/107/107 106/106/106 105/105/105 
f 101/101/101 102/102/102 100/100/100 
f 103/103/103 102/102/102 101/101/101 
f 97/97/97 98/98/98 96/96/96 
f 99/99/99 98/98/98 97/97/97 
f 93/93/93 94/94/94 92/92/92 
f 95/95/95 94/94/94 93/93/93 
f 89/89/89 90/90/90 88/88/88 
f 91/91/91 90/90/90 89/89/89 
f 72/72/72 73/73/73 71/71/71 
f 74/74/74 73/73/73 72/72/72 
f 66/66/66 67/67/67 65/65/65 
f 68/68/68 67/67/67 66/66/66 
f 144/144/144 145/145/145 143/143/143 
f 144/144/144 145/145/145 144/144/144 
f 144/144/144 146/146/146 145/145/145 
f 144/144/144 146/146/146 144/144/144 
f 144/144/144 147/147/147 146/146/146 
f 148/148/148 147/147/147 144/144/144 
f 14/14/14 15/15/15 13/13/13 
f 16/16/16 15/15/15 14/14/14 
f 16/16/16 15/15/15 15/15/15 
f 17/17/17 15/15/15 16/16/16 
f 17/17/17 18/18/18 15/15/15 
f 86/86/86 85/85/85 86/86/86 
f 84/84/84 85/85/85 86/86/86 
f 84/84/84 83/83/83 85/85/85 
f 82/82/82 83/83/83 84/84/84 
f 82/82/82 81/81/81 83/83/83 
f 80/80/80 81/81/81 82/82/82 
f 80/80/80 79/79/79 81/81/81 
f 77/77/77 79/79/79 80/80/80 
f 77/77/77 78/78/78 79/79/79 
f 77/77/77 78/78/78 77/77/77 
f 77/77/77 76/76/76 78/78/78 
f 75/75/75 76/76/76 77/77/77 
f 109/109/109 128/128/128 111/111/111 
f 109/109/109 128/128/128 109/109/109 
f 109/109/109 138/138/138 128/128/128 
f 109/109/109 138/138/138 109/109/109 
f 109/109/109 129/129/129 138/138/138 
f 109/109/109 129/129/129 109/109/109 
f 109/109/109 108/108/108 129/129/129 
f 109/109/109 108/108/108 109/109/109 
f 109/109/109 110/110/110 108/108/108 
f 111/111/111 110/110/110 109/109/109 
f 52/52/52 53/53/53 51/51/51 
f 69/69/69 53/53/53 52/52/52 
f 69/69/69 53/53/53 53/53/53 
f 112/112/112 53/53/53 69/69/69 
f 112/112/112 53/53/53 53/53/53 
f 116/116/116 53/53/53 112/112/112 
f 116/116/116 53/53/53 53/53/53 
f 87/87/87 53/53/53 116/116/116 
f 87/87/87 51/51/51 53/53/53 
f 28/28/28 27/27/27 28/28/28 
f 137/137/137 27/27/27 28/28/28 
f 137/137/137 136/136/136 27/27/27 
f 137/137/137 136/136/136 137/137/137 
f 137/137/137 141/141/141 136/136/136 
f 142/142/142 141/141/141 137/137/137 
f 142/142/142 134/134/134 141/141/141 
f 135/135/135 134/134/134 142/142/142 
f 135/135/135 134/134/134 134/134/134 
f 26/26/26 134/134/134 135/135/135 
f 26/26/26 24/24/24 134/134/134 
f 25/25/25 24/24/24 26/26/26 
f 25/25/25 23/23/23 24/24/24 
f 28/28/28 23/23/23 25/25/25 
f 28/28/28 27/27/27 23/23/23 
f 56/56/56 38/38/38 56/56/56 
f 37/37/37 38/38/38 56/56/56 
f 37/37/37 36/36/36 38/38/38 
f 35/35/35 36/36/36 37/37/37 
f 35/35/35 49/49/49 36/36/36 
f 38/38/38 46/46/46 38/38/38 
f 36/36/36 46/46/46 38/38/38 
f 36/36/36 50/50/50 46/46/46 
f 49/49/49 50/50/50 36/36/36 
f 49/49/49 113/113/113 50/50/50 
f 115/115/115 113/113/113 49/49/49 
f 115/115/115 119/119/119 113/113/113 
f 121/121/121 119/119/119 115/115/115 
f 121/121/121 57/57/57 119/119/119 
f 56/56/56 57/57/57 121/121/121 
f 56/56/56 38/38/38 57/57/57 
f 46/46/46 58/58/58 46/46/46 
f 50/50/50 58/58/58 46/46/46 
f 50/50/50 114/114/114 58/58/58 
f 113/113/113 114/114/114 50/50/50 
f 113/113/113 120/120/120 114/114/114 
f 119/119/119 120/120/120 113/113/113 
f 119/119/119 70/70/70 120/120/120 
f 57/57/57 70/70/70 119/119/119 
f 57/57/57 45/45/45 70/70/70 
f 38/38/38 45/45/45 57/57/57 
f 38/38/38 46/46/46 45/45/45 
f 34/34/34 33/33/33 32/32/32 
f 34/34/34 33/33/33 34/34/34 
f 34/34/34 132/132/132 33/33/33 
f 133/133/133 132/132/132 34/34/34 
f 133/133/133 139/139/139 132/132/132 
f 140/140/140 139/139/139 133/133/133 
f 140/140/140 130/130/130 139/139/139 
f 131/131/131 130/130/130 140/140/140 
f 131/131/131 29/29/29 130/130/130 
f 30/30/30 29/29/29 131/131/131 
f 30/30/30 31/31/31 29/29/29 
f 32/32/32 31/31/31 30/30/30 
f 32/32/32 33/33/33 31/31/31 
f 19/19/19 44/44/44 43/43/43 
f 19/19/19 44/44/44 19/19/19 
f 19/19/19 21/21/21 44/44/44 
f 20/20/20 21/21/21 19/19/19 
f 20/20/20 22/22/22 21/21/21 
f 20/20/20 22/22/22 20/20/20 
f 20/20/20 55/55/55 22/22/22 
f 54/54/54 55/55/55 20/20/20 
f 54/54/54 127/127/127 55/55/55 
f 126/126/126 127/127/127 54/54/54 
f 126/126/126 123/123/123 127/127/127 
f 122/122/122 123/123/123 126/126/126 
f 122/122/122 44/44/44 123/123/123 
f 43/43/43 44/44/44 122/122/122 
f 40/40/40 41/41/41 39/39/39 
f 40/40/40 41/41/41 40/40/40 
f 40/40/40 42/42/42 41/41/41 
f 63/63/63 42/42/42 40/40/40 
f 63/63/63 64/64/64 42/42/42 
f 63/63/63 64/64/64 63/63/63 
f 63/63/63 125/125/125 64/64/64 
f 124/124/124 125/125/125 63/63/63 
f 124/124/124 125/125/125 125/125/125 
f 117/117/117 125/125/125 124/124/124 
f 117/117/117 118/118/118 125/125/125 
f 47/47/47 118/118/118 117/117/117 
f 47/47/47 48/48/48 118/118/118 
f 39/39/39 48/48/48 47/47/47 
f 39/39/39 41/41/41 48/48/48 
