v -2.173300 0.006700 -2.675300
v -2.173300 -0.002400 2.465700
v -2.173300 0.118600 -2.575600
v -2.173300 0.124500 2.416100
v -2.173300 1.016000 -3.848700
v -2.173300 1.025100 -3.635700
v -2.173300 1.095800 3.856600
v -2.173300 1.180200 3.507300
v -2.173300 1.396300 -3.529600
v -2.173300 1.283900 -3.407800
v -2.173300 1.414700 3.483200
v -2.175700 1.499400 3.413300
v -1.971500 2.166000 2.507000
v -2.183500 1.489300 -3.392200
v -1.971500 2.225600 -3.464700
v -2.173300 0.124500 2.416100
v -1.160400 0.124500 2.416100
v -2.173300 0.118600 -2.575600
v -1.160400 0.118600 -2.575600
v -1.160400 1.025100 -3.635700
v -2.173300 1.025100 -3.635700
v -1.160400 1.207700 3.507300
v -2.173300 1.180200 3.507300
v -1.160400 1.396300 -3.529600
v -1.160400 1.016000 -3.848700
v -2.173300 1.396300 -3.529600
v -2.173300 1.016000 -3.848700
v -1.160400 1.095800 3.856600
v -1.160400 1.414700 3.483200
v -2.173300 1.095800 3.856600
v -2.173300 1.414700 3.483200
v -1.160400 -0.002400 2.465700
v -2.173300 -0.002400 2.465700
v -1.160400 0.006700 -2.675300
v -2.173300 0.006700 -2.675300
v -1.160400 1.283900 -3.407800
v -2.173300 1.283900 -3.407800
v -2.175700 1.499400 3.413300
v -2.183500 1.489300 -3.392200
v -0.810800 0.483800 2.640400
v -0.810800 0.483900 -2.605500
v -1.200500 1.198400 3.841800
v -1.200500 1.198400 3.841800
v -0.810800 0.483800 2.640400
v 1.116600 1.198400 3.841800
v 0.781900 0.483800 2.640400
v -2.175700 1.499400 3.413300
v -1.200500 1.198400 3.841800
v 2.146800 1.499400 3.413300
v 1.116600 1.198400 3.841800
v -2.183500 1.489300 -3.392200
v 2.154600 1.489300 -3.392200
v -0.810800 0.483900 -2.605500
v 0.781900 0.483900 -2.605500
v -0.810800 0.483900 -2.605500
v 0.781900 0.483900 -2.605500
v -0.810800 0.483800 2.640400
v 0.781900 0.483800 2.640400
v 2.154600 1.489300 -3.392200
v -2.183500 1.489300 -3.392200
v 1.946300 2.225600 -3.464700
v -1.971500 2.225600 -3.464700
v -1.971500 2.166000 2.507000
v 1.946300 2.166000 2.507000
v 1.946300 2.166000 2.507000
v 1.946300 2.225600 -3.464700
v -1.971500 2.166000 2.507000
v -1.971500 2.225600 -3.464700
v 0.781900 0.483800 2.640400
v 2.146800 1.499400 3.413300
v 1.116600 1.198400 3.841800
v 1.352200 2.270400 -1.635300
v 1.352200 2.270400 -2.441800
v 0.249100 2.270400 -1.635300
v 0.249100 2.270400 -2.441800
v 2.126700 1.180200 3.507300
v 2.126700 1.414700 3.483200
v 2.126700 1.095800 3.856600
v 2.154600 1.489300 -3.392200
v 0.781900 0.483900 -2.605500
v 2.126700 0.124500 2.416100
v 2.126700 0.118600 -2.575600
v 1.113700 0.124500 2.416100
v 1.113700 0.118600 -2.575600
v 1.113700 1.025100 -3.635700
v 2.126700 1.025100 -3.635700
v 1.113700 1.207700 3.507300
v 2.126700 1.180200 3.507300
v 1.113700 1.396300 -3.529600
v 2.126700 1.396300 -3.529600
v 1.113700 1.016000 -3.848700
v 2.126700 1.016000 -3.848700
v 2.126700 1.283900 -3.407800
v 1.113700 1.283900 -3.407800
v 1.113700 1.095800 3.856600
v 2.126700 1.095800 3.856600
v 1.113700 1.414700 3.483200
v 2.126700 1.414700 3.483200
v 1.113700 -0.002400 2.465700
v 1.113700 0.006700 -2.675300
v 2.126700 -0.002400 2.465700
v 2.126700 0.006700 -2.675300
v 2.146800 1.499400 3.413300
v 2.154600 1.489300 -3.392200
v 1.946300 2.166000 2.507000
v 1.946300 2.225600 -3.464700
v 2.126700 0.006700 -2.675300
v 2.126700 0.118600 -2.575600
v 2.126700 -0.002400 2.465700
v 2.126700 0.124500 2.416100
v 2.126700 1.016000 -3.848700
v 2.126700 1.025100 -3.635700
v 2.126700 1.396300 -3.529600
v 2.126700 1.283900 -3.407800
v -1.910000 0.108200 -0.479900
v -1.910000 0.108200 -1.683100
v -1.910000 1.311400 -0.479900
v -1.910000 1.311400 -1.683100
v -1.910000 0.113400 0.977900
v -1.910000 0.113400 -0.225200
v -1.910000 1.316600 0.977900
v -1.910000 1.316600 -0.225200
v -1.910000 0.123800 2.414800
v -1.910000 0.123800 1.211600
v -1.910000 1.327000 2.414800
v -1.910000 1.327000 1.211600
v -1.910000 0.172700 -1.855000
v -1.910000 0.172700 -2.991800
v -1.910000 1.309500 -1.855000
v -1.910000 1.309500 -2.991800
v 1.910000 0.108200 -0.479900
v 1.910000 0.108200 -1.683100
v 1.910000 1.311400 -0.479900
v 1.910000 1.311400 -1.683100
v 1.910000 0.113400 0.977900
v 1.910000 0.113400 -0.225200
v 1.910000 1.316600 0.977900
v 1.910000 1.316600 -0.225200
v 1.910000 0.123800 2.414800
v 1.910000 0.123800 1.211600
v 1.910000 1.327000 2.414800
v 1.910000 1.327000 1.211600
v 1.910000 0.172700 -1.855000
v 1.910000 0.172700 -2.991800
v 1.910000 1.309500 -1.855000
v 1.910000 1.309500 -2.991800
vt 0.195300 0.773400
vt 0.195300 0.773400
vt 0.195300 0.773400
vt 0.195300 0.773400
vt 0.195300 0.773400
vt 0.195300 0.773400
vt 0.195300 0.773400
vt 0.195300 0.773400
vt 0.195300 0.773400
vt 0.195300 0.773400
vt 0.195300 0.773400
vt 0.351500 0.350200
vt 0.351500 0.350200
vt 0.351500 0.350200
vt 0.351500 0.350200
vt 0.210900 0.773400
vt 0.210900 0.773400
vt 0.210900 0.773400
vt 0.210900 0.773400
vt 0.210900 0.773400
vt 0.210900 0.773400
vt 0.210900 0.773400
vt 0.210900 0.773400
vt 0.210900 0.773400
vt 0.210900 0.773400
vt 0.210900 0.773400
vt 0.210900 0.773400
vt 0.210900 0.773400
vt 0.210900 0.773400
vt 0.210900 0.773400
vt 0.210900 0.773400
vt 0.210900 0.773400
vt 0.210900 0.773400
vt 0.210900 0.773400
vt 0.210900 0.773400
vt 0.210900 0.773400
vt 0.210900 0.773400
vt 0.367100 0.350200
vt 0.367100 0.350200
vt 0.367100 0.350200
vt 0.367100 0.350200
vt 0.367100 0.350200
vt 0.351500 0.365800
vt 0.351500 0.365800
vt 0.351500 0.365800
vt 0.351500 0.365800
vt 0.367100 0.365800
vt 0.367100 0.365800
vt 0.367100 0.365800
vt 0.367100 0.365800
vt 0.351500 0.365800
vt 0.351500 0.365800
vt 0.351500 0.365800
vt 0.351500 0.365800
vt 0.367100 0.350200
vt 0.367100 0.350200
vt 0.367100 0.350200
vt 0.367100 0.350200
vt 0.367100 0.365800
vt 0.367100 0.365800
vt 0.367100 0.365800
vt 0.367100 0.365800
vt 0.367100 0.365800
vt 0.367100 0.365800
vt 0.367100 0.350200
vt 0.367100 0.350200
vt 0.367100 0.350200
vt 0.367100 0.350200
vt 0.367100 0.350200
vt 0.367100 0.350200
vt 0.367100 0.350200
vt 0.226500 0.242100
vt 0.226500 0.242100
vt 0.226500 0.242100
vt 0.226500 0.242100
vt 0.210900 0.257800
vt 0.210900 0.257800
vt 0.210900 0.257800
vt 0.367100 0.350200
vt 0.367100 0.350200
vt 0.195300 0.257800
vt 0.195300 0.257800
vt 0.195300 0.257800
vt 0.195300 0.257800
vt 0.195300 0.257800
vt 0.195300 0.257800
vt 0.195300 0.257800
vt 0.195300 0.257800
vt 0.195300 0.257800
vt 0.195300 0.257800
vt 0.195300 0.257800
vt 0.195300 0.257800
vt 0.195300 0.257800
vt 0.195300 0.257800
vt 0.195300 0.257800
vt 0.195300 0.257800
vt 0.195300 0.257800
vt 0.195300 0.257800
vt 0.195300 0.257800
vt 0.195300 0.257800
vt 0.195300 0.257800
vt 0.195300 0.257800
vt 0.351500 0.350200
vt 0.351500 0.350200
vt 0.351500 0.350200
vt 0.351500 0.350200
vt 0.210900 0.257800
vt 0.210900 0.257800
vt 0.210900 0.257800
vt 0.210900 0.257800
vt 0.210900 0.257800
vt 0.210900 0.257800
vt 0.210900 0.257800
vt 0.210900 0.257800
vt 0.000000 0.000000
vt 1.000000 0.000000
vt 0.000000 1.000000
vt 1.000000 1.000000
vt 0.000000 0.000000
vt 1.000000 0.000000
vt 0.000000 1.000000
vt 1.000000 1.000000
vt 0.000000 0.000000
vt 1.000000 0.000000
vt 0.000000 1.000000
vt 1.000000 1.000000
vt 0.000000 0.000000
vt 1.000000 0.000000
vt 0.000000 1.000000
vt 1.000000 1.000000
vt 0.000000 0.000000
vt 1.000000 0.000000
vt 0.000000 1.000000
vt 1.000000 1.000000
vt 0.000000 0.000000
vt 1.000000 0.000000
vt 0.000000 1.000000
vt 1.000000 1.000000
vt 0.000000 0.000000
vt 1.000000 0.000000
vt 0.000000 1.000000
vt 1.000000 1.000000
vt 0.000000 0.000000
vt 1.000000 0.000000
vt 0.000000 1.000000
vt 1.000000 1.000000
vn -1.000000 0.000000 0.000000
vn -1.000000 0.000000 0.000000
vn -1.000000 0.000000 0.000000
vn -1.000000 0.000000 0.000000
vn -1.000000 0.000000 0.000000
vn -1.000000 0.000000 0.000000
vn -1.000000 0.000000 0.000000
vn -1.000000 0.000000 0.000000
vn -1.000000 0.000000 0.000000
vn -1.000000 0.000000 0.000000
vn -1.000000 0.000000 0.000000
vn -0.955893 0.293716 0.000660
vn -0.958376 0.285503 0.001691
vn -0.958376 0.285503 0.001691
vn -0.960884 0.276936 0.002764
vn 0.000000 0.985110 -0.171923
vn -0.002398 0.984728 -0.174083
vn 0.000000 0.989108 0.147194
vn 0.000000 0.989108 0.147194
vn 0.000000 0.581166 0.813785
vn 0.000000 0.581166 0.813785
vn 0.012351 -0.995044 -0.098661
vn 0.030178 -0.903268 -0.428015
vn 0.000000 0.999578 -0.029065
vn 0.000000 -0.523725 -0.851888
vn 0.000000 0.994857 -0.101293
vn 0.000000 -0.523725 -0.851888
vn 0.000000 -0.583243 0.812298
vn 0.000000 0.996829 0.079571
vn 0.000000 -0.583243 0.812298
vn 0.000000 0.999808 0.019588
vn 0.000000 -0.963940 0.266121
vn 0.000000 -0.995747 0.092129
vn 0.000000 -0.996001 -0.089337
vn 0.000000 -0.965234 -0.261386
vn 0.000000 -0.999673 0.025555
vn 0.013137 -0.999635 0.023630
vn -0.579424 -0.813726 0.046013
vn -0.593930 -0.804516 0.001052
vn -0.584236 -0.811123 0.027341
vn -0.590881 -0.806758 -0.000015
vn -0.416277 -0.834385 0.361269
vn 0.000000 -0.859456 0.511210
vn 0.000000 -0.859456 0.511210
vn 0.000000 -0.859456 0.511210
vn 0.000000 -0.859456 0.511210
vn 0.000000 0.809648 0.586916
vn 0.000000 0.818289 0.574807
vn 0.000000 0.809073 0.587708
vn 0.000000 0.818289 0.574807
vn 0.000000 -0.616243 -0.787556
vn 0.000000 -0.616243 -0.787556
vn 0.000000 -0.616243 -0.787556
vn 0.000000 -0.616243 -0.787556
vn 0.000000 -1.000000 -0.000019
vn 0.000000 -1.000000 -0.000019
vn 0.000000 -1.000000 -0.000019
vn 0.000000 -1.000000 -0.000019
vn 0.000000 -0.097991 -0.995187
vn 0.000000 -0.097991 -0.995187
vn 0.000000 -0.097991 -0.995187
vn 0.000000 -0.097991 -0.995187
vn 0.000000 0.805565 0.592507
vn 0.000000 0.805565 0.592507
vn 0.000000 0.999950 0.009980
vn 0.000000 0.999950 0.009980
vn 0.000000 0.999950 0.009980
vn 0.000000 0.999950 0.009980
vn 0.573479 -0.816963 0.060766
vn 0.583279 -0.811724 0.029832
vn 0.402188 -0.831745 0.382681
vn 0.000000 1.000000 0.000000
vn 0.000000 1.000000 0.000000
vn 0.000000 1.000000 0.000000
vn 0.000000 1.000000 0.000000
vn 1.000000 0.000000 0.000000
vn 1.000000 0.000000 0.000000
vn 1.000000 0.000000 0.000000
vn 0.591585 -0.806240 0.001875
vn 0.593930 -0.804516 0.001052
vn 0.000000 0.985110 -0.171923
vn 0.000000 0.989108 0.147194
vn 0.002398 0.984728 -0.174083
vn 0.000000 0.989108 0.147194
vn 0.000000 0.581166 0.813785
vn 0.000000 0.581166 0.813785
vn -0.012349 -0.995044 -0.098661
vn -0.030175 -0.903268 -0.428015
vn 0.000000 0.999578 -0.029065
vn 0.000000 0.994857 -0.101293
vn 0.000000 -0.523725 -0.851888
vn 0.000000 -0.523725 -0.851888
vn -0.013136 -0.999634 0.023630
vn 0.000000 -0.999673 0.025555
vn 0.000000 -0.583243 0.812298
vn 0.000000 -0.583243 0.812298
vn 0.000000 0.996829 0.079571
vn 0.000000 0.999808 0.019588
vn 0.000000 -0.963940 0.266121
vn 0.000000 -0.996001 -0.089337
vn 0.000000 -0.995747 0.092129
vn 0.000000 -0.965234 -0.261386
vn 0.957369 0.288867 0.000669
vn 0.959754 0.280837 0.001674
vn 0.959754 0.280837 0.001674
vn 0.962162 0.272464 0.002719
vn 1.000000 0.000000 0.000000
vn 1.000000 0.000000 0.000000
vn 1.000000 0.000000 0.000000
vn 1.000000 0.000000 0.000000
vn 1.000000 0.000000 0.000000
vn 1.000000 0.000000 0.000000
vn 1.000000 0.000000 0.000000
vn 1.000000 0.000000 0.000000
vn 1.000000 0.000000 0.000000
vn 1.000000 0.000000 0.000000
vn 1.000000 0.000000 0.000000
vn 1.000000 0.000000 0.000000
vn 1.000000 0.000000 0.000000
vn 1.000000 0.000000 0.000000
vn 1.000000 0.000000 0.000000
vn 1.000000 0.000000 0.000000
vn 1.000000 0.000000 0.000000
vn 1.000000 0.000000 0.000000
vn 1.000000 0.000000 0.000000
vn 1.000000 0.000000 0.000000
vn 1.000000 0.000000 0.000000
vn 1.000000 0.000000 0.000000
vn 1.000000 0.000000 0.000000
vn 1.000000 0.000000 0.000000
vn 1.000000 0.000000 0.000000
vn 1.000000 0.000000 0.000000
vn 1.000000 0.000000 0.000000
vn 1.000000 0.000000 0.000000
vn 1.000000 0.000000 0.000000
vn 1.000000 0.000000 0.000000
vn 1.000000 0.000000 0.000000
vn 1.000000 0.000000 0.000000
vn 1.000000 0.000000 0.000000
vn 1.000000 0.000000 0.000000
vn 1.000000 0.000000 0.000000
vn 1.000000 0.000000 0.000000
vn 1.000000 0.000000 0.000000
vn 1.000000 0.000000 0.000000
vn 1.000000 0.000000 0.000000
vn 1.000000 0.000000 0.000000
f 13/13/13 14/14/14 12/12/12 
f 15/15/15 14/14/14 13/13/13 
f 104/104/104 105/105/105 103/103/103 
f 106/106/106 105/105/105 104/104/104 
f 73/73/73 74/74/74 72/72/72 
f 75/75/75 74/74/74 73/73/73 
f 66/66/66 67/67/67 65/65/65 
f 68/68/68 67/67/67 66/66/66 
f 60/60/60 61/61/61 59/59/59 
f 62/62/62 61/61/61 60/60/60 
f 56/56/56 57/57/57 55/55/55 
f 58/58/58 57/57/57 56/56/56 
f 52/52/52 53/53/53 51/51/51 
f 54/54/54 53/53/53 52/52/52 
f 44/44/44 45/45/45 43/43/43 
f 46/46/46 45/45/45 44/44/44 
f 19/19/19 18/18/18 17/17/17 
f 20/20/20 18/18/18 19/19/19 
f 20/20/20 21/21/21 18/18/18 
f 20/20/20 21/21/21 20/20/20 
f 20/20/20 37/37/37 21/21/21 
f 36/36/36 37/37/37 20/20/20 
f 36/36/36 37/37/37 37/37/37 
f 22/22/22 37/37/37 36/36/36 
f 22/22/22 23/23/23 37/37/37 
f 17/17/17 23/23/23 22/22/22 
f 17/17/17 16/16/16 23/23/23 
f 18/18/18 16/16/16 17/17/17 
f 109/109/109 76/76/76 78/78/78 
f 109/109/109 76/76/76 109/109/109 
f 109/109/109 110/110/110 76/76/76 
f 109/109/109 110/110/110 109/109/109 
f 109/109/109 108/108/108 110/110/110 
f 107/107/107 108/108/108 109/109/109 
f 107/107/107 112/112/112 108/108/108 
f 111/111/111 112/112/112 107/107/107 
f 111/111/111 112/112/112 112/112/112 
f 113/113/113 112/112/112 111/111/111 
f 113/113/113 114/114/114 112/112/112 
f 77/77/77 114/114/114 113/113/113 
f 77/77/77 76/76/76 114/114/114 
f 78/78/78 76/76/76 77/77/77 
f 8/8/8 2/2/2 7/7/7 
f 4/4/4 2/2/2 8/8/8 
f 4/4/4 2/2/2 2/2/2 
f 3/3/3 2/2/2 4/4/4 
f 3/3/3 1/1/1 2/2/2 
f 6/6/6 1/1/1 3/3/3 
f 6/6/6 5/5/5 1/1/1 
f 6/6/6 5/5/5 6/6/6 
f 6/6/6 9/9/9 5/5/5 
f 10/10/10 9/9/9 6/6/6 
f 10/10/10 11/11/11 9/9/9 
f 8/8/8 11/11/11 10/10/10 
f 8/8/8 7/7/7 11/11/11 
f 79/79/79 80/80/80 79/79/79 
f 70/70/70 80/80/80 79/79/79 
f 70/70/70 69/69/69 80/80/80 
f 70/70/70 69/69/69 70/70/70 
f 70/70/70 71/71/71 69/69/69 
f 41/41/41 39/39/39 41/41/41 
f 40/40/40 39/39/39 41/41/41 
f 40/40/40 38/38/38 39/39/39 
f 42/42/42 38/38/38 40/40/40 
f 96/96/96 97/97/97 95/95/95 
f 98/98/98 97/97/97 96/96/96 
f 98/98/98 89/89/89 97/97/97 
f 90/90/90 89/89/89 98/98/98 
f 90/90/90 91/91/91 89/89/89 
f 92/92/92 91/91/91 90/90/90 
f 92/92/92 91/91/91 91/91/91 
f 102/102/102 91/91/91 92/92/92 
f 102/102/102 100/100/100 91/91/91 
f 101/101/101 100/100/100 102/102/102 
f 101/101/101 99/99/99 100/100/100 
f 96/96/96 99/99/99 101/101/101 
f 96/96/96 95/95/95 99/99/99 
f 50/50/50 48/48/48 50/50/50 
f 49/49/49 48/48/48 50/50/50 
f 49/49/49 47/47/47 48/48/48 
f 49/49/49 47/47/47 49/49/49 
f 49/49/49 63/63/63 47/47/47 
f 64/64/64 63/63/63 49/49/49 
f 25/25/25 26/26/26 24/24/24 
f 25/25/25 26/26/26 25/25/25 
f 25/25/25 27/27/27 26/26/26 
f 25/25/25 27/27/27 25/25/25 
f 25/25/25 35/35/35 27/27/27 
f 34/34/34 35/35/35 25/25/25 
f 34/34/34 33/33/33 35/35/35 
f 32/32/32 33/33/33 34/34/34 
f 32/32/32 30/30/30 33/33/33 
f 28/28/28 30/30/30 32/32/32 
f 28/28/28 30/30/30 30/30/30 
f 29/29/29 30/30/30 28/28/28 
f 29/29/29 31/31/31 30/30/30 
f 24/24/24 31/31/31 29/29/29 
f 24/24/24 26/26/26 31/31/31 
f 84/84/84 82/82/82 84/84/84 
f 83/83/83 82/82/82 84/84/84 
f 83/83/83 81/81/81 82/82/82 
f 83/83/83 81/81/81 83/83/83 
f 83/83/83 88/88/88 81/81/81 
f 87/87/87 88/88/88 83/83/83 
f 87/87/87 93/93/93 88/88/88 
f 94/94/94 93/93/93 87/87/87 
f 94/94/94 93/93/93 93/93/93 
f 85/85/85 93/93/93 94/94/94 
f 85/85/85 86/86/86 93/93/93 
f 85/85/85 86/86/86 85/85/85 
f 85/85/85 82/82/82 86/86/86 
f 84/84/84 82/82/82 85/85/85 
f 116/116/116 117/117/117 115/115/115 
f 118/118/118 117/117/117 116/116/116 
f 144/144/144 145/145/145 143/143/143 
f 146/146/146 145/145/145 144/144/144 
f 140/140/140 141/141/141 139/139/139 
f 142/142/142 141/141/141 140/140/140 
f 136/136/136 137/137/137 135/135/135 
f 138/138/138 137/137/137 136/136/136 
f 132/132/132 133/133/133 131/131/131 
f 134/134/134 133/133/133 132/132/132 
f 128/128/128 129/129/129 127/127/127 
f 130/130/130 129/129/129 128/128/128 
f 124/124/124 125/125/125 123/123/123 
f 126/126/126 125/125/125 124/124/124 
f 120/120/120 121/121/121 119/119/119 
f 122/122/122 121/121/121 120/120/120 
