v -0.502600 0.083700 -0.153600
v -0.502600 0.083700 -0.374200
v -0.503000 -0.087500 -0.152700
v -0.503000 -0.087700 -0.373700
v -0.502600 0.083700 0.103500
v -0.503000 -0.087300 0.100800
v -0.502600 0.083700 0.355900
v -0.503000 -0.087000 0.354300
v -0.495900 -0.100900 0.101000
v -0.503000 -0.096400 0.355300
v -0.503000 -0.087300 0.100800
v -0.503000 -0.087000 0.354300
v -0.488700 -0.105400 -0.153200
v -0.503000 -0.087500 -0.152700
v -0.482500 -0.109200 -0.373700
v -0.503000 -0.087700 -0.373700
v -0.502600 0.083700 -0.374200
v -0.481100 0.083700 -0.397000
v -0.482500 -0.087700 -0.396400
v -0.503000 -0.087000 0.354300
v -0.481100 -0.087000 0.378600
v -0.502600 0.083700 0.355900
v -0.481100 0.083700 0.378600
v -0.481100 0.092800 -0.153600
v -0.481100 0.092800 -0.374200
v -0.481100 0.092800 0.103500
v -0.481100 0.092800 0.355900
v -0.182100 0.092800 -0.374200
v -0.481100 0.083700 -0.397000
v -0.182100 0.083700 -0.397000
v -0.182100 -0.104400 0.378600
v -0.182100 0.096400 0.378600
v -0.182100 0.103400 -0.153600
v -0.182100 0.107500 0.103500
v -0.182100 0.096400 0.378600
v -0.182100 0.105600 0.355900
v -0.481100 0.083700 0.378600
v -0.468500 0.093400 0.355900
v -0.481100 -0.087000 0.378600
v -0.182100 -0.104400 0.378600
v -0.182100 0.083700 -0.397000
v 0.495800 -0.100900 0.099900
v 0.488600 -0.105400 -0.155400
v 0.482500 -0.109200 -0.373700
v 0.503000 -0.096400 0.355300
v 0.482500 -0.087700 -0.396400
v 0.182100 0.083700 -0.397000
v 0.182100 -0.104400 0.378600
v 0.182100 -0.104400 0.378600
v 0.182100 0.096400 0.378600
v 0.182100 0.083700 -0.397000
v 0.182100 0.092800 -0.374200
v 0.182100 0.103400 -0.153600
v 0.182100 0.105600 0.355900
v 0.182100 0.096400 0.378600
v 0.182100 0.107500 0.103500
v 0.481100 0.083700 -0.397000
v 0.481100 -0.087000 0.378600
v 0.481100 0.092800 0.355900
v 0.470000 0.093300 0.355900
v 0.481100 0.083700 0.378600
v 0.481100 0.092800 0.103500
v 0.481100 0.083700 -0.397000
v 0.481100 0.092800 -0.374200
v 0.502600 0.083700 -0.374200
v 0.502600 0.083700 0.355900
v 0.503000 -0.087700 -0.373700
v 0.503000 -0.087000 0.354300
v 0.481100 -0.087000 0.378600
v 0.481100 0.083700 0.378600
v 0.481100 0.092800 -0.153600
v 0.502600 0.083700 -0.153600
v 0.502600 0.083700 0.103500
v 0.503000 -0.087000 0.354300
v 0.502600 0.083700 0.355900
v 0.502600 0.083700 -0.374200
v 0.503000 -0.087500 -0.154400
v 0.503000 -0.087300 0.099900
v 0.503000 -0.087500 -0.154400
v 0.503000 -0.087700 -0.373700
v 0.503000 -0.087300 0.099900
v 0.503000 -0.087000 0.354300
vt 0.007800 0.085900
vt 0.007800 0.085900
vt 0.007800 0.085900
vt 0.007800 0.085900
vt 0.007800 0.085900
vt 0.007800 0.085900
vt 0.007800 0.085900
vt 0.007800 0.085900
vt 0.007800 0.070300
vt 0.007800 0.070300
vt 0.007800 0.070300
vt 0.007800 0.070300
vt 0.007800 0.070300
vt 0.007800 0.070300
vt 0.007800 0.070300
vt 0.007800 0.070300
vt 0.007800 0.070300
vt 0.007800 0.070300
vt 0.007800 0.070300
vt 0.023400 0.070300
vt 0.023400 0.070300
vt 0.023400 0.070300
vt 0.023400 0.070300
vt 0.007800 0.085900
vt 0.007800 0.085900
vt 0.007800 0.085900
vt 0.007800 0.085900
vt 0.007800 0.085900
vt 0.007800 0.085900
vt 0.007800 0.085900
vt 0.023400 0.070300
vt 0.023400 0.070300
vt 0.007800 0.085900
vt 0.007800 0.085900
vt 0.007800 0.085900
vt 0.007800 0.085900
vt 0.007800 0.085900
vt 0.007800 0.085900
vt 0.007800 0.070300
vt 0.007800 0.070300
vt 0.007800 0.070300
vt 0.007800 0.070300
vt 0.007800 0.070300
vt 0.007800 0.070300
vt 0.007800 0.070300
vt 0.007800 0.070300
vt 0.007800 0.070300
vt 0.007800 0.070300
vt 0.023400 0.070300
vt 0.023400 0.070300
vt 0.007800 0.085900
vt 0.007800 0.085900
vt 0.007800 0.085900
vt 0.007800 0.085900
vt 0.007800 0.085900
vt 0.007800 0.085900
vt 0.007800 0.070300
vt 0.007800 0.070300
vt 0.007800 0.085900
vt 0.007800 0.085900
vt 0.007800 0.085900
vt 0.007800 0.085900
vt 0.007800 0.085900
vt 0.007800 0.085900
vt 0.007800 0.085900
vt 0.007800 0.085900
vt 0.007800 0.070300
vt 0.007800 0.070300
vt 0.023400 0.070300
vt 0.023400 0.070300
vt 0.007800 0.085900
vt 0.007800 0.085900
vt 0.007800 0.085900
vt 0.023400 0.070300
vt 0.023400 0.070300
vt 0.007800 0.070300
vt 0.007800 0.070300
vt 0.007800 0.070300
vt 0.007800 0.085900
vt 0.007800 0.085900
vt 0.007800 0.085900
vt 0.007800 0.085900
vn -0.996689 0.081312 -0.000001
vn -0.992014 0.126102 -0.002431
vn -0.999997 0.002336 -0.000001
vn -0.999997 0.002334 -0.000002
vn -0.987587 0.157071 -0.000001
vn -0.999997 0.002338 -0.000002
vn -0.991397 0.130821 0.004255
vn -0.999997 0.002341 -0.000001
vn -0.014890 -0.999739 0.017335
vn -0.022481 -0.999747 -0.000653
vn -0.932191 -0.361911 -0.006341
vn -0.996873 0.008360 0.078578
vn -0.014076 -0.999754 0.017166
vn -0.811958 -0.583702 -0.004093
vn -0.021753 -0.997086 -0.073122
vn -0.835020 -0.399633 -0.378198
vn -0.727544 -0.000303 -0.686061
vn -0.132259 -0.002740 -0.991211
vn -0.016463 -0.169248 -0.985436
vn -0.742830 -0.004534 0.669465
vn -0.067557 -0.000213 0.997715
vn -0.734681 -0.002319 0.678408
vn -0.070650 0.000000 0.997501
vn -0.059877 0.998110 -0.013794
vn -0.028362 0.998900 -0.037346
vn -0.061534 0.998092 -0.005004
vn -0.317863 0.947929 0.019865
vn -0.009612 0.996867 -0.078516
vn -0.013641 0.928671 -0.370653
vn 0.000000 0.928758 -0.370688
vn 0.000000 0.000000 1.000000
vn 0.000000 0.000000 1.000000
vn -0.018644 0.999414 -0.028694
vn -0.017738 0.999835 -0.003824
vn -0.011455 0.926717 0.375586
vn -0.019587 0.998374 0.053539
vn -0.051710 0.925857 0.374320
vn -0.045792 0.998734 0.020827
vn -0.081709 -0.895264 0.437979
vn -0.010222 -0.980571 -0.195899
vn 0.000000 -0.003501 -0.999994
vn 0.015106 -0.999736 0.017306
vn 0.027828 -0.999471 0.016856
vn 0.010899 -0.997296 -0.072679
vn 0.011828 -0.999927 0.002473
vn 0.014371 -0.076561 -0.996961
vn 0.000000 -0.003501 -0.999994
vn 0.026223 -0.999494 0.017985
vn 0.000000 0.000000 1.000000
vn 0.000000 0.000000 1.000000
vn 0.000000 0.928758 -0.370688
vn 0.007420 0.998028 -0.062337
vn 0.018138 0.999570 -0.023060
vn 0.012806 0.998723 0.048861
vn 0.017745 0.926632 0.375551
vn 0.025795 0.999661 -0.003571
vn 0.132259 -0.002740 -0.991211
vn 0.081709 -0.895264 0.437979
vn 0.324405 0.945718 0.019490
vn 0.045792 0.998734 0.020827
vn 0.051724 0.926101 0.373714
vn 0.061526 0.998093 -0.004980
vn 0.013641 0.928671 -0.370653
vn 0.028362 0.998900 -0.037346
vn 0.991957 0.126548 -0.002440
vn 0.991397 0.130821 0.004255
vn 0.834672 -0.398962 -0.379674
vn 0.996893 0.008333 0.078326
vn 0.067557 -0.000213 0.997715
vn 0.070650 0.000000 0.997501
vn 0.059877 0.998110 -0.013794
vn 0.996695 0.081229 -0.000001
vn 0.987614 0.156905 -0.000001
vn 0.742830 -0.004534 0.669465
vn 0.734681 -0.002319 0.678408
vn 0.727544 -0.000303 -0.686061
vn 0.809768 -0.586737 -0.004050
vn 0.930494 -0.366252 -0.006395
vn 0.999997 0.002336 -0.000001
vn 0.999997 0.002334 -0.000002
vn 0.999997 0.002338 -0.000002
vn 0.999997 0.002341 -0.000001
f 75/75/75 69/69/69 74/74/74 
f 70/70/70 69/69/69 75/75/75 
f 70/70/70 69/69/69 69/69/69 
f 50/50/50 69/69/69 70/70/70 
f 50/50/50 49/49/49 69/69/69 
f 32/32/32 49/49/49 50/50/50 
f 32/32/32 31/31/31 49/49/49 
f 32/32/32 31/31/31 32/32/32 
f 32/32/32 21/21/21 31/31/31 
f 23/23/23 21/21/21 32/32/32 
f 23/23/23 21/21/21 21/21/21 
f 22/22/22 21/21/21 23/23/23 
f 22/22/22 20/20/20 21/21/21 
f 4/4/4 2/2/2 4/4/4 
f 3/3/3 2/2/2 4/4/4 
f 3/3/3 1/1/1 2/2/2 
f 6/6/6 1/1/1 3/3/3 
f 52/52/52 28/28/28 33/33/33 
f 51/51/51 28/28/28 52/52/52 
f 51/51/51 28/28/28 28/28/28 
f 30/30/30 28/28/28 51/51/51 
f 30/30/30 28/28/28 28/28/28 
f 29/29/29 28/28/28 30/30/30 
f 29/29/29 25/25/25 28/28/28 
f 2/2/2 25/25/25 29/29/29 
f 2/2/2 24/24/24 25/25/25 
f 1/1/1 24/24/24 2/2/2 
f 1/1/1 5/5/5 24/24/24 
f 6/6/6 5/5/5 1/1/1 
f 52/52/52 63/63/63 51/51/51 
f 24/24/24 26/26/26 24/24/24 
f 5/5/5 26/26/26 24/24/24 
f 5/5/5 26/26/26 26/26/26 
f 27/27/27 26/26/26 5/5/5 
f 27/27/27 26/26/26 26/26/26 
f 38/38/38 26/26/26 27/27/27 
f 38/38/38 26/26/26 26/26/26 
f 34/34/34 26/26/26 38/38/38 
f 34/34/34 26/26/26 26/26/26 
f 33/33/33 26/26/26 34/34/34 
f 33/33/33 24/24/24 26/26/26 
f 28/28/28 24/24/24 33/33/33 
f 28/28/28 25/25/25 24/24/24 
f 6/6/6 5/5/5 6/6/6 
f 8/8/8 5/5/5 6/6/6 
f 8/8/8 5/5/5 5/5/5 
f 7/7/7 5/5/5 8/8/8 
f 7/7/7 27/27/27 5/5/5 
f 37/37/37 27/27/27 7/7/7 
f 37/37/37 38/38/38 27/27/27 
f 36/36/36 38/38/38 37/37/37 
f 36/36/36 34/34/34 38/38/38 
f 36/36/36 34/34/34 36/36/36 
f 36/36/36 54/54/54 34/34/34 
f 35/35/35 54/54/54 36/36/36 
f 35/35/35 54/54/54 54/54/54 
f 55/55/55 54/54/54 35/35/35 
f 55/55/55 61/61/61 54/54/54 
f 36/36/36 37/37/37 35/35/35 
f 73/73/73 66/66/66 82/82/82 
f 59/59/59 66/66/66 73/73/73 
f 59/59/59 61/61/61 66/66/66 
f 60/60/60 61/61/61 59/59/59 
f 60/60/60 54/54/54 61/61/61 
f 56/56/56 54/54/54 60/60/60 
f 56/56/56 34/34/34 54/54/54 
f 53/53/53 34/34/34 56/56/56 
f 53/53/53 33/33/33 34/34/34 
f 52/52/52 33/33/33 53/53/53 
f 71/71/71 73/73/73 71/71/71 
f 62/62/62 73/73/73 71/71/71 
f 62/62/62 59/59/59 73/73/73 
f 62/62/62 59/59/59 62/62/62 
f 62/62/62 60/60/60 59/59/59 
f 62/62/62 60/60/60 62/62/62 
f 62/62/62 56/56/56 60/60/60 
f 53/53/53 56/56/56 62/62/62 
f 62/62/62 53/53/53 62/62/62 
f 71/71/71 53/53/53 62/62/62 
f 71/71/71 52/52/52 53/53/53 
f 64/64/64 52/52/52 71/71/71 
f 64/64/64 63/63/63 52/52/52 
f 64/64/64 63/63/63 64/64/64 
f 64/64/64 65/65/65 63/63/63 
f 71/71/71 65/65/65 64/64/64 
f 71/71/71 72/72/72 65/65/65 
f 73/73/73 72/72/72 71/71/71 
f 73/73/73 81/81/81 72/72/72 
f 73/73/73 81/81/81 73/73/73 
f 73/73/73 82/82/82 81/81/81 
f 81/81/81 72/72/72 81/81/81 
f 79/79/79 72/72/72 81/81/81 
f 79/79/79 65/65/65 72/72/72 
f 80/80/80 65/65/65 79/79/79 
f 18/18/18 16/16/16 17/17/17 
f 19/19/19 16/16/16 18/18/18 
f 18/18/18 19/19/19 18/18/18 
f 41/41/41 19/19/19 18/18/18 
f 41/41/41 19/19/19 19/19/19 
f 46/46/46 19/19/19 41/41/41 
f 46/46/46 44/44/44 19/19/19 
f 67/67/67 44/44/44 46/46/46 
f 67/67/67 43/43/43 44/44/44 
f 77/77/77 43/43/43 67/67/67 
f 77/77/77 42/42/42 43/43/43 
f 78/78/78 42/42/42 77/77/77 
f 78/78/78 45/45/45 42/42/42 
f 68/68/68 45/45/45 78/78/78 
f 47/47/47 46/46/46 41/41/41 
f 57/57/57 46/46/46 47/47/47 
f 57/57/57 67/67/67 46/46/46 
f 76/76/76 67/67/67 57/57/57 
f 14/14/14 13/13/13 14/14/14 
f 16/16/16 13/13/13 14/14/14 
f 16/16/16 15/15/15 13/13/13 
f 19/19/19 15/15/15 16/16/16 
f 19/19/19 15/15/15 15/15/15 
f 44/44/44 15/15/15 19/19/19 
f 44/44/44 13/13/13 15/15/15 
f 43/43/43 13/13/13 44/44/44 
f 43/43/43 13/13/13 13/13/13 
f 42/42/42 13/13/13 43/43/43 
f 42/42/42 9/9/9 13/13/13 
f 45/45/45 9/9/9 42/42/42 
f 45/45/45 10/10/10 9/9/9 
f 68/68/68 45/45/45 68/68/68 
f 58/58/58 45/45/45 68/68/68 
f 58/58/58 45/45/45 45/45/45 
f 48/48/48 45/45/45 58/58/58 
f 48/48/48 45/45/45 45/45/45 
f 40/40/40 45/45/45 48/48/48 
f 40/40/40 10/10/10 45/45/45 
f 39/39/39 10/10/10 40/40/40 
f 39/39/39 10/10/10 10/10/10 
f 12/12/12 10/10/10 39/39/39 
f 12/12/12 10/10/10 10/10/10 
f 11/11/11 10/10/10 12/12/12 
f 11/11/11 9/9/9 10/10/10 
f 14/14/14 9/9/9 11/11/11 
f 14/14/14 13/13/13 9/9/9 
